<?xml version="1.0" encoding="utf-8"?>
<!-- Generator: Adobe Illustrator 24.0.0, SVG Export Plug-In . SVG Version: 6.00 Build 0)  -->
<svg version="1.1" xmlns="http://www.w3.org/2000/svg" xmlns:xlink="http://www.w3.org/1999/xlink" x="0px" y="0px" width="500px"
	 height="500px" viewBox="0 0 500 500" style="enable-background:new 0 0 500 500;" xml:space="preserve">
<style type="text/css">
	.st0{fill:#3E383C;}
	.st1{opacity:0.46;}
	.st2{fill:#343D44;}
	.st3{fill:#352B2C;}
	.st4{fill:#5E5556;}
	.st5{fill:#1C1B21;}
	.st6{fill:#D8C4C3;}
	.st7{fill:#7D696B;}
	.st8{fill:#FDFDFF;}
	.st9{fill:#967A77;}
	.st10{fill:#361C1B;}
	.st11{fill:#DEADC0;}
	.st12{fill:#744245;}
	.st13{fill:#695851;}
	.st14{fill:#CCBCBC;}
	.st15{fill:none;stroke:#000000;stroke-width:2;stroke-miterlimit:10;}
	.st16{fill:#BDBCB7;}
	.st17{opacity:0.69;}
</style>
<g id="Lager_1">
	<rect x="-23.77" y="-35.23" class="st0" width="613.75" height="592.18"/>
</g>
<g id="skugga">
	<g class="st1">
		<g>
			<g>
				<path d="M300.76,340.35c-0.48-1.66-0.97-3.31-1.45-4.97c-10.51,13.01-25.5,22.34-41.82,26.01c-5.31,1.19-10.82,1.81-16.21,1.04
					c-5.97-0.85-11.56-3.35-17.05-5.85c-6.57-2.99-13.35-6.2-17.98-11.75c-1.52,1.28-3.04,2.57-4.56,3.85l18.3,176.27h51
					L300.76,340.35z"/>
			</g>
			<g>
				<path d="M235.05,531.48c-1.65-12.03-0.15-24.24,1.34-36.29c3.29-26.58,6.58-53.15,9.87-79.73c0.65-5.23,1.28-10.65-0.28-15.68
					c-1.16-3.76-3.48-7.04-5.18-10.59s-2.78-7.74-1.31-11.39c0.6-1.51,1.61-3.24,0.73-4.6c-0.38-0.59-1.04-0.93-1.66-1.24
					c-13.3-6.76-25.95-14.81-37.7-24.02c-2.49,7.64-4.99,15.29-7.48,22.93c-0.64,1.98-1.3,3.99-1.31,6.07
					c-0.06,6.89,6.55,11.82,12.78,14.75c12.8,6.02,27.03,10.14,41.15,9.26"/>
			</g>
			<g>
				<path d="M241.57,529.75c0.69-52.7,4.34-105.36,10.91-157.66c0.14-1.11,0.3-2.27,0.92-3.2c0.74-1.11,2.01-1.72,3.23-2.25
					c8.16-3.57,16.8-5.96,24.85-9.77c8.04-3.81,15.7-9.35,19.68-17.31c1.81,11.32,5.73,22.3,11.51,32.2
					c-16.66,16.02-39.19,25.79-62.27,27.01"/>
			</g>
			<g>
				<path d="M64.54,498.67c0.65-8.74,2.99-17.36,6.85-25.23c0.89-1.81,1.88-3.79,1.39-5.74c-0.52-2.02-2.46-3.3-4.25-4.38
					c-5.08-3.06-10.17-6.12-15.25-9.19c11.02-18.6,27.08-34.19,46.01-44.65c30-16.58,67.13-20.73,92.32-43.99
					c-2.6,11.93,7.46,23.31,18.69,28.08c10.35,4.4,22.04,2.22,32.94,4.65c1.59,0.35,2.93,1.1,2.76,2.73c-2.77,27.81-4,58-8.75,86.99
					c-0.57,3.5-0.93,7.48-3.75,9.63c-2.33,1.77-5.51,1.77-8.44,1.69c-22.17-0.6-44.34-1.2-66.51-1.8
					c-31.15-0.84-62.3-1.69-93.46-1.94"/>
			</g>
			<g>
				<path d="M457.12,512.64c-4.7-15.18-9.39-30.36-14.09-45.55c-0.47-1.53-0.95-3.11-0.74-4.7c0.26-2.02,1.59-3.72,2.87-5.31
					c4.89-6.08,9.78-12.16,14.67-18.25c-19.23-25.58-50.69-38.25-80.55-49.75c-11.2-4.31-22.4-8.63-33.6-12.94
					c-12.57-4.84-26.66-9.69-39.12-4.58c-5.45,2.24-9.99,6.19-14.79,9.62c-12.71,9.09-28.12,12.31-42.76,17.76
					c-1.22,36.89-3.12,76.06-6.86,112.78c15.45,4.46,31.69,6.17,47.74,5.03c8.4-0.6,16.89-1.96,25.19-0.5
					c6.83,1.2,13.19,4.27,19.93,5.87c18.72,4.44,38.01-2.73,57.18-4.25c21.99-1.75,44.76,3.93,65.85-2.53"/>
			</g>
			<g>
				<path d="M322,224.62c-1.44,0.48-2.88,0.96-4.31,1.44"/>
			</g>
			<g>
				<path d="M204.01,511.13c2.21-40.58,6.96-80.99,13.42-121.11"/>
			</g>
			<g>
				<path d="M167.79,506.58c1.6-42.14,11.04-83.97,27.68-122.73"/>
			</g>
			<g>
				<path d="M136.06,503.73c8.3-43.58,21.27-86.26,38.62-127.09"/>
			</g>
			<g>
				<path d="M278.34,503.29c-2.12-38.17-7.62-76.14-16.41-113.34"/>
			</g>
			<g>
				<path d="M312.01,502.27c-1.51-35.86-11.81-70.69-22.03-105.09c-2.34-7.87-4.73-15.85-9.18-22.74"/>
			</g>
			<g>
				<path d="M342.43,502.84c-1.9-27.77-9.62-54.76-17.29-81.51c-3.05-10.65-6.11-21.3-9.16-31.94c-2.25-7.84-4.58-15.84-9.28-22.5"
					/>
			</g>
			<g>
				<path d="M369.4,510.17c-3.59-23.72-7.18-47.45-10.77-71.17c-0.97-6.44-1.95-12.89-3.45-19.22c-1.29-5.47-2.97-10.85-4.64-16.22
					c-3.22-10.34-6.45-20.68-9.67-31.02"/>
			</g>
			<g>
				<path d="M123.41,476.02c8.27-2.88,17.24-2.82,26-2.73c24.76,0.26,49.51,0.51,74.27,0.77"/>
			</g>
			<g>
				<path d="M131.42,452.36c29.69,0.82,59.36,2.15,89,4"/>
			</g>
			<g>
				<path d="M144.39,429.91c27.72-1.56,55.64,0.32,82.91,5.58"/>
			</g>
			<g>
				<path d="M148.72,407.97c3.16-0.34,6.31-0.77,9.48-1.03c23.42-1.97,46.79,5.04,70.29,4.25"/>
			</g>
			<g>
				<path d="M256.13,481.21c25.08-3.98,50.27-7.98,75.66-8.41c16.28-0.28,32.54,0.9,48.77,2.09"/>
			</g>
			<g>
				<path d="M262.88,455.08c38.74-6.98,78.45-8.6,117.63-4.8"/>
			</g>
			<g>
				<path d="M261.37,431.37c14.52-0.48,29.02-1.81,43.38-3.99c4.79-0.73,9.58-1.55,14.42-1.78c7-0.33,14,0.6,20.95,1.52
					c10.94,1.45,21.88,2.9,32.82,4.35"/>
			</g>
			<g>
				<path d="M259.66,410.31c6.24,1.71,12.84,0.03,19.17-1.38c27.84-6.18,56.92-6.72,84.97-1.59"/>
			</g>
			<g>
				<path d="M197.89,328.17c0.6,7.31-1.08,14.63-3.34,21.6c-0.62,1.9-1.28,3.8-2.33,5.49c-1.25,2.03-3,3.7-4.46,5.58
					c-1.46,1.88-2.68,4.12-2.58,6.5"/>
			</g>
			<g>
				<path d="M196.14,328.11c-1.11,4.45-2.21,8.9-3.32,13.35c-1.04,4.17-2.1,8.4-4.25,12.12c-2.18,3.77-5.48,7.03-6.43,11.28"/>
			</g>
			<g>
				<path d="M194,320.91c-1.02,6.34-2.04,12.67-3.29,18.97c-0.46,2.32-0.97,4.68-2.15,6.73c-1,1.72-2.42,3.15-3.65,4.72
					c-4.77,6.14-6.2,14.71-3.68,22.06"/>
			</g>
			<g>
				<path d="M189.54,320.61c-0.18,7.16-1.66,14.29-4.34,20.93c-2.25,5.59-5.34,10.81-7.5,16.44c-2.16,5.62-3.37,11.89-1.68,17.67"/>
			</g>
			<g>
				<path d="M190.06,315.09c-1.2-0.44-2.36,0.72-3.06,1.79c-2.78,4.25-4.45,9.22-4.79,14.29c-0.28,4.12,0.28,8.45-1.38,12.23
					c-2.52,5.76-9.54,8.77-11.44,14.76c-1.12,3.53-0.2,7.34,0.72,10.93"/>
			</g>
			<g>
				<path d="M184.9,309.7c-2.43,1.98-3.68,5.03-4.67,8c-1.61,4.84-2.78,9.83-3.49,14.88c-0.61,4.35-0.97,8.98-3.55,12.54
					c-1.81,2.49-4.53,4.18-6.42,6.6c-2.22,2.85-3.16,6.66-2.5,10.21"/>
			</g>
			<g>
				<path d="M184.11,306.98c-7.65,5.38-12.95,13.99-14.3,23.25c-0.7,4.76-0.46,9.87-2.86,14.04c-1.49,2.6-3.88,4.56-5.55,7.05
					c-4.8,7.16-2.71,16.71-0.45,25.02"/>
			</g>
			<g>
				<path d="M182.14,304.07c-4.64-0.09-8.38,3.66-11.14,7.39c-3.86,5.22-7.09,11.29-7.05,17.78c0.02,3.13,0.8,6.3,0.12,9.35
					c-1.08,4.85-5.47,8.13-8.12,12.33c-4.32,6.84-3.71,15.57-2.96,23.63"/>
			</g>
			<g>
				<path d="M180.3,302.16c-2.84-0.96-5.73,1.16-7.95,3.18c-5.99,5.44-12.01,11.74-13.34,19.72c-0.56,3.4-0.23,6.92-1.09,10.26
					c-1.37,5.31-5.53,9.41-7.98,14.32c-2.81,5.63-3.26,12.21-2.4,18.45c0.86,6.24,2.96,12.23,5.04,18.17"/>
			</g>
			<g>
				<path d="M304.43,297.89c-1.61,22.76-3.11,46.38,5.11,67.66"/>
			</g>
			<g>
				<path d="M305.44,296.17c-4.97,27.29-0.38,56.22,12.78,80.64"/>
			</g>
			<g>
				<path d="M304.34,301.92c-1.14,25.06,5.55,50.43,18.91,71.67"/>
			</g>
			<g>
				<path d="M305.52,296.85c0.76,25.47,10.9,49.6,20.89,73.04"/>
			</g>
			<g>
				<path d="M305.32,306.42c7.33,19.71,14.41,39.52,21.24,59.42"/>
			</g>
			<g>
				<path d="M306.43,305.88c5.88,3.14,8.44,10.08,10.44,16.44c4.74,15.06,9.06,30.25,12.97,45.54"/>
			</g>
			<g>
				<path d="M306.21,293.81c11.46,23.71,19.62,49.02,24.15,74.97"/>
			</g>
			<g>
				<path d="M310.99,303.76c3.28,4.59,6.07,9.54,8.3,14.73c1.96,4.57,3.49,9.32,4.97,14.08c3.8,12.24,7.26,24.59,10.4,37.02"/>
			</g>
			<g>
				<path d="M314.52,302c4.7,0.44,7.5,5.34,9.33,9.69c7.92,18.85,13.02,38.89,15.07,59.24"/>
			</g>
			<g>
				<path d="M311.93,297.61c-0.47,0.38-0.94,0.77-1.42,1.15c3.82-0.27,6.77,3.2,8.89,6.39c13.34,20.03,21.82,43.28,24.49,67.2"/>
			</g>
			<g>
				<path d="M313.61,295.37c2.97,0.84,5.79,2.31,8,4.46c3.41,3.3,5.16,7.91,6.81,12.37c7.36,19.87,14.77,39.88,18.34,60.77"/>
			</g>
			<g>
				<path d="M317.36,292.26c0.92,0.73,1.77,1.56,2.53,2.47c1.85,2.21,3.12,4.84,4.37,7.44c3.75,7.82,7.51,15.63,11.26,23.45
					c1.69,3.52,3.38,7.04,4.65,10.73c3.63,10.54,3.66,21.97,6.35,32.79"/>
			</g>
			<g>
				<path d="M316.24,309.44c11.91,15.64,16.75,35.41,20.66,54.67"/>
			</g>
			<g>
				<path d="M308.76,309.73c0.57,0.51,0.75,1.32,0.9,2.07c2.49,12.42,4.98,24.84,7.47,37.26"/>
			</g>
			<g>
				<path d="M321.28,298.33c0.46,0.57,0.92,1.15,1.38,1.72c-4.34-7.54-10.13-14.25-16.95-19.65"/>
			</g>
			<g>
				<path d="M324.37,304.22c-6.04-6.07-11.84-12.39-17.36-18.94"/>
			</g>
			<g>
				<path d="M320.51,301.25c-4.77-4.95-9.79-9.65-15.04-14.09"/>
			</g>
			<g>
				<path d="M323.38,307.37c-6.93-5.93-14.39-11.25-22.25-15.86"/>
			</g>
			<g>
				<path d="M316.79,304.98c-5.99-5.52-11.98-11.05-17.98-16.57"/>
			</g>
			<g>
				<path d="M319.08,304.83c-6.45-6.62-13.16-12.98-20.11-19.08"/>
			</g>
			<g>
				<path d="M317.05,302.21c-4.31-5.36-9.17-10.28-14.47-14.67"/>
			</g>
			<g>
				<path d="M324.12,305.19c-2.1-2.67-4.36-5.21-6.77-7.61"/>
			</g>
			<g>
				<path d="M315.19,303.69c-4.19-3.58-8.18-7.4-11.93-11.44"/>
			</g>
			<g>
				<path d="M173.38,307.61c2.66-4.74,7.13-8.43,12.29-10.16"/>
			</g>
			<g>
				<path d="M177.67,310.49c1.53-3.74,5.14-6.54,9.14-7.09"/>
			</g>
			<g>
				<path d="M181.6,310.51c0.63-3.07,2.99-5.72,5.96-6.7"/>
			</g>
			<g>
				<path d="M184.3,317.41c-0.77-0.12-0.6-1.28-0.21-1.94c1.33-2.21,2.98-4.23,4.88-5.98"/>
			</g>
			<g>
				<path d="M184.82,319.84c1.13-3.68,3.04-7.12,5.56-10.02"/>
			</g>
			<g>
				<path d="M187.88,320.26"/>
			</g>
			<g>
				<path d="M191.84,326.01"/>
			</g>
			<g>
				<path d="M199.96,335.04c-1.31-4.47-0.15-9.58,2.96-13.04"/>
			</g>
			<g>
				<path d="M196.4,331.85c-1.05-1.99-1.05-4.39-0.49-6.57s1.65-4.17,2.73-6.14"/>
			</g>
			<g>
				<path d="M191.61,331.45c-1-5.1,0.63-10.64,4.22-14.39"/>
			</g>
			<g>
				<path d="M189.24,325.65c0.01-4.52,1.93-9.01,5.2-12.13"/>
			</g>
			<g>
				<path d="M188.1,324.56c0.26-4.43,2.01-8.77,4.9-12.14"/>
			</g>
			<g>
				<path d="M179.47,311.98c0.19-4.46,1.91-8.84,4.8-12.24"/>
			</g>
			<g>
				<path d="M191.35,198.59c-9.22,10.9-11.88,26.52-13.94,40.98c-0.61,4.31-1.23,8.65-1.04,13c0.26,6.08,2.07,11.97,3.87,17.78
					c2.46,7.95,3.22,19.3,5.68,27.26c1.8,5.83,2.79,10.68,5.67,16.06c3.78,7.05,11.97,11.05,13.11,18.96
					c0.73,5.04-0.41,10.56,2.11,14.98c1.8,3.18,5.14,5.12,8.32,6.91c7.74,4.36,15.68,8.8,24.45,10.24
					c9.66,1.59,19.64-0.61,28.58-4.6c8.94-3.99,16.99-9.7,24.9-15.46c1.82-1.32,3.8-3.08,4.39-5.1
					c-3.08-17.63,5.42-35.02,10.23-52.32c3.56-12.79,5.14-26.12,4.66-39.39c-0.14-3.97-0.47-7.95-1.32-11.83
					c-0.98-4.46-2.65-8.75-4.48-12.94c-4.43-10.16-9.82-19.89-16.08-29.02c-3.9-5.69-8.8-11.56-15.6-12.69
					c-5.56-0.92-11.06,1.57-16.66,2.29c-11.95,1.54-23.99-5.07-35.83-2.84c-4.37,0.82-8.42,2.81-12.4,4.79
					c-5.14,2.56-10.32,5.17-14.65,8.93C193.87,195.83,192.55,197.17,191.35,198.59z"/>
			</g>
			<g>
				<path d="M225.07,253.59c-4.19-4.17-10.59-5.61-16.42-4.65s-11.12,4.07-15.62,7.91c0.01-1.32,0.72-2.53,1.49-3.6
					c3.93-5.48,10.3-9.33,17.04-9.5s13.6,3.67,16.35,9.82c-1.12-0.24-2.23-0.47-3.35-0.71"/>
			</g>
			<g>
				<path d="M224.13,253.12c-3.28-2.85-7.9-3.56-12.24-3.5c-6.07,0.08-12.63,1.74-16.35,6.54c3.14,1.15,6.56,1.17,9.9,1.19
					c6.76,0.02,14.06-0.13,19.43-4.22"/>
			</g>
			<g>
				<path d="M227.29,254.14c-4.05,3.71-8.23,7.5-13.33,9.55c-5.1,2.04-11.41,2-15.62-1.54c-1.87-1.57-3.18-3.7-4.46-5.78
					c11.23,3.61,23.97,2.19,34.13-3.8"/>
			</g>
			<g>
				<path d="M287.38,253.97c-3.75-4.72-9.61-7.69-15.64-7.92c-6.02-0.23-12.1,2.28-16.2,6.69c-0.11-1.68,0.99-3.18,2.15-4.4
					c2.82-3.01,6.34-5.43,10.28-6.64c3.94-1.21,8.33-1.15,12.11,0.5c5.68,2.49,9.26,8.07,12.51,13.35c-1.72-0.75-3.39-1.61-5-2.58"
					/>
			</g>
			<g>
				<path d="M288.89,254.49c-4.26-4.71-10.12-8.18-16.45-8.66c-6.33-0.48-13.04,2.39-16.3,7.84c5.26,1.36,10.62,2.74,16.05,2.47
					c2.22-0.11,4.42-0.5,6.61-0.88c2.97-0.52,5.94-1.04,8.91-1.57"/>
			</g>
			<g>
				<path d="M256.39,254.63c4.59,4.35,10.87,6.86,17.19,6.87c6.32,0.01,12.61-2.48,17.22-6.81c-4-0.42-8.06-0.27-12.02,0.45
					c-2.45,0.45-4.87,1.11-7.35,1.35c-5.39,0.51-10.74-1.01-15.92-2.59c0.34,0.84,0.97,1.56,1.75,2.02"/>
			</g>
			<g>
				<path d="M231.38,287.08c-1.15,0.13-2.29-0.32-3.27-0.93c-2.39-1.46-4.25-4.01-4.32-6.82c-0.08-2.8,1.97-5.68,4.75-6.03"/>
			</g>
			<g>
				<path d="M253.3,286.06c2.61-1.34,4.4-4.14,4.52-7.07c0.13-2.93-1.42-5.87-3.9-7.43"/>
			</g>
			<g>
				<path d="M250.32,281.28c-0.53-0.45-1.29-0.61-2-0.56c-1.62,0.13-3.1,1.31-3.59,2.86c0.39,0.56,1.44,0.59,1.62-0.4
					c0.85,0.19,1.7,0.37,2.56,0.56c0.38,0.08,0.78,0.17,1.15,0.05c0.83-0.25,1.08-1.45,0.59-2.17
					C250.55,281.5,250.44,281.38,250.32,281.28z"/>
			</g>
			<g>
				<path d="M231.12,282.29c-0.13,0.84,0.24,1.86,1.02,2.29c1.62,0.91,3.78-0.07,5.14-1.05c-0.4-1.22-2.61-2.07-3.96-2.41
					c-0.4-0.1-0.82-0.15-1.21-0.04C231.53,281.24,231.21,281.72,231.12,282.29z"/>
			</g>
			<g>
				<path d="M257.05,306.13c-2.65,3.71-7.24,5.82-11.73,6.99c-1.7,0.44-3.46,0.79-5.21,0.64c-1.74-0.14-3.41-0.77-5.05-1.38
					c-4.02-1.51-8.03-3.02-12.05-4.53c4.86-4.01,11.65-4.5,17.95-4.79c2.07-0.1,4.15-0.2,6.2,0.08c3.62,0.48,7.19,2.1,10.8,1.53
					C257.69,305.18,257.39,305.67,257.05,306.13z"/>
			</g>
			<g>
				<path d="M263.26,303.63c-2.04-1.33-4.84,0.09-7.17-0.63c-2.34-0.73-3.6-3.42-5.91-4.25c-2.71-0.98-5.56,0.97-8.44,1.18
					c-2.47,0.18-4.93-0.93-7.37-0.54c-2.84,0.46-4.93,2.82-7.36,4.37c-2.88,1.84-6.44,2.59-9.82,2.06c3.1,1.55,6.89,2.29,10.02,0.79
					c1.45-0.69,2.66-1.81,4.13-2.45c3.06-1.34,6.57-0.38,9.9-0.57c2.92-0.17,5.67-0.36,8.57,0.05c1.84,0.26,2.88,1.07,4.68,1.52
					c2.82,0.7,6.66-0.45,9.29-1.69"/>
			</g>
			<g>
				<path d="M295.59,317.6c-6.79,11.88-14.17,23.43-22.11,34.58c-2.34,3.29-4.82,6.63-8.25,8.77c-3.13,1.95-6.83,2.76-10.49,3.23
					c-4.3,0.55-8.65,0.67-12.98,0.35c-1.8-0.13-3.6-0.34-5.34-0.83c-5.43-1.55-9.66-5.75-13.41-9.98
					c-6.95-7.83-13.17-16.3-18.55-25.28c2.28,2.41,4.94,4.4,7.6,6.38c5.13,3.83,10.34,7.71,16.32,10.02
					c8.37,3.24,17.98,3.12,26.27-0.32c3.94-1.64,7.62-4,11.78-4.99c2.42-0.57,4.97-0.67,7.25-1.64c2.19-0.93,3.97-2.6,5.71-4.23
					c5.36-5.05,10.72-10.09,16.09-15.14"/>
			</g>
			<g>
				<path d="M311.01,260.98c2.36-4.85,5.3-9.42,8.73-13.57c0.7-0.84,1.81-1.75,2.75-1.19c0.41,0.24,0.63,0.7,0.8,1.14
					c0.91,2.31,1.07,4.84,1.23,7.32c0.34,5.51,0.67,11.06-0.01,16.54c-0.68,5.48-2.46,10.94-5.93,15.23
					c-0.43,0.53-0.95,1.08-1.63,1.12c-0.6,0.04-1.15-0.33-1.64-0.68c-2.01-1.44-4.12-2.99-5.12-5.25c-0.57-1.27-0.74-2.68-0.85-4.06
					c-0.44-5.7,0.18-11.49,1.83-16.96"/>
			</g>
			<g>
				<path d="M309.15,261.71c2.36-4.85,5.3-9.42,8.73-13.57c0.7-0.84,1.81-1.75,2.75-1.19c0.41,0.24,0.63,0.7,0.8,1.14
					c0.91,2.31,1.07,4.84,1.23,7.32c0.34,5.51,0.67,11.06-0.01,16.54s-2.46,10.94-5.93,15.23c-0.43,0.53-0.95,1.08-1.63,1.12
					c-0.6,0.04-1.15-0.33-1.64-0.68c-2.01-1.44-4.12-2.99-5.12-5.25c-0.57-1.27-0.74-2.68-0.85-4.06
					c-0.44-5.7,0.18-11.49,1.83-16.96"/>
			</g>
			<g>
				<path d="M180.41,265.85c-1.87-3.23-3.74-6.46-5.61-9.69c-0.68-1.18-1.55-2.48-2.89-2.66c-1.98-0.26-3.32,2.2-3.02,4.17
					c0.3,1.97,1.57,3.65,2.21,5.53c0.56,1.62,0.65,3.35,0.8,5.06c0.41,4.66,1.32,9.28,2.71,13.75c0.84,2.72,1.89,5.44,3.63,7.69
					c1.74,2.26,4.61,7.46,7.44,7.74"/>
			</g>
			<g>
				<path d="M179.74,267.59c-1.87-3.23-3.74-6.46-5.61-9.69c-0.68-1.18-1.55-2.48-2.89-2.66c-1.98-0.26-3.32,2.2-3.02,4.17
					c0.3,1.97,1.57,3.65,2.21,5.53c0.56,1.62,0.65,3.35,0.8,5.06c0.41,4.66,1.32,9.28,2.71,13.75c0.84,2.72,1.89,5.44,3.63,7.69
					c1.74,2.26,6.31,6.47,9.15,6.74"/>
			</g>
			<g>
				<path d="M228.08,235.97c-2.31-2.3-4.99-4.23-7.9-5.7"/>
			</g>
			<g>
				<path d="M227.02,235.84c-2.44-1.71-4.88-3.42-7.32-5.13"/>
			</g>
			<g>
				<path d="M227.32,236.48c-2.72-1.65-5.44-3.31-8.16-4.96"/>
			</g>
			<g>
				<path d="M225.8,236.41c-2.88-1.66-5.72-3.38-8.54-5.15"/>
			</g>
			<g>
				<path d="M224.35,235.97c-3.08-1.53-6.21-2.96-9.4-4.27"/>
			</g>
			<g>
				<path d="M223.72,236.41c-2.88-1.35-5.81-2.61-8.77-3.76"/>
			</g>
			<g>
				<path d="M222.63,236.42c-3.39-0.99-6.7-2.29-9.85-3.89"/>
			</g>
			<g>
				<path d="M221.4,236.32c-3.13-1.87-6.55-3.25-10.1-4.07"/>
			</g>
			<g>
				<path d="M219.66,232.92c-3.24-1.16-6.58-2.03-9.98-2.58"/>
			</g>
			<g>
				<path d="M220.82,236.41c-3.56-1.65-7.24-3.05-11-4.19"/>
			</g>
			<g>
				<path d="M219.1,236.16c-0.27,0.29-0.75,0.17-1.12,0.03c-3.21-1.19-6.42-2.38-9.63-3.57"/>
			</g>
			<g>
				<path d="M217.47,236.39c-3.45-1.1-6.91-2.2-10.36-3.3"/>
			</g>
			<g>
				<path d="M214.65,235.69c-3.32-0.88-6.69-1.54-10.09-1.96"/>
			</g>
			<g>
				<path d="M213.33,232.09c-3.91-1.21-8.11-1.48-12.15-0.8"/>
			</g>
			<g>
				<path d="M212.78,233.06c-3.87-1.3-7.92-2.04-12-2.2"/>
			</g>
			<g>
				<path d="M212.24,235.79c-1.05-0.02-2.06-0.34-3.07-0.61c-3.05-0.83-6.18-1.36-9.33-1.58"/>
			</g>
			<g>
				<path d="M211.44,235.63c-3.56-0.88-7.29-1.06-10.92-0.51"/>
			</g>
			<g>
				<path d="M224.5,236.47c-3.72-1.26-7.56-2.17-11.45-2.7"/>
			</g>
			<g>
				<path d="M214.95,233.58c-3.63-0.81-7.23-1.74-10.8-2.79"/>
			</g>
			<g>
				<path d="M206.87,233.07c-3.62-1.02-7.39-2.06-11.09-1.38"/>
			</g>
			<g>
				<path d="M204.02,234.01c-3.47-0.9-7.18-0.89-10.65,0.02"/>
			</g>
			<g>
				<path d="M203.07,233.8c-2.37-0.06-4.76,0.26-7.03,0.94"/>
			</g>
			<g>
				<path d="M204.15,232.76c-3.72,0.37-7.46,0.48-11.19,0.32"/>
			</g>
			<g>
				<path d="M204.58,232.84c-4.07-0.88-8.48-0.09-12,2.14"/>
			</g>
			<g>
				<path d="M195.95,232.71c-1.91,0.92-3.74,2.02-5.45,3.28"/>
			</g>
			<g>
				<path d="M196.48,234.17c-3.02,1.22-5.96,2.64-8.8,4.25"/>
			</g>
			<g>
				<path d="M195,235.25c-1.67,1.09-3.33,2.19-5,3.28c-0.64,0.42-1.28,0.84-2.01,1.07"/>
			</g>
			<g>
				<path d="M195.51,232.64c-2.53,1.35-4.96,2.89-7.27,4.6"/>
			</g>
			<g>
				<path d="M202.96,234.2c-1.21,0.36-2.48,0.48-3.69,0.84c-0.85,0.25-1.65,0.63-2.46,1c-1.81,0.83-3.62,1.67-5.43,2.5"/>
			</g>
			<g>
				<path d="M200.39,234.52c-2.12,0.21-4.28,0.78-5.92,2.14c-0.9,0.74-1.65,1.72-2.73,2.17"/>
			</g>
			<g>
				<path d="M207.54,233.94c-3.89-1.1-8.19-0.63-11.75,1.28"/>
			</g>
			<g>
				<path d="M201.18,231.54c-3.47,0.89-6.81,2.3-9.86,4.17"/>
			</g>
			<g>
				<path d="M194.99,233.63c-1.06,0.23-2.11,0.5-3.15,0.81c-0.78,0.23-1.57,0.5-2.24,0.96c-0.67,0.47-1.21,1.17-1.31,1.99"/>
			</g>
			<g>
				<path d="M192.72,233.39c-1.67,0.82-3.13,2.07-4.21,3.59"/>
			</g>
			<g>
				<path d="M203.1,231.29c-4,0.39-7.59,2.5-11.04,4.55"/>
			</g>
			<g>
				<path d="M197.16,234.53c-1.49,0.36-3.03,0.74-4.22,1.7c-1.03,0.83-1.75,2.06-2.94,2.64"/>
			</g>
			<g>
				<path d="M192.84,235.35c-1.8,0.87-3.73,1.85-4.63,3.64"/>
			</g>
			<g>
				<path d="M211.82,232.61c-3.32-0.67-6.8-0.6-10.09,0.21"/>
			</g>
			<g>
				<path d="M213.99,232.7c-3.78-0.2-7.57-0.09-11.33,0.31"/>
			</g>
			<g>
				<path d="M218.03,232.97c-3.19-0.69-6.44-1.08-9.7-1.15"/>
			</g>
			<g>
				<path d="M222.89,234.83c-3.23-1.71-6.86-2.68-10.51-2.82"/>
			</g>
			<g>
				<path d="M222.46,235.02c-3.09-1.31-6.28-2.39-9.54-3.21"/>
			</g>
			<g>
				<path d="M222.48,236.2c-4.15-0.91-8.29-1.89-12.41-2.95"/>
			</g>
			<g>
				<path d="M212.26,235.13c-3.57-1.02-7.4,0.16-11.08-0.27"/>
			</g>
			<g>
				<path d="M205.24,234.61c-2.59-0.1-5.19,0.2-7.69,0.89"/>
			</g>
			<g>
				<path d="M252.11,235.96c3.37-2.29,7.08-4.09,10.96-5.34"/>
			</g>
			<g>
				<path d="M254.25,235.53c3.32-2.12,6.94-3.78,10.71-4.9"/>
			</g>
			<g>
				<path d="M255.1,236c4.09-2.15,8.4-3.9,12.83-5.22"/>
			</g>
			<g>
				<path d="M256.89,236.61c4.03-1.89,8.23-3.43,12.53-4.6"/>
			</g>
			<g>
				<path d="M258.37,237.28c4.18-1.94,8.57-3.45,13.06-4.51"/>
			</g>
			<g>
				<path d="M259.14,237.46c3.86-1.74,7.78-3.35,11.76-4.8"/>
			</g>
			<g>
				<path d="M257.09,235.97c0.9-0.74,2.01-1.19,3.09-1.63c4.34-1.73,8.73-3.37,13.15-4.9"/>
			</g>
			<g>
				<path d="M258.06,233.28c4.81-2.25,9.9-3.88,15.12-4.83"/>
			</g>
			<g>
				<path d="M261.04,230.85c5.18-1.45,10.4-2.75,15.65-3.87"/>
			</g>
			<g>
				<path d="M263.9,231.77c5.09-1.21,10.21-2.27,15.35-3.19"/>
			</g>
			<g>
				<path d="M266.17,233.31c3.69-1.19,7.49-2.05,11.33-2.58"/>
			</g>
			<g>
				<path d="M267.92,233.85c3.64-1.37,7.47-2.26,11.34-2.61"/>
			</g>
			<g>
				<path d="M268.82,232.04c4.29-1.98,9.1-2.47,13.81-2.82"/>
			</g>
			<g>
				<path d="M269.94,230.08c1.14-0.67,2.44-0.98,3.74-1.24c3.22-0.65,6.48-1.05,9.76-1.2"/>
			</g>
			<g>
				<path d="M272.77,229.1c3.59-0.74,7.27-1.09,10.93-1.04"/>
			</g>
			<g>
				<path d="M277.76,228.14c2.8-0.31,5.65-0.11,8.37,0.61"/>
			</g>
			<g>
				<path d="M278.03,228.19c0.82-0.38,1.76-0.4,2.66-0.4c2.77,0.03,5.55,0.3,8.27,0.83"/>
			</g>
			<g>
				<path d="M277.78,228.68c2.97-0.39,6.07,0.25,8.64,1.8"/>
			</g>
			<g>
				<path d="M278.29,231.04c0.11-0.29,0.46-0.39,0.77-0.45c3.46-0.66,7.14-0.15,10.29,1.45"/>
			</g>
			<g>
				<path d="M280.72,228.17c0.63-0.19,1.29,0,1.92,0.2c2.85,0.89,5.69,1.85,8.5,2.87c0.83,0.3,1.69,0.63,2.28,1.28"/>
			</g>
			<g>
				<path d="M285.19,228.88c3.59,0.93,6.83,3.14,9,6.13"/>
			</g>
			<g>
				<path d="M289.13,231.66c2.33,1.12,4.39,2.78,5.99,4.82"/>
			</g>
			<g>
				<path d="M279.67,227.62c2.97-0.48,6.07-0.2,8.91,0.79"/>
			</g>
			<g>
				<path d="M282.46,226.76c2.02-0.14,4.03,0.57,5.75,1.63c1.72,1.07,3.2,2.48,4.67,3.88"/>
			</g>
			<g>
				<path d="M286.14,229.82c3.81,1.35,7.42,3.24,10.7,5.6"/>
			</g>
			<g>
				<path d="M290.31,231.97c2.95,0.57,5.61,2.49,7.08,5.1"/>
			</g>
			<g>
				<path d="M282.28,227.94c-0.05-0.68-0.68-1.2-1.34-1.35c-0.66-0.15-1.35,0-2.01,0.16c-2.06,0.51-4.07,1.19-6.01,2.03"/>
			</g>
			<g>
				<path d="M282.49,228.11c-5.85-0.91-11.99,0.09-17.25,2.82"/>
			</g>
			<g>
				<path d="M271.45,229.03c-4.6-0.48-9.38,0.97-12.93,3.93"/>
			</g>
			<g>
				<path d="M266.03,228.87c-2.63,0.97-5.05,2.47-7.1,4.38"/>
			</g>
			<g>
				<path d="M258.28,236.34c3.38-2.59,7.28-4.49,11.4-5.56"/>
			</g>
			<g>
				<path d="M259.98,236.98c4.02-2.73,8.44-4.88,13.07-6.36"/>
			</g>
			<g>
				<path d="M261.67,236.91c2.61-1.72,5.25-3.43,8.11-4.68s5.98-2.04,9.1-1.83"/>
			</g>
			<g>
				<path d="M273.2,232.92c-0.3-0.07-0.11-0.53,0.14-0.71c1.07-0.76,2.37-1.14,3.66-1.42c2.95-0.63,6.01-0.8,9.01-0.5"/>
			</g>
			<g>
				<path d="M277.49,230.7c3.83-0.65,7.86-0.04,11.33,1.71"/>
			</g>
			<g>
				<path d="M276.55,229.68c3.34-1.05,7.08-0.8,10.24,0.7"/>
			</g>
			<g>
				<path d="M278.84,227.33c2.71-0.47,5.55-0.16,8.1,0.88"/>
			</g>
			<g>
				<path d="M256.19,234.01c3.36-3.02,7.91-4.25,12.28-5.39"/>
			</g>
			<g>
				<path d="M256.68,235.38c4.85-2.63,10.06-4.58,15.44-5.78"/>
			</g>
			<g>
				<path d="M260.48,234.48c5.31-2.18,10.92-3.65,16.61-4.38"/>
			</g>
			<g>
				<path d="M267.79,233.33c5.09-1.42,10.36-2.16,15.64-2.2"/>
			</g>
			<g>
				<path d="M281.55,230.34c3.52,0.13,7.01,1.05,10.14,2.67"/>
			</g>
			<g>
				<path d="M286.13,230.64c0.74,0.91,1.93,1.27,3.03,1.67c1.83,0.67,3.57,1.57,5.16,2.69"/>
			</g>
			<g>
				<path d="M285.73,228.5c1.13-0.22,2.28,0.27,3.3,0.81c1.85,0.98,3.6,2.14,5.21,3.47"/>
			</g>
			<g>
				<path d="M286.15,228.01c2.83,0.64,5.47,2.08,7.53,4.12"/>
			</g>
			<g>
				<path d="M266.05,230.93c-0.9,0.4-1.8,0.81-2.7,1.21"/>
			</g>
			<g>
				<path d="M268.78,230.45c-2.16-0.16-4.32,0.48-6.24,1.46c-1.93,0.98-3.66,2.31-5.38,3.63"/>
			</g>
			<g>
				<path d="M264.32,230.99c-2.92,1.01-5.69,2.46-8.18,4.28"/>
			</g>
			<g>
				<path d="M266.19,231.61c-2.3,1.05-4.48,2.34-6.51,3.85"/>
			</g>
			<g>
				<path d="M324.8,229.33c1.95,5.07,0.55,11.01-1.87,15.97c-2.61,5.34-8.38,10.65-10.52,16.2c-0.58-2.3-0.04-5.23,0-7.61
					c0.23-12.56-3.36-24.49-8.89-35.77c-4.81-9.8-10.01-19.7-18-27.14c-2.29-2.13-4.85-4.07-7.82-5.04
					c-2.22-0.73-4.59-0.88-6.93-1.02c-16.54-0.96-33.12-1.28-49.68-0.96c-2.26,0.04-4.57,0.11-6.67,0.93
					c-3.08,1.21-5.31,3.86-7.76,6.08c-5.29,4.79-12.04,7.88-16.84,13.16c-3.69,4.05-6,9.17-7.73,14.36
					c-5.23,15.68-2.77,31.76-2.94,48.31c-0.46-0.28-1.28-1.99-1.48-2.54c-8.53-23.83-9.18-49.37,2.41-71.88
					c1.91-3.71,4.08-7.31,6.67-10.59c3.16-4.01,6.9-7.51,10.62-10.99c3.89-3.63,7.77-7.27,11.66-10.9c2.55-2.38,5.12-4.78,8.12-6.57
					c10.81-6.43,24.51-3.65,36.73-0.67c4.04,0.98,8.1,1.98,11.9,3.65c1.91,0.84,3.75,1.86,5.73,2.5c2.12,0.69,4.36,0.95,6.46,1.69
					c2.3,0.81,4.36,2.19,6.39,3.54c4.72,3.16,9.47,6.33,13.69,10.13c8.27,7.44,14.27,17,20.17,26.43c1.26,2.02,2.55,4.1,3.08,6.42
					c1.21,5.35-1.75,11.2,0.27,16.3c0.68,1.71,1.87,3.17,2.7,4.81C324.48,228.54,324.65,228.93,324.8,229.33z"/>
			</g>
		</g>
	</g>
</g>
<g id="klder">
	<g>
		<path class="st2" d="M311.76,342.39c-0.48-1.66-0.97-3.31-1.45-4.97c-10.51,13.01-25.5,22.34-41.82,26.01
			c-5.31,1.19-10.82,1.81-16.21,1.04c-5.97-0.85-11.56-3.35-17.05-5.85c-6.57-2.99-13.35-6.2-17.98-11.75
			c-1.52,1.28-3.04,2.57-4.56,3.85L231,527h51L311.76,342.39z"/>
	</g>
	<g>
		<path class="st3" d="M246.05,533.53c-1.65-12.03-0.15-24.24,1.34-36.29c3.29-26.58,6.58-53.15,9.87-79.73
			c0.65-5.23,1.28-10.65-0.28-15.68c-1.16-3.76-3.48-7.04-5.18-10.59s-2.78-7.74-1.31-11.39c0.6-1.51,1.61-3.24,0.73-4.6
			c-0.38-0.59-1.04-0.93-1.66-1.24c-13.3-6.76-25.95-14.81-37.7-24.02c-2.49,7.64-4.99,15.29-7.48,22.93
			c-0.64,1.98-1.3,3.99-1.31,6.07c-0.06,6.89,6.55,11.82,12.78,14.75c12.8,6.02,27.03,10.14,41.15,9.26"/>
	</g>
	<g>
		<path class="st3" d="M252.56,531.8c0.69-52.7,4.34-105.36,10.91-157.66c0.14-1.11,0.3-2.27,0.92-3.2
			c0.74-1.11,2.01-1.72,3.23-2.25c8.16-3.57,16.8-5.96,24.85-9.77s15.7-9.35,19.68-17.31c1.81,11.32,5.73,22.3,11.51,32.2
			c-16.66,16.02-39.19,25.79-62.27,27.01"/>
	</g>
	<g>
		<path class="st4" d="M75.53,500.72c0.65-8.74,2.99-17.36,6.85-25.23c0.89-1.81,1.88-3.79,1.39-5.74c-0.52-2.02-2.46-3.3-4.25-4.38
			c-5.08-3.06-10.17-6.12-15.25-9.19c11.02-18.6,27.08-34.19,46.01-44.65c30-16.58,67.13-20.73,92.32-43.99
			c-2.6,11.93,7.46,23.31,18.69,28.08c10.35,4.4,22.04,2.22,32.94,4.65c1.59,0.35,2.93,1.1,2.76,2.73c-2.77,27.81-4,58-8.75,86.99
			c-0.57,3.5-0.93,7.48-3.75,9.63c-2.33,1.77-5.51,1.77-8.44,1.69c-22.17-0.6-44.34-1.2-66.51-1.8c-31.15-0.84-62.3-1.69-93.46-1.94
			"/>
	</g>
	<g>
		<path class="st4" d="M468.11,514.69c-4.7-15.18-9.39-30.36-14.09-45.55c-0.47-1.53-0.95-3.11-0.74-4.7
			c0.26-2.02,1.59-3.72,2.87-5.31c4.89-6.08,9.78-12.16,14.67-18.25c-19.23-25.58-50.69-38.25-80.55-49.75
			c-11.2-4.31-22.4-8.63-33.6-12.94c-12.57-4.84-26.66-9.69-39.12-4.58c-5.45,2.24-9.99,6.19-14.79,9.62
			c-12.71,9.09-28.12,12.31-42.76,17.76c-1.22,36.89-3.12,76.06-6.86,112.78c15.45,4.46,31.69,6.17,47.74,5.03
			c8.4-0.6,16.89-1.96,25.19-0.5c6.83,1.2,13.19,4.27,19.93,5.87c18.72,4.44,38.01-2.73,57.18-4.25
			c21.99-1.75,44.76,3.93,65.85-2.53"/>
	</g>
	<g>
		<g>
			<path class="st4" d="M332.89,226.3c-1.44,0.48-2.88,0.96-4.31,1.44c-0.46,0.15-0.26,0.88,0.2,0.72c1.44-0.48,2.88-0.96,4.31-1.44
				C333.54,226.87,333.35,226.15,332.89,226.3L332.89,226.3z"/>
		</g>
	</g>
	<g>
		<g>
			<path class="st3" d="M216.5,513.17c1.73-31.57,4.97-63.05,9.38-94.36c1.24-8.8,2.57-17.58,3.98-26.35c0.3-1.89-2.59-2.7-2.89-0.8
				c-5.04,31.32-9.05,62.81-11.63,94.43c-0.73,9.02-1.35,18.05-1.84,27.08C213.4,515.1,216.4,515.1,216.5,513.17L216.5,513.17z"/>
		</g>
	</g>
	<g>
		<g>
			<path class="st3" d="M180.28,508.63c0.63-16.37,2.43-32.68,5.39-48.79c2.95-16.01,7.03-31.81,12.2-47.25
				c2.94-8.77,6.23-17.42,9.88-25.93c0.75-1.76-1.83-3.29-2.59-1.51c-6.53,15.23-11.99,30.9-16.28,46.9
				c-4.27,15.93-7.39,32.16-9.37,48.54c-1.12,9.31-1.86,18.67-2.23,28.04C177.21,510.56,180.21,510.55,180.28,508.63L180.28,508.63z
				"/>
		</g>
	</g>
	<g>
		<g>
			<path class="st3" d="M148.5,506.18c3.23-16.92,7.15-33.71,11.77-50.3c4.61-16.6,9.92-33,15.89-49.16
				c3.39-9.17,6.99-18.27,10.82-27.27c0.32-0.75,0.22-1.6-0.54-2.05c-0.63-0.38-1.74-0.21-2.05,0.54
				c-6.78,15.98-12.92,32.22-18.36,48.7c-5.42,16.43-10.16,33.09-14.2,49.91c-2.3,9.56-4.36,19.17-6.2,28.83
				C145.25,507.26,148.14,508.07,148.5,506.18L148.5,506.18z"/>
		</g>
	</g>
	<g>
		<g>
			<path class="st3" d="M290.83,505.34c-1.67-29.85-5.38-59.59-11.11-88.94c-1.62-8.3-3.41-16.57-5.35-24.8
				c-0.44-1.88-3.34-1.08-2.89,0.8c6.82,28.92,11.68,58.3,14.48,87.88c0.79,8.34,1.41,16.69,1.88,25.06
				C287.94,507.26,290.94,507.27,290.83,505.34L290.83,505.34z"/>
		</g>
	</g>
	<g>
		<g>
			<path class="st3" d="M324.51,504.31c-0.75-17.48-3.56-34.81-7.42-51.85c-3.89-17.15-8.84-34.03-13.84-50.87
				c-2.64-8.88-5.12-17.99-10.16-25.87c-1.04-1.62-3.63-0.12-2.59,1.51c4.38,6.85,6.73,14.65,9.03,22.39
				c2.47,8.31,4.94,16.62,7.28,24.96c4.69,16.66,8.91,33.48,11.66,50.58c1.56,9.65,2.61,19.38,3.03,29.15
				C321.59,506.24,324.59,506.25,324.51,504.31L324.51,504.31z"/>
		</g>
	</g>
	<g>
		<g>
			<path class="st3" d="M354.92,504.89c-1.29-18.6-5.13-36.9-9.83-54.9c-4.8-18.4-10.27-36.63-15.52-54.9
				c-2.65-9.24-5.01-18.91-10.6-26.91c-1.1-1.57-3.7-0.07-2.59,1.51c4.88,6.99,7.15,15.24,9.47,23.33c2.6,9.06,5.2,18.12,7.8,27.18
				c5.11,17.83,10.33,35.66,13.98,53.86c2.04,10.19,3.57,20.47,4.29,30.84C352.06,506.8,355.06,506.82,354.92,504.89L354.92,504.89z
				"/>
		</g>
	</g>
	<g>
		<g>
			<path class="st3" d="M381.83,511.82c-2.77-18.29-5.53-36.57-8.3-54.86c-1.36-8.97-2.58-17.98-4.16-26.92
				c-1.57-8.87-4.09-17.44-6.76-26.02c-3.1-9.94-6.2-19.88-9.3-29.83c-0.57-1.84-3.47-1.05-2.89,0.8c2.75,8.83,5.5,17.66,8.26,26.49
				c2.68,8.59,5.45,17.16,7.18,26c1.74,8.88,2.91,17.88,4.26,26.82c1.38,9.14,2.77,18.29,4.15,27.43
				c1.56,10.3,3.12,20.59,4.67,30.89C379.23,514.52,382.12,513.71,381.83,511.82L381.83,511.82z"/>
		</g>
	</g>
	<g>
		<g>
			<path class="st3" d="M134.8,479.51c5.87-2.01,12.03-2.57,18.2-2.68c6.45-0.12,12.92,0.06,19.37,0.13
				c13.29,0.14,26.59,0.28,39.88,0.41c7.48,0.08,14.95,0.15,22.43,0.23c1.93,0.02,1.93-2.98,0-3c-13.46-0.14-26.92-0.28-40.38-0.42
				c-13.14-0.14-26.3-0.46-39.45-0.38c-7.03,0.04-14.15,0.52-20.85,2.81C132.19,477.24,132.97,480.14,134.8,479.51L134.8,479.51z"/>
		</g>
	</g>
	<g>
		<g>
			<path class="st3" d="M142.41,455.9c23.14,0.64,46.26,1.59,69.37,2.85c6.54,0.36,13.09,0.74,19.63,1.15c1.93,0.12,1.92-2.88,0-3
				c-23.1-1.44-46.22-2.57-69.35-3.38c-6.55-0.23-13.1-0.44-19.65-0.62C140.48,452.85,140.48,455.85,142.41,455.9L142.41,455.9z"/>
		</g>
	</g>
	<g>
		<g>
			<path class="st3" d="M155.39,433.46c21.51-1.19,43.14-0.37,64.48,2.55c6.03,0.83,12.04,1.82,18.02,2.97
				c1.89,0.36,2.69-2.53,0.8-2.89c-21.34-4.1-43.07-6.19-64.8-6.16c-6.17,0.01-12.34,0.19-18.5,0.53
				C153.47,430.56,153.45,433.56,155.39,433.46L155.39,433.46z"/>
		</g>
	</g>
	<g>
		<g>
			<path class="st3" d="M159.71,411.51c5.22-0.56,10.4-1.24,15.65-1.35c5.15-0.12,10.29,0.13,15.42,0.56
				c10.39,0.87,20.7,2.48,31.09,3.4c5.85,0.51,11.73,0.79,17.6,0.61c1.93-0.06,1.93-3.06,0-3c-20.88,0.66-41.36-4.71-62.22-4.6
				c-5.9,0.03-11.7,0.75-17.55,1.38C157.81,408.72,157.79,411.72,159.71,411.51L159.71,411.51z"/>
		</g>
	</g>
	<g>
		<g>
			<path class="st3" d="M267.52,484.7c16.06-2.55,32.12-5.1,48.31-6.71c16.1-1.6,32.21-2.01,48.37-1.29
				c9.13,0.41,18.24,1.07,27.36,1.73c1.93,0.14,1.92-2.86,0-3c-16.39-1.19-32.82-2.39-49.27-2.08c-16.19,0.31-32.31,2.06-48.34,4.3
				c-9.09,1.27-18.16,2.71-27.23,4.15C264.82,482.11,265.62,485,267.52,484.7L267.52,484.7z"/>
		</g>
	</g>
	<g>
		<g>
			<path class="st3" d="M274.27,458.57c30.13-5.41,60.83-7.58,91.43-6.46c8.62,0.31,17.22,0.89,25.8,1.72c1.92,0.19,1.91-2.82,0-3
				c-30.77-2.97-61.84-2.63-92.54,1.04c-8.53,1.02-17.03,2.29-25.49,3.81C271.57,456.02,272.38,458.91,274.27,458.57L274.27,458.57z
				"/>
		</g>
	</g>
	<g>
		<g>
			<path class="st3" d="M272.36,434.92c14.58-0.49,29.12-1.83,43.54-4.01c7.21-1.09,14.28-2.11,21.59-1.7
				c7.35,0.41,14.66,1.59,21.95,2.56c8.16,1.08,16.33,2.17,24.49,3.25c0.81,0.11,1.49-0.77,1.5-1.5c0.01-0.9-0.7-1.39-1.5-1.5
				c-7.35-0.97-14.69-1.95-22.04-2.92c-7.22-0.96-14.45-2.1-21.72-2.7c-7.26-0.6-14.3-0.03-21.47,1.07
				c-7.28,1.11-14.57,2.11-21.91,2.84c-8.12,0.81-16.27,1.34-24.43,1.61C270.44,431.98,270.43,434.98,272.36,434.92L272.36,434.92z"
				/>
		</g>
	</g>
	<g>
		<g>
			<path class="st3" d="M270.26,413.81c6.67,1.74,13.41,0.07,19.96-1.38c6.71-1.49,13.5-2.66,20.32-3.48
				c13.52-1.63,27.2-1.97,40.79-1.01c7.74,0.54,15.43,1.51,23.06,2.9c1.89,0.34,2.7-2.55,0.8-2.89
				c-26.86-4.88-54.54-4.69-81.32,0.65c-7.39,1.47-15.26,4.28-22.81,2.31C269.18,410.43,268.39,413.32,270.26,413.81L270.26,413.81z
				"/>
		</g>
	</g>
</g>
<g id="fejs">
	<g>
		<g>
			<path class="st5" d="M207.38,330.22c0.56,7.52-1.17,14.93-3.56,22.01c-0.53,1.57-1.13,3.1-2.03,4.5
				c-0.87,1.37-1.99,2.56-3.04,3.8c-2.17,2.54-4.13,5.38-4.09,8.86c0.02,1.93,3.02,1.93,3,0c-0.03-3.48,2.64-6.02,4.72-8.5
				c2.2-2.61,3.54-5.44,4.6-8.68c2.31-7.08,3.96-14.51,3.4-22C210.24,328.31,207.24,328.29,207.38,330.22L207.38,330.22z"/>
		</g>
	</g>
	<g>
		<g>
			<path class="st5" d="M205.69,329.76c-0.89,3.58-1.78,7.15-2.67,10.73c-0.82,3.32-1.57,6.67-2.71,9.9
				c-1.05,2.98-2.65,5.56-4.46,8.13c-1.75,2.47-3.44,5-4.16,7.98c-0.45,1.88,2.44,2.68,2.89,0.8c0.71-2.93,2.5-5.33,4.2-7.76
				c1.85-2.62,3.34-5.33,4.41-8.36c1.12-3.15,1.85-6.42,2.65-9.66c0.91-3.66,1.82-7.31,2.72-10.97
				C209.05,328.68,206.15,327.88,205.69,329.76L205.69,329.76z"/>
		</g>
	</g>
	<g>
		<g>
			<path class="st5" d="M203.54,322.56c-0.67,4.14-1.33,8.29-2.06,12.42c-0.67,3.79-1.09,7.92-2.54,11.5
				c-1.34,3.32-4.32,5.67-6.09,8.76c-1.64,2.86-2.68,6.04-3.11,9.3c-0.51,3.8-0.17,7.66,1.04,11.3c0.61,1.82,3.5,1.04,2.89-0.8
				c-1.34-4.02-1.54-8.31-0.54-12.43c0.47-1.92,1.16-3.78,2.12-5.51c1.07-1.95,2.5-3.57,3.89-5.3c3.04-3.78,3.79-8.22,4.66-12.87
				c0.97-5.18,1.8-10.38,2.64-15.57C206.74,321.47,203.85,320.66,203.54,322.56L203.54,322.56z"/>
		</g>
	</g>
	<g>
		<g>
			<path class="st5" d="M199.04,322.66c-0.15,5.02-0.91,9.97-2.31,14.8c-1.35,4.67-3.39,9.02-5.51,13.38
				c-4.11,8.42-8.3,17.73-5.65,27.26c0.52,1.86,3.41,1.07,2.89-0.8c-2.65-9.51,2.34-18.72,6.36-27.04
				c4.23-8.75,6.92-17.84,7.21-27.6C202.09,320.72,199.09,320.73,199.04,322.66L199.04,322.66z"/>
		</g>
	</g>
	<g>
		<g>
			<path class="st5" d="M201.45,315.69c-2.08-0.52-3.65,0.85-4.76,2.48c-1.25,1.84-2.22,3.9-3.02,5.97
				c-1.69,4.4-2.01,8.88-2.09,13.54c-0.04,2.35-0.14,4.76-1.04,6.97c-0.66,1.61-1.76,3-2.94,4.27c-2.43,2.6-5.31,4.82-7.25,7.86
				c-2.91,4.58-1.98,9.81-0.71,14.76c0.48,1.87,3.37,1.08,2.89-0.8c-1.01-3.97-2.05-8.27,0.15-12.03c1.62-2.77,4.23-4.8,6.44-7.06
				c2.42-2.48,4.36-5.26,5-8.73c0.77-4.15,0.16-8.4,0.9-12.54c0.41-2.29,1.08-4.56,2.04-6.69c0.48-1.06,1.02-2.09,1.62-3.08
				c0.31-0.51,1.15-2.22,1.95-2.02C202.53,319.05,203.33,316.16,201.45,315.69L201.45,315.69z"/>
		</g>
	</g>
	<g>
		<g>
			<path class="st5" d="M194.83,310.69c-2.82,2.39-4.17,5.92-5.28,9.35c-1.37,4.25-2.41,8.61-3.09,13.02
				c-0.58,3.74-0.73,7.77-2.34,11.26c-1.61,3.47-4.95,5.36-7.29,8.25c-2.71,3.35-3.72,7.6-3.01,11.83c0.32,1.9,3.21,1.09,2.89-0.8
				c-0.58-3.48,0.52-7.08,2.89-9.67c2.37-2.58,5.31-4.52,6.93-7.73c1.62-3.22,2.06-6.8,2.53-10.32c0.56-4.15,1.4-8.26,2.55-12.29
				c1.09-3.81,2.2-8.11,5.34-10.77C198.43,311.56,196.3,309.45,194.83,310.69L194.83,310.69z"/>
		</g>
	</g>
	<g>
		<g>
			<path class="st5" d="M194.34,307.73c-8.22,5.85-13.79,14.94-15.1,24.96c-0.35,2.69-0.43,5.42-0.95,8.09
				c-0.53,2.77-1.62,5.11-3.45,7.25c-1.7,2-3.54,3.89-4.73,6.25c-1.11,2.21-1.72,4.57-1.98,7.01c-0.64,5.87,0.85,11.84,2.37,17.47
				c0.51,1.86,3.4,1.07,2.89-0.8c-1.3-4.79-2.54-9.72-2.4-14.73c0.07-2.36,0.47-4.76,1.45-6.93c1.05-2.32,2.75-4.11,4.38-6.02
				c1.63-1.9,2.95-3.9,3.74-6.29c0.81-2.48,1.05-5.12,1.29-7.71c0.45-4.85,1.39-9.47,3.62-13.85c2.44-4.8,5.99-9.02,10.38-12.15
				C197.42,309.21,195.92,306.61,194.34,307.73L194.34,307.73z"/>
		</g>
	</g>
	<g>
		<g>
			<path class="st5" d="M193.13,304.61c-5.49,0.02-9.53,4.18-12.56,8.31c-3.35,4.56-6.18,9.75-6.93,15.44
				c-0.4,3.05,0.13,6,0.19,9.04c0.06,2.82-0.8,5.13-2.41,7.41c-1.45,2.05-3.21,3.86-4.71,5.87c-1.59,2.13-2.77,4.51-3.52,7.05
				c-1.81,6.1-1.29,12.62-0.71,18.87c0.18,1.91,3.18,1.92,3,0c-0.48-5.19-0.98-10.56,0.03-15.72c0.5-2.53,1.35-4.96,2.73-7.15
				c1.27-2.02,2.93-3.76,4.41-5.62c1.47-1.83,2.81-3.76,3.56-6c0.92-2.75,0.58-5.63,0.35-8.46c-0.46-5.64,1.18-10.7,4.1-15.49
				c2.66-4.38,6.71-10.51,12.47-10.53C195.06,307.61,195.07,304.61,193.13,304.61L193.13,304.61z"/>
		</g>
	</g>
	<g>
		<g>
			<path class="st5" d="M191.69,302.76c-3.27-0.94-6.21,0.84-8.62,2.88c-2.36,1.99-4.59,4.2-6.65,6.5
				c-4.18,4.66-7.43,10.04-8.09,16.37c-0.37,3.5-0.14,7.03-1.47,10.36c-1.14,2.86-3.04,5.37-4.74,7.91
				c-1.78,2.68-3.3,5.47-4.22,8.58c-0.95,3.21-1.31,6.61-1.25,9.95c0.16,8.1,2.83,15.84,5.48,23.4c0.63,1.81,3.53,1.03,2.89-0.8
				c-4.19-11.95-8.75-25.77-1.62-37.57c1.53-2.53,3.35-4.88,4.81-7.46c1.47-2.6,2.36-5.3,2.68-8.27c0.36-3.29,0.21-6.58,1.19-9.78
				c0.81-2.64,2.18-5.06,3.78-7.29c1.88-2.62,4.15-4.96,6.48-7.18c2.13-2.03,5.24-5.66,8.54-4.7
				C192.75,306.19,193.54,303.3,191.69,302.76L191.69,302.76z"/>
		</g>
	</g>
	<g>
		<g>
			<path class="st5" d="M313.92,299.93c-1.26,17.81-2.46,35.94,1.02,53.59c0.98,4.93,2.34,9.78,4.14,14.48
				c0.68,1.78,3.58,1.01,2.89-0.8c-6.37-16.65-6.84-34.66-6-52.25c0.24-5.01,0.59-10.01,0.94-15.01
				C317.05,298.01,314.05,298.02,313.92,299.93L313.92,299.93z"/>
		</g>
	</g>
	<g>
		<g>
			<path class="st5" d="M314.99,297.81c-3.89,21.58-2.04,44.09,5.35,64.74c2.1,5.86,4.64,11.57,7.58,17.05
				c0.91,1.7,3.5,0.19,2.59-1.51c-10.09-18.79-15.07-40.17-14.49-61.49c0.17-6.04,0.78-12.05,1.86-17.99
				C318.22,296.72,315.33,295.91,314.99,297.81L314.99,297.81z"/>
		</g>
	</g>
	<g>
		<g>
			<path class="st5" d="M313.83,303.97c-0.86,19.75,3.04,39.58,11.16,57.59c2.31,5.12,4.97,10.07,7.95,14.83
				c1.02,1.63,3.62,0.13,2.59-1.51c-10.27-16.41-16.63-35.23-18.34-54.52c-0.48-5.45-0.6-10.93-0.36-16.39
				C316.92,302.04,313.92,302.04,313.83,303.97L313.83,303.97z"/>
		</g>
	</g>
	<g>
		<g>
			<path class="st5" d="M315.02,298.9c0.64,20.15,7,39.46,14.48,57.99c2.14,5.3,4.37,10.55,6.61,15.81
				c0.75,1.77,3.34,0.24,2.59-1.51c-7.69-18.04-15.42-36.34-18.92-55.74c-0.99-5.47-1.59-10.99-1.76-16.54
				C317.95,296.98,314.95,296.97,315.02,298.9L315.02,298.9z"/>
		</g>
	</g>
	<g>
		<g>
			<path class="st5" d="M314.87,308.87c7.33,19.71,14.41,39.52,21.24,59.42c0.62,1.82,3.52,1.04,2.89-0.8
				c-6.83-19.89-13.91-39.7-21.24-59.42C317.09,306.27,314.19,307.05,314.87,308.87L314.87,308.87z"/>
		</g>
	</g>
	<g>
		<g>
			<path class="st5" d="M316.67,309.22c6.54,3.61,8.57,11.73,10.63,18.34c2.8,9.01,5.46,18.07,7.96,27.17
				c1.43,5.18,2.8,10.37,4.13,15.57c0.48,1.87,3.37,1.08,2.89-0.8c-2.44-9.54-5.04-19.04-7.8-28.49c-1.37-4.69-2.78-9.36-4.22-14.02
				c-1.19-3.84-2.34-7.72-4.1-11.35c-1.79-3.68-4.34-7.01-7.98-9.02C316.49,305.7,314.97,308.29,316.67,309.22L316.67,309.22z"/>
		</g>
	</g>
	<g>
		<g>
			<path class="st5" d="M315.9,296.61c8.88,18.41,15.76,37.76,20.5,57.64c1.34,5.62,2.5,11.28,3.5,16.97
				c0.33,1.9,3.22,1.09,2.89-0.8c-3.57-20.33-9.33-40.27-17.18-59.36c-2.22-5.39-4.59-10.72-7.12-15.97
				C317.66,293.36,315.07,294.88,315.9,296.61L315.9,296.61z"/>
		</g>
	</g>
	<g>
		<g>
			<path class="st5" d="M320.69,306.57c5.15,7.25,8.81,15.2,11.58,23.63c2.88,8.78,5.45,17.68,7.9,26.59
				c1.4,5.07,2.74,10.16,4.02,15.25c0.47,1.87,3.37,1.08,2.89-0.8c-2.29-9.08-4.76-18.12-7.4-27.11c-2.6-8.84-5.08-17.84-8.95-26.23
				c-2.08-4.51-4.59-8.8-7.46-12.85C322.17,303.49,319.56,304.99,320.69,306.57L320.69,306.57z"/>
		</g>
	</g>
	<g>
		<g>
			<path class="st5" d="M325.51,305.55c3.76,0.44,5.96,4.43,7.39,7.5c2.06,4.42,3.71,9.07,5.3,13.68
				c3.28,9.52,5.87,19.28,7.74,29.17c1.07,5.66,1.89,11.35,2.47,17.08c0.19,1.9,3.2,1.92,3,0c-1.1-10.77-3-21.45-5.74-31.93
				c-1.37-5.25-2.95-10.44-4.73-15.56c-1.67-4.81-3.41-9.68-5.6-14.28c-1.98-4.15-4.97-8.1-9.83-8.67
				C323.59,302.33,323.61,305.33,325.51,305.55L325.51,305.55z"/>
		</g>
	</g>
	<g>
		<g>
			<path class="st5" d="M321.86,298.59c-0.47,0.38-0.94,0.77-1.42,1.15c-1.02,0.83-0.17,2.61,1.06,2.56
				c4.83-0.19,7.8,5.85,9.97,9.32c2.86,4.58,5.47,9.31,7.82,14.17c4.71,9.73,8.36,19.97,10.89,30.48c1.44,5.97,2.51,12.02,3.2,18.12
				c0.22,1.9,3.22,1.92,3,0c-2.59-22.82-10.24-44.99-22.44-64.47c-2.79-4.45-6.35-10.86-12.44-10.62c0.35,0.85,0.71,1.71,1.06,2.56
				c0.47-0.38,0.94-0.77,1.42-1.15C325.48,299.5,323.35,297.38,321.86,298.59L321.86,298.59z"/>
		</g>
	</g>
	<g>
		<g>
			<path class="st5" d="M324.2,298.86c5.13,1.5,8.78,4.78,11.17,9.52c2.4,4.76,3.99,10.01,5.82,15.01
				c3.97,10.85,7.79,21.78,10.83,32.93c1.72,6.3,3.17,12.66,4.28,19.09c0.33,1.9,3.22,1.09,2.89-0.8
				c-2.06-11.93-5.34-23.61-9.15-35.09c-1.89-5.68-3.9-11.31-5.96-16.93c-1.9-5.19-3.57-10.59-6.03-15.54
				c-2.73-5.5-7.13-9.35-13.06-11.08C323.14,295.43,322.35,298.32,324.2,298.86L324.2,298.86z"/>
		</g>
	</g>
	<g>
		<g>
			<path class="st5" d="M327.29,295.37c4.09,3.33,6.03,8.29,8.26,12.92c2.44,5.09,4.89,10.18,7.33,15.26
				c2.34,4.87,4.87,9.7,6.68,14.8c1.76,4.96,2.7,10.16,3.48,15.35c0.89,5.98,1.58,12,3.03,17.88c0.46,1.87,3.35,1.08,2.89-0.8
				c-2.58-10.52-2.7-21.56-6.06-31.91c-1.69-5.22-4.21-10.13-6.58-15.06c-2.48-5.16-4.96-10.32-7.44-15.48
				c-2.56-5.33-4.76-11.24-9.47-15.08C327.92,292.04,325.79,294.15,327.29,295.37L327.29,295.37z"/>
		</g>
	</g>
	<g>
		<g>
			<path class="st5" d="M325.93,312.24c9.24,12.21,14.2,26.86,17.73,41.61c1.01,4.22,1.91,8.46,2.77,12.7
				c0.38,1.89,3.28,1.09,2.89-0.8c-3.06-15.07-6.63-30.29-13.83-44c-2.03-3.86-4.35-7.55-6.98-11.03
				C327.37,309.21,324.77,310.7,325.93,312.24L325.93,312.24z"/>
		</g>
	</g>
	<g>
		<g>
			<path class="st5" d="M318.69,312.84c0.44,0.48,0.49,1.28,0.61,1.89c0.16,0.81,0.32,1.61,0.49,2.42c0.32,1.61,0.65,3.23,0.97,4.84
				c0.66,3.31,1.33,6.61,1.99,9.92c1.31,6.53,2.62,13.07,3.93,19.6c0.38,1.89,3.27,1.09,2.89-0.8c-1.38-6.86-2.75-13.71-4.13-20.57
				c-0.68-3.39-1.36-6.77-2.04-10.16c-0.34-1.69-0.68-3.39-1.02-5.08c-0.31-1.52-0.5-2.99-1.57-4.18
				C319.51,309.28,317.4,311.41,318.69,312.84L318.69,312.84z"/>
		</g>
	</g>
	<g>
		<g>
			<path class="st5" d="M331.21,301.43c0.46,0.57,0.92,1.15,1.38,1.72c1.08,1.35,3.19-0.38,2.36-1.82
				c-4.43-7.65-10.27-14.45-17.18-19.96c-0.64-0.51-1.5-0.61-2.12,0c-0.53,0.52-0.63,1.62,0,2.12c6.73,5.36,12.41,11.9,16.71,19.35
				c0.79-0.61,1.57-1.21,2.36-1.82c-0.46-0.57-0.92-1.15-1.38-1.72c-0.51-0.64-1.59-0.52-2.12,0
				C330.58,299.93,330.71,300.8,331.21,301.43L331.21,301.43z"/>
		</g>
	</g>
	<g>
		<g>
			<path class="st5" d="M336.42,305.21c-6.04-6.07-11.83-12.39-17.36-18.94c-1.25-1.48-3.36,0.65-2.12,2.12
				c5.53,6.54,11.32,12.86,17.36,18.94C335.66,308.7,337.78,306.58,336.42,305.21L336.42,305.21z"/>
		</g>
	</g>
	<g>
		<g>
			<path class="st5" d="M332.56,302.24c-4.77-4.94-9.79-9.65-15.04-14.09c-0.62-0.52-1.52-0.61-2.12,0c-0.54,0.54-0.62,1.6,0,2.12
				c5.24,4.44,10.26,9.14,15.04,14.09C331.78,305.75,333.9,303.63,332.56,302.24L332.56,302.24z"/>
		</g>
	</g>
	<g>
		<g>
			<path class="st5" d="M335.44,308.36c-7.04-6.01-14.58-11.4-22.55-16.1c-1.67-0.98-3.18,1.61-1.51,2.59
				c7.76,4.57,15.1,9.79,21.95,15.63C334.78,311.73,336.91,309.62,335.44,308.36L335.44,308.36z"/>
		</g>
	</g>
	<g>
		<g>
			<path class="st5" d="M328.84,305.97c-5.99-5.52-11.98-11.05-17.98-16.57c-1.42-1.31-3.54,0.81-2.12,2.12
				c5.99,5.52,11.98,11.05,17.98,16.57C328.14,309.4,330.27,307.28,328.84,305.97L328.84,305.97z"/>
		</g>
	</g>
	<g>
		<g>
			<path class="st5" d="M331.14,305.82c-6.46-6.62-13.16-12.98-20.11-19.08c-1.45-1.27-3.58,0.84-2.12,2.12
				c6.95,6.1,13.65,12.46,20.11,19.08C330.37,309.32,332.49,307.2,331.14,305.82L331.14,305.82z"/>
		</g>
	</g>
	<g>
		<g>
			<path class="st5" d="M329.1,303.19c-4.33-5.36-9.17-10.27-14.47-14.67c-0.62-0.52-1.51-0.61-2.12,0c-0.53,0.53-0.63,1.6,0,2.12
				c5.3,4.4,10.15,9.31,14.47,14.67c0.51,0.63,1.59,0.53,2.12,0C329.73,304.69,329.62,303.83,329.1,303.19L329.1,303.19z"/>
		</g>
	</g>
	<g>
		<g>
			<path class="st5" d="M336.17,306.17c-2.1-2.67-4.36-5.21-6.77-7.61c-0.56-0.55-1.57-0.6-2.12,0c-0.55,0.6-0.59,1.53,0,2.12
				c2.41,2.4,4.67,4.94,6.77,7.61c0.49,0.62,1.62,0.55,2.12,0C336.77,307.64,336.69,306.83,336.17,306.17L336.17,306.17z"/>
		</g>
	</g>
	<g>
		<g>
			<path class="st5" d="M327.24,304.67c-4.19-3.58-8.18-7.4-11.93-11.44c-1.32-1.42-3.44,0.71-2.12,2.12
				c3.76,4.04,7.74,7.86,11.93,11.44c0.62,0.53,1.52,0.6,2.12,0C327.78,306.26,327.86,305.2,327.24,304.67L327.24,304.67z"/>
		</g>
	</g>
	<g>
		<g>
			<path class="st5" d="M185.67,310.41c2.5-4.41,6.6-7.84,11.39-9.47c0.77-0.26,1.27-1.03,1.05-1.85c-0.21-0.75-1.07-1.31-1.85-1.05
				c-5.54,1.88-10.29,5.75-13.19,10.85C182.13,310.58,184.72,312.09,185.67,310.41L185.67,310.41z"/>
		</g>
	</g>
	<g>
		<g>
			<path class="st5" d="M190.11,312.94c-0.12,0.3,0.05-0.11,0.06-0.13c0.05-0.1,0.1-0.2,0.15-0.3c0.11-0.22,0.23-0.44,0.35-0.65
				c0.11-0.19,0.23-0.38,0.36-0.57c0.08-0.11,0.15-0.22,0.23-0.33c0.02-0.03,0.24-0.31,0.13-0.17c-0.11,0.14,0.11-0.14,0.14-0.16
				c0.09-0.1,0.17-0.2,0.26-0.3c0.15-0.17,0.3-0.33,0.46-0.49c0.17-0.17,0.36-0.34,0.54-0.5c0.08-0.07,0.17-0.15,0.26-0.22
				c0.02-0.02,0.36-0.29,0.12-0.1c0.75-0.57,1.57-1.04,2.43-1.43c-0.29,0.13,0.11-0.04,0.14-0.05c0.1-0.04,0.21-0.08,0.32-0.12
				c0.23-0.08,0.47-0.16,0.7-0.22c0.48-0.13,0.96-0.23,1.45-0.3c0.78-0.11,1.28-1.14,1.05-1.85c-0.28-0.85-1.01-1.17-1.85-1.05
				c-4.58,0.66-8.43,3.93-10.19,8.14c-0.3,0.73,0.33,1.68,1.05,1.85C189.14,314.18,189.79,313.72,190.11,312.94L190.11,312.94z"/>
		</g>
	</g>
	<g>
		<g>
			<path class="st5" d="M194.04,312.96c0.08-0.37,0.17-0.73,0.3-1.08c0.03-0.09,0.07-0.18,0.1-0.27c0.12-0.3-0.03,0.03-0.02,0.04
				c-0.02-0.02,0.22-0.48,0.25-0.53c0.17-0.33,0.36-0.66,0.57-0.97c0.05-0.07,0.09-0.13,0.14-0.2c0.04-0.05,0.08-0.11,0.12-0.16
				c-0.04,0.05-0.08,0.1-0.12,0.15c0.13-0.14,0.25-0.3,0.38-0.45c0.24-0.27,0.49-0.52,0.76-0.76c0.15-0.13,0.3-0.25,0.45-0.38
				c-0.3,0.27-0.06,0.05,0.01,0c0.08-0.06,0.16-0.11,0.24-0.17c0.3-0.2,0.61-0.38,0.93-0.54c0.09-0.04,0.17-0.09,0.26-0.13
				c0.04-0.02,0.09-0.04,0.13-0.06c0.1-0.05,0.06-0.03-0.13,0.06c0-0.03,0.5-0.19,0.55-0.2c0.74-0.25,1.31-1.04,1.05-1.85
				c-0.24-0.74-1.05-1.32-1.85-1.05c-3.46,1.16-6.25,4.14-7.01,7.74c-0.16,0.77,0.22,1.66,1.05,1.85
				C192.94,314.18,193.86,313.78,194.04,312.96L194.04,312.96z"/>
		</g>
	</g>
	<g>
		<g>
			<path class="st5" d="M195.69,318.01c-0.24-0.05,0.16,0.1,0.23,0.15c0.17,0.14,0.25,0.28,0.33,0.49c-0.02-0.05-0.03-0.1-0.04-0.15
				c0.02,0.12,0.02,0.35,0.04,0.1c0.01-0.17-0.09,0.39-0.02,0.08c0.02-0.06,0.03-0.12,0.04-0.18c0.03-0.09,0.15-0.24,0.02-0.09
				c-0.12,0.14-0.02,0.04,0.02-0.03c0.42-0.74,0.9-1.44,1.4-2.13c0.12-0.17,0.25-0.33,0.37-0.5c-0.09,0.12-0.05,0.06,0.02-0.02
				c0.07-0.09,0.14-0.18,0.22-0.27c0.28-0.34,0.56-0.67,0.85-1c0.58-0.65,1.2-1.27,1.84-1.87c0.58-0.53,0.58-1.59,0-2.12
				c-0.62-0.57-1.5-0.57-2.12,0c-1.6,1.48-3.02,3.14-4.25,4.94c-0.53,0.78-1.15,1.61-1.32,2.56c-0.21,1.21,0.19,2.64,1.56,2.92
				c0.77,0.16,1.66-0.22,1.85-1.05C196.91,319.1,196.52,318.18,195.69,318.01L195.69,318.01z"/>
		</g>
	</g>
	<g>
		<g>
			<path class="st5" d="M197.26,322.29c1.05-3.39,2.86-6.68,5.18-9.36c0.53-0.61,0.6-1.52,0-2.12c-0.54-0.54-1.59-0.62-2.12,0
				c-2.7,3.12-4.73,6.74-5.95,10.69c-0.23,0.75,0.28,1.67,1.05,1.85C196.23,323.52,197.01,323.09,197.26,322.29L197.26,322.29z"/>
		</g>
	</g>
	<g>
		<g>
			<path class="st5" d="M198.88,323.81c1.93,0,1.93-3,0-3C196.95,320.81,196.94,323.81,198.88,323.81L198.88,323.81z"/>
		</g>
	</g>
	<g>
		<g>
			<path class="st5" d="M202.83,329.56c1.93,0,1.93-3,0-3C200.9,326.56,200.9,329.56,202.83,329.56L202.83,329.56z"/>
		</g>
	</g>
	<g>
		<g>
			<path class="st5" d="M212.4,336.69c-1.14-3.99-0.19-8.46,2.57-11.58c0.54-0.61,0.6-1.52,0-2.12c-0.55-0.55-1.58-0.61-2.12,0
				c-3.46,3.92-4.78,9.46-3.34,14.5C210.04,339.34,212.93,338.55,212.4,336.69L212.4,336.69z"/>
		</g>
	</g>
	<g>
		<g>
			<path class="st5" d="M208.69,333.14c-1.88-3.72,0.46-7.94,2.24-11.19c0.93-1.7-1.66-3.21-2.59-1.51
				c-2.37,4.34-4.69,9.39-2.24,14.22c0.37,0.72,1.38,0.93,2.05,0.54C208.89,334.76,209.06,333.87,208.69,333.14L208.69,333.14z"/>
		</g>
	</g>
	<g>
		<g>
			<path class="st5" d="M204.05,333.1c-0.87-4.6,0.63-9.53,3.84-12.93c1.33-1.4-0.79-3.53-2.12-2.12
				c-3.99,4.22-5.68,10.16-4.61,15.85c0.15,0.8,1.11,1.25,1.85,1.05C203.84,334.71,204.2,333.9,204.05,333.1L204.05,333.1z"/>
		</g>
	</g>
	<g>
		<g>
			<path class="st5" d="M201.74,327.7c0.03-4.15,1.76-8.17,4.76-11.07c1.39-1.34-0.73-3.46-2.12-2.12
				c-3.55,3.43-5.6,8.26-5.64,13.19C198.72,329.63,201.72,329.63,201.74,327.7L201.74,327.7z"/>
		</g>
	</g>
	<g>
		<g>
			<path class="st5" d="M200.6,326.61c0.26-4.04,1.84-7.99,4.46-11.08c0.52-0.62,0.61-1.52,0-2.12c-0.54-0.54-1.59-0.62-2.12,0
				c-3.16,3.73-5.03,8.32-5.34,13.2c-0.05,0.81,0.73,1.5,1.5,1.5C199.95,328.11,200.54,327.42,200.6,326.61L200.6,326.61z"/>
		</g>
	</g>
	<g>
		<g>
			<path class="st5" d="M191.96,314.03c0.19-4.06,1.74-8.06,4.36-11.17c0.52-0.62,0.61-1.51,0-2.12c-0.54-0.54-1.6-0.62-2.12,0
				c-3.16,3.75-5,8.39-5.24,13.3c-0.04,0.81,0.72,1.5,1.5,1.5C191.31,315.53,191.92,314.84,191.96,314.03L191.96,314.03z"/>
		</g>
	</g>
	<g>
		<path class="st6" d="M202.34,200.64c-9.22,10.9-11.88,26.52-13.94,40.98c-0.61,4.31-1.23,8.65-1.04,13
			c0.26,6.08,2.07,11.97,3.87,17.78c2.46,7.95,3.22,19.3,5.68,27.26c1.8,5.83,2.79,10.68,5.67,16.06
			c3.78,7.05,11.97,11.05,13.11,18.96c0.73,5.04-0.41,10.56,2.11,14.98c1.8,3.18,5.14,5.12,8.32,6.91
			c7.74,4.36,15.68,8.8,24.45,10.24c9.66,1.59,19.64-0.61,28.58-4.6c8.94-3.99,16.99-9.7,24.9-15.46c1.82-1.32,3.8-3.08,4.39-5.1
			c-3.08-17.63,5.42-35.02,10.23-52.32c3.56-12.79,5.14-26.12,4.66-39.39c-0.14-3.97-0.47-7.95-1.32-11.83
			c-0.98-4.46-2.65-8.75-4.48-12.94c-4.43-10.16-9.82-19.89-16.08-29.02c-3.9-5.69-8.8-11.56-15.6-12.69
			c-5.56-0.92-11.06,1.57-16.66,2.29c-11.95,1.54-23.99-5.07-35.83-2.84c-4.37,0.82-8.42,2.81-12.4,4.79
			c-5.14,2.56-10.32,5.17-14.65,8.93C204.86,197.87,203.54,199.22,202.34,200.64z"/>
	</g>
	<g>
		<path class="st7" d="M236.06,255.64c-4.19-4.17-10.59-5.61-16.42-4.65c-5.83,0.96-11.12,4.07-15.62,7.91
			c0.01-1.32,0.72-2.53,1.49-3.6c3.93-5.48,10.3-9.33,17.04-9.5c6.74-0.17,13.6,3.67,16.35,9.82c-1.12-0.24-2.23-0.47-3.35-0.71"/>
	</g>
	<g>
		<path class="st8" d="M235.12,255.17c-3.28-2.85-7.9-3.56-12.24-3.5c-6.07,0.08-12.63,1.74-16.35,6.54
			c3.14,1.15,6.56,1.17,9.9,1.19c6.76,0.02,14.06-0.13,19.43-4.22"/>
	</g>
	<g>
		<path class="st9" d="M238.28,256.18c-4.05,3.71-8.23,7.5-13.33,9.55c-5.1,2.04-11.41,2-15.62-1.54c-1.87-1.57-3.18-3.7-4.46-5.78
			c11.23,3.61,23.97,2.19,34.13-3.8"/>
	</g>
	<g>
		<path class="st7" d="M298.37,256.01c-3.75-4.72-9.61-7.69-15.64-7.92c-6.02-0.23-12.1,2.28-16.2,6.69
			c-0.11-1.68,0.99-3.18,2.15-4.4c2.82-3.01,6.34-5.43,10.28-6.64c3.94-1.21,8.33-1.15,12.11,0.5c5.68,2.49,9.26,8.07,12.51,13.35
			c-1.72-0.75-3.39-1.61-5-2.58"/>
	</g>
	<g>
		<path class="st8" d="M299.88,256.54c-4.26-4.71-10.12-8.18-16.45-8.66s-13.04,2.39-16.3,7.84c5.26,1.36,10.62,2.74,16.05,2.47
			c2.22-0.11,4.42-0.5,6.61-0.88c2.97-0.52,5.94-1.04,8.91-1.57"/>
	</g>
	<g>
		<path class="st9" d="M267.38,256.67c4.59,4.35,10.87,6.86,17.19,6.87s12.61-2.48,17.22-6.81c-4-0.42-8.06-0.27-12.02,0.45
			c-2.45,0.45-4.87,1.11-7.35,1.35c-5.39,0.51-10.74-1.01-15.92-2.59c0.34,0.84,0.97,1.56,1.75,2.02"/>
	</g>
	<g>
		<g>
			<path class="st9" d="M242.37,288.75c-1.75,0.15-3.42-0.91-4.65-2.07c-1.17-1.11-2.07-2.51-2.42-4.09
				c-0.67-2.99,1.15-6.41,4.32-6.88c0.48-0.07,0.27-0.79-0.2-0.72c-3.5,0.52-5.53,4.3-4.89,7.6c0.35,1.77,1.36,3.39,2.66,4.62
				c1.37,1.29,3.23,2.45,5.18,2.29C242.85,289.46,242.86,288.71,242.37,288.75L242.37,288.75z"/>
		</g>
	</g>
	<g>
		<g>
			<path class="st9" d="M264.48,288.43c2.69-1.43,4.53-4.24,4.7-7.29c0.18-3.13-1.48-6.17-4.08-7.86c-0.41-0.26-0.78,0.39-0.38,0.65
				c2.39,1.55,3.87,4.35,3.71,7.21c-0.16,2.79-1.88,5.34-4.33,6.64C263.67,288.01,264.05,288.65,264.48,288.43L264.48,288.43z"/>
		</g>
	</g>
	<g>
		<path class="st10" d="M261.31,283.33c-0.53-0.45-1.29-0.61-2-0.56c-1.62,0.13-3.1,1.31-3.59,2.86c0.39,0.56,1.44,0.59,1.62-0.4
			c0.85,0.19,1.7,0.37,2.56,0.56c0.38,0.08,0.78,0.17,1.15,0.05c0.83-0.25,1.08-1.45,0.59-2.17
			C261.54,283.55,261.43,283.43,261.31,283.33z"/>
	</g>
	<g>
		<path class="st10" d="M242.11,284.33c-0.13,0.84,0.24,1.86,1.02,2.29c1.62,0.91,3.78-0.07,5.14-1.05
			c-0.4-1.22-2.61-2.07-3.96-2.41c-0.4-0.1-0.82-0.15-1.21-0.04C242.52,283.29,242.2,283.77,242.11,284.33z"/>
	</g>
	<g>
		<path class="st11" d="M268.04,308.18c-2.65,3.71-7.24,5.82-11.73,6.99c-1.7,0.44-3.46,0.79-5.21,0.64
			c-1.74-0.14-3.41-0.77-5.05-1.38c-4.02-1.51-8.03-3.02-12.05-4.53c4.86-4.01,11.65-4.5,17.95-4.79c2.07-0.1,4.15-0.2,6.2,0.08
			c3.62,0.48,7.19,2.1,10.8,1.53C268.68,307.22,268.38,307.71,268.04,308.18z"/>
	</g>
	<g>
		<path class="st12" d="M274.25,305.68c-2.04-1.33-4.84,0.09-7.17-0.63c-2.34-0.73-3.6-3.42-5.91-4.25
			c-2.71-0.98-5.56,0.97-8.44,1.18c-2.47,0.18-4.93-0.93-7.37-0.54c-2.84,0.46-4.93,2.82-7.36,4.37c-2.88,1.84-6.44,2.59-9.82,2.06
			c3.1,1.55,6.89,2.29,10.02,0.79c1.45-0.69,2.66-1.81,4.13-2.45c3.06-1.34,6.57-0.38,9.9-0.57c2.92-0.17,5.67-0.36,8.57,0.05
			c1.84,0.26,2.88,1.07,4.68,1.52c2.82,0.7,6.66-0.45,9.29-1.69"/>
	</g>
	<g>
		<path class="st13" d="M306.58,319.64c-6.79,11.88-14.17,23.43-22.11,34.58c-2.34,3.29-4.82,6.63-8.25,8.77
			c-3.13,1.95-6.83,2.76-10.49,3.23c-4.3,0.55-8.65,0.67-12.98,0.35c-1.8-0.13-3.6-0.34-5.34-0.83c-5.43-1.55-9.66-5.75-13.41-9.98
			c-6.95-7.83-13.17-16.3-18.55-25.28c2.28,2.41,4.94,4.4,7.6,6.38c5.13,3.83,10.34,7.71,16.32,10.02
			c8.37,3.24,17.98,3.12,26.27-0.32c3.94-1.64,7.62-4,11.78-4.99c2.42-0.57,4.97-0.67,7.25-1.64c2.19-0.93,3.97-2.6,5.71-4.23
			c5.36-5.05,10.72-10.09,16.09-15.14"/>
	</g>
	<g>
		<path class="st14" d="M322,263.03c2.36-4.85,5.3-9.42,8.73-13.57c0.7-0.84,1.81-1.75,2.75-1.19c0.41,0.24,0.63,0.7,0.8,1.14
			c0.91,2.31,1.07,4.84,1.23,7.32c0.34,5.51,0.67,11.06-0.01,16.54c-0.68,5.48-2.46,10.94-5.93,15.23
			c-0.43,0.53-0.95,1.08-1.63,1.12c-0.6,0.04-1.15-0.33-1.64-0.68c-2.01-1.44-4.12-2.99-5.12-5.25c-0.57-1.27-0.74-2.68-0.85-4.06
			c-0.44-5.7,0.18-11.49,1.83-16.96"/>
	</g>
	<g>
		<path class="st6" d="M320.14,263.75c2.36-4.85,5.3-9.42,8.73-13.57c0.7-0.84,1.81-1.75,2.75-1.19c0.41,0.24,0.63,0.7,0.8,1.14
			c0.91,2.31,1.07,4.84,1.23,7.32c0.34,5.51,0.67,11.06-0.01,16.54c-0.68,5.48-2.46,10.94-5.93,15.23
			c-0.43,0.53-0.95,1.08-1.63,1.12c-0.6,0.04-1.15-0.33-1.64-0.68c-2.01-1.44-4.12-2.99-5.12-5.25c-0.57-1.27-0.74-2.68-0.85-4.06
			c-0.44-5.7,0.18-11.49,1.83-16.96"/>
	</g>
	<g>
		<path class="st14" d="M191.4,267.89c-1.87-3.23-3.74-6.46-5.61-9.69c-0.68-1.18-1.55-2.48-2.89-2.66
			c-1.98-0.26-3.32,2.2-3.02,4.17c0.3,1.97,1.57,3.65,2.21,5.53c0.56,1.62,0.65,3.35,0.8,5.06c0.41,4.66,1.32,9.28,2.71,13.75
			c0.84,2.72,1.89,5.44,3.63,7.69c1.74,2.26,4.61,7.46,7.44,7.74"/>
	</g>
	<g>
		<path class="st6" d="M190.73,269.64c-1.87-3.23-3.74-6.46-5.61-9.69c-0.68-1.18-1.55-2.48-2.89-2.66
			c-1.98-0.26-3.32,2.2-3.02,4.17c0.3,1.97,1.57,3.65,2.21,5.53c0.56,1.62,0.65,3.35,0.8,5.06c0.41,4.66,1.32,9.28,2.71,13.75
			c0.84,2.72,1.89,5.44,3.63,7.69c1.74,2.26,6.31,6.47,9.15,6.74"/>
	</g>
</g>
<g id="gonbryn">
	<g>
		<g>
			<path class="st9" d="M239.18,237.91c-2.33-2.31-5.01-4.24-7.93-5.72c-0.17-0.09-0.32,0.17-0.15,0.26
				c2.9,1.47,5.56,3.39,7.87,5.67C239.11,238.26,239.32,238.05,239.18,237.91L239.18,237.91z"/>
		</g>
	</g>
	<g>
		<g>
			<path class="st9" d="M238.09,237.76c-2.44-1.71-4.88-3.42-7.32-5.13c-0.16-0.11-0.31,0.15-0.15,0.26
				c2.44,1.71,4.88,3.42,7.32,5.13C238.09,238.13,238.24,237.87,238.09,237.76L238.09,237.76z"/>
		</g>
	</g>
	<g>
		<g>
			<path class="st9" d="M238.38,238.4c-2.72-1.65-5.44-3.31-8.16-4.96c-0.17-0.1-0.32,0.16-0.15,0.26c2.72,1.65,5.44,3.31,8.16,4.96
				C238.4,238.76,238.55,238.5,238.38,238.4L238.38,238.4z"/>
		</g>
	</g>
	<g>
		<g>
			<path class="st9" d="M236.87,238.33c-2.88-1.67-5.72-3.38-8.54-5.15c-0.16-0.1-0.31,0.16-0.15,0.26
				c2.81,1.77,5.66,3.48,8.54,5.15C236.88,238.69,237.03,238.43,236.87,238.33L236.87,238.33z"/>
		</g>
	</g>
	<g>
		<g>
			<path class="st9" d="M235.41,237.88c-3.09-1.54-6.24-2.97-9.43-4.28c-0.18-0.07-0.26,0.22-0.08,0.29
				c3.17,1.31,6.29,2.72,9.36,4.25C235.43,238.23,235.59,237.97,235.41,237.88L235.41,237.88z"/>
		</g>
	</g>
	<g>
		<g>
			<path class="st9" d="M234.79,238.33c-2.89-1.36-5.83-2.62-8.81-3.78c-0.18-0.07-0.26,0.22-0.08,0.29
				c2.95,1.15,5.87,2.4,8.74,3.75C234.81,238.67,234.96,238.41,234.79,238.33L234.79,238.33z"/>
		</g>
	</g>
	<g>
		<g>
			<path class="st9" d="M233.66,238.32c-3.38-0.99-6.67-2.29-9.81-3.88c-0.17-0.09-0.32,0.17-0.15,0.26
				c3.17,1.6,6.48,2.91,9.88,3.91C233.77,238.67,233.85,238.38,233.66,238.32L233.66,238.32z"/>
		</g>
	</g>
	<g>
		<g>
			<path class="st9" d="M232.47,238.23c-3.15-1.87-6.57-3.25-10.14-4.09c-0.19-0.04-0.27,0.24-0.08,0.29
				c3.54,0.83,6.93,2.2,10.07,4.06C232.49,238.59,232.64,238.33,232.47,238.23L232.47,238.23z"/>
		</g>
	</g>
	<g>
		<g>
			<path class="st9" d="M230.7,234.82c-3.24-1.16-6.58-2.02-9.98-2.58c-0.19-0.03-0.27,0.26-0.08,0.29c3.4,0.56,6.73,1.43,9.98,2.58
				C230.8,235.18,230.88,234.89,230.7,234.82L230.7,234.82z"/>
		</g>
	</g>
	<g>
		<g>
			<path class="st9" d="M231.89,238.32c-3.58-1.65-7.26-3.06-11.03-4.2c-0.19-0.06-0.26,0.23-0.08,0.29
				c3.75,1.14,7.41,2.53,10.96,4.17C231.91,238.66,232.07,238.41,231.89,238.32L231.89,238.32z"/>
		</g>
	</g>
	<g>
		<g>
			<path class="st9" d="M229.98,238.1c-0.42,0.33-1.16-0.08-1.57-0.23c-0.4-0.15-0.8-0.3-1.2-0.45c-0.87-0.32-1.74-0.65-2.61-0.97
				c-1.74-0.65-3.48-1.29-5.22-1.94c-0.18-0.07-0.26,0.22-0.08,0.29c2.01,0.74,4.01,1.49,6.02,2.23c1,0.37,2.01,0.74,3.01,1.12
				c0.59,0.22,1.3,0.61,1.87,0.15C230.35,238.2,230.13,237.99,229.98,238.1L229.98,238.1z"/>
		</g>
	</g>
	<g>
		<g>
			<path class="st9" d="M228.51,238.29c-3.45-1.1-6.91-2.2-10.36-3.3c-0.18-0.06-0.26,0.23-0.08,0.29c3.45,1.1,6.91,2.2,10.36,3.3
				C228.61,238.64,228.69,238.35,228.51,238.29L228.51,238.29z"/>
		</g>
	</g>
	<g>
		<g>
			<path class="st9" d="M225.68,237.6c-3.33-0.88-6.72-1.54-10.13-1.97c-0.19-0.02-0.19,0.28,0,0.3c3.39,0.43,6.75,1.09,10.05,1.96
				C225.79,237.94,225.87,237.65,225.68,237.6L225.68,237.6z"/>
		</g>
	</g>
	<g>
		<g>
			<path class="st9" d="M224.36,234c-3.96-1.2-8.14-1.47-12.23-0.8c-0.19,0.03-0.11,0.32,0.08,0.29c4.03-0.67,8.16-0.39,12.07,0.8
				C224.47,234.34,224.55,234.05,224.36,234L224.36,234z"/>
		</g>
	</g>
	<g>
		<g>
			<path class="st9" d="M223.82,234.96c-3.89-1.29-7.94-2.03-12.04-2.21c-0.19-0.01-0.19,0.29,0,0.3c4.07,0.17,8.09,0.91,11.96,2.2
				C223.92,235.31,224,235.02,223.82,234.96L223.82,234.96z"/>
		</g>
	</g>
	<g>
		<g>
			<path class="st9" d="M223.24,237.69c-1.12-0.05-2.18-0.38-3.26-0.67c-0.99-0.27-1.99-0.5-3-0.7c-2.03-0.41-4.08-0.67-6.14-0.82
				c-0.19-0.01-0.19,0.29,0,0.3c2.19,0.15,4.37,0.45,6.53,0.91c1.94,0.41,3.89,1.2,5.88,1.29C223.43,238,223.43,237.7,223.24,237.69
				L223.24,237.69z"/>
		</g>
	</g>
	<g>
		<g>
			<path class="st9" d="M222.47,237.53c-3.6-0.88-7.33-1.05-11-0.51c-0.19,0.03-0.11,0.32,0.08,0.29c3.61-0.53,7.29-0.35,10.84,0.51
				C222.57,237.86,222.65,237.58,222.47,237.53L222.47,237.53z"/>
		</g>
	</g>
	<g>
		<g>
			<path class="st9" d="M235.53,238.37c-3.73-1.26-7.56-2.16-11.45-2.7c-0.19-0.03-0.27,0.26-0.08,0.29
				c3.9,0.54,7.73,1.45,11.45,2.7C235.64,238.72,235.72,238.43,235.53,238.37L235.53,238.37z"/>
		</g>
	</g>
	<g>
		<g>
			<path class="st9" d="M225.98,235.48c-3.63-0.81-7.23-1.74-10.8-2.79c-0.19-0.05-0.26,0.23-0.08,0.29
				c3.57,1.05,7.17,1.98,10.8,2.79C226.09,235.81,226.17,235.52,225.98,235.48L225.98,235.48z"/>
		</g>
	</g>
	<g>
		<g>
			<path class="st9" d="M217.9,234.97c-3.62-1.03-7.38-2.04-11.17-1.38c-0.19,0.03-0.11,0.32,0.08,0.29
				c3.73-0.65,7.44,0.37,11.01,1.38C218.01,235.31,218.09,235.02,217.9,234.97L217.9,234.97z"/>
		</g>
	</g>
	<g>
		<g>
			<path class="st9" d="M215.05,235.91c-3.52-0.9-7.21-0.89-10.72,0.02c-0.19,0.05-0.11,0.34,0.08,0.29
				c3.46-0.9,7.1-0.91,10.57-0.02C215.16,236.25,215.24,235.96,215.05,235.91L215.05,235.91z"/>
		</g>
	</g>
	<g>
		<g>
			<path class="st9" d="M214.06,235.7c-2.39-0.05-4.78,0.27-7.07,0.95c-0.18,0.05-0.11,0.34,0.08,0.29
				c2.27-0.68,4.63-0.99,6.99-0.94C214.26,236,214.26,235.7,214.06,235.7L214.06,235.7z"/>
		</g>
	</g>
	<g>
		<g>
			<path class="st9" d="M215.14,234.65c-3.72,0.37-7.45,0.47-11.19,0.32c-0.19-0.01-0.19,0.29,0,0.3c3.73,0.15,7.47,0.05,11.19-0.32
				C215.33,234.94,215.33,234.64,215.14,234.65L215.14,234.65z"/>
		</g>
	</g>
	<g>
		<g>
			<path class="st9" d="M215.61,234.75c-4.15-0.87-8.52-0.09-12.11,2.16c-0.16,0.1-0.01,0.36,0.15,0.26
				c3.52-2.21,7.81-2.98,11.88-2.13C215.72,235.07,215.8,234.79,215.61,234.75L215.61,234.75z"/>
		</g>
	</g>
	<g>
		<g>
			<path class="st9" d="M206.87,234.63c-1.91,0.93-3.74,2.02-5.45,3.28c-0.15,0.11,0,0.37,0.15,0.26c1.72-1.25,3.54-2.35,5.45-3.28
				C207.19,234.81,207.04,234.55,206.87,234.63L206.87,234.63z"/>
		</g>
	</g>
	<g>
		<g>
			<path class="st9" d="M207.43,236.08c-3.03,1.23-5.98,2.65-8.83,4.27c-0.17,0.1-0.02,0.35,0.15,0.26c2.82-1.6,5.75-3.02,8.76-4.24
				C207.69,236.3,207.61,236.01,207.43,236.08L207.43,236.08z"/>
		</g>
	</g>
	<g>
		<g>
			<path class="st9" d="M205.91,237.17c-1.16,0.76-2.33,1.52-3.49,2.29c-1.11,0.73-2.22,1.62-3.49,2.05
				c-0.18,0.06-0.1,0.35,0.08,0.29c1.25-0.42,2.35-1.28,3.44-2c1.2-0.79,2.4-1.58,3.6-2.36
				C206.22,237.32,206.07,237.06,205.91,237.17L205.91,237.17z"/>
		</g>
	</g>
	<g>
		<g>
			<path class="st9" d="M206.43,234.56c-2.53,1.36-4.96,2.89-7.27,4.6c-0.15,0.11,0,0.37,0.15,0.26c2.31-1.71,4.74-3.24,7.27-4.6
				C206.75,234.73,206.6,234.47,206.43,234.56L206.43,234.56z"/>
		</g>
	</g>
	<g>
		<g>
			<path class="st9" d="M213.91,236.1c-0.95,0.27-1.92,0.41-2.88,0.63c-0.98,0.22-1.89,0.58-2.8,0.99c-1.98,0.9-3.96,1.82-5.93,2.73
				c-0.18,0.08-0.02,0.34,0.15,0.26c1.91-0.88,3.82-1.77,5.73-2.64c0.95-0.44,1.91-0.82,2.93-1.05c0.96-0.22,1.93-0.36,2.88-0.63
				C214.18,236.33,214.1,236.05,213.91,236.1L213.91,236.1z"/>
		</g>
	</g>
	<g>
		<g>
			<path class="st9" d="M211.38,236.42c-1.65,0.17-3.3,0.53-4.77,1.33c-0.71,0.39-1.33,0.88-1.92,1.44
				c-0.63,0.59-1.24,1.2-2.05,1.56c-0.18,0.08-0.02,0.34,0.15,0.26c1.45-0.64,2.36-2.06,3.72-2.85c1.47-0.87,3.18-1.26,4.87-1.43
				C211.57,236.7,211.58,236.4,211.38,236.42L211.38,236.42z"/>
		</g>
	</g>
	<g>
		<g>
			<path class="st9" d="M218.58,235.84c-3.96-1.09-8.23-0.62-11.87,1.3c-0.17,0.09-0.02,0.35,0.15,0.26
				c3.56-1.88,7.75-2.33,11.63-1.27C218.68,236.18,218.76,235.9,218.58,235.84L218.58,235.84z"/>
		</g>
	</g>
	<g>
		<g>
			<path class="st9" d="M212.13,233.45c-3.49,0.9-6.82,2.31-9.9,4.18c-0.16,0.1-0.01,0.36,0.15,0.26c3.06-1.86,6.36-3.26,9.83-4.15
				C212.4,233.69,212.32,233.4,212.13,233.45L212.13,233.45z"/>
		</g>
	</g>
	<g>
		<g>
			<path class="st9" d="M205.94,235.53c-1.47,0.32-3.01,0.66-4.4,1.24c-1.14,0.48-2.22,1.33-2.4,2.62
				c-0.03,0.19,0.26,0.27,0.29,0.08c0.19-1.34,1.38-2.13,2.56-2.56c1.31-0.48,2.68-0.8,4.04-1.1
				C206.21,235.78,206.13,235.49,205.94,235.53L205.94,235.53z"/>
		</g>
	</g>
	<g>
		<g>
			<path class="st9" d="M203.63,235.3c-1.7,0.84-3.16,2.1-4.26,3.64c-0.11,0.16,0.15,0.31,0.26,0.15c1.07-1.5,2.51-2.71,4.16-3.53
				C203.96,235.48,203.81,235.22,203.63,235.3L203.63,235.3z"/>
		</g>
	</g>
	<g>
		<g>
			<path class="st9" d="M214.09,233.19c-4.08,0.43-7.66,2.51-11.12,4.57c-0.17,0.1-0.02,0.36,0.15,0.26
				c3.4-2.03,6.95-4.11,10.97-4.53C214.28,233.47,214.28,233.17,214.09,233.19L214.09,233.19z"/>
		</g>
	</g>
	<g>
		<g>
			<path class="st9" d="M208.11,236.44c-1.41,0.34-2.88,0.7-4.07,1.57c-1.13,0.83-1.86,2.14-3.13,2.78
				c-0.17,0.09-0.02,0.35,0.15,0.26c1.22-0.62,1.93-1.83,2.97-2.67c1.18-0.95,2.71-1.31,4.15-1.66
				C208.38,236.68,208.3,236.39,208.11,236.44L208.11,236.44z"/>
		</g>
	</g>
	<g>
		<g>
			<path class="st9" d="M203.75,237.27c-1.79,0.86-3.73,1.85-4.68,3.7c-0.09,0.17,0.17,0.32,0.26,0.15c0.92-1.8,2.83-2.75,4.57-3.59
				C204.08,237.45,203.93,237.19,203.75,237.27L203.75,237.27z"/>
		</g>
	</g>
	<g>
		<g>
			<path class="st9" d="M222.85,234.52c-3.37-0.67-6.83-0.6-10.17,0.21c-0.19,0.05-0.11,0.33,0.08,0.29
				c3.28-0.79,6.7-0.86,10.01-0.21C222.96,234.84,223.04,234.55,222.85,234.52L222.85,234.52z"/>
		</g>
	</g>
	<g>
		<g>
			<path class="st9" d="M224.99,234.6c-3.78-0.19-7.57-0.09-11.33,0.31c-0.19,0.02-0.19,0.32,0,0.3c3.76-0.4,7.55-0.5,11.33-0.31
				C225.18,234.9,225.18,234.6,224.99,234.6L224.99,234.6z"/>
		</g>
	</g>
	<g>
		<g>
			<path class="st9" d="M229.06,234.88c-3.2-0.69-6.46-1.08-9.74-1.16c-0.19,0-0.19,0.3,0,0.3c3.25,0.08,6.48,0.46,9.66,1.15
				C229.17,235.21,229.25,234.92,229.06,234.88L229.06,234.88z"/>
		</g>
	</g>
	<g>
		<g>
			<path class="st9" d="M233.96,236.74c-3.28-1.72-6.89-2.69-10.59-2.84c-0.19-0.01-0.19,0.29,0,0.3c3.64,0.15,7.21,1.11,10.44,2.8
				C233.98,237.09,234.13,236.83,233.96,236.74L233.96,236.74z"/>
		</g>
	</g>
	<g>
		<g>
			<path class="st9" d="M233.53,236.94c-3.11-1.31-6.3-2.39-9.57-3.22c-0.19-0.05-0.27,0.24-0.08,0.29c3.24,0.82,6.42,1.89,9.5,3.19
				C233.56,237.27,233.71,237.01,233.53,236.94L233.53,236.94z"/>
		</g>
	</g>
	<g>
		<g>
			<path class="st9" d="M233.51,238.11c-4.15-0.91-8.29-1.89-12.41-2.95c-0.19-0.05-0.27,0.24-0.08,0.29
				c4.12,1.06,8.26,2.04,12.41,2.95C233.62,238.44,233.7,238.15,233.51,238.11L233.51,238.11z"/>
		</g>
	</g>
	<g>
		<g>
			<path class="st9" d="M223.29,237.03c-3.65-1-7.42,0.13-11.12-0.28c-0.19-0.02-0.19,0.28,0,0.3c3.67,0.4,7.42-0.72,11.04,0.27
				C223.39,237.37,223.47,237.08,223.29,237.03L223.29,237.03z"/>
		</g>
	</g>
	<g>
		<g>
			<path class="st9" d="M216.23,236.5c-2.61-0.09-5.21,0.21-7.73,0.89c-0.19,0.05-0.11,0.34,0.08,0.29
				c2.49-0.68,5.07-0.97,7.65-0.88C216.42,236.81,216.42,236.51,216.23,236.5L216.23,236.5z"/>
		</g>
	</g>
	<g>
		<g>
			<path class="st9" d="M263.17,238.14c3.37-2.28,7.05-4.07,10.93-5.32c0.18-0.06,0.1-0.35-0.08-0.29c-3.9,1.26-7.6,3.06-11,5.35
				C262.86,237.99,263.01,238.25,263.17,238.14L263.17,238.14z"/>
		</g>
	</g>
	<g>
		<g>
			<path class="st9" d="M265.32,237.71c3.32-2.11,6.91-3.75,10.67-4.89c0.18-0.06,0.11-0.35-0.08-0.29
				c-3.79,1.14-7.4,2.8-10.75,4.92C265,237.55,265.15,237.81,265.32,237.71L265.32,237.71z"/>
		</g>
	</g>
	<g>
		<g>
			<path class="st9" d="M266.17,238.18c4.09-2.14,8.37-3.88,12.79-5.21c0.18-0.06,0.11-0.35-0.08-0.29
				c-4.44,1.34-8.75,3.09-12.86,5.24C265.85,238.01,266,238.27,266.17,238.18L266.17,238.18z"/>
		</g>
	</g>
	<g>
		<g>
			<path class="st9" d="M267.96,238.79c4.03-1.88,8.21-3.41,12.49-4.59c0.19-0.05,0.11-0.34-0.08-0.29
				c-4.31,1.18-8.51,2.73-12.56,4.62C267.63,238.61,267.78,238.87,267.96,238.79L267.96,238.79z"/>
		</g>
	</g>
	<g>
		<g>
			<path class="st9" d="M269.44,239.46c4.18-1.93,8.54-3.43,13.02-4.49c0.19-0.04,0.11-0.33-0.08-0.29
				c-4.51,1.07-8.89,2.58-13.09,4.52C269.11,239.28,269.26,239.54,269.44,239.46L269.44,239.46z"/>
		</g>
	</g>
	<g>
		<g>
			<path class="st9" d="M270.21,239.64c3.85-1.74,7.76-3.33,11.72-4.78c0.18-0.07,0.1-0.36-0.08-0.29
				c-3.99,1.46-7.92,3.07-11.79,4.81C269.88,239.46,270.03,239.72,270.21,239.64L270.21,239.64z"/>
		</g>
	</g>
	<g>
		<g>
			<path class="st9" d="M268.19,238.13c1.16-0.91,2.56-1.4,3.92-1.94c1.33-0.53,2.67-1.05,4.02-1.55c2.73-1.04,5.48-2.03,8.24-2.99
				c0.18-0.06,0.1-0.35-0.08-0.29c-2.96,1.03-5.91,2.1-8.84,3.22c-1.44,0.55-2.88,1.11-4.31,1.68c-1.12,0.45-2.21,0.92-3.16,1.66
				C267.82,238.03,268.04,238.25,268.19,238.13L268.19,238.13z"/>
		</g>
	</g>
	<g>
		<g>
			<path class="st9" d="M269.13,235.46c4.81-2.24,9.87-3.85,15.09-4.81c0.19-0.03,0.11-0.32-0.08-0.29
				c-5.24,0.97-10.33,2.6-15.16,4.84C268.8,235.28,268.95,235.54,269.13,235.46L269.13,235.46z"/>
		</g>
	</g>
	<g>
		<g>
			<path class="st9" d="M272.07,233.05c5.18-1.45,10.4-2.74,15.65-3.87c0.19-0.04,0.11-0.33-0.08-0.29
				c-5.26,1.13-10.47,2.42-15.65,3.87C271.8,232.81,271.88,233.1,272.07,233.05L272.07,233.05z"/>
		</g>
	</g>
	<g>
		<g>
			<path class="st9" d="M274.93,233.96c5.09-1.2,10.21-2.27,15.35-3.19c0.19-0.03,0.11-0.32-0.08-0.29
				c-5.15,0.93-10.26,1.99-15.35,3.19C274.66,233.72,274.74,234.01,274.93,233.96L274.93,233.96z"/>
		</g>
	</g>
	<g>
		<g>
			<path class="st9" d="M277.2,235.5c3.7-1.18,7.48-2.05,11.33-2.58c0.19-0.03,0.11-0.32-0.08-0.29c-3.84,0.54-7.63,1.4-11.33,2.58
				C276.94,235.27,277.01,235.56,277.2,235.5L277.2,235.5z"/>
		</g>
	</g>
	<g>
		<g>
			<path class="st9" d="M278.95,236.04c3.64-1.36,7.43-2.24,11.3-2.6c0.19-0.02,0.19-0.32,0-0.3c-3.89,0.37-7.72,1.24-11.38,2.62
				C278.69,235.82,278.77,236.11,278.95,236.04L278.95,236.04z"/>
		</g>
	</g>
	<g>
		<g>
			<path class="st9" d="M279.89,234.22c4.31-1.96,9.06-2.45,13.73-2.8c0.19-0.01,0.19-0.31,0-0.3c-4.73,0.36-9.52,0.86-13.88,2.84
				C279.56,234.04,279.71,234.3,279.89,234.22L279.89,234.22z"/>
		</g>
	</g>
	<g>
		<g>
			<path class="st9" d="M281.01,232.26c1.91-1.08,4.24-1.37,6.38-1.71c2.33-0.37,4.68-0.6,7.04-0.71c0.19-0.01,0.19-0.31,0-0.3
				c-2.39,0.11-4.76,0.35-7.12,0.72c-2.17,0.34-4.51,0.64-6.45,1.74C280.69,232.09,280.84,232.35,281.01,232.26L281.01,232.26z"/>
		</g>
	</g>
	<g>
		<g>
			<path class="st9" d="M283.8,231.3c3.59-0.73,7.23-1.08,10.89-1.03c0.19,0,0.19-0.3,0-0.3c-3.69-0.05-7.36,0.3-10.97,1.04
				C283.53,231.05,283.61,231.33,283.8,231.3L283.8,231.3z"/>
		</g>
	</g>
	<g>
		<g>
			<path class="st9" d="M288.75,230.34c2.79-0.3,5.61-0.1,8.33,0.61c0.19,0.05,0.27-0.24,0.08-0.29c-2.74-0.71-5.59-0.92-8.41-0.62
				C288.57,230.06,288.56,230.36,288.75,230.34L288.75,230.34z"/>
		</g>
	</g>
	<g>
		<g>
			<path class="st9" d="M289.1,230.37c0.85-0.37,1.78-0.38,2.69-0.37c0.89,0.01,1.78,0.05,2.66,0.11c1.83,0.13,3.65,0.37,5.46,0.71
				c0.19,0.04,0.27-0.25,0.08-0.29c-1.9-0.36-3.82-0.61-5.75-0.74c-1.7-0.11-3.68-0.37-5.29,0.32
				C288.77,230.19,288.92,230.45,289.1,230.37L289.1,230.37z"/>
		</g>
	</g>
	<g>
		<g>
			<path class="st9" d="M288.77,230.87c2.97-0.38,5.99,0.25,8.57,1.77c0.17,0.1,0.32-0.16,0.15-0.26c-2.62-1.55-5.7-2.2-8.72-1.82
				C288.58,230.6,288.58,230.9,288.77,230.87L288.77,230.87z"/>
		</g>
	</g>
	<g>
		<g>
			<path class="st9" d="M289.41,233.16c0.22-0.4,0.84-0.42,1.25-0.48c0.49-0.08,0.99-0.13,1.49-0.15c0.9-0.05,1.8-0.02,2.69,0.07
				c1.89,0.21,3.73,0.76,5.43,1.61c0.17,0.09,0.32-0.17,0.15-0.26c-1.87-0.93-3.88-1.51-5.96-1.69c-1.05-0.09-2.12-0.08-3.17,0.04
				c-0.65,0.07-1.77,0.05-2.13,0.71C289.05,233.18,289.31,233.33,289.41,233.16L289.41,233.16z"/>
		</g>
	</g>
	<g>
		<g>
			<path class="st9" d="M291.76,230.36c1.13-0.26,2.44,0.38,3.5,0.73c1.03,0.33,2.05,0.67,3.08,1.02c1.02,0.35,2.04,0.7,3.06,1.07
				c1.03,0.37,2.13,0.69,2.92,1.49c0.14,0.14,0.35-0.07,0.21-0.21c-0.71-0.72-1.65-1.06-2.58-1.4c-1.17-0.42-2.35-0.84-3.53-1.24
				c-1.18-0.4-2.36-0.79-3.55-1.17c-1.01-0.32-2.11-0.83-3.19-0.57C291.49,230.12,291.57,230.41,291.76,230.36L291.76,230.36z"/>
		</g>
	</g>
	<g>
		<g>
			<path class="st9" d="M296.14,231.07c3.56,0.94,6.73,3.09,8.91,6.07c0.11,0.15,0.37,0,0.26-0.15c-2.22-3.04-5.45-5.25-9.09-6.2
				C296.03,230.74,295.95,231.02,296.14,231.07L296.14,231.07z"/>
		</g>
	</g>
	<g>
		<g>
			<path class="st9" d="M300.04,233.84c2.32,1.13,4.36,2.77,5.96,4.79c0.12,0.15,0.33-0.06,0.21-0.21c-1.61-2.04-3.68-3.7-6.02-4.84
				C300.02,233.5,299.87,233.75,300.04,233.84L300.04,233.84z"/>
		</g>
	</g>
	<g>
		<g>
			<path class="st9" d="M290.7,229.82c2.96-0.46,5.99-0.19,8.83,0.79c0.18,0.06,0.26-0.23,0.08-0.29c-2.89-1-5.97-1.26-8.99-0.79
				C290.43,229.56,290.52,229.85,290.7,229.82L290.7,229.82z"/>
		</g>
	</g>
	<g>
		<g>
			<path class="st9" d="M293.45,228.95c4.21-0.25,7.48,2.76,10.31,5.47c0.14,0.13,0.35-0.08,0.21-0.21
				c-2.89-2.76-6.23-5.81-10.52-5.55C293.26,228.66,293.26,228.96,293.45,228.95L293.45,228.95z"/>
		</g>
	</g>
	<g>
		<g>
			<path class="st9" d="M297.09,232.01c3.8,1.36,7.38,3.24,10.66,5.59c0.16,0.11,0.31-0.15,0.15-0.26
				c-3.3-2.36-6.91-4.25-10.74-5.62C296.99,231.65,296.91,231.94,297.09,232.01L297.09,232.01z"/>
		</g>
	</g>
	<g>
		<g>
			<path class="st9" d="M301.27,234.16c2.93,0.58,5.51,2.44,6.99,5.03c0.1,0.17,0.36,0.02,0.26-0.15c-1.52-2.65-4.17-4.57-7.17-5.17
				C301.16,233.83,301.08,234.12,301.27,234.16L301.27,234.16z"/>
		</g>
	</g>
	<g>
		<g>
			<path class="st9" d="M293.42,229.99c-0.08-0.63-0.5-1.12-1.08-1.37c-0.84-0.36-1.78-0.13-2.62,0.08c-2.01,0.5-3.97,1.18-5.87,2
				c-0.18,0.08-0.02,0.34,0.15,0.26c1.55-0.67,3.15-1.24,4.78-1.7c0.8-0.23,1.66-0.51,2.49-0.53c0.8-0.01,1.74,0.36,1.86,1.26
				C293.15,230.18,293.45,230.18,293.42,229.99L293.42,229.99z"/>
		</g>
	</g>
	<g>
		<g>
			<path class="st9" d="M293.52,230.01c-5.94-0.89-12.02,0.1-17.36,2.83c-0.17,0.09-0.02,0.35,0.15,0.26
				c5.27-2.69,11.28-3.68,17.13-2.8C293.63,230.33,293.71,230.04,293.52,230.01L293.52,230.01z"/>
		</g>
	</g>
	<g>
		<g>
			<path class="st9" d="M282.44,230.93c-4.68-0.45-9.41,1-13.04,3.98c-0.15,0.12,0.06,0.33,0.21,0.21
				c3.57-2.93,8.23-4.33,12.83-3.89C282.63,231.24,282.63,230.94,282.44,230.93L282.44,230.93z"/>
		</g>
	</g>
	<g>
		<g>
			<path class="st9" d="M276.99,230.77c-2.65,0.99-5.09,2.49-7.17,4.42c-0.14,0.13,0.07,0.34,0.21,0.21
				c2.04-1.89,4.43-3.37,7.03-4.34C277.24,230.99,277.17,230.7,276.99,230.77L276.99,230.77z"/>
		</g>
	</g>
	<g>
		<g>
			<path class="st9" d="M269.35,238.52c3.39-2.57,7.25-4.46,11.37-5.55c0.19-0.05,0.11-0.34-0.08-0.29
				c-4.14,1.09-8.03,2.99-11.44,5.58C269.04,238.37,269.19,238.63,269.35,238.52L269.35,238.52z"/>
		</g>
	</g>
	<g>
		<g>
			<path class="st9" d="M271.04,239.16c4.02-2.72,8.41-4.86,13.03-6.35c0.18-0.06,0.1-0.35-0.08-0.29
				c-4.65,1.49-9.06,3.64-13.11,6.38C270.73,239.01,270.88,239.27,271.04,239.16L271.04,239.16z"/>
		</g>
	</g>
	<g>
		<g>
			<path class="st9" d="M272.74,239.09c5.14-3.38,10.73-6.86,17.13-6.49c0.19,0.01,0.19-0.29,0-0.3c-6.46-0.37-12.1,3.12-17.28,6.53
				C272.43,238.94,272.58,239.2,272.74,239.09L272.74,239.09z"/>
		</g>
	</g>
	<g>
		<g>
			<path class="st9" d="M284.26,234.84c-0.42-0.22,1.1-1.02,1.28-1.1c0.52-0.23,1.07-0.41,1.62-0.55c1.06-0.28,2.15-0.47,3.23-0.61
				c2.19-0.28,4.4-0.3,6.6-0.09c0.19,0.02,0.19-0.28,0-0.3c-2.86-0.28-5.75-0.15-8.57,0.41c-1.21,0.24-2.43,0.53-3.52,1.13
				c-0.3,0.16-1.58,0.97-0.79,1.37C284.28,235.19,284.44,234.93,284.26,234.84L284.26,234.84z"/>
		</g>
	</g>
	<g>
		<g>
			<path class="st9" d="M288.52,232.9c3.81-0.63,7.75-0.03,11.21,1.7c0.17,0.09,0.32-0.17,0.15-0.26
				c-3.54-1.76-7.54-2.37-11.44-1.73C288.25,232.64,288.33,232.93,288.52,232.9L288.52,232.9z"/>
		</g>
	</g>
	<g>
		<g>
			<path class="st9" d="M287.59,231.88c3.33-1.03,6.96-0.79,10.13,0.69c0.17,0.08,0.33-0.18,0.15-0.26
				c-3.24-1.51-6.94-1.77-10.36-0.72C287.32,231.64,287.4,231.93,287.59,231.88L287.59,231.88z"/>
		</g>
	</g>
	<g>
		<g>
			<path class="st9" d="M289.87,229.53c2.7-0.46,5.48-0.15,8.02,0.88c0.18,0.07,0.26-0.22,0.08-0.29c-2.59-1.05-5.43-1.35-8.18-0.88
				C289.6,229.27,289.68,229.56,289.87,229.53L289.87,229.53z"/>
		</g>
	</g>
	<g>
		<g>
			<path class="st9" d="M267.29,236.17c3.41-3.02,7.91-4.23,12.22-5.35c0.19-0.05,0.11-0.34-0.08-0.29
				c-4.36,1.13-8.9,2.36-12.35,5.43C266.94,236.08,267.15,236.29,267.29,236.17L267.29,236.17z"/>
		</g>
	</g>
	<g>
		<g>
			<path class="st9" d="M267.74,237.56c4.85-2.62,10.03-4.56,15.41-5.76c0.19-0.04,0.11-0.33-0.08-0.29
				c-5.4,1.21-10.61,3.16-15.48,5.79C267.42,237.39,267.57,237.65,267.74,237.56L267.74,237.56z"/>
		</g>
	</g>
	<g>
		<g>
			<path class="st9" d="M271.52,236.67c5.31-2.16,10.88-3.64,16.57-4.37c0.19-0.02,0.19-0.32,0-0.3
				c-5.72,0.74-11.31,2.21-16.65,4.38C271.26,236.45,271.34,236.74,271.52,236.67L271.52,236.67z"/>
		</g>
	</g>
	<g>
		<g>
			<path class="st9" d="M278.82,235.52c5.09-1.41,10.33-2.14,15.6-2.19c0.19,0,0.19-0.3,0-0.3c-5.3,0.05-10.57,0.79-15.68,2.2
				C278.56,235.28,278.64,235.57,278.82,235.52L278.82,235.52z"/>
		</g>
	</g>
	<g>
		<g>
			<path class="st9" d="M292.54,232.54c3.51,0.15,6.94,1.05,10.06,2.65c0.17,0.09,0.32-0.17,0.15-0.26
				c-3.17-1.62-6.66-2.54-10.22-2.69C292.35,232.23,292.35,232.53,292.54,232.54L292.54,232.54z"/>
		</g>
	</g>
	<g>
		<g>
			<path class="st9" d="M297.01,232.79c0.94,1.11,2.42,1.43,3.71,1.94c1.59,0.63,3.11,1.46,4.51,2.44c0.16,0.11,0.31-0.15,0.15-0.26
				c-1.31-0.91-2.71-1.69-4.18-2.3c-1.35-0.57-3-0.86-3.99-2.03C297.1,232.43,296.89,232.65,297.01,232.79L297.01,232.79z"/>
		</g>
	</g>
	<g>
		<g>
			<path class="st9" d="M296.76,230.69c1.61-0.27,3.19,0.76,4.51,1.54c1.35,0.8,2.63,1.71,3.84,2.7c0.15,0.12,0.36-0.09,0.21-0.21
				c-1.31-1.08-2.7-2.05-4.17-2.9c-1.35-0.78-2.86-1.69-4.48-1.42C296.49,230.43,296.57,230.72,296.76,230.69L296.76,230.69z"/>
		</g>
	</g>
	<g>
		<g>
			<path class="st9" d="M297.1,230.2c2.81,0.65,5.4,2.06,7.46,4.08c0.14,0.13,0.35-0.08,0.21-0.21c-2.1-2.05-4.74-3.49-7.6-4.16
				C296.99,229.87,296.91,230.16,297.1,230.2L297.1,230.2z"/>
		</g>
	</g>
	<g>
		<g>
			<path class="st9" d="M276.97,232.85c-0.9,0.4-1.8,0.81-2.7,1.21c-0.18,0.08-0.02,0.34,0.15,0.26c0.9-0.4,1.8-0.81,2.7-1.21
				C277.29,233.03,277.14,232.77,276.97,232.85L276.97,232.85z"/>
		</g>
	</g>
	<g>
		<g>
			<path class="st9" d="M279.77,232.35c-4.52-0.28-8.29,2.5-11.7,5.11c-0.15,0.12,0,0.38,0.15,0.26c3.36-2.57,7.08-5.34,11.54-5.07
				C279.96,232.66,279.96,232.36,279.77,232.35L279.77,232.35z"/>
		</g>
	</g>
	<g>
		<g>
			<path class="st9" d="M275.27,232.9c-2.94,1.02-5.7,2.47-8.21,4.3c-0.15,0.11,0,0.37,0.15,0.26c2.49-1.82,5.23-3.26,8.14-4.27
				C275.53,233.12,275.45,232.83,275.27,232.9L275.27,232.9z"/>
		</g>
	</g>
	<g>
		<g>
			<path class="st9" d="M277.11,233.53c-2.3,1.06-4.48,2.35-6.51,3.85c-0.15,0.11,0,0.37,0.15,0.26c2.03-1.51,4.21-2.8,6.51-3.85
				C277.43,233.71,277.28,233.45,277.11,233.53L277.11,233.53z"/>
		</g>
	</g>
</g>
<g id="hr">
	<g>
		<path class="st5" d="M335.79,231.37c1.95,5.07,0.55,11.01-1.87,15.97c-2.61,5.34-8.38,10.65-10.52,16.2
			c-0.58-2.3-0.04-5.23,0-7.61c0.23-12.56-3.36-24.49-8.89-35.77c-4.81-9.8-10.01-19.7-18-27.14c-2.29-2.13-4.85-4.07-7.82-5.04
			c-2.22-0.73-4.59-0.88-6.93-1.02c-16.54-0.96-33.12-1.28-49.68-0.96c-2.26,0.04-4.57,0.11-6.67,0.93
			c-3.08,1.21-5.31,3.86-7.76,6.08c-5.29,4.79-12.04,7.88-16.84,13.16c-3.69,4.05-6,9.17-7.73,14.36
			c-5.23,15.68-2.77,31.76-2.94,48.31c-0.46-0.28-1.28-1.99-1.48-2.54c-8.53-23.83-9.18-49.37,2.41-71.88
			c1.91-3.71,4.08-7.31,6.67-10.59c3.16-4.01,6.9-7.51,10.62-10.99c3.89-3.63,7.77-7.27,11.66-10.9c2.55-2.38,5.12-4.78,8.12-6.57
			c10.81-6.43,24.51-3.65,36.73-0.67c4.04,0.98,8.1,1.98,11.9,3.65c1.91,0.84,3.75,1.86,5.73,2.5c2.12,0.69,4.36,0.95,6.46,1.69
			c2.3,0.81,4.36,2.19,6.39,3.54c4.72,3.16,9.47,6.33,13.69,10.13c8.27,7.44,14.27,17,20.17,26.43c1.26,2.02,2.55,4.1,3.08,6.42
			c1.21,5.35-1.75,11.2,0.27,16.3c0.68,1.71,1.87,3.17,2.7,4.81C335.47,230.58,335.64,230.98,335.79,231.37z"/>
	</g>
</g>
<g id="ram">
	<g>
		<path class="st15" d="M22.08,196.45V21.25c0,0,0-0.3,0-0.6h175.2"/>
		<path class="st15" d="M20.78,296.35v175.2c0,0,0,4,0,8c1.3,0,2.7,0,2.7,0h175.2"/>
		<circle class="st15" cx="22.08" cy="216.85" r="8.4"/>
		<circle class="st15" cx="22.08" cy="239.25" r="8.5"/>
		<circle class="st15" cx="22.08" cy="262.65" r="8.4"/>
		<circle class="st15" cx="22.08" cy="283.75" r="8.4"/>
		<path class="st15" d="M480.88,304.05v175.2c0,0,0,0.3,0,0.6h-175.2"/>
		<path class="st15" d="M480.88,203.85V28.65c0,0,0-4,0-8c-4.2,0-8.5,0-8.5,0h-175.2"/>
		<circle class="st15" cx="480.88" cy="283.65" r="8.4"/>
		<circle class="st15" cx="480.88" cy="261.25" r="8.5"/>
		<circle class="st15" cx="480.88" cy="237.85" r="8.4"/>
		<circle class="st15" cx="480.88" cy="216.75" r="8.4"/>
	</g>
	<g>
		<polyline class="st15" points="59.53,36.87 42.04,36.87 42.04,54.66 		"/>
		<polyline class="st15" points="113.92,36.87 131.42,36.87 131.42,54.66 		"/>
		<polyline class="st15" points="59.53,125.97 42.04,125.97 42.04,108.17 		"/>
		<polyline class="st15" points="113.92,125.97 131.42,125.97 131.42,108.17 		"/>
	</g>
	<g>
		<path class="st16" d="M179.19,98.9"/>
	</g>
	<g>
		<path class="st16" d="M201.95,79.65"/>
	</g>
	<g>
		<path class="st16" d="M175.74,106.3"/>
	</g>
	<g class="st17">
		<path d="M78.47,95.14C87.79,86.6,96.97,77.92,106,69.08c1.02-0.99,2.36-2.07,3.7-1.6c0.93,0.33,1.48,1.31,2.34,1.79
			s2.38-0.23,1.9-1.1c-1.53-0.54-2.93-1.43-4.07-2.58c4.07-3.5,8.14-7.01,12.21-10.51c0.64-0.55,1.33-1.19,1.43-2.03
			c1.04,0.85,2.88,0.11,3.1-1.21c0.23-1.32-1.16-2.62-2.47-2.36c-1.32,0.26-2.13,1.89-1.6,3.12c-1.69-0.12-3.16,1.06-4.44,2.17
			c-3.37,2.92-6.73,5.85-10.1,8.77c-0.97-1.61-2.56-2.85-4.37-3.39c-0.85,0.2-0.68,1.55,0,2.1s1.63,0.74,2.19,1.4
			c0.86,1.01,0.65,2.06-0.5,2.96c-8.11,9.07-16.76,17.67-25.89,25.73c-2.38,2.1-4.8,4.17-7.09,6.37c-2.7,2.59-5.22,5.37-7.88,8
			c-4.8,4.75-10.04,9.03-15.27,13.3c3.64-2.09,6.85-4.86,10.01-7.63C65.7,106.7,72.12,100.96,78.47,95.14z"/>
	</g>
</g>
</svg>
