<?xml version="1.0" encoding="utf-8"?>
<!-- Generator: Adobe Illustrator 24.0.0, SVG Export Plug-In . SVG Version: 6.00 Build 0)  -->
<svg version="1.1" xmlns="http://www.w3.org/2000/svg" xmlns:xlink="http://www.w3.org/1999/xlink" x="0px" y="0px" width="1920px"
	 height="1080px" viewBox="0 0 1920 1080" style="enable-background:new 0 0 1920 1080;" xml:space="preserve">
<style type="text/css">
	.st0{fill:#4C5156;}
	.st1{fill:#46545E;}
	.st2{fill:#474F56;}
	.st3{fill:#2E3538;}
	.st4{fill:#272C2C;}
	.st5{fill:none;stroke:#2E3538;stroke-miterlimit:10;}
	.st6{fill:#595C5F;}
	.st7{fill:#1F2323;}
	.st8{fill:#242828;}
	.st9{fill:#3A4246;}
</style>
<g id="Lager_1">
</g>
<g id="svärt">
	<rect class="st0" width="1920" height="1080"/>
	<polygon class="st1" points="840.55,0 486.75,1080 0,1080 0,0 	"/>
	<path class="st2" d="M1826.44,0c0,0-57.73,1009.82-790.12,1003.46l-520.46-12.29L840.55,0H1826.44z"/>
	<g>
		<g>
			<path class="st3" d="M685.76,792.12c0.66,0,0.66-1.03,0-1.03C685.1,791.09,685.1,792.12,685.76,792.12L685.76,792.12z"/>
		</g>
	</g>
	<path class="st4" d="M959.5,239.5v91h-54v23h36l19,432l13,28l11-33l31-429l32-1v-21l-55-1v-89c0,0,34-31-16-42
		C976.5,197.5,926.5,200.5,959.5,239.5z"/>
	<path class="st4" d="M1142.07,401.7l-25.88,60.69l-36.01-15.36l-6.54,15.34l24.01,10.24L987.46,766.13l0.71,22.37l16.72-18.88
		l142.68-277.3l21.63,8.43l5.97-14.01l-36.4-16.31l25.31-59.36c0,0,31.49-11.01,1.27-32.56
		C1165.35,378.52,1131.15,366.31,1142.07,401.7z"/>
	<path class="st4" d="M801.68,401.78l25.88,60.69l36.01-15.36l6.54,15.34l-24.01,10.24l110.18,293.52l-0.71,22.37l-16.72-18.88
		L796.18,492.4l-21.63,8.43l-5.97-14.01l36.4-16.31l-25.31-59.36c0,0-31.49-11.01-1.27-32.56
		C778.4,378.6,812.6,366.39,801.68,401.78z"/>
	<path class="st4" d="M1229.59,502.74l-25.88,60.69l-36.01-15.36l-6.54,15.34l35.34,15.09l-121.52,288.67l0.71,22.37l16.72-18.88
		L1219.5,587.5l37.21,14.29l5.97-14.01l-36.4-16.31l25.31-59.36c0,0,31.49-11.01,1.27-32.56
		C1252.87,479.56,1218.67,467.34,1229.59,502.74z"/>
	<circle class="st5" cx="1246.26" cy="495.65" r="9.85"/>
	<path class="st4" d="M750.89,502.74l25.88,60.69l36.01-15.36l6.54,15.34l-35.34,15.09L905.5,867.17l-0.71,22.37l-16.72-18.88
		L760.98,587.5l-37.22,14.29l-5.97-14.01l36.4-16.31l-25.31-59.36c0,0-31.49-11.01-1.27-32.56
		C727.61,479.56,761.81,467.34,750.89,502.74z"/>
	<circle class="st5" cx="734.22" cy="495.65" r="9.85"/>
	<path class="st4" d="M1346.64,609.26l-47.28,46.02l-27.31-28.06l-11.95,11.63l18.2,18.71l-214.85,228.33l-7.97,20.91l22.71-10.97
		l238.58-200.83l16.7,16.12l10.91-10.62l-27.29-29.08l46.24-45.01c0,0,33.3,1.99,13.73-29.55
		C1377.06,596.85,1350.22,572.39,1346.64,609.26z"/>
	<path class="st4" d="M622.96,602.94l47.28,46.02l27.31-28.06l11.95,11.63l-18.2,18.71l214.85,228.33l7.97,20.91l-22.71-10.97
		L652.84,688.67l-16.7,16.12l-10.91-10.62l27.29-29.08l-46.24-45.01c0,0-33.3,1.99-13.73-29.55
		C592.54,590.53,619.38,566.07,622.96,602.94z"/>
	<path class="st4" d="M1064.65,302.52l-5.34,65.76l-39.02-3.17l-1.35,16.62l26.02,2.11l-11.6,313.31l7.75,21l9.88-23.2l47.56-308.21
		l23.18,1.15l1.23-15.18l-39.69-3.95l5.22-64.32c0,0,26.39-20.41-9.1-31.29C1079.4,273.16,1043.09,272.4,1064.65,302.52z"/>
	<path class="st4" d="M887.81,302.52l5.34,65.76l39.02-3.17l1.35,16.62l-26.02,2.11l11.6,313.31l-7.75,21l-9.88-23.2l-47.56-308.21
		l-23.18,1.15l-1.23-15.18l39.69-3.95l-5.22-64.32c0,0-26.39-20.41,9.1-31.29C873.06,273.16,909.37,272.4,887.81,302.52z"/>
	<polygon class="st6" points="941.5,353.5 979.43,353.5 979.43,620.1 953.23,620.1 	"/>
	<polygon class="st6" points="853.91,386.74 881.51,386.74 905.5,667.02 897.16,667.02 	"/>
	<polygon class="st6" points="796.18,492.4 818.98,483.11 925.22,718.15 915.34,724 	"/>
	<polygon class="st6" points="760.98,587.5 772.06,582.58 832.46,729.04 827.14,734.89 	"/>
	<polygon class="st6" points="652.84,688.67 670.09,671.88 840.55,832.71 832.46,839.87 	"/>
	<polygon class="st6" points="1044.96,383.85 1067.61,386.74 1047.5,620.1 1036.32,617.34 	"/>
	<polygon class="st6" points="1097.64,472.61 1122.97,483.11 1067.61,617.94 1055.48,584.94 	"/>
	<polygon class="st6" points="1196.5,578.5 1205.67,582.5 1132.33,760.33 1122.97,753.17 	"/>
	<polygon class="st6" points="1278.31,657.55 1289.81,678.35 1122.97,851.47 1120.03,825.75 	"/>
</g>
<g id="Lager_2">
	<g>
		<path class="st7" d="M679.23,1001.39c2.09,2.68-4.47,2.87-6.1-0.12c-6.95-12.76-1.03-28.95,8.08-40.26
			c9.11-11.31,21.24-20.09,29.26-32.2c14.89-22.46,11.98-55.09-6.66-74.55c-4.06-4.24-8.92-8.16-10.68-13.75
			c-1.41-4.47-0.6-9.31,0.23-13.92c7.34-40.95,14.67-81.9,22.01-122.84c0.88-4.91,2-10.24,5.86-13.39
			c5.49-4.49,13.56-2.46,20.61-3.22c18.71-2.01,28.4-23.15,32.48-41.52c5.31-23.87,7.36-48.47,6.07-72.89
			c33.59,12.78,67.19,25.57,100.78,38.35c3.06,1.16,6.48,2.33,9.51,1.1c2.53-1.03,4.14-3.49,5.58-5.81
			c33.5-53.97,64.08-109.76,91.54-167.03c40.34,44.04,49.16,108.3,80.48,159.15c1.09,1.77,2.37,3.66,4.36,4.28
			c2.37,0.74,4.84-0.56,6.99-1.79c26.82-15.36,55.74-27.07,85.7-34.69c1.93,26.53,1.27,53.25-1.95,79.66
			c13.13-6.13,26.26-12.27,39.39-18.4c2.82,22.96,8.27,49.73,29.24,59.47c8.57,3.98,19.11,4.65,25.57,11.54
			c4.33,4.62,5.87,11.12,7.21,17.31c7.24,33.56,13.22,67.4,17.91,101.42c0.78,5.68,1.5,11.64-0.58,16.98
			c-1.93,4.97-6.02,8.72-9.68,12.6c-18.13,19.25-27.31,50.41-12.5,72.31c8.45,12.49,23,19.73,31.8,31.98
			c9.41,13.11,10.88,31.48,3.68,45.92c-58.04-1.32-116.09-2.63-174.13-3.95c-148.49-3.37-297.54-6.71-445.1,10.2"/>
	</g>
</g>
<g id="Lager_3">
	<g>
		<path class="st8" d="M938.31,629.66c-3.19,6.44-6.49,12.82-9.9,19.14c-2.82,5.23-6.52,11-12.4,11.82
			c-3.87,0.54-7.64-1.27-11.12-3.04c-38.61-19.52-77.22-39.04-115.82-58.57c14.19,31.47,28.39,62.94,42.58,94.41
			c-15.17-8.02-31.45-13.95-48.22-17.56c7.02,18.96,12.05,38.66,14.98,58.67c-15.89,9.48-37.96-9.45-53.95-0.14
			c-9.2,5.36-11.47,17.4-12.81,27.97c-2.86,22.69-5.71,45.84-1.28,68.28c4.78,24.15,17.67,45.81,30.43,66.87
			c9.91,16.37,20.47,33.33,36.78,43.35c17.17,10.54,42.67,10.59,54.42-6.42c42.94-16.46,90.51-16.19,136.64-15.66
			c21.51,0.25,43.02,0.5,64.54,0.75c27.19,0.31,55.14,0.79,80.83,9.01c20.54,17.61,51.83,10.94,71.71-5.96
			c18.33-15.58,29.18-37.98,39.52-59.7c6.6-13.86,13.35-28.48,12.43-43.81c-0.63-10.46-4.81-20.32-8.35-30.18
			c-6.8-18.99-11.37-38.79-13.57-58.84c-16.6,3.56-33.2,7.12-49.8,10.68c6.14-22.9,12.28-45.81,18.42-68.71
			c-24.78,10.95-49.55,21.91-74.33,32.86c8.81-35.65,14.66-72.02,17.48-108.63c-17.12,19.65-36.63,37.21-57.96,52.17
			c-2.25,1.57-4.71,3.18-7.45,3.12c-2.87-0.07-5.35-1.95-7.46-3.9c-11.69-10.82-18.55-25.75-25.11-40.27
			c-19.58-43.34-39.17-86.68-58.75-130.02C979.91,530.08,962.22,581.41,938.31,629.66z"/>
	</g>
</g>
<g id="Lager_4">
	<g>
		<path class="st9" d="M870.23,743.41c-6.79-22.71-11.82-45.95-15.02-69.43c22.86,8.1,45.73,16.21,68.59,24.31
			c4.5,1.6,10.07,3,13.59-0.23c2.08-1.91,2.71-4.87,3.27-7.64c9.14-45.67,24.94-90.01,46.75-131.17
			c23.19,40.09,46.37,80.18,69.56,120.27c1.34,2.32,2.9,4.82,5.46,5.63c3.08,0.97,6.27-0.9,8.96-2.69
			c14.89-9.91,29.77-19.81,44.66-29.72c1.09,39.28-3.75,78.72-14.31,116.56c-5.07,18.15-11,39.2,0,54.5
			c4.57,6.36,11.45,10.59,18.15,14.65c11.55,7.01,23.11,14.02,34.66,21.03c-4.61,17.99-9.21,35.97-13.82,53.96
			c-2.82,11.02-4.95,24.58,3.52,32.18c7.03,6.3,21.22,10.44,17.45,19.1c-1.95,4.49-7.83,5.35-12.72,5.48
			c-53.68,1.45-107.24-7.62-160.91-5.92c-24.29,0.77-48.45,3.74-72.69,5.47c-36.48,2.61-73.16,2.41-109.6-0.58
			c-0.76-12.82,14.75-19.58,22.13-30.09c9.34-13.31,4.74-31.38,1.07-47.22c-3.67-15.84-4.69-35.56,8.44-45.16
			c12.93-9.45,33.05-3.56,45.31-13.86c14.13-11.87,7.45-34.41,0.65-51.56C878.44,768.86,874.05,756.22,870.23,743.41z"/>
	</g>
	<g>
		<path class="st3" d="M1068.67,870.06c-67.76,6.76-136.51,3.67-203.38-9.2c16.97-6.54,34.6-13.52,46.25-27.72
			c53.53,7.36,108.09,7.21,161.58-0.44c10.77,12.47,23.46,23.27,37.49,31.89C1096.69,866.84,1082.7,868.67,1068.67,870.06z"/>
	</g>
</g>
</svg>
