<?xml version="1.0" encoding="utf-8"?>
<!-- Generator: Adobe Illustrator 24.0.0, SVG Export Plug-In . SVG Version: 6.00 Build 0)  -->
<svg version="1.1" id="Lager_1" xmlns="http://www.w3.org/2000/svg" xmlns:xlink="http://www.w3.org/1999/xlink" x="0px" y="0px"
	 width="500px" height="500px" viewBox="0 0 500 500" style="enable-background:new 0 0 500 500;" xml:space="preserve">
<style type="text/css">
	.st0{fill:#050101;}
	.st1{fill:none;stroke:#000000;stroke-width:2;stroke-miterlimit:10;}
	.st2{fill:#FFFFFF;}
</style>
<circle class="st0" cx="250.1" cy="254.14" r="121.37"/>
<path class="st1" d="M104.05,258.78c0-19.52,3.83-38.15,10.78-55.17"/>
<path class="st1" d="M238.33,404.36c-37.45-2.99-70.92-20.1-95.07-46.01"/>
<path class="st1" d="M396.15,258.78c0,38.61-14.98,73.72-39.45,99.83c-20.95,22.36-48.85,38.13-80.25,43.85"/>
<path class="st1" d="M250.1,112.72c30.25,0,58.35,9.2,81.66,24.94"/>
<path class="st1" d="M84.12,300.99c-3.42-13.5-5.24-27.65-5.24-42.21c0-82.5,58.34-151.37,136.02-167.6
	c3.76-0.79,7.57-1.45,11.41-1.98"/>
<path class="st1" d="M116.95,366.42c-4.69-5.79-9.01-11.9-12.92-18.28"/>
<path class="st1" d="M359.75,390.28c-10.71,8.94-22.53,16.59-35.22,22.73"/>
<path class="st1" d="M421.32,258.78c0,20.75-3.69,40.64-10.45,59.04"/>
<path class="st1" d="M250.1,87.56c31.45,0,60.91,8.48,86.24,23.27c3.23,1.89,6.4,3.88,9.49,5.97c3.89,2.63,7.67,5.42,11.33,8.35
	c34.22,27.46,57.68,67.79,63,113.65"/>
<path class="st1" d="M143.23,420.86c-54.82-35.21-91.13-96.72-91.13-166.72"/>
<path class="st1" d="M342.16,429.49c-3.4,1.79-6.86,3.48-10.38,5.08c-24.9,11.29-52.56,17.58-81.68,17.58
	c-31.15,0-60.63-7.2-86.85-20.01"/>
<path class="st1" d="M446.85,276.58"/>
<path class="st1" d="M398.54,123.09c26.65,30.17,44.26,68.52,48.55,110.81"/>
<path class="st1" d="M154.21,80.86c6.08-3.37,12.36-6.44,18.82-9.16c23.69-10.02,49.73-15.56,77.07-15.56
	c37.97,0,73.45,10.69,103.59,29.22"/>
<path class="st1" d="M34.39,189.26c4.32-15.5,10.28-30.33,17.66-44.28c8.33-15.74,18.48-30.37,30.17-43.6"/>
<path class="st1" d="M112.83,426.48c-19.08-14.83-35.7-32.67-49.14-52.82c-23.69-35.52-37.5-78.2-37.5-124.1"/>
<path class="st1" d="M359.72,444.85c-7.91,4.45-16.12,8.43-24.58,11.91c-26.22,10.77-54.93,16.71-85.04,16.71"/>
<path class="st1" d="M474.02,249.56c0,23.19-3.52,45.55-10.07,66.59"/>
<path class="st1" d="M250.1,25.64c44.3,0,85.6,12.87,120.36,35.06c6.59,4.21,12.94,8.75,19.04,13.6"/>
<path class="st1" d="M103.99,79.87c27.1-23.35,59.84-40.32,95.91-48.58c3.8-0.87,7.65-1.65,11.52-2.32"/>
<path class="st1" d="M4.66,249.56c0-4.24,0.11-8.46,0.32-12.66c0.42-8.32,1.26-16.53,2.49-24.62c6.08-39.89,21.76-76.62,44.6-107.76
	"/>
<path class="st1" d="M129.22,463.22c-17.73-10.05-34.09-22.25-48.72-36.24c-6.3-6.02-12.27-12.37-17.9-19.03"/>
<path class="st1" d="M441.17,403.63c-34.01,42.12-81.67,72.77-136.25,85.22c-4.61,1.05-9.28,1.97-13.98,2.76
	c-13.28,2.22-26.92,3.38-40.83,3.38c-7.38,0-14.68-0.33-21.89-0.96"/>
<path class="st1" d="M481.6,167.8c4.81,13.62,8.45,27.8,10.81,42.4c1.26,7.79,2.14,15.7,2.65,23.72c0.32,5.17,0.49,10.38,0.49,15.63
	c0,46.87-13.14,90.68-35.93,127.93"/>
<path class="st1" d="M406.57,60.45c25.49,21.11,46.63,47.27,61.91,76.96"/>
<path class="st1" d="M85.72,67.29c29.87-26.95,66.39-46.67,106.8-56.38c7.19-1.73,14.49-3.14,21.91-4.22
	c7.91-1.15,15.94-1.93,24.08-2.3c3.84-0.18,7.71-0.27,11.59-0.27"/>
<path class="st2" d="M350.2,328.65c1.1-1.41,1.77-3.01,2.79-4.45c-41.84,49.23-115.2,57.53-166.69,17.47s-61.49-113.2-24.07-165.87
	c-1.15,1.35-2.53,2.39-3.63,3.8c-41.16,52.91-31.63,129.16,21.27,170.32S309.05,381.56,350.2,328.65z"/>
</svg>
