<?xml version="1.0" encoding="utf-8"?>
<!-- Generator: Adobe Illustrator 24.0.0, SVG Export Plug-In . SVG Version: 6.00 Build 0)  -->
<svg version="1.1" id="Lager_1" xmlns="http://www.w3.org/2000/svg" xmlns:xlink="http://www.w3.org/1999/xlink" x="0px" y="0px"
	 width="20px" height="20px" viewBox="0 0 20 20" style="enable-background:new 0 0 20 20;" xml:space="preserve">
<style type="text/css">
	.st0{fill:#050101;}
	.st1{fill:none;stroke:#000000;stroke-width:0.05;stroke-miterlimit:10;}
	.st2{fill:#FFFFFF;}
</style>
<circle class="st0" cx="10" cy="10.35" r="4.54"/>
<path class="st1" d="M4.54,10.53c0-0.73,0.14-1.43,0.4-2.06"/>
<path class="st1" d="M9.56,15.97c-1.4-0.11-2.65-0.75-3.55-1.72"/>
<path class="st1" d="M15.46,10.53c0,1.44-0.56,2.76-1.47,3.73c-0.78,0.84-1.83,1.43-3,1.64"/>
<path class="st1" d="M10,5.07c1.13,0,2.18,0.34,3.05,0.93"/>
<path class="st1" d="M3.79,12.11c-0.13-0.5-0.2-1.03-0.2-1.58c0-3.08,2.18-5.66,5.09-6.27c0.14-0.03,0.28-0.05,0.43-0.07"/>
<path class="st1" d="M5.02,14.55c-0.18-0.22-0.34-0.44-0.48-0.68"/>
<path class="st1" d="M14.1,15.44c-0.4,0.33-0.84,0.62-1.32,0.85"/>
<path class="st1" d="M16.4,10.53c0,0.78-0.14,1.52-0.39,2.21"/>
<path class="st1" d="M10,4.13c1.18,0,2.28,0.32,3.22,0.87c0.12,0.07,0.24,0.15,0.35,0.22c0.15,0.1,0.29,0.2,0.42,0.31
	c1.28,1.03,2.16,2.53,2.36,4.25"/>
<path class="st1" d="M6,16.59c-2.05-1.32-3.41-3.62-3.41-6.23"/>
<path class="st1" d="M13.44,16.91c-0.13,0.07-0.26,0.13-0.39,0.19c-0.93,0.42-1.96,0.66-3.05,0.66c-1.16,0-2.27-0.27-3.25-0.75"/>
<path class="st1" d="M17.36,11.19"/>
<path class="st1" d="M15.55,5.46c1,1.13,1.65,2.56,1.82,4.14"/>
<path class="st1" d="M6.42,3.88c0.23-0.13,0.46-0.24,0.7-0.34C8,3.16,8.98,2.95,10,2.95c1.42,0,2.75,0.4,3.87,1.09"/>
<path class="st1" d="M1.94,7.93C2.1,7.35,2.32,6.8,2.6,6.27c0.31-0.59,0.69-1.14,1.13-1.63"/>
<path class="st1" d="M4.87,16.8c-0.71-0.55-1.33-1.22-1.84-1.97c-0.89-1.33-1.4-2.92-1.4-4.64"/>
<path class="st1" d="M14.1,17.48c-0.3,0.17-0.6,0.32-0.92,0.45c-0.98,0.4-2.05,0.62-3.18,0.62"/>
<path class="st1" d="M18.37,10.18c0,0.87-0.13,1.7-0.38,2.49"/>
<path class="st1" d="M10,1.81c1.66,0,3.2,0.48,4.5,1.31c0.25,0.16,0.48,0.33,0.71,0.51"/>
<path class="st1" d="M4.54,3.84c1.01-0.87,2.24-1.51,3.59-1.82c0.14-0.03,0.29-0.06,0.43-0.09"/>
<path class="st1" d="M0.82,10.18c0-0.16,0-0.32,0.01-0.47C0.85,9.4,0.88,9.09,0.93,8.79C1.16,7.3,1.74,5.93,2.6,4.76"/>
<path class="st1" d="M5.48,18.17c-0.66-0.38-1.27-0.83-1.82-1.35c-0.24-0.23-0.46-0.46-0.67-0.71"/>
<path class="st1" d="M17.14,15.94c-1.27,1.57-3.05,2.72-5.09,3.19c-0.17,0.04-0.35,0.07-0.52,0.1c-0.5,0.08-1.01,0.13-1.53,0.13
	c-0.28,0-0.55-0.01-0.82-0.04"/>
<path class="st1" d="M18.65,7.13c0.18,0.51,0.32,1.04,0.4,1.59C19.11,9,19.14,9.3,19.16,9.6c0.01,0.19,0.02,0.39,0.02,0.58
	c0,1.75-0.49,3.39-1.34,4.78"/>
<path class="st1" d="M15.85,3.11c0.95,0.79,1.74,1.77,2.31,2.88"/>
<path class="st1" d="M3.85,3.37c1.12-1.01,2.48-1.74,3.99-2.11C8.12,1.2,8.39,1.14,8.67,1.1c0.3-0.04,0.6-0.07,0.9-0.09
	C9.71,1.01,9.85,1.01,10,1.01"/>
<path class="st2" d="M13.74,13.14c0.04-0.05,0.07-0.11,0.1-0.17c-1.56,1.84-4.31,2.15-6.23,0.65s-2.3-4.23-0.9-6.2
	C6.67,7.48,6.62,7.52,6.58,7.57c-1.54,1.98-1.18,4.83,0.8,6.37S12.2,15.12,13.74,13.14z"/>
</svg>
