<?xml version="1.0" encoding="utf-8"?>
<!-- Generator: Adobe Illustrator 24.0.0, SVG Export Plug-In . SVG Version: 6.00 Build 0)  -->
<svg version="1.1" id="Lager_1" xmlns="http://www.w3.org/2000/svg" xmlns:xlink="http://www.w3.org/1999/xlink" x="0px" y="0px"
	 width="500px" height="500px" viewBox="0 0 500 500" style="enable-background:new 0 0 500 500;" xml:space="preserve">
<style type="text/css">
	.st0{fill:#3E383C;}
	.st1{opacity:0.46;}
	.st2{fill:#725549;}
	.st3{fill:#1A1E23;}
	.st4{fill:#705447;}
	.st5{fill:#7F7974;}
	.st6{fill:#252B30;}
	.st7{fill:#88685C;}
	.st8{fill:#FFFFFF;}
	.st9{fill:#3C3334;}
	.st10{fill:#855350;}
	.st11{fill:#C37E81;}
	.st12{fill:#292222;}
	.st13{fill:none;stroke:#000000;stroke-width:2;stroke-miterlimit:10;}
	.st14{opacity:0.67;}
</style>
<g id="backgrund">
	<rect class="st0" width="503" height="516"/>
</g>
<g id="skugga" class="st1">
	<g>
		<g>
			<path d="M9.5,315.1c4.4,0.4,9.6,0.5,15.4,0.1s10.9-1.3,15.3-2.2c0.2,10-0.3,20-1.5,29.9c89.4-3.4,178.9-3.1,268.2,0.8
				c38.2,1.7,76.3,4,114.4,6.3l-4.6-36c9.1,1.8,18.7,1.5,27.7-1c5.3,54.9,10.6,109.7,15.9,164.5c0.1,0.7,0.1,1.4,0.2,2
				c1.3,13.6,2.8,27.3,7,40.4c-58,18-120.5,7.2-181.2,6.3c-17.4-0.3-34.9,0.3-52.3,0.8c-21.3,0.7-42.5,1.3-63.7,2.3
				c-48.1,2.3-96.6,6.2-144.3-0.5c-3.3-0.5-6.9-1.1-9.4-3.3c-3.4-3.1-3.8-8.3-4-13C6.5,460.6,4,404.1,7.4,343.7
				C8,334,8.6,324.5,9.5,315.1z"/>
		</g>
		<g>
			<path d="M453.2,493.5c-1-20.4-2.3-41.1-8.6-60.5s-18.4-37.8-36.4-47.6c-10.9-5.9-23.2-8.3-35-12.3c-9-3-17.8-7-26.5-10.9
				c-14.4-6.5-29.8-13.9-37.4-27.9c-1.4-2.5-2.5-5.3-4.9-7.1c-3.6-2.7-8.5-1.8-13-1.2c-22.4,3.1-45.2-2.3-66.6-9.7
				c-12.1-4.2-24.2-9-36.9-9.4c-12.8-0.3-26.6,5-32.4,16.3c-2.1,4-3,8.6-5.7,12.3c-6.6,8.8-19.6,8.1-30.5,9.1
				c-31,3-57.2,26.6-88.2,29.1c-5.6,0.5-11.8,0.4-15.9,4.3c-4,3.8-4.4,9.9-4.5,15.4c-0.5,20-0.9,40-1.4,59.9
				c-0.3,12.9-0.3,26.8,7,37.3c5.5,7.9,14.5,12.8,23.5,16.3c26.9,10.5,56.4,11.4,85.2,12.2c58.7,1.7,117.4,3.3,176,5
				c37,1,74.3,2.1,110.6-4.7c10.7-2,22.1-5.2,28.6-13.9c3.6-4.9,7-12,13-11.1"/>
		</g>
		<g>
			<path d="M193.6,321.6c-3.1-2.9-6.1-5.8-9-8.9c-3-3.2-5.9-6.5-7.8-10.4c-2-4-3-8.5-3.8-12.9c-1.8-10.2-2.7-20.5-2.8-30.9
				c1.8,2,3,4.4,3.4,7c0.2,1.1,0.3,2.3,0.9,3.2c0.5,0.8,1.4,1.3,2,1.9c0.9,0.9,1.4,2,2,3.1c3.6,6.9,9.2,12.6,15.5,17.2
				c6.3,4.6,13.2,8.2,20.2,11.7c18.6,9.5,37.7,19.3,58.4,21.4c3.6,0.4,7.2,0.5,10.7-0.3c12.5-1.1,24.4-7.5,32.1-17.4
				c-3.2,4.5-6.4,9.1-9.6,13.6c-1.5,2.1-3,4.3-3.6,6.8c-0.6,2.7,0,5.6-0.1,8.3c-0.2,5.4-2.9,10.4-5.5,15.1c-1.9,3.5-3.9,7-5.8,10.5
				c-0.4,0.8-0.9,1.6-1.6,2.2c-0.9,0.8-7.7,10.8-8.9,11.1c-4.5,1.2-5.4-3.3-10-4c-3.8-0.6-4.4-2.7-8-4
				C237.7,357,213,339.5,193.6,321.6z"/>
		</g>
		<g>
			<path d="M294.9,491.8c1-35.1-4.4-69.9-9.8-104.6c-0.7-4.6-1.6-9.7-5.1-12.9c-2.6-2.5-6.3-3.4-9.8-4.5
				c-24.3-7.3-45.1-22.9-65.4-38.1c-7.9-5.9-15.7-11.8-23.6-17.7c7.3,6.7,15,13,23,18.8c18.1,13.2,37.9,24,58.2,33.5
				c6.6,3.1,13.5,6.3,17.5,12.3c2.7,4.1,3.8,9.1,4.6,14c3.3,18.4,5.3,37,5.8,55.7c0.4,14.4,0,29.1,4,43"/>
		</g>
		<g>
			<path d="M296.5,490.3c3.9-36-12.8-73.1-9.9-109.3c0.2-2.9-4.4-5.5-3-8c1.5-2.6,1.7-7.1,4-9c7.9-6.7,18.8-27.4,15-37
				c3.6,4.2-3,24.8-5,30s-10,8.5-10,14c0,4,1.3,3.5,0,7c-0.9,2.5-0.1,4.4,0,7c1.1,34.5,9.9,69.1,11,103.6"/>
		</g>
		<g>
			<path d="M165.3,346.4c34.7,14.2,66.2,35.9,91.8,63.3"/>
		</g>
		<g>
			<path d="M305.8,405.3c7.4-13.8,14.8-27.5,22.1-41.3"/>
		</g>
		<g>
			<path d="M322.3,182.5c0.9,3.4,1.5,6.8,2.5,10.1c2.2,7.8,6.4,15.2,7.4,23.3c0.7,6.1-0.5,12.3-1.9,18.4
				c-3.6,15.9-8.4,31.6-9.9,47.9c-0.5,6.1-0.6,12.4-2.5,18.3c-4,12.7-16.2,21.8-29.2,24.8c-13,3-26.8,0.6-39.4-3.9
				s-24.3-11-36.4-16.7c-7.1-3.4-14.5-6.5-20.9-11.2c-8.9-6.6-15.3-16.3-18.1-27c-4-7.1-6.1-15-7.9-22.9
				c-3.5-15.3-6.1-30.9-5.2-46.6s5.4-31.4,15-43.9c6.9-8.9,16-15.7,25.5-21.8c8.8-5.7,18.3-10.9,28.7-12.3
				c10.6-1.5,21.4,1.1,31.8,3.6c7.3,1.8,14.7,3.6,21,7.6c5.2,3.3,9.4,8,13.5,12.6c10.6,11.8,21.6,24.2,25.8,39.5
				C322.2,182.3,322.2,182.4,322.3,182.5z"/>
		</g>
		<g>
			<path d="M253.1,199.3c-2.6-1.5-5.2-3-7.8-4.6c-2.2-1.3-4.4-2.6-6.9-3.1c-3.7-0.7-7.5,0.4-10.7,2.4s-5.8,4.7-8.4,7.4
				c-1,1-2,2.1-2.5,3.4c2.3,0.5,4.6-0.7,6.7-1.6c3.8-1.6,7.8-2.6,11.8-2.8c6.1-0.4,12.3,0.6,18.3-0.4"/>
		</g>
		<g>
			<path d="M283.4,194.7c1.5-1.1,3-2.3,4.5-3.4c2.9-2.2,6-4.5,9.6-4.7c1.6-0.1,3.2,0.3,4.8,0.6c2.7,0.6,5.5,1.2,7.9,2.5
				s4.7,3.3,5.6,5.9c-4.5,0.3-9,0.2-13.4-0.1c-4.6-0.3-9.2-0.9-13.9-1.1c-1.8-0.1-3.6-0.1-5.3,0.5"/>
		</g>
		<g>
			<path d="M278.2,327.4c-0.7,1.3-2,2.2-3.4,2c-1.2-0.2-2.2-1-3.3-1.5c-2.1-0.9-4.4-0.4-6.7-0.5c-2.1-0.1-4.2-0.8-6.3-1.4
				c-18.7-6.2-36.9-14.1-54.2-23.6c-7.7-4.2-15.3-8.8-21.3-15.3c-6.2-6.8-10.2-15.5-12.8-24.4c-2.5-8.7-3.6-17.7-4.8-26.7
				c9.5,0.7,19.7,1.8,26.6,8.4c1.3,1.3,2.5,2.8,4.1,3.7c2.3,1.3,5.1,1.2,7.8,1.2c5.2,0,10.4,0.4,15.6,1.2c2.9,0.4,5.8,1,8.2,2.7
				c3.2,2.2,5,6,6,9.8c0.9,3.8,1.2,7.8,2.1,11.6c2.4,9.7,9,17.7,15.5,25.3c3.4,4,7,8.1,11.7,10.4c2.3,1.1,4.9,1.7,7.1,2.9
				c3.5,1.8,6.4,5,7.8,8.7c0.6,1.6,1,3.3,0.5,4.9C278.4,326.9,278.3,327.2,278.2,327.4z"/>
		</g>
		<g>
			<path d="M290.6,312.2c1.3,4.4-0.6,9.5-4.4,12.1"/>
		</g>
		<g>
			<path d="M286.3,267.3c-4.4,0-8.8,0.4-13.1,1.3c-4.4,0.9-9,2.2-13.1,0.6c-0.7-0.3-1.5-0.8-1.6-1.5c-0.1-0.6,0.4-1.2,0.8-1.7
				c2.4-2.7,5.3-4.9,8.5-6.5c1.5-0.7,3-1.3,4.2-2.3c2.7-2.2,4-6.5,8.7-5.1c2.3-0.6,4.9,0.1,7.3,1c3.4,1.2,6.9,2.4,10.3,3.6
				c1.9,0.7,3.9,1.4,5.5,2.6s2.9,3,3,5.1c0,0.6-0.1,1.2-0.4,1.6c-0.3,0.3-0.6,0.5-1,0.7c-4.8,2-10.3,1.1-15.5,0.8
				C288.6,267.3,287.4,267.3,286.3,267.3z"/>
		</g>
		<g>
			<path d="M282.4,175.6c-2.3,2.5-2.7,6.3-1.9,9.6s2.8,6.2,4.6,9.1c2.6,3.9,5.2,7.8,7.8,11.8c2.6,4,5.3,8.1,6.9,12.6s2,9.7,0,14.1
				c-0.4,0.8-0.9,1.7-1.6,2.3c-0.9,0.7-2,1-3.1,1.2c-8.5,1.8-17.5,1.8-26,0c-1.5-0.3-3.1-0.7-4.5-1.5c-3-1.7-4.8-5.1-4.5-8.5
				c0.3-3.4,2.7-6.5,5.8-7.6"/>
		</g>
		<g>
			<path d="M297.8,229c-1.4,0.6-2.3,2-2.4,3.5c0,0.3,0,0.6,0.3,0.7c0.4,0.2,0.8-0.2,1-0.6c0.8-1.3,1.6-3.2,0.4-4.3"/>
		</g>
		<g>
			<path d="M271.3,233.3c0-1.1,0.8-2.1,1.8-2.7s2.1-0.8,3.2-1c3.5-0.6,7.5-0.7,10,1.8c0.5,0.5,0.9,1.6,0.2,1.9
				c-0.2,0.1-0.4,0.1-0.6,0.1c-2.9,0-5.8-0.1-8.7-0.1c-1.3,0-2.6,0-4-0.1c-0.5,0-1.1-0.3-0.8-0.7"/>
		</g>
		<g>
			<path d="M305.5,260.1c-2.1-3.1-3-6-6-8.3c-1.6-1.3-3.5-2.6-5.6-2.2c-1.3,0.2-2.3,1-3.6,1.3c-3.1,0.8-6.2-1.7-9.4-1.5
				c-3.5,0.3-5.9,3.6-8.7,5.7c-2.2,1.6-4.8,2.6-7.1,4c-3,1.9-5,4.8-6.7,7.9c4.5,0.9,8.4-2.1,12.5-4.2c9.7-5,22.1-6.9,31.3-1
				c2.4,1.5,1.4,4.6,4.2,4.3C307.5,264.1,306.6,261.7,305.5,260.1z"/>
		</g>
		<g>
			<path d="M258.5,267.1c1.6,2,3,2.2,5.4,1.3c5.8-2.2,11.7-4.4,17.9-5.2c5.1-0.6,10.4-0.2,15.4,1.2c1.1,0.3,2.3,0.7,3.5,0.7
				c1.1,0,2.1-0.3,3.2-0.2c1.1,0,2.2,0.5,2.6,1.5c0.6,1.4-1,2.7-2.3,3.4c-12.8,6-27.6,4.8-41.4,2c-2.1-0.5-4.2-1.5-4.1-3.7"/>
		</g>
		<g>
			<path d="M256,178c-3.4,1.1-6.9,2.2-10.3,3.2"/>
		</g>
		<g>
			<path d="M256.7,179.9c-2,1-4,1.8-6.2,2.4"/>
		</g>
		<g>
			<path d="M253.3,180.3c-4.2,1.4-8.5,2.6-12.8,3.6"/>
		</g>
		<g>
			<path d="M250.2,179.6c-4.1,1.5-8.3,2.7-12.6,3.7"/>
		</g>
		<g>
			<path d="M252,175.3c-3.6,0.8-7.2,1.5-10.8,2.1"/>
		</g>
		<g>
			<path d="M254.9,176.9c-4.8,0.3-9.6,1.5-14,3.4"/>
		</g>
		<g>
			<path d="M253.6,176.1c-4.8,1.8-9.6,3.4-14.4,5"/>
		</g>
		<g>
			<path d="M261.4,177.8c-3.4,2-7.2,3.4-11.1,4.1"/>
		</g>
		<g>
			<path d="M259.2,178.4c-3,1.3-6.3,2.1-9.5,2.3"/>
		</g>
		<g>
			<path d="M255.8,175.5c-5.4,1.9-10.8,3.8-16.2,5.6"/>
		</g>
		<g>
			<path d="M243.6,176.6c-4.3,1.3-8.5,2.6-12.8,4"/>
		</g>
		<g>
			<path d="M237.4,177.4c-4.4,1.4-8.8,2.8-13.1,4.3"/>
		</g>
		<g>
			<path d="M240.1,178.5c-4.3,1.3-8.6,2.6-12.9,3.9"/>
		</g>
		<g>
			<path d="M241.8,180.4c-3.2,0.8-6.4,1.5-9.6,2.2"/>
		</g>
		<g>
			<path d="M240,180.9c-4.4,2.3-9,4.1-13.8,5.4"/>
		</g>
		<g>
			<path d="M238,183.2c-3.2,1.3-6.4,2.5-9.8,3.5"/>
		</g>
		<g>
			<path d="M234.7,183.8c-3.3,1.6-6.8,3-10.3,4.1"/>
		</g>
		<g>
			<path d="M227.7,184.6c-2.8,1.4-5.6,2.6-8.5,3.7"/>
		</g>
		<g>
			<path d="M225.2,184.3c-3.3,1.4-6.5,3.1-9.6,4.9"/>
		</g>
		<g>
			<path d="M224.7,182.6c-3.4,1.8-6.8,3.8-9.9,6"/>
		</g>
		<g>
			<path d="M226.5,180.3c-4.4,2.1-8.4,4.9-12,8.1"/>
		</g>
		<g>
			<path d="M217.8,186c-2,1.8-4,3.4-6.1,5"/>
		</g>
		<g>
			<path d="M219.9,187.3c-1.9,2-4.3,3.6-6.9,4.5"/>
		</g>
		<g>
			<path d="M221.1,187.3c-2,2.1-4.3,3.9-6.8,5.4"/>
		</g>
		<g>
			<path d="M231.7,182.7c0.2,0.1,0,0.4-0.2,0.4c-2.6,0.9-5.2,1.8-7.9,2.4"/>
		</g>
		<g>
			<path d="M232.6,181.6c-3.8,2.1-7.7,4.3-11.5,6.4"/>
		</g>
		<g>
			<path d="M224.8,187c-3,1.9-6,3.8-8.9,5.6"/>
		</g>
		<g>
			<path d="M217.6,190.1c-1.8,2-4,3.5-6.4,4.6"/>
		</g>
		<g>
			<path d="M220.8,184.3c-2,1.3-4,2.6-6.1,3.9"/>
		</g>
		<g>
			<path d="M258.7,176.9c-3.4,2-7.2,3.3-11.1,3.8"/>
		</g>
		<g>
			<path d="M256.5,181.9c-2.4,1.2-5.2,1.8-7.9,1.7"/>
		</g>
		<g>
			<path d="M250.2,182.9c-2.4,0.3-4.7,0.7-7,1.4"/>
		</g>
		<g>
			<path d="M241.8,183.7c-2.9,0.9-5.9,1.4-9,1.6"/>
		</g>
		<g>
			<path d="M240.3,184.4c-2.4,1-5.1,1.4-7.8,1.1"/>
		</g>
		<g>
			<path d="M259.9,179.7c-2.1,1.2-4.4,2-6.8,2.2"/>
		</g>
		<g>
			<path d="M260.3,179.4c-1.2,0.7-2.5,1.2-3.8,1.6"/>
		</g>
		<g>
			<path d="M293,176.1c3-1.9,6.3-3.3,9.7-4.2"/>
		</g>
		<g>
			<path d="M292.4,177.3c3.8-1.8,7.8-3.1,11.9-4"/>
		</g>
		<g>
			<path d="M292.4,178.3c4.9-1.9,10-3.5,15.1-4.7"/>
		</g>
		<g>
			<path d="M293,179.5c5.2-2,10.5-3.6,16-5"/>
		</g>
		<g>
			<path d="M295.9,180c5.7-1.7,11.5-3,17.4-3.9"/>
		</g>
		<g>
			<path d="M301.1,180.2c4.8-0.8,9.6-1.3,14.4-1.6"/>
		</g>
		<g>
			<path d="M309.3,178.6c4.2-0.5,8.5-0.6,12.8-0.2"/>
		</g>
		<g>
			<path d="M311.5,177.8c4.9-0.6,9.9-0.4,14.8,0.8"/>
		</g>
		<g>
			<path d="M311,175.1c5.1-0.6,10.3-0.4,15.3,0.6"/>
		</g>
		<g>
			<path d="M305.2,173.5c6.2-0.4,12.4-0.2,18.5,0.7"/>
		</g>
		<g>
			<path d="M304.5,172.3c0.6-0.6,1.5-0.6,2.3-0.6c4.3,0.1,8.7,0.4,13,0.7"/>
		</g>
		<g>
			<path d="M303.6,171.9c5.4-2.1,11.5-2.5,17.1-1"/>
		</g>
		<g>
			<path d="M306.6,170.5c6.2-0.6,12.6-1.1,18.6,0.8"/>
		</g>
		<g>
			<path d="M314,173.6c4.3-0.1,8.6,0.8,12.6,2.4"/>
		</g>
		<g>
			<path d="M318.5,176c3.2,1,6.3,2.1,9.5,3.1"/>
		</g>
		<g>
			<path d="M319.2,173c3.7,0.8,7.2,2.6,10,5.1"/>
		</g>
		<g>
			<path d="M319.8,173.3c2.1,0.9,4.2,2,6.3,3.1c1.3,0.7,2.7,1.6,3.5,2.9"/>
		</g>
		<g>
			<path d="M320.4,171.7c0.9,1.6,2.6,2.6,4.3,3.4c1.5,0.8,2.9,1.5,4.4,2.3"/>
		</g>
		<g>
			<path d="M322.1,172.5c2.5,1.1,4.8,2.9,6.5,5"/>
		</g>
		<g>
			<path d="M320.1,171.8c2.9,1.1,5.6,2.5,8.3,4.1"/>
		</g>
		<g>
			<path d="M320.8,171.8c3.1,1.5,6.2,3.2,9,5.1"/>
		</g>
		<g>
			<path d="M319.8,170.9c2.9,0.7,5.7,1.8,8.3,3.3c1,0.6,2.1,1.3,2.5,2.4"/>
		</g>
		<g>
			<path d="M312.6,174.1c4,1.1,8,2.4,11.9,4"/>
		</g>
		<g>
			<path d="M308.8,176.3c4.1-1.2,8.5-1.4,12.6-0.4"/>
		</g>
		<g>
			<path d="M299.7,172.2c4.1-2.1,9.1-2.5,13.5-1.1"/>
		</g>
		<g>
			<path d="M300.9,172.8c5.3-1.1,10.6-1.6,16-1.6"/>
		</g>
		<g>
			<path d="M312,171.7c4,0.6,7.9,1.4,11.7,2.6"/>
		</g>
		<g>
			<path d="M314.2,177.6c3.6,0,7.2,0.1,10.8,0.1"/>
		</g>
		<g>
			<path d="M302.8,178c0.8-1.1,2.1-1.5,3.4-1.8c2.6-0.5,5.4-0.4,8,0.2"/>
		</g>
		<g>
			<path d="M295,176.3c2.2-2,4.8-3.5,7.7-4.2"/>
		</g>
		<g>
			<path d="M293.3,174.7c4.9-1.5,10-2.6,15.1-3.3"/>
		</g>
		<g>
			<path d="M179.2,107c-19.2,13.9-36.1,31.3-47.5,52.1c-11.4,20.8-16.9,45.1-13.5,68.5c3.2,22.1,14.2,42.6,16.9,64.8
				c0.8,6.6,0.9,13.3,2.5,19.8c1.6,6.5,5,12.9,10.8,16.1c1.2,0.7,2.6,1.3,3.2,2.5c1.1,2-0.3,4.6-2.1,6.1s-4.1,2.5-5.4,4.4
				s-0.9,5.3,1.4,5.8c1.3,0.3,2.6-0.6,3.7-1.4c9.9-7.3,19.8-14.6,29.7-21.9c1.3-0.9,2.6-1.9,3.1-3.4c0.5-1.2,0.4-2.6,0.2-3.9
				c-1.4-14.8-2.9-29.6-4.3-44.4c-0.9-8.9-1.7-18,0.3-26.7c1.4-5.9,4-11.3,5.4-17.2c1.1-4.4,1.4-8.9,2.7-13.2
				c3.8-12.4,14.8-21,24.3-29.9c11.3-10.6,21.1-22.9,29.1-36.2c0.6,6.2-0.2,12.6-2.3,18.5c6.8-8.4,12.6-17.6,17.4-27.4
				c-0.3,7.1-1.3,14.3-3.2,21.2c3.6-4,6.6-8.6,8.9-13.5c3.6-0.4,4.7,4.9,3.6,8.3s-2.6,7.8,0.1,10.1c2.6-5.1,4.5-10.5,5.6-16.1
				c0.9,5.6,1.7,11.3,2.6,16.9c2.6-4.6,4.5-9.6,5.6-14.8c1.5,4.3,2.9,8.5,4.4,12.8c1.5-4.1,2.2-8.4,2-12.8c1.4,4.3,3.9,8.3,7.1,11.5
				c1.9-6.6,2.9-13.4,2.7-20.3c24.6,16.4,30.8,55.1,38.1,72.5c4.1-17.5-0.7-51.9-9.7-67.4c-4.3-7.4-8.6-14.8-13.1-22.1
				c-3.6-5.8-7.3-11.6-12.5-16c-5.8-5-13.1-8-20.2-10.9c-10.3-4.2-20.8-8.4-31.8-9c-14.2-0.8-53.5,9.6-66.2,16"/>
		</g>
	</g>
</g>
<g id="Lager_1_1_">
	<g>
		<path class="st2" d="M22,324.1c4.4,0.4,9.6,0.5,15.4,0.1s10.9-1.3,15.3-2.2c0.2,10-0.3,20-1.5,29.9c89.4-3.4,178.9-3.1,268.2,0.8
			c38.2,1.7,76.3,4,114.4,6.3l-4.6-36c9.1,1.8,18.7,1.5,27.7-1c5.3,54.9,10.6,109.7,15.9,164.5c0.1,0.7,0.1,1.4,0.2,2
			c1.3,13.6,2.8,27.3,7,40.4c-58,18-120.5,7.2-181.2,6.3c-17.4-0.3-34.9,0.3-52.3,0.8c-21.3,0.7-42.5,1.3-63.7,2.3
			c-48.1,2.3-96.6,6.2-144.3-0.5c-3.3-0.5-6.9-1.1-9.4-3.3c-3.4-3.1-3.8-8.3-4-13C19,469.5,16.5,413,19.9,352.6
			C20.5,343,21.1,333.5,22,324.1z"/>
	</g>
	<g>
		<path class="st3" d="M467.7,504.4c-1-20.4-2.3-41.1-8.6-60.5s-18.4-37.8-36.4-47.6c-10.9-5.9-23.2-8.3-35-12.3
			c-9-3-17.8-7-26.5-10.9c-14.4-6.5-29.8-13.9-37.4-27.9c-1.4-2.5-2.5-5.3-4.9-7.1c-3.6-2.7-8.5-1.8-13-1.2
			c-22.4,3.1-45.2-2.3-66.6-9.7c-12.1-4.2-24.2-9-36.9-9.4c-12.8-0.3-26.6,5-32.4,16.3c-2.1,4-3,8.6-5.7,12.3
			c-6.6,8.8-19.6,8.1-30.5,9.1c-31,3-56,23.4-88.2,29.2c-5.5,1-8.8,4.4-12.8,8.2c-4,3.8-5.9,8.5-6,14c-0.5,20-2.5,37.5-3,57.5
			c-0.3,12.9-0.3,26.8,7.1,37.3c5.5,7.9,14.5,12.8,23.5,16.3c26.9,10.5,56.4,11.4,85.2,12.2c58.7,1.7,117.4,3.3,176,5
			c37,1,74.3,2.1,110.6-4.7c10.7-2,22.1-5.2,28.6-13.9c3.6-4.9,7-12,13-11.1"/>
	</g>
	<g>
		<path class="st4" d="M206.1,330.6c-3.1-2.9-6.1-5.8-9-8.9c-3-3.2-5.9-6.5-7.8-10.4c-2-4-3-8.5-3.8-12.9
			c-1.8-10.2-2.7-20.5-2.8-30.9c1.8,2,3,4.4,3.4,7c0.2,1.1,0.3,2.3,0.9,3.2c0.5,0.8,1.4,1.3,2,1.9c0.9,0.9,1.4,2,2,3.1
			c3.6,6.9,9.2,12.6,15.5,17.2c6.3,4.6,13.2,8.2,20.2,11.7c18.6,9.5,37.7,19.3,58.4,21.4c3.6,0.4,7.2,0.5,10.7-0.3
			c12.5-1.1,24.4-7.5,32.1-17.4c-3.2,4.5-6.4,9.1-9.6,13.6c-1.5,2.1-3,4.3-3.6,6.8c-0.6,2.7,0,5.6-0.1,8.3
			c-0.2,5.4-2.9,10.4-5.5,15.1c-1.9,3.5-3.9,7-5.8,10.5c-0.4,0.8-0.9,1.6-1.6,2.2c-0.9,0.8-7.7,10.8-8.9,11.1c-4.5,1.2-5.4-3.3-10-4
			c-3.8-0.6-4.4-2.7-8-4C250.2,365.9,225.5,348.4,206.1,330.6z"/>
	</g>
	<g>
		<g>
			<path class="st5" d="M308.8,500.8c2.5-33-3.5-66.8-8.5-99.3c-0.9-6-1.2-13.1-5.2-18.1c-3.7-4.6-9.8-5.6-15.2-7.4
				c-14.8-4.9-28.5-13.4-41.2-22.3c-14.9-10.4-29.3-21.7-43.9-32.6c-2-1.5-4.5,1.8-2.7,3.5c14.2,12.9,29.6,24.4,46.1,34.3
				c7.8,4.7,15.8,9,23.9,13.1c8,4,17.5,7.1,24.4,13c7.6,6.5,8.3,17.7,9.6,26.9c1.5,9.9,2.5,20,3.2,30c1.4,19.7-0.3,39.9,4.8,59.1
				c0.9,3.4,6.2,2,5.3-1.5c-4.3-16-3.4-32.6-4.1-49c-0.7-15.7-2.6-31.3-5.3-46.8c-1.1-6.5-2.2-13.3-6.3-18.7c-3.7-5-9.3-8-14.7-10.6
				c-13.5-6.5-27-13-39.9-20.7c-15.7-9.4-30.3-20-43.8-32.4c-0.9,1.2-1.8,2.3-2.7,3.5c15.7,11.8,31.2,24,47.5,34.9
				c7.2,4.8,14.6,9.4,22.4,13.1c7.9,3.7,16.1,5.9,24.2,9.1c10,3.9,9.5,17.2,10.9,26.2c1.6,10.1,3.1,20.3,4.3,30.4
				c2.6,20.7,3.5,41.3,4,62.1C306,502.6,308.6,502.5,308.8,500.8L308.8,500.8z"/>
		</g>
	</g>
	<g>
		<g>
			<path class="st5" d="M310.4,499.6c4.7-34.5-10.4-68.2-9.9-102.6c0-3,0.9-6.5-0.2-9.4c-0.5-1.2-1.5-2-2-3.1
				c-0.7-1.7-0.1-2.5,0.4-4.2c1-3.3,2.3-5.4,4.6-7.9c1.6-1.8,3.1-3.7,4.5-5.7c5.6-8.1,12.5-21,9.1-31.2c-1.2,0.5-2.4,1-3.6,1.5
				c2.3,3.4,0,10.1-0.8,13.7c-1.1,4.5-2.4,9.3-4.2,13.7c-2.1,5.1-7.8,7.4-9.8,12.5c-0.9,2.2-0.6,4.1-0.4,6.3c0.3,2.7-0.8,5.2-0.6,8
				c2.1,35.7,9.5,70.8,11.2,106.5c0.1,3,4.8,3.1,4.7,0c-0.5-18.2-3.2-36.4-5.8-54.4c-1.5-10-2.9-20-4-30.1c-0.5-4.5-0.8-9-1.1-13.4
				c-0.2-3.8-1.1-8.4-0.4-12.2c0.5-2.4,0.5-3.3,0.2-5.7c-0.4-4.2,2.1-6.2,4.8-8.8c3.6-3.5,5.2-6.9,6.6-11.6c1.6-5,2.9-10.2,3.7-15.4
				c0.5-3.4,1.3-8.1-0.8-11.1c-1.2-1.7-4.4-0.8-3.6,1.5c1.9,5.5-0.3,12-2.4,17.1c-2.4,5.7-5.7,11.5-10,16c-1.7,1.8-3.2,3.1-4.2,5.4
				c-0.9,2.1-2.4,5.1-2.6,7.3c-0.2,2,0.8,3.2,1.8,4.9c2.1,3.5,1,7.5,1.1,11.5c0.1,33.9,12.7,66.3,10.6,100.5
				C307.3,500.9,310.2,501.4,310.4,499.6L310.4,499.6z"/>
		</g>
	</g>
	<g>
		<path class="st6" d="M177.8,355.3c34.7,14.2,66.2,35.9,91.8,63.3"/>
	</g>
	<g>
		<path class="st6" d="M318.3,414.2c7.4-13.8,14.8-27.5,22.1-41.3"/>
	</g>
</g>
<g id="Lager_2_1_">
	<g>
		<path class="st7" d="M334.7,191.4c0.9,3.4,1.5,6.8,2.5,10.1c2.2,7.8,6.4,15.2,7.4,23.3c0.7,6.1-0.5,12.3-1.9,18.4
			c-3.6,15.9-8.4,31.6-9.9,47.9c-0.5,6.1-0.6,12.4-2.5,18.3c-4,12.7-16.2,21.8-29.2,24.8c-13,3-26.8,0.6-39.4-3.9
			s-24.3-11-36.4-16.7c-7.1-3.4-14.5-6.5-20.9-11.2c-8.9-6.6-15.3-16.3-18.1-27c-4-7.1-6.1-15-7.9-22.9c-3.5-15.3-6.1-30.9-5.2-46.6
			s5.4-31.4,15-43.9c6.9-8.9,16-15.7,25.5-21.8c8.8-5.7,18.3-10.9,28.7-12.3c10.6-1.5,21.4,1.1,31.8,3.6c7.3,1.8,14.7,3.6,21,7.6
			c5.2,3.3,9.4,8,13.5,12.6c10.6,11.8,21.6,24.2,25.8,39.5C334.7,191.3,334.7,191.4,334.7,191.4z"/>
	</g>
	<g>
		<path class="st8" d="M265.6,208.3c-2.6-1.5-5.2-3-7.8-4.6c-2.2-1.3-4.4-2.6-6.9-3.1c-3.7-0.7-7.5,0.4-10.7,2.4
			c-3.2,2-5.8,4.7-8.4,7.4c-1,1-2,2.1-2.5,3.4c2.3,0.5,4.6-0.7,6.7-1.6c3.8-1.6,7.8-2.6,11.8-2.8c6.1-0.4,12.3,0.6,18.3-0.4"/>
	</g>
	<g>
		<path class="st8" d="M295.9,203.6c1.5-1.1,3-2.3,4.5-3.4c2.9-2.2,6-4.5,9.6-4.7c1.6-0.1,3.2,0.3,4.8,0.6c2.7,0.6,5.5,1.2,7.9,2.5
			s4.7,3.3,5.6,5.9c-4.5,0.3-9,0.2-13.4-0.1c-4.6-0.3-9.2-0.9-13.9-1.1c-1.8-0.1-3.6-0.1-5.3,0.5"/>
	</g>
	<g>
		<path class="st2" d="M290.7,336.4c-0.7,1.3-2,2.2-3.4,2c-1.2-0.2-2.2-1-3.3-1.5c-2.1-0.9-4.4-0.4-6.7-0.5
			c-2.1-0.1-4.2-0.8-6.3-1.4c-18.7-6.2-36.9-14.1-54.2-23.6c-7.7-4.2-15.3-8.8-21.3-15.3c-6.2-6.8-10.2-15.5-12.8-24.4
			c-2.5-8.7-3.6-17.7-4.8-26.7c9.5,0.7,19.7,1.8,26.6,8.4c1.3,1.3,2.5,2.8,4.1,3.7c2.3,1.3,5.1,1.2,7.8,1.2c5.2,0,10.4,0.4,15.6,1.2
			c2.9,0.4,5.8,1,8.2,2.7c3.2,2.2,5,6,6,9.8c0.9,3.8,1.2,7.8,2.1,11.6c2.4,9.7,9,17.7,15.5,25.3c3.4,4,7,8.1,11.7,10.4
			c2.3,1.1,4.9,1.7,7.1,2.9c3.5,1.8,6.4,5,7.8,8.7c0.6,1.6,1,3.3,0.5,4.9C290.9,335.9,290.8,336.1,290.7,336.4z"/>
	</g>
	<g>
		<path class="st2" d="M303.1,321.1c1.3,4.4-0.6,9.5-4.4,12.1"/>
	</g>
</g>
<g id="fejs">
	<g>
		<path class="st9" d="M298.8,276.2c-4.4,0-8.8,0.4-13.1,1.3c-4.4,0.9-9,2.2-13.1,0.6c-0.7-0.3-1.5-0.8-1.6-1.5
			c-0.1-0.6,0.4-1.2,0.8-1.7c2.4-2.7,5.3-4.9,8.5-6.5c1.5-0.7,3-1.3,4.2-2.3c2.7-2.2,4-6.5,8.7-5.1c2.3-0.6,4.9,0.1,7.3,1
			c3.4,1.2,6.9,2.4,10.3,3.6c1.9,0.7,3.9,1.4,5.5,2.6s2.9,3,3,5.1c0,0.6-0.1,1.2-0.4,1.6c-0.3,0.3-0.6,0.5-1,0.7
			c-4.8,2-10.3,1.1-15.5,0.8C301.1,276.3,299.9,276.2,298.8,276.2z"/>
	</g>
	<g>
		<path class="st2" d="M294.9,184.6c-2.3,2.5-2.7,6.3-1.9,9.6s2.8,6.2,4.6,9.1c2.6,3.9,5.2,7.8,7.8,11.8c2.6,4,5.3,8.1,6.9,12.6
			s2,9.7,0,14.1c-0.4,0.8-0.9,1.7-1.6,2.3c-0.9,0.7-2,1-3.1,1.2c-8.5,1.8-17.5,1.8-26,0c-1.5-0.3-3.1-0.7-4.5-1.5
			c-3-1.7-4.8-5.1-4.5-8.5c0.3-3.4,2.7-6.5,5.8-7.6"/>
	</g>
	<g>
		<path class="st9" d="M310.3,237.9c-1.4,0.6-2.3,2-2.4,3.5c0,0.3,0,0.6,0.3,0.7c0.4,0.2,0.8-0.2,1-0.6c0.8-1.3,1.6-3.2,0.4-4.3"/>
	</g>
	<g>
		<path class="st9" d="M283.7,242.2c0-1.1,0.8-2.1,1.8-2.7s2.1-0.8,3.2-1c3.5-0.6,7.5-0.7,10,1.8c0.5,0.5,0.9,1.6,0.2,1.9
			c-0.2,0.1-0.4,0.1-0.6,0.1c-2.9,0-5.8-0.1-8.7-0.1c-1.3,0-2.6,0-4-0.1c-0.5,0-1.1-0.3-0.8-0.7"/>
	</g>
	<g>
		<path class="st10" d="M318,269c-2.1-3.1-3-6-6-8.3c-1.6-1.3-3.5-2.6-5.6-2.2c-1.3,0.2-2.3,1-3.6,1.3c-3.1,0.8-6.2-1.7-9.4-1.5
			c-3.5,0.3-5.9,3.6-8.7,5.7c-2.2,1.6-4.8,2.6-7.1,4c-3,1.9-5,4.8-6.7,7.9c4.5,0.9,8.4-2.1,12.5-4.2c9.7-5,22.1-6.9,31.3-1
			c2.4,1.5,1.4,4.6,4.2,4.3C320,273,319.1,270.6,318,269z"/>
	</g>
	<g>
		<path class="st11" d="M271,276c1.6,2,3,2.2,5.4,1.3c5.8-2.2,11.7-4.4,17.9-5.2c5.1-0.6,10.4-0.2,15.4,1.2c1.1,0.3,2.3,0.7,3.5,0.7
			c1.1,0,2.1-0.3,3.2-0.2c1.1,0,2.2,0.5,2.6,1.5c0.6,1.4-1,2.7-2.3,3.4c-12.8,6-27.6,4.8-41.4,2c-2.1-0.5-4.2-1.5-4.1-3.7"/>
	</g>
</g>
<g id="ögonbryn">
	<g>
		<g>
			<path class="st0" d="M268.4,186.8c-3.5,1-7,1.7-10.4,2.8c-0.8,0.2-0.5,1.4,0.3,1.2c3.5-0.9,6.8-2.3,10.2-3.6
				C268.8,187.1,268.7,186.7,268.4,186.8L268.4,186.8z"/>
		</g>
	</g>
	<g>
		<g>
			<path class="st0" d="M269,188.5c-2,0.9-4,1.6-6.1,2.3c-0.6,0.2-0.4,1.1,0.3,0.9c2.2-0.6,4.3-1.5,6.3-2.5
				C269.9,189,269.5,188.3,269,188.5L269,188.5z"/>
		</g>
	</g>
	<g>
		<g>
			<path class="st0" d="M265.7,188.9c-4.3,1.3-8.6,2.3-12.9,3.5c-0.7,0.2-0.4,1.3,0.3,1.1c4.3-0.9,8.6-2.4,12.8-3.8
				C266.4,189.5,266.2,188.7,265.7,188.9L265.7,188.9z"/>
		</g>
	</g>
	<g>
		<g>
			<path class="st0" d="M262.6,188c-4.1,1.4-8.4,2.6-12.6,3.6c-0.8,0.2-0.4,1.4,0.3,1.2c4.3-1,8.4-2.3,12.6-3.9
				C263.4,188.7,263.2,187.8,262.6,188L262.6,188z"/>
		</g>
	</g>
	<g>
		<g>
			<path class="st0" d="M264.4,183.8c-3.6,0.7-7.3,1.2-10.9,2c-0.8,0.2-0.4,1.3,0.3,1.2c3.6-0.5,7.2-1.4,10.8-2.2
				C265.3,184.6,265,183.7,264.4,183.8L264.4,183.8z"/>
		</g>
	</g>
	<g>
		<g>
			<path class="st0" d="M267.4,185.4c-5,0-9.8,1.3-14.3,3.3c-0.7,0.3-0.2,1.6,0.5,1.3c4.5-1.8,9.1-2.8,13.9-3.6
				C268,186.2,267.9,185.4,267.4,185.4L267.4,185.4z"/>
		</g>
	</g>
	<g>
		<g>
			<path class="st0" d="M265.9,184.4c-4.8,1.7-9.6,3.3-14.4,5.1c-0.7,0.3-0.4,1.3,0.3,1.1c4.9-1.4,9.7-3.2,14.4-5
				C267,185.4,266.7,184.2,265.9,184.4L265.9,184.4z"/>
		</g>
	</g>
	<g>
		<g>
			<path class="st0" d="M273.8,186.6c-3.4,1.9-7.3,2.8-11.1,3.7c-0.8,0.2-0.4,1.2,0.3,1.1c4.1-0.6,7.5-2.4,11-4.5
				C274.3,186.8,274,186.4,273.8,186.6L273.8,186.6z"/>
		</g>
	</g>
	<g>
		<g>
			<path class="st0" d="M271.6,187c-3.1,1.2-6.2,1.8-9.4,2.2c-0.6,0.1-0.7,1.1,0,1c3.4-0.1,6.7-1.1,9.8-2.4
				C272.4,187.6,272,186.8,271.6,187L271.6,187z"/>
		</g>
	</g>
	<g>
		<g>
			<path class="st0" d="M268.1,183.8c-5.4,1.8-10.9,3.6-16.2,5.6c-0.8,0.3-0.5,1.5,0.3,1.3c5.5-1.7,10.8-3.8,16.2-5.7
				C269.2,184.7,268.9,183.6,268.1,183.8L268.1,183.8z"/>
		</g>
	</g>
	<g>
		<g>
			<path class="st0" d="M255.9,185c-4.3,1.2-8.6,2.3-12.8,3.9c-0.8,0.3-0.5,1.6,0.4,1.4c4.3-1.1,8.5-2.7,12.7-4.1
				C256.9,185.9,256.6,184.8,255.9,185L255.9,185z"/>
		</g>
	</g>
	<g>
		<g>
			<path class="st0" d="M249.8,185.8c-4.4,1.3-8.8,2.6-13.1,4.2c-0.8,0.3-0.4,1.5,0.3,1.3c4.4-1.5,8.7-3,13.1-4.4
				C250.7,186.6,250.5,185.6,249.8,185.8L249.8,185.8z"/>
		</g>
	</g>
	<g>
		<g>
			<path class="st0" d="M252.5,186.9c-4.3,1.2-8.7,2.3-13,3.8c-0.8,0.3-0.5,1.5,0.4,1.3c4.4-1.2,8.6-2.7,12.9-4.1
				C253.4,187.7,253.2,186.7,252.5,186.9L252.5,186.9z"/>
		</g>
	</g>
	<g>
		<g>
			<path class="st0" d="M254.1,188.8c-3.2,0.7-6.4,1.2-9.6,2c-0.9,0.2-0.5,1.5,0.4,1.3c3.2-0.5,6.4-1.4,9.5-2.3
				C255.1,189.6,254.8,188.6,254.1,188.8L254.1,188.8z"/>
		</g>
	</g>
	<g>
		<g>
			<path class="st0" d="M252.4,189.6c-4.4,2.2-9.1,3.5-13.8,5.1c-0.8,0.3-0.5,1.4,0.3,1.2c4.9-1.1,9.4-3.3,13.8-5.7
				C253.1,189.9,252.7,189.4,252.4,189.6L252.4,189.6z"/>
		</g>
	</g>
	<g>
		<g>
			<path class="st0" d="M250.3,191.5c-3.2,1.3-6.5,2.4-9.8,3.4c-0.8,0.3-0.5,1.6,0.4,1.3c3.4-1,6.6-2.2,9.9-3.6
				C251.4,192.4,251,191.3,250.3,191.5L250.3,191.5z"/>
		</g>
	</g>
	<g>
		<g>
			<path class="st0" d="M247,192.3c-3.3,1.5-6.7,2.7-10.1,4c-0.7,0.3-0.4,1.4,0.3,1.1c3.6-1,7-2.6,10.4-4.2
				C248.1,192.9,247.6,192,247,192.3L247,192.3z"/>
		</g>
	</g>
	<g>
		<g>
			<path class="st0" d="M239.9,193c-2.8,1.4-5.7,2.4-8.5,3.7c-0.6,0.3-0.2,1.3,0.4,1.1c3-0.9,5.8-2.4,8.6-3.8
				C241.2,193.6,240.6,192.7,239.9,193L239.9,193z"/>
		</g>
	</g>
	<g>
		<g>
			<path class="st0" d="M237.5,192.9c-3.3,1.4-6.6,2.8-9.7,4.7c-0.8,0.4-0.1,1.6,0.7,1.2c3.1-1.8,6.2-3.7,9.4-5.2
				C238.4,193.3,238,192.7,237.5,192.9L237.5,192.9z"/>
		</g>
	</g>
	<g>
		<g>
			<path class="st0" d="M236.9,191.1c-3.4,1.8-7.1,3.5-10.1,6c-0.6,0.5,0.2,1.4,0.8,1.1c3.4-1.9,6.4-4.3,9.8-6.2
				C238,191.7,237.5,190.8,236.9,191.1L236.9,191.1z"/>
		</g>
	</g>
	<g>
		<g>
			<path class="st0" d="M238.7,188.8c-4.5,2.1-8.7,4.7-12.2,8.1c-0.6,0.6,0.3,1.6,1,1c3.7-3.1,7.5-5.9,11.8-8.1
				C239.9,189.4,239.3,188.5,238.7,188.8L238.7,188.8z"/>
		</g>
	</g>
	<g>
		<g>
			<path class="st0" d="M229.9,194.5c-2,1.8-4.1,3.3-6.1,5c-0.5,0.4,0.2,1.4,0.7,1c2.2-1.5,4.2-3.3,6.2-5.1
				C231.3,194.8,230.5,194,229.9,194.5L229.9,194.5z"/>
		</g>
	</g>
	<g>
		<g>
			<path class="st0" d="M232,195.9c-1.9,1.9-4.2,3.3-6.7,4.3c-0.8,0.3-0.5,1.6,0.4,1.4c2.8-0.9,5.1-2.7,7.1-4.8
				C233.3,196.1,232.5,195.4,232,195.9L232,195.9z"/>
		</g>
	</g>
	<g>
		<g>
			<path class="st0" d="M233.2,195.8c-2.1,2-4.4,3.6-6.8,5.2c-0.7,0.5-0.1,1.5,0.6,1.1c2.6-1.3,4.9-3.5,6.9-5.6
				C234.4,196.1,233.7,195.4,233.2,195.8L233.2,195.8z"/>
		</g>
	</g>
	<g>
		<g>
			<path class="st0" d="M243.8,191.6c-0.1,0.4-3.4,1.1-3.9,1.2c-1.3,0.4-2.7,0.7-4,1.1c-0.8,0.3-0.5,1.4,0.4,1.3
				c1.6-0.3,3.2-0.8,4.8-1.4c1.1-0.4,2.6-0.8,3.5-1.6c0.1-0.1,0.2-0.3,0.1-0.4c0-0.1-0.1-0.1-0.1-0.2
				C244.4,191.2,243.9,191.1,243.8,191.6L243.8,191.6z"/>
		</g>
	</g>
	<g>
		<g>
			<path class="st0" d="M245,190.3c-3.9,1.9-8.1,3.8-11.7,6.1c-0.7,0.4-0.1,1.4,0.6,1.1c3.9-1.9,7.7-4.4,11.3-6.8
				C245.5,190.5,245.3,190.1,245,190.3L245,190.3z"/>
		</g>
	</g>
	<g>
		<g>
			<path class="st0" d="M237,195.4c-3,1.8-6,3.7-9,5.6c-0.6,0.4-0.1,1.4,0.6,1c3-1.8,6-3.8,8.9-5.7C238.2,196,237.6,195.1,237,195.4
				L237,195.4z"/>
		</g>
	</g>
	<g>
		<g>
			<path class="st0" d="M229.7,198.6c-1.8,1.9-4,3.3-6.3,4.4c-0.6,0.3-0.2,1.3,0.5,1.1c2.6-1,4.8-2.7,6.6-4.8
				C230.9,198.9,230.2,198.1,229.7,198.6L229.7,198.6z"/>
		</g>
	</g>
	<g>
		<g>
			<path class="st0" d="M233.1,192.9c-2.1,1.2-4.2,2.4-6.2,3.6c-0.7,0.4-0.1,1.6,0.6,1.1c2-1.3,4-2.7,5.9-4.1
				C233.9,193.3,233.6,192.6,233.1,192.9L233.1,192.9z"/>
		</g>
	</g>
	<g>
		<g>
			<path class="st0" d="M271,185.6c-3.5,1.8-7.2,2.8-11,3.5c-0.7,0.1-0.5,1.3,0.2,1.2c4-0.4,7.8-1.9,11.2-4.1
				C271.8,185.9,271.4,185.4,271,185.6L271,185.6z"/>
		</g>
	</g>
	<g>
		<g>
			<path class="st0" d="M268.8,190.4c-2.4,1.1-5,1.6-7.7,1.6c-0.8,0-0.8,1.2,0,1.2c2.9,0,5.6-0.6,8.2-1.9
				C269.8,191,269.3,190.1,268.8,190.4L268.8,190.4z"/>
		</g>
	</g>
	<g>
		<g>
			<path class="st0" d="M262.7,191.4c-2.4,0.3-4.8,0.7-7.2,1.4c-0.6,0.2-0.4,1.2,0.3,1c2.2-0.7,4.5-1.2,6.9-1.5
				C263.2,192.2,263.3,191.3,262.7,191.4L262.7,191.4z"/>
		</g>
	</g>
	<g>
		<g>
			<path class="st0" d="M254.1,192.1c-2.9,0.8-5.9,1.3-8.9,1.5c-0.8,0.1-0.8,1.3,0,1.2c3.1-0.2,6.1-0.8,9.1-1.7
				C255,192.9,254.7,192,254.1,192.1L254.1,192.1z"/>
		</g>
	</g>
	<g>
		<g>
			<path class="st0" d="M252.7,192.9c-2.5,0.9-5,1.2-7.6,1c-0.8-0.1-0.8,1.2,0,1.3c2.8,0.2,5.4-0.3,7.9-1.3
				C253.6,193.6,253.3,192.7,252.7,192.9L252.7,192.9z"/>
		</g>
	</g>
	<g>
		<g>
			<path class="st0" d="M272.2,188.3c-2,1.1-4.3,1.7-6.6,1.9c-0.7,0.1-0.8,1.2,0,1.2c2.6-0.2,4.9-1,7-2.4
				C273,188.7,272.6,188.1,272.2,188.3L272.2,188.3z"/>
		</g>
	</g>
	<g>
		<g>
			<path class="st0" d="M272.5,187.9c-1.2,0.6-2.4,1.1-3.7,1.5c-0.6,0.2-0.4,1.2,0.3,1c1.4-0.4,2.7-0.9,3.9-1.6
				C273.6,188.4,273.1,187.6,272.5,187.9L272.5,187.9z"/>
		</g>
	</g>
	<g>
		<g>
			<path class="st0" d="M305.6,185.4c3.3-1.3,6.4-2.9,9.7-4c0.6-0.2,0.4-1.1-0.3-0.9c-3.3,0.7-7.1,2.2-9.8,4.4
				C305.1,185.1,305.3,185.5,305.6,185.4L305.6,185.4z"/>
		</g>
	</g>
	<g>
		<g>
			<path class="st0" d="M305,186.4c3.8-1.6,8-2.8,12-3.7c0.7-0.2,0.4-1.3-0.3-1.1c-4.2,0.9-8,2.4-11.9,4.4
				C304.5,186.1,304.7,186.6,305,186.4L305,186.4z"/>
		</g>
	</g>
	<g>
		<g>
			<path class="st0" d="M305,187.7c5-1.8,10.1-3.1,15.2-4.6c0.7-0.2,0.4-1.3-0.3-1.1c-5.2,1.1-10.2,2.9-15.1,4.9
				C304.3,187,304.5,187.9,305,187.7L305,187.7z"/>
		</g>
	</g>
	<g>
		<g>
			<path class="st0" d="M305.7,189.1c5.2-1.9,10.6-3.5,16-5c0.8-0.2,0.5-1.5-0.4-1.3c-5.5,1.3-10.7,3-16,5
				C304.5,188.1,304.9,189.4,305.7,189.1L305.7,189.1z"/>
		</g>
	</g>
	<g>
		<g>
			<path class="st0" d="M308.5,189.5c5.8-1.6,11.6-2.6,17.4-3.9c0.7-0.1,0.5-1.3-0.2-1.3c-6,0.6-11.9,2.2-17.6,4
				C307.5,188.5,307.8,189.7,308.5,189.5L308.5,189.5z"/>
		</g>
	</g>
	<g>
		<g>
			<path class="st0" d="M313.7,189.7c4.8-0.6,9.6-0.9,14.4-1.6c0.7-0.1,0.5-1.3-0.2-1.3c-4.9,0-9.8,0.8-14.5,1.6
				C312.6,188.7,312.9,189.8,313.7,189.7L313.7,189.7z"/>
		</g>
	</g>
	<g>
		<g>
			<path class="st0" d="M321.8,188.3c4.3-0.5,8.5-0.4,12.8-0.3c0.9,0,0.9-1.3,0-1.4c-4.3-0.5-8.5-0.3-12.8,0.2
				C320.9,186.9,320.9,188.4,321.8,188.3L321.8,188.3z"/>
		</g>
	</g>
	<g>
		<g>
			<path class="st0" d="M324,187.4c4.9-0.5,9.7-0.2,14.6,0.7c0.8,0.1,1.1-1,0.3-1.2c-4.9-1.4-9.9-1.6-14.9-0.9
				C323.1,186.1,323,187.5,324,187.4L324,187.4z"/>
		</g>
	</g>
	<g>
		<g>
			<path class="st0" d="M323.4,184.8c5.1-0.4,10.1-0.2,15.1,0.5c0.9,0.1,1.3-1.2,0.4-1.4c-5.1-1.1-10.3-1.3-15.5-0.7
				C322.5,183.4,322.5,184.9,323.4,184.8L323.4,184.8z"/>
		</g>
	</g>
	<g>
		<g>
			<path class="st0" d="M317.7,183.1c6.3-0.3,12.3,0.3,18.5,0.7c0.8,0.1,1-1.3,0.2-1.4c-6.1-1.2-12.5-1.1-18.7-0.7
				C316.8,181.8,316.8,183.1,317.7,183.1L317.7,183.1z"/>
		</g>
	</g>
	<g>
		<g>
			<path class="st0" d="M317.3,181.8c2-1.1,5.7-0.2,7.9-0.1c2.4,0.1,4.7,0.3,7.1,0.4c1,0.1,0.9-1.4,0-1.5c-3.1-0.3-6.3-0.5-9.5-0.6
				c-2.1-0.1-4.4-0.6-6.2,0.6C315.9,181.1,316.5,182.2,317.3,181.8L317.3,181.8z"/>
		</g>
	</g>
	<g>
		<g>
			<path class="st0" d="M316.2,181.4c5.6-1.8,11-2.1,16.8-0.9c0.9,0.2,1.3-1.1,0.4-1.4c-5.8-1.5-12-1.2-17.5,1.1
				C315.2,180.6,315.5,181.7,316.2,181.4L316.2,181.4z"/>
		</g>
	</g>
	<g>
		<g>
			<path class="st0" d="M319.1,180c6.2-0.5,12.4-0.6,18.4,0.9c0.9,0.2,1.2-1.1,0.4-1.4c-6.2-2.1-12.4-1.4-18.8-0.7
				C318.4,179,318.4,180.1,319.1,180L319.1,180z"/>
		</g>
	</g>
	<g>
		<g>
			<path class="st0" d="M326.5,183c4.3,0.2,8.3,1.3,12.5,2.5c0.7,0.2,1.1-0.8,0.5-1.2c-4-2-8.5-2.6-13-2.3
				C325.9,182.1,325.9,183,326.5,183L326.5,183z"/>
		</g>
	</g>
	<g>
		<g>
			<path class="st0" d="M330.8,185.7c3.1,1.1,6.3,2.3,9.5,3c0.7,0.1,1.2-0.9,0.5-1.2c-3.1-1.4-6.4-2.3-9.6-3.3
				C330.3,183.9,329.9,185.4,330.8,185.7L330.8,185.7z"/>
		</g>
	</g>
	<g>
		<g>
			<path class="st0" d="M331.5,182.7c3.7,0.9,6.8,2.7,9.8,5c0.7,0.5,1.4-0.6,0.9-1.1c-2.8-2.8-6.5-4.5-10.3-5.3
				C331,181,330.5,182.5,331.5,182.7L331.5,182.7z"/>
		</g>
	</g>
	<g>
		<g>
			<path class="st0" d="M331.9,182.9c3.2,1.5,7.4,3,9.6,5.8c0.5,0.6,1.5-0.2,1-0.8c-2.1-3.3-6.7-4.9-10.1-6.3
				C331.7,181.3,331.2,182.5,331.9,182.9L331.9,182.9z"/>
		</g>
	</g>
	<g>
		<g>
			<path class="st0" d="M332.4,180.9c0.8,1.5,1.9,2.5,3.4,3.4c1.7,1,3.6,2.1,5.4,2.8c0.8,0.3,1.2-0.9,0.6-1.3
				c-2.6-1.8-6.6-2.6-8.5-5.3C332.9,179.9,332.1,180.3,332.4,180.9L332.4,180.9z"/>
		</g>
	</g>
	<g>
		<g>
			<path class="st0" d="M334.5,181.6c1,1,2.2,1.6,3.2,2.4c1.1,0.9,2,1.9,3,2.9c0.5,0.5,1.4-0.1,1-0.8c-1.4-2.2-4.4-4.7-7.1-4.9
				C334.4,181.2,334.3,181.4,334.5,181.6L334.5,181.6z"/>
		</g>
	</g>
	<g>
		<g>
			<path class="st0" d="M332.3,181.3c2.9,1.2,5.5,2.8,8.3,4.1c0.8,0.4,1.3-0.6,0.6-1.1c-2.5-1.9-5.5-3.1-8.4-4.2
				C332.1,179.8,331.5,181,332.3,181.3L332.3,181.3z"/>
		</g>
	</g>
	<g>
		<g>
			<path class="st0" d="M333,181.3c3.1,1.6,6.1,3.4,9,5.2c0.8,0.5,1.4-0.7,0.7-1.2c-2.8-2.1-5.9-3.7-9-5.1
				C332.9,179.8,332.3,180.9,333,181.3L333,181.3z"/>
		</g>
	</g>
	<g>
		<g>
			<path class="st0" d="M332.1,180.6c2,0.6,3.9,1.3,5.8,2.1c1.7,0.8,3.7,1.6,4.6,3.2c0.4,0.6,1.5,0.2,1.2-0.5
				c-0.7-1.8-2.3-2.7-4-3.5c-2.3-1.1-4.7-2-7.2-2.6C331.6,179,331.3,180.3,332.1,180.6L332.1,180.6z"/>
		</g>
	</g>
	<g>
		<g>
			<path class="st0" d="M324.9,183.7c4,1.1,7.9,2.6,11.9,4c0.7,0.2,1.2-0.9,0.5-1.2c-3.8-1.8-7.9-3-12-4.1
				C324.4,182.2,324.1,183.4,324.9,183.7L324.9,183.7z"/>
		</g>
	</g>
	<g>
		<g>
			<path class="st0" d="M321.5,185.9c4.2-1.1,8.1-1,12.4-0.4c0.8,0.1,0.9-1.1,0.2-1.3c-4.2-1.3-8.8-0.9-13,0.3
				C320.2,184.8,320.6,186.1,321.5,185.9L321.5,185.9z"/>
		</g>
	</g>
	<g>
		<g>
			<path class="st0" d="M312.5,181.7c4.2-1.9,8.6-2.2,13.1-1c0.8,0.2,1.1-1,0.3-1.2c-4.8-1.5-9.6-1-14,1.2
				C311.2,180.9,311.8,182,312.5,181.7L312.5,181.7z"/>
		</g>
	</g>
	<g>
		<g>
			<path class="st0" d="M313.5,182.4c5.2-1,10.5-1.5,15.8-1.6c0.9,0,0.9-1.3,0-1.3c-5.5,0-10.8,0.5-16.2,1.6
				C312.3,181.2,312.7,182.5,313.5,182.4L313.5,182.4z"/>
		</g>
	</g>
	<g>
		<g>
			<path class="st0" d="M324.3,181.4c4,0.6,7.8,1.6,11.7,2.6c0.8,0.2,1.1-1,0.4-1.3c-3.8-1.3-7.7-2.1-11.6-2.7
				C323.8,179.8,323.4,181.2,324.3,181.4L324.3,181.4z"/>
		</g>
	</g>
	<g>
		<g>
			<path class="st0" d="M326.7,187.3c3.6,0.1,7.2,0.4,10.8,0c0.8-0.1,0.8-1.2,0-1.3c-3.5-0.5-7.2-0.3-10.8-0.3
				C325.7,185.8,325.7,187.3,326.7,187.3L326.7,187.3z"/>
		</g>
	</g>
	<g>
		<g>
			<path class="st0" d="M315.6,187.3c2.5-2.7,7.7-1.8,10.9-1.3c0.8,0.1,1.1-0.9,0.3-1.2c-3.5-1.1-9.4-1.3-12,1.8
				C314.5,187.1,315.2,187.8,315.6,187.3L315.6,187.3z"/>
		</g>
	</g>
	<g>
		<g>
			<path class="st0" d="M307.9,185.7c2.1-1.9,4.6-3.3,7.4-4.1c0.8-0.2,0.5-1.4-0.3-1.2c-3,0.7-5.7,2.2-8,4.3
				C306.4,185.3,307.3,186.3,307.9,185.7L307.9,185.7z"/>
		</g>
	</g>
	<g>
		<g>
			<path class="st0" d="M306,184.4c5-1.5,10-2.4,15.1-3.4c0.7-0.1,0.5-1.3-0.2-1.3c-5.2,0.4-10.4,1.6-15.4,3.1
				C304.6,183.2,305,184.6,306,184.4L306,184.4z"/>
		</g>
	</g>
</g>
<g id="hår">
	<g>
		<path class="st12" d="M191.7,115.9c-19.2,13.9-36.1,31.3-47.5,52.1s-16.9,45.1-13.5,68.5c3.2,22.1,14.2,42.6,16.9,64.8
			c0.8,6.6,0.9,13.3,2.5,19.8c1.6,6.5,5,12.9,10.8,16.1c1.2,0.7,2.6,1.3,3.2,2.5c1.1,2-0.3,4.6-2.1,6.1s-4.1,2.5-5.4,4.4
			c-1.3,1.9-0.9,5.3,1.4,5.8c1.3,0.3,2.6-0.6,3.7-1.4c9.9-7.3,19.8-14.6,29.7-21.9c1.3-0.9,2.6-1.9,3.1-3.4c0.5-1.2,0.4-2.6,0.2-3.9
			c-1.4-14.8-2.9-29.6-4.3-44.4c-0.9-8.9-1.7-18,0.3-26.7c1.4-5.9,4-11.3,5.4-17.2c1.1-4.4,1.4-8.9,2.7-13.2
			c3.8-12.4,14.8-21,24.3-29.9c11.3-10.6,21.1-22.9,29.1-36.2c0.6,6.2-0.2,12.6-2.3,18.5c6.8-8.4,12.7-17.6,17.4-27.4
			c-0.3,7.1-1.3,14.3-3.2,21.2c3.6-4,6.6-8.6,8.9-13.5c3.6-0.4,4.7,4.9,3.6,8.3s-2.6,7.8,0.1,10.1c2.6-5.1,4.5-10.5,5.6-16.1
			c0.9,5.6,1.7,11.3,2.6,16.9c2.6-4.6,4.5-9.6,5.6-14.8c1.5,4.3,2.9,8.5,4.4,12.8c1.5-4.1,2.2-8.4,2-12.8c1.4,4.3,3.9,8.3,7.1,11.5
			c1.9-6.6,2.9-13.4,2.7-20.3c24.6,16.4,30.8,55.1,38.1,72.5c4.1-17.5-0.7-51.9-9.7-67.4c-4.3-7.4-8.6-14.8-13.1-22.1
			c-3.6-5.8-7.3-11.6-12.5-16.1c-5.8-5-13.1-8-20.2-10.9c-10.3-4.2-20.8-8.4-31.8-9c-14.2-0.8-53.5,9.6-66.2,16"/>
	</g>
</g>
<g id="ram">
	<g>
		<path class="st13" d="M20.3,197V21.8c0,0,0-0.3,0-0.6h175.2"/>
		<path class="st13" d="M19,296.9V472c0,0,0,4,0,8c1.3,0,2.7,0,2.7,0h175.2"/>
		<path class="st13" d="M479,304.6v175.2c0,0,0,0.3,0,0.6H303.9"/>
		<path class="st13" d="M479,204.4V29.3c0,0,0-4,0-8c-4.2,0-8.5,0-8.5,0H295.4"/>
		<circle class="st13" cx="479" cy="286.9" r="8.4"/>
		<circle class="st13" cx="479.1" cy="265.1" r="8.5"/>
		<circle class="st13" cx="479.1" cy="243.3" r="8.4"/>
		<circle class="st13" cx="479" cy="222" r="8.4"/>
		<circle class="st13" cx="20.3" cy="279.9" r="8.4"/>
		<circle class="st13" cx="20.3" cy="258.1" r="8.5"/>
		<circle class="st13" cx="20.3" cy="236.3" r="8.4"/>
		<circle class="st13" cx="20.3" cy="215.1" r="8.4"/>
	</g>
	<g>
		<polyline class="st13" points="57.5,38.3 40,38.3 40,56.1 		"/>
		<polyline class="st13" points="111.9,38.3 129.4,38.3 129.4,56.1 		"/>
		<polyline class="st13" points="57.5,127.4 40,127.4 40,109.6 		"/>
		<polyline class="st13" points="111.9,127.4 129.4,127.4 129.4,109.6 		"/>
	</g>
	<g class="st14">
		<path d="M67,111.8c1.4,0.8,3.3,0.6,4.7-0.2c1.7-0.9,2.9-2.4,4-4c1.3-1.9,2.5-4.2,2.1-6.4c-0.4-2.2-2.3-3.8-3.8-5.5
			c-3-3.6-4.5-8.2-5.9-12.7c-0.4-1.4-0.9-2.9-1-4.3c-0.1-1.7,0.2-3.4,0.4-5.1c0.2-2.1,0.2-4.3,0-6.4c-0.2-1.3-0.5-2.8-1.5-3.6
			c-0.8-0.7-2-0.8-3-0.9c-1.7-0.1-3.4-0.3-5.1-0.4c1.4-1.3,3.2-2.2,5.1-2.6c1-0.2,2.1-0.3,3.1-0.8c0.9-0.5,1.6-1.3,2.4-1.8
			c2.3-1.5,5.5-0.5,7.5,1.3c2,1.9,3,4.5,3.9,7.1c1,2.6,2,5.2,3.9,7.1c0.9,0.9,2.1,1.6,3,2.6c2.3,2.4,3.1,6.1,5.8,8
			c0.7,0.5,1.5,0.8,2.2,1.4c0.6,0.5,1.1,1.1,1.6,1.8c2.8,3.6,5.6,7.2,8.4,10.8c0.1,1.1,1.1,1.8,2.1,2.3c2.3,1.3,4.6,2.6,6.9,3.8
			c1.3,0.7,2.8,1.9,2.4,3.3c-0.4-0.2-0.8-0.5-1.2-0.7c0.9,0.4,1.6,1.2,1.9,2.2c0.1,0.2,0.1,0.5,0,0.7c-0.2,0.3-0.6,0.5-0.9,0.5
			c-1.3,0.1-2.4-0.6-3.5-1.3c-2.8-1.7-5.5-3.4-8.2-5.1c-2-1.2-3.9-2.5-5.5-4.2c0.2,0.3,0.2,0.7,0,1.1c-1.6-0.3-2.9-1.6-3.2-3.2
			c-2.4,1.6-5.2,2.8-8,3.5c-0.9,3.7-5.1,5.8-6.5,9.4c1.2,0.2,2.4,0.4,3.6,0.7c0.3,0.7-0.9,1.1-1.7,1c-3.5-0.6-7.1-1.1-10.6-1.6
			c0.2-0.6,1-0.8,1.6-0.8c0.6,0.1,1.2,0.4,1.9,0.5c2.5,0.4,4.5-1.8,6-3.8c0.9-1.2,1.8-2.4,2.7-3.6c-1.6-0.3-3.2,0.9-4.1,2.3
			c-1,1.3-1.6,2.9-2.8,4.1c-1.1,1-2.7,1.8-2.7,3.3c2,0,4.1,0.8,5.6,2.2c-3,0.7-6.1-1.8-9.2-1.2c-1,0.2-2,0.7-3,0.7s-2.2-0.9-1.9-1.9
			C66.6,111.6,66.8,111.7,67,111.8z"/>
	</g>
</g>
</svg>
