<?xml version="1.0" encoding="utf-8"?>
<!-- Generator: Adobe Illustrator 24.0.0, SVG Export Plug-In . SVG Version: 6.00 Build 0)  -->
<svg version="1.1" id="Lager_1" xmlns="http://www.w3.org/2000/svg" xmlns:xlink="http://www.w3.org/1999/xlink" x="0px" y="0px"
	 width="500px" height="500px" viewBox="0 0 500 500" style="enable-background:new 0 0 500 500;" xml:space="preserve">
<style type="text/css">
	.st0{fill:#3E383C;}
	.st1{opacity:0.46;}
	.st2{opacity:0.65;}
	.st3{fill:#16120F;}
	.st4{fill:#281517;}
	.st5{fill:#1C0F11;}
	.st6{fill:#ADAA6A;}
	.st7{fill:#C2917D;}
	.st8{fill:#39261F;}
	.st9{fill:#875350;}
	.st10{fill:#946261;}
	.st11{fill:#7A4A49;}
	.st12{fill:#895C5C;}
	.st13{fill:#9D7668;}
	.st14{fill:#4D201D;}
	.st15{fill:#EDE4E2;}
	.st16{fill:#171511;}
	.st17{opacity:0.7;}
	.st18{fill:#533E35;}
	.st19{fill:#BB9876;}
	.st20{fill:none;stroke:#000000;stroke-width:2;stroke-miterlimit:10;}
</style>
<g id="Lager_1_1_">
	<rect x="-61.5" y="-35.6" class="st0" width="613.8" height="592.2"/>
</g>
<g id="skugga" class="st1">
	<g id="kappa_1_" class="st2">
		<g>
			<path d="M177.3,455.1c0.1,0.1,0.1,0.3,0.2,0.4c5.5,10.1,7.2,21.9,11.9,32.4c1.1,2.4,2.4,4.8,4.7,5.9c1.8,0.9,3.9,0.9,5.9,0.9
				c36.1-0.6,72.9-0.8,108,0c2.5-10.2,5-20.4,7.5-30.6c3.7-15,19.4-31.3,12.8-45.3c-8.6-18.2-17.8-34.8-24.2-52.7
				c-3.7,9.6-11.9,17.9-21.4,22.4c-15,7.1-32.4,6.8-48.9,4.5c-10.7-1.5-21.7-3.9-30.1-10.5c-4.2-3.3-7.6-7.6-11-11.8
				c-4.5-5.7-9.1-11.4-13.6-17.1c-5,10.5-10,21.1-15,31.6c-5.2,11-10.6,23-8.1,34.9C158.9,433.6,170.7,443.2,177.3,455.1z"/>
		</g>
		<g>
			<path d="M8.4,509.4c4.4-27.5,20.1-54.9,45.9-65.4c8.5-3.5,17.7-4.9,26.7-6.8c17.7-3.8,35-9.4,51.5-16.8
				c5.8-2.6,11.5-5.4,16.1-9.8c3.2-3,5.7-6.6,8.1-10.3c9.5-14.9,16.7-31.3,21.3-48.4c4.1,29.4,23.6,56.9,19.3,86.3
				c-12.3-6.3-24.6-12.5-36.9-18.8c20.3,20.2,33.1,47.8,35.4,76.4c17-6.8,36.2-1,54.6-0.5c8.3,0.2,16.5-0.7,24.7-1.6
				c9.4-1,18.8-2.1,28.1-3.1c1.4-0.1,2.8-0.3,3.8-1.3c1-0.9,1.4-2.4,1.7-3.8c4.8-23,9.7-45.9,14.5-68.9
				c-12.1,6.3-22.6,15.8-30.1,27.2c-7.1-18-13.8-39.6-2.9-55.7c2.5-3.7,5.9-6.8,8.2-10.7c5.2-8.6,4.5-19.5,3.4-29.5
				c11,14,6.1,35.2,15,50.6c5.5,9.5,15.6,15.6,26,19.1s21.4,5,32,7.9c16.1,4.4,31.3,12,44.5,22.2c18.1,12.7,34.4,27.9,48.2,45.2
				c2.4,2.9,4.7,6,5.9,9.5c6.3,7,2.5,18-4.8,23.3c-6.6,4.8-15.2,6-23.4,6.6c-48,3.5-95.9-5.5-143.9-8.4c-32.3-2-64.7-1.3-97-1.1
				c-47,0.3-93.9-0.5-140.9-2.5c-19-0.8-38.4-1.9-55.8-9.3"/>
		</g>
		<g>
			<path d="M178.7,353c0.4-0.9,1.6-1.2,2.4-0.8c0.6,0.3,0.9,0.9,1.2,1.4c3.9,7,6.3,14.8,8.6,22.4c6.3,20.5,12.6,41.4,12.4,62.8
				c-2,1.4-4.9-0.4-5.7-2.7s-0.3-4.8-0.1-7.2c0.8-8.7-2.2-17.3-5.1-25.6c-5.6-16.6-10.4-33.4-14.3-50.5"/>
		</g>
		<g>
			<g>
				<path d="M294.5,443.4c-1.8-6.6-4.6-12.8-6.3-19.4c-1.6-6.3-2.5-12.8-1.8-19.3c0.6-6.4,2.6-12.3,6.1-17.6
					c3.5-5.2,7.5-10.1,9.5-16c2.3-6.5,2.5-13.7,1.1-20.5c-0.2-1.1-1.8-0.6-1.6,0.5c0.3,1.6,0.5,3.3,0.5,4.9c0.1,1.6-0.1,3.1-0.3,4.7
					c-0.3,3.2-0.9,6.3-1.9,9.4c-1,3-2.2,5.9-3.8,8.6c-1.7,2.8-3.7,5.2-5.5,7.9c-3.6,5.2-6.1,10.8-6.9,17.2
					c-0.8,6.4-0.2,12.8,1.2,19.1c1.6,7.4,4,14.9,7.3,21.7C292.8,445.7,294.9,444.8,294.5,443.4L294.5,443.4z"/>
			</g>
		</g>
		<g>
			<g>
				<path d="M300.9,350.5c-0.1,3.4,0,6.7-0.5,10c-0.5,3.1-1.1,6.2-2.3,9.2c-2.3,6.1-6.5,10.8-10.1,16.1c-3.6,5.4-6,11.2-6.9,17.7
					s-0.2,13.2,1.2,19.6c1.8,7.7,4.7,15.1,7.6,22.4c0.4,1,1.7,1.5,2.5,0.7c1.1-1.1,2.3-2.3,3.3-3.5c1.2-1.4-0.6-3.2-2-2
					c-1.2,1.1-2.3,2.2-3.4,3.4c0.8,0.2,1.7,0.4,2.5,0.7c-5.1-12.6-10.3-25.8-9-39.7c0.6-6.5,3-12.3,6.6-17.7
					c3.5-5.2,7.4-10.2,9.7-16.1c2.5-6.4,3.8-14.2,1.7-20.9C301.8,349.8,300.9,349.9,300.9,350.5L300.9,350.5z"/>
			</g>
		</g>
		<g>
			<g>
				<path d="M162.1,421.3l-0.1,0.1c0.2-0.1,0.4-0.1,0.6-0.2c0.1,0.1,0.1,0.2,0.2,0.3c-0.1,0.2-0.2,0.4-0.3,0.7l0.1-0.1
					c-0.2,0.1-0.5,0.2-0.7,0.3c0.4-0.1,1.9,1.7,2.2,2c1,1,2,1.9,2.9,2.9c1.8,1.9,3.4,3.9,5,5.9c3.2,4.1,5.9,8.6,8.4,13.2
					c5.3,10.1,8.8,20.9,11.3,32c1.5,6.6,2.5,13.3,3.8,19.9c0.4,2,3.7,1.6,3.6-0.5c-0.6-7.1-1.9-14.1-3.4-21
					c-1.6-6.9-3.5-13.7-6.1-20.3c-4.5-11.6-10.9-22.2-19.6-31.1c-1.3-1.3-2.5-2.5-3.9-3.6c-1-0.8-2.4-2.4-3.8-2.1
					c-1.1,0.2-1.9,1.7-0.9,2.5c0.6,0.5,1.7,0.3,1.7-0.6C163.1,421.2,162.5,420.9,162.1,421.3L162.1,421.3z"/>
			</g>
		</g>
		<g>
			<g>
				<path d="M321.2,417.3c-3.3,9.9-5.5,20.2-7.9,30.3c-2.4,10.2-4.8,20.4-6.9,30.6c-0.6,2.9-1.2,5.8-1.8,8.7
					c-0.6,2.9-1.3,5.8-1.6,8.8c-0.2,2.3,3.2,2.5,3.8,0.5c0.8-2.5,1.2-5.1,1.7-7.7c0.5-2.5,1-5,1.6-7.5c1.1-5.1,2.1-10.2,3.2-15.2
					c2.2-10.1,4.4-20.3,6.7-30.4c1.3-5.8,2.8-11.5,3.8-17.4C324.1,416.3,321.8,415.6,321.2,417.3L321.2,417.3z"/>
			</g>
		</g>
		<g>
			<path d="M197.5,422.5c1.1-0.1,2.1-0.2,3.2-0.3c0.3,0,1.2-0.1,1.4,0c0.6,0.3,0.5,0.9,0.5,1.5c0.4,5.5,0.8,11.8,0.8,17.3
				c-3.3-0.9-7.1-3-9.8-4.6c-0.5-0.3-1.1-0.6-1.7-0.8c-0.7-0.3-1.6-0.6-2.2-1c-1.1-0.7-2.8-1.4-3.9-2.1c0.7-0.5,2-1.5,2.2-2.3
				c0.2-0.6,0.4-1.3,0.9-1.4c0.3,0,0.6,0.1,0.9,0.3c2.4,1.4,4.9,2.7,7.4,4c0.1-3.4,0.3-6.8,0.5-10.2"/>
		</g>
		<g>
			<path d="M288.1,422.6c-1.8,0.7-3.5,1.3-5.3,2c-0.1,0-0.2,0.1-0.3,0.2c-0.1,0.2,0,0.4,0,0.5c2.9,7,5.5,15.1,8.8,21.9
				c1,0.2,2.7-1.9,3.1-2.8c3-6,6.6-12,12-16c-0.9-1.4-2.9-3-4.3-3.9c-3.4,3.2-6.7,6.5-10.1,9.7c-1.1-2.6-2.2-5.1-3.3-7.7
				c-0.5-1.2-1-2.4-1.3-3.6"/>
		</g>
	</g>
	<g id="huvud_1_" class="st2">
		<g>
			<path d="M302.7,358.3c3.4-9.7,1.8-16.8,6.1-26c20.6-44.1,22.7-96.4,13.2-144.8c-2.6-13.3-6.7-27.4-17-35.1
				c-10.4-7.8-24.2-6.8-36.8-5.5c-11.3,1.2-22.7,2.4-34,3.6c-10.3,1.1-21.2,2.4-29.7,8.9c-4,3-7.2,7-10.3,11.1
				c-15.9,21.2-28.8,47.6-26.1,74.9c0.7,6.9,2.4,13.7,2.6,20.7c0.2,5.1-0.5,10.3-0.3,15.4c0.8,19.5,13.4,37.1,12.8,56.6
				c-0.2,5.5-1.4,10.9-1.2,16.3c0.4,10.6,6.2,20.3,13.6,27.1c7.4,6.8,16.4,11.3,25.3,15.6c3.7,1.8,7.5,3.6,11.6,3.5
				c3.2-0.1,6.3-1.5,9.4-2.4c12.4-3.4,26.3,1.8,37.9-4.1C292.3,387.8,299.3,372.8,302.7,358.3"/>
		</g>
		<g>
			<path d="M194.7,351c4.8,6.5,10.6,12.2,17,17.1c4.1,3.1,8.7,5.9,13.7,6.8c4.6,0.9,9.4,0.2,14-0.5c18.5-2.7,38-5.8,52.8-17.1
				c0.5-0.3,0.9-0.7,1-1.3s-0.4-1.2-1-1c0,0-0.4,0.2-1,0.4c-14.2,9.8-32.4,13.2-49.6,11.2c-17.9-2.1-34.9-9.6-50-19.6
				C192.8,348.3,193.7,349.6,194.7,351z"/>
		</g>
	</g>
	<g id="ögon_mun_1_" class="st2">
		<g>
			<path d="M283,312.2c-5.1,1.4-10.4,2.4-15.7,3c-5.3,0.6-10.7,0.8-16,1c-5.2,0.2-10.4,0.4-15.6,0.5c-5.1,0.2-10.7,1.2-15.6,0.1
				c8.4-6.5,19.7-10.8,30.3-10.3c2.3,0.1,4.7,0.4,7,0.2c2.1-0.2,4.2-0.9,6.4-1.1c7-0.9,13.8,2.5,20.1,5.7"/>
		</g>
		<g>
			<path d="M280,313c-2,9.4-11.6,15.3-21,17c-5.5,1-11.3,1-16.8-0.1c-7.9-1.6-19.4-5.8-21.6-13.6c0,0.8,4.3,0.6,5.1,0.5
				c8.6-0.5,17.1-1,25.7-1.5c5.4-0.3,10.9-0.6,16.3-1.2c4.6-0.5,9.2-1.3,13.8-2"/>
		</g>
		<g>
			<g>
				<path d="M282.7,311.3c0.5,0,0.5-0.7,0-0.7C282.2,310.5,282.2,311.3,282.7,311.3L282.7,311.3z"/>
			</g>
		</g>
		<g>
			<g>
				<path d="M283.9,311.2c-3.8-2.1-8.1-3.9-12.4-4.9c-2.1-0.5-4.2-0.7-6.3-0.6c-2.2,0.1-4.3,0.7-6.5,1c-4.8,0.7-9.6-0.1-14.4,0.3
					c-4.1,0.3-8.1,1.1-12,2.6c-4.3,1.6-8.2,3.9-11.8,6.7c-0.3,0.2,0.1,0.6,0.4,0.4c6.5-5.1,14.5-8.3,22.8-8.9
					c4.4-0.4,8.7,0.2,13-0.1c2.1-0.1,4.2-0.7,6.4-1c2.3-0.3,4.7-0.3,7,0.1c4.9,0.9,9.2,3.1,13.7,4.9
					C284,311.8,284.2,311.3,283.9,311.2L283.9,311.2z"/>
			</g>
		</g>
		<g>
			<g>
				<path d="M220.4,316.4c0.8,4,4.7,6.7,7.9,8.7c1.8,1.1,3.6,2.2,5.5,3c2.3,0.9,4.8,1.6,7.2,2.1c5.6,1.4,11.4,1.4,17.1,0.7
					c5-0.6,9.9-2.9,14-5.8c4.3-3,8.3-7,8.7-12.5c0-0.6-0.9-0.6-0.9,0c-0.3,5-4,8.7-7.8,11.5c-3.9,2.8-8.3,5-13,5.8
					c-9.4,1.7-20.2,0.5-28.5-4.4c-3.7-2.1-8.4-4.8-9.5-9.3C220.8,316,220.4,316.1,220.4,316.4L220.4,316.4z"/>
			</g>
		</g>
		<g>
			<path d="M242.1,239.5c5.1,9.4,5.2,21.4,0.3,30.9c-2.3,4.4-5.6,8.4-7,13.2s0,11,4.6,12.8c1.8,0.7,3.8,0.6,5.7,0.7
				c4.5,0.2,5.3-0.1,9.8-0.6c4.5-0.5,12.9-1.8,13.5-6.3c0.7-6.1-6.3-10.2-8-16.1"/>
		</g>
		<g>
			<path d="M240.8,290.7c-0.4-0.1-0.7-0.4-1-0.7c-0.4-0.5-0.3-1.3-0.2-1.9c0.6-2.1,2.7-3.5,4.9-3.3c1,0.8,1.3,2.3,0.9,3.5
				c-0.4,1.3-1.6,2.2-2.9,2.5C241.9,290.9,241.3,290.9,240.8,290.7z"/>
		</g>
		<g>
			<path d="M258,290.5c1,0.2,2-0.1,2.7-0.8c1.5-1.6,0.5-4.7-1.7-5.1c-2.2-0.5-4.2,2.2-3.4,4.2C256.1,289.7,257.1,290.3,258,290.5z"
				/>
		</g>
		<g>
			<path d="M200.8,241.7l-0.1,0.1c4.7,3.5,13.2,5.7,19,5.1c2.6-0.3,5.4,0.2,8-0.5c1.6-0.4,6.4-1.1,8.1-1.5c-0.7-0.5-4.8-1.9-5.6-2.4
				C222.3,237.2,208.9,236.6,200.8,241.7z"/>
		</g>
		<g>
			<path d="M301.8,244.5c0.3,0.2,0.6,0.4,0.8,0.6c-1.5,1.7-4,2.3-6.3,2.6c-2.3,0.4-5,1.4-7.3,1.8c-3.2,0.6-6,0.5-9.3,0.2
				c-3.7-0.3-7.3-1.9-10.2-4.3c3.2-0.3,5.8-2.5,8.5-4.1c2.7-1.7,5.8-2.9,9-3C292.6,238.2,297.4,241.2,301.8,244.5z"/>
		</g>
		<g>
			<g>
				<path d="M234.8,242.4c-1.1-3-4.2-5.5-6.8-7.1c-2.8-1.7-6-2.9-9.3-3.3c-3.6-0.4-7.2,0-10.6,1.1c-3.4,1.1-7.1,3-9.6,5.6
					c-0.7,0.8,0.3,2.1,1.2,1.5c2.8-2,5.3-3.9,8.6-5c3.2-1.1,6.6-1.6,9.9-1.4c3.1,0.3,6.1,1.2,8.8,2.8c1.3,0.8,2.6,1.8,3.7,2.9
					c1.1,1.1,2,2.4,3,3.6C234.1,243.5,235,243,234.8,242.4L234.8,242.4z"/>
			</g>
		</g>
		<g>
			<g>
				<path d="M306.5,242.9c-2.1-6.2-9.2-9.9-15.4-10.4c-7.8-0.7-15.4,2.8-21.1,7.7c-1,0.8,0.5,2.2,1.4,1.4c5.2-4.6,12.1-7.8,19.1-7.4
					c3,0.1,6,1.1,8.7,2.6c2.7,1.6,4.6,3.9,6.3,6.5C305.8,243.9,306.8,243.6,306.5,242.9L306.5,242.9z"/>
			</g>
		</g>
		<g>
			<path d="M234.5,247c0.7-0.6,1.3-1.2,1.3-2.1c-2.9-0.9-6,0.3-9,1.1c-8.8,2.3-18.5,0.8-26-4.2c0,0.1-0.1,0.3-0.1,0.4
				c-0.4,5,3.2,6.2,7.7,7.9c4.8,1.9,10,2.8,14.8,1.1c3.6-1.3,7.6-1.6,10.7-3.7C234.2,247.3,234.4,247.1,234.5,247z"/>
		</g>
		<g>
			<path d="M215.5,246.4c-0.3,0-0.6,0-0.9-0.1c-1.3-0.2-2.3-1-2.8-2.1c-0.9-2,0.6-4.1,2.6-4.6l2.9-0.7c1.1-0.3,2.2,0.2,2.8,1.1l0,0
				c0.7,1,1,2.2,0.9,3.4c-0.1,0.7-0.4,1.5-0.9,1.9c-0.6,0.5-1.5,0.7-2.4,0.8C217,246.4,216.2,246.4,215.5,246.4z"/>
		</g>
		<g>
			<path d="M288.1,247.9H288c-0.5,0.1-1.1,0.1-1.6,0c-0.9-0.1-1.8-0.3-2.5-0.8c-1.2-0.9-1.4-2.7-0.8-4.1c0.4-1,1.1-1.8,1.9-2.5
				c1.3-0.5,2.8-0.6,4.2-0.2c0.6,0.2,1.2,0.4,1.6,0.9c0.3,0.3,0.4,0.7,0.5,1.1c0.3,0.8,0.5,1.5,0.4,2.3c-0.2,1.4-1.6,2.3-2.9,3
				C288.6,247.7,288.3,247.8,288.1,247.9z"/>
		</g>
		<g>
			<path d="M269.7,245.5c5.6,4.2,11.5,4.5,18.6,3.7c1.1-0.1,3.1-0.3,4.2-0.6c3.5-1.2,6.5-2.8,10.2-3.5c-1.9,2.3-4.1,4.1-6.8,5.3
				c-1.7,0.7-3.6,1-5.3,1.5c-1.4,0.4-2.8,0.5-4.2,0.6c-1.6,0.1-3.3,0.1-4.9,0.1c-1.4,0-2.7,0-4-0.4c-1.7-0.5-3.1-1.5-4.5-2.5
				c-1.5-1.1-3.1-2.3-3.8-4"/>
		</g>
	</g>
	<g id="ögonbryn_1_" class="st2">
		<g>
			<g>
				<path d="M235.3,222c-1.9-1.9-3.7-3.8-5.7-5.6c-0.1-0.1-0.3,0.1-0.2,0.2C231.3,218.4,233.2,220.3,235.3,222
					C235.2,222.1,235.3,222,235.3,222L235.3,222z"/>
			</g>
		</g>
		<g>
			<g>
				<path d="M232.5,220.7c-1.5-1.3-3.1-2.5-4.6-3.8c-0.1-0.1-0.3,0.1-0.2,0.2c1.5,1.3,3.1,2.5,4.6,3.8
					C232.5,221,232.7,220.8,232.5,220.7L232.5,220.7z"/>
			</g>
		</g>
		<g>
			<g>
				<path d="M233.9,222.3c-2.8-2-5.5-4.2-8-6.5c-0.1-0.1-0.4,0.1-0.2,0.2c2.5,2.4,5.2,4.5,8.1,6.5
					C233.9,222.6,234,222.4,233.9,222.3L233.9,222.3z"/>
			</g>
		</g>
		<g>
			<g>
				<path d="M232,221.4c-3.3-1.8-6.4-3.9-9.5-6.2c-0.1-0.1-0.3,0.1-0.1,0.3c3,2.3,6.2,4.3,9.5,6.1C232,221.7,232.1,221.5,232,221.4
					L232,221.4z"/>
			</g>
		</g>
		<g>
			<g>
				<path d="M231.5,222.7c-2.9-1.8-5.7-3.5-8.6-5.1c-0.2-0.1-0.3,0.2-0.2,0.3c2.9,1.6,5.9,3.2,8.7,5
					C231.5,222.9,231.6,222.8,231.5,222.7L231.5,222.7z"/>
			</g>
		</g>
		<g>
			<g>
				<path d="M230.1,222.6c-3.6-1.6-7.1-3.3-10.7-4.9c-0.2-0.1-0.3,0.2-0.1,0.3c3.6,1.7,7.2,3.2,10.8,4.9
					C230.1,222.8,230.2,222.6,230.1,222.6L230.1,222.6z"/>
			</g>
		</g>
		<g>
			<g>
				<path d="M226.3,222c-3.5-1-6.9-2.3-10.2-3.9c-0.1-0.1-0.3,0.1-0.1,0.2c3.3,1.6,6.7,2.9,10.3,3.9
					C226.3,222.3,226.4,222.1,226.3,222L226.3,222z"/>
			</g>
		</g>
		<g>
			<g>
				<path d="M227.1,217.4c-2.9-1.1-5.7-2.2-8.6-3.3c-0.2-0.1-0.3,0.2-0.1,0.3c2.9,1.1,5.8,2.2,8.6,3.3
					C227.2,217.7,227.3,217.4,227.1,217.4L227.1,217.4z"/>
			</g>
		</g>
		<g>
			<g>
				<path d="M225.2,216.1c-3.3-0.6-6.6-1.2-9.9-1.7c-0.2,0-0.2,0.2-0.1,0.3c3.3,0.6,6.6,1.1,10,1.6
					C225.2,216.3,225.3,216.1,225.2,216.1L225.2,216.1z"/>
			</g>
		</g>
		<g>
			<g>
				<path d="M224.9,217.7c-4.4-0.4-8.8-1.1-13.2-2c-0.2,0-0.3,0.3-0.1,0.4c4.4,0.9,8.8,1.4,13.3,1.8
					C225,217.9,225,217.8,224.9,217.7L224.9,217.7z"/>
			</g>
		</g>
		<g>
			<g>
				<path d="M223.9,218.3c-3.7-0.9-7.5-1.7-11.4-2.2c-0.2,0-0.3,0.3-0.1,0.3c3.8,0.5,7.6,1.3,11.4,2.2
					C224,218.7,224.1,218.4,223.9,218.3L223.9,218.3z"/>
			</g>
		</g>
		<g>
			<g>
				<path d="M218.4,217.9c-3.7-0.3-7.4-0.6-11.1-0.8c-0.2,0-0.2,0.3,0,0.3c3.7,0.3,7.4,0.5,11.1,0.8
					C218.7,218.3,218.7,217.9,218.4,217.9L218.4,217.9z"/>
			</g>
		</g>
		<g>
			<g>
				<path d="M216.5,218.4c-3.3,0.2-6.6,0.3-10,0.5c-0.2,0-0.2,0.3,0,0.3c3.3-0.2,6.6-0.4,10-0.6
					C216.7,218.6,216.7,218.4,216.5,218.4L216.5,218.4z"/>
			</g>
		</g>
		<g>
			<g>
				<path d="M216.6,218.1c-4-0.7-8.1-1.1-12.2-1.1c-0.2,0-0.2,0.3,0,0.3c4.1,0.1,8.1,0.4,12.1,1.1
					C216.7,218.5,216.8,218.2,216.6,218.1L216.6,218.1z"/>
			</g>
		</g>
		<g>
			<g>
				<path d="M213,215.7c-4.2-0.2-8.5-0.1-12.7,0.6c-0.2,0-0.1,0.4,0.1,0.4c4.2-0.6,8.4-0.8,12.6-0.6
					C213.3,216.1,213.3,215.7,213,215.7L213,215.7z"/>
			</g>
		</g>
		<g>
			<g>
				<path d="M210.3,215.4c-4.2,1-8.4,1.4-12.7,1.6c-0.2,0-0.2,0.4,0,0.4c4.3-0.1,8.6-0.7,12.7-1.7
					C210.6,215.6,210.5,215.3,210.3,215.4L210.3,215.4z"/>
			</g>
		</g>
		<g>
			<g>
				<path d="M221.7,216.5c-3.2-0.6-6.5-0.9-9.8-0.9c-0.3,0-0.3,0.4,0,0.4c3.2,0,6.5,0.3,9.7,0.8
					C221.9,216.9,221.9,216.6,221.7,216.5L221.7,216.5z"/>
			</g>
		</g>
		<g>
			<g>
				<path d="M223.3,217.7c-4-1.4-8-2.7-12.1-3.6c-0.2-0.1-0.3,0.3-0.1,0.4c4.1,1,8.1,2.1,12.1,3.5
					C223.4,218,223.5,217.7,223.3,217.7L223.3,217.7z"/>
			</g>
		</g>
		<g>
			<g>
				<path d="M230.1,220.8c-3.7-1.4-7.3-2.8-11-4.1c-0.2-0.1-0.3,0.2-0.1,0.3c3.7,1.4,7.4,2.7,11.1,4
					C230.2,221.2,230.2,220.9,230.1,220.8L230.1,220.8z"/>
			</g>
		</g>
		<g>
			<g>
				<path d="M225.4,222.4c-3.6-0.6-7.1-1.6-10.5-2.9c-0.2-0.1-0.3,0.2-0.1,0.3c3.4,1.4,6.9,2.2,10.5,2.8
					C225.5,222.6,225.6,222.4,225.4,222.4L225.4,222.4z"/>
			</g>
		</g>
		<g>
			<g>
				<path d="M230.4,221.9c-2.2-1-4.3-2-6.5-2.9c-0.2-0.1-0.3,0.2-0.1,0.2c2.2,1,4.4,1.9,6.5,2.9C230.4,222.1,230.5,222,230.4,221.9
					L230.4,221.9z"/>
			</g>
		</g>
		<g>
			<g>
				<path d="M229.9,219.7c-4.1-2.4-8.6-3.9-13.3-4.2c-0.2,0-0.2,0.3,0,0.3c4.6,0.3,9.2,1.6,13.3,4
					C229.9,219.9,229.9,219.8,229.9,219.7L229.9,219.7z"/>
			</g>
		</g>
		<g>
			<g>
				<path d="M216.9,215.2c-3.6-1.1-7.6-1.7-11.4-1.4c-0.2,0-0.2,0.3,0,0.3c3.9-0.1,7.6,0.3,11.3,1.3
					C216.9,215.6,217,215.3,216.9,215.2L216.9,215.2z"/>
			</g>
		</g>
		<g>
			<g>
				<path d="M211.4,215.1c-3.9-0.8-7.9-1.6-11.8-2.1c-0.2,0-0.2,0.3-0.1,0.3c3.9,0.7,7.9,1.2,11.8,2
					C211.5,215.4,211.6,215.1,211.4,215.1L211.4,215.1z"/>
			</g>
		</g>
		<g>
			<g>
				<path d="M205.5,212.8c-2,0-4,0.3-6,0.7c-1.9,0.4-3.9,1-5.7,1.9c-0.2,0.1-0.1,0.4,0.1,0.3c1.8-0.7,3.6-1.5,5.6-1.9
					c2-0.5,4-0.7,6-0.8C205.7,213.1,205.7,212.8,205.5,212.8L205.5,212.8z"/>
			</g>
		</g>
		<g>
			<g>
				<path d="M201.7,215.9c-0.8,0.2-1.6,0.4-2.4,0.5c-0.1,0-0.1,0.2,0,0.2C200.1,216.4,200.9,216.2,201.7,215.9
					C201.8,216,201.8,215.9,201.7,215.9L201.7,215.9z"/>
			</g>
		</g>
		<g>
			<g>
				<path d="M204.7,215.9c-3.4-1.1-7-1-10.3,0.3c-0.2,0.1-0.1,0.5,0.1,0.4C197.8,215.4,201.3,215.2,204.7,215.9
					C204.7,216.1,204.7,215.9,204.7,215.9L204.7,215.9z"/>
			</g>
		</g>
		<g>
			<g>
				<path d="M204.1,217.1c-3.1,0.4-6.3,0.4-9.4,0.3c-0.2,0-0.2,0.3,0,0.4c3.1,0.3,6.3,0,9.5-0.4
					C204.3,217.2,204.2,217.1,204.1,217.1L204.1,217.1z"/>
			</g>
		</g>
		<g>
			<g>
				<path d="M202.8,217.4c-1.8-0.2-3.5-0.4-5.3-0.3c-1.8,0.1-3.6,0.3-5.3,0.8c-0.2,0.1-0.1,0.4,0.1,0.3c1.8-0.3,3.5-0.7,5.3-0.8
					c1.7-0.1,3.5-0.1,5.2,0.1C202.9,217.5,202.9,217.4,202.8,217.4L202.8,217.4z"/>
			</g>
		</g>
		<g>
			<g>
				<path d="M198.2,216.9c-2.5,0.4-5.1,0.8-7.6,1.2c-0.2,0-0.1,0.3,0.1,0.3c2.5-0.4,5-0.9,7.6-1.3
					C198.4,217.1,198.3,216.9,198.2,216.9L198.2,216.9z"/>
			</g>
		</g>
		<g>
			<g>
				<path d="M195.2,216.8c-1,0.4-2,0.7-3,1.1c-0.1,0.1-0.1,0.3,0.1,0.3c1-0.3,2-0.7,3-1.1C195.4,217,195.4,216.7,195.2,216.8
					L195.2,216.8z"/>
			</g>
		</g>
		<g>
			<g>
				<path d="M212,218.5c-3.6-0.3-7.2-0.4-10.8-0.1c-0.3,0-0.3,0.4,0,0.4c3.6-0.3,7.2-0.3,10.8-0.1
					C212.1,218.7,212.1,218.5,212,218.5L212,218.5z"/>
			</g>
		</g>
		<g>
			<g>
				<path d="M212.5,218.2c-3.1-0.7-6.4-0.8-9.5-0.4c-0.2,0-0.1,0.4,0.1,0.4c3.1-0.4,6.3-0.4,9.3,0.3
					C212.6,218.5,212.7,218.3,212.5,218.2L212.5,218.2z"/>
			</g>
		</g>
		<g>
			<g>
				<path d="M209.5,214.6c-4.1-0.5-8.2-0.4-12.2,0.8c-0.2,0.1-0.1,0.4,0.1,0.3c4-0.9,8-1.4,12.1-1
					C209.6,214.7,209.6,214.6,209.5,214.6L209.5,214.6z"/>
			</g>
		</g>
		<g>
			<g>
				<path d="M208.5,215.5c-4.7-1-9.9-0.8-14.4,1c-0.2,0.1-0.1,0.4,0.1,0.3c4.6-1.6,9.4-2.1,14.2-1.1
					C208.6,215.8,208.7,215.5,208.5,215.5L208.5,215.5z"/>
			</g>
		</g>
		<g>
			<g>
				<path d="M197.6,214.4c-2.2,0.9-4.4,1.9-6.5,3c-0.2,0.1,0,0.4,0.2,0.3c2.1-1.2,4.2-2.3,6.4-3.2
					C197.7,214.5,197.7,214.4,197.6,214.4L197.6,214.4z"/>
			</g>
		</g>
		<g>
			<g>
				<path d="M222.5,215.9c-4-0.6-8-1.4-12.1-1.9c-0.2,0-0.3,0.3-0.1,0.3c4,0.6,8.1,1.2,12.1,1.8
					C222.5,216.1,222.6,215.9,222.5,215.9L222.5,215.9z"/>
			</g>
		</g>
		<g>
			<g>
				<path d="M225.7,220.1c-4.1-1.4-8.3-2.5-12.6-2.9c-0.2,0-0.2,0.3,0,0.3c4.3,0.6,8.5,1.4,12.6,2.7
					C225.7,220.3,225.8,220.1,225.7,220.1L225.7,220.1z"/>
			</g>
		</g>
		<g>
			<g>
				<path d="M225.7,221.7c-4.8-1.6-9.6-3.2-14.5-4.7c-0.2-0.1-0.3,0.2-0.1,0.3c4.8,1.6,9.7,3.1,14.5,4.7
					C225.8,222,225.9,221.8,225.7,221.7L225.7,221.7z"/>
			</g>
		</g>
		<g>
			<g>
				<path d="M227.6,221.7c-3-0.9-5.9-1.9-8.9-2.8c-0.2-0.1-0.3,0.2-0.1,0.3c2.9,0.9,5.9,1.8,8.9,2.8
					C227.7,222,227.8,221.8,227.6,221.7L227.6,221.7z"/>
			</g>
		</g>
		<g>
			<g>
				<path d="M268.8,223.7c1.6-1.4,3.2-2.7,5.1-3.8c1.8-1.1,3.8-1.9,5.8-2.6c0.2-0.1,0.1-0.4-0.1-0.3c-2,0.6-4,1.6-5.9,2.7
					c-1.8,1.1-3.6,2.4-5.1,4C268.6,223.7,268.8,223.8,268.8,223.7L268.8,223.7z"/>
			</g>
		</g>
		<g>
			<g>
				<path d="M268.1,225.2c3.6-2.4,7.5-4.4,11.5-6c0.2-0.1,0.1-0.4-0.1-0.4c-4.1,1.5-8,3.6-11.6,6.1C267.8,225,268,225.3,268.1,225.2
					L268.1,225.2z"/>
			</g>
		</g>
		<g>
			<g>
				<path d="M270.3,224.6c3.5-2.3,7.3-3.8,11.3-5c0.2-0.1,0.1-0.4-0.1-0.3c-4,1-7.9,2.9-11.4,5.1C270,224.5,270.1,224.7,270.3,224.6
					L270.3,224.6z"/>
			</g>
		</g>
		<g>
			<g>
				<path d="M272.2,225c4-2.2,8.4-3.8,12.9-4.9c0.2-0.1,0.1-0.4-0.1-0.4c-4.5,1-8.9,2.7-13,4.9C271.9,224.8,272,225.1,272.2,225
					L272.2,225z"/>
			</g>
		</g>
		<g>
			<g>
				<path d="M273.7,225.8c4.5-2.8,9.4-4.7,14.6-5.8c0.2-0.1,0.1-0.4-0.1-0.3c-5.2,0.9-10.2,3-14.7,5.9
					C273.4,225.7,273.5,225.9,273.7,225.8L273.7,225.8z"/>
			</g>
		</g>
		<g>
			<g>
				<path d="M275.1,223.8c4.3-2.4,9.1-4,14-4.7c0.2,0,0.1-0.4,0-0.3c-5,0.6-9.8,2.3-14.1,4.8C274.8,223.6,274.9,223.9,275.1,223.8
					L275.1,223.8z"/>
			</g>
		</g>
		<g>
			<g>
				<path d="M274.9,221.2c5.2-2.9,10.8-4.4,16.6-5.1c0.2,0,0.2-0.4,0-0.3c-5.9,0.4-11.7,2.3-16.8,5.1
					C274.5,221,274.7,221.3,274.9,221.2L274.9,221.2z"/>
			</g>
		</g>
		<g>
			<g>
				<path d="M276.8,219.6c5-2.6,10.5-3.9,16.1-4.1c0.2,0,0.2-0.3,0-0.3c-5.6,0-11.3,1.6-16.3,4.1
					C276.4,219.4,276.6,219.7,276.8,219.6L276.8,219.6z"/>
			</g>
		</g>
		<g>
			<g>
				<path d="M278.9,221.7c5.2-2.5,10.8-4.1,16.6-4.9c0.2,0,0.2-0.4,0-0.3c-5.8,0.6-11.5,2.3-16.8,4.9
					C278.6,221.6,278.8,221.8,278.9,221.7L278.9,221.7z"/>
			</g>
		</g>
		<g>
			<g>
				<path d="M280,223.5c5.2-2.5,10.9-4.1,16.7-4.8c0.2,0,0.2-0.4,0-0.4c-5.9,0.6-11.5,2.3-16.8,4.9
					C279.7,223.4,279.8,223.6,280,223.5L280,223.5z"/>
			</g>
		</g>
		<g>
			<g>
				<path d="M281.5,223.4c4.4-1.7,8.9-2.8,13.5-3.6c0.2,0,0.1-0.4,0-0.3c-4.6,0.6-9.2,1.9-13.5,3.7
					C281.3,223.3,281.4,223.5,281.5,223.4L281.5,223.4z"/>
			</g>
		</g>
		<g>
			<g>
				<path d="M286.1,219.2c4.3-1.6,8.9-2.3,13.5-1.9c0.2,0,0.2-0.3,0-0.3c-4.6-0.5-9.3,0.2-13.5,1.9
					C285.9,219,285.9,219.3,286.1,219.2L286.1,219.2z"/>
			</g>
		</g>
		<g>
			<g>
				<path d="M289.9,217.9c4-2,8.6-2.3,12.8-0.9c0.2,0.1,0.3-0.3,0.1-0.3c-4.3-1.5-9-1.1-13.1,1C289.6,217.7,289.8,217.9,289.9,217.9
					L289.9,217.9z"/>
			</g>
		</g>
		<g>
			<g>
				<path d="M290.8,217c4-2,8.6-2.2,12.8-0.9c0.2,0.1,0.3-0.2,0.1-0.3c-4.2-1.5-9.1-1.1-13.1,0.9C290.4,216.8,290.6,217.1,290.8,217
					L290.8,217z"/>
			</g>
		</g>
		<g>
			<g>
				<path d="M293.7,215.2c3.2-0.4,6.5-0.4,9.7,0.1c0.2,0,0.2-0.3,0-0.3c-3.2-0.5-6.5-0.5-9.8,0C293.5,214.9,293.4,215.2,293.7,215.2
					L293.7,215.2z"/>
			</g>
		</g>
		<g>
			<g>
				<path d="M285.9,220c3.6-1.4,7.4-2,11.3-1.9c0.2,0,0.2-0.3,0-0.3c-3.9-0.1-7.7,0.5-11.4,1.9C285.7,219.8,285.7,220.1,285.9,220
					L285.9,220z"/>
			</g>
		</g>
		<g>
			<g>
				<path d="M282.4,219.2c4.4-1.8,9-3,13.8-3.7c0.2,0,0.1-0.3-0.1-0.3c-4.7,0.6-9.4,1.9-13.8,3.7C282.1,219,282.2,219.3,282.4,219.2
					L282.4,219.2z"/>
			</g>
		</g>
		<g>
			<g>
				<path d="M279.1,221.7c4.4-1.7,8.9-2.9,13.5-3.6c0.2,0,0.1-0.4,0-0.3c-4.6,0.6-9.2,1.9-13.6,3.6
					C278.8,221.4,278.9,221.7,279.1,221.7L279.1,221.7z"/>
			</g>
		</g>
		<g>
			<g>
				<path d="M277.6,224.1c5.8-2.7,12-4.4,18.3-5.4c0.2,0,0.1-0.3,0-0.3c-6.4,0.9-12.5,2.8-18.4,5.5
					C277.3,224,277.4,224.2,277.6,224.1L277.6,224.1z"/>
			</g>
		</g>
		<g>
			<g>
				<path d="M292.9,218.6c5-0.9,10.2-0.6,15.1,0.9c0.2,0.1,0.3-0.2,0.1-0.3c-4.9-1.6-10.1-1.8-15.2-0.8
					C292.7,218.4,292.8,218.6,292.9,218.6L292.9,218.6z"/>
			</g>
		</g>
		<g>
			<g>
				<path d="M299.8,218.3c3.5,0.5,6.8,1.4,10,2.8c0.2,0.1,0.3-0.2,0.1-0.3c-3.2-1.4-6.6-2.3-10.1-2.8
					C299.7,218,299.6,218.3,299.8,218.3L299.8,218.3z"/>
			</g>
		</g>
		<g>
			<g>
				<path d="M298.2,218c3.3-0.9,6.6-0.5,9.7,0.8c0.2,0.1,0.3-0.2,0.1-0.3c-3.1-1.4-6.6-1.6-9.9-0.8C298,217.7,298,218.1,298.2,218
					L298.2,218z"/>
			</g>
		</g>
		<g>
			<g>
				<path d="M298.2,217.6c1.8-1.2,4.1-1.5,6.2-1.1c2.3,0.4,4.2,1.4,6.2,2.5c0.2,0.1,0.3-0.1,0.1-0.3c-3.7-2.3-8.7-4-12.7-1.4
					C297.9,217.4,298.1,217.7,298.2,217.6L298.2,217.6z"/>
			</g>
		</g>
		<g>
			<g>
				<path d="M297.7,215.4c3.9-1.8,7.9,0.1,11.3,2.1c0.2,0.1,0.3-0.1,0.1-0.3c-3.4-2.1-7.7-3.9-11.5-2
					C297.4,215.2,297.6,215.4,297.7,215.4L297.7,215.4z"/>
			</g>
		</g>
		<g>
			<g>
				<path d="M288.6,219.8c4.9-1.7,10.2-2.2,15.3-1.5c0.2,0,0.3-0.3,0.1-0.3c-5.2-0.7-10.5-0.2-15.4,1.6
					C288.4,219.6,288.4,219.8,288.6,219.8L288.6,219.8z"/>
			</g>
		</g>
		<g>
			<g>
				<path d="M276.7,220.7c7.7-2.8,15.7-4.7,23.8-5.8c0.2,0,0.1-0.3,0-0.3c-8.1,1-16.1,3-23.8,5.9
					C276.5,220.5,276.5,220.7,276.7,220.7L276.7,220.7z"/>
			</g>
		</g>
		<g>
			<g>
				<path d="M280.8,223c6.3-2.8,13-4,19.9-4.1c0.2,0,0.2-0.3,0-0.3c-6.8-0.2-13.8,1.4-20,4.3C280.6,222.9,280.7,223.1,280.8,223
					L280.8,223z"/>
			</g>
		</g>
		<g>
			<g>
				<path d="M288,220.3c6.4-1.7,13.2-1.7,19.6-0.4c0.2,0,0.3-0.3,0.1-0.3c-6.5-1.5-13.3-1.2-19.7,0.5
					C287.9,220.2,287.9,220.3,288,220.3L288,220.3z"/>
			</g>
		</g>
		<g>
			<g>
				<path d="M294.8,218c3.8-0.6,7.5-0.4,11.2,0.4c0.2,0,0.3-0.2,0.1-0.3c-3.7-0.9-7.6-1-11.4-0.4C294.6,217.8,294.6,218,294.8,218
					L294.8,218z"/>
			</g>
		</g>
	</g>
	<g id="hår_1_" class="st2">
		<g>
			<path d="M175.1,356.8c-8.5-7.5-12.8-18.6-15.4-29.6c-2.6-11-3.7-22.4-7.4-33.1c-3-8.7-7.6-16.8-11-25.4
				c-8.2-20.6-9.4-43.7-4.8-65.4s14.7-42,27.9-59.8c5-6.7,10.5-13.2,17.1-18.4c6.7-5.4,14.4-9.4,22.4-12.7c20.5-8.6,44-12.5,65-5.1
				c10.3,3.6,19.5,9.7,28.5,15.8c4.9,3.3,9.9,6.6,14.2,10.6c4,3.7,7.5,8.1,10.9,12.4c10,12.6,20.4,25.9,22.9,41.8
				c1.5,9.2,0.1,18.7,0.5,28c0.4,8.8,2.4,17.6,1.7,26.5c-2.1,26.9-27.9,47.2-31,74c-0.8,7,0,14.4-2.6,21c-2.7,7.1-9.5,12.6-17,13.9
				c17-20.9,23-48.6,24.7-75.5c0.5-7.3,0.6-14.7-0.6-21.9c-1.1-6.5-3.2-12.8-5.5-19c-9.6-26.3-21.7-52.4-23.5-80.3
				c-1.9,8.6-3.9,17.4-8.1,25.2s-11.1,14.6-19.8,16.6c-8.4,1.9-17-0.7-25.5-2.2c-16.6-2.8-35.3-0.2-47.2,11.8
				c-6.6,6.7-10.5,15.6-14.2,24.3s-1.7,22.1-3.3,31.4c-5.9,34.1,16.3,58.5,8.2,92.2c-1.4-1.3-7.2,3.2-8.6,1.9"/>
		</g>
	</g>
</g>
<g id="kappa">
	<g>
		<path class="st3" d="M185.5,462.8c0.1,0.1,0.1,0.3,0.2,0.4c5.5,10.1,7.2,21.9,11.9,32.4c1.1,2.4,2.4,4.8,4.7,5.9
			c1.8,0.9,3.9,0.9,5.9,0.9c36.1-0.6,72.9-0.8,108,0c2.5-10.2,5-20.4,7.5-30.6c3.7-15,19.4-31.3,12.8-45.3
			c-8.6-18.2-17.8-34.8-24.2-52.7c-3.7,9.6-11.9,17.9-21.4,22.4c-15,7.1-32.4,6.8-48.9,4.5c-10.7-1.5-21.7-3.9-30.1-10.5
			c-4.2-3.3-7.6-7.6-11-11.8c-4.5-5.7-9.1-11.4-13.6-17.1c-5,10.5-10,21.1-15,31.6c-5.2,11-10.6,23-8.1,34.9
			C167.1,441.3,178.9,450.9,185.5,462.8z"/>
	</g>
	<g>
		<path class="st4" d="M16.6,517.1c4.4-27.5,20.1-54.9,45.9-65.4c8.5-3.5,17.7-4.9,26.7-6.8c17.7-3.8,35-9.4,51.5-16.8
			c5.8-2.6,11.5-5.4,16.1-9.8c3.2-3,5.7-6.6,8.1-10.3c9.5-14.9,16.7-31.3,21.3-48.4c4.1,29.4,23.6,56.9,19.3,86.3
			c-12.3-6.3-24.6-12.5-36.9-18.8c20.3,20.2,33.1,47.8,35.4,76.4c17-6.8,36.2-1,54.6-0.5c8.3,0.2,16.5-0.7,24.7-1.6
			c9.4-1,18.8-2.1,28.1-3.1c1.4-0.1,2.8-0.3,3.8-1.3c1-0.9,1.4-2.4,1.7-3.8c4.8-23,9.7-45.9,14.5-68.9
			c-12.1,6.3-22.6,15.8-30.1,27.2c-7.1-18-13.8-39.6-2.9-55.7c2.5-3.7,5.9-6.8,8.2-10.7c5.2-8.6,4.5-19.5,3.4-29.5
			c11,14,6.1,35.2,15,50.6c5.5,9.5,15.6,15.6,26,19.1s21.4,5,32,7.9c16.1,4.4,31.3,12,44.5,22.2c18.1,12.7,34.4,27.9,48.2,45.2
			c2.4,2.9,4.7,6,5.9,9.5c6.3,7,2.5,18-4.8,23.3c-6.6,4.8-15.2,6-23.4,6.6c-48,3.5-95.9-5.5-143.9-8.4c-32.3-2-64.7-1.3-97-1.1
			c-47,0.3-93.9-0.5-140.9-2.5c-19-0.8-38.4-1.9-55.8-9.3"/>
	</g>
	<g>
		<path class="st5" d="M186.9,360.7c0.4-0.9,1.6-1.2,2.4-0.8c0.6,0.3,0.9,0.9,1.2,1.4c3.9,7,6.3,14.8,8.6,22.4
			c6.3,20.5,12.6,41.4,12.4,62.8c-2,1.4-4.9-0.4-5.7-2.7s-0.3-4.8-0.1-7.2c0.8-8.7-2.2-17.3-5.1-25.6c-5.6-16.6-10.4-33.4-14.3-50.5
			"/>
	</g>
	<g>
		<g>
			<path class="st5" d="M302.7,451.1c-1.8-6.6-4.6-12.8-6.3-19.4c-1.6-6.3-2.5-12.8-1.8-19.3c0.6-6.4,2.6-12.3,6.1-17.6
				c3.5-5.2,7.5-10.1,9.5-16c2.3-6.5,2.5-13.7,1.1-20.5c-0.2-1.1-1.8-0.6-1.6,0.5c0.3,1.6,0.5,3.3,0.5,4.9c0.1,1.6-0.1,3.1-0.3,4.7
				c-0.3,3.2-0.9,6.3-1.9,9.4c-1,3-2.2,5.9-3.8,8.6c-1.7,2.8-3.7,5.2-5.5,7.9c-3.6,5.2-6.1,10.8-6.9,17.2
				c-0.8,6.4-0.2,12.8,1.2,19.1c1.6,7.4,4,14.9,7.3,21.7C301,453.4,303.1,452.5,302.7,451.1L302.7,451.1z"/>
		</g>
	</g>
	<g>
		<g>
			<path class="st5" d="M309.1,358.2c-0.1,3.4,0,6.7-0.5,10c-0.5,3.1-1.1,6.2-2.3,9.2c-2.3,6.1-6.5,10.8-10.1,16.1
				c-3.6,5.4-6,11.2-6.9,17.7s-0.2,13.2,1.2,19.6c1.8,7.7,4.7,15.1,7.6,22.4c0.4,1,1.7,1.5,2.5,0.7c1.1-1.1,2.3-2.3,3.3-3.5
				c1.2-1.4-0.6-3.2-2-2c-1.2,1.1-2.3,2.2-3.4,3.4c0.8,0.2,1.7,0.4,2.5,0.7c-5.1-12.6-10.3-25.8-9-39.7c0.6-6.5,3-12.3,6.6-17.7
				c3.5-5.2,7.4-10.2,9.7-16.1c2.5-6.4,3.8-14.2,1.7-20.9C310,357.5,309.1,357.6,309.1,358.2L309.1,358.2z"/>
		</g>
	</g>
	<g>
		<g>
			<path class="st5" d="M170.3,429l-0.1,0.1c0.2-0.1,0.4-0.1,0.6-0.2c0.1,0.1,0.1,0.2,0.2,0.3c-0.1,0.2-0.2,0.4-0.3,0.7l0.1-0.1
				c-0.2,0.1-0.5,0.2-0.7,0.3c0.4-0.1,1.9,1.7,2.2,2c1,1,2,1.9,2.9,2.9c1.8,1.9,3.4,3.9,5,5.9c3.2,4.1,5.9,8.6,8.4,13.2
				c5.3,10.1,8.8,20.9,11.3,32c1.5,6.6,2.5,13.3,3.8,19.9c0.4,2,3.7,1.6,3.6-0.5c-0.6-7.1-1.9-14.1-3.4-21
				c-1.6-6.9-3.5-13.7-6.1-20.3c-4.5-11.6-10.9-22.2-19.6-31.1c-1.3-1.3-2.5-2.5-3.9-3.6c-1-0.8-2.4-2.4-3.8-2.1
				c-1.1,0.2-1.9,1.7-0.9,2.5c0.6,0.5,1.7,0.3,1.7-0.6C171.3,428.9,170.7,428.6,170.3,429L170.3,429z"/>
		</g>
	</g>
	<g>
		<g>
			<path class="st5" d="M329.4,425c-3.3,9.9-5.5,20.2-7.9,30.3c-2.4,10.2-4.8,20.4-6.9,30.6c-0.6,2.9-1.2,5.8-1.8,8.7
				c-0.6,2.9-1.3,5.8-1.6,8.8c-0.2,2.3,3.2,2.5,3.8,0.5c0.8-2.5,1.2-5.1,1.7-7.7c0.5-2.5,1-5,1.6-7.5c1.1-5.1,2.1-10.2,3.2-15.2
				c2.2-10.1,4.4-20.3,6.7-30.4c1.3-5.8,2.8-11.5,3.8-17.4C332.3,424,330,423.3,329.4,425L329.4,425z"/>
		</g>
	</g>
	<g>
		<path class="st6" d="M205.7,430.2c1.1-0.1,2.1-0.2,3.2-0.3c0.3,0,1.2-0.1,1.4,0c0.6,0.3,0.5,0.9,0.5,1.5
			c0.4,5.5,0.8,11.8,0.8,17.3c-3.3-0.9-7.1-3-9.8-4.6c-0.5-0.3-1.1-0.6-1.7-0.8c-0.7-0.3-1.6-0.6-2.2-1c-1.1-0.7-2.8-1.4-3.9-2.1
			c0.7-0.5,2-1.5,2.2-2.3c0.2-0.6,0.4-1.3,0.9-1.4c0.3,0,0.6,0.1,0.9,0.3c2.4,1.4,4.9,2.7,7.4,4c0.1-3.4,0.3-6.8,0.5-10.2"/>
	</g>
	<g>
		<path class="st6" d="M296.3,430.3c-1.8,0.7-3.5,1.3-5.3,2c-0.1,0-0.2,0.1-0.3,0.2c-0.1,0.2,0,0.4,0,0.5c2.9,7,5.5,15.1,8.8,21.9
			c1,0.2,2.7-1.9,3.1-2.8c3-6,6.6-12,12-16c-0.9-1.4-2.9-3-4.3-3.9c-3.4,3.2-6.7,6.5-10.1,9.7c-1.1-2.6-2.2-5.1-3.3-7.7
			c-0.5-1.2-1-2.4-1.3-3.6"/>
	</g>
</g>
<g id="huvud">
	<g>
		<path class="st7" d="M310.9,366c3.4-9.7,1.8-16.8,6.1-26c20.6-44.1,22.7-96.4,13.2-144.8c-2.6-13.3-6.7-27.4-17-35.1
			c-10.4-7.8-24.2-6.8-36.8-5.5c-11.3,1.2-22.7,2.4-34,3.6c-10.3,1.1-21.2,2.4-29.7,8.9c-4,3-7.2,7-10.3,11.1
			c-15.9,21.2-28.8,47.6-26.1,74.9c0.7,6.9,2.4,13.7,2.6,20.7c0.2,5.1-0.5,10.3-0.3,15.4c0.8,19.5,13.4,37.1,12.8,56.6
			c-0.2,5.5-1.4,10.9-1.2,16.3c0.4,10.6,6.2,20.3,13.6,27.1c7.4,6.8,16.4,11.3,25.3,15.6c3.7,1.8,7.5,3.6,11.6,3.5
			c3.2-0.1,6.3-1.5,9.4-2.4c12.4-3.4,26.3,1.8,37.9-4.1C300.5,395.5,307.5,380.5,310.9,366"/>
	</g>
	<g>
		<path class="st8" d="M202.9,358.7c4.8,6.5,10.6,12.2,17,17.1c4.1,3.1,8.7,5.9,13.7,6.8c4.6,0.9,9.4,0.2,14-0.5
			c18.5-2.7,38-5.8,52.8-17.1c0.5-0.3,0.9-0.7,1-1.3s-0.4-1.2-1-1c0,0-0.4,0.2-1,0.4c-14.2,9.8-32.4,13.2-49.6,11.2
			c-17.9-2.1-34.9-9.6-50-19.6C201,356,201.9,357.3,202.9,358.7z"/>
	</g>
</g>
<g id="ögon_mun">
	<g>
		<path class="st9" d="M291.2,319.9c-5.1,1.4-10.4,2.4-15.7,3c-5.3,0.6-10.7,0.8-16,1c-5.2,0.2-10.4,0.4-15.6,0.5
			c-5.1,0.2-10.7,1.2-15.6,0.1c8.4-6.5,19.7-10.8,30.3-10.3c2.3,0.1,4.7,0.4,7,0.2c2.1-0.2,4.2-0.9,6.4-1.1c7-0.9,13.8,2.5,20.1,5.7
			"/>
	</g>
	<g>
		<path class="st10" d="M288.2,320.7c-2,9.4-11.6,15.3-21,17c-5.5,1-11.3,1-16.8-0.1c-7.9-1.6-19.4-5.8-21.6-13.6
			c0,0.8,4.3,0.6,5.1,0.5c8.6-0.5,17.1-1,25.7-1.5c5.4-0.3,10.9-0.6,16.3-1.2c4.6-0.5,9.2-1.3,13.8-2"/>
	</g>
	<g>
		<g>
			<path class="st10" d="M290.9,319c0.5,0,0.5-0.7,0-0.7C290.4,318.2,290.4,319,290.9,319L290.9,319z"/>
		</g>
	</g>
	<g>
		<g>
			<path class="st11" d="M292.1,318.9c-3.8-2.1-8.1-3.9-12.4-4.9c-2.1-0.5-4.2-0.7-6.3-0.6c-2.2,0.1-4.3,0.7-6.5,1
				c-4.8,0.7-9.6-0.1-14.4,0.3c-4.1,0.3-8.1,1.1-12,2.6c-4.3,1.6-8.2,3.9-11.8,6.7c-0.3,0.2,0.1,0.6,0.4,0.4
				c6.5-5.1,14.5-8.3,22.8-8.9c4.4-0.4,8.7,0.2,13-0.1c2.1-0.1,4.2-0.7,6.4-1c2.3-0.3,4.7-0.3,7,0.1c4.9,0.9,9.2,3.1,13.7,4.9
				C292.2,319.5,292.4,319,292.1,318.9L292.1,318.9z"/>
		</g>
	</g>
	<g>
		<g>
			<path class="st12" d="M228.6,324.1c0.8,4,4.7,6.7,7.9,8.7c1.8,1.1,3.6,2.2,5.5,3c2.3,0.9,4.8,1.6,7.2,2.1
				c5.6,1.4,11.4,1.4,17.1,0.7c5-0.6,9.9-2.9,14-5.8c4.3-3,8.3-7,8.7-12.5c0-0.6-0.9-0.6-0.9,0c-0.3,5-4,8.7-7.8,11.5
				c-3.9,2.8-8.3,5-13,5.8c-9.4,1.7-20.2,0.5-28.5-4.4c-3.7-2.1-8.4-4.8-9.5-9.3C229,323.7,228.6,323.8,228.6,324.1L228.6,324.1z"/>
		</g>
	</g>
	<g>
		<path class="st13" d="M250.3,247.2c5.1,9.4,5.2,21.4,0.3,30.9c-2.3,4.4-5.6,8.4-7,13.2s0,11,4.6,12.8c1.8,0.7,3.8,0.6,5.7,0.7
			c4.5,0.2,5.3-0.1,9.8-0.6s12.9-1.8,13.5-6.3c0.7-6.1-6.3-10.2-8-16.1"/>
	</g>
	<g>
		<path class="st14" d="M249,298.4c-0.4-0.1-0.7-0.4-1-0.7c-0.4-0.5-0.3-1.3-0.2-1.9c0.6-2.1,2.7-3.5,4.9-3.3c1,0.8,1.3,2.3,0.9,3.5
			c-0.4,1.3-1.6,2.2-2.9,2.5C250.1,298.6,249.5,298.6,249,298.4z"/>
	</g>
	<g>
		<path class="st14" d="M266.2,298.2c1,0.2,2-0.1,2.7-0.8c1.5-1.6,0.5-4.7-1.7-5.1c-2.2-0.5-4.2,2.2-3.4,4.2
			C264.3,297.4,265.3,298,266.2,298.2z"/>
	</g>
	<g>
		<path class="st15" d="M209,249.4l-0.1,0.1c4.7,3.5,13.2,5.7,19,5.1c2.6-0.3,5.4,0.2,8-0.5c1.6-0.4,6.4-1.1,8.1-1.5
			c-0.7-0.5-4.8-1.9-5.6-2.4C230.5,244.9,217.1,244.3,209,249.4z"/>
	</g>
	<g>
		<path class="st15" d="M310,252.2c0.3,0.2,0.6,0.4,0.8,0.6c-1.5,1.7-4,2.3-6.3,2.6c-2.3,0.4-5,1.4-7.3,1.8c-3.2,0.6-6,0.5-9.3,0.2
			c-3.7-0.3-7.3-1.9-10.2-4.3c3.2-0.3,5.8-2.5,8.5-4.1c2.7-1.7,5.8-2.9,9-3C300.8,245.9,305.6,248.9,310,252.2z"/>
	</g>
	<g>
		<g>
			<path class="st13" d="M243,250.1c-1.1-3-4.2-5.5-6.8-7.1c-2.8-1.7-6-2.9-9.3-3.3c-3.6-0.4-7.2,0-10.6,1.1c-3.4,1.1-7.1,3-9.6,5.6
				c-0.7,0.8,0.3,2.1,1.2,1.5c2.8-2,5.3-3.9,8.6-5c3.2-1.1,6.6-1.6,9.9-1.4c3.1,0.3,6.1,1.2,8.8,2.8c1.3,0.8,2.6,1.8,3.7,2.9
				c1.1,1.1,2,2.4,3,3.6C242.3,251.2,243.2,250.7,243,250.1L243,250.1z"/>
		</g>
	</g>
	<g>
		<g>
			<path class="st13" d="M314.7,250.6c-2.1-6.2-9.2-9.9-15.4-10.4c-7.8-0.7-15.4,2.8-21.1,7.7c-1,0.8,0.5,2.2,1.4,1.4
				c5.2-4.6,12.1-7.8,19.1-7.4c3,0.1,6,1.1,8.7,2.6c2.7,1.6,4.6,3.9,6.3,6.5C314,251.6,315,251.3,314.7,250.6L314.7,250.6z"/>
		</g>
	</g>
	<g>
		<path class="st13" d="M242.7,254.7c0.7-0.6,1.3-1.2,1.3-2.1c-2.9-0.9-6,0.3-9,1.1c-8.8,2.3-18.5,0.8-26-4.2c0,0.1-0.1,0.3-0.1,0.4
			c-0.4,5,3.2,6.2,7.7,7.9c4.8,1.9,10,2.8,14.8,1.1c3.6-1.3,7.6-1.6,10.7-3.7C242.4,255,242.6,254.8,242.7,254.7z"/>
	</g>
	<g>
		<path class="st16" d="M223.7,254.1c-0.3,0-0.6,0-0.9-0.1c-1.3-0.2-2.3-1-2.8-2.1c-0.9-2,0.6-4.1,2.6-4.6l2.9-0.7
			c1.1-0.3,2.2,0.2,2.8,1.1l0,0c0.7,1,1,2.2,0.9,3.4c-0.1,0.7-0.4,1.5-0.9,1.9c-0.6,0.5-1.5,0.7-2.4,0.8
			C225.2,254.1,224.4,254.1,223.7,254.1z"/>
	</g>
	<g>
		<path class="st16" d="M296.3,255.6h-0.1c-0.5,0.1-1.1,0.1-1.6,0c-0.9-0.1-1.8-0.3-2.5-0.8c-1.2-0.9-1.4-2.7-0.8-4.1
			c0.4-1,1.1-1.8,1.9-2.5c1.3-0.5,2.8-0.6,4.2-0.2c0.6,0.2,1.2,0.4,1.6,0.9c0.3,0.3,0.4,0.7,0.5,1.1c0.3,0.8,0.5,1.5,0.4,2.3
			c-0.2,1.4-1.6,2.3-2.9,3C296.8,255.4,296.5,255.5,296.3,255.6z"/>
	</g>
	<g>
		<path class="st13" d="M277.9,253.2c5.6,4.2,11.5,4.5,18.6,3.7c1.1-0.1,3.1-0.3,4.2-0.6c3.5-1.2,6.5-2.8,10.2-3.5
			c-1.9,2.3-4.1,4.1-6.8,5.3c-1.7,0.7-3.6,1-5.3,1.5c-1.4,0.4-2.8,0.5-4.2,0.6c-1.6,0.1-3.3,0.1-4.9,0.1c-1.4,0-2.7,0-4-0.4
			c-1.7-0.5-3.1-1.5-4.5-2.5c-1.5-1.1-3.1-2.3-3.8-4"/>
	</g>
</g>
<g id="ögonbryn" class="st17">
	<g>
		<g>
			<path class="st18" d="M243.5,229.7c-1.9-1.9-3.7-3.8-5.7-5.6c-0.1-0.1-0.3,0.1-0.2,0.2C239.5,226.1,241.4,228,243.5,229.7
				C243.4,229.8,243.5,229.7,243.5,229.7L243.5,229.7z"/>
		</g>
	</g>
	<g>
		<g>
			<path class="st18" d="M240.7,228.4c-1.5-1.3-3.1-2.5-4.6-3.8c-0.1-0.1-0.3,0.1-0.2,0.2c1.5,1.3,3.1,2.5,4.6,3.8
				C240.7,228.7,240.9,228.5,240.7,228.4L240.7,228.4z"/>
		</g>
	</g>
	<g>
		<g>
			<path class="st18" d="M242.1,230c-2.8-2-5.5-4.2-8-6.5c-0.1-0.1-0.4,0.1-0.2,0.2c2.5,2.4,5.2,4.5,8.1,6.5
				C242.1,230.3,242.2,230.1,242.1,230L242.1,230z"/>
		</g>
	</g>
	<g>
		<g>
			<path class="st18" d="M240.2,229.1c-3.3-1.8-6.4-3.9-9.5-6.2c-0.1-0.1-0.3,0.1-0.1,0.3c3,2.3,6.2,4.3,9.5,6.1
				C240.2,229.4,240.3,229.2,240.2,229.1L240.2,229.1z"/>
		</g>
	</g>
	<g>
		<g>
			<path class="st18" d="M239.7,230.4c-2.9-1.8-5.7-3.5-8.6-5.1c-0.2-0.1-0.3,0.2-0.2,0.3c2.9,1.6,5.9,3.2,8.7,5
				C239.7,230.6,239.8,230.5,239.7,230.4L239.7,230.4z"/>
		</g>
	</g>
	<g>
		<g>
			<path class="st18" d="M238.3,230.3c-3.6-1.6-7.1-3.3-10.7-4.9c-0.2-0.1-0.3,0.2-0.1,0.3c3.6,1.7,7.2,3.2,10.8,4.9
				C238.3,230.5,238.4,230.3,238.3,230.3L238.3,230.3z"/>
		</g>
	</g>
	<g>
		<g>
			<path class="st18" d="M234.5,229.7c-3.5-1-6.9-2.3-10.2-3.9c-0.1-0.1-0.3,0.1-0.1,0.2c3.3,1.6,6.7,2.9,10.3,3.9
				C234.5,230,234.6,229.8,234.5,229.7L234.5,229.7z"/>
		</g>
	</g>
	<g>
		<g>
			<path class="st18" d="M235.3,225.1c-2.9-1.1-5.7-2.2-8.6-3.3c-0.2-0.1-0.3,0.2-0.1,0.3c2.9,1.1,5.8,2.2,8.6,3.3
				C235.4,225.4,235.5,225.1,235.3,225.1L235.3,225.1z"/>
		</g>
	</g>
	<g>
		<g>
			<path class="st18" d="M233.4,223.8c-3.3-0.6-6.6-1.2-9.9-1.7c-0.2,0-0.2,0.2-0.1,0.3c3.3,0.6,6.6,1.1,10,1.6
				C233.4,224,233.5,223.8,233.4,223.8L233.4,223.8z"/>
		</g>
	</g>
	<g>
		<g>
			<path class="st18" d="M233.1,225.4c-4.4-0.4-8.8-1.1-13.2-2c-0.2,0-0.3,0.3-0.1,0.4c4.4,0.9,8.8,1.4,13.3,1.8
				C233.2,225.6,233.2,225.5,233.1,225.4L233.1,225.4z"/>
		</g>
	</g>
	<g>
		<g>
			<path class="st18" d="M232.1,226c-3.7-0.9-7.5-1.7-11.4-2.2c-0.2,0-0.3,0.3-0.1,0.3c3.8,0.5,7.6,1.3,11.4,2.2
				C232.2,226.4,232.3,226.1,232.1,226L232.1,226z"/>
		</g>
	</g>
	<g>
		<g>
			<path class="st18" d="M226.6,225.6c-3.7-0.3-7.4-0.6-11.1-0.8c-0.2,0-0.2,0.3,0,0.3c3.7,0.3,7.4,0.5,11.1,0.8
				C226.9,226,226.9,225.6,226.6,225.6L226.6,225.6z"/>
		</g>
	</g>
	<g>
		<g>
			<path class="st18" d="M224.7,226.1c-3.3,0.2-6.6,0.3-10,0.5c-0.2,0-0.2,0.3,0,0.3c3.3-0.2,6.6-0.4,10-0.6
				C224.9,226.3,224.9,226.1,224.7,226.1L224.7,226.1z"/>
		</g>
	</g>
	<g>
		<g>
			<path class="st18" d="M224.8,225.8c-4-0.7-8.1-1.1-12.2-1.1c-0.2,0-0.2,0.3,0,0.3c4.1,0.1,8.1,0.4,12.1,1.1
				C224.9,226.2,225,225.9,224.8,225.8L224.8,225.8z"/>
		</g>
	</g>
	<g>
		<g>
			<path class="st18" d="M221.2,223.4c-4.2-0.2-8.5-0.1-12.7,0.6c-0.2,0-0.1,0.4,0.1,0.4c4.2-0.6,8.4-0.8,12.6-0.6
				C221.5,223.8,221.5,223.4,221.2,223.4L221.2,223.4z"/>
		</g>
	</g>
	<g>
		<g>
			<path class="st18" d="M218.5,223.1c-4.2,1-8.4,1.4-12.7,1.6c-0.2,0-0.2,0.4,0,0.4c4.3-0.1,8.6-0.7,12.7-1.7
				C218.8,223.3,218.7,223,218.5,223.1L218.5,223.1z"/>
		</g>
	</g>
	<g>
		<g>
			<path class="st18" d="M229.9,224.2c-3.2-0.6-6.5-0.9-9.8-0.9c-0.3,0-0.3,0.4,0,0.4c3.2,0,6.5,0.3,9.7,0.8
				C230.1,224.6,230.1,224.3,229.9,224.2L229.9,224.2z"/>
		</g>
	</g>
	<g>
		<g>
			<path class="st18" d="M231.5,225.4c-4-1.4-8-2.7-12.1-3.6c-0.2-0.1-0.3,0.3-0.1,0.4c4.1,1,8.1,2.1,12.1,3.5
				C231.6,225.7,231.7,225.4,231.5,225.4L231.5,225.4z"/>
		</g>
	</g>
	<g>
		<g>
			<path class="st18" d="M238.3,228.5c-3.7-1.4-7.3-2.8-11-4.1c-0.2-0.1-0.3,0.2-0.1,0.3c3.7,1.4,7.4,2.7,11.1,4
				C238.4,228.9,238.4,228.6,238.3,228.5L238.3,228.5z"/>
		</g>
	</g>
	<g>
		<g>
			<path class="st18" d="M233.6,230.1c-3.6-0.6-7.1-1.6-10.5-2.9c-0.2-0.1-0.3,0.2-0.1,0.3c3.4,1.4,6.9,2.2,10.5,2.8
				C233.7,230.3,233.8,230.1,233.6,230.1L233.6,230.1z"/>
		</g>
	</g>
	<g>
		<g>
			<path class="st18" d="M238.6,229.6c-2.2-1-4.3-2-6.5-2.9c-0.2-0.1-0.3,0.2-0.1,0.2c2.2,1,4.4,1.9,6.5,2.9
				C238.6,229.8,238.7,229.7,238.6,229.6L238.6,229.6z"/>
		</g>
	</g>
	<g>
		<g>
			<path class="st18" d="M238.1,227.4c-4.1-2.4-8.6-3.9-13.3-4.2c-0.2,0-0.2,0.3,0,0.3c4.6,0.3,9.2,1.6,13.3,4
				C238.1,227.6,238.1,227.5,238.1,227.4L238.1,227.4z"/>
		</g>
	</g>
	<g>
		<g>
			<path class="st18" d="M225.1,222.9c-3.6-1.1-7.6-1.7-11.4-1.4c-0.2,0-0.2,0.3,0,0.3c3.9-0.1,7.6,0.3,11.3,1.3
				C225.1,223.3,225.2,223,225.1,222.9L225.1,222.9z"/>
		</g>
	</g>
	<g>
		<g>
			<path class="st18" d="M219.6,222.8c-3.9-0.8-7.9-1.6-11.8-2.1c-0.2,0-0.2,0.3-0.1,0.3c3.9,0.7,7.9,1.2,11.8,2
				C219.7,223.1,219.8,222.8,219.6,222.8L219.6,222.8z"/>
		</g>
	</g>
	<g>
		<g>
			<path class="st18" d="M213.7,220.5c-2,0-4,0.3-6,0.7c-1.9,0.4-3.9,1-5.7,1.9c-0.2,0.1-0.1,0.4,0.1,0.3c1.8-0.7,3.6-1.5,5.6-1.9
				c2-0.5,4-0.7,6-0.8C213.9,220.8,213.9,220.5,213.7,220.5L213.7,220.5z"/>
		</g>
	</g>
	<g>
		<g>
			<path class="st18" d="M209.9,223.6c-0.8,0.2-1.6,0.4-2.4,0.5c-0.1,0-0.1,0.2,0,0.2C208.3,224.1,209.1,223.9,209.9,223.6
				C210,223.7,210,223.6,209.9,223.6L209.9,223.6z"/>
		</g>
	</g>
	<g>
		<g>
			<path class="st18" d="M212.9,223.6c-3.4-1.1-7-1-10.3,0.3c-0.2,0.1-0.1,0.5,0.1,0.4C206,223.1,209.5,222.9,212.9,223.6
				C212.9,223.8,212.9,223.6,212.9,223.6L212.9,223.6z"/>
		</g>
	</g>
	<g>
		<g>
			<path class="st18" d="M212.3,224.8c-3.1,0.4-6.3,0.4-9.4,0.3c-0.2,0-0.2,0.3,0,0.4c3.1,0.3,6.3,0,9.5-0.4
				C212.5,224.9,212.4,224.8,212.3,224.8L212.3,224.8z"/>
		</g>
	</g>
	<g>
		<g>
			<path class="st18" d="M211,225.1c-1.8-0.2-3.5-0.4-5.3-0.3c-1.8,0.1-3.6,0.3-5.3,0.8c-0.2,0.1-0.1,0.4,0.1,0.3
				c1.8-0.3,3.5-0.7,5.3-0.8c1.7-0.1,3.5-0.1,5.2,0.1C211.1,225.2,211.1,225.1,211,225.1L211,225.1z"/>
		</g>
	</g>
	<g>
		<g>
			<path class="st18" d="M206.4,224.6c-2.5,0.4-5.1,0.8-7.6,1.2c-0.2,0-0.1,0.3,0.1,0.3c2.5-0.4,5-0.9,7.6-1.3
				C206.6,224.8,206.5,224.6,206.4,224.6L206.4,224.6z"/>
		</g>
	</g>
	<g>
		<g>
			<path class="st18" d="M203.4,224.5c-1,0.4-2,0.7-3,1.1c-0.1,0.1-0.1,0.3,0.1,0.3c1-0.3,2-0.7,3-1.1
				C203.6,224.7,203.6,224.4,203.4,224.5L203.4,224.5z"/>
		</g>
	</g>
	<g>
		<g>
			<path class="st18" d="M220.2,226.2c-3.6-0.3-7.2-0.4-10.8-0.1c-0.3,0-0.3,0.4,0,0.4c3.6-0.3,7.2-0.3,10.8-0.1
				C220.3,226.4,220.3,226.2,220.2,226.2L220.2,226.2z"/>
		</g>
	</g>
	<g>
		<g>
			<path class="st18" d="M220.7,225.9c-3.1-0.7-6.4-0.8-9.5-0.4c-0.2,0-0.1,0.4,0.1,0.4c3.1-0.4,6.3-0.4,9.3,0.3
				C220.8,226.2,220.9,226,220.7,225.9L220.7,225.9z"/>
		</g>
	</g>
	<g>
		<g>
			<path class="st18" d="M217.7,222.3c-4.1-0.5-8.2-0.4-12.2,0.8c-0.2,0.1-0.1,0.4,0.1,0.3c4-0.9,8-1.4,12.1-1
				C217.8,222.4,217.8,222.3,217.7,222.3L217.7,222.3z"/>
		</g>
	</g>
	<g>
		<g>
			<path class="st18" d="M216.7,223.2c-4.7-1-9.9-0.8-14.4,1c-0.2,0.1-0.1,0.4,0.1,0.3c4.6-1.6,9.4-2.1,14.2-1.1
				C216.8,223.5,216.9,223.2,216.7,223.2L216.7,223.2z"/>
		</g>
	</g>
	<g>
		<g>
			<path class="st18" d="M205.8,222.1c-2.2,0.9-4.4,1.9-6.5,3c-0.2,0.1,0,0.4,0.2,0.3c2.1-1.2,4.2-2.3,6.4-3.2
				C205.9,222.2,205.9,222.1,205.8,222.1L205.8,222.1z"/>
		</g>
	</g>
	<g>
		<g>
			<path class="st18" d="M230.7,223.6c-4-0.6-8-1.4-12.1-1.9c-0.2,0-0.3,0.3-0.1,0.3c4,0.6,8.1,1.2,12.1,1.8
				C230.7,223.8,230.8,223.6,230.7,223.6L230.7,223.6z"/>
		</g>
	</g>
	<g>
		<g>
			<path class="st18" d="M233.9,227.8c-4.1-1.4-8.3-2.5-12.6-2.9c-0.2,0-0.2,0.3,0,0.3c4.3,0.6,8.5,1.4,12.6,2.7
				C233.9,228,234,227.8,233.9,227.8L233.9,227.8z"/>
		</g>
	</g>
	<g>
		<g>
			<path class="st18" d="M233.9,229.4c-4.8-1.6-9.6-3.2-14.5-4.7c-0.2-0.1-0.3,0.2-0.1,0.3c4.8,1.6,9.7,3.1,14.5,4.7
				C234,229.7,234.1,229.5,233.9,229.4L233.9,229.4z"/>
		</g>
	</g>
	<g>
		<g>
			<path class="st18" d="M235.8,229.4c-3-0.9-5.9-1.9-8.9-2.8c-0.2-0.1-0.3,0.2-0.1,0.3c2.9,0.9,5.9,1.8,8.9,2.8
				C235.9,229.7,236,229.5,235.8,229.4L235.8,229.4z"/>
		</g>
	</g>
	<g>
		<g>
			<path class="st18" d="M277,231.4c1.6-1.4,3.2-2.7,5.1-3.8c1.8-1.1,3.8-1.9,5.8-2.6c0.2-0.1,0.1-0.4-0.1-0.3c-2,0.6-4,1.6-5.9,2.7
				c-1.8,1.1-3.6,2.4-5.1,4C276.8,231.4,277,231.5,277,231.4L277,231.4z"/>
		</g>
	</g>
	<g>
		<g>
			<path class="st18" d="M276.3,232.9c3.6-2.4,7.5-4.4,11.5-6c0.2-0.1,0.1-0.4-0.1-0.4c-4.1,1.5-8,3.6-11.6,6.1
				C276,232.7,276.2,233,276.3,232.9L276.3,232.9z"/>
		</g>
	</g>
	<g>
		<g>
			<path class="st18" d="M278.5,232.3c3.5-2.3,7.3-3.8,11.3-5c0.2-0.1,0.1-0.4-0.1-0.3c-4,1-7.9,2.9-11.4,5.1
				C278.2,232.2,278.3,232.4,278.5,232.3L278.5,232.3z"/>
		</g>
	</g>
	<g>
		<g>
			<path class="st18" d="M280.4,232.7c4-2.2,8.4-3.8,12.9-4.9c0.2-0.1,0.1-0.4-0.1-0.4c-4.5,1-8.9,2.7-13,4.9
				C280.1,232.5,280.2,232.8,280.4,232.7L280.4,232.7z"/>
		</g>
	</g>
	<g>
		<g>
			<path class="st18" d="M281.9,233.5c4.5-2.8,9.4-4.7,14.6-5.8c0.2-0.1,0.1-0.4-0.1-0.3c-5.2,0.9-10.2,3-14.7,5.9
				C281.6,233.4,281.7,233.6,281.9,233.5L281.9,233.5z"/>
		</g>
	</g>
	<g>
		<g>
			<path class="st18" d="M283.3,231.5c4.3-2.4,9.1-4,14-4.7c0.2,0,0.1-0.4,0-0.3c-5,0.6-9.8,2.3-14.1,4.8
				C283,231.3,283.1,231.6,283.3,231.5L283.3,231.5z"/>
		</g>
	</g>
	<g>
		<g>
			<path class="st18" d="M283.1,228.9c5.2-2.9,10.8-4.4,16.6-5.1c0.2,0,0.2-0.4,0-0.3c-5.9,0.4-11.7,2.3-16.8,5.1
				C282.7,228.7,282.9,229,283.1,228.9L283.1,228.9z"/>
		</g>
	</g>
	<g>
		<g>
			<path class="st18" d="M285,227.3c5-2.6,10.5-3.9,16.1-4.1c0.2,0,0.2-0.3,0-0.3c-5.6,0-11.3,1.6-16.3,4.1
				C284.6,227.1,284.8,227.4,285,227.3L285,227.3z"/>
		</g>
	</g>
	<g>
		<g>
			<path class="st18" d="M287.1,229.4c5.2-2.5,10.8-4.1,16.6-4.9c0.2,0,0.2-0.4,0-0.3c-5.8,0.6-11.5,2.3-16.8,4.9
				C286.8,229.3,287,229.5,287.1,229.4L287.1,229.4z"/>
		</g>
	</g>
	<g>
		<g>
			<path class="st18" d="M288.2,231.2c5.2-2.5,10.9-4.1,16.7-4.8c0.2,0,0.2-0.4,0-0.4c-5.9,0.6-11.5,2.3-16.8,4.9
				C287.9,231.1,288,231.3,288.2,231.2L288.2,231.2z"/>
		</g>
	</g>
	<g>
		<g>
			<path class="st18" d="M289.7,231.1c4.4-1.7,8.9-2.8,13.5-3.6c0.2,0,0.1-0.4,0-0.3c-4.6,0.6-9.2,1.9-13.5,3.7
				C289.5,231,289.6,231.2,289.7,231.1L289.7,231.1z"/>
		</g>
	</g>
	<g>
		<g>
			<path class="st18" d="M294.3,226.9c4.3-1.6,8.9-2.3,13.5-1.9c0.2,0,0.2-0.3,0-0.3c-4.6-0.5-9.3,0.2-13.5,1.9
				C294.1,226.7,294.1,227,294.3,226.9L294.3,226.9z"/>
		</g>
	</g>
	<g>
		<g>
			<path class="st18" d="M298.1,225.6c4-2,8.6-2.3,12.8-0.9c0.2,0.1,0.3-0.3,0.1-0.3c-4.3-1.5-9-1.1-13.1,1
				C297.8,225.4,298,225.6,298.1,225.6L298.1,225.6z"/>
		</g>
	</g>
	<g>
		<g>
			<path class="st18" d="M299,224.7c4-2,8.6-2.2,12.8-0.9c0.2,0.1,0.3-0.2,0.1-0.3c-4.2-1.5-9.1-1.1-13.1,0.9
				C298.6,224.5,298.8,224.8,299,224.7L299,224.7z"/>
		</g>
	</g>
	<g>
		<g>
			<path class="st18" d="M301.9,222.9c3.2-0.4,6.5-0.4,9.7,0.1c0.2,0,0.2-0.3,0-0.3c-3.2-0.5-6.5-0.5-9.8,0
				C301.7,222.6,301.6,222.9,301.9,222.9L301.9,222.9z"/>
		</g>
	</g>
	<g>
		<g>
			<path class="st18" d="M294.1,227.7c3.6-1.4,7.4-2,11.3-1.9c0.2,0,0.2-0.3,0-0.3c-3.9-0.1-7.7,0.5-11.4,1.9
				C293.9,227.5,293.9,227.8,294.1,227.7L294.1,227.7z"/>
		</g>
	</g>
	<g>
		<g>
			<path class="st18" d="M290.6,226.9c4.4-1.8,9-3,13.8-3.7c0.2,0,0.1-0.3-0.1-0.3c-4.7,0.6-9.4,1.9-13.8,3.7
				C290.3,226.7,290.4,227,290.6,226.9L290.6,226.9z"/>
		</g>
	</g>
	<g>
		<g>
			<path class="st18" d="M287.3,229.4c4.4-1.7,8.9-2.9,13.5-3.6c0.2,0,0.1-0.4,0-0.3c-4.6,0.6-9.2,1.9-13.6,3.6
				C287,229.1,287.1,229.4,287.3,229.4L287.3,229.4z"/>
		</g>
	</g>
	<g>
		<g>
			<path class="st18" d="M285.8,231.8c5.8-2.7,12-4.4,18.3-5.4c0.2,0,0.1-0.3,0-0.3c-6.4,0.9-12.5,2.8-18.4,5.5
				C285.5,231.7,285.6,231.9,285.8,231.8L285.8,231.8z"/>
		</g>
	</g>
	<g>
		<g>
			<path class="st18" d="M301.1,226.3c5-0.9,10.2-0.6,15.1,0.9c0.2,0.1,0.3-0.2,0.1-0.3c-4.9-1.6-10.1-1.8-15.2-0.8
				C300.9,226.1,301,226.3,301.1,226.3L301.1,226.3z"/>
		</g>
	</g>
	<g>
		<g>
			<path class="st18" d="M308,226c3.5,0.5,6.8,1.4,10,2.8c0.2,0.1,0.3-0.2,0.1-0.3c-3.2-1.4-6.6-2.3-10.1-2.8
				C307.9,225.7,307.8,226,308,226L308,226z"/>
		</g>
	</g>
	<g>
		<g>
			<path class="st18" d="M306.4,225.7c3.3-0.9,6.6-0.5,9.7,0.8c0.2,0.1,0.3-0.2,0.1-0.3c-3.1-1.4-6.6-1.6-9.9-0.8
				C306.2,225.4,306.2,225.8,306.4,225.7L306.4,225.7z"/>
		</g>
	</g>
	<g>
		<g>
			<path class="st18" d="M306.4,225.3c1.8-1.2,4.1-1.5,6.2-1.1c2.3,0.4,4.2,1.4,6.2,2.5c0.2,0.1,0.3-0.1,0.1-0.3
				c-3.7-2.3-8.7-4-12.7-1.4C306.1,225.1,306.3,225.4,306.4,225.3L306.4,225.3z"/>
		</g>
	</g>
	<g>
		<g>
			<path class="st18" d="M305.9,223.1c3.9-1.8,7.9,0.1,11.3,2.1c0.2,0.1,0.3-0.1,0.1-0.3c-3.4-2.1-7.7-3.9-11.5-2
				C305.6,222.9,305.8,223.1,305.9,223.1L305.9,223.1z"/>
		</g>
	</g>
	<g>
		<g>
			<path class="st18" d="M296.8,227.5c4.9-1.7,10.2-2.2,15.3-1.5c0.2,0,0.3-0.3,0.1-0.3c-5.2-0.7-10.5-0.2-15.4,1.6
				C296.6,227.3,296.6,227.5,296.8,227.5L296.8,227.5z"/>
		</g>
	</g>
	<g>
		<g>
			<path class="st18" d="M284.9,228.4c7.7-2.8,15.7-4.7,23.8-5.8c0.2,0,0.1-0.3,0-0.3c-8.1,1-16.1,3-23.8,5.9
				C284.7,228.2,284.7,228.4,284.9,228.4L284.9,228.4z"/>
		</g>
	</g>
	<g>
		<g>
			<path class="st18" d="M289,230.7c6.3-2.8,13-4,19.9-4.1c0.2,0,0.2-0.3,0-0.3c-6.8-0.2-13.8,1.4-20,4.3
				C288.8,230.6,288.9,230.8,289,230.7L289,230.7z"/>
		</g>
	</g>
	<g>
		<g>
			<path class="st18" d="M296.2,228c6.4-1.7,13.2-1.7,19.6-0.4c0.2,0,0.3-0.3,0.1-0.3c-6.5-1.5-13.3-1.2-19.7,0.5
				C296.1,227.9,296.1,228,296.2,228L296.2,228z"/>
		</g>
	</g>
	<g>
		<g>
			<path class="st18" d="M303,225.7c3.8-0.6,7.5-0.4,11.2,0.4c0.2,0,0.3-0.2,0.1-0.3c-3.7-0.9-7.6-1-11.4-0.4
				C302.8,225.5,302.8,225.7,303,225.7L303,225.7z"/>
		</g>
	</g>
</g>
<g id="hår">
	<g>
		<path class="st19" d="M183.3,364.5c-8.5-7.5-12.8-18.6-15.4-29.6c-2.6-11-3.7-22.4-7.4-33.1c-3-8.7-7.6-16.8-11-25.4
			c-8.2-20.6-9.4-43.7-4.8-65.4s14.7-42,27.9-59.8c5-6.7,10.5-13.2,17.1-18.4c6.7-5.4,14.4-9.4,22.4-12.7c20.5-8.6,44-12.5,65-5.1
			c10.3,3.6,19.5,9.7,28.5,15.8c4.9,3.3,9.9,6.6,14.2,10.6c4,3.7,7.5,8.1,10.9,12.4c10,12.6,20.4,25.9,22.9,41.8
			c1.5,9.2,0.1,18.7,0.5,28c0.4,8.8,2.4,17.6,1.7,26.5c-2.1,26.9-27.9,47.2-31,74c-0.8,7,0,14.4-2.6,21c-2.7,7.1-9.5,12.6-17,13.9
			c17-20.9,23-48.6,24.7-75.5c0.5-7.3,0.6-14.7-0.6-21.9c-1.1-6.5-3.2-12.8-5.5-19c-9.6-26.3-21.7-52.4-23.5-80.3
			c-1.9,8.6-3.9,17.4-8.1,25.2s-11.1,14.6-19.8,16.6c-8.4,1.9-17-0.7-25.5-2.2c-16.6-2.8-35.3-0.2-47.2,11.8
			c-6.6,6.7-10.5,15.6-14.2,24.3s-1.7,22.1-3.3,31.4c-5.9,34.1,16.3,58.5,8.2,92.2c-1.4-1.3-7.2,3.2-8.6,1.9"/>
	</g>
</g>
<path class="st20" d="M19.6,195.7V20.5c0,0,0-0.3,0-0.6h175.2"/>
<path class="st20" d="M18.3,295.6v175.2c0,0,0,4,0,8c1.3,0,2.7,0,2.7,0h175.2"/>
<circle class="st20" cx="19.6" cy="216.1" r="8.4"/>
<circle class="st20" cx="19.6" cy="238.5" r="8.5"/>
<circle class="st20" cx="19.6" cy="261.9" r="8.4"/>
<circle class="st20" cx="19.6" cy="283" r="8.4"/>
<path class="st20" d="M478.4,303.3v175.2c0,0,0,0.3,0,0.6H303.2"/>
<path class="st20" d="M478.4,203.1V27.9c0,0,0-4,0-8c-4.2,0-8.5,0-8.5,0H294.7"/>
<circle class="st20" cx="478.4" cy="282.9" r="8.4"/>
<circle class="st20" cx="478.4" cy="260.5" r="8.5"/>
<circle class="st20" cx="478.4" cy="237.1" r="8.4"/>
<circle class="st20" cx="478.4" cy="216" r="8.4"/>
<g>
	<polyline class="st20" points="61.95,39 44.46,39 44.46,56.8 	"/>
	<polyline class="st20" points="116.34,39 133.83,39 133.83,56.8 	"/>
	<polyline class="st20" points="61.95,128.11 44.46,128.11 44.46,110.31 	"/>
	<polyline class="st20" points="116.34,128.11 133.83,128.11 133.83,110.31 	"/>
</g>
</svg>
