<?xml version="1.0" encoding="utf-8"?>
<!-- Generator: Adobe Illustrator 24.0.0, SVG Export Plug-In . SVG Version: 6.00 Build 0)  -->
<svg version="1.1" xmlns="http://www.w3.org/2000/svg" xmlns:xlink="http://www.w3.org/1999/xlink" x="0px" y="0px" width="500px"
	 height="500px" viewBox="0 0 500 500" style="enable-background:new 0 0 500 500;" xml:space="preserve">
<style type="text/css">
	.st0{fill:#3E383C;}
	.st1{opacity:0.46;}
	.st2{fill:#5F6863;}
	.st3{fill:#69746E;}
	.st4{fill:#725B51;}
	.st5{stroke:#0E0F0E;stroke-miterlimit:10;}
	.st6{fill:#7D8982;}
	.st7{fill:#191B18;}
	.st8{fill:#8D9992;}
	.st9{fill:#1D1C18;}
	.st10{opacity:0.52;}
	.st11{fill:#6D6B61;}
	.st12{fill:#111715;}
	.st13{fill:#060608;}
	.st14{fill:#181003;}
	.st15{fill:#2B443A;}
	.st16{fill:#929463;stroke:#0E0F0E;stroke-miterlimit:10;}
	.st17{fill:#1F1410;}
	.st18{fill:none;stroke:#000000;stroke-width:2;stroke-miterlimit:10;}
</style>
<g id="backgrund">
	<rect class="st0" width="503" height="503"/>
</g>
<g id="skugga" class="st1">
	<g>
		<g>
			<path d="M44.9,504.3c-2.5-28.6,0.3-57.6,8.3-85.2c4.7-16,11.5-32.2,24.2-43.1c24.3-20.8,62-16.3,89-33.3
				c5.7-3.6,11-8.2,17.4-10.1c11.1-3.2,22.8,2.2,32.6,8.4c9.8,6.1,19.7,13.4,31.3,14c29.3,1.8,44.4-29.7,73.7-30.6
				c6-0.2,20.3,1.2,26,3c31.5,10,25.6,17.5,53,36c2.3,1.6,16.1,16.9,18,19c4.8,5.2,11.9,18,13,25c6,38.6-0.8,81-3,120"/>
		</g>
		<g>
			<path d="M447.8,505.7c-29.1,5.4-58.8,7.4-88.3,6c2.5-18.1,5-36.4,11.2-53.6c3.6-10.1,7.8-23-0.2-30c-3.9,27.6-7.8,55.3-11.7,82.9
				c-0.3,2.2-0.7,4.6-2.3,6.2c-1.6,1.6-4,2-6.3,2.3c-12.3,1.6-24.7,3.2-37,4.8c-11.3,1.5-22.6,2.9-34,3.5
				c-10.6,0.5-21.2,0.2-31.9-0.2c-13.1-0.4-26.2-0.8-39.2-1.2c-20.1-0.6-40.3-1.2-60.2-4.4c-8-1.3-17-3.8-20.6-11.1
				c-2.1-4.4-1.7-9.5-1.4-14.4c1.8-24.8,1.1-49.8-2-74.5c2.9,22.9,4.1,46,3.6,69.1c-0.1,3.9-0.7,8.6-4.2,10.5
				c-1.6,0.9-3.6,0.9-5.5,0.9c-24.3,0-48.6,0-72.9-0.1"/>
		</g>
		<g>
			<path d="M212.9,464.9c6.2,7.3,10.5,16.3,12.2,25.7c1.6-2.6,1.8-5.9,3.2-8.6c0.7-1.2,1.6-2.3,2.4-3.3c3.2-3.8,6.4-7.6,9.6-11.4"/>
			<g>
				<path class="st2" d="M212.1,465.4c1,2.1,2.5,3.9,3.7,5.9c1.3,2,2.5,4.1,3.5,6.3c2,4.3,3.5,8.8,4.4,13.5c0.3,1.3,2.2,1.5,2.8,0.4
					c1.1-2,1.6-4.1,2.3-6.3c0.7-2.1,1.7-3.7,3.1-5.4c1.6-1.9,3.2-3.8,4.8-5.7c1.7-2,3.6-3.9,4.9-6.1c0.8-1.4-1-2.5-2.1-1.6
					c-2,1.7-3.6,4-5.2,6c-1.6,1.9-3.3,3.9-4.9,5.8c-1.4,1.7-2.5,3.4-3.3,5.4c-0.8,2.1-1.1,4.4-2.3,6.3c0.9,0.1,1.8,0.2,2.8,0.4
					c-0.9-4.9-2.5-9.7-4.6-14.2c-1.1-2.2-2.3-4.4-3.7-6.4c-1.4-2.1-2.8-4.1-4.9-5.5C212.5,463.4,211.7,464.6,212.1,465.4
					L212.1,465.4z"/>
			</g>
		</g>
		<g>
			<path d="M336.2,520c-39.4,3-78.7,6-118.1,9c-9.1,0.7-18.3,1.4-27.5,1.8c-28.3,1.3-56.6-0.2-84.6-4.3
				c-0.6-54.3-1.3-108.5-1.9-162.8c9.8-7.5,22.2-11.7,34.6-11.6c1.3,0,2.7,0.1,3.9,0.8c2.2,1.4,2.3,4.5,2.1,7
				c-0.5,8.1-1.3,16.2-1.9,24.3c-1.8,26.4-0.8,52.9,0.2,79.3c0.1,3.8,0.3,7.8,2.2,11.1c2.4,4.1,6.9,6.4,11.3,8.2
				c13,5.2,27,7.9,41,7.9c16.6,0,33.1-3.8,49.7-3.2c6.4,0.2,12.8,1.1,19.1,0.2c5.2-0.7,10.1-2.6,15-4.4c7.3-2.8,15.1-5.9,19.5-12.4
				c4.4-6.4,4.5-14.8,4.4-22.6c-0.3-35.3-0.6-70.6-0.8-105.9c-0.1-8.1,0.9-17.9,8.3-21.2c5.3-2.4,11.5,0,16.9,2.3
				c4.8,2.1,9.9,4.5,12.7,9c2.2,3.6,2.5,7.9,2.8,12.1c1.4,21.9,1.7,43.9,1.1,65.9c-0.2,8.5-0.6,17,0.3,25.5
				c0.7,6.3,2.1,12.4,3.3,18.6c2.8,15.2,3.8,30.8,3,46.2c-0.3,6.4-1.1,13.2-4.9,18.4c-3.7-0.9-7.7-0.8-11.4,0.3"/>
		</g>
		<g>
			<path d="M168.1,515.4c6.9,3.9,14.7,6.1,22.6,6.4"/>
			<g>
				<path class="st3" d="M167.3,516.7c7.1,4.1,15.2,6.3,23.4,6.6c1.9,0.1,1.9-2.9,0-3c-7.7-0.3-15.2-2.4-21.9-6.2
					C167.1,513.2,165.6,515.7,167.3,516.7L167.3,516.7z"/>
			</g>
		</g>
		<g>
			<path d="M364.8,512.5c18.5-5.5,36.4-13.2,53.1-23c8-4.7,16.4-10.8,18-19.9c0.9-4.8-0.4-9.7-1.6-14.5c-2.2-8.5-4.3-17.1-6.5-25.6
				c-0.2-0.8-0.4-1.7-0.3-2.6c0.1-0.7,0.5-1.3,0.8-1.9c2.2-4.3,1.1-9.7-1.5-13.7c-2.6-4.1-6.5-7.1-10.3-10
				c-6.3-4.9-12.6-9.8-18.9-14.6c-5.2-4-10.7-8.5-12.2-14.8c-0.8-3.1-0.5-6.5-1.3-9.6c-3-11.4-28.9-20.8-32.3-32.1
				c0,0.2,0.1,0.2,0.1,0.2c2.8,10.1,8.4,19.4,16.1,26.5c2.3,2.1,4.9,4.2,6.5,6.9c1.5,2.7,2,5.8,2.9,8.8c2.5,8.3,8.6,15,15.3,20.7
				c6.6,5.6,13.9,10.5,19.9,16.7c3,3,5.8,7.3,4.3,11.3c-0.3,0.8-0.8,1.6-0.9,2.4c-0.2,2.1,1.8,3.7,3.1,5.3c2.2,2.7,2.9,6.2,3.5,9.6
				c1.4,7.5,2.7,15.2,2,22.8c-0.7,7.6-3.8,15.3-9.8,20c-2.4,1.9-5.2,3.2-7.9,4.4c-13.2,6-26.8,11.2-40.6,15.6
				c-4.3,1.3-9.3,3.2-10.7,7.4c-0.6,1.8-0.3,4.2,1.5,5c1.2,0.6,2.6,0.2,3.8-0.1C362.2,513.2,363.5,512.9,364.8,512.5z"/>
		</g>
		<g>
			<path d="M329.2,514.4c-0.2,0.2-0.4,0.3-0.7,0.5c-2.6-5.8-4.2-12-5.8-18.2c-1-3.9-2-7.7-3-11.6c-4.3-16.2-8.5-32.6-9.8-49.3
				c-0.3-4.4-0.5-8.9-0.4-13.3c0.2-11,1.7-21.9,3.2-32.7c1.3-9.8,2.7-19.7,4-29.5c0.5-3.9,1.1-7.8,2.1-11.6c1.2-4.4,3-8.6,3.2-13.2
				c0.2-3.7-0.7-7.4-0.3-11.1c0.5-4.7,4.2-9.8,9.8-7.3c-3.2,3-4.1,8.8-4.3,13.6c-1.2,23.9-6.6,47.3-11.8,70.7
				c-1.8,8-3.5,16.1-2.5,24.2c0.5,4.3,1.8,8.5,2.6,12.8c0.7,3.8,1.1,7.8,1.7,11.6c3.1,19.9,12.1,38.7,13.5,58.8
				C330.8,510.8,330.6,513.2,329.2,514.4z"/>
		</g>
		<g>
			<path d="M356.8,325.4c4.3,11.8,13.3,23.2,10.4,35.4c-1.8,7.3-7.6,12.9-10.7,19.8c-3.3,7.3-3.9,16.5-10.4,21.1
				c-1.2,0.8-2.6,1.5-3.6,2.6c-1.1,1.2-1.5,2.8-2.4,4.2c-2.1,3-6.1,3.9-9.4,5.7c-6.9,3.9-9.9,12.2-15.9,17.3c-1.9,1.7-4.2,3-6.3,4.4
				c-3.9,2.5-7.5,5.3-11,8.4c-8.5,7.6-15.8,17-26.1,22.2c-2.8,1.4-5.7,2.4-8.3,4.1c-2.6,1.6-4.9,3.8-7.3,5.8
				c-3.8,3.1-7.9,5.8-12.1,8.4c-9.8,6.2-19.5,12.5-29.3,18.7c-2,1.3-4.1,2.7-5.2,4.7c-1.1,2.1-0.9,5.1,1.1,6.4
				c2.7,1.7,6.1-0.8,8.5-2.9c6.2-5.6,13.2-10.3,20.2-14.8c19.3-12.7,38.7-25.3,58-38c2-1.3,4.1-2.7,5.8-4.4c1.8-1.8,3.2-3.9,4.8-6
				c3.8-5.1,8.3-9.7,12.8-14.2c5.4-5.5,10.8-11,16.8-15.8c2.7-2.1,5.5-4.1,7.8-6.6c3.4-3.5,5.8-7.7,8.2-11.9
				c8.6-15,17.4-30.8,17.8-48.1c0.2-10.5-3.9-22.4-13.6-26.5"/>
		</g>
		<g>
			<path d="M350.7,519.3c-1.4-0.8-2.2-2.5-2.9-4.1c-4.2-9.9-7-20.4-8.4-31c-0.9-6.4-1.2-12.8-1.8-19.2c-1.4-14.6-4.1-29.1-8-43.3
				c-1.1-4-2.4-8.1-2.7-12.3c-0.3-4,0.2-8,0.7-11.9c1.5-11.7,2.9-23.4,4.4-35.2c1.8-14.7,3.8-29.8,12.3-42.4
				c-2.4,12.5-4.7,25.1-6.8,37.7c-3.2,19.7-6,39.8-2.9,59.5c1.3,8.5,3.8,16.7,5.2,25.2c2.7,16.6,1.5,33.8,5.7,50.2
				c2.3,9.1,6.4,17.9,6.2,27.3C351.3,519.6,351,519.5,350.7,519.3z"/>
		</g>
		<g>
			<path d="M136.4,429.2c-0.5,3.1-0.6,6.2-0.1,9.4c12-21.4,20.3-44.9,24.5-69c0.9-5.5,1.7-11.1,4.1-16.1c1.7-3.6,4.3-6.8,6.8-10
				c3.2-4.1,6.5-8.1,9.7-12.2c4.5-1,6-6.8,3.5-10.3c-12.3,9.6-21.7,22.9-26.5,37.7c-4,12.3-4.9,25.4-9.3,37.5
				C145,407.2,138.1,417.9,136.4,429.2z"/>
		</g>
		<g>
			<path d="M115.2,539.3c-0.1,0.1-0.2,0.3-0.3,0.4c-0.2-13.2-0.4-26.5-0.6-39.7c-0.1-4.7-0.1-9.4-0.6-14.1
				c-0.5-4.8-1.3-9.6-2.2-14.4C104.2,428.1,103,412,105,368c2,27.5,2.4,26.9,4.4,54.4c0.9,12.3,1.8,24.7,4.4,36.8
				c1.5,6.9,3.6,13.8,4.5,20.8c0.8,6.6,0.6,13.2,0.3,19.9c-0.4,10.4-0.8,20.8-1.2,31.2C117.3,534,117.1,537.1,115.2,539.3z"/>
		</g>
		<g>
			<path d="M165.4,342.8c-5.3,3.7-8.6,9.4-11.7,15c-10.2,18.2-20.8,37.6-19.8,58.4c0.3,6.9,1.9,13.7,3.3,20.5
				c6.5,31.7,8.5,64.2,5.9,96.4c1.4,0.8,2.6-1.4,2.8-3.1c3-31.4,1.2-63.1-5.3-94c-1.7-8.1-3.7-16.3-3.9-24.6
				c-0.3-22.6,13.1-42.8,26.2-61.2c1.4-2,2.9-4.3,2.3-6.7"/>
		</g>
		<g>
			<path d="M258.5,379c-0.4,0.1-0.8,0.2-1.2,0.2c-7.9,1.3-16-1.2-22.9-5.3c-6.9-4.1-12.7-9.7-18.5-15.2c-7.6-7.3-15.3-14.7-22.9-22
				c-4.2-4-8.4-8.1-11.5-13c-5.5-8.5-7.3-18.9-8.2-29c-1.3-14.7-1.1-29.6,0.7-44.3c2-16.9,6.3-33.9,15.1-48.5
				c8.8-14.6,22.7-26.7,39.3-30.8c0,0,11.1-2.7,22.3-5.5c2.6,0.5,5.3,1,5.3,1c10.6,1.9,21.1,4.9,31.2,8.7c3.2,1.2,6.5,2.6,9.2,4.6
				c2.5,1.9,4.6,4.3,6.6,6.7c12.7,15.6,22.6,34,25.4,53.9c-2.2,27.8-4.5,56.5-17.3,81.3c-6.5,12.6-15.4,23.7-24.3,34.8
				C279.2,366.3,270.4,376.5,258.5,379z"/>
		</g>
		<g>
			<path d="M227.8,253.4c-4.2-1.8-8.1-4.1-11.8-6.7c-6.9-4.9-12.8-11.2-18.5-17.5"/>
		</g>
		<g>
			<path d="M265.9,261.9c2.2-3.5,5.1-6.6,8.6-8.9c2.2-1.5,4.7-2.6,7-4.1c11.3-7,17.8-19.5,23.1-31.6"/>
		</g>
		<g>
			<path d="M272.1,293.6c1.8,1.7,3,4,3.8,6.4c0.6,2.1,1.9,4,3.6,5.3c1.9,1.6,4.5,2.8,4,5.8c-0.3,1.6-1.4,3-2.9,3.7l-20,10
				c-1.1,0.6-2.3,1.1-3.6,1.1c-2.1-0.1-3.6-2-5.3-3.2c-3-2-6.9-2-10.5-2.6c-3.6-0.6-7.6-2.4-8.4-5.9c-0.7-2.9,1.1-5.8,2.9-8.1
				c1.3-1.6,2.7-3.1,3.7-4.9c1.1-2.1,2.4-4.1,4.1-5.9c4.3-4.8,11.2-13.5,9.1-17.7C250.2,272.8,265.3,287,272.1,293.6z"/>
		</g>
		<g>
			<path d="M233.5,338.5c-0.6,5.6,2.4,13.5,7.6,15.6c2.6,1,5.3,1.2,8,1.9c2.1,0.5,4.2,1.3,6.3,1.5c4.3,0.4,8.5-1.5,11.8-4.3
				s5.7-6.4,8-10c1.3-1.9,2.6-4.1,2.2-6.4"/>
		</g>
		<g>
			<path d="M225.2,341.6c-0.2,0.1-0.4,0.2-0.6,0.3c5.1-1.3,11-3.7,16.3-2c1.5,0.5,2.9,1.3,4.5,1.8c2.1,0.7,4.2,0.7,6.4,0.7
				c2.5,0,5.1,0,7.6,0c2.2,0,4.4,0,6.5-0.7c2.3-0.7,4.2-2.2,6.3-3.4c4.5-2.5,9.9-3.3,15-2.3c-6.9-4.2-15.6-5.2-23.4-3
				c-3.9,1.1-8.4,3-11.9,0.8c-0.9-0.6-1.6-1.3-2.6-1.6c-0.9-0.2-1.8,0-2.6,0.3C239.2,334.7,232,337.7,225.2,341.6z"/>
		</g>
		<g>
			<path d="M227.8,340.8"/>
			<g>
				<path class="st4" d="M227.8,340.9c0.2,0,0.2-0.3,0-0.3C227.6,340.7,227.6,340.9,227.8,340.9L227.8,340.9z"/>
			</g>
		</g>
		<g>
			<path d="M173,257c-4-7.3-10.3-13-16.5-18.6c-0.8-0.7-1.7-1.5-2.7-1.6c-2-0.3-3.8,1.7-4.1,3.7c-0.2,2,0.6,4,1.5,5.9
				c3.3,7.4,6.6,14.7,9.8,22.1c0.5,1.2,1.1,2.4,1.6,3.6c2.4,5.4,4.8,10.7,7.2,16.1c0.3,0.6,0.7,1.3,1.3,1.4c1,0.1,1.4-1.3,1.5-2.3
				c0.4-10.2,0.9-20.5,1.3-30.7"/>
			<g>
				<path class="st4" d="M173.1,256.9c-3.3-7.2-9.6-12.8-15.4-18c-1.2-1.1-2.5-2.5-4.2-2.7c-1.4-0.1-2.7,0.7-3.5,1.8
					c-2.4,3.2-0.1,7.2,1.2,10.3c3.8,8.6,7.6,17.2,11.4,25.7c1.9,4.2,3.8,8.5,5.7,12.7c0.5,1.1,1.1,3.4,2.6,3.5
					c1.3,0.1,1.9-1.3,2-2.3c0.4-2.4,0.2-4.9,0.3-7.3c0.1-2.6,0.2-5.3,0.3-7.9c0.2-5.4,0.4-10.7,0.7-16.1c0-0.7-1.1-0.7-1.1,0
					c-0.3,8.1-0.7,16.2-1,24.2c-0.1,2-0.2,4-0.3,5.9c0,0.5,0,1.6-0.4,1.9c-1.1,0.8-1.9-2.1-2.1-2.6c-1.6-3.6-3.2-7.2-4.8-10.7
					c-3.3-7.4-6.6-14.7-9.9-22.1c-0.7-1.7-1.5-3.3-2.2-5c-0.8-1.9-1.9-3.8-2.3-5.9c-0.4-1.8,0.1-3.9,1.8-4.9c1.9-1.1,3.6,0.9,5,2
					c2.9,2.5,5.7,5.1,8.3,7.9c2.8,3,5.2,6.2,7.4,9.6C172.9,257.3,173.2,257.2,173.1,256.9L173.1,256.9z"/>
			</g>
		</g>
		<g>
			<path d="M250.3,319.1c-1.4-1.1-2.8-2.1-4.3-3c-1.3-0.7-2.7-1.4-4.1-1.1c-0.9,0.2-1.7,0.8-2.4,1.3c-0.3,0.2-0.5,0.4-0.7,0.7
				c-0.3,0.6,0,1.4,0.6,1.9s1.3,0.5,2,0.6c2.2,0.2,4.3,0.2,6.5-0.1c0.8-0.1,1.7-0.3,2.4-0.7"/>
		</g>
		<g>
			<path d="M268.4,319c1.2-1.6,2.5-3.1,4.2-4.2c1.7-1.1,3.7-1.7,5.7-1.4c0.2,0,0.3,0,0.5,0.1c0.3,0.2,0.3,0.6,0.1,0.9
				s-0.5,0.5-0.8,0.7c-1.2,0.7-2.4,1.5-3.5,2.2c-1.9,1.2-3.8,2.3-5.9,2.9c-0.1,0-0.2,0-0.3,0c-0.1-0.1-0.1-0.2-0.1-0.3
				c0-0.5,0.3-1.1,0.7-1.4"/>
		</g>
		<g>
			<path d="M309.4,260.4c1-1.7,2-3.5,3.1-5.2c-7.8-2.3-15.8-4.5-23.9-3.9c-8.6,0.6-17.5,4.8-21.1,12.7c2.6,2.5,5.1,5,7.7,7.4
				c3,2.9,6.3,5.9,10.4,6.6c3.7,0.6,7.4-1,10.8-2.6c2-1,4.1-2,5.7-3.6c1.3-1.3,2.3-2.9,3.2-4.5C306.7,265,308,262.7,309.4,260.4z"/>
		</g>
		<g>
			<path d="M190.3,261.2c-0.3,0.3-0.5,0.6-0.7,0.9c6.4,7.4,14.3,13.5,23.1,17.8c1.8,0.9,3.8,1.7,5.8,1.7c3.1,0,5.9-1.7,8.5-3.4
				c5.4-3.6,10.9-7.1,16.3-10.7c-1.1-3.3-2.4-6.6-5-8.9c-3.4-3.1-8.3-3.7-12.8-4.2c-10.5-0.9-21.7-1-31.1,3.8
				C193,259,191.5,259.9,190.3,261.2z"/>
		</g>
		<g>
			<path d="M232.7,263.1c0.5,0.3,0.9,0.7,1.3,1c0.4,0.3,0.8,0.6,1.2,0.9c-4.7,4.7-11.7,6.8-18.2,5.6c-1.2-0.2-2.5-0.6-3.6-1.1
				c-0.9-0.5-1.8-1.1-2.7-1.7c-2.2-1.4-4.6-2.5-7.1-3.2c2.7-1.2,5.4-2.3,8.1-3.4c4.2-1.6,8.7-3.2,13.1-2.2
				C227.8,259.6,230.3,261.3,232.7,263.1z"/>
		</g>
		<g>
			<path d="M274.9,264.9c1.5-3,3.5-6,6.4-7.7c2.9-1.7,6.5-1.9,9.9-1.6c5.2,0.6,10.2,2.5,15.5,2.2c-6.5,3.7-13.7,7.8-21.3,7.9
				c-1.4,0-2.7-0.1-4.1-0.2c-2.2-0.2-4.3-0.3-6.5-0.5C274.8,265,274.9,265,274.9,264.9z"/>
		</g>
		<ellipse class="st5" cx="288.5" cy="260.5" rx="7" ry="5"/>
		<ellipse class="st5" cx="221.5" cy="265.5" rx="7" ry="6"/>
		<g>
			<path d="M179.2,269.6c0.6,0.9,2.1,0.8,2.6-0.1c-4.2-8.1-1.8-8.9-8.4-14.9c3.3,0.9-2.1-2.8,0.7-0.6c2.7,2.2,6.6,3.7,9.5,1.8
				c-2.7-6.4-6.6-12.2-11.4-17c3.8,4,8.2,8.2,13.6,8.1c-0.5-7.3-5.1-13.4-9.5-19c3,3,6.5,6.2,10.7,5.9c0.8,0,1.7-0.3,2.3-0.9
				c1.2-1.3,0.5-3.5-0.3-5.2c-1.8-3.8-3.6-7.7-5.4-11.5c2,2.1,3.9,4.2,5.9,6.3c0.6,0.6,1.2,1.2,2,1.3c1.2,0.2,2.3-0.9,2.6-2.1
				c0.3-1.2,0.1-2.5-0.2-3.7c-1-3.8-2.6-7.5-4.8-10.8c2.4,3.5,5.8,6.2,9.7,7.5c1.2-5.2,0-10.9-3.3-15c2.8,0.9,3.4,5.4,6.2,6.3
				c2.4,0.8,4.8-1.8,5-4.4c0.3-2.6-0.9-5.1-2.1-7.5c2.1,2.5,5,5.2,8.1,4.2c2.1-0.6,3.4-2.8,3.8-5.1s-0.1-4.5-0.5-6.7
				c2.3,2.7,5.8,4.7,9.2,4.1c3.4-0.6,6.4-4.4,5.3-7.9c0.9,3.5,3.9,6.3,7.3,6.9c0-3.2,0.7-6.4,2.2-9.2c0.8,2.4,2,5.1,4.3,5.7
				c3.6,0.9,6-3.8,6.4-7.7c1,1.3,2.1,2.6,3.1,3.9c0.4,0.5,0.9,1,1.5,1c1.4,0,1.4-2.3,2.2-3.6c1.1-1.7,4.2-0.1,3.7,1.8
				c-0.2-1.5-0.3-3-0.5-4.5c0,3.3,2.4,6.4,5.5,7.1s6.4-1.2,7.7-4.2c-0.9,2.5-1.1,5.3-0.4,7.8c0.2,0.9,0.6,1.9,1.3,2.5
				c1.6,1.4,4.2,0.4,5.8-1.1c1.6-1.5,2.8-3.6,4.7-4.6c-1.2,3.4,0.3,7.6,3.3,9.3c3,1.7,7.2,0.7,9.2-2.2c-0.5,2.5-0.5,5.4,1.1,7.4
				c1.6,2,5,2.3,6.3,0.1c-0.7,3.3-1.2,7,0.4,10c1.5,3,5.8,4.6,8.1,2.1c-1,2.7-1.9,5.6-1.2,8.4c0.7,2.8,3.9,5,6.2,3.5
				c-0.6,2.9-0.9,5.9-0.9,8.9c0,2,0.1,4.3,1.4,5.8s4.1,1.6,4.9-0.3c-0.8,3.5-1.3,7.1-1.6,10.7c-0.1,1.6-0.2,3.4,0.9,4.5
				c1.1,1.1,3.5,0.5,3.3-1.1c-0.2,1.7-0.5,3.3-0.7,5c-0.2,1.6-0.4,3.5,0.8,4.6c1.1,1,3.3-0.4,2.6-1.6c5.6-5.9,8.8-14.5,14.2-20.9
				c3.8-4.6,9-8.1,11.3-13.7c3.7-8.7-0.6-18.9,1.4-28.2c0.4-1.8,1-3.7,0.9-5.6c-0.4-4-4.5-6.7-5.3-10.7c-0.7-3.3,1-6.7,0.6-10.1
				c-0.3-2.8-1.9-5.2-2.8-7.8c-1.8-5.5-0.2-12-2.6-17.2c-2.5-5.4-8.3-7.9-12.1-12.3c-3.2-3.7-4.9-8.7-7.8-12.7
				c-2.8-3.9-7.7-6.9-11.9-5.1c-4.2-0.8-6.2-5.8-7.8-10c-1.6-4.2-4.4-9.1-8.7-8.8c0.9-1.2-0.2-3-1.3-4c-1.5-1.5-3-3-4.4-4.5
				c-5.7-5.8-11.5-11.6-17.6-17c-2.8-2.4-5.7-4.8-9.1-6.1c-3.4-1.3-7.4-1.4-10.4,0.7c-3.1,2-4.8,6.5-3.2,9.9c0.3,0.6,0.7,1.3,0.7,2
				c0,1.5-1.5,2.3-2.8,2.8c-5.8-2.9-11.5-5.9-17.2-8.9c-1-0.5-2-1.1-2.5-2.2c-0.5-1.1-0.1-2.5-0.5-3.7c-0.6-2.1-2.8-2.9-4.6-4
				c-3-1.9-5.2-5.3-8.6-6.3c-3.8-1.1-7.7,1.2-11.5,2.5c-10.2,3.4-21.5-0.7-31.7,2.5c-4.1,1.3-7.8,3.7-11.5,6.1
				c-2.4,1.6-4.8,3.1-6.8,5.2c-3.3,3.4-5.3,7.8-7.2,12.3c-3.1,0.3-5,3.8-5.6,7.1c-0.6,3.3-0.4,6.9-1.8,9.9c-1.1,2.4-3.2,4.1-4.1,6.6
				c-1.8,4.5,0.5,10.4-2.1,14.4c-2.2,3.3-7.2,4.3-8.3,8.2c-0.7,2.5,0.7,5.1,0.6,7.7c-0.1,2.8-1.7,5.2-2.7,7.7
				c-2.8,7.1-0.7,16.1,5,20.9c1.4,1.2,3,2.2,3.9,3.8c1.9,3.8-1.3,8.1-3.5,11.8c-3.9,6.5-4.2,16.2,1.4,21.1c3,2.6,7.2,3.4,10.4,5.8
				c-3.2,5.5-6.5,11.6-5.4,17.9c0.6,3.3,2.3,6.3,3.8,9.3c2.7,5.5,4.8,11.5,4.7,17.7c0,2.1-0.3,4.1,0.2,6.1c0.7,2.8,2.8,5.2,2.9,8.2
				c0.1,1.9-0.8,3.8-1.3,5.7c-1.8,6.6,1,14.3,6.4,18c1.2,0.8,2.5,1.4,3.5,2.5c0.8,0.8,1.4,1.9,2.1,2.9c2.2,3.1,5.8,5.3,9.4,4.6
				c4.1-0.8,4.5-4,5.3-7.4c1-4.4,2.9-8.6,5-12.7c0.4-0.8,0.8-1.6,1-2.5c0.2-0.9,0.2-1.8,0.3-2.7c0.2-1.2,0.7-2.3,1-3.4
				S179.9,270.4,179.2,269.6"/>
		</g>
	</g>
</g>
<g id="Lager_1">
	<g>
		<path class="st6" d="M65.4,501.8c-2.5-28.6,0.3-57.6,8.3-85.2c4.7-16,11.5-32.2,24.2-43.1c24.3-20.8,62-16.3,89-33.3
			c5.7-3.6,11-8.2,17.4-10.1c11.1-3.2,22.8,2.2,32.6,8.4c9.8,6.1,19.7,13.4,31.3,14c29.3,1.8,44.4-29.7,73.7-30.6
			c6-0.2,20.3,1.2,26,3c31.5,10,25.6,17.5,53,36c2.3,1.6,16.1,16.9,18,19c4.8,5.2,11.9,18,13,25c6,38.6-0.8,81-3,120"/>
	</g>
	<g>
		<path class="st2" d="M468.3,503.2c-29.1,5.4-58.8,7.4-88.3,6c2.5-18.1,5-36.4,11.2-53.6c3.6-10.1,7.8-23-0.2-30
			c-3.9,27.6-7.8,55.3-11.7,82.9c-0.3,2.2-0.7,4.6-2.3,6.2c-1.6,1.6-4,2-6.3,2.3c-12.3,1.6-24.7,3.2-37,4.8
			c-11.3,1.5-22.6,2.9-34,3.5c-10.6,0.5-21.2,0.2-31.9-0.2c-13.1-0.4-26.2-0.8-39.2-1.2c-20.1-0.6-40.3-1.2-60.2-4.4
			c-8-1.3-17-3.8-20.6-11.1c-2.1-4.4-1.7-9.5-1.4-14.4c1.8-24.8,1.1-49.8-2-74.5c2.9,22.9,4.1,46,3.6,69.1
			c-0.1,3.9-0.7,8.6-4.2,10.5c-1.6,0.9-3.6,0.9-5.5,0.9c-24.3,0-48.6,0-72.9-0.1"/>
	</g>
	<g>
		<g>
			<path class="st2" d="M232.6,462.9c1,2.1,2.5,3.9,3.7,5.9c1.3,2,2.5,4.1,3.5,6.3c2,4.3,3.5,8.8,4.4,13.5c0.3,1.3,2.2,1.5,2.8,0.4
				c1.1-2,1.6-4.1,2.3-6.3c0.7-2.1,1.7-3.7,3.1-5.4c1.6-1.9,3.2-3.8,4.8-5.7c1.7-2,3.6-3.9,4.9-6.1c0.8-1.4-1-2.5-2.1-1.6
				c-2,1.7-3.6,4-5.2,6c-1.6,1.9-3.3,3.9-4.9,5.8c-1.4,1.7-2.5,3.4-3.3,5.4c-0.8,2.1-1.1,4.4-2.3,6.3c0.9,0.1,1.8,0.2,2.8,0.4
				c-0.8-4.9-2.4-9.8-4.6-14.2c-1.1-2.2-2.3-4.4-3.7-6.4c-1.4-2.1-2.8-4.1-4.9-5.5C233,460.9,232.2,462.1,232.6,462.9L232.6,462.9z"
				/>
		</g>
	</g>
	<g>
		<path class="st7" d="M356.7,517.5c-39.4,3-78.7,6-118.1,9c-9.1,0.7-18.3,1.4-27.5,1.8c-28.3,1.3-56.6-0.2-84.6-4.3
			c-0.6-54.3-1.3-108.5-1.9-162.8c9.8-7.5,22.2-11.7,34.6-11.6c1.3,0,2.7,0.1,3.9,0.8c2.2,1.4,2.3,4.5,2.1,7
			c-0.5,8.1-1.3,16.2-1.9,24.3c-1.8,26.4-0.8,52.9,0.2,79.3c0.1,3.8,0.3,7.8,2.2,11.1c2.4,4.1,6.9,6.4,11.3,8.2
			c13,5.2,27,7.9,41,7.9c16.6,0,33.1-3.8,49.7-3.2c6.4,0.2,12.8,1.1,19.1,0.2c5.2-0.7,10.1-2.6,15-4.4c7.3-2.8,15.1-5.9,19.5-12.4
			c4.4-6.4,4.5-14.8,4.4-22.6c-0.3-35.3-0.6-70.6-0.8-105.9c-0.1-8.1,0.9-17.9,8.3-21.2c5.3-2.4,11.5,0,16.9,2.3
			c4.8,2.1,9.9,4.5,12.7,9c2.2,3.6,2.5,7.9,2.8,12.1c1.4,21.9,1.7,43.9,1.1,65.9c-0.2,8.5-0.6,17,0.3,25.5
			c0.7,6.3,2.1,12.4,3.3,18.6c2.8,15.2,3.8,30.8,3,46.2c-0.3,6.4-1.1,13.2-4.9,18.4c-3.7-0.9-7.7-0.8-11.4,0.3"/>
	</g>
	<g>
		<g>
			<path class="st3" d="M187.8,514.2c7.1,4.1,15.2,6.3,23.4,6.6c1.9,0.1,1.9-2.9,0-3c-7.7-0.3-15.2-2.4-21.9-6.2
				C187.6,510.7,186.1,513.2,187.8,514.2L187.8,514.2z"/>
		</g>
	</g>
	<g>
		<path class="st0" d="M385.3,510c18.5-5.5,36.4-13.2,53.1-23c8-4.7,16.4-10.8,18-19.9c0.9-4.8-0.4-9.7-1.6-14.5
			c-2.2-8.5-4.3-17.1-6.5-25.6c-0.2-0.8-0.4-1.7-0.3-2.6c0.1-0.7,0.5-1.3,0.8-1.9c2.2-4.3,1.1-9.7-1.5-13.7
			c-2.6-4.1-6.5-7.1-10.3-10c-6.3-4.9-12.6-9.8-18.9-14.6c-5.2-4-10.7-8.5-12.2-14.8c-0.8-3.1-0.5-6.5-1.3-9.6
			c-3-11.4-28.9-20.8-32.3-32.1c0,0.2,0.1,0.2,0.1,0.2c2.8,10.1,8.4,19.4,16.1,26.5c2.3,2.1,4.9,4.2,6.5,6.9c1.5,2.7,2,5.8,2.9,8.8
			c2.5,8.3,8.6,15,15.3,20.7c6.6,5.6,13.9,10.5,19.9,16.7c3,3,5.8,7.3,4.3,11.3c-0.3,0.8-0.8,1.6-0.9,2.4c-0.2,2.1,1.8,3.7,3.1,5.3
			c2.2,2.7,2.9,6.2,3.5,9.6c1.4,7.5,2.7,15.2,2,22.8c-0.7,7.6-3.8,15.3-9.8,20c-2.4,1.9-5.2,3.2-7.9,4.4
			c-13.2,6-26.8,11.2-40.6,15.6c-4.3,1.3-9.3,3.2-10.7,7.4c-0.6,1.8-0.3,4.2,1.5,5c1.2,0.6,2.6,0.2,3.8-0.1
			C382.7,510.7,384,510.4,385.3,510z"/>
	</g>
	<g>
		<path class="st0" d="M349.7,511.9c-0.2,0.2-0.4,0.3-0.7,0.5c-2.6-5.8-4.2-12-5.8-18.2c-1-3.9-2-7.7-3-11.6
			c-4.3-16.2-8.5-32.6-9.8-49.3c-0.3-4.4-0.5-8.9-0.4-13.3c0.2-11,1.7-21.9,3.2-32.7c1.3-9.8,2.7-19.7,4-29.5
			c0.5-3.9,1.1-7.8,2.1-11.6c1.2-4.4,3-8.6,3.2-13.2c0.2-3.7-0.7-7.4-0.3-11.1c0.5-4.7,4.2-9.8,9.8-7.3c-3.2,3-4.1,8.8-4.3,13.6
			c-1.2,23.9-6.6,47.3-11.8,70.7c-1.8,8-3.5,16.1-2.5,24.2c0.5,4.3,1.8,8.5,2.6,12.8c0.7,3.8,1.1,7.8,1.7,11.6
			c3.1,19.9,12.1,38.7,13.5,58.8C351.3,508.3,351.1,510.7,349.7,511.9z"/>
	</g>
	<g>
		<path class="st0" d="M377.3,322.9c4.3,11.8,13.3,23.2,10.4,35.4c-1.8,7.3-7.6,12.9-10.7,19.8c-3.3,7.3-3.9,16.5-10.4,21.1
			c-1.2,0.8-2.6,1.5-3.6,2.6c-1.1,1.2-1.5,2.8-2.4,4.2c-2.1,3-6.1,3.9-9.4,5.7c-6.9,3.9-9.9,12.2-15.9,17.3c-1.9,1.7-4.2,3-6.3,4.4
			c-3.9,2.5-7.5,5.3-11,8.4c-8.5,7.6-15.8,17-26.1,22.2c-2.8,1.4-5.7,2.4-8.3,4.1c-2.6,1.6-4.9,3.8-7.3,5.8
			c-3.8,3.1-7.9,5.8-12.1,8.4c-9.8,6.2-19.5,12.5-29.3,18.7c-2,1.3-4.1,2.7-5.2,4.7c-1.1,2.1-0.9,5.1,1.1,6.4
			c2.7,1.7,6.1-0.8,8.5-2.9c6.2-5.6,13.2-10.3,20.2-14.8c19.3-12.7,38.7-25.3,58-38c2-1.3,4.1-2.7,5.8-4.4c1.8-1.8,3.2-3.9,4.8-6
			c3.8-5.1,8.3-9.7,12.8-14.2c5.4-5.5,10.8-11,16.8-15.8c2.7-2.1,5.5-4.1,7.8-6.6c3.4-3.5,5.8-7.7,8.2-11.9
			c8.6-15,17.4-30.8,17.8-48.1c0.2-10.5-3.9-22.4-13.6-26.5"/>
	</g>
	<g>
		<path class="st0" d="M371.2,516.8c-1.4-0.8-2.2-2.5-2.9-4.1c-4.2-9.9-7-20.4-8.4-31c-0.9-6.4-1.2-12.8-1.8-19.2
			c-1.4-14.6-4.1-29.1-8-43.3c-1.1-4-2.4-8.1-2.7-12.3c-0.3-4,0.2-8,0.7-11.9c1.5-11.7,2.9-23.4,4.4-35.2
			c1.8-14.7,3.8-29.8,12.3-42.4c-2.4,12.5-4.7,25.1-6.8,37.7c-3.2,19.7-6,39.8-2.9,59.5c1.3,8.5,3.8,16.7,5.2,25.2
			c2.7,16.6,1.5,33.8,5.7,50.2c2.3,9.1,6.4,17.9,6.2,27.3C371.8,517.1,371.5,517,371.2,516.8z"/>
	</g>
	<g>
		<path class="st0" d="M156.9,426.7c-0.5,3.1-0.6,6.2-0.1,9.4c12-21.4,20.3-44.9,24.5-69c0.9-5.5,1.7-11.1,4.1-16.1
			c1.7-3.6,4.3-6.8,6.8-10c3.2-4.1,6.5-8.1,9.7-12.2c4.5-1,6-6.8,3.5-10.3c-12.3,9.6-21.7,22.9-26.5,37.7c-4,12.3-4.9,25.4-9.3,37.5
			C165.5,404.7,158.6,415.4,156.9,426.7z"/>
	</g>
	<g>
		<path class="st0" d="M135.7,536.8c-0.1,0.1-0.2,0.3-0.3,0.4c-0.2-13.2-0.4-26.5-0.6-39.7c-0.1-4.7-0.1-9.4-0.6-14.1
			c-0.5-4.8-1.3-9.6-2.2-14.4c-7.4-43.4-8.6-59.5-6.6-103.5c2,27.5,2.4,26.9,4.4,54.4c0.9,12.3,1.8,24.7,4.4,36.8
			c1.5,6.9,3.6,13.8,4.5,20.8c0.8,6.6,0.6,13.2,0.3,19.9c-0.4,10.4-0.8,20.8-1.2,31.2C137.8,531.5,137.6,534.6,135.7,536.8z"/>
	</g>
	<g>
		<path class="st0" d="M185.9,340.3c-5.3,3.7-8.6,9.4-11.7,15c-10.2,18.2-20.8,37.6-19.8,58.4c0.3,6.9,1.9,13.7,3.3,20.5
			c6.5,31.7,8.5,64.2,5.9,96.4c1.4,0.8,2.6-1.4,2.8-3.1c3-31.4,1.2-63.1-5.3-94c-1.7-8.1-3.7-16.3-3.9-24.6
			c-0.3-22.6,13.1-42.8,26.2-61.2c1.4-2,2.9-4.3,2.3-6.7"/>
	</g>
</g>
<g id="Fejs">
	<g>
		<path class="st8" d="M279,376.5c-0.4,0.1-0.8,0.2-1.2,0.2c-7.9,1.3-16-1.2-22.9-5.3c-6.9-4.1-12.7-9.7-18.5-15.2
			c-7.6-7.3-15.3-14.7-22.9-22c-4.2-4-8.4-8.1-11.5-13c-5.5-8.5-7.3-18.9-8.2-29c-1.3-14.7-1.1-29.6,0.7-44.3
			c2-16.9,6.3-33.9,15.1-48.5c8.8-14.6,22.7-26.7,39.3-30.8c0,0,11.1-2.7,22.3-5.5c2.6,0.5,5.3,1,5.3,1c10.6,1.9,21.1,4.9,31.2,8.7
			c3.2,1.2,6.5,2.6,9.2,4.6c2.5,1.9,4.6,4.3,6.6,6.7c12.7,15.6,22.6,34,25.4,53.9c-2.2,27.8-4.5,56.5-17.3,81.3
			c-6.5,12.6-15.4,23.7-24.3,34.8C299.7,363.8,290.9,374,279,376.5z"/>
	</g>
	<g>
		<path class="st9" d="M248.3,250.9c-4.2-1.8-8.1-4.1-11.8-6.7c-6.9-4.9-12.8-11.2-18.5-17.5"/>
	</g>
	<g>
		<path class="st9" d="M286.4,259.4c2.2-3.5,5.1-6.6,8.6-8.9c2.2-1.5,4.7-2.6,7-4.1c11.3-7,17.8-19.5,23.1-31.6"/>
	</g>
	<g class="st10">
		<path class="st11" d="M292.6,291.1c1.8,1.7,3,4,3.8,6.4c0.6,2.1,1.9,4,3.6,5.3c1.9,1.6,4.5,2.8,4,5.8c-0.3,1.6-1.4,3-2.9,3.7
			l-20,10c-1.1,0.6-2.3,1.1-3.6,1.1c-2.1-0.1-3.6-2-5.3-3.2c-3-2-6.9-2-10.5-2.6c-3.6-0.6-7.6-2.4-8.4-5.9c-0.7-2.9,1.1-5.8,2.9-8.1
			c1.3-1.6,2.7-3.1,3.7-4.9c1.1-2.1,2.4-4.1,4.1-5.9c4.3-4.8,11.2-13.5,9.1-17.7C270.7,270.3,285.8,284.5,292.6,291.1z"/>
	</g>
	<g>
		<path class="st12" d="M254,336c-0.6,5.6,2.4,13.5,7.6,15.6c2.6,1,5.3,1.2,8,1.9c2.1,0.5,4.2,1.3,6.3,1.5c4.3,0.4,8.5-1.5,11.8-4.3
			s5.7-6.4,8-10c1.3-1.9,2.6-4.1,2.2-6.4"/>
	</g>
	<g>
		<path class="st13" d="M245.7,339.1c-0.2,0.1-0.4,0.2-0.6,0.3c5.1-1.3,11-3.7,16.3-2c1.5,0.5,2.9,1.3,4.5,1.8
			c2.1,0.7,4.2,0.7,6.4,0.7c2.5,0,5.1,0,7.6,0c2.2,0,4.4,0,6.5-0.7c2.3-0.7,4.2-2.2,6.3-3.4c4.5-2.5,9.9-3.3,15-2.3
			c-6.9-4.2-15.6-5.2-23.4-3c-3.9,1.1-8.4,3-11.9,0.8c-0.9-0.6-1.6-1.3-2.6-1.6c-0.9-0.2-1.8,0-2.6,0.3
			C259.7,332.2,252.5,335.2,245.7,339.1z"/>
	</g>
	<g>
		<g>
			<path class="st4" d="M248.3,338.4c0.2,0,0.2-0.3,0-0.3C248.1,338.2,248.1,338.4,248.3,338.4L248.3,338.4z"/>
		</g>
	</g>
	<g>
		<g>
			<path class="st4" d="M193.6,254.4c-3.3-7.2-9.6-12.8-15.4-18c-1.2-1.1-2.5-2.5-4.2-2.7c-1.4-0.1-2.7,0.7-3.5,1.8
				c-2.4,3.2-0.1,7.2,1.2,10.3c3.8,8.6,7.6,17.2,11.4,25.7c1.9,4.2,3.8,8.5,5.7,12.7c0.5,1.1,1.1,3.4,2.6,3.5c1.3,0.1,1.9-1.3,2-2.3
				c0.4-2.4,0.2-4.9,0.3-7.3c0.1-2.6,0.2-5.3,0.3-7.9c0.2-5.4,0.4-10.7,0.7-16.1c0-0.7-1.1-0.7-1.1,0c-0.3,8.1-0.7,16.2-1,24.2
				c-0.1,2-0.2,4-0.3,5.9c0,0.5,0,1.6-0.4,1.9c-1.1,0.8-1.9-2.1-2.1-2.6c-1.6-3.6-3.2-7.2-4.8-10.7c-3.3-7.4-6.6-14.7-9.9-22.1
				c-0.7-1.7-1.5-3.3-2.2-5c-0.8-1.9-1.9-3.8-2.3-5.9c-0.4-1.8,0.1-3.9,1.8-4.9c1.9-1.1,3.6,0.9,5,2c2.9,2.5,5.7,5.1,8.3,7.9
				c2.8,3,5.2,6.2,7.4,9.6C193.4,254.8,193.7,254.7,193.6,254.4L193.6,254.4z"/>
		</g>
	</g>
	<g>
		<path class="st14" d="M270.8,316.6c-1.4-1.1-2.8-2.1-4.3-3c-1.3-0.7-2.7-1.4-4.1-1.1c-0.9,0.2-1.7,0.8-2.4,1.3
			c-0.3,0.2-0.5,0.4-0.7,0.7c-0.3,0.6,0,1.4,0.6,1.9c0.6,0.4,1.3,0.5,2,0.6c2.2,0.2,4.3,0.2,6.5-0.1c0.8-0.1,1.7-0.3,2.4-0.7"/>
	</g>
	<g>
		<path class="st14" d="M288.9,316.5c1.2-1.6,2.5-3.1,4.2-4.2c1.7-1.1,3.7-1.7,5.7-1.4c0.2,0,0.3,0,0.5,0.1c0.3,0.2,0.3,0.6,0.1,0.9
			s-0.5,0.5-0.8,0.7c-1.2,0.7-2.4,1.5-3.5,2.2c-1.9,1.2-3.8,2.3-5.9,2.9c-0.1,0-0.2,0-0.3,0c-0.1-0.1-0.1-0.2-0.1-0.3
			c0-0.5,0.3-1.1,0.7-1.4"/>
	</g>
</g>
<g id="ögon">
	<g>
		<path class="st15" d="M329.9,257.9c1-1.7,2-3.5,3.1-5.2c-7.8-2.3-15.8-4.5-23.9-3.9c-8.6,0.6-17.5,4.8-21.1,12.7
			c2.6,2.5,5.1,5,7.7,7.4c3,2.9,6.3,5.9,10.4,6.6c3.7,0.6,7.4-1,10.8-2.6c2-1,4.1-2,5.7-3.6c1.3-1.3,2.3-2.9,3.2-4.5
			C327.2,262.5,328.5,260.2,329.9,257.9z"/>
	</g>
	<g>
		<path class="st15" d="M210.8,258.7c-0.3,0.3-0.5,0.6-0.7,0.9c6.4,7.4,14.3,13.5,23.1,17.8c1.8,0.9,3.8,1.7,5.8,1.7
			c3.1,0,5.9-1.7,8.5-3.4c5.4-3.6,10.9-7.1,16.3-10.7c-1.1-3.3-2.4-6.6-5-8.9c-3.4-3.1-8.3-3.7-12.8-4.2c-10.5-0.9-21.7-1-31.1,3.8
			C213.5,256.5,212,257.4,210.8,258.7z"/>
	</g>
	<g>
		<path class="st9" d="M253.2,260.6c0.5,0.3,0.9,0.7,1.3,1c0.4,0.3,0.8,0.6,1.2,0.9c-4.7,4.7-11.7,6.8-18.2,5.6
			c-1.2-0.2-2.5-0.6-3.6-1.1c-0.9-0.5-1.8-1.1-2.7-1.7c-2.2-1.4-4.6-2.5-7.1-3.2c2.7-1.2,5.4-2.3,8.1-3.4c4.2-1.6,8.7-3.2,13.1-2.2
			C248.3,257.1,250.8,258.8,253.2,260.6z"/>
	</g>
	<g>
		<path class="st9" d="M295.4,262.4c1.5-3,3.5-6,6.4-7.7c2.9-1.7,6.5-1.9,9.9-1.6c5.2,0.6,10.2,2.5,15.5,2.2
			c-6.5,3.7-13.7,7.8-21.3,7.9c-1.4,0-2.7-0.1-4.1-0.2c-2.2-0.2-4.3-0.3-6.5-0.5C295.3,262.5,295.4,262.5,295.4,262.4z"/>
	</g>
	<ellipse class="st16" cx="309" cy="258" rx="7" ry="5"/>
	<ellipse class="st16" cx="242" cy="263" rx="7" ry="6"/>
</g>
<g id="hår">
	<g>
		<path class="st17" d="M199.7,267.1c0.6,0.9,2.1,0.8,2.6-0.1c-4.2-8.1-1.8-8.9-8.4-14.9c3.3,0.9-2.1-2.8,0.7-0.6
			c2.7,2.2,6.6,3.7,9.5,1.8c-2.7-6.4-6.6-12.2-11.4-17c3.8,4,8.2,8.2,13.6,8.1c-0.5-7.3-5.1-13.4-9.5-19c3,3,6.5,6.2,10.7,5.9
			c0.8,0,1.7-0.3,2.3-0.9c1.2-1.3,0.5-3.5-0.3-5.2c-1.8-3.8-3.6-7.7-5.4-11.5c2,2.1,3.9,4.2,5.9,6.3c0.6,0.6,1.2,1.2,2,1.3
			c1.2,0.2,2.3-0.9,2.6-2.1c0.3-1.2,0.1-2.5-0.2-3.7c-1-3.8-2.6-7.5-4.8-10.8c2.4,3.5,5.8,6.2,9.7,7.5c1.2-5.2,0-10.9-3.3-15
			c2.8,0.9,3.4,5.4,6.2,6.3c2.4,0.8,4.8-1.8,5-4.4c0.3-2.6-0.9-5.1-2.1-7.5c2.1,2.5,5,5.2,8.1,4.2c2.1-0.6,3.4-2.8,3.8-5.1
			s-0.1-4.5-0.5-6.7c2.3,2.7,5.8,4.7,9.2,4.1c3.4-0.6,6.4-4.4,5.3-7.9c0.9,3.5,3.9,6.3,7.3,6.9c0-3.2,0.7-6.4,2.2-9.2
			c0.8,2.4,2,5.1,4.3,5.7c3.6,0.9,6-3.8,6.4-7.7c1,1.3,2.1,2.6,3.1,3.9c0.4,0.5,0.9,1,1.5,1c1.4,0,1.4-2.3,2.2-3.6
			c1.1-1.7,4.2-0.1,3.7,1.8c-0.2-1.5-0.3-3-0.5-4.5c0,3.3,2.4,6.4,5.5,7.1s6.4-1.2,7.7-4.2c-0.9,2.5-1.1,5.3-0.4,7.8
			c0.2,0.9,0.6,1.9,1.3,2.5c1.6,1.4,4.2,0.4,5.8-1.1c1.6-1.5,2.8-3.6,4.7-4.6c-1.2,3.4,0.3,7.6,3.3,9.3c3,1.7,7.2,0.7,9.2-2.2
			c-0.5,2.5-0.5,5.4,1.1,7.4c1.6,2,5,2.3,6.3,0.1c-0.7,3.3-1.2,7,0.4,10c1.5,3,5.8,4.6,8.1,2.1c-1,2.7-1.9,5.6-1.2,8.4
			c0.7,2.8,3.9,5,6.2,3.5c-0.6,2.9-0.9,5.9-0.9,8.9c0,2,0.1,4.3,1.4,5.8s4.1,1.6,4.9-0.3c-0.8,3.5-1.3,7.1-1.6,10.7
			c-0.1,1.6-0.2,3.4,0.9,4.5c1.1,1.1,3.5,0.5,3.3-1.1c-0.2,1.7-0.5,3.3-0.7,5c-0.2,1.6-0.4,3.5,0.8,4.6c1.1,1,3.3-0.4,2.6-1.6
			c5.6-5.9,8.8-14.5,14.2-20.9c3.8-4.6,9-8.1,11.3-13.7c3.7-8.7-0.6-18.9,1.4-28.2c0.4-1.8,1-3.7,0.9-5.6c-0.4-4-4.5-6.7-5.3-10.7
			c-0.7-3.3,1-6.7,0.6-10.1c-0.3-2.8-1.9-5.2-2.8-7.8c-1.8-5.5-0.2-12-2.6-17.2c-2.5-5.4-8.3-7.9-12.1-12.3
			c-3.2-3.7-4.9-8.7-7.8-12.7c-2.8-3.9-7.7-6.9-11.9-5.1c-4.2-0.8-6.2-5.8-7.8-10c-1.6-4.2-4.4-9.1-8.7-8.8c0.9-1.2-0.2-3-1.3-4
			c-1.5-1.5-3-3-4.4-4.5c-5.7-5.8-11.5-11.6-17.6-17c-2.8-2.4-5.7-4.8-9.1-6.1s-7.4-1.4-10.4,0.7c-3.1,2-4.8,6.5-3.2,9.9
			c0.3,0.6,0.7,1.3,0.7,2c0,1.5-1.5,2.3-2.8,2.8C264.5,75,258.7,72,253,69c-1-0.5-2-1.1-2.5-2.2c-0.5-1.1-0.1-2.5-0.5-3.7
			c-0.6-2.1-2.8-2.9-4.6-4c-3-1.9-5.2-5.3-8.6-6.3c-3.8-1.1-7.7,1.2-11.5,2.5c-10.2,3.4-21.5-0.7-31.7,2.5
			c-4.1,1.3-7.8,3.7-11.5,6.1c-2.4,1.6-4.8,3.1-6.8,5.2c-3.3,3.4-5.3,7.8-7.2,12.3c-3.1,0.3-5,3.8-5.6,7.1c-0.6,3.3-0.4,6.9-1.8,9.9
			c-1.1,2.4-3.2,4.1-4.1,6.6c-1.8,4.5,0.5,10.4-2.1,14.4c-2.2,3.3-7.2,4.3-8.3,8.2c-0.7,2.5,0.7,5.1,0.6,7.7
			c-0.1,2.8-1.7,5.2-2.7,7.7c-2.8,7.1-0.7,16.1,5,20.9c1.4,1.2,3,2.2,3.9,3.8c1.9,3.8-1.3,8.1-3.5,11.8c-3.9,6.5-4.2,16.2,1.4,21.1
			c3,2.6,7.2,3.4,10.4,5.8c-3.2,5.5-6.5,11.6-5.4,17.9c0.6,3.3,2.3,6.3,3.8,9.3c2.7,5.5,4.8,11.5,4.7,17.7c0,2.1-0.3,4.1,0.2,6.1
			c0.7,2.8,2.8,5.2,2.9,8.2c0.1,1.9-0.8,3.8-1.3,5.7c-1.8,6.6,1,14.3,6.4,18c1.2,0.8,2.5,1.4,3.5,2.5c0.8,0.8,1.4,1.9,2.1,2.9
			c2.2,3.1,5.8,5.3,9.4,4.6c4.1-0.8,4.5-4,5.3-7.4c1-4.4,2.9-8.6,5-12.7c0.4-0.8,0.8-1.6,1-2.5c0.2-0.9,0.2-1.8,0.3-2.7
			c0.2-1.2,0.7-2.3,1-3.4S200.4,267.9,199.7,267.1"/>
	</g>
</g>
<g id="ram">
	<g>
		<path class="st18" d="M18.9,199.6V24.4c0,0,0-0.3,0-0.6c0,0,175.2,0,175.2,0"/>
		<path class="st18" d="M17.6,299.5v175.2c0,0,0,4,0,8c1.3,0,2.7,0,2.7,0l175.2,0"/>
		<path class="st18" d="M477.6,307.2l0,175.2c0,0,0,0.3,0,0.6c0,0-175.2,0-175.2,0"/>
		<path class="st18" d="M477.6,207l0-175.2c0,0,0-4,0-8c-4.2,0-8.5,0-8.5,0l-175.2,0"/>
		<circle class="st18" cx="477.6" cy="289.5" r="8.4"/>
		<circle class="st18" cx="477.7" cy="267.7" r="8.5"/>
		<circle class="st18" cx="477.7" cy="245.9" r="8.4"/>
		<circle class="st18" cx="477.6" cy="224.6" r="8.4"/>
		<circle class="st18" cx="18.8" cy="282.5" r="8.4"/>
		<circle class="st18" cx="18.9" cy="260.7" r="8.5"/>
		<circle class="st18" cx="18.9" cy="238.9" r="8.4"/>
		<circle class="st18" cx="18.8" cy="217.7" r="8.4"/>
	</g>
	<g>
		<polyline class="st18" points="53.1,38.9 35.6,38.9 35.6,56.7 		"/>
		<polyline class="st18" points="107.5,38.9 125,38.9 125,56.7 		"/>
		<polyline class="st18" points="53.1,128 35.6,128 35.6,110.2 		"/>
		<polyline class="st18" points="107.5,128 125,128 125,110.2 		"/>
	</g>
</g>
</svg>
