<?xml version="1.0" encoding="utf-8"?>
<!-- Generator: Adobe Illustrator 24.0.0, SVG Export Plug-In . SVG Version: 6.00 Build 0)  -->
<svg version="1.1" xmlns="http://www.w3.org/2000/svg" xmlns:xlink="http://www.w3.org/1999/xlink" x="0px" y="0px" width="500px"
	 height="500px" viewBox="0 0 500 500" style="enable-background:new 0 0 500 500;" xml:space="preserve">
<style type="text/css">
	.st0{fill:#3E383C;}
	.st1{opacity:0.52;}
	.st2{fill:#29222A;}
	.st3{fill:#354149;}
	.st4{fill:#0C1318;}
	.st5{fill:#AB958D;}
	.st6{fill:#6B736F;}
	.st7{fill:#E8EAE9;}
	.st8{fill:#3B4549;}
	.st9{fill:#625650;}
	.st10{fill:#5D4F49;}
	.st11{fill:#7A4E57;}
	.st12{fill:#74484F;}
	.st13{fill:none;stroke:#000000;stroke-width:2;stroke-miterlimit:10;}
	.st14{fill:#0C0A0A;}
</style>
<g id="Lager_1">
	<rect x="-35.74" y="-31.36" class="st0" width="573" height="565"/>
</g>
<g id="skugga">
	<g>
		<g class="st1">
			<g>
				<path d="M459.37,429.34c6.56,1.72,13.13,3.44,19.69,5.16c4.36,1.14,9.27,2.73,11.11,6.84c0.83,1.85,0.89,3.94,0.93,5.97
					c0.26,12.71,0.51,25.55-2.14,37.98c-2.31,10.84-6.82,21.41-6.45,32.49c-14.32-1.1-28.65-2.19-42.97-3.29
					c-2.93-0.22-5.92-0.46-8.65-1.54c-7.71-3.05-11.5-12.28-10.72-20.53s5.13-15.69,9.67-22.63c9.21-14.1,19.61-27.42,31.04-39.78"
					/>
			</g>
			<g>
				<path d="M457.54,475.73c14.1-13.52,28.2-27.04,42.29-40.55c-35.08-9.93-70.15-19.85-105.23-29.78
					c-13.23-3.74-26.66-7.57-38.33-14.85c-21.35-13.31-34.89-38.28-34.43-63.43c-12.22,16.05-24.7,32.36-41.09,44.12
					c-9.73,6.99-21.4,12.36-33.32,11.22c-19.54-1.87-31.77-20.46-42.66-36.8c0.84,11.1-6.61,22.44-15.01,29.74
					c-8.4,7.3-18.81,11.81-29.03,16.2c-14.87,6.39-30.17,12.87-46.34,13.5c-8.41,0.32-16.83-0.96-25.23-0.45
					c-27.22,1.64-51.84,21.74-78.96,18.87c-0.65,26.6,4.32,53.32,14.52,77.9c5.27,27.3,4.51,50.55,8.51,78.36
					c3.79,26.38,6.87,53.31,2.37,79.58c-1.45,8.46-3.67,16.77-5.68,25.11c97.07,13.49,196.03,13.38,293.07-0.33
					c7.48-1.06,15.7-2.61,20.39-8.53c3.4-4.29,4.2-10.02,5-15.44c6.16-41.8,19.31-83.37,44.43-117.33
					c12.76-17.25,28.32-32.18,43.81-47.03C443.58,489.12,450.56,482.43,457.54,475.73z"/>
			</g>
			<g>
				<path d="M256.54,457.98"/>
			</g>
			<g>
				<path d="M41.34,427.28c45.79,19.89,90.39,42.56,133.44,67.84l22.71-125c-5.72,0.01-9.93,6.3-14.38,10.45
					c-3.5,3.26-7.85,5.43-12.17,7.49c-15.87,7.56-32.58,14.27-50.13,15.19c-3.54,0.19-7.09,0.13-10.63,0.21
					c-10.94,0.23-21.82,1.67-32.67,3.11c-5.11,0.68-10.27,1.37-15.08,3.21c-2.84,1.09-5.51,2.57-8.25,3.89
					c-11.53,5.56-24.42,8.29-37.21,7.9c-2.09-0.06-5.74,0.62-7.21,2.11"/>
			</g>
			<g>
				<path d="M334.4,526.33c-0.32,0.75-0.65,1.51-0.97,2.26c-27.89-19.14-51.2-44.12-73.71-69.36c-8.71-9.77-17.37-19.64-24.78-30.43
					c-10.13-14.73-17.82-30.98-25.46-47.14c-3.57-7.55-4.4-16.71-3.71-24.99c0.5,4.98,1.01,10.34,3,15c8.51,19.87,16.56,40.07,30,57
					c1.86,2.34,3.11,5.16,5.05,7.43c6.08,7.11,12.16,14.22,18.24,21.32c11.21,13.1,22.45,26.25,35.23,37.82
					c11.84,10.72,24.89,20,37.9,29.25C334.93,525.1,334.66,525.72,334.4,526.33z"/>
			</g>
			<g>
				<path d="M315.77,356.67c-14.34,33.21-32.36,65.09-54.91,93.38c-1.09,1.37-2.27,2.79-3.91,3.41c-1.64,0.62-4.58-3.14-5.18-4.79
					c2.58-4.26,4.42-6.73,7-11c21.78-26.87,42.2-59.77,59-90C317.2,349.02,316.35,355.32,315.77,356.67z"/>
			</g>
			<g>
				<path d="M301.88,377.76c-9.97,17.3-21.3,33.82-33.85,49.35c-5.42,6.7-11.15,13.37-14.41,21.34
					c-17.27-16.86-28.33-38.95-38.42-60.87c-5.71-12.39-11.33-25.86-9.15-39.25c6.65,6.87,13.3,13.73,19.94,20.6
					c2.89,2.98,5.81,6,9.37,8.13c7.47,4.48,16.95,4.54,25.29,2.04s15.78-7.31,22.97-12.23c6.94-4.74,13.81-9.66,19.9-15.46
					c7.02-6.69,12.94-14.52,17.47-23.09c1.55,7.73-1.69,15.54-5.07,22.66C311.59,360.11,306.91,369.04,301.88,377.76z"/>
			</g>
			<g>
				<circle cx="171.77" cy="479.67" r="20.5"/>
			</g>
			<g>
				<path d="M262.55,191.93c-4.8-1.72-9.98-2.37-15.06-1.87c-5.04,0.5-9.91,2.1-14.6,4.02c-21.05,8.62-39.91,25.11-46.42,46.91
					c-4.71,15.77-2.66,32.72,0.38,48.89c3.22,17.16,7.55,34.23,14.85,50.09c7.3,15.86,17.71,30.54,31.6,41.12
					c3.12,2.38,6.46,4.57,10.19,5.78c10.26,3.34,21.37-1.19,30.66-6.68c9.19-5.44,17.77-11.91,25.52-19.25
					c2.3-2.17,4.55-4.47,6.02-7.27c0.69-1.31,1.2-2.72,2.1-3.89c0.97-1.27,2.33-2.17,3.56-3.18c7.72-6.33,10.54-16.74,12.84-26.46
					c2.44-10.31,4.76-20.65,6.98-31.01c3.95-18.48,7.44-38.35,0.16-55.79c-2.22-5.32-5.37-10.19-8.67-14.91
					c-3.75-5.35-7.78-10.62-12.91-14.67c-13.35-10.54-31.71-11.28-48.72-11.57"/>
			</g>
			<g>
				<path d="M178.09,296.47c0.91,1.99,1.88,3.94,2.91,5.86c0.9,1.66,2.24,3.52,4.12,3.39c1.3-0.09,2.35-1.18,2.79-2.41
					c0.44-1.22,0.38-2.56,0.29-3.86c-0.54-8.28-1.88-16.52-4-24.54c-3.64-3.12-7.28-6.25-10.92-9.38c-0.45-0.39-0.95-0.79-1.54-0.82
					c-1.54-0.07-1.93,2.1-1.73,3.63C171.29,278.05,174.03,287.56,178.09,296.47z"/>
			</g>
			<g>
				<path d="M333.85,273.86c0.9-1.87,2.43-3.43,4.29-4.35c0.91-0.45,2.16-0.69,2.82,0.08c0.34,0.38,0.42,0.92,0.49,1.43
					c0.89,6.28,1.72,12.95-0.82,18.76c-0.75,1.72-1.77,3.3-2.51,5.03c-1.19,2.77-1.61,5.85-3.01,8.52c-1.4,2.67-4.32,4.96-7.24,4.22
					c-0.12-0.03-0.26-0.07-0.33-0.18c-0.1-0.13-0.08-0.32-0.05-0.49c2.27-12.13,4.53-24.26,6.8-36.39"/>
			</g>
			<g>
				<path d="M168.57,201.27c0.51-0.76,1.02-1.5,1.55-2.24c3.77-5.31,8.17-11.43,6.44-17.7c-0.44-1.59-1.27-3.11-1.32-4.76
					c-0.05-1.69,0.73-3.29,1.49-4.8c4.22-8.43,9.4-17.69,18.46-20.32c4.77-1.39,10.07-0.69,14.6-2.73c2.51-1.13,4.58-3.02,6.82-4.62
					c13.89-9.94,32.67-8.23,49.62-6.09c10.09,1.27,20.18,2.55,30.27,3.82c1.99,0.25,4.02,0.51,5.85,1.34
					c1.68,0.76,3.11,1.96,4.57,3.07c6.42,4.87,13.94,8.3,21.83,9.96c1.94,0.41,3.92,0.72,5.77,1.43c5.86,2.26,9.48,8.21,11.49,14.17
					c3.65,10.82,3.38,22.61,6.45,33.61c0.92,3.29,2.14,6.51,2.74,9.88c0.68,3.88,0.52,7.84,0.36,11.78
					c-0.29,6.94-0.57,13.87-0.86,20.81c-0.21,5-0.44,10.11-2.25,14.77c-2.25,5.78-6.74,10.39-11.49,14.38
					c-0.79,0.67-1.65,1.4-1.85,2.42c-0.2,0.98-5.35-2.25-4.41-2.44c-1.51-19.07,2.64-34.87-8.5-50.46
					c-8.23-11.52-21.27-19.49-35.28-21.55c-10.33-5.92-22.84-6.76-34.69-5.62c-12.92,1.24-25.76,4.74-36.91,11.38
					s-20.55,16.56-25.41,28.6c-5.33,13.2-2.51,27.6-8.2,40.65c-9.42-11.25-19.2-23.74-23.7-37.71c-1.64-5.1-2.94-10.39-2.84-15.74
					C159.3,217.43,163.45,208.89,168.57,201.27z"/>
			</g>
			<g>
				<path d="M182.68,272.33c-4.45,15,0.46,30.93,2.46,46.45c0.91,7.09,1.21,14.25,0.89,21.39"/>
			</g>
			<g>
				<path d="M180.92,267.77c-3.74,11.42-3.11,23.79-1.49,35.69c1.62,11.9,4.19,23.74,4.23,35.75"/>
			</g>
			<g>
				<path d="M177.93,267.39c-2.62,3.46-3.5,7.94-3.76,12.28c-0.55,9.12,1.29,18.2,3.12,27.15c1.25,6.13,2.51,12.26,3.76,18.39
					c1.02,4.97,1.95,10.47-0.62,14.83"/>
			</g>
			<g>
				<path d="M174.88,268.12c-3.5,11.66-2.13,24.21,0.16,36.17c2.29,11.96,5.5,23.86,5.59,36.04"/>
			</g>
			<g>
				<path d="M336.91,272.06c-4.79,6.89-4.34,16.18-2.08,24.26c2.26,8.08,6.11,15.71,7.62,23.97c1.87,10.21-0.07,21.07-5.35,30"/>
			</g>
			<g>
				<path d="M338.39,270.78c-2.6,5.31-3.47,11.45-2.43,17.27c0.62,3.49,1.9,6.83,3.08,10.18c2.05,5.83,3.8,11.77,5.25,17.79
					c2.79,11.63,4.32,24.4-0.95,35.14"/>
			</g>
			<g>
				<path d="M338.56,272.96c0.3,0.02,0.13-0.57-0.17-0.5c-0.3,0.07-0.4,0.43-0.46,0.73c-1.52,8.87-0.41,18.17,3.14,26.43
					c1.59,3.71,3.66,7.21,5.19,10.95c5.17,12.68,3.69,26.97,2.13,40.57"/>
			</g>
			<g>
				<path d="M240.33,279.16c-2.69-2.86-5.64-5.52-9.09-7.38s-7.46-2.86-11.33-2.26c-3.87,0.6-7.57,2.94-9.27,6.47
					c0.57,1.33,1.92,2.13,3.25,2.71c7.99,3.51,17.3,2.1,25.55-0.74"/>
			</g>
			<g>
				<path d="M215.63,271.11c-0.69-0.15-1.39,0.34-1.69,0.97c-0.29,0.64-0.25,1.38-0.1,2.07c0.63,2.79,3.17,5.03,6.01,5.32
					c2.51,0.25,5.1-1,6.55-3.07c1.08-1.55,1.48-3.79,0.32-5.28c-0.68-0.88-1.77-1.34-2.85-1.6c-3.67-0.87-7.76,0.38-10.31,3.16"/>
			</g>
			<g>
				<path d="M212.61,272.44c-1.31,0.78-3.27-0.16-3.49-1.67"/>
			</g>
			<g>
				<path d="M214.9,271.27c-1.46,0.37-3.12-0.51-3.64-1.92"/>
			</g>
			<g>
				<path d="M215.82,269.97c-1.12,0.13-2.27-0.76-2.41-1.89"/>
			</g>
			<g>
				<path d="M218.72,268.86c-0.67,0.32-1.46-0.07-2.1-0.44c-0.17-0.1-0.34-0.2-0.42-0.38c-0.08-0.17-0.02-0.43,0.17-0.47"/>
			</g>
			<g>
				<path d="M221.2,268.98c-0.63-0.22-1.28-0.45-1.76-0.91c-0.48-0.46-0.74-1.23-0.42-1.81"/>
			</g>
			<g>
				<path d="M223.37,268.46c-0.46,0.18-1.04-0.02-1.29-0.44c-0.25-0.43-0.15-1.03,0.23-1.35"/>
			</g>
			<g>
				<path d="M225.69,269.39c-1-0.21-1.57-1.52-1.05-2.39"/>
			</g>
			<g>
				<path d="M227.87,270.19c-0.99-0.38-1.38-1.81-0.72-2.65"/>
			</g>
			<g>
				<path d="M229.67,271.1c-0.83-0.57-1.02-1.89-0.37-2.66"/>
			</g>
			<g>
				<path d="M210.8,274.66c-0.92,0.16-1.88-0.63-1.9-1.56"/>
			</g>
			<g>
				<path d="M274.02,277.11c-0.43,0.53-0.85,1.08-1.24,1.64c4.67,0.5,9.34,1,14.01,1.5c1.35,0.14,2.71,0.29,4.06,0.19
					c4.2-0.3,7.84-2.83,11.22-5.37c-2.48-3.09-6.56-4.59-10.48-5.45c-2.49-0.55-5.11-0.91-7.58-0.25c-2.03,0.55-3.82,1.76-5.43,3.11
					C276.91,273.88,275.38,275.43,274.02,277.11z"/>
			</g>
			<g>
				<path d="M285.69,269.03c-1.14,0.46-2.29,0.93-3.43,1.39c-0.68,0.27-1.39,0.57-1.83,1.15c-0.45,0.58-0.57,1.35-0.63,2.08
					c-0.09,0.93-0.12,1.91,0.23,2.78c0.6,1.52,2.17,2.38,3.63,3.13c0.48,0.25,0.99,0.5,1.53,0.52c0.4,0.01,0.79-0.11,1.17-0.23
					c1.07-0.34,2.13-0.72,3.18-1.13c0.58-0.23,1.17-0.48,1.62-0.91c0.6-0.57,0.88-1.39,1.14-2.17c0.48-1.45,0.93-3.15,0.09-4.42
					c-0.6-0.91-1.71-1.33-2.77-1.54c-3.26-0.64-6.79,0.31-9.28,2.5"/>
			</g>
			<g>
				<path d="M279.84,271.57c-0.71,0.26-1.49-0.69-1.1-1.33"/>
			</g>
			<g>
				<path d="M280.81,270.3c-0.4-0.45-0.42-1.18-0.06-1.66"/>
			</g>
			<g>
				<path d="M283.22,269.88c-0.51-0.54-0.39-1.53,0.22-1.93"/>
			</g>
			<g>
				<path d="M286.1,269.15c-0.51,0.14-1-0.41-1-0.93c0-0.53,0.31-1,0.63-1.42"/>
			</g>
			<g>
				<path d="M288.63,268.78c-0.53-0.41-0.62-1.27-0.19-1.78"/>
			</g>
			<g>
				<path d="M291.34,269.13c-0.66-0.64-0.76-1.77-0.23-2.52"/>
			</g>
			<g>
				<path d="M293.43,269.75c-0.67-0.45-0.52-1.69,0.25-1.96"/>
			</g>
			<g>
				<path d="M295.25,270.6c-0.33-0.79-0.09-1.79,0.56-2.35"/>
			</g>
			<g>
				<path d="M297.02,271c-0.54-0.59-0.31-1.69,0.42-2.01"/>
			</g>
			<g>
				<path d="M298.55,271.68c0.12-0.66,0.42-1.29,0.84-1.82"/>
			</g>
			<g>
				<path d="M277.98,272.14c-0.63,0.28-1.45-0.34-1.36-1.03"/>
			</g>
			<g>
				<path d="M212.93,278.48c-0.28,0.07-0.59,0.02-0.85-0.13c-0.47,0.3-0.78,0.84-0.78,1.4"/>
			</g>
			<g>
				<path d="M213.8,279.19c-0.58,0.7-0.72,1.73-0.34,2.56"/>
			</g>
			<g>
				<path d="M216.71,279.22c-0.54,0.91-0.69,2.05-0.4,3.07"/>
			</g>
			<g>
				<path d="M218.87,280.48c-0.57,0.62-0.84,1.5-0.71,2.33"/>
			</g>
			<g>
				<path d="M221.41,280.48c-0.12,0.6-0.25,1.2-0.37,1.8"/>
			</g>
			<g>
				<path d="M224.56,280.6c-0.7,0.76-0.88,1.97-0.42,2.9"/>
			</g>
			<g>
				<path d="M226.99,281.22c-0.4,0.54-0.24,1.41,0.33,1.77"/>
			</g>
			<g>
				<path d="M230.03,280.86c-0.51,0.58-0.52,1.54-0.02,2.14"/>
			</g>
			<g>
				<path d="M232.1,280.1c-0.2,0.88,0.04,1.84,0.63,2.52"/>
			</g>
			<g>
				<path d="M211.62,276.81c-0.85,0.56-1.48,1.44-1.73,2.42"/>
			</g>
			<g>
				<path d="M298.12,278.07c0.89,0.2,1.61,0.99,1.72,1.88"/>
			</g>
			<g>
				<path d="M295.98,278.69c0.7,0.68,1.2,1.56,1.45,2.51"/>
			</g>
			<g>
				<path d="M293.68,280.06c0.71,0.37,1.24,1.07,1.4,1.85"/>
			</g>
			<g>
				<path d="M290.96,281.34c0.56,0.01,1.06,0.55,1.02,1.11"/>
			</g>
			<g>
				<path d="M288.54,281.1c0.62,0.63,1.11,1.39,1.44,2.22"/>
			</g>
			<g>
				<path d="M285.83,280.57c0.81,0.76,1.3,1.85,1.34,2.97"/>
			</g>
			<g>
				<path d="M282.72,281.06c0.06-0.4,0.7-0.42,0.95-0.11c0.25,0.32,0.22,0.76,0.18,1.16"/>
			</g>
			<g>
				<path d="M279.23,280.19c0.8,0.44,1.42,1.2,1.68,2.08"/>
			</g>
			<g>
				<path d="M276.39,279.41c0.76,0.67,1.33,1.54,1.63,2.51"/>
			</g>
			<g>
				<path d="M274.06,279.55c0.93,0.15,1.67,1.06,1.62,2"/>
			</g>
			<g>
				<path d="M247.54,267.39c0.76-1.94,1.41-3.94,1.92-5.96"/>
			</g>
			<g>
				<path d="M246.51,266.1c-0.34-2.02-0.5-4.07-0.49-6.12"/>
			</g>
			<g>
				<path d="M245.42,264.87c-0.79-1.48-1.37-3.07-1.71-4.71"/>
			</g>
			<g>
				<path d="M245.31,263.21c-1.45-2.17-3.02-4.27-4.69-6.28"/>
			</g>
			<g>
				<path d="M243.4,262.95c-2.16-2.52-4.21-5.15-6.13-7.86"/>
			</g>
			<g>
				<path d="M238.45,260.17c-0.9-1.5-2.05-2.85-3.4-3.97"/>
			</g>
			<g>
				<path d="M237.9,260.19c-2.27-1.59-4.43-3.34-6.45-5.25"/>
			</g>
			<g>
				<path d="M236.58,260.66c-2.7-1.74-5.25-3.73-7.61-5.93"/>
			</g>
			<g>
				<path d="M232.52,259.82c-2.4-1.25-4.8-2.51-7.2-3.76"/>
			</g>
			<g>
				<path d="M230.88,259.52c-2.74-1.24-5.48-2.47-8.22-3.71"/>
			</g>
			<g>
				<path d="M228.9,260.06c-2.85-1.08-5.71-2.15-8.56-3.23"/>
			</g>
			<g>
				<path d="M224.44,259.43c-3.06-1.17-6.18-2.2-9.35-3.07"/>
			</g>
			<g>
				<path d="M228.75,257.47c-2.76-0.91-5.41-2.12-7.9-3.61"/>
			</g>
			<g>
				<path d="M222.29,256.55c-2.77-0.67-5.53-1.39-8.27-2.16"/>
			</g>
			<g>
				<path d="M218.5,256.58c-2.63-0.68-5.21-1.53-7.72-2.54"/>
			</g>
			<g>
				<path d="M216.32,257.36c-3.55-1.51-7.48-2.07-11.31-1.63"/>
			</g>
			<g>
				<path d="M210.23,256.24c-2.68-0.38-5.42-0.34-8.09,0.11"/>
			</g>
			<g>
				<path d="M211.69,254c-3.33-0.9-6.84-1.15-10.27-0.71"/>
			</g>
			<g>
				<path d="M208.26,254.05c-2.9-0.05-5.81,0.24-8.63,0.89"/>
			</g>
			<g>
				<path d="M206.64,252.17c-2.58,0.04-5.15,0.74-7.39,2.02"/>
			</g>
			<g>
				<path d="M222.99,256.29c-3.33-0.39-6.61-1.28-9.69-2.62"/>
			</g>
			<g>
				<path d="M219.39,255c-2.31-0.88-4.72-1.5-7.17-1.87"/>
			</g>
			<g>
				<path d="M213.08,253.44c-2.97-0.9-6.03-1.48-9.13-1.7"/>
			</g>
			<g>
				<path d="M230.01,256.75c-1.43-0.62-2.86-1.24-4.29-1.86"/>
			</g>
			<g>
				<path d="M228.93,256.59c-1.32-0.48-2.64-0.96-3.95-1.44"/>
			</g>
			<g>
				<path d="M225.85,259.68c-3.98-1.79-8.22-2.98-12.55-3.53"/>
			</g>
			<g>
				<path d="M217.75,259.18c-4.04-1.41-8.27-2.26-12.54-2.53"/>
			</g>
			<g>
				<path d="M221.49,255.27c-2.84-1.57-5.83-2.89-8.91-3.93"/>
			</g>
			<g>
				<path d="M211.86,251.49c-3.19-0.44-6.46-0.2-9.55,0.7"/>
			</g>
			<g>
				<path d="M203.94,251.62c-1.9-0.11-3.84,0.41-5.43,1.46"/>
			</g>
			<g>
				<path d="M202.86,253.5c-1.48,0.24-2.87,0.96-3.93,2.01"/>
			</g>
			<g>
				<path d="M240.63,258.18c-0.53-0.84-1.28-1.53-2.17-1.97"/>
			</g>
			<g>
				<path d="M241.11,260.93c-1.71-1.83-3.41-3.65-5.12-5.48"/>
			</g>
			<g>
				<path d="M238.05,259.36c-1.72-1.05-3.44-2.09-5.16-3.14"/>
			</g>
			<g>
				<path d="M236.64,259.32c-2.44-1.12-4.88-2.24-7.31-3.36"/>
			</g>
			<g>
				<path d="M235.2,259.33c-3.16-1.34-6.26-2.82-9.28-4.45"/>
			</g>
			<g>
				<path d="M233.41,260.02c-3.5-1.29-7.1-2.28-10.76-2.96"/>
			</g>
			<g>
				<path d="M229.84,259.96c-0.78-0.17-1.56-0.34-2.34-0.51"/>
			</g>
			<g>
				<path d="M243.88,264.46c-1.31-1.31-2.93-2.3-4.69-2.87"/>
			</g>
			<g>
				<path d="M242.92,264.19c-2.59-1.41-5.04-3.07-7.31-4.95"/>
			</g>
			<g>
				<path d="M239.56,263.19c-2.4-1.73-5.02-3.15-7.78-4.22"/>
			</g>
			<g>
				<path d="M235.42,261.03c-1.5-0.59-3.01-1.17-4.51-1.76"/>
			</g>
			<g>
				<path d="M272.1,262.33c-0.02,0.2-0.28-0.08-0.22-0.27c0.62-2.01,1.72-3.87,3.18-5.39"/>
			</g>
			<g>
				<path d="M274.43,261.74c0.62-2.42,2.03-4.64,3.96-6.23"/>
			</g>
			<g>
				<path d="M274.73,262.49c0.84-3,2.91-5.64,5.63-7.17"/>
			</g>
			<g>
				<path d="M277.13,261.61c1.12-2.69,3.25-4.93,5.87-6.2"/>
			</g>
			<g>
				<path d="M278.99,261.54c1.52-2.64,3.69-4.89,6.27-6.51"/>
			</g>
			<g>
				<path d="M280.41,260.78c2.72-2.21,5.81-3.95,9.1-5.13"/>
			</g>
			<g>
				<path d="M283.22,260.88c3.43-2.21,6.98-4.24,10.64-6.05"/>
			</g>
			<g>
				<path d="M286.43,259.74c3.72-1.85,7.44-3.69,11.16-5.54"/>
			</g>
			<g>
				<path d="M289.54,259.86c3.63-1.53,7.24-3.14,10.8-4.83"/>
			</g>
			<g>
				<path d="M291.7,259.7c4.49-1.27,8.83-3.05,12.92-5.3"/>
			</g>
			<g>
				<path d="M294.01,256.93c3.91-1.39,7.87-2.66,11.86-3.78"/>
			</g>
			<g>
				<path d="M297.08,255.05c4.71-0.77,9.34-2.04,13.8-3.77"/>
			</g>
			<g>
				<path d="M301.54,255.17c0.45,0.2,0.97,0.11,1.45,0c3.15-0.68,6.27-1.47,9.37-2.36"/>
			</g>
			<g>
				<path d="M304.44,256.43c3.12-0.28,6.2-0.99,9.14-2.09"/>
			</g>
			<g>
				<path d="M307.5,256.05c2.63-0.09,5.25-0.58,7.73-1.46"/>
			</g>
			<g>
				<path d="M309.83,254.63c1.98,0.34,4.05,0.12,5.92-0.62"/>
			</g>
			<g>
				<path d="M296.18,260.01c3.56-1.66,7.41-2.69,11.32-3.02"/>
			</g>
			<g>
				<path d="M298.84,258.86c3.62-2.05,7.74-3.21,11.89-3.33"/>
			</g>
			<g>
				<path d="M289.22,256.84c3.53-2.16,7.52-3.57,11.62-4.1"/>
			</g>
			<g>
				<path d="M290.55,255.43c5.58-2.89,11.98-3.63,18.23-4.33"/>
			</g>
			<g>
				<path d="M300.49,254.09c2.53-0.34,5.05-0.78,7.54-1.33"/>
			</g>
			<g>
				<path d="M286.12,256.49c3.3-0.64,6.55-1.59,9.66-2.86"/>
			</g>
			<g>
				<path d="M281.08,256.59c3.22-1.63,6.58-2.98,10.04-4.03"/>
			</g>
			<g>
				<path d="M280.4,256.49c5.04-2.32,10.33-4.08,15.75-5.24"/>
			</g>
			<g>
				<path d="M285.77,256.08c5.03-2.27,10.25-4.13,15.59-5.54"/>
			</g>
			<g>
				<path d="M277.63,257.42c4.22-2.14,8.71-3.76,13.33-4.79"/>
			</g>
			<g>
				<path d="M282.87,258.2c5.7-2.03,11.52-3.73,17.42-5.11"/>
			</g>
			<g>
				<path d="M294.02,256.79c4.01-0.98,8.02-1.97,12.03-2.95"/>
			</g>
			<g>
				<path d="M301.56,254.73c3.45-0.28,6.96,0.21,10.2,1.44"/>
			</g>
			<g>
				<path d="M273.65,311.3c1.51,1.71,2.56,3.83,3.01,6.06c0.17,0.85,0.25,1.75-0.04,2.57c-0.31,0.85-0.99,1.51-1.65,2.13
					c-1.83,1.73-3.98,3.58-6.49,3.39"/>
			</g>
			<g>
				<path d="M259.46,326.46c2.1-2.14,5.05-3.16,7.89-4.12c1.05-0.35,2.37-0.65,3.13,0.16c0.83,0.89,0.16,2.47-0.95,2.96
					s-2.39,0.21-3.56-0.13c-1.16-0.34-2.38-0.75-3.56-0.49"/>
			</g>
			<g>
				<path d="M258.4,326.8c-1.94,0.85-4.26,0.77-6.13-0.22c-1.48-0.78-2.63-2.05-3.93-3.1c-1.31-1.04-2.95-1.9-4.59-1.6
					c-0.55,0.1-1.18,0.48-1.13,1.04c0.02,0.26,0.2,0.48,0.36,0.69c0.98,1.22,2.68,2.54,3.9,1.56c0.97-0.79,0.23-2.71-1.02-2.65"/>
			</g>
			<g>
				<path d="M243.21,324.87c-1.19-0.48-2.37-0.97-3.56-1.45c-0.56-0.23-1.16-0.49-1.48-1c-0.22-0.35-0.29-0.77-0.35-1.18
					c-0.31-2.05-0.36-4.66,1.49-5.61"/>
			</g>
			<g>
				<path d="M283.59,345.22c-3.82-0.25-7.47-1.57-11.15-2.63c-3.68-1.05-7.58-1.85-11.32-1.03c-1.7,0.37-3.32,1.07-5.04,1.33
					c-2.53,0.39-5.09-0.18-7.64-0.35c-4.75-0.32-9.58,0.77-13.72,3.11c-1.04,0.59-2.1,1.27-3.29,1.35
					c-0.68,0.05-1.38-0.11-2.04,0.09c-0.65,0.2-1.21,0.98-0.83,1.55c-0.19,0.06-0.22-0.27-0.11-0.44c0.83-1.34,2.53-1.91,4.11-1.89
					c1.58,0.01,3.1,0.5,4.65,0.81c1.43,0.28,2.89,0.42,4.34,0.55c7.85,0.71,15.7,1.42,23.58,1.55c6.83,0.11,14.01-0.31,19.86-3.85"
					/>
			</g>
			<g>
				<path d="M284.51,346.6c-3.52,1.61-6.74,3.85-9.48,6.58c-1.45,1.45-2.78,3.04-4.44,4.25c-4.22,3.05-9.83,3.09-15.04,3.01
					c-2.58-0.04-5.22-0.09-7.66-0.93c-1.78-0.61-3.39-1.62-4.98-2.61c-1.63-1.02-3.26-2.05-4.9-3.07c-1.21-0.76-2.42-1.52-3.4-2.56
					c-0.98-1.04-1.7-2.39-1.68-3.81c4.43,0.54,8.86,1.08,13.29,1.62c4.47,0.55,8.95,1.09,13.45,1.21c4.21,0.11,8.43-0.14,12.64-0.4
					c1.61-0.1,3.23-0.2,4.81-0.53c1.02-0.22,2.03-0.53,3.03-0.84c1.17-0.37,2.33-0.73,3.5-1.1"/>
			</g>
		</g>
	</g>
</g>
<g id="kläder">
	<g>
		<path class="st2" d="M474.61,431.67c6.56,1.72,13.13,3.44,19.69,5.16c4.36,1.14,9.27,2.73,11.11,6.84
			c0.83,1.85,0.89,3.94,0.93,5.97c0.26,12.71,0.51,25.55-2.14,37.98c-2.31,10.84-6.82,21.41-6.45,32.49
			c-14.32-1.1-28.65-2.19-42.97-3.29c-2.93-0.22-5.92-0.46-8.65-1.54c-7.71-3.05-11.5-12.28-10.72-20.53
			c0.78-8.25,5.13-15.69,9.67-22.63c9.21-14.1,19.6-27.42,31.04-39.78"/>
	</g>
	<g>
		<path class="st3" d="M472.77,478.06c14.1-13.52,28.2-27.04,42.29-40.55c-35.08-9.93-70.15-19.85-105.23-29.78
			c-13.23-3.74-26.66-7.57-38.33-14.85c-21.35-13.31-34.89-38.28-34.43-63.43c-12.22,16.05-24.7,32.36-41.09,44.12
			c-9.73,6.99-21.4,12.36-33.32,11.22c-19.54-1.87-31.77-20.46-42.66-36.8c0.84,11.1-6.61,22.44-15.01,29.74
			c-8.4,7.3-18.81,11.81-29.03,16.2c-14.87,6.39-30.17,12.87-46.34,13.5c-8.41,0.32-16.83-0.96-25.23-0.45
			c-27.22,1.64-51.84,21.74-78.96,18.87c-0.65,26.6,4.32,53.32,14.52,77.9c5.27,27.3,4.51,50.55,8.51,78.36
			c3.79,26.38,6.87,53.31,2.37,79.58c-1.45,8.46-3.67,16.77-5.68,25.11c97.07,13.49,196.03,13.38,293.07-0.33
			c7.48-1.06,15.7-2.61,20.39-8.53c3.4-4.29,4.2-10.02,5-15.44c6.16-41.8,19.31-83.37,44.43-117.33
			c12.76-17.25,28.32-32.18,43.81-47.03C458.81,491.45,465.79,484.76,472.77,478.06z"/>
	</g>
	<g>
		<path class="st2" d="M56.58,429.61c45.79,19.89,90.39,42.56,133.44,67.84L213,369c-3.73,2.56-13.55,10.86-18,15
			c-3.5,3.26-6.68,3.94-11,6c-15.87,7.56-30.4,14.65-47.95,15.57c-3.54,0.19-7.09,0.13-10.63,0.21
			c-10.94,0.23-21.16,0.33-30.41,2.22c-5.05,1.03-12.52,2.26-17.33,4.11c-2.84,1.09-5.51,2.57-8.25,3.89
			c-11.53,5.56-24.42,8.29-37.21,7.9c-2.09-0.06-5.74,0.62-7.21,2.11"/>
	</g>
	<g>
		<path class="st4" d="M349.63,528.66c-0.32,0.75-0.65,1.51-0.97,2.26c-27.89-19.14-51.2-44.12-73.71-69.36
			c-8.71-9.77-17.37-19.64-24.78-30.43c-10.13-14.73-17.82-30.98-25.46-47.14c-3.57-7.55-4.4-16.71-3.71-24.99
			c0.5,4.98,1.01,10.35,3,15c8.51,19.87,16.56,40.07,30,57c1.86,2.34,3.11,5.16,5.05,7.43c6.08,7.11,12.16,14.22,18.24,21.32
			c11.21,13.1,22.45,26.25,35.23,37.82c11.84,10.72,24.89,20,37.9,29.25C350.16,527.43,349.9,528.05,349.63,528.66z"/>
	</g>
	<g>
		<path class="st4" d="M331,359c-14.34,33.21-32.36,65.09-54.91,93.38c-1.09,1.37-2.27,2.79-3.91,3.41s-4.58-3.14-5.18-4.79
			c2.58-4.26,4.42-6.73,7-11c21.78-26.87,42.2-59.77,59-90C332.43,351.35,331.58,357.65,331,359z"/>
	</g>
	<g>
		<path class="st2" d="M317.11,380.1c-9.97,17.3-21.3,33.82-33.85,49.35c-5.42,6.7-11.15,13.37-14.41,21.34
			c-17.27-16.86-28.33-38.95-38.42-60.87c-5.71-12.39-11.33-25.86-9.15-39.25c6.65,6.87,13.3,13.73,19.94,20.6
			c2.89,2.98,5.81,6,9.37,8.13c7.47,4.48,16.95,4.54,25.29,2.04c8.34-2.5,15.78-7.31,22.97-12.23c6.94-4.74,13.81-9.66,19.9-15.46
			c7.02-6.69,12.94-14.52,17.47-23.09c1.55,7.73-1.69,15.54-5.07,22.66C326.83,362.44,322.14,371.37,317.11,380.1z"/>
	</g>
	<circle class="st4" cx="187" cy="482" r="20.5"/>
</g>
<g id="fejs">
	<g>
		<path class="st5" d="M277.78,194.26c-4.8-1.72-9.98-2.37-15.06-1.87c-5.04,0.5-9.91,2.1-14.6,4.02
			c-21.05,8.62-39.91,25.11-46.42,46.91c-4.71,15.77-2.66,32.72,0.38,48.89c3.22,17.16,7.55,34.23,14.85,50.09
			c7.3,15.86,17.71,30.54,31.6,41.12c3.12,2.38,6.46,4.57,10.19,5.78c10.26,3.34,21.37-1.19,30.66-6.68
			c9.19-5.44,17.77-11.91,25.52-19.25c2.3-2.17,4.55-4.47,6.02-7.27c0.69-1.31,1.2-2.72,2.1-3.89c0.97-1.27,2.33-2.17,3.56-3.18
			c7.72-6.33,10.54-16.74,12.84-26.46c2.44-10.31,4.76-20.65,6.98-31.01c3.95-18.48,7.44-38.35,0.16-55.79
			c-2.22-5.32-5.37-10.19-8.67-14.91c-3.75-5.35-7.78-10.62-12.91-14.67c-13.35-10.54-31.71-11.28-48.72-11.57"/>
	</g>
	<g>
		<path class="st5" d="M193.32,298.8c0.91,1.99,1.88,3.94,2.91,5.86c0.9,1.66,2.24,3.52,4.12,3.39c1.3-0.09,2.35-1.18,2.79-2.41
			s0.38-2.56,0.29-3.86c-0.54-8.28-1.88-16.52-4-24.54c-3.64-3.12-7.28-6.25-10.92-9.38c-0.45-0.39-0.95-0.79-1.54-0.82
			c-1.54-0.07-1.93,2.1-1.73,3.63C186.53,280.38,189.26,289.89,193.32,298.8z"/>
	</g>
	<g>
		<path class="st5" d="M349.08,276.19c0.9-1.87,2.43-3.43,4.29-4.35c0.91-0.45,2.16-0.69,2.82,0.08c0.34,0.38,0.42,0.92,0.49,1.43
			c0.89,6.28,1.72,12.95-0.82,18.76c-0.75,1.72-1.77,3.3-2.51,5.03c-1.19,2.77-1.61,5.85-3.01,8.52c-1.4,2.67-4.32,4.96-7.24,4.22
			c-0.12-0.03-0.26-0.07-0.33-0.18c-0.1-0.13-0.08-0.32-0.05-0.49c2.27-12.13,4.53-24.26,6.8-36.39"/>
	</g>
</g>
<g id="hår">
	<g>
		<path class="st6" d="M182.88,201.27c0.51-0.76,1.02-1.5,1.55-2.24c3.77-5.31,8.17-11.43,6.44-17.7c-0.44-1.59-1.27-3.11-1.32-4.76
			c-0.05-1.69,0.73-3.29,1.49-4.8c4.22-8.43,9.4-17.69,18.46-20.32c4.77-1.39,10.07-0.69,14.6-2.73c2.51-1.13,4.58-3.02,6.82-4.62
			c13.89-9.94,32.67-8.23,49.62-6.09c10.09,1.27,20.18,2.55,30.27,3.82c1.99,0.25,4.02,0.51,5.85,1.34
			c1.68,0.76,3.11,1.96,4.57,3.07c6.42,4.87,13.94,8.3,21.83,9.96c1.94,0.41,3.92,0.72,5.77,1.43c5.86,2.26,9.48,8.21,11.49,14.17
			c3.65,10.82,3.38,22.61,6.45,33.61c0.92,3.29,2.14,6.51,2.74,9.88c0.68,3.88,0.52,7.84,0.36,11.78
			c-0.29,6.94-0.57,13.87-0.86,20.81c-0.21,5-0.44,10.11-2.25,14.77c-2.25,5.78-6.74,10.39-11.49,14.38
			c-0.79,0.67-1.65,1.4-1.85,2.42c-0.2,0.98-5.35-2.25-4.41-2.44c-1.51-19.07,2.64-34.87-8.5-50.46
			c-8.23-11.52-21.27-19.49-35.28-21.55c-10.33-5.92-22.84-6.76-34.69-5.62c-12.92,1.24-25.76,4.74-36.91,11.38
			s-20.55,16.56-25.41,28.6c-5.33,13.2-2.51,27.6-8.2,40.65c-9.42-11.25-19.2-23.74-23.7-37.71c-1.64-5.1-2.94-10.39-2.84-15.74
			C173.62,217.43,177.77,208.89,182.88,201.27z"/>
	</g>
	<g>
		<path class="st6" d="M197.91,267.47c-4.45,16.59,0.46,34.21,2.46,51.37c0.91,7.84,1.21,15.76,0.89,23.66"/>
	</g>
	<g>
		<path class="st6" d="M196.16,262.42c-3.74,12.62-3.11,26.31-1.49,39.47c1.62,13.16,4.19,26.25,4.23,39.53"/>
	</g>
	<g>
		<path class="st6" d="M193.17,262c-2.62,3.83-3.5,8.78-3.76,13.58c-0.55,10.09,1.29,20.12,3.12,30.02
			c1.25,6.78,2.51,13.56,3.76,20.34c1.02,5.49,1.95,11.57-0.62,16.4"/>
	</g>
	<g>
		<path class="st6" d="M190.12,262.8c-3.5,12.9-2.13,26.77,0.16,40c2.29,13.22,5.5,26.39,5.59,39.85"/>
	</g>
	<g>
		<path class="st6" d="M352.14,274.39c-4.79,6.89-4.34,16.18-2.08,24.26c2.26,8.08,6.11,15.71,7.62,23.97
			c1.87,10.21-0.07,21.07-5.35,30"/>
	</g>
	<g>
		<path class="st6" d="M353.62,273.11c-2.6,5.31-3.47,11.45-2.43,17.27c0.62,3.49,1.9,6.83,3.08,10.18
			c2.05,5.83,3.8,11.77,5.25,17.79c2.79,11.63,4.32,24.4-0.95,35.14"/>
	</g>
	<g>
		<path class="st6" d="M353.79,275.29c0.3,0.02,0.13-0.57-0.17-0.5c-0.3,0.07-0.4,0.43-0.46,0.73c-1.52,8.87-0.41,18.17,3.14,26.43
			c1.59,3.71,3.66,7.21,5.19,10.95c5.17,12.68,3.69,26.97,2.13,40.57"/>
	</g>
</g>
<g id="ögon">
	<g>
		<path class="st7" d="M255.56,281.49c-2.69-2.86-5.64-5.52-9.09-7.38c-3.45-1.85-7.46-2.86-11.33-2.26s-7.57,2.94-9.27,6.47
			c0.57,1.33,1.92,2.13,3.25,2.71c7.99,3.51,17.3,2.1,25.55-0.74"/>
	</g>
	<g>
		<path class="st8" d="M241.62,279.75c0.01-0.01,0.01-0.02,0.02-0.03c1.08-1.55,1.48-3.79,0.32-5.28c-0.68-0.88-1.77-1.34-2.85-1.6
			c-2.87-0.68-5.99-0.06-8.44,1.56c-0.62-0.03-1.23,0.42-1.5,1c-0.29,0.64-0.25,1.38-0.1,2.07c0.63,2.79,3.17,5.03,6.01,5.32
			C237.59,283.05,240.17,281.81,241.62,279.75z"/>
	</g>
	<g>
		<g>
			<path class="st9" d="M227.77,274.52c-0.32,0.13-0.64,0.17-0.97,0.17c-0.32,0-0.65-0.08-0.93-0.22c-0.62-0.3-1.05-0.8-1.15-1.47
				c-0.03-0.21-0.29-0.32-0.48-0.27c-0.22,0.06-0.3,0.27-0.27,0.48c0.13,0.85,0.77,1.57,1.54,1.92c0.39,0.18,0.81,0.29,1.25,0.29
				c0.21,0,0.42-0.04,0.62-0.1c0.23-0.07,0.4-0.18,0.58-0.32c0.1-0.08,0.16-0.19,0.11-0.32
				C228.03,274.57,227.89,274.47,227.77,274.52L227.77,274.52z"/>
		</g>
	</g>
	<g>
		<g>
			<path class="st9" d="M230.1,273.46c-0.32,0.06-0.7-0.05-1.01-0.12c-0.33-0.07-0.66-0.19-0.96-0.36
				c-0.29-0.16-0.56-0.37-0.78-0.62c-0.23-0.25-0.39-0.55-0.55-0.85c-0.19-0.36-0.73-0.11-0.64,0.27c0.2,0.8,0.89,1.49,1.62,1.85
				c0.39,0.19,0.79,0.31,1.22,0.35c0.2,0.02,0.39-0.01,0.59-0.04c0.21-0.04,0.39-0.13,0.59-0.19
				C230.36,273.69,230.28,273.42,230.1,273.46L230.1,273.46z"/>
		</g>
	</g>
	<g>
		<g>
			<path class="st9" d="M231.06,272.07c-0.15,0.01-0.24-0.01-0.36-0.05c-0.06-0.02-0.13-0.03-0.19-0.05
				c-0.03-0.01-0.06-0.02-0.09-0.03c-0.06-0.02,0.02,0.01-0.05-0.02c-0.12-0.06-0.23-0.11-0.34-0.17c-0.06-0.03-0.12-0.07-0.17-0.11
				c-0.03-0.02-0.06-0.04-0.08-0.06c-0.02-0.02-0.02-0.01,0.01,0.01c-0.01-0.01-0.03-0.02-0.04-0.03c-0.1-0.08-0.19-0.17-0.28-0.27
				c-0.02-0.03-0.04-0.05-0.07-0.08c0-0.01-0.07-0.09-0.02-0.03c-0.04-0.05-0.08-0.11-0.11-0.17c-0.03-0.06-0.07-0.12-0.1-0.18
				c-0.01-0.01-0.05-0.1-0.02-0.03c-0.01-0.03-0.02-0.06-0.04-0.09c-0.05-0.13-0.09-0.26-0.13-0.38c-0.13-0.36-0.63-0.29-0.66,0.09
				c-0.02,0.34,0.12,0.69,0.29,0.97c0.18,0.3,0.41,0.54,0.68,0.74c0.25,0.19,0.54,0.34,0.85,0.4c0.16,0.03,0.32,0.05,0.48,0.05
				c0.09,0,0.16-0.03,0.27-0.04c0.08-0.01,0.15-0.02,0.23-0.03C231.37,272.48,231.31,272.06,231.06,272.07L231.06,272.07z"/>
		</g>
	</g>
	<g>
		<g>
			<path class="st9" d="M233.9,270.96c-0.04,0.01-0.08,0.02-0.12,0.03c0.08,0.02,0.17,0.04,0.25,0.07c0,0-0.01-0.01-0.01-0.01
				c-0.07-0.08-0.19-0.09-0.29-0.08c-0.22,0.04-0.43,0-0.62-0.06c-0.24-0.07-0.43-0.18-0.67-0.31c-0.11-0.06-0.22-0.12-0.32-0.19
				c-0.05-0.03-0.1-0.06-0.15-0.1c-0.01,0-0.07-0.05-0.04-0.02c0.04,0.03-0.04-0.03-0.05-0.04c-0.02-0.02-0.04-0.04-0.05-0.05
				c0.04,0.04,0.01,0-0.01-0.02c-0.04-0.05,0.03,0.06,0.01,0.01c-0.02-0.05,0,0.07,0,0.02c0-0.03,0-0.02-0.01,0.03
				c0-0.01,0-0.02,0.01-0.03c0-0.01,0.01-0.02,0.01-0.03c-0.01,0.02-0.01,0.03-0.02,0.05c0.01-0.02,0.03-0.04,0.04-0.06
				c0.01-0.02-0.04,0.03-0.06,0.05c0.13-0.1,0.22-0.24,0.17-0.41c-0.04-0.16-0.19-0.26-0.35-0.27c-0.47-0.02-0.71,0.49-0.59,0.9
				c0.11,0.38,0.45,0.58,0.77,0.76c0.62,0.33,1.4,0.65,2.1,0.36c0.13-0.05,0.21-0.14,0.22-0.29c0,0,0-0.01,0-0.01
				c-0.04,0.07-0.08,0.15-0.13,0.22c0.04-0.02,0.07-0.04,0.11-0.07C234.3,271.25,234.16,270.89,233.9,270.96L233.9,270.96z"/>
		</g>
	</g>
	<g>
		<g>
			<path class="st9" d="M236.53,271.16c-0.15-0.07-0.29-0.16-0.43-0.24c-0.14-0.09-0.29-0.16-0.43-0.25
				c-0.28-0.16-0.52-0.34-0.75-0.56c-0.18-0.18-0.31-0.42-0.38-0.67c-0.01-0.03-0.02-0.06-0.02-0.1c0-0.02-0.01-0.09-0.01-0.03
				c-0.01-0.07-0.01-0.14,0-0.21c0-0.02,0.01-0.09,0-0.03c0.01-0.04,0.01-0.08,0.02-0.11c0.01-0.04,0.02-0.08,0.03-0.11
				c0-0.01,0.04-0.11,0.02-0.06c0.08-0.19,0.05-0.41-0.14-0.52c-0.18-0.1-0.41-0.04-0.52,0.14c-0.41,0.69-0.14,1.57,0.35,2.14
				c0.26,0.3,0.62,0.51,0.99,0.67c0.17,0.07,0.35,0.14,0.54,0.18c0.19,0.04,0.39,0.05,0.59,0.1
				C236.58,271.54,236.72,271.24,236.53,271.16L236.53,271.16z"/>
		</g>
	</g>
	<g>
		<g>
			<path class="st9" d="M238.54,270.56c-0.03,0.01-0.06,0.02-0.1,0.02c0.05-0.01-0.02,0-0.03,0c-0.06,0-0.11,0-0.17,0
				c0.07,0.01-0.03-0.01-0.04-0.01c-0.02-0.01-0.05-0.01-0.07-0.02c-0.02-0.01-0.12-0.05-0.04-0.01c-0.02-0.01-0.04-0.02-0.06-0.03
				c-0.05-0.03-0.1-0.05-0.15-0.08c-0.02-0.01-0.06-0.03-0.08-0.06c0.01,0.01,0.02,0.02,0.03,0.03c-0.01-0.01-0.02-0.02-0.04-0.03
				c-0.04-0.04-0.08-0.08-0.12-0.12c-0.01-0.01-0.02-0.02-0.03-0.04c0.03,0.04,0.04,0.05,0.02,0.03c-0.02-0.02-0.03-0.05-0.05-0.07
				c-0.01-0.02-0.02-0.04-0.04-0.07c-0.02-0.04-0.01-0.03,0.01,0.02c-0.01-0.02-0.01-0.03-0.02-0.05c-0.01-0.02-0.05-0.16-0.04-0.17
				c0.01,0.05,0.01,0.06,0.01,0.04c0-0.01,0-0.02,0-0.04c0-0.03,0-0.07,0-0.1c0-0.02,0-0.05,0-0.07c0-0.04,0-0.03,0,0.02
				c0-0.02,0.01-0.03,0.01-0.05c0.01-0.06,0.03-0.11,0.05-0.17c0.02-0.07-0.03,0.07,0,0c0.01-0.03,0.03-0.06,0.05-0.09
				c0.03-0.05,0.06-0.09,0.09-0.13c0.05-0.07-0.04,0.04,0.01-0.01c0.04-0.04,0.06-0.08,0.09-0.13c0.07-0.12,0.06-0.26-0.03-0.37
				c-0.08-0.1-0.23-0.17-0.35-0.12c-0.55,0.2-0.71,0.93-0.61,1.44c0.1,0.55,0.56,0.95,1.11,1.02c0.27,0.03,0.54-0.02,0.78-0.14
				C238.98,270.87,238.8,270.5,238.54,270.56L238.54,270.56z"/>
		</g>
	</g>
	<g>
		<g>
			<path class="st9" d="M240.99,271.61c-0.06-0.03-0.07-0.06-0.13-0.1c-0.05-0.03-0.11-0.06-0.16-0.1c-0.08-0.05-0.16-0.12-0.23-0.2
				c-0.02-0.02-0.04-0.04-0.06-0.06c-0.01-0.01-0.06-0.08-0.04-0.04c-0.03-0.05-0.07-0.09-0.1-0.14c-0.03-0.05-0.06-0.1-0.08-0.15
				c-0.01-0.03-0.03-0.05-0.04-0.08c0.02,0.05-0.01-0.02-0.01-0.03c-0.04-0.11-0.07-0.22-0.09-0.34c0-0.01-0.02-0.11-0.01-0.02
				c0-0.03-0.01-0.06-0.01-0.09c0-0.06-0.01-0.11,0-0.17c0-0.03,0-0.06,0.01-0.09c0-0.04,0.01-0.08,0-0.02
				c0.01-0.06,0.02-0.11,0.03-0.17c0.01-0.03,0.02-0.06,0.03-0.1c0-0.01,0.04-0.1,0.02-0.05c-0.02,0.05,0.02-0.04,0.02-0.05
				c0.02-0.03,0.03-0.06,0.05-0.09c0.1-0.17,0.04-0.4-0.13-0.5c-0.17-0.1-0.4-0.04-0.5,0.13c-0.32,0.55-0.29,1.22-0.01,1.78
				c0.13,0.26,0.33,0.49,0.56,0.67c0.12,0.09,0.24,0.16,0.37,0.21c0.06,0.02,0.12,0.04,0.19,0.05c0.09,0.02,0.16-0.01,0.25-0.01
				C241.04,271.85,241.11,271.67,240.99,271.61L240.99,271.61z"/>
		</g>
	</g>
	<g>
		<g>
			<path class="st9" d="M243.2,272.36c-0.03-0.02-0.06-0.03-0.08-0.05c0.04,0.03-0.04-0.04-0.05-0.05
				c-0.05-0.04-0.09-0.08-0.14-0.13c-0.08-0.09-0.12-0.14-0.18-0.25c-0.03-0.06-0.06-0.11-0.08-0.17c-0.01-0.02-0.02-0.05-0.04-0.07
				c-0.01-0.03-0.04-0.09-0.01-0.03c-0.05-0.12-0.08-0.24-0.11-0.37c0-0.03-0.02-0.12,0-0.02c0-0.03-0.01-0.06-0.01-0.09
				c-0.01-0.06-0.01-0.12-0.01-0.17c0-0.06,0-0.12,0.01-0.17c0-0.02,0-0.04,0.01-0.06c0,0.02,0,0.04-0.01,0.06
				c-0.01-0.02,0.01-0.07,0.02-0.09c0.01-0.06,0.03-0.12,0.04-0.18c0.01-0.03,0.02-0.06,0.03-0.09c0.03-0.1-0.04,0.09,0-0.01
				c0.07-0.14,0.16-0.26,0.21-0.41c0.1-0.36-0.31-0.67-0.63-0.48c-0.3,0.18-0.46,0.61-0.52,0.94c-0.06,0.34-0.04,0.69,0.07,1.02
				c0.11,0.31,0.27,0.61,0.52,0.83c0.24,0.21,0.5,0.35,0.81,0.41C243.26,272.75,243.39,272.47,243.2,272.36L243.2,272.36z"/>
		</g>
	</g>
	<g>
		<g>
			<path class="st9" d="M245.02,273.32c-0.15-0.15-0.28-0.36-0.36-0.54c-0.04-0.1-0.08-0.21-0.1-0.32
				c-0.01-0.06-0.02-0.11-0.03-0.17c-0.02-0.1,0,0.06-0.01-0.05c0-0.03,0-0.06-0.01-0.08c0-0.06,0-0.11,0-0.17c0-0.03,0-0.06,0-0.09
				c0,0,0.01-0.1,0-0.05c-0.01,0.05,0.01-0.04,0.01-0.05c0.01-0.03,0.01-0.07,0.02-0.1c0.01-0.06,0.02-0.11,0.04-0.16
				c0.02-0.05,0.03-0.11,0.05-0.16c-0.03,0.09,0.03-0.06,0.03-0.08c0.01-0.03,0.03-0.07,0.01-0.02c0.05-0.11,0.12-0.22,0.19-0.32
				c0.11-0.15,0.04-0.39-0.1-0.49c-0.14-0.11-0.37-0.12-0.5,0.03c-0.43,0.5-0.56,1.11-0.43,1.75c0.06,0.27,0.17,0.55,0.34,0.77
				c0.09,0.12,0.18,0.23,0.29,0.32c0.11,0.1,0.23,0.16,0.36,0.22C244.98,273.63,245.14,273.45,245.02,273.32L245.02,273.32z"/>
		</g>
	</g>
	<g>
		<g>
			<path class="st9" d="M226.03,276.78c-0.03,0-0.06,0-0.09-0.01c-0.01,0-0.03,0-0.04,0c0.02,0,0.02,0,0,0
				c-0.05-0.01-0.11-0.02-0.16-0.04c-0.1-0.02-0.2-0.05-0.3-0.08c-0.03-0.01-0.06-0.02-0.09-0.03c-0.01,0-0.02-0.01-0.04-0.01
				c0.03,0.01,0.04,0.02,0.01,0.01c-0.05-0.02-0.1-0.05-0.15-0.08c-0.05-0.03-0.09-0.05-0.13-0.08c-0.02-0.01-0.04-0.03-0.06-0.05
				c0.06,0.05-0.01-0.01-0.03-0.02c-0.08-0.07-0.16-0.15-0.23-0.23c-0.06-0.07,0.04,0.05-0.01-0.02c-0.02-0.02-0.03-0.04-0.04-0.06
				c-0.03-0.05-0.06-0.1-0.09-0.14c-0.01-0.02-0.02-0.05-0.03-0.07c-0.04-0.08,0.01,0.04-0.01-0.03c-0.02-0.05-0.03-0.1-0.05-0.15
				c-0.03-0.11-0.03-0.22-0.07-0.33c-0.05-0.12-0.15-0.23-0.3-0.23c-0.14,0.01-0.26,0.09-0.3,0.23c-0.09,0.29,0.05,0.64,0.18,0.89
				c0.12,0.23,0.3,0.44,0.5,0.6c0.22,0.18,0.47,0.31,0.74,0.39c0.28,0.08,0.56,0.05,0.83-0.05
				C226.3,277.11,226.28,276.79,226.03,276.78L226.03,276.78z"/>
		</g>
	</g>
	<g>
		<path class="st7" d="M289.26,279.44c-0.43,0.53-0.85,1.08-1.24,1.64c4.67,0.5,9.34,1,14.01,1.5c1.35,0.14,2.71,0.29,4.06,0.19
			c4.2-0.3,7.84-2.83,11.22-5.37c-2.48-3.09-6.56-4.59-10.48-5.45c-2.49-0.55-5.11-0.91-7.58-0.25c-2.03,0.55-3.82,1.76-5.43,3.11
			C292.15,276.21,290.62,277.76,289.26,279.44z"/>
	</g>
	<g>
		<path class="st8" d="M304.82,281.02c-0.02,0.01-0.03,0.01-0.05,0.02c-1.05,0.41-2.11,0.79-3.18,1.13
			c-0.38,0.12-0.77,0.24-1.17,0.23c-0.54-0.02-1.05-0.27-1.53-0.52c-1.46-0.74-3.03-1.61-3.63-3.13c-0.35-0.87-0.32-1.85-0.23-2.78
			c0.04-0.39,0.09-0.79,0.19-1.17c2.51-2.41,6.21-3.48,9.62-2.81c1.07,0.21,2.17,0.63,2.77,1.54c0.84,1.27,0.39,2.97-0.09,4.42
			c-0.26,0.78-0.54,1.6-1.14,2.17C305.95,280.55,305.38,280.8,304.82,281.02z"/>
	</g>
	<g>
		<g>
			<path class="st9" d="M295.01,273.66c-0.02,0-0.03,0.01-0.05,0.01c-0.05,0.01,0.06-0.01,0.01,0c0.04,0.01,0.09,0.02,0.13,0.04
				c-0.01,0-0.01-0.01-0.02-0.01c0.04,0.06,0.09,0.11,0.13,0.17c0,0,0,0,0,0c-0.02-0.13-0.16-0.21-0.29-0.22c-0.02,0-0.04,0-0.05,0
				c-0.02,0,0.09,0.02,0.02,0c0.05,0.03,0.09,0.05,0.14,0.08c-0.08-0.07-0.17-0.09-0.27-0.13c-0.01-0.01-0.06-0.02,0,0
				c0.06,0.03,0.02,0.01,0,0c-0.03-0.01-0.05-0.02-0.08-0.04c-0.03-0.01-0.05-0.03-0.07-0.04c-0.01-0.01-0.02-0.01-0.03-0.02
				c-0.05-0.04,0.03,0.02,0.03,0.03c0-0.01-0.06-0.05-0.07-0.06c-0.02-0.02-0.04-0.04-0.06-0.06c-0.02-0.02-0.04-0.04-0.06-0.06
				c-0.01-0.01-0.02-0.02-0.03-0.04c-0.01-0.01-0.04-0.05,0,0c0.04,0.06,0.01,0.01,0,0c-0.01-0.01-0.02-0.03-0.03-0.04
				c-0.01-0.02-0.03-0.05-0.04-0.07c-0.01-0.03-0.03-0.05-0.04-0.08c-0.02-0.04,0.04,0.1,0.02,0.04c-0.01-0.01-0.01-0.03-0.02-0.04
				c-0.02-0.05-0.03-0.11-0.04-0.17c0,0.03,0.01,0.07,0.01,0.1c-0.01-0.07-0.01-0.14,0-0.21c0,0.03-0.01,0.07-0.01,0.1
				c0.01-0.05,0.02-0.1,0.04-0.15c0.02-0.08,0.03-0.15,0.04-0.23c0.03-0.26-0.33-0.45-0.53-0.31c-0.08,0.05-0.13,0.1-0.18,0.18
				c-0.04,0.05-0.06,0.12-0.08,0.18c-0.03,0.09-0.04,0.2-0.05,0.3c-0.01,0.18,0.04,0.36,0.11,0.53c0.15,0.36,0.43,0.64,0.8,0.77
				c0.1,0.04,0.2,0.05,0.3,0.05c0.09,0,0.17-0.01,0.26-0.05c0,0-0.07,0.02-0.04,0.02c0.01,0,0.02,0,0.03-0.01
				c0.02,0,0.04-0.01,0.07-0.02c0.12-0.03,0.23-0.16,0.22-0.29c0,0,0,0,0,0c-0.01,0.05-0.03,0.09-0.04,0.14
				c0-0.01,0.01-0.01,0.01-0.02c-0.05,0.04-0.1,0.08-0.15,0.12c0.06-0.02,0.11-0.04,0.16-0.07c0.11-0.05,0.15-0.2,0.1-0.31
				C295.25,273.69,295.13,273.63,295.01,273.66L295.01,273.66z"/>
		</g>
	</g>
	<g>
		<g>
			<path class="st9" d="M296.27,272.5c-0.02-0.03-0.04-0.06-0.06-0.09c-0.01-0.01-0.01-0.01,0,0c0.02,0.03,0.01,0.01-0.02-0.06
				c-0.01-0.01-0.01-0.03-0.02-0.04c0.01,0.02,0.01,0.03,0,0c-0.01-0.02-0.01-0.04-0.02-0.05c0-0.02-0.01-0.01,0,0.01
				c0,0.03,0,0.02,0-0.02c0-0.03-0.01-0.06-0.02-0.09c-0.02-0.07-0.03-0.14-0.04-0.21c0-0.02-0.01-0.03-0.01-0.05
				c-0.01-0.06,0,0.05,0,0.01c0-0.04-0.01-0.07-0.01-0.11c0-0.07,0-0.13,0.01-0.2c0-0.04-0.01,0.07,0,0.01
				c0-0.02,0.01-0.03,0.01-0.05c0.01-0.03,0.02-0.07,0.03-0.1c0.01-0.03,0.02-0.07,0.03-0.1c0.01-0.02,0.01-0.04,0.02-0.05
				c0.01-0.04-0.03,0.06-0.01,0.01c0.02-0.03,0.03-0.06,0.05-0.09c0.02-0.03,0.03-0.07,0.04-0.1c-0.03,0.08,0,0,0.01-0.01
				c0.07-0.14,0.05-0.3-0.08-0.4c-0.12-0.1-0.29-0.08-0.4,0.02c-0.28,0.26-0.39,0.69-0.37,1.06c0.01,0.21,0.05,0.39,0.14,0.58
				c0.01,0.02,0.02,0.04,0.03,0.06c0.01,0.02,0.07,0.1,0.03,0.04c0.02,0.04,0.05,0.07,0.07,0.11c0.02,0.03,0.04,0.06,0.07,0.08
				c0.02,0.02,0.08,0.1,0.06,0.06c-0.02-0.03,0.01,0.02,0.02,0.03c0.02,0.02,0.03,0.03,0.05,0.05c0.09,0.09,0.24,0.1,0.34,0.02
				C296.29,272.77,296.35,272.61,296.27,272.5L296.27,272.5z"/>
		</g>
	</g>
	<g>
		<g>
			<path class="st9" d="M298.65,272.01c-0.05-0.06,0.03,0.05-0.02-0.02c-0.01-0.02-0.02-0.03-0.03-0.05
				c-0.02-0.04-0.04-0.08-0.06-0.12c-0.03-0.05,0.01,0.03,0-0.01c-0.01-0.02-0.01-0.04-0.02-0.06c-0.01-0.04-0.02-0.08-0.03-0.12
				c0-0.01-0.01-0.1,0-0.01c0-0.02,0-0.04-0.01-0.06c0-0.04,0-0.09,0-0.13c0-0.04,0-0.08,0.01-0.12c0-0.02,0-0.06,0.01-0.07
				c-0.01,0.03-0.01,0.06,0,0.01c0.02-0.08,0.04-0.16,0.07-0.24c0.02-0.06-0.02,0.05,0,0.01c0.01-0.02,0.02-0.04,0.03-0.05
				c0.02-0.04,0.04-0.08,0.06-0.11c0.01-0.01,0.08-0.1,0.07-0.11c0,0-0.05,0.06-0.02,0.02c0.02-0.02,0.03-0.04,0.05-0.05
				c0.06-0.06,0.12-0.13,0.19-0.18c0.14-0.11,0.13-0.35,0.03-0.48c-0.11-0.14-0.31-0.18-0.47-0.09c-0.44,0.25-0.66,0.73-0.7,1.22
				c-0.02,0.21,0.02,0.44,0.09,0.63c0.02,0.04,0.03,0.08,0.05,0.12c-0.03-0.08,0.01,0.04,0.03,0.07c0.02,0.04,0.04,0.09,0.07,0.13
				c0.06,0.1,0.14,0.2,0.22,0.28c0.11,0.11,0.29,0.11,0.39,0C298.76,272.29,298.75,272.13,298.65,272.01L298.65,272.01z"/>
		</g>
	</g>
	<g>
		<g>
			<path class="st9" d="M301.34,271.33C301.29,271.33,301.3,271.33,301.34,271.33c-0.01-0.02-0.04-0.04-0.07-0.05
				c-0.04-0.02-0.08-0.02-0.11-0.04c0.05,0.04,0.1,0.08,0.15,0.12c-0.05-0.08-0.1-0.12-0.18-0.17c-0.02-0.01-0.04-0.02-0.05-0.03
				c-0.05-0.03,0,0.01-0.02-0.01c-0.04-0.03-0.07-0.07-0.1-0.1c-0.02-0.02-0.04-0.04-0.06-0.06c-0.04-0.04,0.03,0.04,0,0
				c-0.03-0.05-0.05-0.1-0.08-0.14c-0.03-0.05,0.02,0.05,0,0c-0.01-0.03-0.02-0.05-0.03-0.08c-0.02-0.05-0.02-0.1-0.04-0.15
				c-0.01-0.04,0,0.06,0-0.01c0-0.03,0-0.06,0-0.09c0-0.03,0-0.05,0-0.08c0-0.03,0.01-0.09,0-0.03c0.01-0.06,0.02-0.11,0.04-0.17
				c0.02-0.06,0.04-0.11,0.06-0.17c-0.02,0.06,0.01-0.02,0.02-0.03c0.01-0.03,0.03-0.06,0.04-0.09c0.12-0.23,0.28-0.42,0.39-0.65
				c0.08-0.16,0.06-0.35-0.09-0.47c-0.15-0.11-0.34-0.09-0.48,0.03c-0.24,0.21-0.42,0.5-0.55,0.78c-0.14,0.3-0.24,0.63-0.21,0.96
				c0.03,0.32,0.15,0.61,0.37,0.84c0.19,0.2,0.63,0.46,0.9,0.26c-0.04,0.01-0.09,0.02-0.13,0.03c0.06-0.01,0.13-0.01,0.18-0.04
				c0.06-0.03,0.09-0.08,0.14-0.11C301.54,271.53,301.48,271.34,301.34,271.33L301.34,271.33z"/>
		</g>
	</g>
	<g>
		<g>
			<path class="st9" d="M303.98,270.99c-0.05-0.04-0.11-0.09-0.14-0.15c-0.02-0.03-0.02-0.04-0.03-0.08c0-0.01-0.02-0.07-0.01-0.03
				c-0.01-0.03-0.01-0.06-0.02-0.08c-0.01-0.04-0.02-0.07-0.03-0.11c0-0.02-0.01-0.05-0.01-0.07c-0.01-0.03,0-0.02,0,0
				c0-0.02-0.02-0.15-0.01-0.07c0-0.02,0-0.03,0-0.05c0-0.04-0.01-0.08-0.01-0.13c0-0.04,0-0.08,0.01-0.12c0-0.03-0.01-0.06,0,0.01
				c0-0.02,0.01-0.04,0.01-0.06c0.01-0.08,0.03-0.15,0.05-0.22c0.01-0.02,0.01-0.04,0.02-0.05c0-0.01,0.02-0.08,0.01-0.02
				c-0.02,0.05,0.01-0.01,0.01-0.02c0.01-0.02,0.02-0.03,0.03-0.05c0.04-0.07,0.09-0.13,0.13-0.21c0.06-0.13,0.06-0.3-0.05-0.41
				c-0.1-0.09-0.29-0.14-0.41-0.05c-0.38,0.28-0.48,0.84-0.39,1.28c0.04,0.19,0.12,0.37,0.23,0.52c0.03,0.04,0.06,0.07,0.1,0.1
				c-0.03-0.03,0.02,0.02,0.02,0.02c0.03,0.03,0.07,0.06,0.1,0.09c0.08,0.06,0.14,0.13,0.22,0.19
				C303.93,271.35,304.12,271.11,303.98,270.99L303.98,270.99z"/>
		</g>
	</g>
	<g>
		<g>
			<path class="st9" d="M306.66,271.37c-0.27-0.31-0.35-0.74-0.36-1.14c0-0.22,0.01-0.36,0.08-0.57c0.02-0.05,0.03-0.1,0.05-0.15
				c-0.01,0.03,0,0,0.01-0.01c0.01-0.03,0.02-0.05,0.04-0.08c0.05-0.1,0.1-0.2,0.17-0.29c0.11-0.16,0.03-0.4-0.13-0.49
				c-0.18-0.1-0.38-0.03-0.49,0.13c-0.31,0.46-0.38,1-0.3,1.54c0.08,0.5,0.38,0.92,0.75,1.25
				C306.61,271.66,306.78,271.49,306.66,271.37L306.66,271.37z"/>
		</g>
	</g>
	<g>
		<g>
			<path class="st9" d="M308.8,271.95c-0.01-0.01-0.02-0.02-0.03-0.03c0.01,0.01,0.01,0.01-0.01-0.01c0.01,0.04,0.02,0.07,0.03,0.11
				c-0.01,0.06-0.01,0.05,0-0.03c0-0.03-0.01-0.06-0.02-0.09c-0.01-0.03-0.03-0.05-0.05-0.08c-0.01-0.02-0.02-0.04-0.03-0.05
				c0-0.01-0.01-0.01-0.01-0.02c-0.02-0.05-0.02-0.02,0.01,0.07c0-0.04-0.01-0.08-0.02-0.11c-0.02-0.05-0.02-0.05,0,0
				c-0.01-0.02-0.01-0.04-0.02-0.06c-0.01-0.04-0.02-0.09-0.03-0.13c-0.02-0.08,0,0.06,0,0c0-0.02,0-0.04,0-0.06
				c0-0.05-0.01-0.09-0.02-0.14c0.01,0.11,0,0.03,0,0.01c0-0.05,0-0.09,0-0.14c0-0.03,0-0.05,0-0.08c0-0.04,0.03-0.07,0,0.01
				c0.03-0.08,0.04-0.18,0.07-0.26c0.03-0.08-0.03,0.06,0,0c0.01-0.02,0.02-0.04,0.03-0.06c0.02-0.04,0.04-0.07,0.06-0.11
				c0.03-0.05,0.02-0.02-0.01,0.01c0.02-0.01,0.03-0.04,0.05-0.06c0.03-0.03,0.08-0.06,0.1-0.09c-0.03,0.05-0.05,0.04-0.01,0.01
				c0.02-0.01,0.04-0.02,0.05-0.03c0.02-0.01,0.04-0.02,0.06-0.03c0.05-0.03-0.08,0.03,0.01,0c0.18-0.06,0.32-0.25,0.25-0.45
				c-0.06-0.17-0.26-0.33-0.45-0.25c-0.49,0.19-0.83,0.62-0.91,1.15c-0.02,0.13-0.03,0.26-0.02,0.39c0.01,0.15,0.05,0.28,0.12,0.42
				c0.06,0.13,0.14,0.24,0.25,0.33c-0.06-0.05,0,0,0.01,0.01c0.02,0.02,0.04,0.03,0.06,0.05c0.03,0.02,0.07,0.05,0.1,0.07
				c0.04,0.02,0.08,0.03,0.12,0.03c0.08-0.01,0.09-0.01,0.03,0c-0.04-0.01-0.07-0.02-0.11-0.03c0.05,0.02,0.09,0.04,0.14,0.06
				C308.8,272.32,308.91,272.08,308.8,271.95L308.8,271.95z"/>
		</g>
	</g>
	<g>
		<g>
			<path class="st9" d="M310.72,272.87c-0.06-0.19-0.08-0.35-0.07-0.55c0-0.05,0.01-0.1,0.01-0.15c0-0.03,0.01-0.06,0.01-0.08
				c0-0.02,0.01-0.05,0-0.01c0.02-0.1,0.04-0.21,0.07-0.31c0.02-0.05,0.03-0.1,0.05-0.14c0.01-0.03,0.02-0.04,0,0
				c0.01-0.03,0.02-0.05,0.04-0.07c0.04-0.09,0.09-0.18,0.15-0.26c0.03-0.04,0.06-0.08,0.09-0.12c-0.02,0.03-0.03,0.04,0,0
				c0.02-0.02,0.04-0.04,0.05-0.06c0.07-0.08,0.15-0.15,0.21-0.23c0.13-0.16,0.16-0.36,0.03-0.53c-0.12-0.15-0.35-0.21-0.52-0.1
				c-0.45,0.27-0.71,0.84-0.79,1.34c-0.09,0.51-0.01,1.01,0.23,1.48C310.4,273.29,310.8,273.13,310.72,272.87L310.72,272.87z"/>
		</g>
	</g>
	<g>
		<g>
			<path class="st9" d="M312.44,273.22c-0.01-0.02-0.02-0.04-0.03-0.06c0-0.01-0.03-0.07-0.01-0.03c-0.02-0.04-0.03-0.09-0.05-0.13
				c-0.01-0.04-0.02-0.08-0.03-0.12c-0.01-0.02-0.01-0.05-0.01-0.07c-0.01-0.04,0,0.06,0,0c0-0.09-0.01-0.19,0-0.28
				c0-0.02,0-0.05,0.01-0.07c0.01-0.07-0.01,0.05,0,0.01c0.01-0.05,0.02-0.09,0.03-0.14c0.01-0.04,0.03-0.08,0.04-0.13
				c0-0.01,0.01-0.02,0.01-0.03c0.01-0.03,0.01-0.01-0.01,0.04c0.01,0,0.03-0.06,0.03-0.06c0.02-0.04,0.04-0.08,0.07-0.13
				c0.01-0.02,0.02-0.03,0.03-0.05c0.01-0.01,0.06-0.07,0.02-0.03c-0.05,0.05,0,0,0.01-0.02c0.02-0.02,0.03-0.04,0.05-0.05
				c0.03-0.03,0.09-0.06,0.1-0.1c-0.05,0.04-0.06,0.04-0.03,0.03c0.01-0.01,0.02-0.01,0.03-0.02c0.02-0.01,0.04-0.03,0.06-0.04
				c0.03-0.02,0.05-0.04,0.08-0.06c0.01-0.01,0.14-0.11,0.04-0.03c0.15-0.11,0.23-0.29,0.15-0.47c-0.08-0.18-0.26-0.26-0.45-0.22
				c-0.29,0.06-0.51,0.29-0.68,0.52c-0.14,0.19-0.23,0.43-0.27,0.66c-0.08,0.53,0.06,1.06,0.51,1.38
				C312.33,273.66,312.54,273.4,312.44,273.22L312.44,273.22z"/>
		</g>
	</g>
	<g>
		<g>
			<path class="st9" d="M313.99,274.06c0.02-0.07,0.03-0.14,0.06-0.21c0.03-0.07,0.07-0.14,0.1-0.21c0.07-0.15,0.16-0.28,0.24-0.42
				c0.08-0.14,0.16-0.28,0.26-0.42c0.05-0.07,0.1-0.13,0.15-0.2c0.02-0.03,0.05-0.07,0.07-0.1c0.03-0.03,0.02-0.03,0,0
				c0.01-0.02,0.03-0.03,0.04-0.05c0.12-0.15,0.16-0.39,0-0.53c-0.14-0.13-0.4-0.16-0.53,0c-0.12,0.15-0.24,0.31-0.34,0.48
				c-0.09,0.17-0.18,0.35-0.24,0.53c-0.13,0.32-0.15,0.68-0.19,1.02c-0.02,0.11,0.03,0.22,0.15,0.26
				C313.84,274.24,313.96,274.17,313.99,274.06L313.99,274.06z"/>
		</g>
	</g>
	<g>
		<g>
			<path class="st9" d="M293.14,274.2c-0.02,0-0.1,0.02-0.05,0.01c0.05-0.01-0.02,0-0.04,0c-0.05,0-0.1,0-0.14-0.01
				c-0.01,0-0.07-0.01-0.01,0c0.06,0.01,0.02,0,0,0c-0.02,0-0.04-0.01-0.07-0.01c-0.02-0.01-0.05-0.01-0.07-0.02
				c-0.01,0-0.02-0.01-0.03-0.01c-0.06-0.02,0.07,0.03,0.03,0.01c-0.04-0.02-0.09-0.04-0.13-0.07c-0.02-0.01-0.04-0.03-0.06-0.04
				c-0.04-0.03,0.04,0.03,0.04,0.03c-0.03-0.03-0.07-0.05-0.1-0.08c-0.04-0.03,0.08,0.06,0.04,0.03c-0.01-0.01-0.02-0.01-0.03-0.02
				c-0.02-0.02-0.04-0.03-0.06-0.05c-0.04-0.04-0.07-0.08-0.1-0.12c0.02,0.03,0.04,0.06,0.07,0.09c-0.07-0.09-0.12-0.18-0.16-0.28
				c0.01,0.03,0.03,0.07,0.04,0.1c-0.03-0.07-0.05-0.15-0.06-0.23c0.01,0.04,0.01,0.08,0.02,0.11c-0.01-0.07-0.01-0.14,0-0.21
				c0.01-0.1-0.06-0.24-0.13-0.3c-0.07-0.07-0.2-0.13-0.3-0.13c-0.11,0-0.23,0.04-0.3,0.13c-0.02,0.03-0.04,0.06-0.07,0.09
				c-0.04,0.07-0.06,0.14-0.06,0.22c-0.03,0.25,0.04,0.5,0.14,0.71c0.1,0.21,0.3,0.38,0.49,0.51c0.37,0.25,0.92,0.29,1.3,0.04
				c0.12-0.08,0.17-0.22,0.12-0.35C293.42,274.23,293.28,274.17,293.14,274.2L293.14,274.2z"/>
		</g>
	</g>
	<g>
		<g>
			<path class="st9" d="M228.17,280.61c-0.02,0-0.04,0-0.05,0c-0.01,0-0.02,0-0.03,0c0.01,0,0.01,0,0,0c-0.01,0-0.09-0.01-0.07-0.01
				c0.02,0-0.05-0.01-0.04-0.01c0.04,0.02,0.08,0.05,0.12,0.07c0.03,0.05,0.03,0.05,0,0c-0.02-0.03-0.05-0.06-0.09-0.08
				c-0.05-0.03-0.08-0.03-0.13-0.04c-0.02-0.01-0.04-0.01-0.06-0.02c-0.01,0-0.1-0.03-0.05-0.02c0.07,0.03-0.07-0.03-0.09-0.04
				c0.09,0.03,0,0-0.01-0.01c-0.05-0.03-0.09-0.05-0.14-0.09c-0.11-0.08-0.27-0.06-0.39,0c-0.64,0.33-1.01,1.02-1.01,1.73
				c0,0.22,0.19,0.44,0.42,0.42c0.24-0.01,0.42-0.19,0.42-0.42c0-0.03,0-0.07,0.01-0.1c0-0.01,0-0.04,0-0.05
				c-0.01,0.01-0.02,0.1-0.01,0.04c0.01-0.06,0.02-0.13,0.04-0.19c0.01-0.03,0.02-0.06,0.03-0.09c0.01-0.02,0.01-0.03,0.02-0.05
				c0.02-0.06-0.01,0.02-0.02,0.04c0.01-0.01,0.01-0.03,0.02-0.04c0.01-0.03,0.03-0.07,0.04-0.1c-0.01,0.02-0.02,0.04-0.02,0.06
				c0.02-0.03,0.03-0.07,0.05-0.1c0.03-0.06,0.06-0.11,0.1-0.17c0.01-0.02,0.07-0.1,0.03-0.05c-0.04,0.05,0.02-0.03,0.04-0.04
				c0.09-0.1,0.18-0.2,0.29-0.28c-0.16,0.02-0.31,0.04-0.47,0.06c0.19,0.09,0.39,0.15,0.6,0.15c0.04,0,0.07,0,0.11-0.01
				c0.07-0.01,0.13-0.02,0.19-0.07c0.04-0.03,0.04-0.03,0-0.01c-0.04,0.02-0.05,0.02-0.02,0.02c0.09,0,0.19-0.07,0.26-0.11
				C228.46,280.89,228.36,280.61,228.17,280.61L228.17,280.61z"/>
		</g>
	</g>
	<g>
		<g>
			<path class="st9" d="M228.94,281.37c-0.47,0.27-0.72,0.76-0.83,1.27c-0.13,0.56-0.03,1.14,0.2,1.65c0.09,0.21,0.41,0.28,0.6,0.16
				c0.22-0.14,0.25-0.37,0.16-0.6c0.02,0.04,0.01,0.03,0,0c-0.01-0.02-0.02-0.05-0.03-0.07c-0.02-0.05-0.04-0.11-0.05-0.17
				c-0.03-0.1-0.05-0.2-0.07-0.3c0-0.01-0.01-0.09-0.01-0.04c0.01,0.06,0-0.05,0-0.06c0-0.05-0.01-0.1-0.01-0.16
				c0-0.11,0-0.22,0.01-0.33c0-0.05,0.01-0.1,0.01-0.15c0.01-0.06-0.01,0.05,0-0.01c0-0.03,0.01-0.05,0.01-0.08
				c0.02-0.11,0.05-0.21,0.08-0.32c0.07-0.2,0.11-0.4,0.18-0.6C229.25,281.42,229.07,281.3,228.94,281.37L228.94,281.37z"/>
		</g>
	</g>
	<g>
		<g>
			<path class="st9" d="M231.81,281.42c-0.05,0.05-0.1,0.08-0.15,0.13c-0.05,0.05-0.1,0.11-0.14,0.17c-0.09,0.12-0.15,0.26-0.21,0.4
				c-0.11,0.27-0.2,0.54-0.24,0.83c-0.09,0.58-0.1,1.21,0.13,1.77c0.17,0.42,0.75,0.27,0.68-0.19c-0.07-0.49-0.14-0.98-0.08-1.48
				c0.03-0.24,0.08-0.48,0.14-0.71c0.03-0.11,0.06-0.23,0.1-0.34c0.04-0.13,0.04-0.27,0.08-0.39
				C232.17,281.42,231.94,281.29,231.81,281.42L231.81,281.42z"/>
		</g>
	</g>
	<g>
		<g>
			<path class="st9" d="M233.98,282.69c-0.15,0.16-0.29,0.34-0.42,0.51c-0.14,0.18-0.25,0.38-0.34,0.59
				c-0.18,0.42-0.23,0.9-0.18,1.36c0.02,0.21,0.17,0.38,0.4,0.35c0.22-0.03,0.33-0.23,0.29-0.44c0-0.02-0.01-0.05-0.01-0.07
				c0,0.03,0,0.03,0-0.02c0-0.05-0.01-0.1-0.01-0.15c-0.01-0.1,0-0.2,0-0.3c0-0.2,0.03-0.34,0.07-0.54
				c0.04-0.19,0.08-0.38,0.16-0.57c0.07-0.18,0.17-0.33,0.3-0.48C234.37,282.77,234.13,282.52,233.98,282.69L233.98,282.69z"/>
		</g>
	</g>
	<g>
		<g>
			<path class="st9" d="M236.45,282.76c-0.14,0.59-0.34,1.17-0.45,1.77c-0.03,0.15,0.04,0.32,0.2,0.35c0.15,0.03,0.32-0.04,0.35-0.2
				c0.13-0.6,0.18-1.21,0.28-1.82c0.02-0.11-0.03-0.21-0.14-0.25C236.6,282.59,236.48,282.66,236.45,282.76L236.45,282.76z"/>
		</g>
	</g>
	<g>
		<g>
			<path class="st9" d="M239.68,282.82c-0.44,0.38-0.73,0.86-0.83,1.44c-0.1,0.58-0.05,1.22,0.26,1.74c0.18,0.29,0.71,0.1,0.58-0.24
				c-0.17-0.47-0.27-0.91-0.22-1.41c0.05-0.45,0.21-0.95,0.48-1.32C240.06,282.86,239.81,282.7,239.68,282.82L239.68,282.82z"/>
		</g>
	</g>
	<g>
		<g>
			<path class="st9" d="M242.1,283.48c-0.22,0.29-0.39,0.67-0.35,1.05c0.04,0.45,0.27,0.83,0.64,1.08c0.14,0.1,0.37,0.03,0.45-0.12
				c0.09-0.17,0.04-0.35-0.12-0.45c-0.02-0.01-0.03-0.02-0.05-0.03c-0.03-0.02,0.05,0.04,0,0c-0.03-0.03-0.06-0.05-0.08-0.08
				c-0.03-0.03-0.06-0.06-0.08-0.09c0-0.01-0.01-0.01-0.01-0.02c-0.02-0.02-0.01-0.01,0.02,0.02c-0.01-0.01-0.02-0.03-0.03-0.05
				c-0.04-0.06-0.08-0.13-0.11-0.2c-0.01-0.02-0.02-0.03-0.02-0.05c-0.03-0.07,0.02,0.06,0-0.01c-0.01-0.04-0.03-0.07-0.04-0.11
				c-0.02-0.07-0.04-0.15-0.05-0.22c0-0.02-0.01-0.04-0.01-0.05c0-0.03,0,0.03,0-0.01c0-0.04-0.01-0.07-0.01-0.11
				c0-0.15,0.03-0.27,0.12-0.4c0.05-0.07,0.01-0.17-0.05-0.2C242.22,283.38,242.15,283.41,242.1,283.48L242.1,283.48z"/>
		</g>
	</g>
	<g>
		<g>
			<path class="st9" d="M245.08,283c-0.08,0.09-0.14,0.17-0.2,0.24c-0.07,0.09-0.15,0.19-0.2,0.3c-0.1,0.23-0.17,0.46-0.19,0.72
				c-0.02,0.22,0.03,0.47,0.1,0.68c0.08,0.25,0.21,0.47,0.38,0.67c0.14,0.16,0.42,0.15,0.56,0c0.16-0.17,0.14-0.38,0-0.56
				c0.05,0.07-0.02-0.03-0.03-0.06c-0.02-0.04-0.05-0.08-0.07-0.12c-0.02-0.04-0.04-0.07-0.05-0.11c-0.04-0.09,0.02,0.05,0,0
				c-0.01-0.02-0.01-0.04-0.02-0.06c-0.03-0.09-0.05-0.17-0.07-0.26c0-0.01-0.01-0.08,0-0.02c0.01,0.06,0-0.03,0-0.04
				c0-0.05,0-0.09-0.01-0.14c-0.01-0.09-0.01-0.17,0-0.25c0-0.02,0-0.05,0.01-0.07c0-0.05-0.01,0.06,0,0
				c0.01-0.04,0.02-0.09,0.03-0.13c0.02-0.08,0.04-0.16,0.07-0.24c0.02-0.06,0.06-0.13,0.1-0.17c0.09-0.11,0.11-0.27,0-0.38
				C245.36,282.9,245.18,282.89,245.08,283L245.08,283z"/>
		</g>
	</g>
	<g>
		<g>
			<path class="st9" d="M247.02,282.35c-0.35,0.97-0.07,2.16,0.65,2.9c0.14,0.15,0.38,0.16,0.54,0.03c0.15-0.11,0.23-0.37,0.11-0.53
				c-0.13-0.17-0.25-0.36-0.36-0.55c-0.02-0.05-0.05-0.09-0.07-0.14c0-0.01-0.04-0.08-0.02-0.04c0.02,0.04-0.01-0.03-0.02-0.04
				c-0.04-0.1-0.08-0.21-0.1-0.32c-0.03-0.1-0.05-0.21-0.07-0.31c0-0.03-0.01-0.05-0.01-0.08c0-0.03-0.01-0.05,0-0.01
				c-0.01-0.05-0.01-0.11-0.01-0.16c-0.01-0.22-0.02-0.45,0.01-0.67c0.02-0.16-0.14-0.3-0.28-0.32
				C247.21,282.09,247.08,282.19,247.02,282.35L247.02,282.35z"/>
		</g>
	</g>
	<g>
		<g>
			<path class="st9" d="M226.79,278.88c-0.53,0.16-0.97,0.6-1.3,1.02c-0.18,0.23-0.33,0.46-0.46,0.72
				c-0.13,0.26-0.25,0.53-0.29,0.82c-0.03,0.21,0.05,0.44,0.28,0.5c0.23,0.05,0.41-0.07,0.5-0.28c0,0,0.04-0.1,0.02-0.05
				c-0.03,0.07,0.04-0.09,0.05-0.12c0.02-0.06,0.04-0.12,0.06-0.18c0.02-0.06,0.04-0.12,0.07-0.18c0.01-0.03,0.02-0.04,0,0
				c0.02-0.03,0.03-0.07,0.05-0.1c0.1-0.22,0.22-0.44,0.36-0.64c0.03-0.05,0.06-0.09,0.09-0.14c0.02-0.03,0.04-0.05,0.05-0.08
				c0.01-0.02,0.05-0.07,0.02-0.03c0.08-0.1,0.16-0.19,0.25-0.28c0.17-0.18,0.37-0.36,0.52-0.54c0.08-0.09,0.1-0.21,0.04-0.32
				C227.03,278.9,226.9,278.85,226.79,278.88L226.79,278.88z"/>
		</g>
	</g>
	<g>
		<g>
			<path class="st9" d="M313.28,280.53c0.12,0.08,0.2,0.14,0.3,0.21c-0.04-0.05-0.08-0.11-0.12-0.16c0.03,0.19,0.18,0.26,0.31,0.36
				c0.06,0.04-0.03-0.03,0,0c0.03,0.03,0.07,0.06,0.11,0.08c0.02,0.01,0.04,0.03,0.05,0.04c0.04,0.03-0.06-0.05,0,0
				c0.15,0.12,0.28,0.26,0.4,0.41c0.03,0.04-0.05-0.08,0,0c0.01,0.02,0.03,0.04,0.04,0.05c0.03,0.04,0.05,0.08,0.08,0.12
				c0.05,0.08,0.09,0.16,0.13,0.25c0.02,0.04-0.03-0.07,0-0.01c0.01,0.03,0.02,0.05,0.03,0.08c0.01,0.04,0.03,0.09,0.04,0.13
				c0.01,0.04,0.03,0.08,0.04,0.13c0.01,0.05,0.03,0.09,0.05,0.14c0.03,0.07-0.03-0.07,0,0.01c0.07,0.16,0.2,0.28,0.39,0.25
				c0.18-0.02,0.29-0.17,0.3-0.35c0.03-0.26-0.06-0.51-0.16-0.74c-0.09-0.22-0.22-0.41-0.36-0.6c-0.14-0.18-0.31-0.33-0.5-0.47
				c-0.08-0.06-0.17-0.11-0.27-0.16c-0.19-0.08-0.36-0.16-0.56-0.04c0.07-0.01,0.14-0.02,0.21-0.03c-0.16-0.03-0.31-0.03-0.47-0.01
				C313.17,280.27,313.18,280.47,313.28,280.53L313.28,280.53z"/>
		</g>
	</g>
	<g>
		<g>
			<path class="st9" d="M311,281.23c0.32,0.33,0.55,0.74,0.77,1.14c0.06,0.1,0.11,0.21,0.16,0.31c0.02,0.05,0.05,0.1,0.07,0.15
				c0.01,0.01,0.02,0.06,0.01,0.02c0.01,0.03,0.03,0.06,0.04,0.1c0.09,0.22,0.16,0.45,0.24,0.68c0.07,0.19,0.26,0.32,0.46,0.26
				c0.21-0.06,0.3-0.26,0.26-0.46c-0.08-0.51-0.33-1.01-0.59-1.44c-0.27-0.45-0.63-0.82-1.01-1.17
				C311.14,280.55,310.74,280.96,311,281.23L311,281.23z"/>
		</g>
	</g>
	<g>
		<g>
			<path class="st9" d="M308.81,282.57c0.08,0.05,0.15,0.09,0.21,0.16c0.01,0.01,0.04,0.05,0.02,0.02c0.02,0.02,0.04,0.05,0.05,0.07
				c0.04,0.05,0.08,0.09,0.12,0.13c0.03,0.03,0.06,0.07,0.09,0.11c0.04,0.05-0.01-0.02,0.01,0.01c0.01,0.02,0.03,0.04,0.04,0.05
				c0.03,0.03,0.05,0.07,0.08,0.1c0.03,0.03-0.03-0.05,0,0.01c0.03,0.04,0.06,0.08,0.09,0.13c0.1,0.16,0.19,0.33,0.27,0.5
				c0.03,0.07-0.02-0.05,0,0c0.01,0.02,0.02,0.04,0.03,0.06c0.02,0.04,0.03,0.09,0.04,0.13c0.03,0.1,0.06,0.2,0.08,0.29
				c0.05,0.2,0.28,0.33,0.48,0.27c0.22-0.07,0.3-0.26,0.27-0.48c-0.07-0.46-0.3-0.88-0.6-1.23c-0.15-0.17-0.31-0.31-0.5-0.44
				c-0.1-0.06-0.2-0.11-0.31-0.15c-0.09-0.03-0.17-0.07-0.26-0.12c-0.1-0.04-0.22-0.03-0.28,0.07
				C308.68,282.39,308.72,282.52,308.81,282.57L308.81,282.57z"/>
		</g>
	</g>
	<g>
		<g>
			<path class="st9" d="M306.15,283.81c0.02,0,0.03,0.01,0.05,0.01c0.01,0,0.01,0,0.02,0.01c0.03,0.01,0.02,0-0.02-0.02
				c0.02,0.03,0.06,0.05,0.1,0.07c0.06,0.03,0.12,0.06,0.17,0.1c0.03,0.02,0.05,0.03,0.08,0.05c0.04,0.03-0.04-0.03,0.01,0
				c0.01,0.01,0.03,0.02,0.04,0.04c0.05,0.04,0.1,0.09,0.14,0.14c0.01,0.01,0.02,0.02,0.03,0.04c0.01,0.02,0.01,0.01-0.02-0.02
				c0.01,0.01,0.01,0.02,0.02,0.03c0.02,0.03,0.03,0.05,0.05,0.08c0.02,0.03,0.03,0.06,0.05,0.09c0.03,0.06-0.02-0.05,0,0
				c0.01,0.01,0.01,0.03,0.02,0.04c0.02,0.06,0.04,0.13,0.05,0.19c0,0.01,0,0.01,0,0.02c-0.01-0.07-0.01-0.06,0,0.03
				c0,0.02,0,0.03,0.01,0.05c-0.02-0.09,0-0.03,0-0.01c0,0.02,0,0.04,0,0.06c0,0.14,0.12,0.28,0.27,0.27c0.07,0,0.14-0.03,0.19-0.08
				c0.05-0.06,0.07-0.12,0.08-0.19c0.04-0.35-0.13-0.71-0.38-0.95c-0.13-0.13-0.28-0.22-0.45-0.28c-0.08-0.03-0.16-0.04-0.25-0.04
				c-0.05,0-0.09,0.01-0.14,0.02c0.03-0.01-0.02,0-0.03,0c-0.03,0-0.06,0.01-0.08,0.01C306.02,283.56,306.02,283.78,306.15,283.81
				L306.15,283.81z"/>
		</g>
	</g>
	<g>
		<g>
			<path class="st9" d="M303.63,283.58c0.07,0.08,0.13,0.15,0.17,0.25c0.05,0.1,0.09,0.19,0.15,0.28c0.11,0.19,0.23,0.38,0.33,0.57
				c0.2,0.39,0.37,0.79,0.6,1.16c0.1,0.16,0.3,0.23,0.48,0.16c0.18-0.08,0.26-0.26,0.22-0.45c-0.1-0.47-0.35-0.9-0.64-1.27
				c-0.14-0.19-0.29-0.39-0.47-0.54c-0.09-0.08-0.19-0.16-0.29-0.23c-0.1-0.06-0.17-0.13-0.26-0.21
				C303.73,283.1,303.45,283.38,303.63,283.58L303.63,283.58z"/>
		</g>
	</g>
	<g>
		<g>
			<path class="st9" d="M300.89,283c0.14,0.23,0.3,0.44,0.44,0.66c0.15,0.23,0.28,0.48,0.39,0.74c0.22,0.5,0.28,1.02,0.37,1.55
				c0.03,0.16,0.21,0.25,0.36,0.23c0.17-0.03,0.27-0.15,0.28-0.32c0.05-0.61-0.16-1.24-0.41-1.79c-0.24-0.52-0.64-1.08-1.15-1.35
				C300.99,282.63,300.78,282.82,300.89,283L300.89,283z"/>
		</g>
	</g>
	<g>
		<g>
			<path class="st9" d="M298.19,283.45c0-0.02,0.01-0.03,0.01-0.05c0.01-0.04-0.04,0.06,0,0.01c0.01-0.01,0.01-0.02,0.02-0.03
				c0.02-0.03-0.05,0.05-0.01,0.01c0.01-0.01,0.03-0.02,0.03-0.03c-0.01,0.02-0.06,0.04-0.02,0.02c0.01,0,0.01-0.01,0.02-0.01
				c0.02-0.01,0.01-0.01-0.03,0.01c0.01,0,0.02-0.01,0.03-0.01c0.01,0,0.03-0.01,0.04-0.01c0.07-0.01-0.06,0-0.02,0
				c0.03,0,0.06,0,0.08,0c0.01,0,0.04,0.01,0.05,0c-0.01,0-0.09-0.01-0.03,0c0.03,0.01,0.06,0.01,0.09,0.02
				c0.01,0,0.03,0.01,0.04,0.02c-0.13-0.04,0,0,0.05,0.02c0.03,0.01,0.06,0.03-0.03-0.01c0.01,0.01,0.03,0.01,0.04,0.02
				c0.01,0.01,0.03,0.02,0.04,0.03c0.02,0.02,0.05,0.05-0.03-0.02c0.02,0.02,0.04,0.04,0.07,0.07c0.02,0.02,0.01,0.01-0.03-0.04
				c0.01,0.01,0.01,0.02,0.02,0.03c0.01,0.02,0.03,0.04,0.04,0.06c0.01,0.02,0.02,0.03,0.02,0.05c0.04,0.08-0.02-0.05,0,0
				c0.03,0.08,0.05,0.17,0.06,0.26c0-0.03-0.01-0.06-0.01-0.09c0.03,0.22,0,0.45-0.01,0.68c-0.01,0.16,0.13,0.3,0.29,0.33
				c0.07,0.01,0.15,0,0.21-0.04c0.07-0.04,0.14-0.11,0.15-0.2c0.07-0.46,0.09-1-0.21-1.4c-0.14-0.19-0.33-0.33-0.57-0.36
				c-0.2-0.03-0.39,0-0.57,0.09c-0.08,0.04-0.15,0.1-0.21,0.17c-0.09,0.11-0.13,0.22-0.15,0.36c-0.02,0.12,0.11,0.23,0.22,0.24
				C298.03,283.65,298.16,283.57,298.19,283.45L298.19,283.45z"/>
		</g>
	</g>
	<g>
		<g>
			<path class="st9" d="M294.33,282.75c0.19,0.11,0.36,0.22,0.51,0.36c0.08,0.07,0.15,0.15,0.22,0.23c0.04,0.04,0.07,0.08,0.1,0.12
				c0,0,0.06,0.08,0.03,0.04c0.02,0.02,0.03,0.04,0.05,0.06c0.01,0.01,0.08,0.11,0.05,0.06c0.02,0.02,0.03,0.04,0.05,0.06
				c0.03,0.04,0.06,0.09,0.09,0.13c0.06,0.09,0.12,0.19,0.17,0.29c0.02,0.05,0.05,0.09,0.07,0.14c0.01,0.02,0.02,0.05,0.03,0.07
				c0.01,0.03-0.01-0.03,0.01,0.02c0.04,0.11,0.08,0.22,0.12,0.33c0.05,0.16,0.23,0.28,0.4,0.23c0.17-0.05,0.27-0.22,0.23-0.4
				c-0.26-0.97-0.98-1.77-1.86-2.23C294.3,282.12,294.03,282.58,294.33,282.75L294.33,282.75z"/>
		</g>
	</g>
	<g>
		<g>
			<path class="st9" d="M291.41,281.95c0.7,0.65,1.23,1.5,1.51,2.39c0.06,0.17,0.24,0.29,0.42,0.24c0.17-0.05,0.29-0.24,0.24-0.42
				c-0.16-0.51-0.39-1-0.68-1.44c-0.29-0.44-0.67-0.84-1.07-1.18c-0.12-0.1-0.3-0.12-0.42,0
				C291.3,281.64,291.3,281.84,291.41,281.95L291.41,281.95z"/>
		</g>
	</g>
	<g>
		<g>
			<path class="st9" d="M289.22,282.16c0.06,0.01,0.11,0.03,0.16,0.04c0.03,0.01,0.05,0.02,0.08,0.03c0.08,0.03-0.04-0.02,0.03,0.01
				c0.1,0.05,0.19,0.1,0.28,0.16c0.01,0.01,0.08,0.06,0.05,0.03c-0.03-0.02,0.04,0.03,0.04,0.04c0.04,0.03,0.08,0.07,0.11,0.11
				c0.08,0.08,0.16,0.16,0.23,0.25c0.05,0.06-0.03-0.05,0.02,0.02c0.02,0.02,0.03,0.05,0.05,0.07c0.03,0.04,0.06,0.09,0.08,0.13
				c0.03,0.05,0.05,0.09,0.07,0.14c0.01,0.03,0.03,0.08,0.01,0.02c0.01,0.03,0.02,0.05,0.03,0.08c0.04,0.11,0.06,0.22,0.08,0.33
				c0.01,0.08,0-0.06,0,0.02c0,0.03,0.01,0.06,0.01,0.08c0.01,0.06,0.01,0.11,0.01,0.17c0.01,0.18,0.15,0.35,0.34,0.34
				c0.2-0.01,0.32-0.15,0.34-0.34c0.06-0.56-0.19-1.12-0.54-1.54c-0.35-0.43-0.88-0.67-1.42-0.74c-0.14-0.02-0.26,0.12-0.28,0.25
				C289,281.98,289.08,282.13,289.22,282.16L289.22,282.16z"/>
		</g>
	</g>
	<g>
		<g>
			<path class="st9" d="M262.91,269.8c0.14-0.23,0.3-0.43,0.42-0.67c0.12-0.23,0.21-0.47,0.31-0.7c0.21-0.49,0.4-0.99,0.58-1.49
				c0.36-1,0.69-2.02,0.89-3.06c0.1-0.54-0.65-0.76-0.82-0.23c-0.32,0.99-0.58,2.01-0.87,3.01c-0.14,0.49-0.29,0.98-0.44,1.47
				c-0.08,0.25-0.16,0.51-0.22,0.76c-0.07,0.26-0.08,0.52-0.14,0.78C262.59,269.85,262.82,269.96,262.91,269.8L262.91,269.8z"/>
		</g>
	</g>
	<g>
		<g>
			<path class="st9" d="M262.2,268.31c-0.14-0.99-0.25-1.99-0.32-2.98c-0.07-1-0.06-2.01-0.12-3.01c-0.04-0.65-0.96-0.65-1.01,0
				c-0.08,1.04,0.01,2.1,0.1,3.13c0.09,1.05,0.24,2.08,0.43,3.12c0.05,0.25,0.35,0.4,0.58,0.33
				C262.14,268.82,262.24,268.56,262.2,268.31L262.2,268.31z"/>
		</g>
	</g>
	<g>
		<g>
			<path class="st9" d="M260.86,267.08c-0.37-0.73-0.62-1.54-0.87-2.32c-0.25-0.79-0.46-1.58-0.62-2.39
				c-0.11-0.56-0.97-0.32-0.85,0.24c0.18,0.83,0.43,1.66,0.75,2.44c0.33,0.8,0.76,1.52,1.18,2.27
				C260.6,267.59,261,267.35,260.86,267.08L260.86,267.08z"/>
		</g>
	</g>
	<g>
		<g>
			<path class="st9" d="M260.84,265.37c-0.71-1.12-1.38-2.26-2.15-3.34c-0.77-1.09-1.6-2.13-2.45-3.15c-0.19-0.22-0.57-0.19-0.76,0
				c-0.22,0.22-0.18,0.54,0,0.76c0.81,0.99,1.61,2,2.4,3.01c0.79,1.02,1.62,2.01,2.37,3.06
				C260.5,266.07,261.08,265.75,260.84,265.37L260.84,265.37z"/>
		</g>
	</g>
	<g>
		<g>
			<path class="st9" d="M258.76,265.15c-0.54-0.65-0.99-1.36-1.49-2.05c-0.49-0.68-0.99-1.36-1.49-2.03c-0.99-1.32-1.89-2.72-2.93-4
				c-0.36-0.44-1.06,0.13-0.77,0.6c0.87,1.42,1.98,2.73,3.03,4.02c0.51,0.63,1.05,1.25,1.6,1.85c0.59,0.64,1.23,1.22,1.8,1.87
				C258.66,265.57,258.9,265.32,258.76,265.15L258.76,265.15z"/>
		</g>
	</g>
	<g>
		<g>
			<path class="st9" d="M254.01,262.31c-0.89-1.55-2.03-2.95-3.4-4.1c-0.19-0.16-0.46-0.18-0.65,0c-0.16,0.16-0.19,0.49,0,0.65
				c1.33,1.09,2.49,2.38,3.4,3.83C253.62,263.1,254.25,262.73,254.01,262.31L254.01,262.31z"/>
		</g>
	</g>
	<g>
		<g>
			<path class="st9" d="M253.22,262.38c-1.12-0.81-2.12-1.78-3.17-2.68c-1.04-0.89-2.04-1.82-3.04-2.75
				c-0.43-0.4-1.07,0.24-0.64,0.64c1.02,0.97,2.1,1.87,3.21,2.73c1.11,0.86,2.32,1.55,3.47,2.34
				C253.23,262.79,253.4,262.5,253.22,262.38L253.22,262.38z"/>
		</g>
	</g>
	<g>
		<g>
			<path class="st9" d="M252.02,262.63c-2.64-1.76-5.12-3.79-7.43-5.95c-0.51-0.48-1.29,0.29-0.77,0.77
				c2.4,2.23,5.01,4.17,7.78,5.91C252.06,263.64,252.47,262.92,252.02,262.63L252.02,262.63z"/>
		</g>
	</g>
	<g>
		<g>
			<path class="st9" d="M247.99,261.74c-1.21-0.65-2.43-1.3-3.64-1.95c-1.21-0.64-2.4-1.34-3.67-1.86
				c-0.51-0.21-0.79,0.59-0.36,0.86c1.13,0.73,2.38,1.3,3.58,1.92c1.21,0.62,2.41,1.23,3.62,1.85
				C248.06,262.84,248.53,262.03,247.99,261.74L247.99,261.74z"/>
		</g>
	</g>
	<g>
		<g>
			<path class="st9" d="M246.18,261.74c-0.7-0.32-1.33-0.73-2.01-1.09c-0.67-0.36-1.35-0.71-2.04-1.04
				c-1.36-0.66-2.71-1.36-4.12-1.9c-0.47-0.18-0.77,0.57-0.34,0.8c1.31,0.7,2.71,1.23,4.07,1.8c0.68,0.28,1.36,0.55,2.04,0.82
				c0.75,0.29,1.52,0.49,2.26,0.83C246.2,262.03,246.33,261.81,246.18,261.74L246.18,261.74z"/>
		</g>
	</g>
	<g>
		<g>
			<path class="st9" d="M244.34,262.05c-2.83-1.24-5.7-2.38-8.62-3.4c-0.65-0.23-0.9,0.77-0.28,1.02c2.83,1.15,5.69,2.18,8.6,3.1
				C244.45,262.91,244.75,262.23,244.34,262.05L244.34,262.05z"/>
		</g>
	</g>
	<g>
		<g>
			<path class="st9" d="M239.81,261.3c-3.05-1.2-6.17-2.28-9.35-3.06c-0.59-0.14-0.83,0.73-0.25,0.91c3.14,0.97,6.27,1.93,9.35,3.07
				C240.13,262.44,240.37,261.52,239.81,261.3L239.81,261.3z"/>
		</g>
	</g>
	<g>
		<g>
			<path class="st9" d="M244.07,259.49c-1.35-0.47-2.67-1.1-3.96-1.72c-1.29-0.62-2.54-1.3-3.77-2.02
				c-0.57-0.33-1.07,0.53-0.51,0.88c1.26,0.77,2.58,1.44,3.93,2.03c1.35,0.59,2.74,1.01,4.14,1.46
				C244.3,260.24,244.47,259.62,244.07,259.49L244.07,259.49z"/>
		</g>
	</g>
	<g>
		<g>
			<path class="st9" d="M237.56,258.74c-1.39-0.34-2.73-0.79-4.09-1.22c-1.36-0.43-2.73-0.82-4.1-1.22
				c-0.54-0.16-0.78,0.7-0.23,0.85c1.38,0.37,2.76,0.72,4.15,1.02c1.4,0.29,2.81,0.53,4.19,0.86
				C237.67,259.07,237.75,258.78,237.56,258.74L237.56,258.74z"/>
		</g>
	</g>
	<g>
		<g>
			<path class="st9" d="M233.87,258.45c-1.31-0.35-2.61-0.74-3.9-1.16c-1.29-0.42-2.55-0.92-3.83-1.35
				c-0.48-0.16-0.82,0.61-0.35,0.83c2.47,1.17,5.18,1.95,7.82,2.61C234.21,259.53,234.47,258.61,233.87,258.45L233.87,258.45z"/>
		</g>
	</g>
	<g>
		<g>
			<path class="st9" d="M231.71,259.42c-1.8-0.84-3.59-1.47-5.57-1.78c-1.95-0.3-3.93-0.35-5.9-0.11c-0.66,0.08-0.68,1.12,0,1.05
				c3.76-0.38,7.68,0.08,11.23,1.4C231.79,260.1,232.02,259.57,231.71,259.42L231.71,259.42z"/>
		</g>
	</g>
	<g>
		<g>
			<path class="st9" d="M225.59,258.12c-1.38-0.2-2.78-0.32-4.17-0.3c-0.68,0.01-1.35,0.04-2.03,0.1c-0.71,0.06-1.46,0.11-2.14,0.3
				c-0.52,0.14-0.43,0.99,0.13,0.96c0.67-0.04,1.34-0.18,2.01-0.24c0.67-0.06,1.35-0.1,2.03-0.11c1.35-0.02,2.71,0.05,4.05,0.23
				C225.99,259.12,226.12,258.2,225.59,258.12L225.59,258.12z"/>
		</g>
	</g>
	<g>
		<g>
			<path class="st9" d="M226.96,256.19c-1.69-0.46-3.39-0.91-5.14-1.11c-0.87-0.1-1.76-0.14-2.64-0.13
				c-0.86,0.01-1.82-0.02-2.65,0.23c-0.5,0.15-0.39,0.87,0.12,0.9c0.83,0.04,1.7-0.14,2.53-0.18c0.85-0.04,1.69-0.05,2.54-0.03
				c1.74,0.04,3.47,0.16,5.16,0.61C227.07,256.52,227.14,256.24,226.96,256.19L226.96,256.19z"/>
		</g>
	</g>
	<g>
		<g>
			<path class="st9" d="M223.49,255.99c-2.93-0.08-5.92,0.08-8.76,0.79c-0.63,0.16-0.36,1.09,0.26,0.96
				c2.81-0.57,5.62-1.01,8.5-0.99C223.99,256.76,223.99,256.01,223.49,255.99L223.49,255.99z"/>
		</g>
	</g>
	<g>
		<g>
			<path class="st9" d="M221.88,254.12c-2.67,0.02-5.33,0.62-7.65,1.97c-0.57,0.33-0.06,1.2,0.51,0.88c2.19-1.21,4.62-2,7.14-2.08
				C222.37,254.87,222.37,254.11,221.88,254.12L221.88,254.12z"/>
		</g>
	</g>
	<g>
		<g>
			<path class="st9" d="M238.27,258.46c-0.82-0.12-1.61-0.44-2.42-0.64c-0.81-0.2-1.62-0.42-2.43-0.65
				c-1.61-0.46-3.2-1.02-4.76-1.63c-0.5-0.2-0.86,0.65-0.37,0.88c1.56,0.74,3.18,1.32,4.85,1.75c0.82,0.21,1.64,0.37,2.48,0.48
				c0.87,0.12,1.73,0.06,2.6,0.14C238.41,258.8,238.46,258.48,238.27,258.46L238.27,258.46z"/>
		</g>
	</g>
	<g>
		<g>
			<path class="st9" d="M234.72,256.96c-2.31-0.9-4.69-1.58-7.16-1.92c-0.24-0.03-0.47,0.06-0.54,0.3c-0.06,0.21,0.07,0.5,0.3,0.54
				c2.44,0.4,4.86,0.98,7.18,1.82C234.99,257.87,235.18,257.14,234.72,256.96L234.72,256.96z"/>
		</g>
	</g>
	<g>
		<g>
			<path class="st9" d="M228.35,255.63c-1.52-0.46-2.98-1.03-4.53-1.37c-1.52-0.34-3.08-0.55-4.63-0.67c-0.62-0.05-0.62,0.92,0,0.97
				c1.54,0.11,3.06,0.29,4.59,0.51c1.5,0.22,3.04,0.4,4.5,0.84C228.46,255.97,228.54,255.68,228.35,255.63L228.35,255.63z"/>
		</g>
	</g>
	<g>
		<g>
			<path class="st9" d="M245.33,258.94c-0.71-0.32-1.37-0.72-2.06-1.07c-0.7-0.35-1.4-0.67-2.12-0.98c-0.19-0.08-0.4-0.05-0.51,0.13
				c-0.09,0.16-0.05,0.43,0.13,0.51c0.73,0.32,1.46,0.62,2.21,0.9c0.74,0.27,1.5,0.49,2.23,0.79
				C245.37,259.3,245.49,259.01,245.33,258.94L245.33,258.94z"/>
		</g>
	</g>
	<g>
		<g>
			<path class="st9" d="M244.29,258.45c-1.32-0.49-2.63-0.98-3.95-1.45c-0.25-0.09-0.53,0.1-0.6,0.34c-0.07,0.27,0.09,0.51,0.34,0.6
				c1.31,0.49,2.63,0.96,3.96,1.43c0.24,0.09,0.53-0.1,0.59-0.34C244.7,258.78,244.53,258.54,244.29,258.45L244.29,258.45z"/>
		</g>
	</g>
	<g>
		<g>
			<path class="st9" d="M241.29,261.66c-2.02-0.92-4.1-1.69-6.24-2.28c-2.11-0.59-4.33-1.11-6.52-1.24
				c-0.39-0.02-0.48,0.61-0.09,0.68c2.1,0.42,4.2,0.77,6.27,1.35c2.1,0.59,4.17,1.33,6.16,2.21
				C241.36,262.58,241.78,261.88,241.29,261.66L241.29,261.66z"/>
		</g>
	</g>
	<g>
		<g>
			<path class="st9" d="M233.08,261.16c-4.03-1.46-8.33-2.6-12.64-2.63c-0.6-0.01-0.56,0.84,0,0.91c4.22,0.52,8.39,1.09,12.45,2.43
				C233.34,262.01,233.52,261.32,233.08,261.16L233.08,261.16z"/>
		</g>
	</g>
	<g>
		<g>
			<path class="st9" d="M236.79,257.48c-0.37-0.26-0.67-0.57-1.05-0.82c-0.32-0.2-0.66-0.4-1-0.59c-0.72-0.4-1.47-0.76-2.22-1.1
				c-1.49-0.67-3.01-1.33-4.59-1.74c-0.47-0.12-0.83,0.62-0.35,0.82c1.52,0.64,3.08,1.18,4.6,1.84c0.76,0.33,1.52,0.67,2.28,1
				c0.33,0.15,0.67,0.29,1,0.43c0.4,0.17,0.82,0.25,1.22,0.41C236.84,257.8,236.91,257.56,236.79,257.48L236.79,257.48z"/>
		</g>
	</g>
	<g>
		<g>
			<path class="st9" d="M227.18,253.52c-3.29-0.49-6.55-0.39-9.75,0.59c-0.52,0.16-0.31,0.96,0.23,0.82c3.04-0.81,6.3-1.18,9.44-0.8
				C227.44,254.18,227.53,253.57,227.18,253.52L227.18,253.52z"/>
		</g>
	</g>
	<g>
		<g>
			<path class="st9" d="M219.17,253.6c-1-0.06-2.01,0.03-2.98,0.29c-0.96,0.25-1.93,0.64-2.72,1.26c-0.35,0.28,0.1,0.78,0.46,0.59
				c0.82-0.43,1.61-0.86,2.51-1.12c0.89-0.25,1.81-0.35,2.73-0.32C219.63,254.32,219.63,253.63,219.17,253.6L219.17,253.6z"/>
		</g>
	</g>
	<g>
		<g>
			<path class="st9" d="M218.01,255.52c-1.56,0.23-3.04,0.88-4.18,1.99c-0.44,0.43,0.24,1.11,0.68,0.68c1.01-1,2.27-1.77,3.68-2.04
				c0.17-0.03,0.27-0.24,0.23-0.4C218.36,255.56,218.19,255.49,218.01,255.52L218.01,255.52z"/>
		</g>
	</g>
	<g>
		<g>
			<path class="st9" d="M256.01,260.43c-0.13-0.22-0.29-0.42-0.43-0.63c-0.15-0.21-0.31-0.41-0.49-0.59
				c-0.36-0.38-0.77-0.69-1.24-0.92c-0.14-0.07-0.32-0.04-0.4,0.11c-0.08,0.13-0.03,0.32,0.11,0.4c0.41,0.23,0.82,0.49,1.2,0.77
				c0.19,0.14,0.36,0.3,0.53,0.46c0.17,0.17,0.31,0.36,0.44,0.57C255.83,260.78,256.13,260.61,256.01,260.43L256.01,260.43z"/>
		</g>
	</g>
	<g>
		<g>
			<path class="st9" d="M256.56,263.04c-0.83-0.93-1.62-1.91-2.46-2.84c-0.83-0.93-1.67-1.87-2.56-2.74
				c-0.43-0.43-1.04,0.21-0.66,0.66c0.81,0.95,1.69,1.85,2.56,2.74c0.87,0.89,1.79,1.74,2.67,2.64
				C256.41,263.77,256.83,263.34,256.56,263.04L256.56,263.04z"/>
		</g>
	</g>
	<g>
		<g>
			<path class="st9" d="M253.41,261.47c-0.42-0.29-0.81-0.63-1.24-0.92c-0.41-0.27-0.82-0.56-1.24-0.82
				c-0.85-0.54-1.7-1.09-2.58-1.57c-0.51-0.28-0.94,0.46-0.46,0.78c0.84,0.56,1.71,1.07,2.58,1.57c0.43,0.25,0.87,0.48,1.3,0.72
				c0.45,0.25,0.93,0.44,1.38,0.68C253.45,262.06,253.68,261.65,253.41,261.47L253.41,261.47z"/>
		</g>
	</g>
	<g>
		<g>
			<path class="st9" d="M252.05,261.35c-1.23-0.58-2.46-1.18-3.7-1.75c-1.22-0.56-2.43-1.2-3.69-1.66
				c-0.39-0.14-0.63,0.47-0.28,0.66c1.16,0.65,2.43,1.16,3.64,1.71c1.22,0.55,2.45,1.09,3.68,1.64
				C252.1,262.13,252.45,261.54,252.05,261.35L252.05,261.35z"/>
		</g>
	</g>
	<g>
		<g>
			<path class="st9" d="M250.6,261.38c-3.13-1.39-6.14-3.06-9.23-4.54c-0.5-0.24-0.92,0.46-0.44,0.75c3,1.79,6.19,3.08,9.42,4.39
				C250.69,262.11,250.94,261.53,250.6,261.38L250.6,261.38z"/>
		</g>
	</g>
	<g>
		<g>
			<path class="st9" d="M248.71,262.12c-1.75-0.66-3.47-1.35-5.27-1.88c-1.79-0.52-3.61-0.92-5.45-1.24
				c-0.51-0.09-0.74,0.68-0.22,0.79c1.82,0.37,3.64,0.8,5.44,1.26c1.79,0.46,3.62,0.92,5.37,1.54
				C248.89,262.7,249.01,262.23,248.71,262.12L248.71,262.12z"/>
		</g>
	</g>
	<g>
		<g>
			<path class="st9" d="M245.19,261.88c-0.78-0.17-1.56-0.35-2.34-0.52c-0.22-0.05-0.48,0.07-0.53,0.3
				c-0.05,0.22,0.07,0.48,0.3,0.53c0.78,0.17,1.56,0.33,2.35,0.5c0.22,0.05,0.47-0.06,0.52-0.3
				C245.53,262.19,245.42,261.93,245.19,261.88L245.19,261.88z"/>
		</g>
	</g>
	<g>
		<g>
			<path class="st9" d="M259.31,266.59c-0.66-0.69-1.38-1.33-2.17-1.87c-0.77-0.53-1.69-1.01-2.61-1.22
				c-0.21-0.05-0.42,0.05-0.5,0.25c-0.07,0.18-0.02,0.45,0.18,0.53c0.84,0.36,1.68,0.68,2.49,1.12c0.8,0.43,1.56,0.94,2.22,1.57
				C259.17,267.23,259.55,266.85,259.31,266.59L259.31,266.59z"/>
		</g>
	</g>
	<g>
		<g>
			<path class="st9" d="M258.33,266.21c-1.28-0.72-2.53-1.51-3.74-2.35c-0.59-0.41-1.17-0.83-1.74-1.26
				c-0.6-0.46-1.17-0.97-1.81-1.38c-0.4-0.26-0.81,0.32-0.5,0.64c0.51,0.52,1.11,0.95,1.69,1.39c0.61,0.45,1.23,0.9,1.86,1.31
				c1.25,0.82,2.54,1.58,3.87,2.28C258.38,267.05,258.74,266.44,258.33,266.21L258.33,266.21z"/>
		</g>
	</g>
	<g>
		<g>
			<path class="st9" d="M254.92,265.32c-2.39-1.77-4.97-3.39-7.8-4.35c-0.37-0.13-0.64,0.48-0.27,0.64c2.7,1.2,5.39,2.43,7.84,4.12
				C254.93,265.9,255.16,265.49,254.92,265.32L254.92,265.32z"/>
		</g>
	</g>
	<g>
		<g>
			<path class="st9" d="M250.75,263.01c-1.5-0.61-2.99-1.23-4.49-1.82c-0.21-0.08-0.45,0.09-0.51,0.29
				c-0.06,0.23,0.08,0.43,0.29,0.51c1.5,0.59,3.01,1.14,4.52,1.71c0.18,0.07,0.39-0.07,0.44-0.25
				C251.05,263.25,250.93,263.09,250.75,263.01L250.75,263.01z"/>
		</g>
	</g>
	<g>
		<g>
			<path class="st9" d="M287.1,264.53c0.12,0,0.24,0,0.37-0.01c0-0.02-0.01-0.04-0.01-0.05c-0.03,0.03,0.03-0.04,0.04-0.06
				c0.07-0.13,0.11-0.27,0.16-0.4c0.09-0.23,0.19-0.46,0.29-0.69c0.22-0.5,0.46-0.98,0.74-1.45c0.55-0.93,1.23-1.72,1.89-2.56
				c0.33-0.42-0.17-0.95-0.59-0.59c-0.56,0.48-1.01,1.09-1.43,1.69c-0.41,0.61-0.78,1.24-1.09,1.91c-0.15,0.32-0.3,0.65-0.42,0.98
				c-0.12,0.34-0.3,0.74-0.31,1.1c-0.01,0.24,0.12,0.48,0.34,0.58c0.25,0.12,0.5-0.03,0.51-0.31
				C287.61,264.41,287.22,264.28,287.1,264.53L287.1,264.53z"/>
		</g>
	</g>
	<g>
		<g>
			<path class="st9" d="M289.89,264.13c0.16-0.57,0.45-1.14,0.71-1.67c0.28-0.55,0.58-1.09,0.93-1.6c0.68-1.01,1.51-1.89,2.43-2.68
				c0.2-0.17,0.17-0.51,0-0.68c-0.2-0.2-0.48-0.16-0.68,0c-1.01,0.8-1.85,1.82-2.51,2.92c-0.33,0.55-0.61,1.11-0.83,1.71
				c-0.23,0.62-0.35,1.24-0.51,1.88C289.36,264.3,289.81,264.43,289.89,264.13L289.89,264.13z"/>
		</g>
	</g>
	<g>
		<g>
			<path class="st9" d="M290.26,264.9c0.88-2.89,3.02-5.3,5.58-6.82c0.55-0.33,0.06-1.16-0.5-0.86c-1.42,0.78-2.65,1.9-3.62,3.19
				c-0.98,1.3-1.63,2.76-2.05,4.32C289.57,265.12,290.15,265.27,290.26,264.9L290.26,264.9z"/>
		</g>
	</g>
	<g>
		<g>
			<path class="st9" d="M292.69,264.13c1.18-2.64,3.29-4.59,5.78-5.99c0.44-0.25,0.14-1.04-0.35-0.84
				c-2.85,1.18-4.98,3.71-6.11,6.54C291.86,264.23,292.52,264.51,292.69,264.13L292.69,264.13z"/>
		</g>
	</g>
	<g>
		<g>
			<path class="st9" d="M294.45,264.01c0.38-0.63,0.91-1.2,1.38-1.76c0.47-0.57,0.96-1.13,1.49-1.65c1.05-1.05,2.22-1.94,3.43-2.79
				c0.53-0.37,0.07-1.2-0.51-0.88c-1.36,0.77-2.58,1.81-3.63,2.95c-0.53,0.57-1.03,1.18-1.47,1.82c-0.45,0.65-0.75,1.35-1.13,2.04
				C293.84,264.04,294.28,264.29,294.45,264.01L294.45,264.01z"/>
		</g>
	</g>
	<g>
		<g>
			<path class="st9" d="M295.77,263.32c1.47-0.94,2.89-1.95,4.43-2.79c0.75-0.41,1.51-0.78,2.28-1.13c0.81-0.37,1.69-0.64,2.48-1.06
				c0.44-0.23,0.13-0.87-0.33-0.77c-0.85,0.18-1.69,0.61-2.48,0.97c-0.82,0.37-1.62,0.8-2.4,1.25c-1.52,0.88-3.05,1.89-4.29,3.15
				C295.27,263.13,295.53,263.48,295.77,263.32L295.77,263.32z"/>
		</g>
	</g>
	<g>
		<g>
			<path class="st9" d="M298.58,263.41c1.82-0.93,3.55-2.02,5.33-3.01c0.88-0.49,1.76-0.97,2.65-1.44c0.91-0.48,1.88-0.9,2.74-1.46
				c0.35-0.23,0.14-0.88-0.3-0.72c-0.97,0.35-1.89,0.9-2.8,1.38c-0.92,0.49-1.82,1-2.72,1.52c-1.79,1.03-3.57,2.09-5.19,3.37
				C298.07,263.21,298.35,263.53,298.58,263.41L298.58,263.41z"/>
		</g>
	</g>
	<g>
		<g>
			<path class="st9" d="M301.76,262.24c3.73-1.81,7.68-3.26,11.28-5.34c0.41-0.23,0.13-0.97-0.33-0.78
				c-3.86,1.62-7.42,3.9-11.15,5.78C301.34,262.01,301.54,262.34,301.76,262.24L301.76,262.24z"/>
		</g>
	</g>
	<g>
		<g>
			<path class="st9" d="M304.88,262.57c1.83-0.75,3.65-1.51,5.45-2.31c0.9-0.4,1.8-0.81,2.7-1.22c0.92-0.42,1.89-0.82,2.75-1.34
				c0.39-0.23,0.14-0.92-0.32-0.76c-1.84,0.66-3.62,1.63-5.4,2.43c-1.83,0.82-3.65,1.65-5.5,2.45
				C304.16,262.02,304.46,262.75,304.88,262.57L304.88,262.57z"/>
		</g>
	</g>
	<g>
		<g>
			<path class="st9" d="M307.02,262.36c2.29-0.62,4.54-1.34,6.75-2.22c1.06-0.43,2.12-0.88,3.15-1.37c1.06-0.5,2.18-0.99,3.14-1.67
				c0.36-0.25,0.15-0.96-0.33-0.77c-1.06,0.43-2.05,1.02-3.08,1.52c-1.03,0.5-2.07,0.98-3.13,1.43c-2.18,0.93-4.42,1.76-6.69,2.44
				C306.43,261.83,306.6,262.47,307.02,262.36L307.02,262.36z"/>
		</g>
	</g>
	<g>
		<g>
			<path class="st9" d="M309.3,259.43c1.01-0.36,2.07-0.58,3.1-0.87c0.96-0.26,1.92-0.55,2.87-0.84c1.98-0.61,4.01-1.11,5.96-1.82
				c0.53-0.19,0.32-0.96-0.23-0.85c-2.02,0.42-4.01,1.11-5.97,1.76c-0.95,0.31-1.9,0.65-2.82,1.02c-1,0.4-1.98,0.89-3,1.25
				C308.99,259.17,309.08,259.51,309.3,259.43L309.3,259.43z"/>
		</g>
	</g>
	<g>
		<g>
			<path class="st9" d="M312.38,257.59c2.38-0.37,4.73-0.67,7.06-1.28c2.31-0.61,4.59-1.34,6.8-2.26c0.53-0.22,0.32-1.08-0.24-0.88
				c-2.25,0.81-4.51,1.58-6.8,2.23c-2.28,0.65-4.6,1.36-6.93,1.77C311.99,257.22,312.11,257.63,312.38,257.59L312.38,257.59z"/>
		</g>
	</g>
	<g>
		<g>
			<path class="st9" d="M316.68,257.85c0.79,0.31,1.68,0.03,2.47-0.12c0.96-0.18,1.92-0.39,2.88-0.61c0.96-0.22,1.91-0.46,2.85-0.71
				c0.94-0.25,1.93-0.46,2.82-0.83c0.52-0.22,0.34-0.95-0.24-0.85c-0.89,0.15-1.77,0.45-2.64,0.68c-0.88,0.24-1.76,0.46-2.64,0.69
				c-0.88,0.23-1.77,0.44-2.65,0.67c-0.8,0.21-1.86,0.67-2.67,0.39C316.42,257,316.25,257.68,316.68,257.85L316.68,257.85z"/>
		</g>
	</g>
	<g>
		<g>
			<path class="st9" d="M319.68,259.2c3.16-0.26,6.31-0.89,9.26-2.07c0.57-0.22,0.34-1.14-0.26-0.93c-2.93,1.03-5.92,1.8-9.01,2.12
				C319.12,258.37,319.11,259.24,319.68,259.2L319.68,259.2z"/>
		</g>
	</g>
	<g>
		<g>
			<path class="st9" d="M322.73,258.56c1.35-0.03,2.69,0,4.03-0.21c1.34-0.21,2.68-0.51,3.92-1.04c0.47-0.2,0.13-0.94-0.34-0.81
				c-1.25,0.35-2.47,0.75-3.73,1.04c-1.27,0.29-2.58,0.6-3.88,0.67C322.5,258.21,322.5,258.56,322.73,258.56L322.73,258.56z"/>
		</g>
	</g>
	<g>
		<g>
			<path class="st9" d="M324.98,257.24c1.02,0.18,2.04,0.34,3.08,0.26c1.05-0.08,2.07-0.31,3.05-0.69c0.25-0.1,0.42-0.33,0.34-0.61
				c-0.06-0.24-0.36-0.44-0.61-0.34c-0.89,0.35-1.83,0.61-2.79,0.74c-0.95,0.13-1.97,0.22-2.92,0.07
				C324.77,256.62,324.6,257.18,324.98,257.24L324.98,257.24z"/>
		</g>
	</g>
	<g>
		<g>
			<path class="st9" d="M311.54,262.55c3.53-1.53,7.39-2.36,11.2-2.82c0.51-0.06,0.54-0.85,0-0.82c-1.99,0.11-3.99,0.47-5.91,1.01
				c-1.94,0.55-3.73,1.32-5.54,2.21C311,262.27,311.25,262.67,311.54,262.55L311.54,262.55z"/>
		</g>
	</g>
	<g>
		<g>
			<path class="st9" d="M314.2,261.41c1.76-0.96,3.81-1.63,5.74-2.15c1.98-0.54,3.98-0.77,6.02-0.98c0.52-0.05,0.54-0.81,0-0.83
				c-2.1-0.08-4.27,0.32-6.28,0.9c-0.99,0.28-1.95,0.63-2.89,1.05c-1.01,0.44-1.91,1.03-2.86,1.58
				C313.66,261.13,313.91,261.56,314.2,261.41L314.2,261.41z"/>
		</g>
	</g>
	<g>
		<g>
			<path class="st9" d="M304.53,259.3c1.81-0.96,3.79-1.75,5.73-2.41c1.94-0.66,3.92-1.01,5.92-1.44c0.43-0.09,0.34-0.8-0.11-0.78
				c-2.08,0.12-4.19,0.71-6.14,1.43c-0.94,0.34-1.86,0.74-2.75,1.19c-1,0.51-1.88,1.12-2.8,1.76
				C304.22,259.15,304.36,259.4,304.53,259.3L304.53,259.3z"/>
		</g>
	</g>
	<g>
		<g>
			<path class="st9" d="M305.97,258.08c5.61-2.76,11.92-3.47,18.04-4.27c0.47-0.06,0.5-0.81,0-0.76
				c-6.32,0.58-12.72,1.38-18.42,4.38C305.16,257.66,305.54,258.3,305.97,258.08L305.97,258.08z"/>
		</g>
	</g>
	<g>
		<g>
			<path class="st9" d="M315.72,256.74c2.55-0.32,5.17-0.55,7.65-1.24c0.53-0.15,0.3-0.89-0.22-0.81c-2.52,0.41-4.98,1.07-7.51,1.43
				C315.29,256.17,315.37,256.78,315.72,256.74L315.72,256.74z"/>
		</g>
	</g>
	<g>
		<g>
			<path class="st9" d="M301.44,259.13c3.32-0.58,6.73-1.36,9.79-2.8c0.43-0.2,0.13-0.93-0.33-0.78c-1.59,0.54-3.16,1.15-4.77,1.64
				c-1.6,0.49-3.23,0.95-4.87,1.31C300.86,258.6,301.04,259.2,301.44,259.13L301.44,259.13z"/>
		</g>
	</g>
	<g>
		<g>
			<path class="st9" d="M296.55,259.32c1.61-0.8,3.25-1.53,4.91-2.2c1.65-0.66,3.34-1.22,5-1.85c0.48-0.18,0.3-0.89-0.21-0.77
				c-3.53,0.82-6.96,2.36-10.17,4.01C295.54,258.79,296.01,259.59,296.55,259.32L296.55,259.32z"/>
		</g>
	</g>
	<g>
		<g>
			<path class="st9" d="M295.85,259.2c5.03-2.25,10.28-3.95,15.63-5.27c0.45-0.11,0.26-0.77-0.19-0.69
				c-5.5,1.02-10.81,2.84-15.88,5.21C294.9,258.68,295.35,259.42,295.85,259.2L295.85,259.2z"/>
		</g>
	</g>
	<g>
		<g>
			<path class="st9" d="M301.15,258.67c5.03-2.23,10.33-3.72,15.54-5.44c0.45-0.15,0.27-0.8-0.19-0.71
				c-5.46,1.11-10.61,3.33-15.64,5.64C300.51,258.32,300.81,258.82,301.15,258.67L301.15,258.67z"/>
		</g>
	</g>
	<g>
		<g>
			<path class="st9" d="M293.01,259.99c4.25-2.04,8.77-3.37,13.3-4.62c0.54-0.15,0.31-0.92-0.23-0.82c-2.36,0.42-4.69,1.18-6.94,2
				c-1.07,0.39-2.13,0.81-3.17,1.28c-1.12,0.5-2.17,1.11-3.25,1.69C292.41,259.68,292.69,260.15,293.01,259.99L293.01,259.99z"/>
		</g>
	</g>
	<g>
		<g>
			<path class="st9" d="M298.21,260.9c5.73-2.01,11.56-3.54,17.41-5.15c0.44-0.12,0.25-0.76-0.19-0.68
				c-5.93,1.16-11.75,3.04-17.43,5.07C297.53,260.32,297.73,261.07,298.21,260.9L298.21,260.9z"/>
		</g>
	</g>
	<g>
		<g>
			<path class="st9" d="M309.38,259.55c4.01-0.96,8.03-1.91,12.03-2.94c0.57-0.15,0.33-1.02-0.24-0.89
				c-4.02,0.95-8.02,1.96-12.02,2.96C308.58,258.83,308.82,259.68,309.38,259.55L309.38,259.55z"/>
		</g>
	</g>
	<g>
		<g>
			<path class="st9" d="M316.79,257.27c1.69-0.11,3.48,0.12,5.15,0.39c1.68,0.27,3.32,0.72,4.94,1.23c0.45,0.14,0.77-0.58,0.33-0.77
				c-1.63-0.7-3.32-1.13-5.08-1.36c-0.86-0.11-1.73-0.17-2.6-0.16c-0.92,0.01-1.82,0.14-2.74,0.23
				C316.52,256.87,316.51,257.29,316.79,257.27L316.79,257.27z"/>
		</g>
	</g>
	<g>
		<g>
			<path class="st10" d="M288.73,313.72c0.78,1.38,1.72,2.62,2.27,4.14c0.53,1.47,1.11,3.38,0.21,4.81
				c-0.4,0.64-1.02,1.14-1.56,1.65c-0.56,0.51-1.12,1.02-1.73,1.48c-1.24,0.92-2.63,1.62-4.21,1.53c-0.59-0.03-0.59,0.89,0,0.92
				c1.74,0.09,3.3-0.66,4.66-1.69c1.3-0.98,2.88-2.21,3.64-3.69c0.81-1.56,0.29-3.53-0.28-5.09c-0.57-1.57-1.42-3.27-2.76-4.3
				C288.82,313.38,288.66,313.58,288.73,313.72L288.73,313.72z"/>
		</g>
	</g>
	<g>
		<path class="st10" d="M274.69,328.79c2.1-2.14,5.05-3.16,7.89-4.12c1.05-0.35,2.37-0.65,3.13,0.16c0.83,0.89,0.16,2.47-0.95,2.96
			c-1.11,0.49-2.39,0.21-3.56-0.13c-1.16-0.34-2.38-0.75-3.56-0.49"/>
	</g>
	<g>
		<path class="st10" d="M273.63,329.14c-1.94,0.85-4.26,0.77-6.13-0.22c-1.48-0.78-2.63-2.05-3.93-3.1c-1.31-1.04-2.95-1.9-4.59-1.6
			c-0.55,0.1-1.18,0.48-1.13,1.04c0.02,0.26,0.2,0.48,0.36,0.69c0.98,1.22,2.68,2.54,3.9,1.56c0.97-0.79,0.23-2.71-1.02-2.65"/>
	</g>
	<g>
		<g>
			<path class="st10" d="M258.62,326.9c-1.16-0.56-2.35-1.03-3.54-1.52c-0.46-0.19-1.02-0.4-1.31-0.84
				c-0.28-0.44-0.31-1.06-0.36-1.56c-0.19-1.68-0.18-3.59,1.34-4.65c0.35-0.25,0.15-0.94-0.32-0.76c-2.06,0.84-2.12,3.54-1.9,5.41
				c0.07,0.58,0.12,1.19,0.36,1.73c0.25,0.56,0.72,0.93,1.26,1.19c1.34,0.65,2.79,1.17,4.2,1.64
				C258.72,327.65,258.97,327.07,258.62,326.9L258.62,326.9z"/>
		</g>
	</g>
	<g>
		<path class="st11" d="M298.83,347.55c-3.82-0.25-7.47-1.57-11.15-2.63s-7.58-1.85-11.32-1.03c-1.7,0.37-3.32,1.07-5.04,1.33
			c-2.53,0.39-5.09-0.18-7.64-0.35c-4.75-0.32-9.58,0.77-13.72,3.11c-1.04,0.59-2.1,1.27-3.29,1.35c-0.68,0.05-1.38-0.11-2.04,0.09
			c-0.65,0.2-1.21,0.98-0.83,1.55c-0.19,0.06-0.22-0.27-0.11-0.44c0.83-1.34,2.53-1.91,4.11-1.89c1.58,0.01,3.1,0.5,4.65,0.81
			c1.43,0.28,2.89,0.42,4.34,0.55c7.85,0.71,15.7,1.42,23.58,1.55c6.83,0.11,14.01-0.31,19.86-3.85"/>
	</g>
	<g>
		<path class="st12" d="M299.74,347.93c-3.52,1.61-6.74,3.85-9.48,6.58c-1.45,1.45-2.78,3.04-4.44,4.25
			c-4.22,3.05-9.83,3.09-15.04,3.01c-2.58-0.04-5.22-0.09-7.66-0.93c-1.78-0.61-3.39-1.62-4.98-2.61c-1.63-1.02-3.26-2.05-4.9-3.07
			c-1.21-0.76-2.42-1.52-3.4-2.56c-0.98-1.04-1.7-2.39-1.68-3.81c4.43,0.54,8.86,1.08,13.29,1.62c4.47,0.55,8.95,1.09,13.45,1.21
			c4.21,0.11,8.43-0.14,12.64-0.4c1.61-0.1,3.23-0.2,4.81-0.53c1.02-0.22,2.03-0.53,3.03-0.84c1.17-0.37,2.33-0.73,3.5-1.1"/>
	</g>
</g>
<g id="Lager_6">
	<path class="st13" d="M23.9,196.61V21.45c0,0,0-0.3,0-0.6c0,0,175.16,0,175.16,0"/>
	<path class="st13" d="M22.56,296.49v175.16c0,0,0,4.01,0,8.01c1.33,0,2.67,0,2.67,0l175.16,0"/>
	<path class="st13" d="M482.62,304.25l0,175.16c0,0,0,0.3,0,0.6c0,0-175.16,0-175.16,0"/>
	<path class="st13" d="M482.62,204.02l0-175.16c0,0,0-4.01,0-8.01c-4.24,0-8.47,0-8.47,0l-175.16,0"/>
	<polygon class="st14" points="59.83,130.92 58.84,148.65 76.33,147.66 62.67,145.25 	"/>
	<g>
		<polygon class="st14" points="60,77.38 58.84,59.58 76.55,60.57 62.67,62.98 		"/>
		<polyline class="st13" points="76.55,59.58 59.06,59.58 59.06,77.38 		"/>
		<polygon class="st14" points="147.47,77.38 147.47,59.58 130.95,60.61 143.64,62.98 		"/>
		<polyline class="st13" points="130.95,59.58 148.44,59.58 148.44,77.38 		"/>
		<polygon class="st14" points="147.45,130.96 148.44,148.76 130.95,147.67 144.6,145.36 		"/>
		<polyline class="st13" points="130.95,148.69 148.44,148.69 148.44,130.89 		"/>
	</g>
	<circle class="st13" cx="482.62" cy="286.48" r="8.43"/>
	<circle class="st13" cx="482.69" cy="264.67" r="8.5"/>
	<circle class="st13" cx="482.69" cy="242.86" r="8.43"/>
	<circle class="st13" cx="482.62" cy="221.65" r="8.43"/>
	<circle class="st13" cx="23.83" cy="279.51" r="8.43"/>
	<circle class="st13" cx="23.9" cy="257.7" r="8.5"/>
	<circle class="st13" cx="23.9" cy="235.89" r="8.43"/>
	<circle class="st13" cx="23.83" cy="214.68" r="8.43"/>
	<g>
		<path class="st12" d="M141.74,110.61c-0.28,1.05-0.6,2.08-0.98,3.1c-1.33-0.15-1.9-1.76-2.11-3.08c-0.42-2.68-0.57-5.39-0.44-8.1
			c0.12-2.58,0.37-5.51-1.41-7.38c0.22,1.29,0.32,2.59,0.28,3.9c-0.01,0.23-0.05,0.51-0.26,0.6c-0.22,0.1-0.46-0.07-0.65-0.23
			c-2.78-2.47-5.56-4.94-8.34-7.41c-0.24-0.22-0.49-0.44-0.67-0.71c-0.17-0.25-0.27-0.53-0.39-0.81c-1.43-3.2-5.65-4.8-8.84-3.35
			c1.8-0.07,3.48,1.07,4.53,2.53c1.05,1.46,1.59,3.22,2.11,4.95c0.94,3.13,1.89,6.46,1.06,9.62c-0.86,3.27-3.55,5.8-6.53,7.38
			c-0.67-5.36-3.08-10.69-6.32-15.08c-2.56-3.47-5.6-6.58-9.02-9.21l-0.81-0.7c1.07,3.63-0.24,7.58-2.36,10.72
			c-2.12,3.13-4.98,5.67-7.49,8.5c-1.64,1.85-3.14,3.91-4.11,6.17c-0.12-0.05-0.25-0.08-0.37-0.13c-3.18-1.55-6.12-4.19-7.03-7.65
			c-0.83-3.16,0.12-6.49,1.06-9.62c0.52-1.73,1.06-3.49,2.11-4.95c1.05-1.46,2.73-2.6,4.53-2.53c-3.19-1.45-7.41,0.15-8.84,3.35
			c-0.12,0.27-0.23,0.56-0.39,0.81c-0.18,0.27-0.43,0.49-0.67,0.71c-2.78,2.47-5.56,4.94-8.34,7.41c-0.18,0.16-0.42,0.33-0.65,0.23
			c-0.21-0.1-0.25-0.37-0.26-0.6c-0.04-1.3,0.06-2.61,0.28-3.9c-1.77,1.87-1.53,4.8-1.41,7.38c0.12,2.7-0.02,5.42-0.44,8.1
			c-0.21,1.33-0.77,2.93-2.11,3.08c-0.37-1.02-0.7-2.05-0.98-3.1c-0.62,1.68-0.08,3.55,0.59,5.21c0.28,0.7,0.58,1.39,0.91,2.06
			c1.82,3.82,4.29,7.31,7.12,10.46c1.19,1.32,2.71,2.69,4.48,2.48c-1.5-1.14-3.05-2.35-3.83-4.06c-0.64-1.41-0.69-3-0.72-4.55
			c0.48,0.79,1.1,1.48,1.84,2.03c-0.24-0.88-0.48-1.76-0.72-2.64c-0.25-0.91-0.5-1.84-0.48-2.79s0.36-1.93,1.1-2.52
			c0.74-0.59,1.92-0.67,2.6,0c0.54,0.53,0.65,1.34,0.82,2.07c0.18,0.73,0.55,1.54,1.28,1.73c-0.51-1.58-0.48-3.33,0.07-4.89
			c0.09-0.25,0.2-0.51,0.42-0.65c0.19-0.12,0.42-0.15,0.65-0.15c2.31-0.07,4.4,0.96,6.33,2.31c-0.07,3.59,1.57,7.14,4.18,9.62
			c2.84,2.69,6.72,4.16,10.62,4.46c4.46,0.34,9.22-0.93,12.29-4.19c1.14-1.21,2.02-2.65,2.68-4.18c0.79-1.82,1.25-3.71,1.45-5.63
			c1.96-1.39,4.09-2.46,6.44-2.39c0.22,0.01,0.46,0.03,0.65,0.15c0.22,0.15,0.33,0.4,0.42,0.65c0.55,1.56,0.58,3.31,0.07,4.89
			c0.73-0.19,1.1-0.99,1.28-1.73c0.18-0.73,0.28-1.54,0.82-2.07c0.68-0.66,1.86-0.59,2.6,0c0.74,0.59,1.07,1.58,1.1,2.52
			s-0.23,1.88-0.48,2.79c-0.24,0.88-0.48,1.76-0.72,2.64c0.74-0.55,1.36-1.24,1.84-2.03c-0.03,1.55-0.08,3.14-0.72,4.55
			c-0.78,1.71-2.33,2.92-3.83,4.06c1.76,0.21,3.29-1.16,4.48-2.48c2.83-3.15,5.3-6.65,7.12-10.46c0.32-0.68,0.63-1.37,0.91-2.06
			C141.82,114.16,142.36,112.28,141.74,110.61z"/>
	</g>
	<polyline class="st13" points="76.55,148.69 59.06,148.69 59.06,130.89 	"/>
</g>
</svg>
