<?xml version="1.0" encoding="utf-8"?>
<!-- Generator: Adobe Illustrator 24.0.0, SVG Export Plug-In . SVG Version: 6.00 Build 0)  -->
<svg version="1.1" xmlns="http://www.w3.org/2000/svg" xmlns:xlink="http://www.w3.org/1999/xlink" x="0px" y="0px" width="500px"
	 height="500px" viewBox="0 0 500 500" style="enable-background:new 0 0 500 500;" xml:space="preserve">
<style type="text/css">
	.st0{fill:#3E383C;}
	.st1{opacity:0.46;}
	.st2{fill:#EC8D69;}
	.st3{fill:#100C07;}
	.st4{fill:#E08468;}
	.st5{fill:#F2F0F0;}
	.st6{fill:#2B1715;}
	.st7{fill:#F09279;}
	.st8{fill:#924738;}
	.st9{fill:#E28569;}
	.st10{fill:#E5DC70;}
	.st11{fill:none;stroke:#000000;stroke-width:2;stroke-miterlimit:10;}
	.st12{opacity:0.65;}
</style>
<g id="Lager_1">
	<rect x="-57" y="-14" class="st0" width="573" height="565"/>
</g>
<g id="skugga">
	<g class="st1">
		<g>
			<path d="M495.76,418.36c1.66,3.05,2.92,6.33,3.69,9.86c1.49,6.87,0.86,14,0.14,21c-2.02,19.57-4.73,39.07-8.12,58.45
				c-1.42,8.12-3.08,16.49-7.8,23.25c-5.54,7.94-14.57,12.61-23.36,16.66c-28.01,12.9-58.31,22.78-89.11,21.21
				c-20.4-1.04-40.23-7.05-60.54-9.19c-37.53-3.96-75.1,5.4-112.81,6.93c-23.23,0.94-46.47-1.1-69.64-3.14
				c-35.81-3.15-71.62-6.31-107.43-9.46c-9.44-0.83-20.91-3.21-23.72-12.25c-2.59-8.33,3.68-19.27-5.27-24.47
				c1.53-35.66,17.07-70.61,42.72-95.47c43.61-42.29,112.93-55.3,146.39-106c28.55,10.66,59.9,15.86,89.68,9.41
				c14.4-3.12,29.03-8.93,43.4-5.69c5.36,1.21,10.35,3.63,15.29,6.04c41.99,20.44,83.97,40.89,125.96,61.33
				C470.8,394.41,487.83,403.77,495.76,418.36z"/>
		</g>
		<g>
			<path d="M488.12,413.3c0.57-0.54,1.26-2.6,2-2.43c1.04,0.23,2.63,2.01,3,3c2.54,6.76,4.02,15.24,1.77,22.1
				c-2.87,8.76-12.26,13.21-20.12,18.03c-15.3,9.38-27.61,23.57-34.72,40.05c-3.55,8.22-10.8,21.15-27.43,18.33
				c1.26-14.61,13.32-31.99,24.93-40.94c2.57-1.98,5.31-3.72,8.01-5.52c12.87-8.57,25.17-18.87,32.29-32.59
				c3.25-6.26,5.37-13.12,9.35-18.93C487.47,414.02,487.78,413.63,488.12,413.3z"/>
		</g>
		<g>
			<path d="M291.68,324.4c3.34-2.29,6.43-4.94,9.17-7.96c5.24-5.79,9.02-12.76,12.23-19.88c15.06-33.43,18.31-70.81,20.93-107.39
				c0.81-11.3,1.57-22.8-0.94-33.85c-1.35-5.94-3.73-11.83-7.99-16.18c-6.87-7-17.28-8.88-26.99-10.18
				c-29.52-3.95-57.85-4.77-87.72-4.57c-11.72-0.46-19.52,7.14-25.36,16.86c-5.54,9.24-7.69,20.07-9.27,30.73
				c-3.48,23.58-4.6,47.5-3.32,71.3c0.47,8.84,1.29,17.74,3.86,26.22c1.46,4.82,3.48,9.46,5.54,14.06
				c6.91,15.43,14.85,31.21,28.38,41.35c15.37,11.52,36.16,14.01,54.99,10.22C274.58,333.24,283.83,329.78,291.68,324.4z"/>
		</g>
		<g>
			<path d="M235.79,210.35c2.88,1.52,6.23,3.93,5.66,7.14c-0.5,2.81-3.7,4.12-6.44,4.94c-10.62,3.17-22.36,6.28-32.47,1.75
				c-3-1.34-5.68-3.31-8.18-5.43c-3.91-3.32-7.55-7.27-9.09-12.16s-0.48-10.89,3.63-13.96c0,0,0.83-0.62,1.67-1.25
				c1.45-2.13,2.9-4.25,2.9-4.25c1.87-2.74,4.35-5.8,7.66-5.62c2.5,0.14,4.46,2.12,6.18,3.94c9.16,9.68,19.24,18.47,30.07,26.24"/>
		</g>
		<g>
			<path d="M308.03,221.68c-0.96,0.59-1.91,1.2-2.8,1.9c-2.26,1.78-4.12,4.11-6.66,5.48c-1.88,1.01-4.02,1.43-6.15,1.66
				c-6.25,0.67-12.66-0.24-18.48-2.62c-3.77-1.54-7.47-3.89-9.25-7.54c-1.99-4.09-1.18-8.82,0.34-13.22
				c7.02-2.84,14.57-3.88,21.83-5.99c2.43-0.71,4.82-1.53,7.25-2.22c4.76-1.35,9.67-2.19,14.61-2.48c1.01-0.06,2.04-0.09,3.01,0.2
				c0.94,0.29,1.76,0.88,2.48,1.54c5.12,4.67,5.38,13.67,0.53,18.63c-0.4,0.4-0.82,0.78-1.25,1.14
				C311.82,219.5,309.89,220.54,308.03,221.68z"/>
		</g>
		<g>
			<path d="M289.67,175.74c6.19,4.07,9.5,12.26,7.62,19.46c-0.91,3.5-2.86,6.62-4.78,9.68c-0.32,0.51-0.65,1.03-1.12,1.4
				c-0.5,0.39-1.13,0.57-1.74,0.74c-2.06,0.56-4.14,1.03-6.24,1.4c3.75-2.8,7.64-5.66,10.34-9.51c2.36-3.36,3.74-7.61,2.85-11.62
				c-0.51-2.3-1.73-4.39-3.1-6.31c-1.62-2.26-3.47-4.34-5.53-6.21C288.56,175.05,289.13,175.38,289.67,175.74z"/>
		</g>
		<g>
			<path d="M201,207.89c-0.01,0.02-0.03,0.04-0.04,0.06c-0.14,0.27-0.02,0.6,0.12,0.87c0.7,1.39,1.72,2.59,2.85,3.66
				c1.11,1.06,2.34,2,3.68,2.74c2.87,1.57,6.22,2.14,9.48,1.99c2.83-0.13,5.6-0.79,8.36-1.45c2.41-0.57,4.83-1.15,7.24-1.72
				c-1.38-3-4.24-5.09-7.33-6.21c-3.02-1.1-6.28-1.36-9.5-1.49c-4.79-0.2-9.67-0.14-14.26,1.22
				C201.38,207.61,201.14,207.7,201,207.89z"/>
		</g>
		<g>
			<path d="M270.31,214.16c-0.17-0.26-0.34-0.52-0.5-0.79c10.29-3.54,22.01-2.61,31.64,2.43c0.34,2.22-1.86,3.39-3.74,4.12
				c-3.37,1.29-6.84,2.51-10.45,2.72C280.66,223.01,273.99,219.64,270.31,214.16z"/>
		</g>
		<g>
			<path d="M283.08,220.98c0.78,0.01,1.52-0.2,2.1-0.72c0.71-0.65,1-1.66,1.05-2.62c0.08-1.35-0.24-2.75-1.08-3.81
				c-1.13-1.42-3.26-2.12-4.9-0.92c-1.49,0.11-2.78,1.74-2.69,3.31c0.11,1.81,1.53,3.32,3.14,4.14
				C281.43,220.72,282.27,220.97,283.08,220.98z"/>
		</g>
		<g>
			<path d="M214.14,206.82c1.76,0.91,2.49,3.37,1.52,5.09c-1.1,1.95-3.73,2.5-5.92,2.06c-1.64-0.33-3.42-1.44-3.43-3.12
				c0-1.03,0.72-1.97,1.63-2.46c0.91-0.49,1.98-0.6,3.01-0.59c1.43,0.01,2.86,0.25,4.22,0.69"/>
		</g>
		<g>
			<path d="M305.77,234.88c5.71,6.92,8.92,15.86,8.93,24.84c0,1.76-0.11,3.54,0.2,5.27c1.7-10.87-1.43-22.4-8.39-30.92"/>
		</g>
		<g>
			<path d="M270.52,247.64c1.22,0.52,2.25,1.42,3.16,2.39c5.11,5.45,6.93,13.13,8.56,20.42c-4.53-6.51-7.18-14.15-11.47-20.82
				c-0.33-0.52-0.76-1.08-1.37-1.11"/>
		</g>
		<g>
			<path d="M241.52,225.41c0.78,2.78-1.02,5.55-2.66,7.92c-4.74,6.84-8.9,14.09-12.4,21.64c-1.25,2.69-2.27,6.25-0.14,8.31
				c0.88,0.85,2.12,1.2,3.31,1.48c1.1,0.26,2.26,0.48,3.34,0.16c1.08-0.31,2.04-1.33,1.91-2.45c-0.13-1.11-1.21-1.83-2.18-2.4
				c-0.67-0.39-1.36-0.79-2.13-0.85c-0.77-0.06-1.63,0.33-1.85,1.07c-0.23,0.78,0.35,1.62,1.09,1.96c0.74,0.34,1.59,0.31,2.4,0.27
				c0.46-0.48,0.13-1.34-0.46-1.65c-0.59-0.31-1.29-0.23-1.95-0.14c0.03,0.89,0.41,1.76,1.05,2.37"/>
		</g>
		<g>
			<path d="M264.1,261.7c-1.1-0.29-2.4,0.28-2.85,1.32c-0.45,1.05,0.08,2.44,1.16,2.82c1.07,0.39,2.43-0.43,2.5-1.57
				c0.08-1.14-1.27-2.13-2.31-1.66c-1.04,0.48-1.16,2.15-0.25,2.85c0.91,0.7,2.41,0.25,2.88-0.79c0.47-1.04-0.08-2.39-1.1-2.91"/>
		</g>
		<g>
			<path d="M292.76,306.95c-6.71-5.22-6.38-15.36-10.16-22.98c-3.53-7.11-11.17-11.99-19.11-12.21c-3.58-0.1-8.24,0.05-9.46-3.32
				c-0.6,2.65-4.43,2.33-7.06,1.63c-19.63-5.27-42.32,6.68-49.08,25.85c-0.49,1.4-1.08,3.01-2.47,3.53c-2.22,0.82-4.14-1.73-5.1-3.9
				c-11.66-26.25-16.04-55.07-20.56-83.41c-3.1,22.96,1.64,45.91,6.35,68.46c2.74,13.12,5.48,26.24,8.22,39.35
				c2.15,10.3,4.44,20.92,10.51,29.51c5.12,7.24,12.54,12.46,18.83,18.71c6.18,6.14,11.3,13.33,15.09,21.17
				c1.43,2.97,2.7,6.3,1.91,9.5c-1.37,5.57-7.91,7.85-11.93,11.95c-6.16,6.29-6.05,16.63-11.48,23.56
				c-4.15,5.3-11.37,8.43-13.26,14.89c-1.32,4.53,0.62,9.61,4.15,12.74c3.52,3.13,8.38,4.47,13.09,4.46
				c6.08-0.02,12.51-2.48,15.72-7.65c3.21-5.17,1.89-13.13-3.58-15.8c-1.62-0.79-3.51-1.12-4.87-2.32
				c-3.24-2.85-1.23-8.41,2.09-11.17s7.69-4.28,10.34-7.67c3.94-5.04,2.78-12.28,4.6-18.41c1.99-6.71,7.43-11.73,12.65-16.4
				c9.52-8.53,19.04-17.06,28.57-25.6c13.38-11.99,27.1-24.43,34.76-40.68c3.3-7.01,5.37-14.53,7.34-22.02
				c6.26-23.89,11.63-48.02,16.11-72.31c-4.74,14.63-9.47,29.26-14.21,43.89c-2.43,7.51-4.9,15.1-9.12,21.77
				c-4.22,6.66-10.46,12.4-18.1,14.36"/>
		</g>
		<g>
			<path d="M212.35,302.89c1.16,4.69,4.95,8.44,8.66,11.66c2.32,2.01,5.28,4.1,8.21,3.18c1.82-0.57,3.11-2.18,4.05-3.83
				c0.95-1.65,1.69-3.46,2.96-4.87c0.69-0.77,1.53-1.42,2.08-2.3c0.28-0.44,0.49-0.95,0.91-1.26c0.47-0.35,1.1-0.37,1.68-0.39
				c1.29-0.03,2.57-0.05,3.86-0.08c1.66-0.03,3.37-0.06,4.94,0.49c3.53,1.25,5.48,5.19,5.69,8.92c0.06,1.1,0.02,2.27,0.59,3.21
				c1.43,2.36,5.15,1.42,7.54,2.79c0.46,0.26,0.89,0.62,1.41,0.7c0.49,0.08,0.98-0.11,1.44-0.3c6.57-2.75,12.35-7.37,16.49-13.17
				c-0.03-2.27-0.8-4.53-2.17-6.34c-0.56-0.73-1.21-1.4-1.66-2.21c-0.46-0.82-0.68-1.75-0.96-2.65
				c-1.81-5.69-6.67-10.32-12.45-11.84c-1.74-0.46-3.53-0.65-5.32-0.85c-4.01-0.43-8.02-0.86-12.05-0.82
				c-4.63,0.06-9.28,0.74-13.87,0.18c-1.5-0.18-3.01-0.5-4.5-0.27c-2.25,0.35-4.16,1.91-6.39,2.4c-1.67,0.37-3.44,0.11-5.08,0.6
				c-1.97,0.58-3.52,2.2-4.45,4.04c-0.93,1.84-1.32,3.9-1.62,5.93c-0.28,1.88-0.5,3.78-0.26,5.67
				C212.15,301.97,212.23,302.44,212.35,302.89z"/>
		</g>
		<g>
			<path d="M225.88,291.86c3.07,4.08,6.53,7.99,11.29,9.63c1.85,0.64,3.8,0.9,5.75,1.09c2.91,0.29,5.84,0.45,8.74,0.15
				c4.85-0.49,9.48-2.23,14.05-3.96c3.76-1.42,7.61-2.9,10.44-5.84c-4.66-2.44-10.08-3.37-15.28-2.63c-2.82,0.4-5.56,1.27-8.39,1.67
				c-2.15,0.31-4.32,0.34-6.49,0.31c-7.26-0.1-14.51-0.95-21.61-2.48C224.86,290.49,225.36,291.18,225.88,291.86z"/>
		</g>
		<g>
			<path d="M275.91,293c0.18,0.21,0.35,0.42,0.52,0.63c-3.8-1.34-7.67-2.7-11.7-2.92c-6.14-0.33-12.14,2-18.29,2.01
				c-2.72,0.01-5.42-0.44-8.14-0.4c-2.47,0.04-4.98,0.5-7.41,0.03c-2.65-0.51-5.32-2.51-5.13-5.34c0.69-1.41,2.35-2.13,3.89-2.56
				c5.32-1.5,10.94-1.41,16.47-1.31c2.01,0.04,4.02,0.08,6.03,0.11c2.33,0.04,4.68,0.09,6.98,0.43
				C265.6,284.66,271.67,288.03,275.91,293z"/>
		</g>
		<g>
			<path d="M177.3,119.23c3.94-8.19,9-15.87,15.79-21.85c10.76-9.47,24.92-13.92,38.63-18.12c6.12-1.88,12.31-3.76,18.69-4.21
				c10.41-0.73,20.64,2.39,30.73,5.07c1.11,0.29,2.29,0.58,3.39,0.26c3.36-0.99,2.82-5.79,2.48-9.28
				c-0.79-8.24,4.46-16.69,12.19-19.64c5.23-2,11.04-1.61,16.61-0.99c11.66,1.29,24.56,4.25,30.97,14.07
				c2.4,3.67,3.62,8.5,1.75,12.47c-0.81,1.72-2.13,3.14-3.43,4.53c-5.17,5.57-10.65,12.48-9.08,19.92c0.76,3.6,3.1,6.63,5.25,9.61
				c8.4,11.62,15.07,24.81,17.12,39c2.05,14.19-0.93,29.47-10.01,40.57c-4.42,5.41-10.15,9.72-14.38,15.23
				c-0.26-14.31-1-28.62-2.22-42.89c-0.37-4.32-0.8-8.72-2.56-12.68c-3.62-8.15-12.12-12.96-20.46-16.12
				c-24.84-9.41-52.15-9.08-78.71-8.63c-12.06,0.21-24.88,0.64-34.9,7.37c-9.58,6.44-14.91,17.68-17.5,28.93s-2.88,22.9-4.83,34.29
				c-0.66,3.86-1.51,7.7-2.55,11.48c-3.87-8.5-5.23-17.95-5.55-27.28c-0.66-18.86,2.77-37.85,9.98-55.29
				C175.51,123.1,176.38,121.15,177.3,119.23z"/>
		</g>
		<g>
			<path d="M347.06,229.57c-2.71,7.1-6.13,13.75-12.05,18.32c-0.97,0.75-2.38,1.42-3.33,0.65c-0.43-0.35-0.62-0.9-0.75-1.43
				c-0.99-3.92,0.12-8.08-0.35-12.09c-0.47-4.05-2.52-7.76-3.29-11.76c-1.36-7.07,1.35-14.21,4.1-20.88
				c6.81-5.41,13.62-10.83,20.44-16.24c0.42-0.34,0.9-0.69,1.44-0.67c0.75,0.03,1.26,0.74,1.61,1.4c2.39,4.52,2.51,9.94,1.52,14.96
				c-0.99,5.01-3,9.76-4.73,14.57C350.12,220.7,348.72,225.22,347.06,229.57z"/>
		</g>
		<g>
			<path d="M347.07,234.62c-2.71,7.1-6.13,13.75-12.05,18.32c-0.97,0.75-2.38,1.42-3.33,0.65c-0.43-0.35-0.62-0.9-0.75-1.43
				c-0.99-3.92,0.12-8.08-0.35-12.09c-0.47-4.05-2.52-7.76-3.29-11.76c-1.36-7.07,1.35-14.21,4.1-20.88
				c6.81-5.41,13.62-10.83,20.44-16.24c0.42-0.34,0.9-0.69,1.44-0.67c0.75,0.03,1.26,0.74,1.61,1.4c2.39,4.52,2.51,9.94,1.52,14.96
				c-0.99,5.01-3,9.76-4.73,14.57C350.13,225.75,348.73,230.27,347.07,234.62z"/>
		</g>
		<g>
			<path d="M337.41,215.96c-0.29,0.07,0.2,0.38,0.46,0.23c3.52-2.12,6.34-5.36,7.96-9.13c0.36,4.15,0.46,8.33,0.3,12.49
				c-0.05,1.24-0.12,2.49-0.39,3.71c-0.4,1.86-1.23,3.6-2.05,5.32c-0.4,0.84-0.8,1.67-1.2,2.51c-0.26,0.55-0.58,1.15-1.16,1.33
				s-1.33-0.47-0.99-0.97c-0.1,1.14-1.88,1.63-2.55,0.7c-0.11-0.16-0.2-0.35-0.2-0.54c-0.01-0.54,0.75-0.9,1.17-0.55
				c0.41,0.35,0.19,1.16-0.34,1.25"/>
		</g>
		<g>
			<path d="M159.15,203.14c1.58,8.68,4.5,17.11,8.67,24.88c0.88,1.64,2.48,3.51,4.21,2.84c1.46-0.56,1.72-2.48,1.75-4.04
				c0.11-5.78,0.22-11.56,0.33-17.34c0.07-3.76-0.05-8-2.7-10.62c-5.28-9.28-8.55-19.68-9.53-30.31c-2.64,3.44-3.43,7.93-3.8,12.25
				C157.44,188.25,157.82,195.78,159.15,203.14z"/>
		</g>
		<g>
			<path d="M159.24,207.44c2.31,8.51,5.93,16.67,10.75,24.06c1.02,1.56,2.76,3.29,4.44,2.48c1.41-0.68,1.51-2.61,1.4-4.17
				c-0.38-5.77-0.76-11.54-1.14-17.31c-0.25-3.75-0.73-7.97-3.59-10.35c-6.04-8.8-10.18-18.89-12.06-29.39
				c-2.34,3.65-2.74,8.19-2.75,12.53C156.27,192.76,157.28,200.23,159.24,207.44z"/>
		</g>
		<g>
			<path d="M167.26,207.26c0.73,1.1,1.24,2.33,1.49,3.62c0.12,0.61,0.12,1.38-0.41,1.71c-0.78,0.47-1.62-0.49-1.97-1.32
				c-0.33-0.78-0.6-1.58-0.81-2.39c0.77,0.11,1.34,0.81,1.55,1.56c0.21,0.75,0.13,1.54,0.05,2.31c-1.11,0.15-2.07-0.73-2.76-1.6
				c-3.13-3.99-4.25-9.49-2.91-14.39"/>
		</g>
		<g>
			<path d="M231.51,397.5c-0.05-0.02-0.1-0.04-0.15-0.06c-0.67-0.27-1.42,0.12-1.58,0.82c-0.55,2.47-0.65,4.75,1.34,6.61
				c0.44,0.41,3.55,2.41,4,2c0,0,0,0,0.04-1.66c0.16-1.28,0.75-1.78,0.96-3.34c0.05-0.36,1.17-1.68,1-2
				c-0.15-0.28-2.39-0.99-2.67-1.16C233.8,398.33,232.57,397.91,231.51,397.5z"/>
		</g>
		<g>
			<path d="M209,434.21c0.28,0.98,0.97,1.89,1.63,2.7c0.72,0.88,5.36,1.94,6.5,1.97c1.61,0.03-0.59-1.5,0-3c0.62-1.57,1.38-3.43,2-5
				c-2.08-1.28-5.81-2.92-8-4c-0.77,1.29-1.23,2.71-2,4c-0.31,0.51-0.88,1.42-1,2C208.03,433.35,208.87,433.75,209,434.21z"/>
		</g>
	</g>
</g>
<g id="kropp">
	<g>
		<path class="st2" d="M500.81,425.53c1.66,3.05,2.92,6.33,3.69,9.86c1.49,6.87,0.86,14,0.14,21c-2.02,19.57-4.73,39.07-8.12,58.45
			c-1.42,8.12-3.08,16.49-7.8,23.25c-5.54,7.94-14.57,12.61-23.36,16.66c-28.01,12.9-58.31,22.78-89.11,21.21
			c-20.4-1.04-40.23-7.05-60.54-9.19c-37.53-3.96-75.1,5.4-112.81,6.93c-23.23,0.94-46.47-1.1-69.64-3.14
			c-35.81-3.15-71.62-6.31-107.43-9.46c-9.44-0.83-20.91-3.21-23.72-12.25c-2.59-8.33,3.68-19.27-5.27-24.47
			c1.53-35.66,17.07-70.61,42.72-95.47c43.61-42.29,112.93-55.3,146.39-106c28.55,10.66,59.9,15.86,89.68,9.41
			c14.4-3.12,29.03-8.93,43.4-5.69c5.36,1.21,10.35,3.63,15.29,6.04c41.99,20.44,83.97,40.89,125.96,61.33
			C475.85,401.58,492.88,410.94,500.81,425.53z"/>
	</g>
	<g>
		<path class="st3" d="M426.11,386.85c-6.55,7.88-12.15,16.56-16.61,25.78c-2.46,5.09-4.6,10.38-7.77,15.06
			c-5.62,8.29-14.1,14.12-21.26,21.12c-14.65,14.31-23.64,33.28-32.32,51.83c-2.09,4.47-4,10.31-0.58,13.87
			c3.27-0.4,6.19-2.61,7.69-5.52c0.41-0.68,1.74-2.86,1.74-2.86c4.02-6.58,9.12-12.42,14.13-18.29
			C397.57,456.87,423.61,421.01,446,387c-4.41-3.4-8.64-5.5-14-7C430.8,381.32,427.26,385.48,426.11,386.85z"/>
	</g>
	<g>
		<path class="st3" d="M479.45,405.87c1.17-0.59-9.96-11.32-15.45-8.87c-1.64,0.73-4.17,3.55-4.92,5.18
			c-12.27,26.51-31.88,49.58-56.07,65.96c-3.56,2.41-7.28,4.74-10.02,8.05c-2.54,3.08-4.09,6.84-5.6,10.53
			c-6.27,15.36-8.58,22.15-17.49,43.22c8.61-0.54,19.03-1.18,24.42-8.26c2.47-3.25,3.44-7.36,4.65-11.26
			c9.28-29.84,35-50.94,56.15-73.94c8.87-9.64,17.1-19.88,24.62-30.61C479.64,405.88,479.36,405.92,479.45,405.87z"/>
	</g>
	<g>
		<path class="st3" d="M493,420.43c0.57-0.54,1.26-2.6,2-2.43c1.04,0.23,2.63,2.01,3,3c2.54,6.76,4.02,15.24,1.77,22.1
			c-2.87,8.76-12.26,13.21-20.12,18.03c-15.3,9.38-27.61,23.57-34.72,40.05c-3.55,8.22-10.8,21.15-27.43,18.33
			c1.26-14.61,13.32-31.99,24.93-40.94c2.57-1.98,5.31-3.72,8.01-5.52c12.87-8.57,25.17-18.87,32.29-32.59
			c3.25-6.26,5.37-13.12,9.35-18.93C492.35,421.14,492.65,420.75,493,420.43z"/>
	</g>
	<g>
		<path class="st3" d="M225.56,507.04c2.75-1.72,6.56,1.72,5.9,4.89c-0.66,3.18-4.23,5.06-7.47,4.91c-3.24-0.15-6.2-1.82-8.98-3.49
			c-10.76-6.45-21.08-13.59-31.39-20.73c-7.78-5.38-15.56-10.76-23.34-16.14c-8.75-6.05-17.57-12.16-25-19.77
			c-5.16-5.29-9.64-11.28-15.36-15.95c-13.23-10.8-31.89-13.56-44.32-25.28c-0.83-0.78-1.66-1.66-1.88-2.78
			c-0.28-1.44-2.49-7.45-1.72-8.7c7.58-4.92,15.36-9.29,22.41-13c41.45,39.28,91.99,83.05,137.18,117.93"/>
	</g>
	<g>
		<path class="st3" d="M38.47,486.14c-5.26-4.87-10.11-10.17-14.49-15.84c5.48,1,10.67,3.17,15.81,5.32
			c5.55,2.33,11.1,4.65,16.64,6.98c20.93,8.78,42.3,17.82,59.18,33.01c4.91,4.42,10.98,9.73,17.21,7.55
			c0.25-5.47-3.04-10.44-6.49-14.7c-16.51-20.36-39.41-34.35-61.96-47.72c-4.21-2.49-9-6.05-8.54-10.92
			c6.01-0.87,11.84,2.12,17.18,5.01c12.77,6.92,25.54,13.84,38.31,20.76c9.09,4.93,18.26,9.91,26.11,16.64
			c7.29,6.26,13.32,13.92,20.91,19.82c7.58,5.9,17.52,9.98,26.78,7.4c-1.93-3.81-3.27-7.92-3.93-12.14
			c-8.18-5.6-16.37-11.21-24.56-16.81c-5.45-3.73-10.92-7.48-15.89-11.84c-5.85-5.14-10.93-11.08-16.33-16.69
			c-17.92-18.61-39.55-33.64-63.24-43.94c-2.07-0.9-4.94-2.49-7.16-2.05c-2.4,0.47-4.04,3.53-6,5c-15.65,11.77-30.44,28.53-38,47
			c-3.73,9.12-7.68,17.31-1.73,25.52c2.39,3.3,6.17,5.26,9.81,7.09c16.98,8.57,33.97,17.14,50.95,25.71
			c4.19,2.11,8.65,4.28,13.32,3.93c4.68-0.36,9.41-4.33,8.78-8.98c-0.66-4.81-6.05-7.16-10.58-8.9
			C65.02,506.43,50.67,497.45,38.47,486.14z"/>
	</g>
</g>
<g id="fejs">
	<g>
		<path class="st2" d="M296.55,331.52c3.34-2.29,6.43-4.94,9.17-7.96c5.24-5.79,9.02-12.76,12.23-19.88
			c15.06-33.43,18.31-70.81,20.93-107.39c0.81-11.3,1.57-22.8-0.94-33.85c-1.35-5.94-3.73-11.83-7.99-16.18
			c-6.87-7-17.28-8.88-26.99-10.18c-29.52-3.95-57.85-4.77-87.72-4.57c-11.73-0.46-19.52,7.14-25.36,16.86
			c-5.54,9.24-7.69,20.07-9.27,30.73c-3.48,23.58-4.6,47.5-3.32,71.3c0.47,8.84,1.29,17.74,3.86,26.22
			c1.46,4.82,3.48,9.46,5.54,14.06c6.91,15.43,14.85,31.21,28.38,41.35c15.37,11.52,36.16,14.01,54.99,10.22
			C279.45,340.36,288.7,336.91,296.55,331.52z"/>
		<g>
			<path class="st2" d="M296.74,331.85c8.44-5.84,14.5-13.78,19.1-22.87c4.74-9.37,8.38-19.33,11.29-29.41
				c5.95-20.6,8.7-41.96,10.57-63.27c0.96-10.95,1.99-21.96,2.28-32.95c0.28-10.33-0.32-21.54-5.16-30.9c-2.07-4-5.03-7.41-8.8-9.88
				c-3.74-2.45-8.01-3.95-12.33-4.99c-4.65-1.11-9.4-1.72-14.14-2.31c-5.73-0.72-11.47-1.34-17.21-1.85
				c-22.68-2.02-45.46-2.42-68.22-2.29c-18.74,0.11-28.42,21.08-31.85,36.66c-2.36,10.73-3.57,21.79-4.51,32.72
				c-1,11.55-1.43,23.14-1.31,34.73c0.12,11.2,0.39,22.63,2.47,33.67c1.97,10.47,6.48,20.2,11.07,29.75
				c4.11,8.57,8.79,16.97,14.95,24.24c6.01,7.09,13.43,12.72,22.02,16.3c17.75,7.4,38.88,6.46,56.63-0.47
				C288.2,336.92,292.63,334.64,296.74,331.85c0.4-0.27,0.02-0.92-0.38-0.65c-8.48,5.77-18.31,9.29-28.37,11.06
				c-9.22,1.63-18.78,1.74-28,0.01c-9.25-1.74-18.17-5.42-25.61-11.25c-7.36-5.77-13.07-13.32-17.76-21.35
				c-4.92-8.42-9.11-17.43-12.72-26.48c-4.11-10.3-5.57-21.07-6.18-32.08c-1.26-22.53-0.37-45.18,2.65-67.54
				c1.35-10.02,2.89-20.29,7.05-29.6c3.39-7.61,8.72-15.47,16.24-19.48c3.82-2.04,7.81-2.6,12.09-2.6c5.64,0,11.28-0.04,16.92,0.02
				c11.03,0.1,22.05,0.41,33.06,1.05c11.06,0.64,22.1,1.6,33.09,2.97c9.09,1.13,18.98,2.14,26.83,7.29
				c8.79,5.78,11.99,16.34,13.11,26.29c1.21,10.71,0.15,21.54-0.64,32.24c-1.55,20.94-3.46,41.93-7.9,62.48
				c-2.18,10.09-4.98,20.06-8.64,29.72c-3.6,9.52-7.83,19.24-14.28,27.21c-3.13,3.87-6.83,7.21-10.92,10.04
				C295.97,331.47,296.34,332.12,296.74,331.85z"/>
		</g>
	</g>
	<g>
		<path class="st3" d="M189.75,212.13c-0.89-4.55,0.35-9.64,4.03-12.39l0,0c1.1-0.83,2.06-1.83,2.84-2.97l2.97-4.36
			c0.81-1.19,1.85-2.23,3.1-2.93c4.2-2.34,7.07,0.53,9.49,3.08c8.5,8.98,17.8,17.21,27.76,24.55c0.45,0.22,0.72,0.37,0.72,0.37
			c3.2,1.69,6.97,4.47,5.32,8.23c-0.68,1.55-2.1,2.64-3.71,3.13c-11.23,3.37-23.98,7.34-34.86,2.46c-3-1.34-5.68-3.31-8.18-5.43
			c-3.91-3.32-7.55-7.27-9.09-12.16C189.98,213.18,189.85,212.66,189.75,212.13z"/>
	</g>
	<g>
		<path class="st3" d="M312.9,228.8c-0.96,0.59-1.91,1.2-2.8,1.9c-2.26,1.78-4.12,4.11-6.66,5.48c-1.88,1.01-4.02,1.43-6.15,1.66
			c-6.25,0.67-12.66-0.24-18.48-2.62c-3.77-1.54-7.47-3.89-9.25-7.54c-1.2-2.46-1.38-5.15-1.01-7.87c0.45-3.3,2.85-6.02,6.03-6.99
			c5.63-1.71,11.48-2.71,17.14-4.36c2.43-0.71,4.82-1.53,7.25-2.22c4.76-1.35,9.67-2.19,14.61-2.48c1.01-0.06,2.04-0.09,3.01,0.2
			c0.94,0.29,1.76,0.88,2.48,1.54c5.12,4.67,5.38,13.67,0.53,18.63c-0.4,0.4-0.82,0.78-1.25,1.14
			C316.69,226.63,314.76,227.67,312.9,228.8z"/>
	</g>
	<g>
		<path class="st4" d="M294.55,182.86c6.19,4.07,9.5,12.26,7.62,19.46c-0.91,3.5-2.86,6.62-4.78,9.68c-0.32,0.51-0.65,1.03-1.12,1.4
			c-0.5,0.39-1.13,0.57-1.74,0.74c-2.06,0.56-4.14,1.03-6.24,1.4c3.75-2.8,7.64-5.66,10.34-9.51c2.36-3.36,3.74-7.61,2.85-11.62
			c-0.51-2.3-1.73-4.39-3.1-6.31c-1.62-2.26-3.47-4.34-5.53-6.21C293.44,182.18,294,182.51,294.55,182.86z"/>
	</g>
	<g>
		<path class="st5" d="M205.87,215.02c-0.01,0.02-0.03,0.04-0.04,0.06c-0.14,0.27-0.02,0.6,0.12,0.87c0.7,1.39,1.72,2.59,2.85,3.66
			c1.11,1.06,2.34,2,3.68,2.74c2.87,1.57,6.22,2.14,9.48,1.99c2.83-0.13,5.6-0.79,8.36-1.45c2.41-0.57,4.83-1.15,7.24-1.72
			c-1.38-3-4.24-5.09-7.33-6.21c-3.02-1.1-6.28-1.36-9.5-1.49c-4.79-0.2-9.67-0.14-14.26,1.22
			C206.26,214.74,206.01,214.83,205.87,215.02z"/>
	</g>
	<g>
		<path class="st5" d="M275.18,221.29c-0.17-0.26-0.34-0.52-0.5-0.79c10.29-3.54,22.01-2.61,31.64,2.43
			c0.34,2.22-1.86,3.39-3.74,4.12c-3.37,1.29-6.84,2.51-10.45,2.72C285.53,230.13,278.86,226.77,275.18,221.29z"/>
	</g>
	<g>
		<path class="st6" d="M213.23,220.64c0.44,0.21,0.92,0.37,1.38,0.46c2.19,0.44,4.82-0.11,5.92-2.06c0.01-0.01,0.01-0.02,0.02-0.03
			c0.81-1.47-0.12-3.37-1.75-3.74c-0.98-0.22-1.98-0.34-2.98-0.35c-1.03-0.01-2.1,0.1-3.01,0.59c-0.91,0.49-1.63,1.43-1.63,2.46
			C211.18,219.19,212.1,220.1,213.23,220.64z"/>
	</g>
	<g>
		<path class="st4" d="M310.65,242c5.71,6.92,8.92,15.86,8.93,24.84c0,1.76-0.11,3.54,0.2,5.27c1.7-10.87-1.43-22.4-8.39-30.92"/>
	</g>
	<g>
		<path class="st4" d="M275.4,254.77c1.22,0.52,2.25,1.42,3.16,2.39c5.11,5.45,6.93,13.13,8.56,20.42
			c-4.53-6.51-7.18-14.15-11.47-20.82c-0.33-0.52-0.76-1.08-1.37-1.11"/>
	</g>
	<g>
		<path class="st4" d="M246.39,232.53c0.78,2.78-1.02,5.55-2.66,7.92c-4.74,6.84-8.9,14.09-12.4,21.64
			c-1.25,2.69-2.27,6.25-0.14,8.31c0.88,0.85,2.12,1.2,3.31,1.48c1.1,0.26,2.26,0.48,3.34,0.16c1.08-0.31,2.04-1.33,1.91-2.45
			c-0.13-1.11-1.21-1.83-2.18-2.4c-0.67-0.39-1.36-0.79-2.13-0.85c-0.77-0.06-1.63,0.33-1.85,1.07c-0.23,0.78,0.35,1.62,1.09,1.96
			c0.74,0.34,1.59,0.31,2.4,0.27c0.46-0.48,0.13-1.34-0.46-1.65c-0.59-0.31-1.29-0.23-1.95-0.14c0.03,0.89,0.41,1.76,1.05,2.37"/>
	</g>
	<g>
		<path class="st4" d="M268.97,268.83c-1.1-0.29-2.4,0.28-2.85,1.32c-0.45,1.05,0.08,2.44,1.16,2.82s2.43-0.43,2.5-1.57
			c0.08-1.14-1.27-2.13-2.31-1.66c-1.04,0.48-1.16,2.15-0.25,2.85c0.91,0.7,2.41,0.25,2.88-0.79s-0.08-2.39-1.1-2.91"/>
	</g>
	<g>
		<path class="st6" d="M286.48,225.84c0.44,0.21,0.92,0.37,1.38,0.46c2.19,0.44,4.82-0.11,5.92-2.06c0.01-0.01,0.01-0.02,0.02-0.03
			c0.81-1.47-0.12-3.37-1.75-3.74c-0.98-0.22-1.98-0.34-2.98-0.35c-1.03-0.01-2.1,0.1-3.01,0.59c-0.91,0.49-1.63,1.43-1.63,2.46
			C284.44,224.39,285.35,225.3,286.48,225.84z"/>
	</g>
</g>
<g id="hår">
	<g>
		<path class="st3" d="M297.63,314.07c-6.71-5.22-6.38-15.36-10.16-22.98c-3.53-7.11-11.17-11.99-19.11-12.21
			c-2.48-0.07-5.49-0.02-7.51-1.11c-1.2-0.65-2.62-0.65-3.94-0.28c-1.48,0.41-3.49,0.13-5.07-0.29
			c-20.02-5.37-43.21,7.16-49.46,26.99c-0.25,0.8-0.7,1.54-1.39,2.02c-2.52,1.73-4.74-1.14-5.81-3.53
			c-11.66-26.25-16.04-55.07-20.56-83.41c-3.1,22.96,1.64,45.91,6.35,68.46c2.74,13.12,5.48,26.24,8.22,39.35
			c2.15,10.3,4.44,20.92,10.52,29.51c5.12,7.24,12.54,12.46,18.83,18.71c6.71,6.67,12.18,14.58,16.04,23.22
			c0.53,1.18,0.93,2.43,1.11,3.71c1.17,8.48-7.26,10.78-12.08,15.69c-6.16,6.29-6.05,16.63-11.48,23.56
			c-4.65,5.94-13.17,9.16-13.69,17.4c-0.15,2.34,0.48,4.68,1.67,6.7c3.34,5.68,9.79,8.01,16,7.99c6.08-0.02,12.51-2.48,15.72-7.65
			c3.21-5.17,1.89-13.13-3.58-15.8c-2.44-1.19-5.48-1.34-6.41-4.95c-0.52-2.02-0.01-4.16,1.17-5.88c3.22-4.71,9.41-5.98,12.81-10.33
			c3.94-5.04,2.78-12.28,4.6-18.41c1.99-6.71,7.43-11.73,12.65-16.4c9.52-8.53,19.04-17.06,28.57-25.6
			c13.38-11.99,27.1-24.43,34.76-40.68c3.3-7.01,5.37-14.53,7.34-22.02c6.26-23.89,11.63-48.02,16.11-72.31
			c-4.74,14.63-9.47,29.26-14.21,43.89c-2.43,7.51-4.9,15.1-9.12,21.77c-4.22,6.66-10.46,12.4-18.1,14.36"/>
	</g>
	<g>
		<path class="st2" d="M217.22,310.02c1.16,4.69,4.95,8.44,8.66,11.66c2.32,2.01,5.28,4.1,8.21,3.18c1.82-0.57,3.11-2.18,4.05-3.83
			c0.95-1.65,1.69-3.46,2.96-4.87c0.69-0.77,1.53-1.42,2.08-2.3c0.28-0.44,0.49-0.95,0.91-1.26c0.47-0.35,1.1-0.37,1.68-0.39
			c1.29-0.03,2.57-0.05,3.86-0.08c1.66-0.03,3.37-0.06,4.94,0.49c3.53,1.25,5.48,5.19,5.69,8.92c0.06,1.1,0.02,2.27,0.59,3.21
			c1.43,2.36,5.15,1.42,7.54,2.79c0.46,0.26,0.89,0.62,1.41,0.7c0.49,0.08,0.98-0.11,1.44-0.3c5.09-2.13,8.82-4.81,12.16-8.6
			c1.95-2.21,3.11-5.04,3-7.99c-0.04-1.11-0.25-2.14-0.84-2.92c-0.56-0.73-1.21-1.4-1.66-2.21c-0.46-0.82-0.68-1.75-0.96-2.65
			c-1.81-5.69-6.67-10.32-12.45-11.84c-1.74-0.46-4.4-1.73-6.19-1.93c-4.88-0.53-8.15-0.61-13.76-0.46
			c-3.78,0.1-7.56-0.11-11.32-0.48c-1.44-0.14-3.21-0.15-4.58,0.07c-2.25,0.35-3.88,1.31-6.11,1.8c-1.64,0.36-3.24,0.21-4.85,0.72
			c-1.22,0.38-2.64,2.58-3.48,3.54c-1.97,2.26-2.55,5.13-2.98,7.96c-0.28,1.88-0.5,3.78-0.26,5.67
			C217.02,309.1,217.11,309.56,217.22,310.02z"/>
	</g>
	<g>
		<path class="st7" d="M231.94,298.82c3.07,4.08,5.34,8.16,10.09,9.8c1.85,0.64,3.8,0.9,5.75,1.09c2.91,0.29,5.84,0.45,8.74,0.15
			c4.85-0.49,9.48-2.23,14.05-3.96c3.76-1.42,7.61-2.9,10.44-5.84c-4.66-2.44-10.08-3.37-15.28-2.63c-2.82,0.4-5.56,1.27-8.39,1.67
			c-2.15,0.31-4.32,0.34-6.49,0.31c-7.26-0.1-13.12-3.74-20.21-5.27C231.13,294.83,231.43,298.14,231.94,298.82z"/>
	</g>
	<g>
		<path class="st8" d="M280.78,300.12c0.18,0.21,0.35,0.42,0.52,0.63c-3.8-1.34-7.67-2.7-11.7-2.92c-6.14-0.33-12.14,2-18.29,2.01
			c-2.72,0.01-5.42-0.44-8.14-0.4c-2.47,0.04-4.57-1.02-7.01-1.48c-2.65-0.51-5.72-1-5.53-3.82c0.69-1.41,0.4-3.29,1.99-3.5
			c5.65-0.74,6.92-0.03,12.44,0.08c2.01,0.04,9.95-0.37,11.96-0.34c2.33,0.04,4.68,0.09,6.98,0.43
			C270.47,291.78,276.54,295.16,280.78,300.12z"/>
	</g>
	<g>
		<path class="st3" d="M182.17,126.35c3.94-8.19,9-15.87,15.79-21.85c10.76-9.47,24.92-13.92,38.63-18.12
			c6.12-1.88,12.31-3.76,18.69-4.21c10.41-0.73,20.64,2.39,30.73,5.07c1.11,0.29,2.29,0.58,3.39,0.26c3.36-0.99,2.82-5.79,2.48-9.28
			c-0.79-8.24,4.46-16.69,12.19-19.64c5.23-2,11.04-1.61,16.61-0.99c11.66,1.29,24.56,4.25,30.97,14.07
			c2.4,3.67,3.62,8.5,1.75,12.47c-0.81,1.72-2.13,3.14-3.43,4.53c-5.17,5.57-10.65,12.48-9.08,19.92c0.76,3.6,3.1,6.63,5.25,9.61
			c8.4,11.62,15.07,24.81,17.12,39c2.05,14.19-0.93,29.47-10.01,40.57c-4.42,5.41-10.15,9.72-14.38,15.23
			c-0.26-14.31-1-28.62-2.22-42.89c-0.37-4.32-0.8-8.72-2.56-12.68c-3.62-8.15-12.12-12.96-20.46-16.12
			c-24.84-9.41-52.15-9.08-78.71-8.63c-12.06,0.21-24.88,0.64-34.9,7.37c-9.58,6.44-14.91,17.68-17.5,28.93
			c-2.59,11.25-2.88,22.9-4.83,34.29c-0.66,3.86-1.51,7.7-2.55,11.48c-3.87-8.5-5.23-17.95-5.55-27.28
			c-0.66-18.86,2.77-37.85,9.98-55.29C180.38,130.23,181.25,128.27,182.17,126.35z"/>
	</g>
	<g>
		<path class="st9" d="M351.93,236.7c-2.71,7.1-6.13,13.75-12.05,18.32c-0.97,0.75-2.38,1.42-3.33,0.65
			c-0.43-0.35-0.62-0.9-0.75-1.43c-0.99-3.92,0.12-8.08-0.35-12.09c-0.47-4.05-2.52-7.76-3.29-11.76
			c-1.36-7.07,1.35-14.21,4.1-20.88c6.81-5.41,13.62-10.83,20.44-16.24c0.42-0.34,0.9-0.69,1.44-0.67c0.75,0.03,1.26,0.74,1.61,1.4
			c2.39,4.52,2.51,9.94,1.52,14.96c-0.99,5.01-3,9.76-4.73,14.57C354.99,227.83,353.6,232.35,351.93,236.7z"/>
	</g>
	<g>
		<path class="st2" d="M351.94,241.75c-2.71,7.1-6.13,13.75-12.05,18.32c-0.97,0.75-2.38,1.42-3.33,0.65
			c-0.43-0.35-0.62-0.9-0.75-1.43c-0.99-3.92,0.12-8.08-0.35-12.09c-0.47-4.05-2.52-7.76-3.29-11.76
			c-1.36-7.07,1.35-14.21,4.1-20.88c6.81-5.41,13.62-10.83,20.44-16.24c0.42-0.34,0.9-0.69,1.44-0.67c0.75,0.03,1.26,0.74,1.61,1.4
			c2.39,4.52,2.51,9.94,1.52,14.96s-3,9.76-4.73,14.57C355,232.88,353.6,237.4,351.94,241.75z"/>
	</g>
	<g>
		<path class="st4" d="M342.28,223.09c-0.29,0.07,0.2,0.38,0.46,0.23c3.52-2.12,6.34-5.36,7.96-9.13c0.36,4.15,0.46,8.33,0.3,12.49
			c-0.05,1.24-0.12,2.49-0.39,3.71c-0.4,1.86-1.23,3.6-2.05,5.32c-0.4,0.84-0.8,1.67-1.2,2.51c-0.26,0.55-0.58,1.15-1.16,1.33
			c-0.58,0.18-1.33-0.47-0.99-0.97c-0.1,1.14-1.88,1.63-2.55,0.7c-0.11-0.16-0.2-0.35-0.2-0.54c-0.01-0.54,0.75-0.9,1.17-0.55
			c0.41,0.35,0.19,1.16-0.34,1.25"/>
	</g>
	<g>
		<path class="st9" d="M164.03,210.26c1.58,8.68,4.5,17.11,8.67,24.88c0.88,1.64,2.48,3.51,4.21,2.84c1.46-0.56,1.72-2.48,1.75-4.04
			c0.11-5.78,0.22-11.56,0.33-17.34c0.07-3.76-0.05-8-2.7-10.62c-5.28-9.28-8.55-19.68-9.53-30.31c-2.64,3.44-3.43,7.93-3.8,12.25
			C162.31,195.38,162.69,202.91,164.03,210.26z"/>
	</g>
	<g>
		<path class="st2" d="M164.11,214.57c2.31,8.51,5.93,16.67,10.75,24.06c1.02,1.56,2.76,3.29,4.44,2.48
			c1.41-0.68,1.51-2.61,1.4-4.17c-0.38-5.77-0.76-11.54-1.14-17.31c-0.25-3.75-0.73-7.97-3.59-10.35
			c-6.04-8.8-10.18-18.89-12.06-29.39c-2.34,3.65-2.74,8.19-2.75,12.53C161.14,199.88,162.15,207.35,164.11,214.57z"/>
	</g>
	<g>
		<path class="st4" d="M172.13,214.39c0.73,1.1,1.24,2.33,1.49,3.62c0.12,0.61,0.12,1.38-0.41,1.71c-0.78,0.47-1.62-0.49-1.97-1.32
			c-0.33-0.78-0.6-1.58-0.81-2.39c0.77,0.11,1.34,0.81,1.55,1.56s0.13,1.54,0.05,2.31c-1.11,0.15-2.07-0.73-2.76-1.6
			c-3.13-3.99-4.25-9.49-2.91-14.39"/>
	</g>
	<g>
		<path class="st10" d="M239.71,413.73c0,0-0.03,0.16,0.33-1.39c0.16-1.28,0.38-1.77,0.96-3.34c0.13-0.34,0.73-1.7,0.89-2.07
			c0.13-0.3-2.21-1.01-2.4-1.1c-0.7-0.3-2.06-0.8-3.11-1.21c-0.05-0.02-0.63-0.12-0.63-0.07c-0.26,2.29-1.06,3.46-1.44,4.18
			L239.71,413.73z"/>
	</g>
	<g>
		<path class="st10" d="M213.87,441.33c0.28,0.98,0.97,1.89,1.63,2.7c0.72,0.88,5.36,1.94,6.5,1.97c1.61,0.03-0.59-1.5,0-3
			c0.62-1.57,1.38-3.43,2-5c-2.08-1.28-5.81-2.92-8-4c-0.77,1.29-1.23,2.71-2,4c-0.31,0.51-0.88,1.42-1,2
			C212.9,440.48,213.74,440.88,213.87,441.33z"/>
	</g>
</g>
<g id="ram">
	<g>
		<path class="st11" d="M22,198.09V22.93c0,0,0-0.3,0-0.6l175.16,0"/>
		<path class="st11" d="M20.66,297.97v175.16c0,0,0,4.01,0,8.01c1.33,0,2.67,0,2.67,0l175.16,0"/>
		<circle class="st11" cx="21.93" cy="218.48" r="8.43"/>
		<circle class="st11" cx="22" cy="240.93" r="8.5"/>
		<circle class="st11" cx="21.93" cy="264.33" r="8.43"/>
		<circle class="st11" cx="21.93" cy="285.37" r="8.43"/>
		<path class="st11" d="M480.72,305.73l0,175.16c0,0,0,0.3,0,0.6l-175.16,0"/>
		<path class="st11" d="M480.72,205.5l0-175.16c0,0,0-4.01,0-8.01c-4.24,0-8.47,0-8.47,0l-175.16,0"/>
		<circle class="st11" cx="480.79" cy="285.34" r="8.43"/>
		<circle class="st11" cx="480.72" cy="262.89" r="8.5"/>
		<circle class="st11" cx="480.79" cy="239.49" r="8.43"/>
		<circle class="st11" cx="480.79" cy="218.45" r="8.43"/>
	</g>
	<g>
		<polyline class="st11" points="61.01,39.69 43.51,39.69 43.51,57.49 		"/>
		<polyline class="st11" points="115.4,39.69 132.89,39.69 132.89,57.49 		"/>
		<polyline class="st11" points="61.01,128.8 43.51,128.8 43.51,111 		"/>
		<polyline class="st11" points="115.4,128.8 132.89,128.8 132.89,111 		"/>
	</g>
	<g class="st12">
		<path class="st3" d="M102.6,58.43c-0.02,0.07-0.05,0.14-0.07,0.2c-0.35,1-1.18,2.06-2.23,1.9c-0.5-0.07-0.91-0.41-1.27-0.76
			c-1.73-1.66-2.91-3.8-4.52-5.58c-1.61-1.78-3.91-3.24-6.27-2.83c3.22,0.44,5.43,4.34,4.16,7.33c-2.05-2.89-4.28-5.94-7.59-7.2
			c-2.09-0.8-4.64-0.92-6.04-2.67c-1.03,1.56,0.13,3.63,1.48,4.92c1.35,1.29,3.04,2.54,3.25,4.39c-1.71-1.92-4.07-3.24-6.6-3.69
			c-2.08-0.37-4.49-0.29-5.9-1.86c-0.26,1.86,1.47,3.4,3.17,4.21s3.65,1.39,4.74,2.93c-3.6-2.12-8.75-0.99-11.13,2.45
			c1.79-1.2,4.4-0.97,5.96,0.51c-4.11,1.37-8.3,2.48-12.55,3.31c1.71,1.64,4.54,1.97,6.58,0.76c-2.84,3.51-4.98,7.58-6.26,11.9
			c1.03-1.83,2.47-3.4,3.97-4.87c-2.69,6.77-0.69,14.72,3.5,20.69c4.19,5.97,10.28,10.3,16.42,14.23c3.14,2.01,6.35,3.97,8.96,6.62
			c1.58,1.6,2.91,3.44,3.94,5.44c0.55,0.81,1.1,1.61,1.64,2.42c-0.19-2.08-1.28-3.96-2.39-5.74c-3.86-6.19-8.25-12.06-13.09-17.52
			c1.95,0.94,3.71,2.27,5.13,3.9c-1.25-2.44-2.49-4.88-3.71-7.34c-0.95-1.92-1.9-3.86-2.35-5.95c-1.16-5.38,1.12-10.93,4.16-15.52
			c0.17,2.94-2.02,5.42-2.99,8.2c-0.98,2.81-0.64,6.05,0.91,8.59c1.03-1.75,0.96-3.9,1.29-5.9c0.55-3.33,2.34-6.44,4.95-8.59
			c0.4,4.49,4.86,8.2,9.35,7.78c-1.07,0.22-2.13,0.45-3.2,0.67c3.09,1.57,5.54,4.35,6.7,7.62c0.68,0.14,1.37,0.27,2.05,0.41
			c0.05-1.23-0.16-2.48-0.61-3.63c1.29,0.87,0.99,3.13,2.32,3.92c1.25,0.74,2.79-0.44,3.57-1.67c0.78-1.23,1.53-2.75,2.96-3.03
			c-2.63-4.46-4.72-9.23-6.23-14.19c-0.34-1.11-0.59-2.45,0.19-3.3c-2.05-0.15-3.19-2.49-3.41-4.54c-0.09-0.86-0.11-1.78-0.58-2.51
			s-1.61-1.1-2.21-0.48c2.69-1.64,4.19-5.02,3.61-8.12c-1.24,2.25-2.83,4.32-4.7,6.09c0.1-1.25,1.15-2.17,1.92-3.17
			s1.23-2.58,0.27-3.4C103.12,56.44,102.91,57.49,102.6,58.43z"/>
	</g>
</g>
</svg>
