<?xml version="1.0" encoding="utf-8"?>
<!-- Generator: Adobe Illustrator 24.0.0, SVG Export Plug-In . SVG Version: 6.00 Build 0)  -->
<svg version="1.1" xmlns="http://www.w3.org/2000/svg" xmlns:xlink="http://www.w3.org/1999/xlink" x="0px" y="0px" width="500px"
	 height="500px" viewBox="0 0 500 500" style="enable-background:new 0 0 500 500;" xml:space="preserve">
<style type="text/css">
	.st0{fill:#3E383C;}
	.st1{opacity:0.46;}
	.st2{fill:#FFFFFF;}
	.st3{fill:#A17069;}
	.st4{fill:#5B2433;}
	.st5{fill:#692937;}
	.st6{fill:#6E2C3A;}
	.st7{fill:#EED0C5;}
	.st8{fill:#964F4D;}
	.st9{fill:#BA6E72;}
	.st10{fill:#9B595B;}
	.st11{fill:#80343E;}
	.st12{fill:#EDE4E5;}
	.st13{fill:#7D4A47;}
	.st14{fill:#280C0B;}
	.st15{fill:#AA7F6F;}
	.st16{fill:#471812;}
	.st17{fill:#E2C7BF;}
	.st18{fill:#2F2E33;}
	.st19{fill:#E5C6BD;}
	.st20{fill:#824E50;}
	.st21{fill:#62393F;}
	.st22{fill:#E5C9C1;}
	.st23{fill:none;stroke:#000000;stroke-width:2;stroke-miterlimit:10;}
	.st24{opacity:0.16;fill:#E8AF70;}
</style>
<g id="Lager_1">
	<rect x="-27.69" y="-24.32" class="st0" width="573" height="565"/>
</g>
<g id="skugga">
	<g class="st1">
		<g>
			<path d="M402.78,383.1c0.09,0.13,0.17,0.27,0.26,0.4c9.25,14.47,18.88,30.37,17.34,47.47c-1.76,19.54-17.75,35.41-20.35,54.86
				c-1.1,8.22,0.29,16.56,1.97,24.68c4.56,22.07,11.32,43.69,20.15,64.43c1.24,2.93,2.56,6.08,1.88,9.19
				c-1.12,5.14-6.92,7.59-12.03,8.87c-17.11,4.3-34.94,4.67-52.58,4.99c-78.33,1.45-156.66,2.62-235,3.52
				c-29.34,0.34-58.9,0.62-87.77-4.62c-0.17-0.03-0.35-0.06-0.53-0.1c-0.19-4.68-1.25-31.95-1.25-31.95
				c-0.8-20.51,3.05-41.19,11.17-60.04c1.56-3.62,3.31-7.38,3-11.31c-0.23-2.93-1.6-5.63-2.53-8.43
				c-3.4-10.25-0.36-22.34,7.47-29.76c-4.59,0.06-7.31-5.37-7.29-9.96c0.02-4.59,1.59-9.22,0.59-13.7
				c-0.93-4.15-4.02-8.28-2.43-12.23c1.68-4.18,7.24-4.85,10.83-7.57c5.09-3.85,5.53-11.13,6.67-17.41
				c1.53-8.42,5.06-16.34,8.9-23.99c12.23-24.35,27.97-46.94,46.56-66.86c2.08-2.23,4.31-4.5,7.2-5.49
				c8.28-2.85,16.89,5.99,25.43,4.08c9.62-2.15,11.24-14.95,16.81-23.08c6.45-9.43,18.7-12.57,29.87-15.01
				c14.7-3.21,29.63-6.43,44.65-5.46c15.01,0.97,30.39,6.71,39.71,18.52c3.74,4.73,6.36,10.23,9.67,15.28
				c10.91,16.63,28.66,27.46,46.53,36.2c5.25,2.56,10.61,5.03,15.23,8.6c9.21,7.11,14.91,18.16,24.52,24.74
				c5.23,3.58,11.44,5.69,16.29,9.78C397.45,374.87,400.16,379,402.78,383.1z"/>
		</g>
		<g>
			<path d="M369.18,493.71c0.27,0.27,0.54,0.54,0.81,0.81"/>
			<g>
				<path class="st2" d="M368.91,493.97c0.27,0.27,0.54,0.54,0.81,0.81c0.07,0.07,0.17,0.11,0.27,0.11c0.09,0,0.2-0.04,0.27-0.11
					c0.07-0.07,0.11-0.17,0.11-0.27c0-0.1-0.04-0.19-0.11-0.27c-0.27-0.27-0.54-0.54-0.81-0.81c-0.07-0.07-0.17-0.11-0.27-0.11
					c-0.09,0-0.2,0.04-0.27,0.11c-0.07,0.07-0.11,0.17-0.11,0.27C368.81,493.81,368.84,493.9,368.91,493.97L368.91,493.97z"/>
			</g>
		</g>
		<g>
			<path d="M106.11,317.89c-14.42,16.58-25.76,35.84-33.18,56.53c-5.09,14.21-8.74,29.71-19.24,40.54
				c-1.46,1.51-3.07,2.95-3.96,4.85c-0.93,1.98-0.97,4.24-1,6.42c-0.14,10.23,0.23,21.72,7.64,28.77c-4.84,6.05-8,13.44-9.04,21.12
				c-0.29,2.1-0.41,4.3,0.33,6.29c2.08,5.63,9.38,6.77,15.37,7.13c32.75,1.98,65.29,7.51,96.86,16.45
				c14.66,4.15,29.14,9.04,44.07,12.02c27.39,5.47,55.62,4.39,83.5,2.88c29.65-1.6,62.08-4.88,83.04-25.92l26.96-27.06
				c6.07-6.09,10.02-13.96,11.33-22.45c0.1-0.66,0.2-1.32,0.3-1.98c2.99-20.33,3.79-42.51-7.14-59.91
				c-4.6-7.33-11.02-13.32-17.35-19.22c-6.36-5.92-12.72-11.84-19.08-17.77c-4.58-4.26-9.17-8.54-14.32-12.09
				c-5.86-4.03-12.33-7.06-18.51-10.58c-24.19-13.83-43.92-35.51-70.08-45.1c-11.42-4.18-23.61-5.87-35.73-6.78
				c-11.02-0.83-22.09-0.98-33.12-0.4c-7.05,0.37-14.32,1.26-20.21,5.11c-11.01,7.19-16.71,24.06-29.86,24.03
				c-5.39-0.01-10.66-3.2-15.91-1.98c-3.1,0.72-5.64,2.88-7.98,5.03C114.98,308.25,110.41,312.95,106.11,317.89z"/>
		</g>
		<g>
			<path d="M63.07,490.15c-7.34,13.01-12.44,27.28-14.98,42"/>
		</g>
		<g>
			<path d="M69.99,490.45c-7.08,13.02-11.79,27.32-13.84,42"/>
		</g>
		<g>
			<path d="M76.21,491.02c-6.5,16.64-12.44,33.49-17.81,50.53"/>
		</g>
		<g>
			<path d="M84.12,491.86c-7.77,18.59-14.53,37.6-20.25,56.91"/>
		</g>
		<g>
			<path d="M90.22,492.35c-9.24,21.08-17.96,42.4-26.13,63.93"/>
		</g>
		<g>
			<path d="M95.1,492.86c-8.04,20.97-16.09,41.94-24.13,62.91"/>
		</g>
		<g>
			<path d="M99.69,493.54c-9.7,23.41-18.46,47.21-26.24,71.33"/>
		</g>
		<g>
			<path d="M104.54,494.32c-7.83,22.41-16.07,44.68-24.7,66.79"/>
		</g>
		<g>
			<path d="M107.72,494.68c-6.85,23.51-14.59,46.76-23.18,69.68"/>
		</g>
		<g>
			<path d="M112.32,495.45c-10.86,25.3-15.02,52.96-24.38,78.85"/>
		</g>
		<g>
			<path d="M115.73,496.15c-7.13,24.9-14.84,49.62-23.14,74.16"/>
		</g>
		<g>
			<path d="M119.18,497.19c-4.69,21.2-11.32,41.97-19.78,61.97"/>
		</g>
		<g>
			<path d="M123.89,497.64c-3.9,24.9-11.23,49.27-21.73,72.18"/>
		</g>
		<g>
			<path d="M128.05,499.01c0.04,20.35-3.14,40.71-9.39,60.07"/>
		</g>
		<g>
			<path d="M132.81,499.75c0.71,21.47-1.52,43.04-6.61,63.92"/>
		</g>
		<g>
			<path d="M138.46,501c0.64,22-0.84,44.07-4.41,65.79"/>
		</g>
		<g>
			<path d="M143.24,501.89c0.87,20.5,0.3,41.06-1.69,61.47"/>
		</g>
		<g>
			<path d="M149.41,503.38c0.09,23.4-0.93,46.81-3.08,70.11"/>
		</g>
		<g>
			<path d="M153.62,504.77c0.71,26.73,0.16,53.49-1.66,80.17"/>
		</g>
		<g>
			<path d="M160.77,506.66c-0.27,26.89-1.7,52.22-4.45,78.96"/>
		</g>
		<g>
			<path d="M165.98,507.86c-0.45,24.28-2.11,48.42-4.98,72.53"/>
		</g>
		<g>
			<path d="M171.43,509.8c0.41,24.45,0.16,48.91-0.76,73.35"/>
		</g>
		<g>
			<path d="M177.17,511.64c2.57,22.35,1.93,45.07-1.89,67.24"/>
		</g>
		<g>
			<path d="M184.88,513.39c-0.03,5.95-0.06,11.91-0.09,17.86c-0.09,17.69-0.19,35.49-3.24,52.91"/>
		</g>
		<g>
			<path d="M191.18,515.03c-0.32,20.32-2.02,43.29-4.69,63.43"/>
		</g>
		<g>
			<path d="M195.58,516.95c1.53,17.75,1.01,35.67-1.53,53.3"/>
		</g>
		<g>
			<path d="M203.12,518.45c0.96,17.21-0.44,34.54-4.14,51.37"/>
		</g>
		<g>
			<path d="M209.25,519.87c-1.74,19.52-6.17,38.8-13.13,57.12"/>
		</g>
		<g>
			<path d="M216.34,520.88c-3.77,14.35-1.64,29.92-6.6,43.91"/>
		</g>
		<g>
			<path d="M255.35,358.77c1.95,1.85,3.89,3.7,5.83,5.55c4.28-8.85,7.39-18.27,9.2-27.94c0.84-4.46,3.21-6.04,4.9-10.25
				c2.95-7.32,7.23-15.96,10.64-23.09c2.93-6.12,3.74-13.02,4.33-19.78c1.53-17.58,1.84-35.26,0.92-52.87
				c-0.54-10.34-1.69-21.18-7.6-29.68c-5.5-7.9-14.47-12.72-23.64-15.64c-6.3-2.01-13.26-3.22-19.4-0.5
				c-8.54,0.4-17.3,1.77-24.44,6.44c-4.85,3.17-8.67,7.7-11.8,12.58c-9.75,15.2-13.06,33.84-12.25,51.88s5.47,35.66,10.63,52.96
				c0.84,2.81,1.7,5.65,3.15,8.2c3.46,6.1,9.8,9.88,15.61,13.8C233.66,338.67,244.63,348.61,255.35,358.77z"/>
		</g>
		<g>
			<path d="M235.18,303.85c-0.38-0.32-0.74-0.67-1.08-1.05c5.74-0.2,11.47-0.4,17.21-0.6c5.39-0.19,10.79-0.37,16.13-1.08
				c-3.22,4.02-8.1,6.65-13.22,7.15c-2.19,0.21-4.39,0.05-6.57-0.19C243.22,307.61,238.51,306.69,235.18,303.85z"/>
		</g>
		<g>
			<path d="M235.21,303.46c-0.38-0.32-0.74-0.67-1.08-1.05c5.74-0.2,11.47-0.4,17.21-0.6c5.39-0.19,10.79-0.37,16.13-1.08
				c-3.22,4.02-8.1,6.65-13.22,7.15c-2.19,0.21-4.39,0.05-6.57-0.19C243.25,307.22,238.54,306.3,235.21,303.46z"/>
		</g>
		<g>
			<path d="M266.89,300.65c-3.33-2.12-7.42-4.74-11.17-3.6c-1.61,0.49-3.1,1.46-4.78,1.5c-1.43,0.03-2.79-0.63-4.22-0.73
				c-1.77-0.12-3.46,0.62-5.08,1.34c-2.59,1.16-5.35,2.72-7.98,3.96c7.42-3,15.9-1.6,23.89-2.59c1.61-0.2,3.22-0.5,4.84-0.48
				c1.79,0.03,3.72,1.9,5.49,1.6C267.58,301.44,267.2,300.86,266.89,300.65z"/>
		</g>
		<g>
			<path d="M266.91,300.71c-3.33-2.12-7.35-3.67-11.1-2.53c-1.61,0.49-3.1,1.46-4.78,1.5c-1.43,0.03-2.79-0.63-4.22-0.73
				c-1.77-0.12-3.46,0.62-5.08,1.34c-2.59,1.16-6.22,2.12-8.85,3.36c7.42-3,16.77-1,24.76-1.99c1.61-0.2,3.22-0.5,4.84-0.48
				c1.79,0.03,3.58,0.45,5.36,0.15C267.54,301.13,267.23,300.92,266.91,300.71z"/>
		</g>
		<g>
			<path d="M212.03,251.97c-0.09-1.47,0.38-2.99,1.35-4.1c1.63-1.86,4.24-2.43,6.66-2.9c0.97-0.19,1.97-0.38,2.95-0.25
				c0.8,0.1,1.56,0.41,2.31,0.71c2.21,0.91,4.54,1.99,6.03,3.8c0.1,2-0.96,3.87-2.44,5.17c-1.29,1.14-2.89,1.88-4.52,2.44
				c-2.1,0.72-4.36,1.17-6.55,0.8c-2.19-0.37-4.32-1.65-5.28-3.65C212.24,253.36,212.07,252.67,212.03,251.97z"/>
		</g>
		<g>
			<path d="M258.21,248.85c1.01-1.43,2.16-0.85,3.16-2.17c1.66-2.21,3.8-4.11,6.28-4.67c0.99-0.22,1.04-0.15,2.04,0
				c0.82,0.12,3.32-0.37,4.09,0c2.26,1.08,4.76,2.85,6.28,5c0.11,2.38-1.33,5.88-2.84,7.43c-1.32,1.35-2.95,2.23-4.62,2.9
				c-2.15,0.86-4.45,1.39-6.69,0.95c-2.24-0.43-3.81-3.36-5.83-4.58C258.02,252.46,257.74,249.52,258.21,248.85z"/>
		</g>
		<g>
			<path d="M210.29,254.62c0.91,1.49,2.03,2.86,3.41,3.93c2.93,2.28,6.99,3.01,10.53,1.91c6.01-1.87,10.25-8.97,6.87-15.47
				c1.96,8.44-4.14,11.58-9.78,12.44c-0.87,0.13-1.76,0.23-2.63,0.13c-3.17-0.34-5.53-2.96-7.7-5.3c-0.22-0.23-0.47-0.48-0.78-0.49
				c-0.42-0.02-0.75,0.42-0.77,0.84c-0.02,0.42,0.18,0.82,0.38,1.19C209.96,254.07,210.12,254.35,210.29,254.62z"/>
		</g>
		<g>
			<path d="M207.21,256.81c0.02,0.5,0.07,1.01,0.15,1.5c0.31-0.94,0.62-1.88,0.93-2.82c0.51-1.53,1.02-3.07,1.88-4.42
				c1.9-2.97,5.39-4.72,8.9-5.02c7.03-0.61,14.13,4,18.14,8.06c-2.09-9.68-13.31-13.97-21.54-10.39c-4.25,1.85-7.57,5.87-8.32,10.45
				C207.22,255.04,207.17,255.93,207.21,256.81z"/>
		</g>
		<g>
			<path d="M258.09,247.04c0.63-1.29,1.69-2.44,3.07-3.3c0.83-0.51,1.76-0.92,2.7-1.31c1-0.41,2.03-0.8,3.13-1.04
				c2.9-0.66,6.21-0.3,9.01,0.81c2.8,1.11,5.08,5.45,6.61,7.55c-2.84-3.5-10.75-6.36-15.74-5.31c-3.24,0.68-5.87,2.41-7.88,4.41
				c-0.38,0.38-0.93,0.82-1.55,0.64C257.49,248.64,257.71,247.82,258.09,247.04z"/>
		</g>
		<g>
			<path d="M258.47,253.78c-0.2-0.28-0.36-0.59-0.42-0.93c-0.12-0.59-1.28-3.4-0.73-3.63c1.97,1.31,5.39,4.76,7.68,5.32
				c3.53,0.88,7.68,0.82,10.72-1.19c2.45-1.62,4.8-4.36,5.04-6.34c1.39,5.2-5.68,11.08-9.99,11.57s-8.87-1.03-11.81-4.22
				C258.78,254.18,258.62,253.99,258.47,253.78z"/>
		</g>
		<g>
			<path d="M271.15,252.64c-0.46,0.25-0.96,0.44-1.46,0.57c-0.89,0.24-1.84,0.35-2.72,0.09c-1.33-0.39-2.35-1.67-2.43-3.05
				c-0.08-1.18,0.53-2.37,1.5-3.04c1.21-0.55,0.82-0.27,1.21-0.55c1.33-0.94,3.3-0.21,4.56,0.83c0.53,0.44,1.01,0.99,1.19,1.65
				c0.26,0.94-0.11,1.97-0.78,2.68C271.9,252.16,271.54,252.42,271.15,252.64z"/>
		</g>
		<g>
			<path d="M218.78,255.22c-0.42-0.14-0.81-0.34-1.17-0.61c-1.4-1.05-1.86-3.16-1.04-4.71c0.5-0.94,1.38-1.63,2.31-2.15
				c0.03-0.01,0.05-0.03,0.08-0.04c1.94-1.08,4.48-0.55,5.72,1.3c0.12,0.18,0.23,0.37,0.33,0.56c0.54,1.04,0.74,2.32,0.3,3.41
				c-0.68,1.7-2.67,2.51-4.5,2.54C220.12,255.52,219.42,255.44,218.78,255.22z"/>
		</g>
		<g>
			<path d="M238.3,273.44c-0.91,2-2.21,3.86-2.54,6.03c-0.33,2.17,0.3,4.63,2.11,5.87c2.44,1.69,5.75,0.57,8.71,0.77
				c2.21,0.15,4.56,1.05,6.55,0.07c1.6-0.79,2.69-2.71,4.48-2.77c0.85-0.03,1.66,0.39,2.51,0.36c1.18-0.05,2.18-0.99,2.58-2.1
				s0.32-2.33,0.09-3.48c-0.68-3.39-2.49-6.42-4.05-9.5c-2.23-4.39-3.99-9.02-5.25-13.78c0,0-1.59-14.25,6.41-17.25
				C259.89,237.65,254.72,237.23,238.3,273.44z"/>
		</g>
		<g>
			<path d="M247.99,284.36c0.09,0.09,0.18,0.18,0.26,0.27c0.28,0.32,0.52,0.82,0.25,1.16c-0.27,0.34-0.79,0.23-1.21,0.11
				c-1.17-0.34-2.4-0.49-3.62-0.45c-0.18,0.01-0.36,0.02-0.54,0.01c-2.75,0.45-2.58-1.62-1.58-2.31c0.6-0.41,1.39-0.44,2.12-0.4
				C245.24,282.86,246.87,283.29,247.99,284.36z"/>
		</g>
		<g>
			<path d="M259.44,281.41c0.05,0.08,0.1,0.17,0.13,0.26c0.15,0.38,0.1,0.86-0.21,1.12c-0.19,0.16-0.43,0.21-0.67,0.27
				c-0.57,0.13-1.15,0.25-1.72,0.38c-0.83,0.18-2.12,0.08-1.55-1.26c0.74-0.73,1.12-1.99,2.14-2.02c0.47-0.02,0.9,0.27,1.26,0.58
				C259.04,280.94,259.27,281.15,259.44,281.41z"/>
		</g>
		<g>
			<path d="M203.59,313.43c9.8,9.74,21.74,17.92,35.32,20.44c13.57,2.51,28.89-1.57,37.33-12.51c-2.89,15.3-7.24,30.33-12.95,44.82
				c-0.18,0.47-0.42,0.98-0.88,1.17c-0.74,0.3-1.48-0.4-1.99-1.01c-13.68-16.71-32.53-28.2-48.95-42.22
				c-3.55-3.03-7.12-6.39-8.58-10.82"/>
		</g>
		<g>
			<path d="M144.64,309.82c6.73,5.5,13.47,11,20.2,16.49c10.15,8.29,20.3,16.58,30.46,24.87c5.64,4.6,11.28,9.21,17.05,13.64
				c15.89,12.19,32.81,23.03,50.52,32.38"/>
		</g>
		<g>
			<path d="M252.98,448.69c27.08,12.06,55.74,20.55,85.02,25.2c-20.6-5.05-40.54-12.76-59.18-22.88
				c-29.27-15.9-56.18-38.04-88.82-44.69"/>
		</g>
		<g>
			<path d="M366.36,401.79c5.63,0.51,9.49-5.65,10.73-11.16c0.77-3.4,1.02-7.2-0.84-10.14c-1.86-2.94-6.54-4.19-8.89-1.62
				c-2.95,3.24,0.09,8.59-1.26,12.76c-0.89,2.75-3.63,4.56-6.45,5.23c-2.81,0.68-5.75,0.44-8.64,0.37
				c-22.01-0.49-44.17,9.32-65.56,4.07c3.3-1.43,6.62-2.87,10.1-3.79c4.54-1.2,9.27-1.48,13.95-1.76c9.95-0.59,19.9-1.18,29.85-1.77
				"/>
		</g>
		<g>
			<path d="M50.01,428.96c20.58-3.34,42.52,3.04,58.11,16.88c2.32,2.06,4.57,4.31,7.41,5.55c3.66,1.59,7.82,1.28,11.79,1.68
				c5.51,0.55,10.78,2.47,15.91,4.56c13.52,5.52,26.93,12.41,41.51,13.28c-13.12-6.49-26.24-12.97-39.36-19.46
				c-3.26-1.61-6.54-3.23-10.04-4.22c-3.62-1.02-7.4-1.35-11.05-2.26c-7.52-1.88-14.18-6.13-21-9.81
				c-13.74-7.4-28.66-12.6-44.03-15.36c-2.85-0.51-5.99-0.88-8.44,0.65c-2.45,1.54-3.17,5.79-0.61,7.14"/>
		</g>
		<circle cx="220.75" cy="250.97" r="1.88"/>
		<circle cx="268.49" cy="249.84" r="1.24"/>
		<g>
			<path d="M269.88,274.8c-1.09,5.25-1.11,10.72-0.05,15.97c0.28,1.38,0.64,2.78,1.42,3.95c0.78,1.17,2.05,2.09,3.46,2.12
				c2.24,0.05,3.88-2,5.15-3.84c2.15-3.12,4.3-6.25,6.46-9.37c0.88-1.28,1.79-2.58,3.02-3.52"/>
		</g>
		<g>
			<path d="M222.21,274.48c1,3.49,1.63,7.09,1.89,10.72c0.27,3.84,0.04,8.06-4.41,10.25c-1.44,0.71-3.05,1.02-4.66,0.94
				c-4.26-0.21-7.87-2.7-10.98-5.47c-1.48-1.32-2.91-2.75-3.89-4.48"/>
		</g>
		<g>
			<path d="M235.14,238.64c-0.65-0.38-1.07-1.05-1.49-1.68c-0.79-1.16-1.7-2.24-2.7-3.23"/>
			<g>
				<path class="st3" d="M235.21,238.51c-0.89-0.54-1.38-1.58-1.99-2.39c-0.66-0.88-1.39-1.72-2.17-2.49
					c-0.14-0.14-0.35,0.08-0.21,0.21c0.83,0.82,1.6,1.7,2.29,2.65c0.58,0.8,1.07,1.75,1.93,2.28
					C235.23,238.87,235.38,238.61,235.21,238.51L235.21,238.51z"/>
			</g>
		</g>
		<g>
			<path d="M283.93,230.73c1.16,1.08,2.25,2.25,3.25,3.49"/>
			<g>
				<path class="st3" d="M283.83,230.84c1.16,1.09,2.25,2.25,3.25,3.49c0.12,0.15,0.33-0.06,0.21-0.21c-1-1.23-2.09-2.4-3.25-3.49
					C283.9,230.49,283.68,230.71,283.83,230.84L283.83,230.84z"/>
			</g>
		</g>
		<g>
			<path d="M234.78,238.89c-1.29-1.32-2.63-2.59-4.02-3.8"/>
			<g>
				<path class="st3" d="M234.88,238.79c-1.29-1.32-2.63-2.59-4.02-3.8c-0.14-0.13-0.36,0.08-0.21,0.21
					c1.39,1.21,2.73,2.48,4.02,3.8C234.81,239.14,235.02,238.93,234.88,238.79L234.88,238.79z"/>
			</g>
		</g>
		<g>
			<path d="M234.4,238.73c-1.54-1.39-3.09-2.79-4.63-4.18"/>
			<g>
				<path class="st3" d="M234.51,238.63c-1.54-1.39-3.09-2.79-4.63-4.18c-0.14-0.13-0.36,0.08-0.21,0.21
					c1.54,1.39,3.09,2.79,4.63,4.18C234.44,238.97,234.65,238.76,234.51,238.63L234.51,238.63z"/>
			</g>
		</g>
		<g>
			<path d="M233.85,239.12c-1.75-1.34-3.49-2.7-5.21-4.08"/>
			<g>
				<path class="st3" d="M233.92,239c-1.74-1.33-3.47-2.68-5.18-4.05c-0.15-0.12-0.36,0.09-0.21,0.21c1.73,1.39,3.48,2.76,5.24,4.1
					C233.92,239.37,234.07,239.11,233.92,239L233.92,239z"/>
			</g>
		</g>
		<g>
			<path d="M232.46,238.42c-1.71-1.12-3.48-2.13-5.31-3.04"/>
			<g>
				<path class="st3" d="M232.54,238.29c-1.71-1.11-3.48-2.13-5.31-3.04c-0.17-0.09-0.32,0.17-0.15,0.26
					c1.83,0.91,3.6,1.92,5.31,3.04C232.55,238.66,232.7,238.4,232.54,238.29L232.54,238.29z"/>
			</g>
		</g>
		<g>
			<path d="M231.53,238.13c-1.99-0.89-3.9-1.93-5.72-3.13"/>
			<g>
				<path class="st3" d="M231.61,238c-1.99-0.89-3.9-1.94-5.72-3.13c-0.16-0.11-0.31,0.15-0.15,0.26c1.82,1.19,3.73,2.24,5.72,3.13
					C231.63,238.34,231.78,238.08,231.61,238L231.61,238z"/>
			</g>
		</g>
		<g>
			<path d="M231.17,238.41c-2.4-1.04-4.73-2.24-6.97-3.6"/>
			<g>
				<path class="st3" d="M231.24,238.28c-2.4-1.04-4.73-2.24-6.97-3.6c-0.17-0.1-0.32,0.16-0.15,0.26c2.24,1.35,4.57,2.55,6.97,3.6
					C231.27,238.62,231.42,238.36,231.24,238.28L231.24,238.28z"/>
			</g>
		</g>
		<g>
			<path d="M226.36,236.5c-2.32-0.85-4.7-1.52-7.12-2"/>
			<g>
				<path class="st3" d="M226.4,236.35c-2.32-0.85-4.7-1.52-7.12-2c-0.19-0.04-0.27,0.25-0.08,0.29c2.42,0.48,4.8,1.15,7.12,2
					C226.5,236.71,226.58,236.42,226.4,236.35L226.4,236.35z"/>
			</g>
		</g>
		<g>
			<path d="M227.06,237.28c-2.21-0.73-4.43-1.46-6.64-2.19"/>
			<g>
				<path class="st3" d="M227.1,237.14c-2.21-0.73-4.43-1.46-6.64-2.19c-0.18-0.06-0.26,0.23-0.08,0.29
					c2.21,0.73,4.43,1.46,6.64,2.19C227.2,237.49,227.28,237.2,227.1,237.14L227.1,237.14z"/>
			</g>
		</g>
		<g>
			<path d="M225.82,235.71c-1.79-0.8-3.66-1.41-5.58-1.82c-0.48-0.1-0.98-0.19-1.45-0.08"/>
			<g>
				<path class="st3" d="M225.89,235.58c-1.14-0.51-2.32-0.95-3.52-1.31c-0.61-0.18-1.22-0.34-1.83-0.47
					c-0.59-0.13-1.18-0.25-1.79-0.13c-0.19,0.04-0.11,0.33,0.08,0.29c0.63-0.12,1.27,0.05,1.88,0.19c0.57,0.13,1.14,0.28,1.7,0.45
					c1.13,0.34,2.24,0.76,3.33,1.24C225.91,235.92,226.07,235.66,225.89,235.58L225.89,235.58z"/>
			</g>
		</g>
		<g>
			<path d="M221.42,236.13c-1.88-0.53-3.82-0.87-5.77-1.01"/>
			<g>
				<path class="st3" d="M221.46,235.99c-1.9-0.53-3.84-0.87-5.81-1.01c-0.19-0.01-0.19,0.29,0,0.3c1.94,0.14,3.86,0.48,5.73,1
					C221.56,236.33,221.64,236.04,221.46,235.99L221.46,235.99z"/>
			</g>
		</g>
		<g>
			<path d="M222.21,235.5c-2.4-0.2-4.8-0.49-7.19-0.86"/>
			<g>
				<path class="st3" d="M222.21,235.35c-2.39-0.2-4.77-0.49-7.15-0.86c-0.19-0.03-0.27,0.26-0.08,0.29
					c2.4,0.37,4.81,0.66,7.23,0.87C222.4,235.67,222.4,235.37,222.21,235.35L222.21,235.35z"/>
			</g>
		</g>
		<g>
			<path d="M220.33,234.14c-2,0.18-4.02,0.22-6.02,0.13"/>
			<g>
				<path class="st3" d="M220.33,233.99c-2,0.17-4.02,0.22-6.02,0.13c-0.19-0.01-0.19,0.29,0,0.3c2.01,0.09,4.02,0.04,6.02-0.13
					C220.52,234.28,220.52,233.98,220.33,233.99L220.33,233.99z"/>
			</g>
		</g>
		<g>
			<path d="M217.81,235.96c-2.47-0.45-5.03-0.39-7.48,0.17"/>
			<g>
				<path class="st3" d="M217.85,235.82c-2.51-0.44-5.07-0.39-7.56,0.17c-0.19,0.04-0.11,0.33,0.08,0.29
					c2.43-0.54,4.95-0.6,7.4-0.17C217.96,236.14,218.04,235.85,217.85,235.82L217.85,235.82z"/>
			</g>
		</g>
		<g>
			<path d="M215.38,235.13c-1.82,0.22-3.65,0.39-5.49,0.51"/>
			<g>
				<path class="st3" d="M215.38,234.98c-1.82,0.22-3.65,0.39-5.49,0.51c-0.19,0.01-0.19,0.31,0,0.3c1.83-0.12,3.66-0.29,5.49-0.51
					C215.57,235.26,215.57,234.96,215.38,234.98L215.38,234.98z"/>
			</g>
		</g>
		<g>
			<path d="M209.15,235.74c-1.34,0.51-2.57,1.3-3.6,2.3"/>
			<g>
				<path class="st3" d="M209.11,235.6c-1.36,0.53-2.61,1.32-3.66,2.34c-0.14,0.13,0.07,0.35,0.21,0.21
					c1.01-0.98,2.21-1.75,3.53-2.26C209.36,235.82,209.29,235.53,209.11,235.6L209.11,235.6z"/>
			</g>
		</g>
		<g>
			<path d="M208,236.7c-1.49,0.89-2.96,1.83-4.39,2.81"/>
			<g>
				<path class="st3" d="M207.92,236.57c-1.49,0.89-2.96,1.83-4.39,2.81c-0.16,0.11-0.01,0.37,0.15,0.26
					c1.43-0.99,2.89-1.93,4.39-2.81C208.24,236.73,208.09,236.47,207.92,236.57L207.92,236.57z"/>
			</g>
		</g>
		<g>
			<path d="M205.59,238.18c-1.66,0.59-3.06,1.88-3.78,3.48"/>
			<g>
				<path class="st3" d="M205.55,238.04c-1.7,0.61-3.12,1.91-3.87,3.55c-0.08,0.17,0.18,0.33,0.26,0.15
					c0.72-1.57,2.06-2.82,3.69-3.41C205.81,238.26,205.73,237.97,205.55,238.04L205.55,238.04z"/>
			</g>
		</g>
		<g>
			<path d="M204.41,237.51c-0.63,0.11-1.08,0.67-1.42,1.22c-0.51,0.83-0.91,1.73-1.18,2.67"/>
			<g>
				<path class="st3" d="M204.37,237.36c-0.78,0.16-1.26,0.86-1.63,1.5c-0.46,0.78-0.82,1.62-1.07,2.49
					c-0.05,0.19,0.23,0.26,0.29,0.08c0.24-0.8,0.56-1.57,0.97-2.3c0.35-0.61,0.78-1.33,1.53-1.48
					C204.64,237.61,204.56,237.32,204.37,237.36L204.37,237.36z"/>
			</g>
		</g>
		<g>
			<path d="M211.24,235.83c-1.48-0.18-3.03,0.33-4.12,1.35"/>
			<g>
				<path class="st3" d="M211.24,235.68c-1.53-0.17-3.1,0.35-4.23,1.39c-0.14,0.13,0.07,0.34,0.21,0.21
					c1.08-0.99,2.56-1.47,4.02-1.3C211.43,236.01,211.43,235.71,211.24,235.68L211.24,235.68z"/>
			</g>
		</g>
		<g>
			<path d="M211.43,234.52c-2.5,0.57-4.6,2.2-6.61,3.79"/>
			<g>
				<path class="st3" d="M211.39,234.38c-2.56,0.6-4.66,2.23-6.68,3.83c-0.15,0.12,0.06,0.33,0.21,0.21
					c1.98-1.56,4.04-3.16,6.55-3.75C211.65,234.62,211.57,234.33,211.39,234.38L211.39,234.38z"/>
			</g>
		</g>
		<g>
			<path d="M206.56,236.52c-1.4,0.38-2.67,1.25-3.52,2.43"/>
			<g>
				<path class="st3" d="M206.53,236.37c-1.45,0.4-2.72,1.29-3.61,2.5c-0.11,0.16,0.15,0.31,0.26,0.15
					c0.84-1.15,2.07-1.98,3.43-2.36C206.79,236.61,206.71,236.32,206.53,236.37L206.53,236.37z"/>
			</g>
		</g>
		<g>
			<path d="M216.64,234.48c-1.79,0.47-3.63,0.77-5.48,0.89"/>
			<g>
				<path class="st3" d="M216.6,234.33c-1.78,0.47-3.6,0.76-5.44,0.88c-0.19,0.01-0.19,0.31,0,0.3c1.86-0.12,3.71-0.42,5.52-0.89
					C216.87,234.57,216.79,234.28,216.6,234.33L216.6,234.33z"/>
			</g>
		</g>
		<g>
			<path d="M215.85,234.85c-1.55,0.44-3.23-0.32-4.79,0.08"/>
			<g>
				<path class="st3" d="M215.81,234.7c-1.58,0.42-3.2-0.3-4.79,0.08c-0.19,0.04-0.11,0.33,0.08,0.29c1.59-0.38,3.21,0.35,4.79-0.08
					C216.08,234.94,216,234.65,215.81,234.7L215.81,234.7z"/>
			</g>
		</g>
		<g>
			<path d="M217.71,234.06c-0.95-0.1-1.9-0.19-2.84-0.29c-1.08-0.11-2.28-0.19-3.16,0.45"/>
			<g>
				<path class="st3" d="M217.71,233.91c-1.15-0.12-2.3-0.27-3.46-0.35c-0.9-0.06-1.86-0.01-2.62,0.53
					c-0.16,0.11-0.01,0.37,0.15,0.26c0.78-0.55,1.74-0.55,2.66-0.47c1.09,0.09,2.18,0.22,3.27,0.33
					C217.91,234.23,217.91,233.93,217.71,233.91L217.71,233.91z"/>
			</g>
		</g>
		<g>
			<path d="M218.98,234.63c-1.72,0.03-3.43-0.12-5.12-0.46"/>
			<g>
				<path class="st3" d="M218.98,234.48c-1.7,0.03-3.41-0.12-5.08-0.45c-0.19-0.04-0.27,0.25-0.08,0.29
					c1.7,0.33,3.43,0.49,5.16,0.46C219.17,234.77,219.17,234.47,218.98,234.48L218.98,234.48z"/>
			</g>
		</g>
		<g>
			<path d="M226.94,235.59c-0.51-0.35-1.02-0.71-1.6-0.92c-0.52-0.19-1.07-0.26-1.62-0.35c-1.61-0.26-3.2-0.66-4.74-1.22"/>
			<g>
				<path class="st3" d="M227.02,235.46c-0.56-0.38-1.12-0.77-1.77-0.98c-0.65-0.21-1.33-0.27-2-0.39
					c-1.44-0.26-2.85-0.64-4.23-1.13c-0.18-0.07-0.26,0.22-0.08,0.29c1.33,0.47,2.69,0.85,4.08,1.1c0.65,0.12,1.31,0.18,1.95,0.36
					c0.7,0.2,1.3,0.6,1.89,1.01C227.03,235.83,227.18,235.57,227.02,235.46L227.02,235.46z"/>
			</g>
		</g>
		<g>
			<path d="M226.7,235.84c-2.06-0.84-4.2-1.52-6.37-2.02"/>
			<g>
				<path class="st3" d="M226.74,235.7c-2.07-0.84-4.2-1.51-6.37-2.02c-0.19-0.04-0.27,0.25-0.08,0.29c2.17,0.51,4.3,1.18,6.37,2.02
					C226.84,236.06,226.91,235.77,226.74,235.7L226.74,235.7z"/>
			</g>
		</g>
		<g>
			<path d="M225.97,236.79c-2.3-0.56-4.59-1.11-6.89-1.67"/>
			<g>
				<path class="st3" d="M226.01,236.65c-2.3-0.56-4.59-1.11-6.89-1.67c-0.19-0.05-0.27,0.24-0.08,0.29
					c2.3,0.56,4.59,1.11,6.89,1.67C226.12,236.98,226.2,236.69,226.01,236.65L226.01,236.65z"/>
			</g>
		</g>
		<g>
			<path d="M230.77,236.61c-2.06-1.49-4.58-2.35-7.12-2.42"/>
			<g>
				<path class="st3" d="M230.84,236.48c-2.1-1.5-4.61-2.35-7.19-2.45c-0.19-0.01-0.19,0.29,0,0.3c2.53,0.09,4.98,0.93,7.04,2.4
					C230.85,236.85,231,236.59,230.84,236.48L230.84,236.48z"/>
			</g>
		</g>
		<g>
			<path d="M230.72,236.14c-1.48-0.76-3.09-1.27-4.74-1.49"/>
			<g>
				<path class="st3" d="M230.8,236.01c-1.5-0.76-3.11-1.27-4.77-1.51c-0.19-0.03-0.27,0.26-0.08,0.29c1.64,0.23,3.23,0.73,4.7,1.48
					C230.82,236.36,230.97,236.1,230.8,236.01L230.8,236.01z"/>
			</g>
		</g>
		<g>
			<path d="M232.1,236.55c-1.6-0.73-3.25-1.33-4.95-1.79"/>
			<g>
				<path class="st3" d="M232.17,236.42c-1.61-0.73-3.27-1.34-4.98-1.8c-0.19-0.05-0.27,0.24-0.08,0.29
					c1.68,0.46,3.32,1.05,4.91,1.77C232.2,236.75,232.35,236.5,232.17,236.42L232.17,236.42z"/>
			</g>
		</g>
		<g>
			<path d="M231.39,235.26c-0.93-0.56-1.9-1.06-2.9-1.48"/>
			<g>
				<path class="st3" d="M231.47,235.13c-0.93-0.56-1.9-1.06-2.9-1.48c-0.18-0.08-0.33,0.18-0.15,0.26c1,0.43,1.97,0.92,2.9,1.48
					C231.48,235.49,231.63,235.23,231.47,235.13L231.47,235.13z"/>
			</g>
		</g>
		<g>
			<path d="M230.47,237.74c-1.78-0.45-3.54-0.95-5.29-1.5"/>
			<g>
				<path class="st3" d="M230.51,237.59c-1.78-0.45-3.54-0.95-5.29-1.5c-0.18-0.06-0.26,0.23-0.08,0.29
					c1.75,0.55,3.51,1.05,5.29,1.5C230.62,237.93,230.7,237.64,230.51,237.59L230.51,237.59z"/>
			</g>
		</g>
		<g>
			<path d="M227.59,237.39c-2.19-0.92-4.54-1.47-6.91-1.62"/>
			<g>
				<path class="st3" d="M227.63,237.25c-2.21-0.92-4.56-1.47-6.95-1.63c-0.19-0.01-0.19,0.29,0,0.3c2.36,0.15,4.68,0.7,6.87,1.62
					C227.73,237.61,227.8,237.32,227.63,237.25L227.63,237.25z"/>
			</g>
		</g>
		<g>
			<path d="M224.72,236.87c-2.56-0.42-5.13-0.71-7.72-0.87"/>
			<g>
				<path class="st3" d="M224.76,236.73c-2.57-0.42-5.16-0.71-7.76-0.87c-0.19-0.01-0.19,0.29,0,0.3c2.57,0.16,5.14,0.45,7.68,0.86
					C224.87,237.05,224.95,236.76,224.76,236.73L224.76,236.73z"/>
			</g>
		</g>
		<g>
			<path d="M259.46,233.62c1.52-1.35,3.17-2.58,4.9-3.65"/>
			<g>
				<path class="st3" d="M259.57,233.72c1.52-1.34,3.15-2.56,4.87-3.63c0.16-0.1,0.01-0.36-0.15-0.26
					c-1.74,1.09-3.39,2.32-4.93,3.68C259.21,233.64,259.42,233.85,259.57,233.72L259.57,233.72z"/>
			</g>
		</g>
		<g>
			<path d="M260.08,233.87c1.36-1.28,2.94-2.33,4.65-3.08"/>
			<g>
				<path class="st3" d="M260.18,233.97c1.36-1.27,2.92-2.31,4.62-3.06c0.18-0.08,0.02-0.34-0.15-0.26
					c-1.72,0.76-3.31,1.82-4.68,3.11C259.83,233.89,260.04,234.1,260.18,233.97L260.18,233.97z"/>
			</g>
		</g>
		<g>
			<path d="M259.96,234.47c2.14-1.47,4.36-2.83,6.65-4.06"/>
			<g>
				<path class="st3" d="M260.04,234.6c2.14-1.47,4.36-2.82,6.65-4.06c0.17-0.09,0.02-0.35-0.15-0.26c-2.29,1.23-4.5,2.59-6.65,4.06
					C259.73,234.45,259.88,234.71,260.04,234.6L260.04,234.6z"/>
			</g>
		</g>
		<g>
			<path d="M260.6,234.84c1.82-1.53,3.85-2.8,6.01-3.79"/>
			<g>
				<path class="st3" d="M260.71,234.95c1.82-1.52,3.83-2.78,5.98-3.76c0.18-0.08,0.02-0.34-0.15-0.26
					c-2.18,0.99-4.21,2.28-6.04,3.81C260.35,234.86,260.56,235.07,260.71,234.95L260.71,234.95z"/>
			</g>
		</g>
		<g>
			<path d="M262.17,234.14c2.2-1.33,4.4-2.65,6.6-3.98"/>
			<g>
				<path class="st3" d="M262.25,234.27c2.2-1.33,4.4-2.65,6.6-3.98c0.17-0.1,0.01-0.36-0.15-0.26c-2.2,1.33-4.4,2.65-6.6,3.98
					C261.93,234.11,262.08,234.37,262.25,234.27L262.25,234.27z"/>
			</g>
		</g>
		<g>
			<path d="M263.1,232.22c1.79-1.5,3.8-2.74,5.94-3.67"/>
			<g>
				<path class="st3" d="M263.21,232.32c1.78-1.49,3.78-2.72,5.91-3.65c0.18-0.08,0.02-0.34-0.15-0.26
					c-2.16,0.94-4.17,2.18-5.97,3.7C262.85,232.24,263.06,232.45,263.21,232.32L263.21,232.32z"/>
			</g>
		</g>
		<g>
			<path d="M265.16,230.67c2.2-1.32,4.52-2.44,6.93-3.32"/>
			<g>
				<path class="st3" d="M265.24,230.8c2.19-1.31,4.5-2.42,6.89-3.31c0.18-0.07,0.1-0.36-0.08-0.29c-2.42,0.89-4.75,2.01-6.96,3.34
					C264.92,230.64,265.07,230.9,265.24,230.8L265.24,230.8z"/>
			</g>
		</g>
		<g>
			<path d="M266.95,231.92c1.89-1.19,3.93-2.13,6.06-2.81"/>
			<g>
				<path class="st3" d="M267.03,232.04c1.88-1.18,3.9-2.12,6.02-2.79c0.18-0.06,0.1-0.35-0.08-0.29c-2.14,0.69-4.19,1.63-6.09,2.82
					C266.71,231.89,266.86,232.15,267.03,232.04L267.03,232.04z"/>
			</g>
		</g>
		<g>
			<path d="M268.73,231.8c2-1.29,4.32-2.08,6.69-2.28"/>
			<g>
				<path class="st3" d="M268.8,231.93c1.99-1.27,4.26-2.05,6.62-2.26c0.19-0.02,0.19-0.32,0-0.3c-2.41,0.21-4.73,1-6.77,2.3
					C268.49,231.77,268.64,232.03,268.8,231.93L268.8,231.93z"/>
			</g>
		</g>
		<g>
			<path d="M269.29,230.91c2.07-0.92,4.21-1.65,6.41-2.18"/>
			<g>
				<path class="st3" d="M269.36,231.04c2.06-0.91,4.19-1.63,6.38-2.16c0.19-0.05,0.11-0.33-0.08-0.29
					c-2.21,0.54-4.37,1.27-6.45,2.19C269.03,230.86,269.19,231.11,269.36,231.04L269.36,231.04z"/>
			</g>
		</g>
		<g>
			<path d="M267.14,230.33c0.34-0.67,1.02-1.09,1.7-1.42c2.2-1.09,4.68-1.58,7.13-1.43"/>
			<g>
				<path class="st3" d="M267.26,230.4c0.36-0.65,0.99-1.04,1.64-1.37c0.74-0.37,1.51-0.66,2.3-0.89c1.55-0.45,3.15-0.62,4.76-0.52
					c0.19,0.01,0.19-0.29,0-0.3c-1.73-0.1-3.48,0.11-5.14,0.62c-1.33,0.42-3.1,1-3.82,2.3C266.91,230.42,267.17,230.57,267.26,230.4
					L267.26,230.4z"/>
			</g>
		</g>
		<g>
			<path d="M267.59,230.39c2.46-1.28,5.25-1.94,8.02-1.89"/>
			<g>
				<path class="st3" d="M267.66,230.52c2.46-1.26,5.18-1.9,7.94-1.87c0.19,0,0.19-0.3,0-0.3c-2.81-0.03-5.59,0.63-8.1,1.91
					C267.34,230.35,267.49,230.61,267.66,230.52L267.66,230.52z"/>
			</g>
		</g>
		<g>
			<path d="M269.47,229.47c2.29-0.88,4.77-1.25,7.21-1.08"/>
			<g>
				<path class="st3" d="M269.51,229.61c2.29-0.87,4.73-1.23,7.17-1.07c0.19,0.01,0.19-0.29,0-0.3c-2.47-0.16-4.94,0.21-7.25,1.08
					C269.25,229.39,269.33,229.68,269.51,229.61L269.51,229.61z"/>
			</g>
		</g>
		<g>
			<path d="M272.27,227.27c0.93-0.32,1.94-0.28,2.92-0.21c1.49,0.11,2.98,0.28,4.45,0.51"/>
			<g>
				<path class="st3" d="M272.31,227.41c1.14-0.38,2.35-0.25,3.53-0.16c1.26,0.11,2.52,0.26,3.77,0.45
					c0.19,0.03,0.27-0.26,0.08-0.29c-1.28-0.2-2.56-0.35-3.85-0.46c-1.2-0.1-2.44-0.22-3.61,0.17
					C272.05,227.18,272.13,227.47,272.31,227.41L272.31,227.41z"/>
			</g>
		</g>
		<g>
			<path d="M273.89,227.38c1.26-0.5,2.65-0.56,3.99-0.35s2.61,0.69,3.84,1.24"/>
			<g>
				<path class="st3" d="M273.93,227.52c2.58-0.98,5.31-0.21,7.72,0.87c0.17,0.08,0.33-0.18,0.15-0.26c-2.48-1.11-5.3-1.92-7.95-0.9
					C273.67,227.3,273.75,227.59,273.93,227.52L273.93,227.52z"/>
			</g>
		</g>
		<g>
			<path d="M275.14,228.7c1.27-0.3,2.61-0.2,3.87,0.11s2.47,0.82,3.68,1.32"/>
			<g>
				<path class="st3" d="M275.18,228.84c2.59-0.59,5.12,0.45,7.47,1.44c0.18,0.07,0.26-0.22,0.08-0.29
					c-2.41-1.01-4.98-2.04-7.63-1.44C274.91,228.59,274.99,228.88,275.18,228.84L275.18,228.84z"/>
			</g>
		</g>
		<g>
			<path d="M276.59,229.51c2.33-0.12,4.68,0.17,6.92,0.84"/>
			<g>
				<path class="st3" d="M276.59,229.66c2.33-0.11,4.65,0.17,6.88,0.83c0.19,0.05,0.26-0.23,0.08-0.29
					c-2.26-0.67-4.61-0.95-6.96-0.84C276.4,229.37,276.4,229.67,276.59,229.66L276.59,229.66z"/>
			</g>
		</g>
		<g>
			<path d="M275.96,229.73c2.51,0.14,5.01,0.48,7.47,1.02"/>
			<g>
				<path class="st3" d="M275.96,229.88c2.5,0.15,4.98,0.48,7.43,1.02c0.19,0.04,0.27-0.25,0.08-0.29
					c-2.47-0.54-4.98-0.88-7.51-1.03C275.77,229.57,275.77,229.87,275.96,229.88L275.96,229.88z"/>
			</g>
		</g>
		<g>
			<path d="M276.96,227.75c2.67-0.41,5.5,0.38,7.56,2.12"/>
			<g>
				<path class="st3" d="M277,227.89c2.63-0.39,5.37,0.38,7.42,2.08c0.15,0.12,0.36-0.09,0.21-0.21c-2.14-1.78-4.96-2.56-7.71-2.16
					C276.73,227.63,276.81,227.92,277,227.89L277,227.89z"/>
			</g>
		</g>
		<g>
			<path d="M281.72,228.26c1.93,0.94,3.72,2.16,5.3,3.6"/>
			<g>
				<path class="st3" d="M281.65,228.38c1.92,0.94,3.69,2.15,5.27,3.58c0.14,0.13,0.36-0.08,0.21-0.21c-1.6-1.45-3.4-2.67-5.33-3.63
					C281.63,228.04,281.48,228.3,281.65,228.38L281.65,228.38z"/>
			</g>
		</g>
		<g>
			<path d="M281.71,229.38c2.4,0.67,4.52,2.3,5.8,4.44"/>
			<g>
				<path class="st3" d="M281.67,229.53c2.37,0.68,4.44,2.26,5.71,4.37c0.1,0.17,0.36,0.01,0.26-0.15
					c-1.31-2.18-3.44-3.81-5.89-4.51C281.56,229.18,281.48,229.47,281.67,229.53L281.67,229.53z"/>
			</g>
		</g>
		<g>
			<path d="M283.61,230.41c1.13,0.76,2.37,1.34,3.67,1.74"/>
			<g>
				<path class="st3" d="M283.54,230.54c1.14,0.76,2.39,1.35,3.71,1.75c0.19,0.06,0.26-0.23,0.08-0.29
					c-1.29-0.39-2.51-0.97-3.64-1.72C283.53,230.18,283.38,230.44,283.54,230.54L283.54,230.54z"/>
			</g>
		</g>
		<g>
			<path d="M282.7,229.73c-0.2-0.5-0.67-0.84-1.18-1.01c-0.51-0.17-1.05-0.19-1.59-0.21c-2.33-0.08-4.72-0.15-6.91,0.63"/>
			<g>
				<path class="st3" d="M282.83,229.66c-0.7-1.55-2.9-1.31-4.3-1.34c-1.87-0.04-3.76,0.06-5.55,0.67c-0.18,0.06-0.1,0.35,0.08,0.29
					c1.59-0.55,3.27-0.68,4.94-0.67c0.82,0,1.65,0.01,2.47,0.07c0.84,0.06,1.72,0.29,2.1,1.12
					C282.65,229.98,282.91,229.83,282.83,229.66L282.83,229.66z"/>
			</g>
		</g>
		<g>
			<path d="M276.42,227.88c-3.05-0.17-6.14,0.44-8.89,1.77"/>
			<g>
				<path class="st3" d="M276.42,227.73c-3.09-0.16-6.17,0.46-8.96,1.79c-0.17,0.08-0.02,0.34,0.15,0.26
					c2.74-1.31,5.77-1.91,8.81-1.75C276.61,228.04,276.61,227.74,276.42,227.73L276.42,227.73z"/>
			</g>
		</g>
		<g>
			<path d="M272.55,227.73c-2.98,0.48-5.86,1.51-8.48,3.01"/>
			<g>
				<path class="st3" d="M272.51,227.58c-2.99,0.5-5.88,1.52-8.52,3.02c-0.17,0.1-0.02,0.35,0.15,0.26c2.62-1.49,5.47-2.5,8.44-2.99
					C272.78,227.84,272.7,227.55,272.51,227.58L272.51,227.58z"/>
			</g>
		</g>
		<g>
			<path d="M268.77,229.33c-0.3,0.03-0.6,0.06-0.9,0.08"/>
			<g>
				<path class="st3" d="M268.77,229.18c-0.3,0.03-0.6,0.06-0.9,0.08c-0.08,0.01-0.15,0.06-0.15,0.15c0,0.08,0.07,0.16,0.15,0.15
					c0.3-0.03,0.6-0.06,0.9-0.08c0.08-0.01,0.15-0.06,0.15-0.15C268.92,229.26,268.86,229.17,268.77,229.18L268.77,229.18z"/>
			</g>
		</g>
		<g>
			<path d="M264.65,230.27c-1.01,0.52-1.97,1.11-2.89,1.77"/>
			<g>
				<path class="st3" d="M264.57,230.14c-1.01,0.52-1.97,1.11-2.89,1.77c-0.16,0.11-0.01,0.37,0.15,0.26
					c0.92-0.66,1.88-1.25,2.89-1.77C264.9,230.31,264.74,230.05,264.57,230.14L264.57,230.14z"/>
			</g>
		</g>
		<g>
			<path d="M266.89,230.45c-2.02,0.87-3.88,2.08-5.5,3.57"/>
			<g>
				<path class="st3" d="M266.82,230.32c-2.03,0.88-3.9,2.1-5.53,3.59c-0.14,0.13,0.07,0.34,0.21,0.21
					c1.61-1.48,3.46-2.67,5.47-3.54C267.15,230.5,266.99,230.24,266.82,230.32L266.82,230.32z"/>
			</g>
		</g>
		<g>
			<path d="M265.29,232.18c1.61-1.18,3.56-1.82,5.53-2.15c1.97-0.32,3.98-0.34,5.97-0.35"/>
			<g>
				<path class="st3" d="M265.36,232.31c3.32-2.37,7.5-2.45,11.43-2.48c0.19,0,0.19-0.3,0-0.3c-3.97,0.03-8.21,0.12-11.58,2.52
					C265.05,232.16,265.2,232.42,265.36,232.31L265.36,232.31z"/>
			</g>
		</g>
		<g>
			<path d="M271,229.91c3.2-1.1,6.76-1.1,9.95,0c0.58,0.2,1.15,0.44,1.6,0.85"/>
			<g>
				<path class="st3" d="M271.04,230.06c1.86-0.62,3.81-0.9,5.76-0.79c0.99,0.05,1.96,0.2,2.92,0.44c0.95,0.24,1.97,0.52,2.72,1.17
					c0.15,0.13,0.36-0.09,0.21-0.21c-0.7-0.6-1.58-0.89-2.45-1.14c-0.98-0.28-1.98-0.45-2.99-0.53c-2.12-0.17-4.25,0.1-6.26,0.78
					C270.78,229.83,270.85,230.12,271.04,230.06L271.04,230.06z"/>
			</g>
		</g>
		<g>
			<path d="M281.53,229.16c1.18,0.77,2.53,1.23,3.82,1.8c1.29,0.57,2.57,1.3,3.37,2.46"/>
			<g>
				<path class="st3" d="M281.45,229.28c2.3,1.49,5.45,1.85,7.13,4.2c0.11,0.16,0.37,0.01,0.26-0.15c-1.73-2.41-4.88-2.79-7.24-4.31
					C281.44,228.92,281.29,229.18,281.45,229.28L281.45,229.28z"/>
			</g>
		</g>
		<g>
			<path d="M284.99,231.18c0.41,0.48,0.94,0.84,1.39,1.29c0.6,0.59,1.06,1.32,1.32,2.11"/>
			<g>
				<path class="st3" d="M284.88,231.28c0.48,0.55,1.1,0.95,1.59,1.49c0.49,0.53,0.85,1.16,1.08,1.84c0.06,0.18,0.35,0.1,0.29-0.08
					c-0.23-0.69-0.6-1.34-1.08-1.89c-0.51-0.58-1.17-0.99-1.67-1.58C284.97,230.92,284.76,231.14,284.88,231.28L284.88,231.28z"/>
			</g>
		</g>
		<g>
			<path d="M285.95,232.04c0.92,0.62,1.73,1.41,2.36,2.33"/>
			<g>
				<path class="st3" d="M285.87,232.17c0.9,0.6,1.69,1.38,2.3,2.27c0.11,0.16,0.37,0.01,0.26-0.15c-0.65-0.94-1.46-1.75-2.41-2.38
					C285.86,231.8,285.71,232.06,285.87,232.17L285.87,232.17z"/>
			</g>
		</g>
		<g>
			<path d="M303.7,204.88c0.43,1.47,0.85,2.93,1.26,4.4c1.45,5.16,2.83,10.35,4.14,15.55c1.2,4.77,2.36,9.67,1.83,14.56
				c-0.97,8.93-10.46,18.44-19.25,20.33c-1.45-11.79,1.3-25.38-0.75-37.08s-7.06-23.57-16.77-30.41
				c-8.51-5.99-19.52-7.33-29.89-6.52c-9.36,0.73-18.59,3.06-27.17,6.86c-1.01,0.89-2.02,1.77-3.04,2.66
				c-0.34,0.3-0.79,0.61-1.19,0.42c-0.41-0.19-0.09-1.03,0.25-0.73c-1.28,5.28-5.24,9.4-8.47,13.78
				c-8.73,11.84-12.51,26.76-13.06,41.46c-0.55,14.7,4.03,29.39,6.78,43.84c1.48,7.77,3.25,15.75,7.46,22.36
				c-5.77-4.54-13.75-9.08-19.53-13.62c-3.95-3.1-8.03-6.36-10.26-10.86c-1.33-2.68-1.93-5.65-2.51-8.58
				c-3.25-16.29-6.49-32.58-9.74-48.87c-2.06-10.32-4.12-20.72-4.12-31.24c0-4.08,0.33-8.22,1.74-12.06
				c1.29-3.51,3.45-6.64,5.82-9.54c10.72-13.1,25.78-21.78,40.49-30.16c2.38-1.36,4.86-2.75,7.59-2.99
				c3.99-0.35,7.77,1.8,11.76,2.17c3.25,0.31,6.47-0.57,9.68-1.14c15.52-2.76,32.21,2.02,43.91,12.59
				C292.85,173.09,299.02,189.02,303.7,204.88z"/>
		</g>
		<g>
			<path d="M198,216.32c-8.21,4.47-13.82,12.44-19.13,20.14c-1.37,1.99-2.75,3.99-4.12,5.98c-1.4,2.03-2.84,4.1-4.82,5.58"/>
		</g>
		<g>
			<path d="M200.19,208.51c-3.63,3.25-7.26,6.51-10.88,9.76c-2.68,2.41-5.38,4.82-8.39,6.81c-2.66,1.75-5.61,3.17-8.76,3.64
				s-6.54-0.1-9.11-2"/>
		</g>
		<g>
			<path d="M205.76,202.53c-2.52-0.1-5.12-0.19-7.49,0.68c-1.78,0.65-3.33,1.81-4.92,2.85c-3.18,2.07-6.63,3.69-10.06,5.31
				c-3.69,1.73-7.55,3.51-11.62,3.35c-4.37-0.16-8.58-2.74-10.71-6.57"/>
		</g>
		<g>
			<path d="M207.22,196.37c-5.89-0.66-11.62,1.82-17.09,4.09c-5.48,2.27-11.44,4.41-17.21,3.06c-5.25-1.22-9.67-5.49-11.08-10.69"/>
		</g>
		<g>
			<path d="M222.89,186.28c-3.03-1.59-6.68-1.1-10.06-0.56c-2.56,0.41-5.12,0.81-7.62,1.49c-3.75,1.01-7.33,2.62-11.12,3.43
				c-3.8,0.81-8.01,0.73-11.25-1.42c-4.53-3.01-5.83-9.14-5.46-14.57"/>
		</g>
		<g>
			<path d="M233.27,184.38c-1.71-2.19-3.94-3.96-6.46-5.14c-4.88-2.28-10.53-2.22-15.87-1.54c-5.35,0.68-10.65,1.94-16.04,1.91
				c-2.62-0.01-5.4-0.4-7.41-2.08c-2.27-1.9-3.06-5-3.73-7.88"/>
		</g>
		<g>
			<path d="M233.13,173.25c-1.88-2.14-4.6-3.4-7.39-4.01c-2.78-0.61-5.66-0.62-8.51-0.63c-2.22-0.01-4.45-0.02-6.66,0.2
				c-3.78,0.38-7.56,1.42-11.33,0.94c-3.77-0.48-7.68-3.1-7.95-6.89"/>
		</g>
		<g>
			<path d="M233.6,163.89c-1.67-1.63-3.82-2.76-6.11-3.22c-3.18-0.64-6.46,0-9.7,0.26c-3.97,0.32-7.99,0.06-11.89-0.78
				c-1.28-0.28-2.67-0.7-3.36-1.82c-0.48-0.77-0.73-1.94-1.64-2.02"/>
		</g>
		<g>
			<path d="M244.92,181.13c4.87-3.84,11.32-4.89,17.49-5.5c6.17-0.61,12.56-0.97,18.09-3.76c1.71-0.86,3.43-2.12,3.9-3.98"/>
		</g>
		<g>
			<path d="M247.67,173.64c2.11-2.07,5.22-2.67,8.14-3.16c3.43-0.58,6.86-1.16,10.33-1.36c2.89-0.17,5.92-0.1,8.48-1.43
				c1.96-1.01,3.49-2.82,4.16-4.91"/>
		</g>
		<g>
			<path d="M246.79,169.14c1.86-3.7,6.04-5.63,10.1-6.43s8.27-0.73,12.26-1.81c1.42-0.38,2.88-0.97,3.75-2.16"/>
		</g>
		<g>
			<path d="M245.55,162.13c0.53-1.67,2-2.92,3.61-3.6c1.61-0.69,3.38-0.9,5.12-1.14c2.04-0.28,4.08-0.59,6.01-1.31
				c1.93-0.71,3.74-1.85,4.96-3.51"/>
		</g>
		<g>
			<path d="M269.83,186.5c0.63,0.46,1.5,0.32,2.26,0.15c1.75-0.38,3.51-0.76,5.16-1.43c4.46-1.81,7.82-5.53,11.02-9.13"/>
		</g>
		<g>
			<path d="M281.74,193.26c1.81,0.38,3.63,0.88,5.25,1.78c2.43,1.35,4.28,3.51,6.07,5.63c3.13,3.7,6.29,7.43,8.61,11.68
				c1.6,2.94,3.03,6.35,6.06,7.76"/>
		</g>
		<g>
			<path d="M286.41,202.78c5.26,2.9,8.6,8.33,11.21,13.75c2.61,5.41,4.82,11.15,8.79,15.67"/>
		</g>
		<g>
			<path d="M186.81,244.45c-2.6,0.81-4.66,2.84-6.16,5.11c-3.58,5.46-4.25,12.72-1.72,18.74c0.81,1.92,1.91,3.71,2.65,5.66
				c2.48,6.56,0.51,13.88-1.48,20.61"/>
		</g>
		<g>
			<path d="M188.71,249.68c-3.12,5.03-4.56,11.1-4.01,17c0.32,3.5,1.31,6.89,2.12,10.31c1.87,7.84,2.87,16.01,1.56,23.96"/>
		</g>
		<g>
			<path d="M293.7,226.39c2.74,1.13,4.43,3.95,5.23,6.8c0.8,2.85,0.9,5.85,1.51,8.75c0.18,0.85,0.41,1.71,0.81,2.48
				c0.71,1.37,1.91,2.42,3.08,3.42"/>
		</g>
		<g>
			<path d="M181.67,274.78c-0.32-0.32-0.62-0.65-0.91-1c-1.67-2-2.76-4.4-3.83-6.78c-2.28-5.04-4.6-10.2-5.14-15.71
				c-0.19-1.94-0.1-4.08,1.15-5.59c1.65-2,4.76-2.12,7.18-1.2c1.48,0.56,2.81,1.43,4.13,2.32c5.67,0.74,7.72,6.21,8.65,11.13
				c1.2,6.39,1.37,12.96,0.51,19.4c-0.08,0.58-0.17,1.18-0.46,1.69c-0.65,1.11-2.14,1.48-3.39,1.21c-1.25-0.27-2.33-1.04-3.37-1.8
				C184.61,277.31,183.03,276.15,181.67,274.78z"/>
		</g>
		<g>
			<path d="M184.29,278.27c-0.32-0.32-0.62-0.65-0.91-1c-1.67-2-2.76-4.4-3.83-6.78c-2.28-5.04-4.6-10.2-5.14-15.71
				c-0.19-1.94-0.1-4.08,1.15-5.59c1.65-2,4.76-2.12,7.18-1.2c1.48,0.56,2.81,1.43,4.13,2.32c5.67,0.74,7.72,6.21,8.65,11.13
				c1.2,6.39,1.37,12.96,0.51,19.4c-0.08,0.58-0.17,1.18-0.46,1.69c-0.65,1.11-2.14,1.48-3.39,1.21c-1.25-0.27-2.33-1.04-3.37-1.8
				C187.24,280.81,185.65,279.65,184.29,278.27z"/>
		</g>
		<g>
			<path d="M300.24,236.64c-0.67,0.07-1.34,0.24-2,0.4c-0.81,0.2-1.68,0.45-2.2,1.1c-0.39,0.49-0.51,1.12-0.71,1.71
				c-0.52,1.5-1.57,2.75-2.42,4.1c-2.28,3.62-3.1,8.03-2.92,12.3c0.18,4.18,1.25,8.26,2.56,12.24c3.52-1.19,4.86-5.04,5.85-8.48
				c1.79-6.2,3.58-12.39,5.36-18.59c0.3-1.05,0.6-2.2,0.14-3.19c-0.44-0.95-1.51-1.49-2.55-1.6
				C300.98,236.6,300.61,236.61,300.24,236.64z"/>
		</g>
		<g>
			<path d="M300.24,239.97c-0.67,0.07-1.34,0.24-2,0.4c-0.81,0.2-1.68,0.45-2.2,1.1c-0.39,0.49-0.51,1.12-0.71,1.71
				c-0.52,1.5-1.57,2.75-2.42,4.1c-2.28,3.62-3.1,8.03-2.92,12.3c0.18,4.18,1.25,8.26,2.56,12.24c3.52-1.19,4.86-5.04,5.85-8.48
				c1.79-6.2,3.58-12.39,5.36-18.59c0.3-1.05,0.6-2.2,0.14-3.19c-0.44-0.95-1.51-1.49-2.55-1.6
				C300.98,239.92,300.61,239.93,300.24,239.97z"/>
		</g>
		<g>
			<path d="M293.21,256.82c0.31-1.02,0.63-2.05,0.94-3.07c0.15-0.48,0.31-0.98,0.64-1.36c0.34-0.37,0.92-0.58,1.36-0.35
				c0.41,0.22,0.58,0.72,0.61,1.19c0.12,1.93-1.45,3.5-2.21,5.28c-0.46,1.08-0.63,2.29-0.48,3.46c0.04,0.31,0.12,0.64,0.36,0.83
				c0.25,0.19,0.7,0.11,0.75-0.2"/>
		</g>
		<g>
			<path d="M186.33,265.7c-0.96-0.23-1.76-1.02-2.01-1.97c-0.24-0.96,0.08-2.03,0.81-2.7c0.23-0.21,0.53-0.39,0.84-0.38
				c0.43,0.02,0.77,0.38,1.02,0.73c1.15,1.66,1.46,3.89,0.79,5.8c0.93-0.59,1.34-1.78,1.28-2.88c-0.06-1.1-0.51-2.14-0.96-3.15
				c-0.46-1-0.99-2.07-1.98-2.57c-0.94-0.47-2.1-0.29-3.02,0.2c-0.93,0.49-1.67,1.27-2.39,2.02"/>
		</g>
	</g>
</g>
<g id="kläder">
	<g>
		<path class="st4" d="M448.03,407.71c0.1,0.15,0.19,0.3,0.29,0.45c10.21,15.97,20.84,33.52,19.14,52.4
			c-1.94,21.57-19.59,39.09-22.46,60.55c-1.21,9.07,0.32,18.28,2.17,27.24c5.04,24.36,12.5,48.22,22.24,71.11
			c1.37,3.23,2.82,6.71,2.08,10.14c-1.23,5.67-7.64,8.38-13.27,9.79c-18.89,4.75-38.57,5.15-58.04,5.51
			c-86.46,1.6-172.92,2.89-259.39,3.88c-32.39,0.37-65.01,0.68-96.88-5.1c-0.19-0.03-0.39-0.07-0.58-0.11
			c-0.21-5.16-1.38-35.27-1.38-35.27c-0.88-22.64,3.36-45.47,12.33-66.28c1.72-4,3.66-8.14,3.31-12.48
			c-0.26-3.24-1.77-6.22-2.79-9.3c-3.75-11.31-0.4-24.65,8.25-32.85c-5.07,0.06-8.07-5.93-8.04-11c0.02-5.07,1.76-10.18,0.65-15.12
			c-1.03-4.58-4.43-9.14-2.69-13.5c1.85-4.61,8-5.36,11.96-8.35c5.61-4.25,6.1-12.29,7.36-19.22c1.69-9.3,5.59-18.04,9.83-26.48
			c13.5-26.88,30.87-51.82,51.4-73.8c2.3-2.46,4.76-4.97,7.95-6.06c9.14-3.14,18.64,6.61,28.07,4.5
			c10.62-2.38,12.41-16.5,18.55-25.48c7.12-10.41,20.64-13.87,32.97-16.56c16.23-3.54,32.71-7.1,49.28-6.03
			c16.57,1.07,33.54,7.41,43.83,20.45c4.12,5.23,7.02,11.3,10.67,16.86c12.05,18.36,31.63,30.31,51.36,39.96
			c5.79,2.83,11.71,5.55,16.81,9.49c10.17,7.85,16.46,20.05,27.06,27.3c5.78,3.95,12.63,6.28,17.98,10.8
			C442.14,398.63,445.13,403.19,448.03,407.71z"/>
	</g>
	<g>
		<g>
			<path class="st2" d="M410.67,530.07c0.3,0.3,0.6,0.6,0.89,0.89c0.07,0.07,0.17,0.11,0.27,0.11c0.09,0,0.2-0.04,0.27-0.11
				c0.14-0.15,0.15-0.38,0-0.53c-0.3-0.3-0.6-0.6-0.89-0.89c-0.07-0.07-0.17-0.11-0.27-0.11c-0.09,0-0.2,0.04-0.27,0.11
				C410.53,529.69,410.52,529.92,410.67,530.07L410.67,530.07z"/>
		</g>
	</g>
	<g>
		<path class="st5" d="M120.56,335.73c-15.92,18.3-28.44,39.56-36.62,62.4c-5.62,15.68-9.64,32.79-21.24,44.75
			c-1.61,1.66-3.39,3.25-4.38,5.35c-1.02,2.18-1.07,4.67-1.11,7.08c-0.15,11.29,0.25,23.98,8.43,31.76
			c-5.34,6.68-8.83,14.83-9.98,23.31c-0.32,2.32-0.45,4.75,0.37,6.95c2.3,6.21,10.36,7.47,16.97,7.87
			c36.15,2.19,72.07,8.29,106.91,18.16c16.18,4.58,32.16,9.98,48.65,13.27c30.23,6.03,61.39,4.84,92.17,3.18
			c32.73-1.77,68.52-5.39,91.66-28.61l29.76-29.86c6.7-6.72,11.06-15.41,12.5-24.79c0.11-0.73,0.22-1.46,0.33-2.18
			c3.3-22.45,4.19-46.92-7.88-66.13c-5.08-8.09-12.16-14.71-19.15-21.22c-7.02-6.54-14.04-13.07-21.06-19.61
			c-5.05-4.7-10.12-9.43-15.81-13.34c-6.46-4.45-13.61-7.79-20.43-11.68c-26.7-15.26-48.48-39.19-77.36-49.78
			c-12.6-4.62-26.06-6.48-39.43-7.48c-12.17-0.91-24.38-1.09-36.56-0.44c-7.79,0.41-15.81,1.39-22.31,5.64
			c-12.15,7.94-18.45,26.56-32.96,26.52c-5.95-0.02-11.77-3.54-17.56-2.19c-3.42,0.8-6.22,3.18-8.81,5.56
			C130.34,325.09,125.3,330.28,120.56,335.73z"/>
	</g>
	<g>
		<path class="st6" d="M73.05,525.88c-8.11,14.36-13.73,30.11-16.54,46.36"/>
	</g>
	<g>
		<path class="st6" d="M80.69,526.21c-7.82,14.37-13.02,30.16-15.28,46.36"/>
	</g>
	<g>
		<path class="st6" d="M87.55,526.84c-7.18,18.36-13.74,36.97-19.66,55.77"/>
	</g>
	<g>
		<path class="st6" d="M96.28,527.76c-8.58,20.52-16.04,41.5-22.35,62.82"/>
	</g>
	<g>
		<path class="st6" d="M103.01,528.31c-10.2,23.27-19.82,46.8-28.84,70.56"/>
	</g>
	<g>
		<path class="st6" d="M108.41,528.87c-8.88,23.14-17.76,46.29-26.64,69.43"/>
	</g>
	<g>
		<path class="st6" d="M113.47,529.62c-10.71,25.84-20.38,52.11-28.97,78.73"/>
	</g>
	<g>
		<path class="st6" d="M118.82,530.48c-8.65,24.73-17.74,49.31-27.27,73.72"/>
	</g>
	<g>
		<path class="st6" d="M122.34,530.87c-7.56,25.95-16.1,51.61-25.59,76.92"/>
	</g>
	<g>
		<path class="st6" d="M127.41,531.72c-11.99,27.92-16.57,58.46-26.91,87.04"/>
	</g>
	<g>
		<path class="st6" d="M131.18,532.5c-7.87,27.48-16.39,54.78-25.54,81.85"/>
	</g>
	<g>
		<path class="st6" d="M134.98,533.64c-5.18,23.4-12.49,46.33-21.83,68.4"/>
	</g>
	<g>
		<path class="st6" d="M140.19,534.14c-4.3,27.49-12.4,54.38-23.99,79.67"/>
	</g>
	<g>
		<path class="st6" d="M144.77,535.66c0.05,22.46-3.46,44.93-10.36,66.31"/>
	</g>
	<g>
		<path class="st6" d="M150.03,536.47c0.78,23.7-1.68,47.51-7.29,70.55"/>
	</g>
	<g>
		<path class="st6" d="M156.27,537.85c0.7,24.29-0.93,48.64-4.87,72.62"/>
	</g>
	<g>
		<path class="st6" d="M161.54,538.84c0.96,22.63,0.34,45.32-1.87,67.86"/>
	</g>
	<g>
		<path class="st6" d="M168.36,540.48c0.1,25.83-1.03,51.67-3.39,77.39"/>
	</g>
	<g>
		<path class="st6" d="M173,542.01c0.79,29.5,0.18,59.05-1.83,88.49"/>
	</g>
	<g>
		<path class="st6" d="M180.89,544.1c-0.3,29.68-1.87,57.64-4.92,87.16"/>
	</g>
	<g>
		<path class="st6" d="M186.65,545.43c-0.5,26.8-2.33,53.45-5.5,80.06"/>
	</g>
	<g>
		<path class="st6" d="M192.65,547.56c0.45,26.99,0.17,53.99-0.84,80.96"/>
	</g>
	<g>
		<path class="st6" d="M198.99,549.59c2.84,24.67,2.14,49.75-2.08,74.22"/>
	</g>
	<g>
		<path class="st6" d="M207.5,551.52c-0.03,6.57-0.07,13.14-0.1,19.72c-0.1,19.53-0.21,39.17-3.58,58.41"/>
	</g>
	<g>
		<path class="st6" d="M214.46,553.34c-0.35,22.43-2.23,47.78-5.18,70.02"/>
	</g>
	<g>
		<path class="st6" d="M219.31,555.46c1.69,19.59,1.12,39.37-1.69,58.83"/>
	</g>
	<g>
		<path class="st6" d="M227.63,557.11c1.06,18.99-0.48,38.13-4.57,56.7"/>
	</g>
	<g>
		<path class="st6" d="M234.4,558.68c-1.92,21.55-6.81,42.83-14.5,63.05"/>
	</g>
	<g>
		<path class="st6" d="M242.24,559.79c-4.16,15.84-1.81,33.03-7.28,48.47"/>
	</g>
</g>
<g id="fejs">
	<g>
		<path class="st7" d="M285.29,380.85c2.15,2.04,4.29,4.08,6.43,6.13c4.73-9.77,8.15-20.17,10.16-30.84
			c0.92-4.92,3.54-6.66,5.41-11.31c3.25-8.08,7.98-17.62,11.74-25.48c3.23-6.76,4.13-14.37,4.78-21.83
			c1.69-19.4,2.03-38.92,1.01-58.36c-0.6-11.41-1.86-23.38-8.39-32.76c-6.07-8.72-15.98-14.04-26.1-17.26
			c-6.96-2.21-14.64-3.56-21.42-0.55c-9.43,0.44-19.1,1.95-26.98,7.1c-5.35,3.5-9.57,8.5-13.02,13.88
			c-10.76,16.77-14.41,37.36-13.53,57.26s6.04,39.37,11.74,58.46c0.93,3.1,1.88,6.23,3.48,9.05c3.82,6.73,10.81,10.9,17.24,15.23
			C261.35,358.67,273.45,369.64,285.29,380.85z"/>
	</g>
	<g>
		<path class="st8" d="M263.03,320.23c-0.42-0.36-0.82-0.74-1.19-1.15c6.33-0.22,12.67-0.44,19-0.66
			c5.95-0.21,11.91-0.41,17.81-1.19c-3.55,4.44-8.94,7.34-14.6,7.89c-2.41,0.23-4.85,0.05-7.25-0.21
			C271.9,324.38,266.7,323.37,263.03,320.23z"/>
	</g>
	<g>
		<path class="st9" d="M263.06,319.81c-0.42-0.36-0.82-0.74-1.19-1.15c6.33-0.22,12.67-0.44,19-0.66
			c5.95-0.21,11.91-0.41,17.81-1.19c-3.55,4.44-8.94,7.34-14.6,7.89c-2.41,0.23-4.85,0.05-7.26-0.21
			C271.93,323.96,266.74,322.94,263.06,319.81z"/>
	</g>
	<g>
		<path class="st10" d="M298.02,316.71c-3.67-2.34-8.19-5.23-12.33-3.97c-1.77,0.54-3.42,1.61-5.28,1.65
			c-1.58,0.03-3.08-0.69-4.66-0.8c-1.95-0.13-3.82,0.68-5.61,1.48c-2.86,1.28-5.91,3-8.81,4.37c8.19-3.31,17.55-1.76,26.37-2.86
			c1.78-0.22,3.55-0.55,5.34-0.53c1.98,0.03,4.1,2.1,6.06,1.76C298.79,317.58,298.37,316.93,298.02,316.71z"/>
	</g>
	<g>
		<path class="st11" d="M298.05,316.77c-3.67-2.34-8.11-4.05-12.25-2.79c-1.77,0.54-3.42,1.61-5.28,1.65
			c-1.58,0.03-3.08-0.69-4.66-0.8c-1.95-0.13-3.82,0.68-5.61,1.48c-2.86,1.28-6.87,2.34-9.77,3.71c8.19-3.31,18.51-1.1,27.33-2.2
			c1.78-0.22,3.55-0.55,5.34-0.53c1.98,0.03,3.95,0.5,5.92,0.17C298.75,317.23,298.41,317,298.05,316.77z"/>
	</g>
	<g>
		<path class="st12" d="M237.47,262.98c-0.1-1.63,0.42-3.3,1.5-4.53c1.8-2.05,4.68-2.68,7.35-3.2c1.08-0.21,2.17-0.42,3.26-0.28
			c0.89,0.11,1.73,0.45,2.55,0.79c2.44,1.01,5.01,2.2,6.65,4.19c0.11,2.21-1.06,4.27-2.69,5.71c-1.43,1.25-3.19,2.07-4.99,2.69
			c-2.32,0.8-4.81,1.29-7.23,0.88c-2.42-0.4-4.76-1.82-5.83-4.03C237.71,264.51,237.52,263.75,237.47,262.98z"/>
	</g>
	<g>
		<path class="st12" d="M288.44,259.53c1.12-1.58,2.39-0.94,3.48-2.4c1.83-2.44,4.2-4.54,6.93-5.15c1.1-0.25,1.14-0.16,2.25,0
			c0.91,0.13,3.67-0.4,4.51,0c2.5,1.19,5.26,3.14,6.93,5.52c0.12,2.63-1.47,6.49-3.14,8.2c-1.46,1.49-3.26,2.46-5.09,3.2
			c-2.37,0.95-4.92,1.53-7.39,1.05c-2.47-0.48-4.21-3.71-6.43-5.06C288.23,263.51,287.92,260.27,288.44,259.53z"/>
	</g>
	<g>
		<path class="st3" d="M235.55,265.89c1.01,1.64,2.24,3.16,3.76,4.34c3.23,2.51,7.71,3.33,11.62,2.11
			c6.64-2.07,11.31-9.9,7.59-17.08c2.16,9.32-4.58,12.78-10.79,13.73c-0.96,0.15-1.94,0.25-2.9,0.15c-3.5-0.37-6.1-3.27-8.5-5.85
			c-0.24-0.26-0.51-0.53-0.86-0.54c-0.46-0.02-0.83,0.46-0.85,0.92c-0.02,0.46,0.19,0.9,0.42,1.31
			C235.19,265.29,235.37,265.59,235.55,265.89z"/>
	</g>
	<g>
		<path class="st13" d="M232.15,268.31c0.02,0.56,0.08,1.11,0.17,1.66c0.34-1.04,0.69-2.07,1.03-3.11c0.56-1.68,1.12-3.39,2.08-4.88
			c2.1-3.28,5.95-5.21,9.83-5.54c7.76-0.68,15.6,4.41,20.02,8.9c-2.31-10.68-14.69-15.42-23.77-11.46
			c-4.7,2.05-8.35,6.47-9.18,11.53C232.17,266.36,232.11,267.34,232.15,268.31z"/>
	</g>
	<g>
		<path class="st13" d="M288.32,257.53c0.69-1.42,1.86-2.69,3.39-3.64c0.91-0.57,1.94-1.02,2.98-1.45c1.11-0.45,2.24-0.88,3.45-1.15
			c3.2-0.73,6.85-0.33,9.94,0.89c3.09,1.23,5.61,6.01,7.3,8.33c-3.14-3.87-11.86-7.02-17.38-5.86c-3.57,0.75-6.48,2.66-8.7,4.86
			c-0.42,0.42-1.03,0.9-1.71,0.71C287.65,259.3,287.9,258.39,288.32,257.53z"/>
	</g>
	<g>
		<path class="st3" d="M288.74,264.97c-0.22-0.31-0.39-0.65-0.47-1.03c-0.13-0.65-1.42-3.75-0.81-4c2.17,1.44,5.95,5.25,8.48,5.88
			c3.9,0.97,8.48,0.9,11.83-1.31c2.71-1.79,5.29-4.81,5.56-7c1.53,5.74-6.27,12.23-11.02,12.78s-9.79-1.14-13.03-4.66
			C289.08,265.41,288.89,265.2,288.74,264.97z"/>
	</g>
	<g>
		<path class="st14" d="M302.72,263.71c-0.51,0.28-1.06,0.48-1.61,0.63c-0.98,0.27-2.03,0.39-3,0.1c-1.47-0.43-2.59-1.84-2.69-3.37
			c-0.08-1.3,0.59-2.62,1.66-3.36c1.33-0.61,0.9-0.3,1.33-0.61c1.46-1.04,3.64-0.23,5.03,0.91c0.59,0.48,1.11,1.09,1.32,1.83
			c0.29,1.04-0.12,2.18-0.86,2.96C303.56,263.18,303.16,263.47,302.72,263.71z"/>
	</g>
	<g>
		<path class="st14" d="M244.92,266.56c-0.46-0.16-0.9-0.38-1.29-0.67c-1.54-1.16-2.06-3.49-1.15-5.2c0.55-1.04,1.53-1.8,2.55-2.38
			c0.03-0.02,0.06-0.03,0.09-0.05c2.14-1.19,4.95-0.61,6.32,1.43c0.13,0.2,0.26,0.41,0.37,0.62c0.6,1.15,0.81,2.56,0.33,3.76
			c-0.75,1.87-2.95,2.77-4.97,2.8C246.41,266.89,245.63,266.8,244.92,266.56z"/>
	</g>
	<g>
		<path class="st15" d="M266.47,286.67c-1,2.21-2.44,4.26-2.81,6.65c-0.36,2.39,0.33,5.11,2.33,6.48c2.69,1.86,6.34,0.63,9.61,0.85
			c2.44,0.16,5.03,1.16,7.23,0.07c1.77-0.87,2.97-2.99,4.94-3.06c0.93-0.03,1.83,0.43,2.77,0.39c1.3-0.05,2.4-1.1,2.85-2.31
			c0.45-1.22,0.35-2.57,0.1-3.84c-0.75-3.74-2.75-7.08-4.47-10.48c-2.46-4.85-4.41-9.96-5.8-15.21c0,0-1.76-15.73,7.07-19.04
			C290.3,247.17,284.59,246.7,266.47,286.67z"/>
	</g>
	<g>
		<path class="st16" d="M277.17,298.72c0.1,0.1,0.2,0.2,0.29,0.3c0.31,0.36,0.57,0.91,0.28,1.28c-0.29,0.37-0.87,0.25-1.33,0.12
			c-1.29-0.37-2.65-0.54-3.99-0.49c-0.2,0.01-0.4,0.02-0.6,0.01c-3.03,0.49-2.84-1.79-1.74-2.54c0.67-0.46,1.53-0.49,2.33-0.44
			C274.13,297.07,275.93,297.54,277.17,298.72z"/>
	</g>
	<g>
		<path class="st16" d="M289.8,295.47c0.06,0.09,0.11,0.19,0.15,0.29c0.16,0.42,0.11,0.95-0.23,1.24c-0.21,0.17-0.48,0.24-0.74,0.29
			c-0.63,0.14-1.27,0.28-1.9,0.42c-0.92,0.2-2.34,0.09-1.71-1.39c0.81-0.8,1.24-2.19,2.36-2.23c0.52-0.02,0.99,0.3,1.39,0.63
			C289.36,294.94,289.62,295.18,289.8,295.47z"/>
	</g>
	<g>
		<path class="st17" d="M228.16,330.81c10.82,10.75,24,19.78,38.98,22.56c14.98,2.78,31.89-1.73,41.2-13.81
			c-3.19,16.89-7.99,33.48-14.29,49.47c-0.2,0.52-0.46,1.09-0.97,1.3c-0.82,0.33-1.63-0.44-2.19-1.12
			c-15.11-18.44-35.91-31.13-54.03-46.61c-3.91-3.34-7.86-7.05-9.48-11.94"/>
	</g>
	<g>
		<path class="st4" d="M163.08,326.82c7.43,6.07,14.86,12.14,22.3,18.21c11.21,9.15,22.41,18.3,33.62,27.45
			c6.22,5.08,12.45,10.16,18.82,15.05c17.54,13.45,36.22,25.42,55.76,35.74"/>
	</g>
	<g>
		<path class="st4" d="M282.68,480.11c29.89,13.31,61.53,22.69,93.84,27.81c-22.74-5.57-44.75-14.08-65.33-25.26
			c-32.31-17.55-62.01-41.99-98.04-49.33"/>
	</g>
	<g>
		<path class="st4" d="M407.83,428.34c6.21,0.56,10.47-6.23,11.85-12.31c0.85-3.75,1.13-7.94-0.93-11.19s-7.22-4.63-9.81-1.79
			c-3.26,3.58,0.1,9.48-1.39,14.08c-0.98,3.04-4.01,5.03-7.12,5.78c-3.1,0.75-6.35,0.48-9.54,0.41c-24.3-0.54-48.76,10.29-72.36,4.5
			c3.64-1.58,7.31-3.17,11.15-4.19c5.01-1.32,10.23-1.63,15.4-1.94c10.98-0.65,21.96-1.3,32.95-1.95"/>
	</g>
	<g>
		<path class="st4" d="M58.64,458.33c22.71-3.68,46.94,3.35,64.14,18.63c2.56,2.27,5.04,4.76,8.18,6.12
			c4.04,1.75,8.63,1.42,13.01,1.85c6.08,0.6,11.9,2.73,17.56,5.03c14.92,6.09,29.73,13.7,45.82,14.66
			c-14.48-7.16-28.96-14.32-43.44-21.48c-3.6-1.78-7.22-3.57-11.08-4.66c-3.99-1.13-8.17-1.49-12.2-2.49
			c-8.3-2.07-15.65-6.77-23.18-10.82c-15.17-8.17-31.64-13.91-48.6-16.96c-3.14-0.56-6.62-0.98-9.32,0.72
			c-2.7,1.7-3.5,6.39-0.68,7.88"/>
	</g>
	<circle class="st18" cx="247.1" cy="261.87" r="2.07"/>
	<circle class="st18" cx="299.79" cy="260.62" r="1.37"/>
	<g>
		<path class="st19" d="M301.33,288.17c-1.2,5.79-1.22,11.83-0.06,17.63c0.31,1.52,0.71,3.06,1.57,4.36s2.27,2.31,3.82,2.34
			c2.47,0.05,4.29-2.2,5.69-4.24c2.38-3.45,4.75-6.89,7.13-10.34c0.97-1.41,1.97-2.85,3.34-3.89"/>
	</g>
	<g>
		<path class="st19" d="M248.71,287.82c1.1,3.86,1.8,7.83,2.09,11.83c0.3,4.24,0.04,8.9-4.87,11.32c-1.59,0.78-3.37,1.13-5.14,1.04
			c-4.7-0.24-8.69-2.98-12.12-6.04c-1.64-1.46-3.21-3.04-4.3-4.94"/>
	</g>
</g>
<g id="ögonbryn">
	<g>
		<g>
			<path class="st3" d="M263.06,248.13c-0.98-0.6-1.53-1.74-2.2-2.64c-0.73-0.98-1.53-1.89-2.4-2.75c-0.14-0.14-0.35,0.08-0.21,0.21
				c0.92,0.91,1.77,1.88,2.53,2.93c0.64,0.88,1.17,1.93,2.13,2.51C263.07,248.49,263.22,248.23,263.06,248.13L263.06,248.13z"/>
		</g>
	</g>
	<g>
		<g>
			<path class="st3" d="M316.73,239.63c1.28,1.2,2.48,2.48,3.59,3.85c0.12,0.15,0.33-0.06,0.21-0.21c-1.11-1.36-2.31-2.65-3.59-3.85
				C316.8,239.29,316.59,239.5,316.73,239.63L316.73,239.63z"/>
		</g>
	</g>
	<g>
		<g>
			<path class="st3" d="M262.69,248.43c-1.42-1.46-2.9-2.86-4.44-4.2c-0.14-0.13-0.36,0.08-0.21,0.21c1.53,1.34,3.01,2.74,4.44,4.2
				C262.61,248.78,262.82,248.57,262.69,248.43L262.69,248.43z"/>
		</g>
	</g>
	<g>
		<g>
			<path class="st3" d="M262.28,248.25c-1.7-1.54-3.41-3.08-5.11-4.62c-0.14-0.13-0.36,0.08-0.21,0.21c1.7,1.54,3.41,3.08,5.11,4.62
				C262.21,248.59,262.42,248.38,262.28,248.25L262.28,248.25z"/>
		</g>
	</g>
	<g>
		<g>
			<path class="st3" d="M261.63,248.66c-1.92-1.47-3.83-2.96-5.72-4.48c-0.15-0.12-0.36,0.09-0.21,0.21
				c1.91,1.53,3.83,3.04,5.78,4.52C261.63,249.04,261.78,248.78,261.63,248.66L261.63,248.66z"/>
		</g>
	</g>
	<g>
		<g>
			<path class="st3" d="M260.1,247.89c-1.89-1.23-3.85-2.35-5.86-3.36c-0.17-0.09-0.32,0.17-0.15,0.26c2.02,1,3.98,2.12,5.86,3.36
				C260.11,248.25,260.26,247.99,260.1,247.89L260.1,247.89z"/>
		</g>
	</g>
	<g>
		<g>
			<path class="st3" d="M259.07,247.57c-2.19-0.98-4.3-2.14-6.31-3.45c-0.16-0.11-0.31,0.15-0.15,0.26
				c2.01,1.32,4.12,2.47,6.31,3.45C259.1,247.91,259.25,247.65,259.07,247.57L259.07,247.57z"/>
		</g>
	</g>
	<g>
		<g>
			<path class="st3" d="M258.67,247.88c-2.65-1.15-5.22-2.48-7.69-3.97c-0.17-0.1-0.32,0.16-0.15,0.26
				c2.47,1.49,5.04,2.82,7.69,3.97C258.7,248.21,258.85,247.95,258.67,247.88L258.67,247.88z"/>
		</g>
	</g>
	<g>
		<g>
			<path class="st3" d="M253.33,245.75c-2.56-0.94-5.19-1.68-7.86-2.21c-0.19-0.04-0.27,0.25-0.08,0.29
				c2.67,0.53,5.3,1.27,7.86,2.21C253.43,246.1,253.51,245.81,253.33,245.75L253.33,245.75z"/>
		</g>
	</g>
	<g>
		<g>
			<path class="st3" d="M254.1,246.61c-2.44-0.8-4.89-1.61-7.33-2.41c-0.18-0.06-0.26,0.23-0.08,0.29c2.44,0.8,4.89,1.61,7.33,2.41
				C254.21,246.96,254.28,246.67,254.1,246.61L254.1,246.61z"/>
		</g>
	</g>
	<g>
		<g>
			<path class="st3" d="M252.77,244.89c-1.26-0.56-2.56-1.05-3.88-1.44c-0.67-0.2-1.34-0.37-2.02-0.52
				c-0.65-0.14-1.3-0.28-1.96-0.14c-0.19,0.04-0.11,0.33,0.08,0.29c0.7-0.14,1.41,0.05,2.09,0.21c0.63,0.15,1.26,0.31,1.88,0.5
				c1.25,0.38,2.48,0.83,3.67,1.37C252.79,245.23,252.94,244.97,252.77,244.89L252.77,244.89z"/>
		</g>
	</g>
	<g>
		<g>
			<path class="st3" d="M247.87,245.34c-2.09-0.58-4.24-0.96-6.41-1.12c-0.19-0.01-0.19,0.29,0,0.3c2.14,0.16,4.26,0.53,6.33,1.11
				C247.98,245.68,248.06,245.39,247.87,245.34L247.87,245.34z"/>
		</g>
	</g>
	<g>
		<g>
			<path class="st3" d="M248.71,244.64c-2.64-0.22-5.27-0.54-7.89-0.94c-0.19-0.03-0.27,0.26-0.08,0.29
				c2.65,0.41,5.3,0.73,7.97,0.96C248.9,244.96,248.9,244.66,248.71,244.64L248.71,244.64z"/>
		</g>
	</g>
	<g>
		<g>
			<path class="st3" d="M246.63,243.14c-2.21,0.19-4.43,0.24-6.65,0.15c-0.19-0.01-0.19,0.29,0,0.3c2.22,0.09,4.44,0.04,6.65-0.15
				C246.82,243.43,246.82,243.13,246.63,243.14L246.63,243.14z"/>
		</g>
	</g>
	<g>
		<g>
			<path class="st3" d="M243.9,245.15c-2.77-0.49-5.59-0.43-8.34,0.18c-0.19,0.04-0.11,0.33,0.08,0.29c2.69-0.6,5.47-0.66,8.18-0.18
				C244.01,245.48,244.09,245.19,243.9,245.15L243.9,245.15z"/>
		</g>
	</g>
	<g>
		<g>
			<path class="st3" d="M241.17,244.23c-2.01,0.24-4.03,0.43-6.06,0.56c-0.19,0.01-0.19,0.31,0,0.3c2.02-0.14,4.04-0.32,6.06-0.56
				C241.36,244.51,241.37,244.21,241.17,244.23L241.17,244.23z"/>
		</g>
	</g>
	<g>
		<g>
			<path class="st3" d="M234.25,244.91c-1.5,0.58-2.88,1.45-4.03,2.58c-0.14,0.13,0.07,0.35,0.21,0.21c1.12-1.08,2.45-1.94,3.9-2.5
				C234.51,245.13,234.43,244.84,234.25,244.91L234.25,244.91z"/>
		</g>
	</g>
	<g>
		<g>
			<path class="st3" d="M232.95,245.99c-1.65,0.98-3.26,2.02-4.84,3.11c-0.16,0.11-0.01,0.37,0.15,0.26
				c1.58-1.09,3.19-2.13,4.84-3.11C233.26,246.15,233.11,245.89,232.95,245.99L232.95,245.99z"/>
		</g>
	</g>
	<g>
		<g>
			<path class="st3" d="M230.33,247.61c-1.87,0.68-3.43,2.1-4.27,3.91c-0.08,0.17,0.18,0.33,0.26,0.15c0.8-1.74,2.28-3.12,4.09-3.77
				C230.59,247.83,230.51,247.54,230.33,247.61L230.33,247.61z"/>
		</g>
	</g>
	<g>
		<g>
			<path class="st3" d="M229.02,246.86c-0.85,0.17-1.38,0.94-1.8,1.65c-0.51,0.86-0.9,1.79-1.18,2.75
				c-0.05,0.19,0.23,0.26,0.29,0.08c0.26-0.89,0.62-1.74,1.07-2.54c0.39-0.68,0.87-1.48,1.69-1.64
				C229.29,247.11,229.21,246.82,229.02,246.86L229.02,246.86z"/>
		</g>
	</g>
	<g>
		<g>
			<path class="st3" d="M236.6,245.01c-1.69-0.19-3.41,0.38-4.66,1.53c-0.14,0.13,0.07,0.34,0.21,0.21c1.19-1.1,2.83-1.62,4.44-1.44
				C236.8,245.33,236.79,245.03,236.6,245.01L236.6,245.01z"/>
		</g>
	</g>
	<g>
		<g>
			<path class="st3" d="M236.77,243.57c-2.82,0.66-5.14,2.46-7.37,4.22c-0.15,0.12,0.06,0.33,0.21,0.21
				c2.19-1.72,4.47-3.5,7.23-4.14C237.03,243.81,236.95,243.52,236.77,243.57L236.77,243.57z"/>
		</g>
	</g>
	<g>
		<g>
			<path class="st3" d="M231.4,245.77c-1.59,0.44-3,1.42-3.98,2.75c-0.11,0.16,0.15,0.31,0.26,0.15c0.93-1.27,2.29-2.19,3.8-2.61
				C231.67,246.01,231.59,245.72,231.4,245.77L231.4,245.77z"/>
		</g>
	</g>
	<g>
		<g>
			<path class="st3" d="M242.52,243.51c-1.97,0.51-3.98,0.84-6.01,0.97c-0.19,0.01-0.19,0.31,0,0.3c2.06-0.13,4.09-0.46,6.09-0.98
				C242.79,243.75,242.71,243.47,242.52,243.51L242.52,243.51z"/>
		</g>
	</g>
	<g>
		<g>
			<path class="st3" d="M241.65,243.92c-1.74,0.47-3.54-0.33-5.29,0.08c-0.19,0.04-0.11,0.33,0.08,0.29
				c1.75-0.42,3.54,0.39,5.29-0.08C241.92,244.16,241.84,243.87,241.65,243.92L241.65,243.92z"/>
		</g>
	</g>
	<g>
		<g>
			<path class="st3" d="M243.75,243.05c-1.27-0.13-2.54-0.3-3.81-0.38c-1-0.07-2.04-0.01-2.88,0.58c-0.16,0.11-0.01,0.37,0.15,0.26
				c0.86-0.61,1.93-0.61,2.94-0.53c1.2,0.1,2.4,0.24,3.6,0.37C243.94,243.37,243.94,243.07,243.75,243.05L243.75,243.05z"/>
		</g>
	</g>
	<g>
		<g>
			<path class="st3" d="M245.14,243.68c-1.88,0.03-3.76-0.14-5.61-0.5c-0.19-0.04-0.27,0.25-0.08,0.29
				c1.87,0.37,3.78,0.54,5.69,0.51C245.33,243.97,245.33,243.67,245.14,243.68L245.14,243.68z"/>
		</g>
	</g>
	<g>
		<g>
			<path class="st3" d="M254.01,244.76c-0.61-0.42-1.23-0.85-1.95-1.08c-0.71-0.23-1.47-0.3-2.21-0.43
				c-1.59-0.28-3.15-0.71-4.67-1.25c-0.18-0.07-0.26,0.22-0.08,0.29c1.47,0.52,2.97,0.94,4.51,1.22c0.71,0.13,1.45,0.2,2.15,0.39
				c0.78,0.22,1.44,0.66,2.09,1.12C254.02,245.13,254.17,244.87,254.01,244.76L254.01,244.76z"/>
		</g>
	</g>
	<g>
		<g>
			<path class="st3" d="M253.7,245.02c-2.28-0.93-4.63-1.67-7.03-2.23c-0.19-0.04-0.27,0.25-0.08,0.29c2.4,0.56,4.75,1.31,7.03,2.23
				C253.8,245.39,253.88,245.1,253.7,245.02L253.7,245.02z"/>
		</g>
	</g>
	<g>
		<g>
			<path class="st3" d="M252.9,246.07c-2.53-0.61-5.07-1.23-7.6-1.84c-0.19-0.05-0.27,0.24-0.08,0.29c2.53,0.61,5.07,1.23,7.6,1.84
				C253.01,246.41,253.09,246.12,252.9,246.07L252.9,246.07z"/>
		</g>
	</g>
	<g>
		<g>
			<path class="st3" d="M258.23,245.88c-2.32-1.66-5.09-2.6-7.93-2.7c-0.19-0.01-0.19,0.29,0,0.3c2.8,0.1,5.51,1.03,7.78,2.66
				C258.24,246.26,258.39,246,258.23,245.88L258.23,245.88z"/>
		</g>
	</g>
	<g>
		<g>
			<path class="st3" d="M258.18,245.37c-1.65-0.84-3.43-1.4-5.27-1.66c-0.19-0.03-0.27,0.26-0.08,0.29c1.81,0.25,3.57,0.8,5.19,1.63
				C258.2,245.71,258.36,245.46,258.18,245.37L258.18,245.37z"/>
		</g>
	</g>
	<g>
		<g>
			<path class="st3" d="M259.7,245.81c-1.78-0.81-3.61-1.47-5.5-1.99c-0.19-0.05-0.27,0.24-0.08,0.29c1.86,0.5,3.67,1.16,5.42,1.96
				C259.72,246.15,259.87,245.89,259.7,245.81L259.7,245.81z"/>
		</g>
	</g>
	<g>
		<g>
			<path class="st3" d="M258.92,244.4c-1.03-0.62-2.1-1.17-3.2-1.64c-0.18-0.08-0.33,0.18-0.15,0.26c1.1,0.47,2.17,1.02,3.2,1.64
				C258.93,244.76,259.09,244.5,258.92,244.4L258.92,244.4z"/>
		</g>
	</g>
	<g>
		<g>
			<path class="st3" d="M257.87,247.12c-1.96-0.5-3.91-1.05-5.84-1.65c-0.18-0.06-0.26,0.23-0.08,0.29
				c1.93,0.61,3.88,1.16,5.84,1.65C257.98,247.45,258.06,247.16,257.87,247.12L257.87,247.12z"/>
		</g>
	</g>
	<g>
		<g>
			<path class="st3" d="M254.68,246.73c-2.44-1.02-5.03-1.62-7.66-1.79c-0.19-0.01-0.19,0.29,0,0.3c2.61,0.17,5.17,0.78,7.58,1.78
				C254.78,247.1,254.86,246.81,254.68,246.73L254.68,246.73z"/>
		</g>
	</g>
	<g>
		<g>
			<path class="st3" d="M251.52,246.16c-2.84-0.46-5.69-0.79-8.56-0.96c-0.19-0.01-0.19,0.29,0,0.3c2.84,0.18,5.67,0.49,8.48,0.95
				C251.63,246.48,251.71,246.19,251.52,246.16L251.52,246.16z"/>
		</g>
	</g>
	<g>
		<g>
			<path class="st3" d="M289.94,242.82c1.68-1.48,3.47-2.82,5.37-4.01c0.16-0.1,0.01-0.36-0.15-0.26c-1.92,1.2-3.74,2.55-5.44,4.06
				C289.58,242.73,289.79,242.95,289.94,242.82L289.94,242.82z"/>
		</g>
	</g>
	<g>
		<g>
			<path class="st3" d="M290.61,243.09c1.5-1.41,3.22-2.55,5.1-3.38c0.18-0.08,0.02-0.34-0.15-0.26c-1.9,0.84-3.65,2-5.16,3.43
				C290.26,243.01,290.47,243.23,290.61,243.09L290.61,243.09z"/>
		</g>
	</g>
	<g>
		<g>
			<path class="st3" d="M290.46,243.79c2.36-1.62,4.81-3.12,7.34-4.48c0.17-0.09,0.02-0.35-0.15-0.26
				c-2.52,1.36-4.97,2.85-7.34,4.48C290.15,243.64,290.3,243.9,290.46,243.79L290.46,243.79z"/>
		</g>
	</g>
	<g>
		<g>
			<path class="st3" d="M291.19,244.17c2.01-1.68,4.23-3.07,6.61-4.16c0.18-0.08,0.02-0.34-0.15-0.26c-2.4,1.09-4.64,2.51-6.67,4.2
				C290.83,244.08,291.05,244.29,291.19,244.17L291.19,244.17z"/>
		</g>
	</g>
	<g>
		<g>
			<path class="st3" d="M292.9,243.42c2.43-1.46,4.86-2.93,7.29-4.39c0.17-0.1,0.01-0.36-0.15-0.26c-2.43,1.46-4.86,2.93-7.29,4.39
				C292.58,243.26,292.73,243.52,292.9,243.42L292.9,243.42z"/>
		</g>
	</g>
	<g>
		<g>
			<path class="st3" d="M293.95,241.27c1.97-1.65,4.17-3,6.53-4.03c0.18-0.08,0.02-0.34-0.15-0.26c-2.38,1.04-4.6,2.41-6.59,4.08
				C293.59,241.19,293.81,241.4,293.95,241.27L293.95,241.27z"/>
		</g>
	</g>
	<g>
		<g>
			<path class="st3" d="M296.2,239.59c2.42-1.45,4.97-2.67,7.61-3.65c0.18-0.07,0.1-0.36-0.08-0.29c-2.67,0.98-5.24,2.22-7.68,3.68
				C295.88,239.43,296.03,239.69,296.2,239.59L296.2,239.59z"/>
		</g>
	</g>
	<g>
		<g>
			<path class="st3" d="M298.17,240.96c2.08-1.3,4.31-2.34,6.65-3.08c0.18-0.06,0.1-0.35-0.08-0.29c-2.36,0.76-4.62,1.8-6.72,3.12
				C297.85,240.81,298.01,241.07,298.17,240.96L298.17,240.96z"/>
		</g>
	</g>
	<g>
		<g>
			<path class="st3" d="M300.13,240.83c2.2-1.41,4.71-2.27,7.31-2.5c0.19-0.02,0.19-0.32,0-0.3c-2.66,0.23-5.22,1.1-7.47,2.54
				C299.82,240.68,299.97,240.94,300.13,240.83L300.13,240.83z"/>
		</g>
	</g>
	<g>
		<g>
			<path class="st3" d="M300.75,239.85c2.27-1,4.63-1.8,7.04-2.39c0.19-0.05,0.11-0.33-0.08-0.29c-2.44,0.59-4.82,1.4-7.11,2.42
				C300.42,239.67,300.57,239.93,300.75,239.85L300.75,239.85z"/>
		</g>
	</g>
	<g>
		<g>
			<path class="st3" d="M298.43,239.16c0.4-0.72,1.1-1.16,1.82-1.51c0.81-0.4,1.67-0.73,2.54-0.98c1.71-0.49,3.48-0.68,5.26-0.58
				c0.19,0.01,0.19-0.29,0-0.3c-1.91-0.11-3.84,0.12-5.67,0.69c-1.47,0.46-3.41,1.1-4.21,2.53
				C298.08,239.18,298.33,239.33,298.43,239.16L298.43,239.16z"/>
		</g>
	</g>
	<g>
		<g>
			<path class="st3" d="M298.87,239.28c2.71-1.39,5.73-2.1,8.78-2.07c0.19,0,0.19-0.3,0-0.3c-3.1-0.03-6.17,0.69-8.93,2.11
				C298.55,239.11,298.7,239.37,298.87,239.28L298.87,239.28z"/>
		</g>
	</g>
	<g>
		<g>
			<path class="st3" d="M300.91,238.28c2.53-0.96,5.22-1.36,7.92-1.18c0.19,0.01,0.19-0.29,0-0.3c-2.72-0.18-5.45,0.23-8,1.19
				C300.66,238.05,300.73,238.34,300.91,238.28L300.91,238.28z"/>
		</g>
	</g>
	<g>
		<g>
			<path class="st3" d="M304.01,235.85c1.26-0.41,2.6-0.28,3.9-0.17c1.39,0.12,2.78,0.29,4.16,0.5c0.19,0.03,0.27-0.26,0.08-0.29
				c-1.41-0.22-2.82-0.39-4.24-0.51c-1.33-0.11-2.69-0.24-3.98,0.18C303.75,235.62,303.83,235.91,304.01,235.85L304.01,235.85z"/>
		</g>
	</g>
	<g>
		<g>
			<path class="st3" d="M305.8,235.97c2.85-1.09,5.87-0.23,8.53,0.97c0.17,0.08,0.33-0.18,0.15-0.26c-2.73-1.22-5.84-2.11-8.76-1
				C305.54,235.75,305.62,236.04,305.8,235.97L305.8,235.97z"/>
		</g>
	</g>
	<g>
		<g>
			<path class="st3" d="M307.18,237.43c2.86-0.65,5.66,0.49,8.25,1.59c0.18,0.07,0.26-0.22,0.08-0.29
				c-2.65-1.12-5.49-2.25-8.41-1.59C306.91,237.18,306.99,237.47,307.18,237.43L307.18,237.43z"/>
		</g>
	</g>
	<g>
		<g>
			<path class="st3" d="M308.74,238.32c2.57-0.12,5.13,0.19,7.6,0.92c0.19,0.05,0.26-0.23,0.08-0.29c-2.49-0.74-5.09-1.05-7.68-0.93
				C308.54,238.03,308.54,238.33,308.74,238.32L308.74,238.32z"/>
		</g>
	</g>
	<g>
		<g>
			<path class="st3" d="M308.04,238.57c2.76,0.16,5.5,0.54,8.2,1.12c0.19,0.04,0.27-0.25,0.08-0.29c-2.73-0.59-5.5-0.97-8.28-1.13
				C307.85,238.26,307.85,238.56,308.04,238.57L308.04,238.57z"/>
		</g>
	</g>
	<g>
		<g>
			<path class="st3" d="M309.18,236.38c2.91-0.43,5.94,0.42,8.2,2.3c0.15,0.12,0.36-0.09,0.21-0.21c-2.36-1.96-5.47-2.83-8.49-2.38
				C308.91,236.12,308.99,236.41,309.18,236.38L309.18,236.38z"/>
		</g>
	</g>
	<g>
		<g>
			<path class="st3" d="M314.33,236.92c2.12,1.04,4.08,2.37,5.82,3.95c0.14,0.13,0.36-0.08,0.21-0.21c-1.77-1.6-3.75-2.95-5.89-4
				C314.31,236.58,314.15,236.84,314.33,236.92L314.33,236.92z"/>
		</g>
	</g>
	<g>
		<g>
			<path class="st3" d="M314.34,238.18c2.62,0.75,4.9,2.49,6.31,4.83c0.1,0.17,0.36,0.01,0.26-0.15c-1.45-2.41-3.79-4.2-6.49-4.97
				C314.24,237.84,314.16,238.13,314.34,238.18L314.34,238.18z"/>
		</g>
	</g>
	<g>
		<g>
			<path class="st3" d="M316.41,239.31c1.26,0.84,2.64,1.49,4.09,1.93c0.19,0.06,0.26-0.23,0.08-0.29c-1.43-0.43-2.78-1.07-4.02-1.9
				C316.4,238.94,316.25,239.2,316.41,239.31L316.41,239.31z"/>
		</g>
	</g>
	<g>
		<g>
			<path class="st3" d="M315.61,238.35c-0.77-1.7-3.2-1.44-4.73-1.47c-2.07-0.04-4.15,0.06-6.12,0.74c-0.18,0.06-0.1,0.35,0.08,0.29
				c1.76-0.61,3.61-0.75,5.46-0.74c0.9,0,1.82,0.01,2.72,0.08c0.93,0.07,1.91,0.32,2.33,1.25
				C315.43,238.67,315.68,238.52,315.61,238.35L315.61,238.35z"/>
		</g>
	</g>
	<g>
		<g>
			<path class="st3" d="M308.54,236.23c-3.41-0.18-6.81,0.5-9.89,1.97c-0.17,0.08-0.02,0.34,0.15,0.26
				c3.03-1.45,6.38-2.11,9.73-1.93C308.73,236.54,308.73,236.24,308.54,236.23L308.54,236.23z"/>
		</g>
	</g>
	<g>
		<g>
			<path class="st3" d="M304.23,236.06c-3.3,0.55-6.48,1.68-9.4,3.33c-0.17,0.1-0.02,0.35,0.15,0.26c2.89-1.64,6.04-2.76,9.32-3.3
				C304.5,236.32,304.42,236.03,304.23,236.06L304.23,236.06z"/>
		</g>
	</g>
	<g>
		<g>
			<path class="st3" d="M300.1,237.83c-0.33,0.03-0.66,0.06-0.99,0.09c-0.08,0.01-0.15,0.06-0.15,0.15c0,0.08,0.07,0.16,0.15,0.15
				c0.33-0.03,0.66-0.06,0.99-0.09c0.08-0.01,0.15-0.06,0.15-0.15C300.25,237.91,300.19,237.82,300.1,237.83L300.1,237.83z"/>
		</g>
	</g>
	<g>
		<g>
			<path class="st3" d="M295.48,238.89c-1.11,0.57-2.18,1.22-3.19,1.95c-0.16,0.11-0.01,0.37,0.15,0.26
				c1.01-0.73,2.08-1.38,3.19-1.95C295.8,239.06,295.65,238.8,295.48,238.89L295.48,238.89z"/>
		</g>
	</g>
	<g>
		<g>
			<path class="st3" d="M297.96,239.08c-2.24,0.97-4.3,2.31-6.1,3.96c-0.14,0.13,0.07,0.34,0.21,0.21c1.78-1.63,3.83-2.95,6.04-3.91
				C298.28,239.27,298.13,239.01,297.96,239.08L297.96,239.08z"/>
		</g>
	</g>
	<g>
		<g>
			<path class="st3" d="M296.33,241.25c3.67-2.62,8.29-2.71,12.62-2.74c0.19,0,0.19-0.3,0-0.3c-4.38,0.03-9.06,0.13-12.77,2.78
				C296.02,241.1,296.17,241.36,296.33,241.25L296.33,241.25z"/>
		</g>
	</g>
	<g>
		<g>
			<path class="st3" d="M302.6,238.77c2.05-0.69,4.21-0.99,6.37-0.88c1.09,0.06,2.17,0.22,3.23,0.49c1.05,0.26,2.18,0.57,3.01,1.29
				c0.15,0.13,0.36-0.09,0.21-0.21c-0.77-0.66-1.74-0.98-2.7-1.25c-1.07-0.3-2.18-0.5-3.29-0.59c-2.33-0.19-4.68,0.11-6.9,0.86
				C302.34,238.54,302.42,238.83,302.6,238.77L302.6,238.77z"/>
		</g>
	</g>
	<g>
		<g>
			<path class="st3" d="M314.11,237.92c2.54,1.64,6.02,2.05,7.88,4.64c0.11,0.16,0.37,0.01,0.26-0.15c-1.9-2.66-5.39-3.07-7.99-4.75
				C314.1,237.55,313.95,237.81,314.11,237.92L314.11,237.92z"/>
		</g>
	</g>
	<g>
		<g>
			<path class="st3" d="M317.9,240.12c0.53,0.61,1.21,1.05,1.76,1.65c0.54,0.59,0.94,1.29,1.2,2.04c0.06,0.18,0.35,0.1,0.29-0.08
				c-0.26-0.76-0.66-1.47-1.19-2.08c-0.56-0.64-1.29-1.1-1.84-1.74C317.99,239.76,317.78,239.98,317.9,240.12L317.9,240.12z"/>
		</g>
	</g>
	<g>
		<g>
			<path class="st3" d="M318.99,241.1c1,0.67,1.87,1.52,2.55,2.51c0.11,0.16,0.37,0.01,0.26-0.15c-0.71-1.03-1.61-1.92-2.66-2.62
				C318.98,240.73,318.83,240.99,318.99,241.1L318.99,241.1z"/>
		</g>
	</g>
</g>
<g id="hår">
	<g>
		<path class="st20" d="M338.65,211c0.48,1.62,0.94,3.24,1.39,4.85c1.6,5.7,3.12,11.42,4.57,17.16c1.33,5.27,2.6,10.68,2.02,16.07
			c-1.07,9.86-11.55,20.36-21.24,22.44c-1.6-13.02,1.44-28.01-0.83-40.93c-2.27-12.92-7.79-26.01-18.51-33.56
			c-9.39-6.61-21.54-8.09-33-7.2c-10.33,0.81-20.52,3.38-29.99,7.58c-1.12,0.98-2.23,1.96-3.35,2.93c-0.37,0.33-0.87,0.67-1.32,0.47
			s-0.1-1.13,0.28-0.81c-1.41,5.83-5.79,10.38-9.35,15.21c-9.64,13.07-13.81,29.54-14.42,45.77s4.45,32.44,7.49,48.39
			c1.63,8.58,3.59,17.39,8.24,24.69c-6.37-5.02-15.18-10.03-21.56-15.04c-4.36-3.43-8.86-7.02-11.33-11.98
			c-1.47-2.95-2.13-6.23-2.77-9.47c-3.58-17.98-7.16-35.96-10.75-53.94c-2.27-11.39-4.55-22.87-4.54-34.49
			c0-4.51,0.36-9.08,1.92-13.31c1.42-3.88,3.8-7.33,6.42-10.53c11.83-14.46,28.45-24.04,44.69-33.29c2.63-1.5,5.37-3.03,8.38-3.3
			c4.4-0.39,8.58,1.99,12.98,2.4c3.58,0.34,7.14-0.63,10.68-1.26c17.13-3.05,35.56,2.23,48.47,13.9
			C326.68,175.9,333.49,193.48,338.65,211z"/>
	</g>
	<g>
		<path class="st21" d="M221.99,223.62c-9.07,4.93-15.26,13.73-21.12,22.23c-1.52,2.2-3.03,4.4-4.55,6.6
			c-1.55,2.24-3.13,4.53-5.32,6.16"/>
	</g>
	<g>
		<path class="st21" d="M224.4,215c-4,3.59-8.01,7.19-12.01,10.78c-2.96,2.66-5.94,5.32-9.26,7.51c-2.94,1.94-6.19,3.5-9.67,4.02
			c-3.48,0.51-7.22-0.11-10.05-2.2"/>
	</g>
	<g>
		<path class="st21" d="M230.56,208.4c-2.78-0.11-5.65-0.21-8.27,0.75c-1.97,0.72-3.67,2-5.43,3.14c-3.51,2.29-7.32,4.08-11.11,5.86
			c-4.07,1.91-8.33,3.87-12.83,3.7c-4.83-0.18-9.47-3.03-11.82-7.25"/>
	</g>
	<g>
		<path class="st21" d="M232.16,201.6c-6.5-0.73-12.82,2.01-18.87,4.51s-12.62,4.86-18.99,3.38c-5.79-1.35-10.67-6.06-12.23-11.8"/>
	</g>
	<g>
		<path class="st21" d="M249.46,190.47c-3.34-1.76-7.38-1.21-11.11-0.62c-2.82,0.45-5.65,0.9-8.41,1.64
			c-4.14,1.12-8.09,2.89-12.28,3.79c-4.19,0.9-8.85,0.81-12.41-1.56c-5-3.32-6.44-10.09-6.03-16.08"/>
	</g>
	<g>
		<path class="st21" d="M260.92,188.37c-1.89-2.41-4.35-4.37-7.13-5.67c-5.39-2.52-11.62-2.45-17.52-1.7
			c-5.9,0.75-11.75,2.14-17.7,2.11c-2.89-0.02-5.96-0.45-8.18-2.3c-2.51-2.1-3.38-5.52-4.12-8.7"/>
	</g>
	<g>
		<path class="st21" d="M260.76,176.08c-2.08-2.36-5.08-3.75-8.15-4.42s-6.24-0.69-9.39-0.7c-2.45-0.01-4.91-0.02-7.35,0.22
			c-4.18,0.41-8.35,1.56-12.51,1.04c-4.16-0.53-8.48-3.42-8.77-7.61"/>
	</g>
	<g>
		<path class="st21" d="M261.28,165.74c-1.84-1.8-4.21-3.05-6.74-3.56c-3.51-0.71-7.13,0-10.71,0.29
			c-4.38,0.35-8.82,0.06-13.12-0.86c-1.41-0.3-2.95-0.77-3.71-2.01c-0.53-0.85-0.81-2.14-1.81-2.23"/>
	</g>
	<g>
		<path class="st21" d="M273.78,184.78c5.37-4.24,12.49-5.4,19.3-6.07c6.81-0.68,13.86-1.07,19.97-4.15
			c1.89-0.95,3.79-2.34,4.3-4.39"/>
	</g>
	<g>
		<path class="st21" d="M276.82,176.51c2.33-2.29,5.77-2.94,8.99-3.49c3.78-0.64,7.57-1.28,11.4-1.5c3.19-0.18,6.53-0.11,9.36-1.58
			c2.16-1.12,3.85-3.11,4.6-5.42"/>
	</g>
	<g>
		<path class="st21" d="M275.84,171.54c2.05-4.08,6.67-6.21,11.15-7.09c4.48-0.88,9.13-0.81,13.53-2c1.57-0.42,3.18-1.07,4.14-2.38"
			/>
	</g>
	<g>
		<path class="st21" d="M274.47,163.81c0.58-1.85,2.2-3.22,3.98-3.98s3.73-1,5.65-1.26c2.25-0.31,4.51-0.66,6.63-1.44
			c2.13-0.79,4.13-2.05,5.47-3.88"/>
	</g>
	<g>
		<path class="st21" d="M301.27,190.7c0.7,0.51,1.66,0.35,2.5,0.16c1.93-0.42,3.87-0.84,5.7-1.58c4.93-2,8.63-6.1,12.16-10.07"/>
	</g>
	<g>
		<path class="st21" d="M314.42,198.17c2,0.42,4,0.97,5.79,1.96c2.68,1.49,4.72,3.88,6.7,6.21c3.46,4.08,6.94,8.2,9.5,12.89
			c1.77,3.24,3.35,7,6.69,8.56"/>
	</g>
	<g>
		<path class="st21" d="M319.57,208.68c5.81,3.2,9.49,9.2,12.37,15.17s5.32,12.31,9.7,17.3"/>
	</g>
	<g>
		<path class="st21" d="M209.64,254.67c-2.87,0.89-5.15,3.13-6.8,5.64c-3.95,6.03-4.69,14.04-1.89,20.69
			c0.89,2.12,2.11,4.09,2.92,6.25c2.74,7.24,0.56,15.32-1.63,22.75"/>
	</g>
	<g>
		<path class="st21" d="M211.73,260.44c-3.45,5.56-5.03,12.25-4.43,18.76c0.35,3.86,1.44,7.61,2.34,11.38
			c2.07,8.65,3.16,17.67,1.72,26.45"/>
	</g>
	<g>
		<path class="st21" d="M327.62,234.74c3.02,1.25,4.89,4.36,5.77,7.51s0.99,6.46,1.67,9.65c0.2,0.94,0.45,1.88,0.89,2.74
			c0.78,1.51,2.11,2.67,3.4,3.78"/>
	</g>
	<g>
		<path class="st22" d="M203.96,288.14c-0.35-0.35-0.69-0.72-1-1.1c-1.84-2.21-3.05-4.86-4.23-7.48
			c-2.52-5.57-5.08-11.26-5.67-17.34c-0.21-2.15-0.11-4.51,1.27-6.17c1.82-2.21,5.25-2.34,7.93-1.32c1.64,0.62,3.1,1.58,4.56,2.56
			c6.26,0.81,8.52,6.85,9.54,12.28c1.32,7.05,1.51,14.31,0.57,21.42c-0.09,0.64-0.19,1.3-0.51,1.86c-0.71,1.22-2.36,1.64-3.74,1.34
			c-1.38-0.3-2.57-1.15-3.72-1.98C207.21,290.94,205.46,289.66,203.96,288.14z"/>
	</g>
	<g>
		<path class="st7" d="M206.86,292c-0.35-0.35-0.69-0.72-1-1.1c-1.84-2.21-3.05-4.86-4.23-7.48c-2.52-5.57-5.08-11.26-5.67-17.34
			c-0.21-2.15-0.11-4.51,1.27-6.17c1.82-2.21,5.25-2.34,7.93-1.32c1.64,0.62,3.1,1.58,4.56,2.56c6.26,0.82,8.52,6.85,9.54,12.28
			c1.32,7.05,1.51,14.31,0.57,21.42c-0.09,0.64-0.19,1.3-0.51,1.86c-0.71,1.22-2.36,1.64-3.74,1.34c-1.38-0.3-2.57-1.15-3.72-1.98
			C210.11,294.8,208.36,293.52,206.86,292z"/>
	</g>
	<g>
		<path class="st22" d="M334.84,246.05c-0.74,0.08-1.48,0.26-2.21,0.44c-0.9,0.23-1.86,0.49-2.43,1.22
			c-0.43,0.54-0.56,1.24-0.79,1.89c-0.57,1.66-1.73,3.04-2.67,4.52c-2.52,4-3.42,8.86-3.22,13.58c0.19,4.61,1.38,9.12,2.83,13.51
			c3.89-1.31,5.36-5.57,6.45-9.36c1.97-6.84,3.95-13.68,5.92-20.52c0.33-1.16,0.66-2.43,0.15-3.52c-0.49-1.05-1.67-1.65-2.82-1.76
			C335.65,246,335.24,246.01,334.84,246.05z"/>
	</g>
	<g>
		<path class="st7" d="M334.84,249.72c-0.74,0.08-1.48,0.26-2.21,0.44c-0.9,0.23-1.86,0.49-2.43,1.22
			c-0.43,0.54-0.56,1.24-0.79,1.89c-0.57,1.66-1.73,3.04-2.67,4.52c-2.52,4-3.42,8.86-3.22,13.58c0.19,4.61,1.38,9.12,2.83,13.51
			c3.89-1.31,5.36-5.57,6.45-9.36c1.97-6.84,3.95-13.68,5.92-20.52c0.33-1.16,0.66-2.43,0.15-3.52c-0.49-1.05-1.67-1.65-2.82-1.76
			C335.65,249.67,335.24,249.68,334.84,249.72z"/>
	</g>
	<g>
		<path class="st22" d="M327.08,268.33c0.35-1.13,0.69-2.26,1.04-3.39c0.16-0.53,0.34-1.09,0.71-1.5c0.37-0.41,1.01-0.65,1.51-0.39
			c0.46,0.24,0.64,0.8,0.67,1.31c0.13,2.13-1.6,3.86-2.44,5.82c-0.51,1.2-0.7,2.53-0.53,3.82c0.04,0.34,0.13,0.71,0.4,0.92
			c0.27,0.21,0.77,0.12,0.82-0.22"/>
	</g>
	<g>
		<path class="st22" d="M209.1,278.12c-1.06-0.25-1.95-1.12-2.22-2.18c-0.27-1.05,0.09-2.25,0.9-2.98c0.26-0.23,0.58-0.43,0.93-0.41
			c0.48,0.02,0.85,0.41,1.12,0.81c1.27,1.84,1.61,4.29,0.87,6.4c1.03-0.65,1.48-1.97,1.42-3.18s-0.56-2.36-1.06-3.47
			c-0.5-1.11-1.1-2.29-2.19-2.83c-1.04-0.52-2.31-0.32-3.34,0.22c-1.02,0.55-1.84,1.4-2.64,2.23"/>
	</g>
</g>
<g id="ram">
	<g>
		<path class="st23" d="M23.61,196.18V21.02c0,0,0-0.3,0-0.6c0,0,175.16,0,175.16,0"/>
		<path class="st23" d="M22.28,296.06v175.16c0,0,0,4.01,0,8.01c1.33,0,2.67,0,2.67,0l175.16,0"/>
		<circle class="st23" cx="23.55" cy="216.57" r="8.43"/>
		<circle class="st23" cx="23.61" cy="239.02" r="8.5"/>
		<circle class="st23" cx="23.55" cy="262.42" r="8.43"/>
		<circle class="st23" cx="23.55" cy="283.46" r="8.43"/>
		<path class="st23" d="M482.34,303.82l0,175.16c0,0,0,0.3,0,0.6l-175.16,0"/>
		<path class="st23" d="M482.34,203.59l0-175.16c0,0,0-4.01,0-8.01c-4.24,0-8.47,0-8.47,0l-175.16,0"/>
		<circle class="st23" cx="482.4" cy="283.43" r="8.43"/>
		<circle class="st23" cx="482.34" cy="260.98" r="8.5"/>
		<circle class="st23" cx="482.4" cy="237.58" r="8.43"/>
		<circle class="st23" cx="482.4" cy="216.54" r="8.43"/>
	</g>
	<g>
		<polyline class="st23" points="64.36,40.98 46.87,40.98 46.87,58.78 		"/>
		<polyline class="st23" points="118.75,40.98 136.24,40.98 136.24,58.78 		"/>
		<polyline class="st23" points="64.36,130.08 46.87,130.08 46.87,112.29 		"/>
		<polyline class="st23" points="118.75,130.08 136.24,130.08 136.24,112.29 		"/>
	</g>
	<path class="st24" d="M66.8,101.53c-2.24-2.62-3.08-9.2-3-9.97s-0.09-1.56-0.27-2.32c-0.17-0.74-0.34-1.47-0.51-2.21
		c-0.24-1.03-0.47-2.07-0.44-3.12c0.04-1.7,0.78-3.31,1.73-4.72c0.53-0.78,1.17-1.54,2.04-1.89c-1.02,2.76-0.61,6,1.06,8.42
		c0.79-2,1.22-4.16,1.03-6.29c-0.23-2.61-1.37-5.04-2.49-7.4c1.95,1.85,3.38,4.17,4.78,6.46c1.07-2.11,1.27-4.57,0.96-6.92
		s-1.09-4.6-1.91-6.81c1.51,1.77,2.9,3.64,4.17,5.59c0.71,1.1,1.41,2.33,1.33,3.64c0.53-0.84,1.06-1.69,1.8-2.34
		c0.74-0.65,1.73-1.09,2.71-0.95c-1.92,1.71-3.26,4.06-3.75,6.58c0.44-0.43,1.02-0.89,1.61-0.72c0.28,0.08,0.5,0.3,0.69,0.52
		c0.47,0.54,0.86,1.21,0.81,1.92s-0.73,1.4-1.42,1.24c-0.23-0.05-0.47-0.24-0.46-0.47c0-0.24,0.37-0.41,0.49-0.21
		c-0.01-0.34-0.14-0.68-0.37-0.93c-0.54,0.07-0.96,0.54-1.13,1.05c-0.18,0.51-0.16,1.07-0.14,1.61c0.05,1.27,0.09,2.54,0.14,3.8
		c0.35-1.7,1.24-3.29,2.5-4.49c-1.1,2.64-0.76,5.83,0.88,8.18c0.26,0.38,0.57,0.75,1,0.93c0.42,0.19,0.98,0.14,1.26-0.22
		c0.31-0.39,0.21-0.96,0.06-1.44c-0.46-1.45-1.18-2.93-0.82-4.41c0.3-1.26,1.32-2.19,2.15-3.18s1.54-2.32,1.08-3.53
		c1.03,0.94,0.83,2.63,0.25,3.89c-0.58,1.27-1.45,2.46-1.56,3.85c0.39-1.22,1.25-2.23,1.95-3.3s1.28-2.36,0.99-3.61
		c0.61,0.92,0.83,2.09,0.58,3.16c0.6-1.09,1.04-2.28,1.29-3.5c0.13-0.62,0.19-1.33-0.2-1.84c0.99,1.51,0.92,3.52,0.24,5.19
		c-0.41,1.01-1.05,2.01-0.96,3.11c0.04,0.49,0.23,0.96,0.41,1.42c0.31,0.77,0.62,1.54,0.93,2.31l0.41-0.11
		c0.7-0.35,1.09-1.14,1.17-1.92s-0.09-1.56-0.27-2.32c-0.17-0.74-0.34-1.47-0.51-2.21c-0.24-1.03-0.47-2.07-0.44-3.12
		c0.04-1.7,0.78-3.31,1.73-4.72c0.53-0.78,1.17-1.54,2.04-1.89c-1.02,2.76-0.61,6,1.06,8.42c0.79-2,1.22-4.16,1.03-6.29
		c-0.23-2.61-1.37-5.04-2.49-7.4c1.95,1.85,3.38,4.17,4.78,6.46c1.07-2.11,1.27-4.57,0.96-6.92s-1.09-4.6-1.91-6.81
		c1.51,1.77,2.9,3.64,4.17,5.59c0.71,1.1,1.41,2.33,1.33,3.64c0.53-0.84,1.06-1.69,1.8-2.34c0.74-0.65,1.73-1.09,2.71-0.95
		c-1.92,1.71-3.26,4.06-3.75,6.58c0.44-0.43,1.02-0.89,1.61-0.72c0.28,0.08,0.5,0.3,0.69,0.52c0.47,0.54,0.86,1.21,0.81,1.92
		s-0.73,1.4-1.42,1.24c-0.23-0.05-0.47-0.24-0.46-0.47s0.37-0.41,0.49-0.21c-0.01-0.34-0.14-0.68-0.37-0.93
		c-0.54,0.07-0.96,0.54-1.13,1.05c-0.18,0.51-0.16,1.07-0.14,1.61c0.05,1.27,0.09,2.54,0.14,3.8c0.35-1.7,1.24-3.29,2.5-4.49
		c-1.1,2.64-0.76,5.83,0.88,8.18c0.26,0.38,0.57,0.75,1,0.93c0.42,0.19,0.98,0.14,1.26-0.22c0.31-0.39,0.21-0.96,0.06-1.44
		c-0.46-1.45-1.18-2.93-0.82-4.41c0.3-1.26,1.32-2.19,2.15-3.18s1.54-2.32,1.08-3.53c1.03,0.94,0.83,2.63,0.25,3.89
		c-0.58,1.27-1.45,2.46-1.56,3.85c0.39-1.22,1.25-2.23,1.95-3.3s1.28-2.36,0.99-3.61c0.61,0.92,0.83,2.09,0.58,3.16
		c0.6-1.09,1.04-2.28,1.29-3.5c0.13-0.62,0.19-1.33-0.2-1.84c0.99,1.51,0.92,3.52,0.24,5.19c-0.41,1.01-1.05,2.01-0.96,3.11
		c0.04,0.49,0.23,0.96,0.41,1.42c0.31,0.77,0.62,1.54,0.93,2.31C117.86,99.89,84.89,122.68,66.8,101.53z"/>
</g>
</svg>
