<?xml version="1.0" encoding="utf-8"?>
<!-- Generator: Adobe Illustrator 24.0.0, SVG Export Plug-In . SVG Version: 6.00 Build 0)  -->
<svg version="1.1" xmlns="http://www.w3.org/2000/svg" xmlns:xlink="http://www.w3.org/1999/xlink" x="0px" y="0px" width="500px"
	 height="500px" viewBox="0 0 500 500" style="enable-background:new 0 0 500 500;" xml:space="preserve">
<style type="text/css">
	.st0{fill:#3E383C;}
	.st1{opacity:0.46;}
	.st2{fill:#73A9CB;}
	.st3{fill:#6C9EB7;}
	.st4{fill:#042B3A;}
	.st5{fill:#043148;}
	.st6{fill:#02314D;}
	.st7{fill:#00111E;}
	.st8{fill:#93C8E7;}
	.st9{fill:#256D95;}
	.st10{fill:#013A57;}
	.st11{fill:#065574;}
	.st12{fill:#03374C;}
	.st13{fill:#3B7FA6;}
	.st14{fill:#062F5D;}
	.st15{fill:none;stroke:#000000;stroke-width:2;stroke-miterlimit:10;}
	.st16{opacity:0.69;}
	.st17{fill:#6FA2BC;}
	.st18{fill:#7696A3;}
	.st19{fill:#648FA0;}
</style>
<g id="Lager_1">
	<rect x="-4.31" y="-11" class="st0" width="513" height="556"/>
</g>
<g id="skugga">
	<g class="st1">
		<g>
			<g>
				<path d="M178.65,120.57c21.65-16.1,49.35-24.82,76.54-24.79c10.38,0.01,20.84,1.16,30.65,4.53c9.45,3.25,18.1,8.48,26.23,14.29
					c6.6,4.71,13.01,9.94,17.52,16.67c6.54,9.75,8.55,21.76,10.4,33.35c2.43,15.23,4.85,30.9,1.45,45.95
					c-1.34,5.9-3.57,11.72-3.33,17.76c0.17,4.26,1.56,8.41,1.67,12.67c0.11,4.72-1.36,9.31-2.82,13.8
					c-2.33,7.17-4.66,14.34-6.99,21.5c-6.5,19.99-13.35,40.63-27.43,56.24c-4.48,4.97-9.95,10.09-11.04,16.45
					c-7.4,11.71-15.88,24.54-29.25,28.44c-5.83,1.7-12.03,1.49-18.1,1.26c-21.93-0.83-44.19-1.72-65.08-8.46
					c-7.87-2.54-16.1-6.46-19.72-13.9c-1.63-3.36-2.16-7.14-2.39-10.86c-0.75-12.29,1.55-24.68,0.13-36.91
					c-1.14-9.85-4.65-19.23-7.8-28.63c-6.77-20.19-12.02-41.07-13.03-62.34s2.4-43.05,12.17-61.98
					C155.64,141.64,166.14,129.87,178.65,120.57z"/>
			</g>
			<g>
				<path d="M143.64,261.14c3.32,4.32,6.74,8.6,10.85,12.16c0.61,0.53,1.28,1.06,2.08,1.19c1.68,0.26,3.05-1.36,3.71-2.93
					c0.99-2.37,1.23-4.98,1.46-7.54c1.99-22.33,3.83-45.72-4.67-66.41c-8.87,2.14-18.64-4.34-26.9-0.53
					c-6.31,2.92-8.77,10.75-8.69,17.7c0.21,16.84,10.84,31.54,21.07,44.92C142.91,260.19,143.27,260.66,143.64,261.14z"/>
			</g>
			<g>
				<path d="M131.1,233.37c-2.31-1.48-2.77-4.6-3.01-7.33c-0.34-3.92-0.67-8,0.73-11.68c1.56-4.13,5.35-7.35,9.68-8.22
					c4.33-0.88,9.06,0.61,12.11,3.81c3.45,3.62,4.55,8.85,5.02,13.82c0.26,2.82,0.37,5.65,0.33,8.47c-0.03,1.72-0.19,3.63-1.42,4.83
					c-1.11,1.09-2.78,1.31-4.33,1.38c-4.05,0.2-8.61-0.46-11.08-3.67c-1.06-1.38-1.6-3.08-1.93-4.78c-0.46-2.36-0.5-4.97,0.77-7.01
					c1.27-2.05,4.19-3.19,6.2-1.86c2.75,1.82,1.76,5.97,1.99,9.26c2.82-1.55,3.66-5.22,3.57-8.44c-0.07-2.46-0.53-4.96-1.79-7.06
					c-1.26-2.11-3.43-3.77-5.87-3.99c-4.31-0.4-7.88,3.65-9.04,7.82c-1.16,4.17-0.71,8.62-1.35,12.9"/>
			</g>
			<g>
				<path d="M256.57,264.56c-0.44-0.49-1.21-0.24-1.78,0.04c-3.79,1.84-7.42,4.02-10.86,6.5c-2.03,1.47-4.18,3.41-4.23,5.99
					c-0.01,0.35,0.04,0.73,0.27,0.99c0.24,0.26,0.61,0.32,0.96,0.34c2.86,0.17,5.47-1.5,8.11-2.66c3.36-1.48,6.98-2.17,10.57-2.85
					c2.66-0.5,5.34-1.01,8.03-0.87c2.9,0.15,5.72,1.03,8.48,1.96c2.42,0.82,4.84,1.67,7.15,2.79c3.74,1.81,7.15,4.29,10.53,6.75
					c1.42,1.03,2.86,2.08,4.04,3.41c1.75,1.97,3.21,4.71,5.77,5.03c0.29,0.04,0.6,0.03,0.85-0.12c0.33-0.2,0.49-0.59,0.61-0.97
					c0.79-2.62,0.23-5.46-0.41-8.12c-0.85-3.49-1.9-7.03-3.98-9.9c-4.07-5.6-11.17-7.6-17.78-8.95c-8.56-1.74-17.94-2.86-25.58,1.54
					"/>
			</g>
			<g>
				<path d="M305.33,275.87c1.66,4.78,1.74,10.11-0.6,14.48c-11.57-17.34-34.83-26.06-54.92-20.37c-2.73,0.77-5.47,1.83-7.51,3.8
					c-1.4,1.35-2.41,3.09-2.88,4.96c6.69,0.12,13.39-0.37,19.99-1.45c2.58-0.42,5.16-0.94,7.77-1.06
					c13.03-0.61,24.3,8.33,34.55,16.4c1.29,1.02,3.09,2.06,4.45,1.13c-0.23-0.94-0.46-1.89-0.69-2.83
					c-0.61-9.39-6.31-18.27-14.55-22.79c-1.73-0.95-3.57-1.72-5.5-2.11c-3.25-0.65-6.62-0.2-9.91,0.25
					c-5.88,0.81-11.76,1.62-17.65,2.44c-2.99,0.41-6.03,0.84-8.82,1.98c-4.7,1.92-8.53,5.8-13.45,7.07
					c5.28-9.85,15.13-17.14,26.1-19.31c5.05-1,10.26-0.97,15.4-0.64c3.79,0.24,7.61,0.65,11.23,1.82
					c6.14,1.99,11.51,6.24,14.88,11.75C304.07,272.78,304.79,274.3,305.33,275.87z"/>
			</g>
			<g>
				<path d="M265.79,215.57c-3.4,1.43-6.05,4.53-6.94,8.11c-0.89,3.58,0.01,7.56,2.36,10.41c1.13,1.38,2.56,2.49,3.8,3.77
					c-4.2-1.85-7.16-6.23-7.31-10.81s2.51-9.15,6.58-11.27"/>
			</g>
			<g>
				<path d="M274.05,223.1c-1.14,0.64-2.02,1.92-2.2,3.25c-0.28,2.16,0.76,4.28,1.93,6.11c2.11,3.29,4.9,6.34,8.64,7.61
					c0.9-5.26-0.41-10.85-3.53-15.17c-0.65-0.9-1.44-1.79-2.51-2.11C275.57,222.55,274.76,222.7,274.05,223.1z"/>
			</g>
			<g>
				<path d="M306.44,236.12c0.07-0.95-0.23-1.81-1.09-2.27c-0.55-0.3-1.21-0.34-1.84-0.31c-4.29,0.19-8.33,3.21-9.71,7.28
					c-0.06,0.19-0.03,0.41,0.04,0.61c0.04,0.31,0.16,0.6,0.36,0.83c0.78,0.88,2.13,0.97,3.3,0.82c2.74-0.35,5.35-1.63,7.31-3.58
					C305.69,238.63,306.35,237.31,306.44,236.12z"/>
			</g>
			<g>
				<path d="M276.33,182.21c6.4-2.57,13.02-4.6,19.76-6.08"/>
			</g>
			<g>
				<path d="M296.52,175.09c2.68,4.58,5.82,8.89,9.37,12.83"/>
			</g>
			<g>
				<path d="M284.86,184.89c1.31-1.56,3.79-1.26,5.7-0.54c1.91,0.72,3.92,1.75,5.88,1.18"/>
			</g>
			<g>
				<path d="M291.7,163.7c-2.27-7.3-7.93-12.95-13.39-18.3c-1.86-1.82-3.79-3.68-6.23-4.58c-2.48-0.91-5.59-0.93-7.12-3.09"/>
			</g>
			<g>
				<path d="M285.63,164.94c-6.21-6.85-13.24-12.94-20.9-18.11c-1.37-0.92-2.79-1.83-4.39-2.26c-1.52-0.4-3.15-0.34-4.64,0.17"/>
			</g>
			<g>
				<path d="M298.72,164.79c-0.55-2.98,1.15-6.04,3.6-7.83s5.52-2.5,8.53-2.85c3.84-0.45,7.75-0.39,11.57,0.18"/>
			</g>
			<g>
				<path d="M164.02,297.81c20.27,23.34,49.36,38.94,80.17,42.33c-29.75-6.1-62.23-18.59-81.34-43.7
					C163.24,296.9,163.63,297.36,164.02,297.81z"/>
			</g>
			<g>
				<path d="M167.43,310.05c-0.5-0.6-0.99-1.2-1.48-1.8c14.63,19.94,36.9,34.13,61.16,38.96c0,0,1.96,0.39,3.93,0.78
					c-0.05,0-0.1,0-0.1,0c-13.14,0.05-25.95-4.98-36.79-12.4C183.95,328.61,175.34,319.58,167.43,310.05z"/>
			</g>
			<g>
				<path d="M233.34,307.09c-0.87,0.94-2,1.66-3.16,2.24c-5.25,2.64-12.05,2.82-16.7-0.78c-4.09-3.17-5.53-9.58-2.93-13.85
					c0.03,3.51,2.92,7.03,6.32,8.57c5.46,2.47,12.33,1.43,16.81-2.56c1.37,1.22,1.45,3.45,0.59,5.07
					C234.02,306.27,233.71,306.7,233.34,307.09z"/>
			</g>
			<g>
				<path d="M290.72,319.53c-1.45-8.65-4.43-18.03-12.04-22.39c-4.96-2.84-11.18-2.94-16.62-1.2c-5.45,1.74-10.21,5.17-14.39,9.08
					c4.55-4.19,9.85-8.28,16.03-8.5c6.11-0.22,13.69,2.02,18.74,5.48c1.02,0.7,2.32,2.96,3,4c0.64,0.98,0.51,1.93,1,3
					c1.69,3.69,4.31,6.48,3.71,10.49"/>
			</g>
			<g>
				<path d="M243.58,302.96c-0.43,0.26-0.88,0.49-1.35,0.7c2.86-3.95,5.91-8.06,10.32-10.13c2.66-1.25,5.64-1.66,8.57-1.86
					c5.15-0.34,10.63,0.02,14.94,2.85c2.68,1.77,4.75,4.39,7.56,5.95c1.29,0.72,2.72,1.2,3.92,2.05c0.69,0.49,1.27,1.06,1.77,1.69
					c-0.85-1.71-1.82-3.35-2.98-4.87c-3.93-5.15-10.03-8.58-16.47-9.27c-6.44-0.69-13.13,1.37-18.06,5.57
					C249.01,298.04,246.7,301.11,243.58,302.96z"/>
			</g>
			<g>
				<path d="M299.96,319.51c-2.08-5.79-4.66-11.4-7.7-16.75c-1.71-3.01-3.59-5.97-6.04-8.42c-1.68-1.67-3.6-3.09-5.66-4.26
					c-12.11-6.87-28.91-3.9-37.92,6.72c3.34-6.9,10.75-11.32,18.37-12.16c7.62-0.84,15.35,1.54,21.91,5.5
					c1.73,1.04,3.41,2.2,4.8,3.67c1.71,1.81,2.92,4.01,4.12,6.2c2.63,4.8,6.6,8,7.88,14.41"/>
			</g>
			<g>
				<path d="M138.01,346.08c-0.05-3.11-0.59-6.3,0.53-9.18c1.67-4.25,7.22-6.47,11.36-4.53c4.14,1.94,5.98,7.63,3.78,11.63
					c1.21-2.37,2.43-4.73,3.64-7.1c-1.22,4.41-1.15,9.17,0.22,13.54c0.94-1.82,2.54-3.29,4.43-4.07c-0.91,3.06-0.66,6.45,0.68,9.35
					c1.44-2.34,2.89-4.68,4.33-7.02c0.19,3.16,0.39,6.32,0.58,9.48c1.74-3.36,4.6-6.13,8.02-7.75c0.68,3.91,1.35,7.82,2.03,11.73
					c2.33-2.69,4.65-5.38,6.98-8.07c0.72,2.43,1.44,4.86,2.16,7.29c2.76-1.8,5.53-3.59,8.29-5.39c0.47,3.71,0.94,7.43,1.41,11.14
					c3.67-1.33,7-3.6,9.59-6.52c0.16,2.45,0.32,4.9,0.48,7.34c1.2-3.24,4.04-5.82,7.37-6.71c0.33,2.63,0.65,5.26,0.98,7.88
					c3.56-3.87,7.11-7.73,10.67-11.6c1.15,4.07,2.29,8.14,3.44,12.21c0-4.79,2.71-9.49,6.85-11.9c0.41,4.61,1.94,9.11,4.43,13.01
					c1.68-4.19,4.41-7.95,7.86-10.85c0.09,4.18,1.95,8.3,5.02,11.14c1.24-4.07,2.49-8.13,3.73-12.2c2.12,2.59,4.24,5.18,6.36,7.77
					c-0.16-3.99,0.63-8.02,2.27-11.66c1.7,2.13,3.39,4.25,5.09,6.38c1.05-3.7,2.1-7.41,3.16-11.11c1.92,2.17,3.83,4.34,5.75,6.52
					c0.15-4.16,1.13-8.3,2.86-12.09c1.27,1.88,2.54,3.76,3.81,5.64c1.02-3.39,2.04-6.78,3.06-10.18c5.22-0.93,9.28,5.11,9.22,10.41
					c-0.05,5.3-2.58,10.26-3.31,15.51c-0.73,5.25,1.35,11.76,6.54,12.86c4.97,1.06,9.23-3.35,13.85-5.49
					c6.29-2.91,13.63-1.55,20.41-0.14C388.31,384.27,441,395.28,490.75,415c2.68,1.06,5.48,2.24,7.25,4.52
					c1.74,2.23,2.22,5.18,2.58,7.99c2.3,18.25,1.64,36.87-1.94,54.92c-0.64,3.24-1.45,6.61-3.67,9.05
					c-2.56,2.82-6.49,3.87-10.19,4.79c-12.13,3-24.25,6-36.38,8.99c-5.66-1.95-11.91-0.57-17.83,0.54
					c-25.18,4.71-51.04,3.86-76.64,2.99c-81.41-2.77-162.81-5.53-244.22-8.3c-15.59-0.53-31.2-1.06-46.79-0.46
					c-20.19,0.78-40.26,3.44-60.37,5.43c-5.67,0.56-12.2,0.77-16.15-3.35c-2.89-3.02-3.48-7.5-3.89-11.65
					c-2.43-24.44-3.75-48.99-3.94-73.55c-0.06-7.27,2.82-17.61,12.64-12.25c31.55-4.25,62.41-13.57,91.03-27.51
					c4.39-2.14,8.86-4.42,13.72-4.83c4.86-0.41,10.29,1.55,12.41,5.95c13.69-6.6,29.39-16.18,29.63-31.37
					C138.02,346.62,138.02,346.35,138.01,346.08z"/>
			</g>
			<g>
				<path d="M147.1,345.19c1.23,15.56-10.39,31.12-25.66,34.36"/>
			</g>
			<g>
				<path d="M157.26,353.09c-1.66,7.54-4.08,15.05-8.47,21.4c-4.39,6.35-10.98,11.47-18.59,12.78"/>
			</g>
			<g>
				<path d="M164.83,358.95c-0.83,13.67-9.88,26.52-22.48,31.89"/>
			</g>
			<g>
				<path d="M175.17,362.25c-1.89,13.56-11.89,30.28-22.23,39.25"/>
			</g>
			<g>
				<path d="M188.13,366.15c-1.98,9.37-6.01,18.3-11.73,25.98c-1.79,2.41-15.46,15.36-18.46,15.38"/>
			</g>
			<g>
				<path d="M200.48,371.04c-2.59,11.58-25.59,37.99-35.53,44.46"/>
			</g>
			<g>
				<path d="M213.82,373.55c-2.2,9.71-33.04,43.79-40.87,49.95"/>
			</g>
			<g>
				<path d="M222.69,372.73c-0.8,9.58-37.36,54.59-43.75,61.77"/>
			</g>
			<g>
				<path d="M232.11,374.35c0.09,9.08-2.21,18.17-6.62,26.11"/>
			</g>
			<g>
				<path d="M235.04,375.98c-0.01,6.6,3.69,12.56,7.25,18.11c1.46,2.28,34.15,48.45,36.65,47.41"/>
			</g>
			<g>
				<path d="M247.01,374.36c-1.57,9.07,27.83,53.74,36.93,55.14"/>
			</g>
			<g>
				<path d="M254.95,372.76c3.44,7.34,27.24,43.36,34.99,45.74"/>
			</g>
			<g>
				<path d="M268.22,367.91c0.57,8.39,18.4,32.45,26.73,33.59"/>
			</g>
			<g>
				<path d="M276.13,363.76c2.31,4.09,4.65,8.24,7.93,11.61c3.28,3.37,9.18,16.04,13.88,16.14"/>
			</g>
			<g>
				<path d="M285.72,354.05c0.2-0.3-0.43-0.56-0.64-0.26c-0.21,0.29-0.06,0.7,0.08,1.03c1.68,3.73,3.36,7.46,5.03,11.19
					c1.95,4.34,5.02,13.86,9.74,14.5"/>
			</g>
			<g>
				<path d="M-11.68,439.68C-1,454.59,9.68,469.5,20.37,484.4"/>
			</g>
			<g>
				<path d="M-11.82,411.45c21.8,24.47,41.4,50.89,58.49,78.85"/>
			</g>
			<g>
				<path d="M5.94,403.5c23.12,28.67,42.37,56.61,60.91,88.43"/>
			</g>
			<g>
				<path d="M27.94,399.5c11.07,13.68,19.28,25.49,28.02,40.76c9.52,16.64,17.7,34.3,30.26,48.78"/>
			</g>
			<g>
				<path d="M46.82,393.57c24.22,25.55,44.43,54.9,59.66,86.64"/>
			</g>
			<g>
				<path d="M66.31,384.9c22.65,29.24,42.62,60.55,59.58,93.42"/>
			</g>
			<g>
				<path d="M83.89,377.15c23.08,26.2,43.42,54.81,60.58,85.22"/>
			</g>
			<g>
				<path d="M106.09,376.02c18.9,24.36,36.52,49.71,52.77,75.92"/>
			</g>
			<g>
				<path d="M114.07,377.14c15.06,8.65,30.4,17.52,41.93,30.5c3.94,4.44,7.38,9.29,10.81,14.14c4.6,6.49,9.19,12.98,13.79,19.48"/>
			</g>
			<g>
				<path d="M277.53,446.67c10.47-22.01,18.29-45.29,23.23-69.16"/>
			</g>
			<g>
				<path d="M315.66,372.7c-3.19,15.66-6.37,31.32-9.56,46.98c-1.25,6.14-2.5,12.29-3.24,18.51c-0.66,5.51-0.91,11.07-0.76,16.62"/>
			</g>
			<g>
				<path d="M336.17,372.72c-2.25,11.01-4.5,22.02-6.74,33.03c-3.66,17.91-7.33,36.03-6.61,54.3"/>
			</g>
			<g>
				<path d="M354.94,376.79c-0.2,21.57-2.76,43.12-7.64,64.14c-2.02,8.71-4.45,17.6-3.22,26.45"/>
			</g>
			<g>
				<path d="M376.69,383.97c-5.69,31.01-11.37,62.01-17.06,93.02"/>
			</g>
			<g>
				<path d="M395.75,389.04c-5.27,30.94-10.54,61.88-15.82,92.82"/>
			</g>
			<g>
				<path d="M411.89,392.93c-0.96,30.78-5.01,61.47-12.08,91.44"/>
			</g>
			<g>
				<path d="M428.89,402.6c-1.19,10.44-2.37,20.89-3.56,31.33c-0.49,4.28-0.97,8.56-1.54,12.83c-1.88,14.28-4.63,28.44-8.21,42.38"
					/>
			</g>
			<g>
				<path d="M-11.82,425.65c37.83-13.9,75.66-27.8,113.5-41.7c2.8-1.03,5.66-2.07,8.64-2.25"/>
			</g>
			<g>
				<path d="M-8.45,444.55c44.86-19.02,89.72-38.03,134.58-57.05"/>
			</g>
			<g>
				<path d="M-10.92,463.77c49.25-25.23,99.98-47.55,151.85-66.81"/>
			</g>
			<g>
				<path d="M-8.14,475.18c52.52-22.87,105.05-45.74,157.57-68.61"/>
			</g>
			<g>
				<path d="M-8.84,486.51c56.87-24.31,114.49-46.86,172.75-67.6"/>
			</g>
			<g>
				<path d="M33.97,486.32c45.91-17.92,91.22-37.38,135.84-58.33"/>
			</g>
			<g>
				<path d="M283.97,433.17c51.03,15.15,162.94,48.18,213.97,63.33"/>
			</g>
			<g>
				<path d="M289.69,418.38c47.59,15.4,155.83,46.58,204.25,59.12"/>
			</g>
			<g>
				<path d="M293.45,401.28c46.4,17.48,159.99,54.9,208.49,65.22"/>
			</g>
			<g>
				<path d="M299.22,387.45c43.95,12.95,156.76,51.1,200.72,64.05"/>
			</g>
			<g>
				<path d="M311.52,374.49c6.6,5.01,14.84,7.21,22.86,9.3c33.93,8.84,133.64,37.87,167.57,46.71"/>
			</g>
			<g>
				<path d="M438.81,491.31c1.88-5.34,2.89-10.93,3.9-16.49c4.39-24.19,8.8-48.62,7.7-73.17"/>
			</g>
			<g>
				<path d="M466.21,407.06c1.97,26.44-0.74,53.23-7.99,78.74"/>
			</g>
			<g>
				<path d="M481.81,416.75c-0.42,4.88-0.84,9.76-1.25,14.64c-1.02,11.93-2.04,23.86-3.06,35.78c-0.67,7.88-1.36,15.81-3.39,23.46"
					/>
			</g>
			<g>
				<path d="M79.79,487.28c31.38-13.17,62.77-26.34,94.15-39.51c5.57-2.34,11.22-4.7,17.19-5.6c5.69-0.86,11.48-0.37,17.21,0.12
					c9.67,0.83,19.34,1.65,29.02,2.48c15.73,1.34,31.53,2.7,46.88,6.36c11.44,2.72,22.53,6.7,33.6,10.67
					c35.08,12.58,70.16,25.16,105.24,37.75c-3.44,1.48-7.2,2.01-10.91,2.48c-119.34,15.13-242.34-20.13-359.87,5.49
					c16.3-9.91,32.6-19.82,48.9-29.74"/>
			</g>
			<g>
				<path d="M235.48,385.18c-10.69-0.56-21.86,0.09-31.27,5.21s-16.51,15.68-14.72,26.23c1.9,11.2,12.99,20.2,11.73,31.49
					c-0.46,4.1-2.56,7.89-2.94,11.99c-0.82,8.75,6.05,16.06,11.97,22.55c12.14,13.3,22.32,28.38,30.11,44.61
					c2.65-9.2,5.31-18.41,7.96-27.61c2.38-8.25,4.81-16.62,9.34-23.92c4.74-7.64,12.02-15.93,8.81-24.32
					c-0.71-1.85-1.92-3.52-2.32-5.47c-0.55-2.64,0.46-5.33,1.29-7.89c3.8-11.71,4.07-25.02-1.66-35.91
					c-5.74-10.89-18.28-18.54-30.4-16.36"/>
			</g>
			<g>
				<path d="M222.46,183.75c-0.38,0.52-0.75,1.05-1.11,1.59c1.91,0.73,3.81,1.46,5.72,2.19c6.53,2.5,13.33,5.05,20.31,4.51
					c2.24-0.17,4.45-0.66,6.64-1.15c5.5-1.23,11.32-2.63,15.49-6.31c-3.8-4.07-8.1-7.69-12.75-10.75
					c-4.08-2.68-8.88-5.02-13.69-4.13c-1.98,0.37-3.82,1.26-5.63,2.15c-2.6,1.27-5.2,2.55-7.55,4.24
					C226.99,178.17,224.57,180.85,222.46,183.75z"/>
			</g>
			<g>
				<path d="M230.66,182.4c0.18,0.11,0.36,0.2,0.55,0.29c8.08,3.9,17.5,3.46,26.46,2.94c1.57-0.09,3.35-0.28,4.31-1.53
					c1.06-1.36-0.3-4.14-2-2.94c-8.11-5.68-19.35-6.69-28.28-2.36c-1.07,0.52-2.28,1.52-1.89,2.65
					C229.95,181.87,230.28,182.16,230.66,182.4z"/>
			</g>
			<g>
				<path d="M244.4,183.14c0.9,0.32,1.98,0.13,2.67-0.55c0.27-0.27,0.47-0.6,0.55-0.97c0.14-0.69-0.25-1.42-0.83-1.81
					s-1.34-0.48-2.03-0.36c0,0-0.81,0.14-1.7,0.29c-0.45,0.99-0.2,2.29,0.64,2.99C243.9,182.91,244.14,183.05,244.4,183.14z"/>
			</g>
			<g>
				<path d="M297.52,193.05c-0.54,0.29-1.08,0.6-1.61,0.91c1.34,1.41,2.68,2.83,4.02,4.24c4.59,4.84,9.39,9.83,15.62,12.24
					c2,0.77,4.1,1.26,6.19,1.74c5.24,1.21,10.82,2.4,15.92,0.95c-1.6-5.07-3.8-9.95-6.55-14.5c-2.41-3.99-5.58-7.97-10.08-9.19
					c-1.85-0.5-3.8-0.49-5.72-0.47c-2.76,0.02-5.53,0.05-8.24,0.54C303.71,190.12,300.52,191.42,297.52,193.05z"/>
			</g>
			<g>
				<path d="M304.92,195.88c0.11,0.16,0.24,0.31,0.37,0.46c5.64,6.44,14.07,9.56,22.13,12.44c1.42,0.51,3.04,1,4.36,0.26
					c1.43-0.8,1.28-3.75-0.66-3.32c-5-8.01-14.49-13.09-23.95-12.61c-1.14,0.06-2.57,0.48-2.65,1.62
					C304.49,195.15,304.68,195.54,304.92,195.88z"/>
			</g>
			<g>
				<path d="M316.71,201.66c0.67,0.62,1.69,0.85,2.54,0.51c0.33-0.13,0.64-0.35,0.84-0.65c0.38-0.56,0.31-1.34-0.05-1.9
					c-0.37-0.56-1-0.92-1.65-1.07c0,0-0.76-0.18-1.6-0.38c-0.77,0.7-1.03,1.93-0.55,2.87C316.35,201.27,316.51,201.48,316.71,201.66
					z"/>
			</g>
			<g>
				<path d="M164.9,158.55c-4.33-3.65-6.18-9.45-7.11-15.04c-2.94-17.77,1.76-36.68,12.68-51.01c2.92,10.95,7.5,21.46,13.54,31.06
					c1.82,2.9,3.9,5.83,6.95,7.37"/>
			</g>
			<g>
				<path d="M189.78,144.28c-1.55-5.33-0.78-11.04,0.24-16.5c3.05-16.3,8.27-32.19,15.49-47.12c1.6,16.4,10,32.04,22.79,42.43"/>
			</g>
			<g>
				<path d="M239.42,109.57c7.6-7.98,13.4-17.65,16.87-28.1c0.89,3.58,1.55,7.21,2,10.87c0.79,6.51,1.37,14.02,6.7,17.83"/>
			</g>
			<g>
				<path d="M335.98,166.31c13.01-15.25,17.24-36.06,18.97-56.04c0.17,4.07-2.17,7.8-4.73,10.96c-4.01,4.95-8.8,9.27-14.14,12.74
					c-6,3.9-12.64,6.71-19.23,9.49"/>
			</g>
			<g>
				<path d="M311.17,127.88c3.86-2.9,7.69-5.88,10.9-9.48c7.49-8.42,10.97-19.55,14.26-30.33c-9.64,11.3-20.25,23.23-34.69,26.71
					c-2.75,0.66-5.57,1-8.28,1.81c-0.56,0.17-1.01,1.13-0.43,1.09"/>
			</g>
		</g>
	</g>
</g>
<g id="fejs">
	<g>
		<path class="st2" d="M188.55,134.23c21.65-16.1,49.35-24.82,76.54-24.79c10.38,0.01,20.84,1.16,30.65,4.53
			c9.45,3.25,18.1,8.48,26.23,14.29c6.6,4.71,13.01,9.94,17.52,16.67c6.54,9.75,8.55,21.76,10.4,33.35
			c2.43,15.23,4.85,30.9,1.45,45.95c-1.34,5.9-3.57,11.72-3.33,17.76c0.17,4.26,1.56,8.41,1.67,12.67c0.11,4.72-1.36,9.31-2.82,13.8
			c-2.33,7.17-4.66,14.34-6.99,21.5c-6.5,19.99-13.35,40.63-27.43,56.24c-4.48,4.97-9.95,10.09-11.04,16.45
			c-7.4,11.71-15.88,24.54-29.25,28.44c-5.83,1.7-12.03,1.49-18.1,1.26c-21.93-0.83-44.19-1.72-65.08-8.46
			c-7.87-2.54-16.1-6.46-19.72-13.9c-1.63-3.36-2.16-7.14-2.39-10.86c-0.75-12.29,1.55-24.68,0.13-36.91
			c-1.14-9.85-4.65-19.23-7.8-28.63c-6.77-20.19-12.02-41.07-13.03-62.34s2.4-43.05,12.17-61.98
			C165.54,155.3,176.03,143.53,188.55,134.23z"/>
	</g>
	<g>
		<path class="st2" d="M153.2,275.14c3.32,4.32,6.74,8.6,10.85,12.16c0.61,0.53,1.28,1.06,2.08,1.19c1.68,0.26,3.05-1.36,3.71-2.93
			c0.99-2.37,1.23-4.98,1.46-7.54c1.99-22.33,3.83-45.72-4.67-66.41c-8.87,2.14-18.64-4.34-26.9-0.53
			c-6.31,2.92-8.77,10.75-8.69,17.7c0.21,16.84,10.84,31.54,21.07,44.92C152.47,274.19,152.83,274.66,153.2,275.14z"/>
	</g>
	<g>
		<path class="st3" d="M140.65,247.37c-2.31-1.48-2.77-4.6-3.01-7.33c-0.34-3.92-0.67-8,0.73-11.68c1.56-4.13,5.35-7.35,9.68-8.22
			s9.06,0.61,12.11,3.81c3.45,3.62,4.55,8.85,5.02,13.82c0.26,2.82,0.37,5.65,0.33,8.47c-0.03,1.72-0.19,3.63-1.42,4.83
			c-1.11,1.09-2.78,1.31-4.33,1.38c-4.05,0.2-8.61-0.46-11.08-3.67c-1.06-1.38-1.6-3.08-1.93-4.78c-0.46-2.36-0.5-4.97,0.77-7.01
			c1.27-2.05,4.19-3.19,6.2-1.86c2.75,1.82,1.76,5.97,1.99,9.26c2.82-1.55,3.66-5.22,3.57-8.44c-0.07-2.46-0.53-4.96-1.79-7.06
			c-1.26-2.11-3.43-3.77-5.87-3.99c-4.31-0.4-7.88,3.65-9.04,7.82c-1.16,4.17-0.71,8.62-1.35,12.9"/>
	</g>
	<g>
		<path class="st4" d="M266.86,279.46c7.64-4.4,17.01-3.28,25.58-1.54c6.61,1.34,13.71,3.34,17.78,8.95
			c2.08,2.87,3.13,6.41,3.98,9.9c0.65,2.66,0.88,5.53,0.41,8.12c-0.07,0.39-0.28,0.78-0.61,0.97c-0.25,0.15-0.56,0.15-0.85,0.12
			c-2.55-0.32-4.02-3.07-5.77-5.03c-1.18-1.33-2.61-2.37-4.04-3.41c-3.39-2.46-6.79-4.93-10.53-6.75c-2.31-1.12-4.73-1.98-7.15-2.79
			c-2.76-0.93-5.58-1.81-8.48-1.96c-2.7-0.14-5.38,0.37-8.03,0.87c-3.59,0.68-7.21,1.37-10.57,2.85c-3.08,1.35-5.78,1.73-9.33,1.3
			c0.07-2.57,2.21-4.5,4.23-5.96c3.43-2.48,7.07-4.66,10.86-6.5c0.58-0.28,1.35-0.52,1.78-0.04"/>
	</g>
	<g>
		<path class="st5" d="M314.89,289.87c1.4,4.04,1.68,8.46,0.32,12.37c-0.33,0.94-1.56,1.16-2.15,0.36
			c-11.93-16.17-34.28-24.11-53.69-18.62c-2.73,0.77-4.65,2.32-7.34,4.17c-1.95,1.34-4.24,2.49-4.72,4.37
			c7.08-2.66,15.29-0.98,21.65-1.23c2.62-0.1,5.16-0.94,7.77-1.06c13.03-0.61,24.3,8.33,34.55,16.4c0.2,0.16,0.41,0.31,0.63,0.46
			c1.54,1.06,3.58-0.35,3.14-2.16l0,0c-0.61-9.39-6.31-18.27-14.55-22.79c-1.73-0.95-3.57-1.72-5.5-2.11
			c-3.25-0.65-6.62-0.2-9.91,0.25c-5.88,0.81-13.11,1.2-18.99,2.01c-2.99,0.41-5.17,1.04-7.97,2.19c-4.7,1.92-8.04,6.02-12.96,7.29
			c5.28-9.85,15.13-17.14,26.1-19.31c5.05-1,10.26-0.97,15.4-0.64c3.79,0.24,7.61,0.65,11.23,1.82c6.14,1.99,11.51,6.24,14.88,11.75
			C313.63,286.78,314.34,288.3,314.89,289.87z"/>
	</g>
	<g>
		<path class="st6" d="M275.35,229.57c-3.4,1.43-6.05,4.53-6.94,8.11c-0.89,3.58,0.01,7.56,2.36,10.41c1.13,1.38,2.56,2.49,3.8,3.77
			c-4.2-1.85-7.16-6.23-7.31-10.81c-0.15-4.59,2.51-9.15,6.58-11.27"/>
	</g>
	<g>
		<path class="st7" d="M283.61,237.1c-1.14,0.64-2.02,1.92-2.2,3.25c-0.28,2.16,0.76,4.28,1.93,6.11c2.11,3.29,4.9,6.34,8.64,7.61
			c0.9-5.26-0.41-10.85-3.53-15.17c-0.65-0.9-1.44-1.79-2.51-2.11C285.13,236.55,284.32,236.7,283.61,237.1z"/>
	</g>
	<g>
		<path class="st7" d="M315.99,250.12c0.07-0.95-0.23-1.81-1.09-2.27c-0.55-0.3-1.21-0.34-1.84-0.31c-4.29,0.19-8.33,3.21-9.71,7.28
			c-0.06,0.19-0.03,0.41,0.04,0.61c0.04,0.31,0.16,0.6,0.36,0.83c0.78,0.88,2.13,0.97,3.3,0.82c2.74-0.35,5.35-1.63,7.31-3.58
			C315.24,252.63,315.91,251.31,315.99,250.12z"/>
	</g>
	<g>
		<path class="st8" d="M305.65,190.13c-6.74,1.48-13.36,3.51-19.76,6.08L305.65,190.13z"/>
	</g>
	<g>
		<path class="st8" d="M315.45,201.92c-3.55-3.94-6.69-8.25-9.37-12.83L315.45,201.92z"/>
	</g>
	<g>
		<path class="st8" d="M306,199.53c-1.64-0.8-3.97-0.46-5.88-1.18c-1.91-0.72-4.38-1.02-5.7,0.54
			C294.88,197.96,299.43,198.41,306,199.53z"/>
	</g>
	<g>
		<path class="st8" d="M301.26,177.7c-2.27-7.3-7.93-12.95-13.39-18.3c-1.86-1.82-3.89-3.44-6.23-4.58
			c-2.78-1.36-4.51-2.74-7.12-3.09C285.83,157.69,294.66,166.44,301.26,177.7z"/>
	</g>
	<g>
		<path class="st8" d="M295.19,178.94c-6.21-6.85-13.24-12.94-20.9-18.11c-1.37-0.92-2.79-1.83-4.39-2.26
			c-1.52-0.4-3.15-0.34-4.64,0.17C270.15,157.48,281.82,166.88,295.19,178.94z"/>
	</g>
	<g>
		<path class="st8" d="M331.98,168.29c-3.83-0.57-7.73-0.63-11.57-0.18c-3.01,0.35-6.08,1.07-8.53,2.85
			c-2.45,1.79-4.15,4.85-3.6,7.83C310.32,171.18,318.65,167.97,331.98,168.29z"/>
	</g>
	<g>
		<path class="st6" d="M173.58,311.81c20.27,23.34,49.36,38.94,80.17,42.33c-29.75-6.1-62.23-18.59-81.34-43.7
			C172.8,310.9,173.19,311.36,173.58,311.81z"/>
	</g>
	<g>
		<path class="st6" d="M176.99,324.05c-0.5-0.6-0.99-1.2-1.48-1.8c14.63,19.94,36.9,34.13,61.16,38.96c0,0,1.96,0.39,3.93,0.78
			c-0.05,0-0.1,0-0.1,0c-13.14,0.05-25.95-4.98-36.79-12.4C193.51,342.61,184.89,333.58,176.99,324.05z"/>
	</g>
	<g>
		<path class="st9" d="M242.9,321.09c-0.87,0.94-2,1.66-3.16,2.24c-5.25,2.64-12.05,2.82-16.7-0.78c-4.09-3.17-5.53-9.58-2.93-13.85
			c0.03,3.51,2.92,7.03,6.32,8.57c5.46,2.47,12.33,1.43,16.81-2.56c1.37,1.22,1.45,3.45,0.59,5.07
			C243.58,320.27,243.26,320.7,242.9,321.09z"/>
	</g>
	<g>
		<path class="st6" d="M258.34,318.01c-0.38,0.33-0.75,0.67-1.11,1.01c4.55-4.19,9.85-8.28,16.03-8.5
			c6.11-0.22,12.41,2.01,17.45,5.47c1.02,0.7,3.21,2.51,3.89,3.54c0.64,0.98,2.14,3.75,2.6,4.84c2.13,5.06,2.76,6.71,4.08,9.14
			c-1.45-8.65-5.43-18.02-13.04-22.37c-4.96-2.84-11.18-2.94-16.62-1.2C266.65,311.53,262.25,314.53,258.34,318.01z"/>
	</g>
	<g>
		<path class="st6" d="M274.44,305.58c3.94,0.41,7.91,0.8,11.18,2.96c2.68,1.77,4.75,4.39,7.56,5.95c1.29,0.72,2.72,1.2,3.92,2.05
			c0.69,0.49,1.27,1.06,1.77,1.69c-0.85-1.71-1.82-3.35-2.98-4.87c-3.93-5.15-10.03-8.58-16.47-9.27
			c-6.44-0.69-15.01-0.17-19.94,4.02c-2.8,2.38-5.29,4.93-7.28,7.88c-0.18,0.26,1.16-0.81,2.06-1.59
			C254.26,314.39,262.84,304.38,274.44,305.58z"/>
	</g>
	<g>
		<path class="st6" d="M309.52,333.51c-2.08-5.79-4.66-11.4-7.7-16.75c-1.71-3.01-3.59-5.97-6.04-8.42
			c-1.68-1.67-3.6-3.09-5.66-4.26c-12.11-6.87-28.91-3.9-37.92,6.72c3.34-6.9,10.75-11.32,18.37-12.16
			c7.62-0.84,15.12,0.17,21.69,4.12c1.73,1.04,4.29,2.93,5.68,4.4c1.71,1.81,3.12,4.31,4.31,6.49c2.63,4.8,5.74,8.35,7.03,14.76"/>
	</g>
</g>
<g id="rustning">
	<g>
		<path class="st10" d="M147.57,360.08c-0.05-3.11-0.59-6.3,0.53-9.18c1.67-4.25,7.22-6.47,11.36-4.53
			c4.14,1.94,5.98,7.63,3.78,11.63c1.21-2.37,2.43-4.73,3.64-7.1c-1.22,4.41-1.15,9.17,0.22,13.54c0.94-1.82,2.54-3.29,4.43-4.07
			c-0.91,3.06-0.66,6.45,0.68,9.35c1.44-2.34,2.89-4.68,4.33-7.02c0.19,3.16,0.39,6.32,0.58,9.48c1.74-3.36,4.6-6.13,8.02-7.75
			c0.68,3.91,1.35,7.82,2.03,11.73c2.33-2.69,4.65-5.38,6.98-8.07c0.72,2.43,1.44,4.86,2.16,7.29c2.76-1.8,5.53-3.59,8.29-5.39
			c0.47,3.71,0.94,7.43,1.41,11.14c3.67-1.33,7-3.6,9.59-6.52c0.16,2.45,0.32,4.9,0.48,7.34c1.2-3.24,4.04-5.82,7.37-6.71
			c0.33,2.63,0.65,5.26,0.98,7.88c3.56-3.87,7.11-7.73,10.67-11.6c1.15,4.07,2.29,8.14,3.44,12.21c0-4.79,2.71-9.49,6.85-11.9
			c0.41,4.61,1.94,9.11,4.43,13.01c1.68-4.19,4.41-7.95,7.86-10.85c0.09,4.18,1.95,8.3,5.02,11.14c1.24-4.07,2.49-8.13,3.73-12.2
			c2.12,2.59,4.24,5.18,6.36,7.77c-0.16-3.99,0.63-8.02,2.27-11.66c1.7,2.13,3.39,4.25,5.09,6.38c1.05-3.7,2.1-7.41,3.16-11.11
			c1.92,2.17,3.83,4.34,5.75,6.52c0.15-4.16,1.13-8.3,2.86-12.09c1.27,1.88,2.54,3.76,3.81,5.64c1.02-3.39,2.04-6.78,3.06-10.18
			c5.22-0.93,9.28,5.11,9.22,10.41c-0.05,5.3-2.58,10.26-3.31,15.51c-0.73,5.25,1.35,11.76,6.54,12.86
			c4.97,1.06,9.23-3.35,13.85-5.49c6.29-2.91,13.63-1.55,20.41-0.14c52.39,10.92,105.08,21.93,154.83,41.64
			c2.68,1.06,5.48,2.24,7.25,4.52c1.74,2.23,2.22,5.18,2.58,7.99c2.3,18.25,1.64,36.87-1.94,54.92c-0.64,3.24-1.45,6.61-3.67,9.05
			c-2.56,2.82-6.49,3.87-10.19,4.79c-12.13,3-24.25,6-36.38,8.99c-5.66-1.95-11.91-0.57-17.83,0.54
			c-25.18,4.71-51.04,3.86-76.64,2.99c-81.41-2.77-162.81-5.53-244.22-8.3c-15.59-0.53-31.2-1.06-46.79-0.46
			c-20.19,0.78-40.26,3.44-60.37,5.43c-5.67,0.56-12.2,0.77-16.15-3.35c-2.89-3.02-3.48-7.5-3.89-11.65
			c-2.43-24.44-3.75-48.99-3.94-73.55c-0.06-7.27,2.82-17.61,12.64-12.25c31.55-4.25,62.41-13.57,91.03-27.51
			c4.39-2.14,8.86-4.42,13.72-4.83c4.86-0.41,10.29,1.55,12.41,5.95c13.69-6.6,29.39-16.18,29.63-31.37
			C147.58,360.62,147.58,360.35,147.57,360.08z"/>
	</g>
	<g>
		<g>
			<path class="st4" d="M155.6,358.9c-0.62,3.69-0.92,7.41-2.14,10.98c-1.18,3.48-2.96,6.75-5.14,9.71
				c-4.35,5.9-10.76,10.21-17.94,11.75c-2.87,0.62-1.66,5.05,1.21,4.41c12.67-2.81,23.07-13.43,26.01-26.01
				c0.82-3.49,1.22-7.36,0.09-10.84C157.4,357.96,155.8,357.76,155.6,358.9L155.6,358.9z"/>
		</g>
	</g>
	<g>
		<g>
			<path class="st4" d="M165.59,366.75c-2.41,7.55-5.01,15.16-9.82,21.57c-2.01,2.68-4.49,5.09-7.27,6.96
				c-1.43,0.96-2.95,1.82-4.54,2.46c-1.65,0.66-3.74,0.81-5.23,1.76c-1.4,0.89-1.32,3.36,0.49,3.75c1.96,0.42,4.12-0.44,5.93-1.17
				c1.85-0.74,3.62-1.63,5.28-2.72c3.36-2.21,6.24-5,8.68-8.19c5.29-6.91,7.88-15.55,8.98-24.08
				C168.29,365.6,166,365.44,165.59,366.75L165.59,366.75z"/>
		</g>
	</g>
	<g>
		<g>
			<path class="st4" d="M173.11,372.6c-0.96,3.13-1.46,6.4-2.71,9.45c-1.25,3.05-2.79,5.98-4.69,8.67
				c-1.86,2.62-4.15,4.97-6.62,7.02c-1.21,1-2.49,1.9-3.83,2.71c-1.46,0.89-3.06,1.54-4.45,2.52c-2.02,1.41-0.8,4.51,1.68,3.98
				c3.56-0.75,7.05-3.48,9.8-5.76c2.79-2.32,5.17-5.05,7.23-8.03c2.05-2.95,3.75-6.21,4.8-9.65c1.08-3.52,1.95-7.21,1.34-10.9
				C175.44,371.24,173.47,371.45,173.11,372.6L173.11,372.6z"/>
		</g>
	</g>
	<g>
		<g>
			<path class="st4" d="M184.02,375.83c-0.14,0.26-0.51,0.45-0.7,0.72c-0.28,0.39-0.38,0.9-0.53,1.34
				c-0.26,0.81-0.53,1.62-0.79,2.43c-0.58,1.82-1.19,3.63-1.91,5.4c-1.49,3.65-3.28,7.09-5.25,10.5c-1.96,3.39-4.15,6.67-6.61,9.72
				c-1.21,1.5-2.48,2.95-3.81,4.34c-1.26,1.31-2.99,2.49-3.93,4.06c-0.53,0.88-0.36,2.08,0.36,2.8c0.78,0.78,1.84,0.77,2.8,0.36
				c1.7-0.74,3.22-2.71,4.46-4.05c1.32-1.41,2.57-2.89,3.77-4.41c2.63-3.35,5.08-6.88,7.13-10.61c2.02-3.67,3.81-7.6,5.12-11.58
				c0.59-1.8,1.14-3.65,1.5-5.51c0.19-0.99,0.32-1.99,0.39-2.99c0.03-0.46,0.09-0.99-0.06-1.44c-0.1-0.3-0.4-0.63-0.45-0.87
				C185.39,375.34,184.34,375.23,184.02,375.83L184.02,375.83z"/>
		</g>
	</g>
	<g>
		<g>
			<path class="st4" d="M196.67,379.64c-0.74,0.92-1.07,2.09-1.42,3.22c-0.37,1.18-0.78,2.35-1.21,3.5
				c-0.86,2.27-1.75,4.54-2.84,6.72c-1.1,2.21-2.24,4.39-3.52,6.5c-0.64,1.05-1.31,2.09-2.01,3.11c-0.33,0.48-0.66,0.95-1,1.42
				c-0.17,0.23-0.35,0.47-0.52,0.7c-0.41,0.58,0.33-0.38,0.05-0.07c-3.53,4.04-7.68,7.65-11.83,11.04
				c-1.15,0.94-1.99,1.62-3.32,2.49c-0.46,0.3-0.94,0.57-1.42,0.84c-0.52,0.3,0.35-0.04-0.18,0.08c-0.61,0.14,0.16,0.02,0.04,0.03
				c-2.93,0.13-2.95,4.68,0,4.57c2.29-0.09,4.42-1.86,6.15-3.19c2.71-2.07,5.27-4.31,7.76-6.64c1.92-1.79,3.86-3.61,5.59-5.58
				c2.85-3.25,5.12-7.27,7.01-11.14c1.29-2.63,2.37-5.4,3.26-8.19c0.46-1.45,0.84-2.93,1.17-4.41c0.31-1.38,0.77-3.02,0.43-4.42
				C198.65,379.33,197.3,378.86,196.67,379.64L196.67,379.64z"/>
		</g>
	</g>
	<g>
		<g>
			<path class="st4" d="M208.92,384.73c-2.51,6.5-6.95,12.22-11.17,17.69c-5.11,6.63-10.78,12.99-16.82,18.77
				c-1.41,1.35-2.85,2.67-4.35,3.93c-0.31,0.26-0.63,0.52-0.95,0.78c-0.14,0.11-0.28,0.22-0.42,0.33c0.35-0.27-0.17,0.13-0.19,0.15
				c-0.69,0.52-1.33,1.1-2.01,1.63c-1.94,1.52,0.53,4.42,2.56,3.31c2.82-1.54,5.23-3.82,7.55-6.01c3.04-2.87,5.93-5.9,8.71-9.02
				c5.82-6.52,11.46-13.54,15.63-21.26c1.67-3.09,3.44-6.44,3.74-10C211.31,383.64,209.35,383.6,208.92,384.73L208.92,384.73z"/>
		</g>
	</g>
	<g>
		<g>
			<path class="st4" d="M222.13,387.21c0,0-0.09,0.21-0.22,0.47c-0.14,0.28-0.28,0.56-0.41,0.84c-0.31,0.64-0.66,1.26-1.02,1.87
				c-0.91,1.53-1.9,3-2.93,4.45c-2.68,3.76-5.52,7.4-8.44,10.96c-6.41,7.81-13.19,15.38-20.24,22.62c-2.53,2.6-5.08,5.26-7.93,7.51
				c-0.94,0.74-0.78,2.36,0,3.13c0.93,0.93,2.19,0.75,3.13,0c2.48-1.96,4.71-4.27,6.92-6.52c3.4-3.46,6.69-7.02,9.92-10.64
				c6.83-7.66,13.54-15.67,19.16-24.27c1.93-2.96,4.28-6.47,4.6-10.09C224.8,385.99,222.62,385.97,222.13,387.21L222.13,387.21z"/>
		</g>
	</g>
	<g>
		<g>
			<path class="st4" d="M230.73,386.32c-0.09,0.56-0.27,1.09-0.47,1.62c-0.16,0.44,0.05-0.11-0.06,0.16
				c0.04-0.09-0.41,0.98-0.2,0.48c-0.17,0.39-0.35,0.78-0.54,1.17c-0.9,1.84-1.97,3.6-3.05,5.34c-2.93,4.74-6.17,9.3-9.44,13.81
				c-7.14,9.85-14.71,19.42-22.4,28.84c-1.54,1.88-3.09,3.76-4.65,5.62c-1.1,1.3-2.45,2.58-3.21,4.11
				c-0.85,1.71,0.97,4.01,2.81,2.81c1.3-0.85,2.2-2.05,3.19-3.24c1.37-1.64,2.73-3.29,4.08-4.94c3.63-4.46,7.21-8.97,10.73-13.51
				c7.58-9.78,15.13-19.74,21.48-30.39c1.23-2.07,2.4-4.19,3.37-6.4c0.71-1.61,1.38-3.27,1.44-5.06
				C233.87,385.01,231.01,384.54,230.73,386.32L230.73,386.32z"/>
		</g>
	</g>
	<g>
		<g>
			<path class="st4" d="M239.91,388.35c-0.56,8.74-2.56,17.27-6.81,24.97c-1.41,2.55,2.51,4.84,3.91,2.28
				c4.51-8.26,7.14-17.81,6.42-27.26C243.26,386.1,240.06,386.08,239.91,388.35L239.91,388.35z"/>
		</g>
	</g>
	<g>
		<g>
			<path class="st4" d="M243.42,389.98c-0.26,7.58,3.78,14.43,7.93,20.49c2.45,3.57,4.93,7.12,7.42,10.66
				c7.07,10.06,14.33,20.07,22.1,29.59c1.34,1.65,2.7,3.31,4.22,4.8c0.53,0.52,1.09,1.06,1.72,1.46c0.28,0.18,0.6,0.33,0.91,0.42
				c0.2,0.06,0.45,0.09,0.65,0.09c0.24,0,0.9-0.12,0.32-0.04c-0.59,0.08,0.11,0.03,0.33-0.05c2.36-0.83,1.35-4.61-1.04-3.77
				c-0.46,0.16,1.66,0.01,0.68-0.02c-0.75-0.03,0.28,0.06,0.17,0.02c-0.29-0.1,0.5,0.17,0.29,0.12c-0.21-0.05-0.7-0.6-0.11-0.05
				c-0.4-0.37-0.82-0.73-1.2-1.12c-1.27-1.31-2.46-2.71-3.63-4.11c-3.54-4.25-6.79-8.51-10.1-12.91
				c-6.46-8.57-12.83-17.22-19.06-25.96c-0.73-1.02-1.45-2.04-2.13-3.09c-3.24-4.99-6.77-10.4-7.12-16.51
				C245.68,388.48,243.48,388.46,243.42,389.98L243.42,389.98z"/>
		</g>
	</g>
	<g>
		<g>
			<path class="st4" d="M255.61,388.1c-0.58,3.01,0.76,6.53,1.72,9.33c1.69,4.92,4.1,9.61,6.73,14.09
				c2.99,5.1,6.21,10.06,9.66,14.86c3.12,4.35,6.38,8.66,10.06,12.56c1.58,1.68,3.25,3.27,5.1,4.65c1.36,1.02,2.88,1.95,4.62,2.02
				c2.42,0.11,2.8-3.48,0.56-4.14c-0.11-0.03-0.23-0.07-0.34-0.11c0.58,0.23,0.22,0.08-0.31-0.13c-0.67-0.27,0.31,0.21-0.36-0.16
				c-0.6-0.33-1.16-0.68-1.72-1.08c-0.08-0.06-0.49-0.38-0.26-0.19c0.25,0.2-0.21-0.17-0.27-0.22c-0.37-0.31-0.73-0.62-1.09-0.94
				c-0.73-0.66-1.43-1.34-2.12-2.05c-3.39-3.47-6.48-7.29-9.34-11.14c-6.44-8.66-12.22-17.88-17.29-27.41
				c-1.49-2.81-3.81-6.47-3.4-9.67C257.71,387.26,255.82,387,255.61,388.1L255.61,388.1z"/>
		</g>
	</g>
	<g>
		<g>
			<path class="st4" d="M264.01,386.9c0.13,0.46,0.27,0.92,0.41,1.38c0.04,0.13,0.23,0.83,0.21,0.49c0.03,0.49-0.18,0.91-0.08,1.42
				c0.32,1.59,1.56,3.31,2.33,4.73c2.09,3.86,4.52,7.58,6.93,11.25c5.2,7.92,10.78,15.8,17.25,22.74c1.24,1.32,2.52,2.62,3.94,3.75
				c1.41,1.13,3.12,2.4,5.02,1.78c1.12-0.36,2.02-1.86,1.2-2.96c-0.19-0.26-0.35-0.55-0.57-0.79c-0.18-0.19-0.41-0.35-0.63-0.51
				c-0.09-0.06-0.48-0.34-0.13-0.08c0.35,0.26,0-0.01-0.08-0.08c-0.25-0.2-0.51-0.4-0.77-0.59c-0.15-0.11-0.83-0.6-0.56-0.39
				c0.27,0.21-0.4-0.33-0.55-0.46c-0.29-0.25-0.57-0.5-0.85-0.75c-0.6-0.55-1.18-1.12-1.75-1.7c-2.94-3.02-5.6-6.31-8.18-9.63
				c-5.42-7.01-10.97-14.79-16.03-22.37c-1.08-1.61-2.19-3.21-3.31-4.79c-0.41-0.58-0.75-0.88-1.4-1.18
				c-0.11-0.05-0.26-0.14-0.5-0.39c-0.37-0.37-0.67-0.84-0.98-1.27C264.63,386.04,263.85,386.3,264.01,386.9L264.01,386.9z"/>
		</g>
	</g>
	<g>
		<g>
			<path class="st4" d="M276.59,381.91c-0.01,0.19,0,0.39,0,0.58c0.21-0.36,0.41-0.72,0.62-1.08c-0.08,0.05-0.15,0.09-0.23,0.14
				c-0.83,0.51-1.05,1.35-0.92,2.26c0.86,5.69,4.53,11.04,7.77,15.64c3.73,5.3,7.93,10.57,13.02,14.64
				c2.26,1.81,4.69,3.47,7.65,3.75c2.63,0.26,3.22-4.09,0.63-4.63c-0.4-0.08-0.77-0.22-1.15-0.35c-0.1-0.03-0.21-0.08-0.3-0.12
				c0.06,0.02,0.5,0.23,0.11,0.05c-0.25-0.12-0.49-0.23-0.73-0.36c-0.98-0.53-1.9-1.15-2.79-1.82c0.03,0.02-0.14-0.11-0.43-0.35
				c-0.25-0.21-0.5-0.42-0.75-0.63c-0.55-0.48-1.1-0.97-1.63-1.47c-1.08-1.02-2.12-2.09-3.12-3.19c-4.22-4.61-7.98-9.71-11.04-15.17
				c-0.72-1.29-1.44-2.59-2.08-3.93c-0.63-1.33-0.88-1.78-1.31-3.14c-0.2-0.63-0.71-1.27-1.39-1.39c-0.12-0.02-0.23-0.04-0.35-0.06
				c0.29,0.29,0.58,0.58,0.87,0.87c-0.05-0.19-0.09-0.38-0.12-0.57C278.66,380.25,276.63,380.62,276.59,381.91L276.59,381.91z"/>
		</g>
	</g>
	<g>
		<g>
			<path class="st4" d="M284.01,378.74c1.95,4.02,4.1,7.94,7.06,11.31c1.75,2,2.98,3.79,4.58,6.3c1.69,2.65,3.4,5.31,5.47,7.68
				c1.57,1.79,4.28,4.47,6.94,3.51c1.55-0.57,2.27-2.99,0.5-3.86c-0.32-0.16-0.65-0.28-0.97-0.43c0.55,0.25-0.08-0.05-0.19-0.11
				c-0.33-0.18-0.99-0.57-1.08-0.64c-0.69-0.55-1.75-1.73-2.46-2.61c-1.65-2.08-3.18-4.53-4.67-6.82c-1.39-2.12-2.81-4.14-4.53-5.99
				c-2.87-3.09-5.02-6.77-7.3-10.29C285.99,374.66,282.92,376.49,284.01,378.74L284.01,378.74z"/>
		</g>
	</g>
	<g>
		<g>
			<path class="st4" d="M296.26,368.62c0.37-0.74,0.23-1.49-0.47-1.98c-0.95-0.67-1.79-0.18-2.59,0.44c-0.54,0.42-0.65,1.28-0.5,1.9
				c0.44,1.85,1.36,3.68,2.11,5.42c0.77,1.81,1.59,3.59,2.39,5.39c0.97,2.18,1.84,4.42,2.89,6.81c1.05,2.38,2.22,4.7,3.83,6.74
				c1.42,1.8,3.62,3.71,6.08,2.99c1.65-0.49,1.76-2.55,0.45-3.47c0.4,0.28-0.94-0.66-0.51-0.39c-0.18-0.12-0.41-0.19-0.6-0.3
				c-0.17-0.1-0.33-0.22-0.49-0.33c-0.23-0.16-0.23-0.16-0.32-0.24c-0.72-0.62-1.28-1.32-1.79-2.1c-1.31-1.98-2.3-4.17-3.22-6.35
				c-0.92-2.18-1.85-4.36-2.83-6.52c-0.74-1.64-1.47-3.28-2.25-4.9c-0.8-1.65-1.49-3.63-2.78-4.96c0.08,0.58,0.15,1.17,0.23,1.75
				c0.03-0.05,0.07-0.1,0.1-0.15c-0.27,0.21-0.54,0.42-0.82,0.63c-0.15-0.03-0.3-0.06-0.46-0.09c-0.2-0.34-0.39-0.68-0.59-1.02
				c0.01,0.06,0.01,0.11,0.02,0.17C294.27,369.04,295.7,369.75,296.26,368.62L296.26,368.62z"/>
		</g>
	</g>
	<g>
		<g>
			<path class="st11" d="M-3.6,454.55c10.25,15.19,21.07,30.01,31.76,44.89c1.53,2.12,5.08,0.08,3.54-2.07
				c-10.67-14.92-21.24-29.94-32.34-44.55C-1.94,451.12-4.86,452.68-3.6,454.55L-3.6,454.55z"/>
		</g>
	</g>
	<g>
		<g>
			<path class="st11" d="M-3.26,426.03c7.76,10.08,16.07,19.73,23.74,29.89c7.69,10.19,15.17,20.54,22.23,31.17
				c1.96,2.95,3.9,5.9,5.81,8.88c1.99,3.11,3.83,6.34,6.04,9.29c1.47,1.96,4.42,0.33,3.32-1.94c-1.42-2.9-3.23-5.6-4.96-8.32
				c-1.73-2.73-3.48-5.44-5.26-8.14c-3.56-5.4-7.24-10.71-11-15.96c-7.44-10.39-15.27-20.51-23.54-30.26
				c-4.67-5.5-9.4-10.97-14.58-16.01C-2.35,423.76-4.08,424.96-3.26,426.03L-3.26,426.03z"/>
		</g>
	</g>
	<g>
		<g>
			<path class="st11" d="M14.9,417.67c1.31,3.16,3.65,6.11,5.68,8.86c2.09,2.82,4.2,5.62,6.29,8.44
				c4.18,5.63,8.33,11.28,12.38,17.01c7.97,11.28,15.62,22.8,22.92,34.52c2.1,3.37,4.17,6.75,6.21,10.15
				c2.06,3.44,3.93,7.05,6.17,10.37c1.55,2.3,4.97,0.32,3.72-2.18c-1.65-3.31-3.76-6.44-5.67-9.6c-1.82-3.01-3.66-6-5.53-8.98
				c-3.68-5.88-7.45-11.71-11.3-17.48c-7.77-11.62-15.91-23.03-24.47-34.08c-2.43-3.13-4.86-6.26-7.39-9.31
				c-2.41-2.91-4.97-6.26-8.1-8.43C15.39,416.67,14.69,417.17,14.9,417.67L14.9,417.67z"/>
		</g>
	</g>
	<g>
		<g>
			<path class="st11" d="M36.52,414.07c1.09,1.44,1.87,3.07,2.93,4.54c1.02,1.43,2.08,2.83,3.1,4.26c1.99,2.77,4.01,5.51,5.96,8.31
				c3.9,5.58,7.57,11.31,11.07,17.15c7.27,12.14,13.34,24.96,20.67,37.05c2.04,3.37,4.18,6.68,6.46,9.9
				c2.29,3.23,4.64,6.58,7.42,9.41c1.8,1.82,5.3-0.66,3.66-2.83c-2.11-2.79-4.4-5.44-6.45-8.28c-2.05-2.84-3.98-5.76-5.84-8.73
				c-3.73-5.97-7.2-12.09-10.58-18.25c-6.73-12.23-13.69-24.31-21.78-35.7c-2.22-3.13-4.48-6.26-6.88-9.26
				c-1.18-1.47-2.38-2.94-3.59-4.39c-1.36-1.63-2.99-2.96-4.36-4.55C37.47,411.73,35.74,413.04,36.52,414.07L36.52,414.07z"/>
		</g>
	</g>
	<g>
		<g>
			<path class="st11" d="M55.43,408.13c4.14,5.47,8.82,10.51,13.14,15.84c4.33,5.34,8.62,10.72,12.66,16.29
				c7.99,11.03,15.37,22.56,22.09,34.41c3.84,6.76,7.43,13.66,10.8,20.67c0.52,1.09,2.08,1.38,3.06,0.8
				c1.11-0.65,1.33-1.97,0.8-3.06c-5.98-12.43-12.71-24.49-20.15-36.1c-3.72-5.8-7.72-11.45-11.85-16.97
				c-4.14-5.53-8.32-11.06-12.81-16.31c-5.03-5.87-10.08-11.91-16-16.92C56.28,406.05,54.62,407.06,55.43,408.13L55.43,408.13z"/>
		</g>
	</g>
	<g>
		<g>
			<path class="st11" d="M74.86,399.48c3.69,6.2,8.15,11.93,12.3,17.82c4.17,5.92,8.23,11.91,12.2,17.96
				c7.86,11.98,15.39,24.18,22.46,36.65c1.98,3.49,3.92,6.99,5.83,10.51c0.95,1.76,1.9,3.53,2.83,5.3c1.01,1.91,1.92,3.87,3.21,5.61
				c0.6,0.81,1.54,1.26,2.53,0.83c0.88-0.39,1.5-1.42,1.17-2.39c-1.15-3.51-3.21-6.77-4.96-10.01c-1.72-3.19-3.47-6.36-5.25-9.51
				c-3.59-6.38-7.3-12.69-11.12-18.93c-7.57-12.37-15.63-24.41-24.15-36.13c-4.77-6.56-9.51-13.33-15.24-19.11
				C75.76,397.15,74.19,398.34,74.86,399.48L74.86,399.48z"/>
		</g>
	</g>
	<g>
		<g>
			<path class="st11" d="M92.49,391.71c3.83,5.61,8.4,10.7,12.64,15.99c4.27,5.33,8.42,10.74,12.46,16.24
				c8,10.89,15.5,22.11,22.65,33.57c4.1,6.57,7.83,13.36,11.86,19.96c1.49,2.44,5.14,0.29,3.82-2.24
				c-3.15-6.04-6.84-11.85-10.44-17.63c-3.61-5.8-7.37-11.51-11.25-17.14c-7.75-11.27-15.95-22.22-24.58-32.83
				c-4.85-5.96-9.67-12.18-15.43-17.29C93.34,389.57,91.74,390.61,92.49,391.71L92.49,391.71z"/>
		</g>
	</g>
	<g>
		<g>
			<path class="st11" d="M114.9,390.02c0.12,1.4,0.79,2.47,1.57,3.63c0.88,1.31,1.8,2.6,2.72,3.89c1.76,2.44,3.43,4.95,5.22,7.37
				c3.64,4.92,7.22,9.87,10.76,14.87c7.02,9.91,13.77,20.04,20.38,30.23c1.86,2.87,3.69,5.75,5.52,8.64
				c1.87,2.94,3.6,6.14,5.83,8.82c0.68,0.82,2.06,0.78,2.83,0.17c0.9-0.72,1-1.77,0.56-2.78c-1.23-2.79-3.14-5.41-4.77-7.97
				c-1.62-2.55-3.26-5.08-4.92-7.61c-3.36-5.12-6.74-10.22-10.17-15.28c-6.82-10.06-14.05-19.88-21.32-29.62
				c-2.05-2.75-4.21-5.39-6.36-8.07c-1.09-1.36-2.17-2.72-3.32-4.04c-1.06-1.21-2.03-2.43-3.58-2.97
				C115.42,389.14,114.86,389.55,114.9,390.02L114.9,390.02z"/>
		</g>
	</g>
	<g>
		<g>
			<path class="st11" d="M122.92,391.85c2,2.06,4.69,3.5,7.12,5.01c2.51,1.56,5,3.16,7.49,4.75c4.8,3.08,9.54,6.29,14,9.85
				c4.56,3.64,9.02,7.62,12.73,12.13c3.97,4.83,7.58,9.9,11.19,15.01c2.2,3.11,4.41,6.22,6.61,9.33c1.05,1.49,2.11,2.98,3.16,4.46
				c0.57,0.81,1.13,1.64,1.72,2.43c0.61,0.82,1.48,1.38,2.31,1.98c1.32,0.95,3.09-0.62,2.67-2.05c-0.23-0.78-0.44-1.63-0.83-2.35
				c-0.38-0.71-0.97-1.37-1.44-2.03c-1.05-1.49-2.11-2.98-3.16-4.46c-1.92-2.71-3.83-5.41-5.75-8.12
				c-3.81-5.38-7.54-10.87-11.84-15.88c-7.72-8.98-17.36-16.23-27.38-22.44c-2.82-1.75-5.65-3.48-8.58-5.02
				c-2.91-1.53-5.83-3.5-9.04-4.3C122.92,389.93,122.21,391.12,122.92,391.85L122.92,391.85z"/>
		</g>
	</g>
	<g>
		<g>
			<path class="st11" d="M287.58,461.31c1.12-0.26,1.45-1.24,1.95-2.17c0.63-1.16,1.21-2.33,1.76-3.53c1-2.19,1.98-4.38,2.93-6.59
				c1.93-4.49,3.72-9.04,5.41-13.63c3.35-9.11,6.26-18.38,8.73-27.76c0.69-2.63,1.35-5.27,1.97-7.91c0.63-2.7,1.36-5.44,1.67-8.21
				c0.21-1.94-2.75-2.18-3.29-0.45c-0.71,2.29-1.11,4.69-1.65,7.02c-0.54,2.34-1.12,4.68-1.72,7.01c-1.2,4.66-2.51,9.29-3.93,13.89
				c-2.84,9.21-6.16,18.23-9.79,27.16c-1,2.45-2.02,4.89-3.08,7.31c-0.56,1.27-1.13,2.53-1.63,3.82c-0.46,1.19-1.19,2.27-0.58,3.52
				C286.56,461.25,287.13,461.41,287.58,461.31L287.58,461.31z"/>
		</g>
	</g>
	<g>
		<g>
			<path class="st11" d="M324.05,386.38c-1.72,5.3-2.68,10.81-3.9,16.24c-1.23,5.44-2.32,10.9-3.44,16.36
				c-2.17,10.53-4.7,21.05-6.14,31.71c-0.42,3.09-0.73,6.19-0.89,9.31c-0.16,3.08-0.39,6.27,0.17,9.32
				c0.17,0.92,1.23,1.49,2.08,1.36c1.01-0.15,1.52-0.9,1.65-1.86c0.34-2.66,0.15-5.4,0.26-8.08c0.12-2.69,0.3-5.38,0.6-8.05
				c0.57-5.25,1.55-10.46,2.56-15.64c2.1-10.74,4.6-21.44,6.43-32.23c1.02-6.03,2.48-12.01,3.02-18.11
				C326.57,385.28,324.45,385.13,324.05,386.38L324.05,386.38z"/>
		</g>
	</g>
	<g>
		<g>
			<path class="st11" d="M344.35,386.34c-1.84,5.54-2.8,11.41-4.04,17.1c-1.23,5.64-2.4,11.3-3.59,16.95
				c-2.38,11.31-4.71,22.64-5.89,34.14c-0.66,6.47-1.02,13.01-0.69,19.51c0.15,2.86,4.55,2.9,4.48,0c-0.56-23,4.82-45.42,9.16-67.86
				c1.24-6.43,2.84-12.94,3.38-19.47C347.3,385.04,344.84,384.88,344.35,386.34L344.35,386.34z"/>
		</g>
	</g>
	<g>
		<g>
			<path class="st11" d="M363.93,390.63c-1.13,5.87-1.29,11.96-1.82,17.9c-0.53,5.97-1.22,11.94-2.05,17.87
				c-1.69,11.97-4.42,23.66-6.98,35.46c-0.72,3.31-1.33,6.65-1.65,10.03c-0.31,3.18-0.69,6.93,0.34,10.01
				c0.71,2.11,3.71,1.71,3.84-0.52c0.09-1.42-0.07-2.85-0.14-4.27c-0.08-1.58,0.02-3.17,0.16-4.74c0.25-2.84,0.77-5.64,1.36-8.42
				c1.24-5.84,2.76-11.62,3.88-17.49c2.25-11.8,3.83-23.74,4.52-35.74c0.38-6.61,0.82-13.53-0.3-20.09
				C364.98,390.05,364.03,390.06,363.93,390.63L363.93,390.63z"/>
		</g>
	</g>
	<g>
		<g>
			<path class="st11" d="M385.04,397.63c-1.92,5.82-2.9,11.9-4.06,17.91c-1.16,6.02-2.31,12.05-3.43,18.08
				c-2.25,12.07-4.53,24.13-6.77,36.2c-1.27,6.85-2.5,13.71-3.75,20.57c-0.22,1.19,0.33,2.41,1.56,2.75
				c1.09,0.3,2.53-0.37,2.75-1.56c4.49-24.32,8.95-48.64,13.18-73c1.19-6.83,2.66-13.68,2.97-20.61
				C387.57,396.5,385.47,396.34,385.04,397.63L385.04,397.63z"/>
		</g>
	</g>
	<g>
		<g>
			<path class="st11" d="M405.14,402.43c-1.38,0.28-1.53,1.44-1.84,2.63c-0.42,1.61-0.76,3.21-1.07,4.85
				c-0.59,3.1-1.13,6.2-1.69,9.3c-1.09,6.04-2.17,12.09-3.24,18.13c-2.18,12.34-4.35,24.68-6.51,37.03
				c-1.21,6.95-2.4,13.91-3.5,20.89c-0.19,1.22,0.31,2.46,1.6,2.81c1.11,0.3,2.59-0.38,2.81-1.6c4.59-25.08,8.56-50.29,12.58-75.46
				c0.56-3.53,1.14-7.06,1.68-10.59C406.12,409.28,407.79,401.89,405.14,402.43L405.14,402.43z"/>
		</g>
	</g>
	<g>
		<g>
			<path class="st11" d="M420.91,406.61c-1.11,2.59-1.13,5.8-1.36,8.58c-0.24,2.99-0.53,5.99-0.79,8.98
				c-0.52,6.06-1.1,12.12-1.81,18.16c-1.41,12.05-3.4,24.01-5.68,35.92c-0.62,3.26-1.28,6.52-1.98,9.77
				c-0.36,1.66-0.72,3.33-1.09,4.99c-0.4,1.76-0.96,3.55-0.89,5.36c0.08,1.97,2.82,2.91,3.84,1.04c1.44-2.64,1.77-6.04,2.4-8.96
				c0.65-3.01,1.26-6.03,1.85-9.05c1.14-5.89,2.12-11.81,2.98-17.75c1.76-12.13,3.1-24.33,3.86-36.57c0.21-3.39,0.34-6.79,0.4-10.19
				c0.03-1.7,0.06-3.4,0.02-5.1c-0.04-1.66-0.05-3.46-0.62-5.03C421.9,406.31,421.14,406.06,420.91,406.61L420.91,406.61z"/>
		</g>
	</g>
	<g>
		<g>
			<path class="st11" d="M437.77,416.21c-1.32,2.43-1.49,5.56-1.94,8.26c-0.46,2.75-0.84,5.53-1.18,8.29
				c-0.7,5.72-1.4,11.43-2.11,17.15c-1.39,11.29-3.05,22.54-5.34,33.69c-1.3,6.34-2.73,12.65-4.34,18.92
				c-0.75,2.94,3.79,4.19,4.54,1.25c2.83-11.06,5.12-22.24,6.84-33.52c1.75-11.47,2.81-23.02,4.01-34.55
				c0.34-3.26,0.65-6.52,0.9-9.79c0.12-1.55,0.18-3.1,0.26-4.65c0.09-1.63,0.21-3.27-0.23-4.86
				C439.03,415.76,438.09,415.61,437.77,416.21L437.77,416.21z"/>
		</g>
	</g>
	<g>
		<g>
			<path class="st11" d="M-2.01,440.54c4.11-1.02,8.07-2.63,12.05-4.05c3.92-1.4,7.84-2.79,11.76-4.18c8-2.84,15.98-5.72,23.97-8.61
				c15.81-5.72,31.61-11.48,47.42-17.23c4.46-1.62,8.92-3.25,13.38-4.87c4.34-1.58,8.7-3.52,13.32-4.11
				c0.96-0.12,1.77-0.73,1.78-1.78c0.01-0.95-0.82-1.8-1.78-1.78c-4.08,0.08-7.94,1.83-11.7,3.22c-4.06,1.51-8.12,3.01-12.18,4.52
				c-7.97,2.95-15.93,5.91-23.9,8.86c-16.01,5.93-32.04,11.84-48,17.91c-4.52,1.72-9.04,3.43-13.56,5.14
				c-4.43,1.68-9,3.17-13.25,5.28C-3.69,439.33-3.01,440.79-2.01,440.54L-2.01,440.54z"/>
		</g>
	</g>
	<g>
		<g>
			<path class="st11" d="M1.37,459.5c17.66-7.05,35.23-14.3,52.77-21.64c17.63-7.37,35.27-14.73,52.87-22.17
				c9.88-4.18,19.76-8.35,29.64-12.53c0.96-0.41,1.16-1.81,0.69-2.63c-0.57-0.99-1.68-1.09-2.63-0.69
				c-17.52,7.45-35.05,14.86-52.54,22.38c-17.4,7.48-34.83,14.92-52.2,22.47c-9.82,4.27-19.6,8.62-29.37,13
				C-0.39,458.15,0.33,459.91,1.37,459.5L1.37,459.5z"/>
		</g>
	</g>
	<g>
		<g>
			<path class="st11" d="M-0.86,478.63c19.29-9.57,38.86-18.65,58.49-27.51c19.62-8.86,39.45-17.27,59.46-25.21
				c11.27-4.47,22.57-8.83,33.92-13.09c2.3-0.87,1.32-4.59-1.03-3.73c-20.36,7.48-40.48,15.6-60.41,24.15
				c-19.85,8.51-39.51,17.46-58.91,26.95c-10.95,5.36-21.74,11.02-32.52,16.71C-3.01,477.51-2,479.19-0.86,478.63L-0.86,478.63z"/>
		</g>
	</g>
	<g>
		<g>
			<path class="st11" d="M1.63,489.96c5.33-1.62,10.53-3.9,15.64-6.09c5.13-2.19,10.27-4.39,15.4-6.58
				c10.35-4.4,20.69-8.83,31.02-13.29c20.49-8.86,40.98-17.7,61.46-26.58c11.6-5.03,23.34-9.83,34.79-15.2
				c1.93-0.91,0.54-4.3-1.47-3.49c-10.42,4.2-20.65,8.91-30.94,13.41c-10.3,4.5-20.59,9.01-30.88,13.52
				c-20.43,8.96-40.87,17.87-61.25,26.95c-5.78,2.57-11.55,5.14-17.33,7.7c-5.73,2.54-11.64,5.01-17.06,8.17
				C0.23,488.93,0.74,490.23,1.63,489.96L1.63,489.96z"/>
		</g>
	</g>
	<g>
		<g>
			<path class="st11" d="M0.96,501.39c11.17-4.53,22.39-8.9,33.57-13.41c11.19-4.51,22.39-9,33.64-13.37
				c22.5-8.75,45.02-17.44,67.67-25.82c12.7-4.7,25.44-9.31,38.19-13.85c2.54-0.9,1.45-4.98-1.12-4.07
				c-22.83,8.13-45.58,16.51-68.16,25.31c-22.52,8.78-44.95,17.75-67.22,27.14c-12.51,5.28-24.89,10.81-37.28,16.39
				C-0.68,500.14,0,501.78,0.96,501.39L0.96,501.39z"/>
		</g>
	</g>
	<g>
		<g>
			<path class="st11" d="M43.77,501.17c4.62-1.52,9.24-3.02,13.79-4.75c4.48-1.7,8.94-3.46,13.4-5.22
				c8.92-3.52,17.79-7.17,26.64-10.88c17.78-7.44,35.48-15.08,53.08-22.93c9.95-4.44,19.86-9,29.73-13.61
				c1.01-0.47,1.27-1.92,0.74-2.82c-0.6-1.03-1.81-1.22-2.82-0.74c-17.35,8.18-34.79,16.19-52.34,23.95
				c-17.64,7.79-35.42,15.25-53.21,22.68c-4.96,2.07-9.93,4.1-14.89,6.17c-4.98,2.08-9.88,4.31-14.79,6.55
				C42.18,499.97,42.82,501.47,43.77,501.17L43.77,501.17z"/>
		</g>
	</g>
	<g>
		<g>
			<path class="st11" d="M293.18,448.43c5.39,2.07,10.93,3.75,16.45,5.44c6.45,1.98,12.89,3.98,19.35,5.92
				c14.81,4.44,29.63,8.89,44.45,13.3c15.78,4.7,31.55,9.41,47.34,14.08c14.99,4.44,29.99,8.88,44.98,13.33
				c12.45,3.69,24.92,7.26,37.38,10.89c1.27,0.37,2.55,0.74,3.82,1.12c2.58,0.75,3.68-3.25,1.11-4.02
				c-11.98-3.62-23.93-7.31-35.93-10.85c-14.83-4.38-29.66-8.76-44.49-13.14c-15.79-4.66-31.58-9.29-47.38-13.93
				c-15-4.4-30.01-8.79-45.02-13.17c-12.46-3.64-24.91-7.32-37.47-10.57c-1.29-0.33-2.58-0.63-3.88-0.9
				C292.21,445.56,291.63,447.83,293.18,448.43L293.18,448.43z"/>
		</g>
	</g>
	<g>
		<g>
			<path class="st11" d="M298.82,433.11c10.78,4.92,22.41,8.04,33.72,11.54c14.14,4.38,28.31,8.68,42.51,12.89
				c15.15,4.49,30.31,8.91,45.49,13.31c14.44,4.18,28.9,8.29,43.38,12.3c11.84,3.28,23.71,6.42,35.6,9.5
				c1.32,0.34,2.63,0.51,3.99,0.66c0.89,0.1,1.66-0.76,1.77-1.56c0.13-0.96-0.45-1.63-1.29-1.98c-2.41-1.01-4.9-1.6-7.42-2.27
				c-2.76-0.74-5.51-1.48-8.27-2.25c-6.17-1.71-12.34-3.42-18.51-5.12c-14.22-3.92-28.43-7.9-42.63-11.89
				c-15.21-4.27-30.4-8.61-45.57-13.01c-14.39-4.16-28.77-8.35-43.13-12.6c-6.33-1.87-12.65-3.76-18.96-5.68
				c-5.46-1.66-10.95-3.09-16.45-4.57c-1.18-0.32-2.36-0.58-3.56-0.82C298.6,431.39,297.9,432.68,298.82,433.11L298.82,433.11z"/>
		</g>
	</g>
	<g>
		<g>
			<path class="st11" d="M302.49,416.17c4.85,2.48,10.06,4.48,15.17,6.36c6.16,2.27,12.33,4.51,18.52,6.72
				c14.39,5.14,28.85,10.07,43.36,14.85c15.57,5.12,31.15,10.21,46.8,15.09c14.83,4.62,29.69,9.11,44.63,13.36
				c6.49,1.85,12.98,3.66,19.51,5.35c5.58,1.44,11.19,2.99,16.85,4.08c0.57,0.11,1.14,0.22,1.72,0.32c0.28,0.05,0.56,0.09,0.84,0.13
				c0.16,0.03,1.52,0.26,1.04,0.16c2.71,0.58,3.86-3.58,1.15-4.16c-2.5-0.53-4.99-1.3-7.49-1.89c-2.8-0.66-5.59-1.35-8.37-2.06
				c-6.32-1.61-12.62-3.29-18.9-5.01c-14.72-4.05-29.37-8.37-43.97-12.83c-15.67-4.79-31.31-9.68-46.89-14.75
				c-14.72-4.79-29.41-9.66-44.08-14.62c-11.86-4.01-23.68-8.17-35.6-12c-1.16-0.37-2.31-0.68-3.49-0.97
				C302.19,414.01,301.42,415.62,302.49,416.17L302.49,416.17z"/>
		</g>
	</g>
	<g>
		<g>
			<path class="st11" d="M308.2,402.44c4.64,2.23,9.73,3.58,14.63,5.15c5.96,1.91,11.92,3.83,17.87,5.77
				c14.03,4.58,28.04,9.22,42.06,13.85c15.19,5.01,30.37,10.02,45.56,15.02c14.34,4.71,28.7,9.38,43.07,13.98
				c11.38,3.64,22.76,7.27,34.22,10.64c1.09,0.32,2.2,0.52,3.29,0.84c2.81,0.83,4.01-3.56,1.21-4.38c0.58,0.17-0.31-0.11-0.36-0.13
				c-0.15-0.06-0.31-0.11-0.46-0.17c-0.25-0.09-0.5-0.18-0.75-0.27c-0.61-0.22-1.23-0.4-1.84-0.59c-1.16-0.35-2.32-0.71-3.48-1.07
				c-2.61-0.81-5.21-1.63-7.82-2.44c-5.99-1.86-11.97-3.74-17.95-5.64c-14.08-4.47-28.13-9.03-42.19-13.56
				c-15.22-4.9-30.43-9.83-45.65-14.71c-14.36-4.6-28.72-9.17-43.12-13.65c-11.35-3.53-22.7-7.32-34.24-10.22
				c-1.15-0.29-2.29-0.43-3.46-0.57C307.65,400.15,307.22,401.96,308.2,402.44L308.2,402.44z"/>
		</g>
	</g>
	<g>
		<g>
			<path class="st11" d="M320.13,389.43c6.64,6.1,15.98,8.29,24.44,10.59c4.45,1.21,8.88,2.47,13.31,3.72
				c12.05,3.39,24.09,6.81,36.13,10.24c14.08,4,28.15,8.03,42.22,12.05c6.97,1.99,13.92,4.01,20.89,5.98
				c6.55,1.85,13.19,3.51,19.68,5.55c5.71,1.8,11.54,3.27,17.31,4.85c4.63,1.27,9.25,2.56,13.91,3.7c0.95,0.23,1.9,0.44,2.84,0.69
				c2.98,0.78,4.25-3.83,1.27-4.61c-9.82-2.56-19.58-5.41-29.35-8.14c-13.23-3.7-26.47-7.37-39.7-11.06
				c-14.12-3.93-28.23-7.93-42.34-11.88c-12.44-3.48-24.89-6.93-37.35-10.31c-4.77-1.29-9.55-2.54-14.33-3.77
				c-7.11-1.83-14.4-3.35-21.12-6.37c-2.13-0.96-4.18-2.12-6.18-3.33C320.47,386.56,319,388.39,320.13,389.43L320.13,389.43z"/>
		</g>
	</g>
	<g>
		<g>
			<path class="st11" d="M449.25,505.83c2.57-5.15,3.61-10.94,4.63-16.56c1.07-5.89,2.17-11.78,3.16-17.69
				c1.97-11.78,3.58-23.65,4.29-35.58c0.4-6.77,0.59-13.59-0.06-20.35c-0.16-1.64-2.59-1.71-2.6,0c-0.1,11.81-0.5,23.52-1.94,35.26
				c-1.45,11.74-3.51,23.41-5.62,35.05c-1.16,6.38-2.4,12.73-3.72,19.08C447.17,506.11,448.71,506.92,449.25,505.83L449.25,505.83z"
				/>
		</g>
	</g>
	<g>
		<g>
			<path class="st11" d="M475.13,421.06c-0.53,5.12-0.26,10.32-0.32,15.47c-0.06,5.16-0.26,10.32-0.6,15.47
				c-0.67,10.23-1.91,20.42-3.91,30.47c-0.56,2.8-1.17,5.6-1.84,8.38c-0.68,2.85-1.59,5.68-2.01,8.59c-0.2,1.37,1.83,2.62,2.51,1.06
				c2.04-4.71,2.98-10.05,4.05-15.05c1.1-5.12,2.02-10.28,2.77-15.47c1.5-10.47,2.36-20.96,2.21-31.54
				c-0.08-5.83-0.16-11.88-1.62-17.54C476.19,420.16,475.2,420.39,475.13,421.06L475.13,421.06z"/>
		</g>
	</g>
	<g>
		<g>
			<path class="st11" d="M490.51,430.75c-0.64,4.8-1.34,9.59-1.94,14.4c-0.6,4.87-1.02,9.77-1.49,14.66
				c-0.92,9.56-1.69,19.15-2.66,28.7c-0.54,5.26-1.3,10.48-2.64,15.6c-0.64,2.44,3.14,3.48,3.77,1.04c2.41-9.2,3.02-18.76,3.83-28.2
				c0.85-9.84,1.69-19.71,2.21-29.57c0.29-5.54,0.42-11.09,0.63-16.63C492.27,429.62,490.65,429.69,490.51,430.75L490.51,430.75z"/>
		</g>
	</g>
	<g>
		<path class="st12" d="M89.35,501.28c31.38-13.17,62.77-26.34,94.15-39.51c5.57-2.34,11.22-4.7,17.19-5.6
			c5.69-0.86,11.48-0.37,17.21,0.12c9.67,0.83,19.34,1.65,29.02,2.48c15.73,1.34,31.53,2.7,46.88,6.36
			c11.44,2.72,22.53,6.7,33.6,10.67c35.08,12.58,70.16,25.16,105.24,37.75c-3.44,1.48-7.2,2.01-10.91,2.48
			c-119.34,15.13-242.34-20.13-359.87,5.49c16.3-9.91,32.6-19.82,48.9-29.74"/>
	</g>
	<g>
		<path class="st13" d="M245.04,399.18c-10.69-0.56-21.86,0.09-31.27,5.21s-16.51,15.68-14.72,26.23
			c1.9,11.2,12.99,20.2,11.73,31.49c-0.46,4.1-2.56,7.89-2.94,11.99c-0.82,8.75,6.05,16.06,11.97,22.55
			c12.14,13.3,22.32,28.38,30.11,44.61c2.65-9.2,5.31-18.41,7.96-27.61c2.38-8.25,4.81-16.62,9.34-23.92
			c4.74-7.64,12.02-15.93,8.81-24.32c-0.71-1.85-1.92-3.52-2.32-5.47c-0.55-2.64,0.46-5.33,1.29-7.89
			c3.8-11.71,4.07-25.02-1.66-35.91c-5.74-10.89-18.28-18.54-30.4-16.36"/>
	</g>
</g>
<g id="gon">
	<g>
		<path class="st5" d="M232.02,197.75L232.02,197.75c-0.58,0.8-0.24,1.92,0.67,2.27l3.94,1.51c6.53,2.5,13.33,5.05,20.31,4.51
			c2.24-0.17,4.45-0.66,6.64-1.15c3.97-0.89,8.11-1.86,11.67-3.72c2.14-1.12,2.51-4.01,0.76-5.67c-3-2.83-6.24-5.4-9.69-7.67
			c-4.08-2.68-8.88-5.02-13.69-4.13c-1.98,0.37-3.82,1.26-5.63,2.15c-2.6,1.27-5.2,2.55-7.55,4.24
			C236.55,192.17,234.12,194.85,232.02,197.75z"/>
	</g>
	<g>
		<path class="st2" d="M240.22,196.4c0.18,0.11,0.36,0.2,0.55,0.29c8.49,4.1,18.46,3.41,27.82,2.86c0.99-0.06,1.95-0.43,2.65-1.12
			c1.44-1.43,0.18-2.21-1.25-3.01c-0.3-0.17-0.61-0.33-0.92-0.47c-9.14-4.05-19.03-6.41-27.81-2.15c-1.07,0.52-2.28,1.52-1.89,2.65
			C239.51,195.87,239.84,196.16,240.22,196.4z"/>
	</g>
	<g>
		<path class="st14" d="M253.96,197.14c0.9,0.32,1.98,0.13,2.67-0.55c0.27-0.27,0.47-0.6,0.55-0.97c0.14-0.69-0.25-1.42-0.83-1.81
			c-0.59-0.39-1.34-0.48-2.03-0.36l-0.05,0.01c-1.54,0.26-2.21,2.23-1.03,3.25c0.01,0.01,0.02,0.01,0.03,0.02
			C253.46,196.91,253.7,197.05,253.96,197.14z"/>
	</g>
	<g>
		<path class="st5" d="M307.08,207.05c-0.01,0-0.01,0.01-0.02,0.01c-0.82,0.44-0.97,1.56-0.33,2.23l2.76,2.91
			c4.59,4.84,9.39,9.83,15.62,12.24c2,0.77,4.1,1.26,6.19,1.74c4.04,0.93,8.29,1.85,12.37,1.56c1.88-0.14,3.11-2.06,2.46-3.83
			c-1.46-3.92-3.28-7.7-5.44-11.29c-2.41-3.99-5.58-7.97-10.08-9.19c-1.85-0.5-3.8-0.49-5.72-0.47c-2.76,0.02-5.53,0.05-8.24,0.54
			C313.27,204.12,310.08,205.42,307.08,207.05z"/>
	</g>
	<g>
		<path class="st2" d="M314.48,209.88c0.11,0.16,0.24,0.31,0.37,0.46c5.85,6.67,14.68,9.79,23.01,12.76
			c1.09,0.39,2.44,0.28,3.56-0.16c0.37-0.15,0.55-0.58,0.37-0.94c-0.26-0.52-0.78-1.47-1.82-3.16c-0.46-0.75-0.96-1.49-1.53-2.16
			c-5.3-6.22-13.52-9.98-21.72-9.56c-1.14,0.06-2.57,0.48-2.65,1.62C314.05,209.15,314.23,209.54,314.48,209.88z"/>
	</g>
	<g>
		<path class="st14" d="M326.26,215.66c0.67,0.62,1.69,0.85,2.54,0.51c0.33-0.13,0.64-0.35,0.84-0.65c0.38-0.56,0.31-1.34-0.05-1.9
			c-0.37-0.56-1-0.92-1.65-1.07l-0.05-0.01c-1.45-0.35-2.77,1.13-2.12,2.47c0,0.01,0.01,0.02,0.01,0.03
			C325.91,215.27,326.07,215.48,326.26,215.66z"/>
	</g>
</g>
<g id="huvud">
	<g>
		<path class="st8" d="M174.46,172.55c-4.33-3.65-6.18-9.45-7.11-15.04c-2.94-17.77,1.76-36.68,12.68-51.01
			c2.92,10.95,7.5,21.46,13.54,31.06c1.82,2.9,3.9,5.83,6.95,7.37"/>
	</g>
	<g>
		<path class="st8" d="M199.34,158.28c-1.55-5.33-0.78-11.04,0.24-16.5c3.05-16.3,8.27-32.19,15.49-47.12
			c1.6,16.4,10,32.04,22.79,42.43"/>
	</g>
	<g>
		<path class="st8" d="M248.98,123.57c7.6-7.98,13.4-17.65,16.87-28.1c0.89,3.58,1.55,7.21,2,10.87c0.79,6.51,1.37,14.02,6.7,17.83"
			/>
	</g>
	<g>
		<path class="st8" d="M345.54,180.31c13.01-15.25,17.24-36.06,18.97-56.04c0.17,4.07-2.17,7.8-4.73,10.96
			c-4.01,4.95-8.8,9.27-14.14,12.74c-6,3.9-12.64,6.71-19.23,9.49"/>
	</g>
	<g>
		<path class="st8" d="M320.73,141.88c3.86-2.9,7.69-5.88,10.9-9.48c7.49-8.42,10.97-19.55,14.26-30.33
			c-9.64,11.3-20.25,23.23-34.69,26.71c-2.75,0.66-5.57,1-8.28,1.81c-0.56,0.17-1.01,1.13-0.43,1.09"/>
	</g>
</g>
<g id="ram">
	<path class="st15" d="M27.27,197.12V21.92c0,0,0-0.3,0-0.6h175.2"/>
	<path class="st15" d="M25.97,297.02v175.2c0,0,0,4,0,8c1.3,0,2.7,0,2.7,0h175.2"/>
	<circle class="st15" cx="27.27" cy="217.52" r="8.4"/>
	<circle class="st15" cx="27.27" cy="239.92" r="8.5"/>
	<circle class="st15" cx="27.27" cy="263.32" r="8.4"/>
	<circle class="st15" cx="27.27" cy="284.42" r="8.4"/>
	<path class="st15" d="M486.07,304.72v175.2c0,0,0,0.3,0,0.6h-175.2"/>
	<path class="st15" d="M486.07,204.52V29.32c0,0,0-4,0-8c-4.2,0-8.5,0-8.5,0h-175.2"/>
	<circle class="st15" cx="486.07" cy="284.32" r="8.4"/>
	<circle class="st15" cx="486.07" cy="261.92" r="8.5"/>
	<circle class="st15" cx="486.07" cy="238.52" r="8.4"/>
	<circle class="st15" cx="486.07" cy="217.42" r="8.4"/>
	<g>
		<polyline class="st15" points="68.9,43.52 51.41,43.52 51.41,61.31 		"/>
		<polyline class="st15" points="123.29,43.52 140.79,43.52 140.79,61.31 		"/>
		<polyline class="st15" points="68.9,132.62 51.41,132.62 51.41,114.82 		"/>
		<polyline class="st15" points="123.29,132.62 140.79,132.62 140.79,114.82 		"/>
	</g>
	<g class="st16">
		<g>
			<path class="st17" d="M84.98,79.62c2.25,9.77,4.4,17.72,6.87,32.19c0.41,2.4,1.26,4.71,1.88,7.07c0.1,0.36,0.2,0.73,0.42,1.04
				c0.7,0.95,2.15,0.75,3.29,0.46c2.09-0.54,4.18-1.07,6.27-1.61c1.07-0.28,2.15-0.55,3.21-0.86c1.07-0.31,2.2-0.7,2.92-1.56
				c0.62-0.73,0.8-1.92,0.27-2.67c-1.29-2.17-2.55-3.87-3.12-6.35c-1.98-8.68-4.38-15.53-7.1-24c-0.95-2.97-1.66-8.66-4.2-10.46
				c-2.59-1.84-6.41-1.7-8.86,0.32c-0.91,0.75-1.65,1.76-1.91,2.91c-0.2,0.87-0.12,1.77-0.03,2.65
				C84.92,79.03,84.91,79.33,84.98,79.62z"/>
		</g>
		<g>
			<path class="st18" d="M91.68,62.73c0.18,0.31,0.35,0.63,0.52,0.95c1.27,2.47,2.39,5.02,3.36,7.63c0.68,1.83,1.2,4.1-0.09,5.57
				c-0.99,1.12-2.65,1.29-4.14,1.38c-0.61,0.04-1.22,0.07-1.83,0.11c-0.51,0.03-1.24,0.29-1.75,0.33c-0.8,0.06-1.01-0.03-1.42-0.34
				c-0.45-0.34-0.76-0.83-0.89-1.38c-1.12-4.56-1.3-10.64,0.6-15.41c0.3-0.75,0.73-1.55,1.51-1.78c0.46-0.13,0.97-0.03,1.41,0.16
				C90.17,60.48,91.01,61.56,91.68,62.73z"/>
		</g>
		<g>
			<path class="st19" d="M92,100.75c2.46,1.09,5.16,2.21,7.78,1.56c0.85-0.21,1.63-0.6,2.42-0.98c0.14-0.07,0.3-0.19,0.27-0.34
				c-0.89,0.03-1.77,0.05-2.66,0.08c-2.77,0.08-5.63,0.15-8.22-0.85"/>
		</g>
		<g>
			<path class="st19" d="M92.67,97.49c0.4,0.57,1.09,0.85,1.75,1.08c2.56,0.92,5.33,1.7,7.98,1.08c-3.33-1.14-7.01-1.2-10.14-2.82"
				/>
		</g>
		<g>
			<path class="st19" d="M100.29,96.43c-0.79,0.4-1.73,0.19-2.58-0.02c-1.15-0.28-2.3-0.57-3.45-0.85c1.88,0.01,3.75,0.21,5.59,0.6"
				/>
		</g>
		<g>
			<path class="st19" d="M92.97,89.57c0.4-0.01,0.76-0.2,1.14-0.33c1.69-0.59,3.65,0.15,5.3-0.55c-2.22-0.12-4.55-0.22-6.56,0.75"/>
		</g>
		<g>
			<path class="st19" d="M91.3,87.71c1.6-1.51,3.51-2.69,5.57-3.45c-1.5,1.56-3.35,2.79-5.38,3.56"/>
		</g>
		<g>
			<path class="st17" d="M87.04,63.55c0.63,4.42,1.66,8.78,3.09,13.02c-0.79-4.46-1.83-8.87-3.12-13.21
				C87.02,63.42,87.03,63.48,87.04,63.55z"/>
		</g>
		<g>
			<path class="st17" d="M88.6,62.58c0.8,4.26,1.61,8.51,2.41,12.77c-0.39-3.34-0.74-6.7-1.56-9.96c-0.25-0.99-0.54-1.96-0.87-2.92
				C88.59,62.51,88.6,62.54,88.6,62.58z"/>
		</g>
		<g>
			<path class="st17" d="M90.38,63.25c0-0.01,0-0.01-0.01-0.02c0.71,3.76,1.42,7.52,2.13,11.28c-0.41-2.38-0.6-4.66-1-7.04
				C91.25,66.03,91,64.57,90.38,63.25z"/>
		</g>
		<g>
			<path class="st17" d="M92.29,65.17c-0.01-0.01-0.01-0.02-0.02-0.03c0.87,3,1.13,6.66,1.81,9.5c0-1.67-0.47-4.57-0.81-6.56
				C93.1,67.06,92.89,66,92.29,65.17z"/>
		</g>
		<g>
			<path class="st17" d="M85.96,66c0.16,0.32,0.24,0.68,0.32,1.04c0.59,2.74,1.17,5.48,1.76,8.23c-0.29-0.05-0.52-0.3-0.57-0.58
				c-0.96-2.95-1.57-6.02-1.81-9.11C85.78,65.7,85.88,65.84,85.96,66z"/>
		</g>
	</g>
</g>
</svg>
