<?xml version="1.0" encoding="utf-8"?>
<!-- Generator: Adobe Illustrator 24.0.0, SVG Export Plug-In . SVG Version: 6.00 Build 0)  -->
<svg version="1.1" id="Lager_1" xmlns="http://www.w3.org/2000/svg" xmlns:xlink="http://www.w3.org/1999/xlink" x="0px" y="0px"
	 width="120px" height="120px" viewBox="0 0 500 500" style="enable-background:new 0 0 500 500;" xml:space="preserve">
<style type="text/css">
	.st0{fill:#808080;}
	.st1{fill:#664734;}
	.st2{fill:#5E4130;}
	.st3{fill:#B79480;}
	.st4{fill:#302C2F;}
</style>
<rect x="-65" y="-41" class="st0" width="602" height="584"/>
<g>
	<path class="st1" d="M57.23,256.2c-5.55,1.65-11.25,3.81-12.39,9.25c-0.71,3.42,0.8,6.86,3.43,9.15
		c4.44,3.86,10.27,4.33,15.86,4.73l34.88,2.5c1.08,0.08,2.17,0.32,3.12,0.83c6.76,3.65-0.32,14.24-6.31,15.97
		c-4.41,1.27-7.63,5.31-7.78,9.9c-0.26,7.92,9.1,9.05,15.93,8.32c16.48-1.77,32.88-4.38,49.09-7.81c9.43-1.99,19.1-4.28,28.6-2.64
		c6.94,1.2,13.34,4.43,19.86,7.09c15.4,6.28,31.85,9.47,48.17,12.63c11.78,2.28,23.8,4.57,35.7,3.08
		c9.24-1.16,18.02-4.55,26.99-7.08c31.54-8.9,64.98-7.03,97.7-5.14c7.38,0.43,14.96,0.83,22.01-1.41s13.56-7.73,14.8-15.02
		c1.24-7.29-4.7-15.59-12.07-14.98c-2.34,0.2-5.57,0.54-7.14-0.54c-1.32-0.9-2.86-1.4-4.36-1.93c-4.21-1.51-7.17-6.86-6.28-11.55
		c1.12-5.92,6.35-10.25,11.86-12.7c6.73-3,14.25-3.96,20.65-7.84c2.13-1.29,3.99-3.04,5.15-5.24c4.04-7.67-2.23-14.84-8.5-19.29
		c-22.04-15.65-50.23-19.1-77.13-21.74c-97.26-9.56-197.11-14.67-291.22,11.7c-4.64,1.3-9.47,2.8-12.83,6.24
		c-3.37,3.44-4.62,9.45-1.41,13.03c1.95,2.18,5.14,3.09,6.78,5.52c3.7,5.46-3.28,12.06-9.61,13.92
		C59.65,255.5,58.45,255.84,57.23,256.2z"/>
</g>
<g>
	<path class="st1" d="M101.16,183.78c-0.8-0.97-1.32-2.18-1.47-3.43c-0.26-2.21,0.57-4.48,2.01-6.17c1.36-1.6,3.21-2.71,5.12-3.59
		c3.39-1.56,7.07-2.5,10.8-2.74c0,0,7.1-0.46,11.17-0.72c-3.89,0.95-8.69,2.13-8.69,2.13c-2.95,0.72-5.04,3.35-6.44,6.05
		s-2.37,5.65-4.26,8.04c-0.93,1.18-2.18,2.25-3.67,2.45c-0.77,0.11-1.57-0.03-2.29-0.32C102.56,185.12,101.78,184.52,101.16,183.78z
		"/>
</g>
<g>
	<path class="st1" d="M168.89,157.18c0.51-0.67,1.13-1.26,1.83-1.74c2.75-1.85,6.67-1.78,9.34,0.19c1.61,1.18,2.73,2.92,3.62,4.72
		c1.49,3.02,2.41,6.31,2.71,9.66c0.07,0.74-0.37,1.82-1.03,1.48c0,0-0.32-0.16-0.85-0.44c-0.15-0.45-0.4-0.87-0.72-1.2
		c-1.23-1.24-3.08-1.56-4.81-1.82c-2.62-0.39-5.24-0.78-7.86-1.17c-1.12-0.17-2.35-0.39-3.07-1.27c-0.34-0.41-0.52-0.92-0.65-1.43
		C166.78,161.78,167.4,159.14,168.89,157.18z"/>
</g>
<g>
	<path class="st1" d="M137.97,140.29c-5.09-2.51-11.26-1.13-16.64,0.78c-1.4,0.5-2.85,1.08-3.76,2.25
		c-2.03,2.63,0.08,6.77,3.16,7.99c1.87,0.74,3.88,0.76,5.9,0.48c3.11-0.71,6.21-1.42,9.32-2.13c2.43-0.55,5.26-1.02,7.16,0.58
		c1.88,1.57,2.36,4.81,4.74,5.4c-1.83-5.88-4.14-12.32-9.58-15.19C138.18,140.39,138.08,140.34,137.97,140.29z"/>
</g>
<g>
	<path class="st2" d="M225.22,302.82c3.35,0.54,69.6,9.86,72.96,10.33c-18.35-4.43-100.24-14.09-118.92-16.81
		c-18.68-2.72-37.63-7.55-52.81-18.78c-3.33-2.47-6.51-5.28-8.64-8.84c-5.83-9.71-2.33-22.91,5.36-31.22s18.65-12.74,29.41-16.28
		c25.77-8.48,102.04-13.27,129.15-14.37c-49.37,10.24-78.71,7.08-98.7,10.12c-10.76,1.64-31.28,7.55-40.78,12.86
		c-6.49,3.62-11.8,9.16-15.73,15.47c-2.62,4.21-4.71,9-4.45,13.95c0.24,4.58,2.51,8.88,5.55,12.32c6.7,7.6,16.72,11.24,26.39,14.3
		C177.28,293.26,201.11,298.92,225.22,302.82z"/>
</g>
<g>
	<path class="st2" d="M346.26,299.73c10.33-3.49,21.77-3.61,32.17-0.35c6.01,1.89,11.81,4.89,18.1,5.17
		c6.29,0.28,13.46-3.42,14.16-9.68c0.3-2.71-0.65-5.39-1.24-8.05c-2.54-11.34,1.83-23.95,10.84-31.29c3.05-2.48,6.57-4.4,9.33-7.21
		s4.69-6.91,3.51-10.66c-0.77-2.45-2.73-4.33-4.71-5.98c-14.6-12.22-34.35-18.08-53.26-15.79c10.15,1.17,20.13,3.83,29.51,7.86
		c4.87,2.09,9.76,4.7,12.85,9c3.09,4.3,3.84,10.69,0.44,14.74c-2.42,2.88-6.32,4.03-9.2,6.44c-7.09,5.91-6.06,16.9-4.29,25.95
		c1.33,6.81,1.98,15.46-3.93,19.1c-4.53,2.79-10.32,0.87-15.46-0.49c-15.24-4.03-31.96-2.21-45.97,5.01"/>
</g>
<g>
	<path class="st2" d="M390.65,228.48c-51.76-16.53-107.55-12.25-161.7-7.81c-12.78,1.05-25.57,2.1-38.35,3.15
		c-5.45,0.45-12.41,2.32-12.8,7.77c1.42-5.76,70.09-10.06,105.45-11.6c39.04-1.71,79.16-0.39,115.52,13.91
		c-3.94-3.4-7.87-6.81-11.81-10.21"/>
</g>
<g>
	<path class="st2" d="M365.19,288.93c-20.2-4.88-28.06,0.48-41.71,2.71c-9.86,1.61-20.39,4.26-30.37,3.8
		c-23.23-1.08-44.81,3.88-67.85,0.76c-20.41-2.76-41.27-10.71-54.62-26c29.67,20.54,52.87,27.77,104.42,23.53
		c19.07-1.57,38.26-2.31,56.95-6.37c12.16-2.64,26.2-5.87,36.01,1.8C367.07,289.04,366.11,289.15,365.19,288.93z"/>
</g>
<g>
	<path class="st2" d="M260.96,235.07c-2.17-0.03-4.19,1.09-5.88,2.45c-4.45,3.58-7.29,9.1-7.61,14.8c-0.1,1.85,0.05,3.75,0.79,5.45
		c0.65,1.51,1.73,2.79,2.87,3.97c3.01,3.1,6.62,5.61,10.57,7.37C249.24,256.84,249.92,245.56,260.96,235.07z"/>
</g>
<g>
	<path class="st2" d="M285.91,232.72c6.42,4.1,10.37,11.78,9.97,19.38c-0.4,7.66-4.76,14.48-9.24,20.71
		C295.22,255.9,295.59,242.29,285.91,232.72"/>
</g>
<g>
	<path class="st3" d="M292.15,253.01c0.17-21.78-3.53-41.34-3.36-63.11c0.01-1.12-0.47-4.89,0-5.91c0.49-1.06,2.09-3.65,2.95-4.43
		c5.06-4.58,3.75-3.87,5.91-10.34c1.2-3.61,8.97-11.96,3.23-12.01c-1.59-0.01-3.03,0.88-3.94,2.2c-3.29,4.78-7.4,9-12.1,12.41
		c-1.54-12.01,4.17-25.26-1.83-35.77c-2.01-0.23-3.95,1.11-4.99,2.85s-1.36,3.8-1.58,5.81c-0.83,7.64-0.58,15.4,0.74,22.98
		c-6.24-6.91-5.26-17.65-7.38-26.48c-0.49-2.06-2.43-3.57-4.53-3.33c-3.58,0.42-3.53,5.18-2.66,8.45
		c1.93,7.27,3.86,14.54,5.79,21.81c-5.81-1.7-8.5-8.29-9.84-14.19c-1.34-5.9-2.48-12.5-7.28-16.19c-2.26,0.59-3.53,3.14-3.45,5.47
		c0.08,2.33,1.18,4.49,2.26,6.56c3.79,7.33,7.52,14.91,8.45,23.11c-3.45-8.1-15.21-11.14-22.16-5.73c-0.92,0.71-1.83,1.71-1.21,3.02
		c0.6,1.27,2.11,1.78,3.48,1.48c6.18-1.34,11.95,4.35,12.2,10.26c0.1,2.33,1.11,4.48,2.83,6.06c15.44,14.22,2.35,41.77-1.09,59.19
		c-0.69,3.47-0.32,7.35,1.66,10.28L292.15,253.01z"/>
</g>
<g>
	<path class="st2" d="M251.7,256.08c-0.11,3.03,2.24,5.95,5.22,6.49c1.34,0.24,2.71,0.05,4.06-0.14c9.07-1.33,18.08-3.01,27.02-5.04
		c2.47-0.56,5.41-1.64,5.8-4.14"/>
</g>
<g>
	<path class="st4" d="M91.5,321.13c6.2,2.56,13.22,3.13,19.74,1.53c4.27-1.05,8.27-2.98,12.53-4.07c5.3-1.36,10.84-1.38,16.29-1.87
		c12.56-1.13,24.98-4.76,37.55-3.84c14.58,1.07,27.92,8.14,41.44,13.7s28.8,9.72,42.58,4.83c-1.02-0.32-2.04-0.64-3.06-0.96
		c-19.7-0.98-39.5-4.23-57.55-12.14c-5.14-2.25-10.15-4.88-15.55-6.39c-9.37-2.62-19.33-1.71-28.96-0.36
		c-11.48,1.6-22.88,3.78-34.13,6.53c-11.5,2.81-24.03,6.14-34.75,1.11C88.86,319.93,90.16,320.58,91.5,321.13z"/>
</g>
<g>
	<path class="st4" d="M58.26,254.33c2.88-0.87,5.8-1.83,8.1-3.75c2.41-2.01,3.97-5.38,2.93-8.34c-1.52-4.34-7.48-5.66-9.37-9.86
		c-1.58-3.51,0.29-7.53,2.11-10.92c1.71-3.17,5.33-5.97,6.47-7.96c-4.85,3.7-9.56,10.45-10.54,16.47c-0.26,1.62-0.35,3.33,0.25,4.85
		c1.61,4.04,7.38,5.25,8.82,9.36c0.86,2.46-0.23,5.3-2.13,7.09c-1.9,1.78-4.48,2.67-7.04,3.19
		C57.99,254.41,58.12,254.37,58.26,254.33z"/>
</g>
<g>
	<path class="st4" d="M48.09,274.62c6.79,4.58,15.32,5.81,23.52,6.12c8.41,0.32,16.94-0.18,25.15,1.7c3.91,0.89,8.55,3.3,6.21,8.52
		c-1.88-5.96-8.14-8.54-13.99-8.88c-5.02-0.29-10.01,0.74-15.03,0.86c-9.44,0.22-18.92-2.9-26.38-8.67
		C47.74,274.38,47.92,274.5,48.09,274.62z"/>
</g>
</svg>
