<?xml version="1.0" encoding="utf-8"?>
<!-- Generator: Adobe Illustrator 24.0.0, SVG Export Plug-In . SVG Version: 6.00 Build 0)  -->
<svg version="1.1" xmlns="http://www.w3.org/2000/svg" xmlns:xlink="http://www.w3.org/1999/xlink" x="0px" y="0px" width="500px"
	 height="500px" viewBox="0 0 500 500" style="enable-background:new 0 0 500 500;" xml:space="preserve">
<style type="text/css">
	.st0{fill:#3E383C;}
	.st1{opacity:0.46;}
	.st2{fill:#3A4246;}
	.st3{fill:#272C2C;}
	.st4{fill:#212525;}
	.st5{fill:#1F2323;}
	.st6{fill:#242828;}
	.st7{fill:#525456;}
	.st8{fill:#595C5F;}
	.st9{fill:#444144;}
	.st10{fill:#282C2C;}
	.st11{fill:#9B9495;}
	.st12{fill:#8E888A;}
	.st13{fill:#242829;}
	.st14{fill:#33393B;}
	.st15{fill:#25292B;}
	.st16{fill:#222626;}
	.st17{fill:none;stroke:#000000;stroke-width:2;stroke-miterlimit:10;}
</style>
<g id="Lager_1">
	<rect x="-43.61" y="-3.73" class="st0" width="573" height="565"/>
</g>
<g id="skugga">
	<g class="st1">
		<g>
			<path d="M21.04,473.52c0.86,12.99,1.71,25.98,2.57,38.97c5.83-0.83,11.51-2.75,16.66-5.62c-0.4-2.32-1.28-4.52-2.16-6.7
				c-3.99-9.92-8.37-20.21-16.59-27.04"/>
		</g>
		<g>
			<path d="M45.16,537.51c-5.86-22.26-13.84-43.96-23.79-64.72c13.8-5.85,27.6-11.69,41.39-17.54c18.47-7.82,36.98-15.67,54.4-25.61
				c7.76-4.43,15.47-9.43,20.73-16.65c4.85-6.64,7.28-14.69,9.64-22.56c3.98-13.31,7.97-26.63,11.95-39.94
				c32.89-1.54,65.78-3.07,98.67-4.61c20.88-0.98,43.49-2.62,59.24-16.36c1.95,15.78,3.91,31.56,5.86,47.35
				c0.66,5.34,1.34,10.77,3.44,15.73c6.2,14.7,22.71,21.64,37.68,27.17c19.97,7.38,39.95,14.75,59.92,22.12
				c10.13,3.74,20.61,7.7,28.24,15.34c13.58,13.59,14.73,34.87,15.05,54.08"/>
		</g>
		<g>
			<path d="M181.19,490.39c5.29,5.29,10.73,10.38,17.16,14.13c-8.8-21.66-19.28-42.66-26.56-64.87c-7.3-22.26-11.3-46.21-6.62-69.16
				c-1.55-2.75-3.27-5.42-5.14-7.97c-9.81,17.21-15.4,36.8-16.15,56.6c-0.26,6.79,0.04,13.59,0.34,20.38
				c0.38,8.67,0.77,17.35,1.15,26.02c10.93,1.97,20.09,9.29,28.04,17.05C176.03,485.14,178.59,487.79,181.19,490.39z"/>
		</g>
		<g>
			<path d="M357.04,425.78c9.28,8.61,19.23,16.58,29.16,24.44c-46.87,21.44-100.57,28.6-142.64,58.36
				c2.12-6.43,6.07-12.24,11.27-16.57c27.14-37.18,53.89-75.68,65.96-119.97c1.73,10.7,7.3,20.42,13.77,29.12
				C341.21,410.1,348.86,418.19,357.04,425.78z"/>
		</g>
		<g>
			<path d="M163.79,370.42c-2.79,8.3-2.49,17.3-1.68,26.01c1.97,21.26,6.82,42.26,14.36,62.23c2.44,6.47,5.17,12.84,7.89,19.2
				c10.09,23.57,20.17,47.14,30.26,70.71c0.17,0.39,0.35,0.8,0.71,1.03c0.56,0.37,1.31,0.14,1.94-0.09
				c5.87-2.2,11.73-4.39,17.6-6.59c1.55-0.58,3.18-1.21,4.23-2.49c1.1-1.33,1.38-3.13,1.67-4.84c2.87-17.44,9.32-34.28,18.84-49.17
				c3.88-6.07,8.25-11.8,12.61-17.53c6.61-8.67,13.22-17.34,19.82-26.01c8.43-11.07,17.12-22.68,19.66-36.36
				c1.45-7.83,0.79-15.9,1.8-23.8c0.75-5.9,2.43-11.64,3.49-17.49c2.02-11.1,1.8-22.61-0.64-33.63c-5.57,3.11-11.23,6.05-16.97,8.82
				c-2.52,1.22-5.1,2.41-7.85,2.92c-3.24,0.6-6.57,0.24-9.86-0.02c-22.47-1.74-44.97,1.91-67.22,5.54
				c-6.84,1.12-13.75,2.25-20.16,4.88c-5.58,2.29-10.65,5.65-15.68,8.98c-4.82,3.2-9.63,6.39-14.45,9.59"/>
		</g>
		<g>
			<path d="M176.16,368.35c-1.98,3.53,2.93,28.43,4.71,32.07c1.78,3.63,4.64,6.61,7.34,9.62c12.16,13.52,22.18,28.96,29.59,45.57
				c1.53,3.42,2.99,6.97,5.55,9.71s6.54,4.51,10.1,3.35c2.83-0.91,4.82-3.41,6.6-5.8c10.64-14.24,20.48-29.09,29.45-44.44
				c2.79-4.77,5.53-9.64,9.36-13.61c2.55-2.64,5.53-4.84,8.18-7.38c7.34-7.05,11.98-16.86,12.76-27.02
				c-13.32,4.93-24.47,14.26-36.59,21.67c-12.12,7.41-26.6,13.08-40.35,9.52c-5.51-1.43-10.53-4.26-15.79-6.44
				C198.72,391.7,185.2,368.43,176.16,368.35"/>
		</g>
		<g>
			<path d="M195.3,503.79c-9.9-6.25-15.79-17.15-24.35-25.15c-7.01-6.54-15.86-11.09-25.27-12.96"/>
			<g>
				<path class="st2" d="M196.06,502.5c-6.92-4.43-11.86-11.14-17.07-17.35c-5.46-6.53-11.56-12.23-19.21-16.12
					c-4.33-2.2-8.94-3.82-13.7-4.79c-1.88-0.38-2.69,2.51-0.8,2.89c8.33,1.7,16.23,5.41,22.74,10.91
					c6.22,5.26,10.85,12.01,16.26,18.03c3.06,3.4,6.4,6.54,10.27,9.01C196.17,506.13,197.68,503.54,196.06,502.5L196.06,502.5z"/>
			</g>
		</g>
		<g>
			<path d="M158.33,300.58c-0.26,14.2,0.42,28.42-0.42,42.6c-0.51,8.55-1.42,17.76,3.01,25.1c1.45,2.41,3.41,4.46,5.35,6.49
				c12.55,13.13,25.09,26.27,37.64,39.4c1.76,1.84,3.58,3.73,5.89,4.8c2.15,0.99,4.57,1.21,6.93,1.3
				c15.25,0.58,30.64-3.63,43.47-11.9c8.28-5.34,15.41-12.23,22.48-19.09c4.29-4.15,8.57-8.31,12.86-12.46
				c5.11-4.95,10.36-10.1,13.06-16.68c6.11-14.88-4.45-21.6,0.12-39.43c0.06-26.08-8.67-51.45-16.87-76.22
				c-2.15-6.5-4.33-13.06-7.82-18.96c-3.8-6.43-9.05-11.89-14.61-16.89c-4.26-3.84-8.97-7.57-14.59-8.74
				c-4.96-1.04-10.1,0.03-15.02,1.23c-25.89,6.32-52.37,17.72-67.03,39.98c-9.59,14.57-13.09,32.34-14.11,49.75
				C158.5,294.11,158.39,297.34,158.33,300.58z"/>
		</g>
		<g>
			<path d="M197.21,364.02c0.42-4.9,3.22-9.61,7.47-12.13c1.11-0.66,2.36-1.19,3.65-1.16c1.49,0.03,2.85,0.78,4.21,1.39
				c6.62,2.97,14.37,2.89,21.28,0.67c3.32-1.07,6.78-2.62,10.15-1.76c1.49,0.38,2.84,1.22,4.01,2.22c4.21,3.56,6.35,9.36,5.65,14.81
				c-1.38,2.3-2.75,4.61-4.12,6.91c-1.62,2.73-3.27,5.48-5.53,7.71c-6.54,6.44-16.79,7.17-25.88,5.9c-1.95-0.27-3.92-0.63-5.7-1.47
				c-2.04-0.96-3.74-2.51-5.4-4.03c-2.43-2.22-4.88-4.47-6.75-7.18c-1.73-2.51-2.95-5.48-2.95-8.52
				C197.14,366.26,197.12,365.13,197.21,364.02z"/>
		</g>
		<g>
			<path d="M253.61,368.23c-4.37,1.03-7.73,4.4-11.41,6.96c-5.89,4.1-13.11,6.27-20.28,6.1c-3.16-0.07-6.51-0.68-8.86-2.8
				c-2.32-2.11-3.28-5.36-5.4-7.67c-2.37-2.59-6.39-2.69-9.02-3.75c1.12-0.79,2.21-2.15,2.85-3.49c0.64-1.33,0.65-2.87,1-4.31
				c0.59-2.42,2.47-4.73,4.95-4.96c3.64-0.34,6.24,3.58,9.77,4.54c1.37,0.37,2.82,0.28,4.24,0.14c3.78-0.37,7.54-1.01,11.23-1.92
				c1.82-0.45,3.68-0.97,5.54-0.8c2.51,0.22,4.72,1.64,7.01,2.7c2.29,1.05,5.05,1.74,7.26,0.51"/>
		</g>
		<path d="M243.55,376.34c0,3.36-8.17,6.08-18.24,6.08c-10.07,0-22.14-9.65-22.14-13.01s6.73,5.96,16.8,5.96
			C230.05,375.37,243.55,372.98,243.55,376.34z"/>
		<g>
			<path d="M244.26,363.6c-0.41,0.09-0.85,0.12-1.28,0.14c-4.66,0.24-9.32,0.46-13.98,0.66c-2.72,0.12-5.44,0.23-8.16,0.35
				c-2.61,0.11-5.21,0.22-7.82,0.33c-0.66,0.03-1.43,0.01-1.84-0.52c-0.29-0.38-0.28-0.91-0.26-1.39c0.11-2.31,0.22-4.61,0.33-6.92
				c1.84,0.16,3.36,1.46,5.06,2.18c3.19,1.35,6.82,0.61,10.2-0.14c1.78-0.4,3.55-0.79,5.33-1.19c2.69-0.6,5.51-1.2,8.16-0.46
				c0.7,0.2,1.38,0.49,2.05,0.77c0.69,0.3,1.39,0.59,2.08,0.89c0.9,0.38,1.97,0.9,2.15,1.96c0.15,0.87-0.24,2.24-0.91,2.82
				C245.05,363.35,244.67,363.51,244.26,363.6z"/>
		</g>
		<g>
			<path d="M215.96,364.84c1.55-1.31,2.29-3.5,1.85-5.48"/>
		</g>
		<g>
			<path d="M224.36,364.44c0.8-1.65,0.98-3.6,0.48-5.36"/>
		</g>
		<g>
			<path d="M229.39,364.26c0.84-1.83,1.11-3.92,0.76-5.91"/>
		</g>
		<g>
			<path d="M234.7,363.51c0.88-1.9,1.17-4.07,0.82-6.13"/>
		</g>
		<g>
			<path d="M239.59,363.26c0.72-1.87,0.93-3.92,0.61-5.9"/>
		</g>
		<g>
			<path d="M248.07,370.57c-6.11,6.59-11,5.28-14.06,5.73c-2.09,0.31-4.22,0.18-6.33,0.04c-3.21-0.2-6.42-0.4-9.62-0.6
				c-1.78-0.11-3.56-0.22-5.34-0.11c-3.57-2.71-3.57-2.71-3.17-6.54c0.16-1.54,5.12-0.56,6.66-0.41c5.29,0.52,10.59,1.47,15.89,1.06
				c2.71-0.21,5.4-0.78,8.12-0.9C242.95,368.7,245.79,369.07,248.07,370.57"/>
		</g>
		<g>
			<path d="M214.71,368.35c0.49,0.03,1.82,1.8,1.9,2.29c0.26,1.68,0.06,3.42-0.58,5"/>
		</g>
		<g>
			<path d="M219.98,369.75c0.38,1.51,0.56,3.08,0.52,4.64c-0.01,0.39,0.1,1.58-0.28,1.51"/>
		</g>
		<g>
			<path d="M224.61,370.29c0.67,1.71,0.83,3.62,0.46,5.41"/>
		</g>
		<g>
			<path d="M228.55,370.26c1.15,1.69,1.56,3.87,1.11,5.87"/>
		</g>
		<g>
			<path d="M232.69,370.24c-0.17-0.05-0.03-0.35,0.15-0.32c0.18,0.03,0.27,0.23,0.33,0.39c0.64,1.78,0.96,3.68,0.94,5.57"/>
		</g>
		<g>
			<path d="M237.44,369.11c0.99,1.92,1.29,4.19,0.84,6.3"/>
		</g>
		<g>
			<path d="M241.69,369.06c0.5,1.65,0.66,3.41,0.44,5.12"/>
		</g>
		<g>
			<path d="M176.61,291.18c-0.2,0.71-0.35,1.43-0.45,2.16c2.21-0.48,3.56-2.8,5.67-3.61c1.73-0.66,3.68-0.2,5.39,0.52
				c1.7,0.72,3.32,1.69,5.13,2.08c4.26,0.93,8.46-1.47,12.16-3.78c0.98-0.61,2.1-1.49,1.38-2.81c-2.51-0.72-4.75-2.19-7.11-3.31
				c-2.18-1.04-4.53-1.8-6.94-1.96c-3.72-0.26-7.51,0.96-10.39,3.32C179.13,285.69,177.43,288.31,176.61,291.18z"/>
		</g>
		<g>
			<path d="M249.17,287.94c3.4-2.95,8.21-3.85,12.74-3.88c6.94-0.06,13.89,1.59,20.06,4.76c-4.87,1.92-10.12,0.83-15.22,1.1
				c-3.04,0.16-6.04,0.82-9.07,1c-3.04,0.19-6.23-0.13-8.81-1.75c-0.16-0.1-0.34-0.24-0.35-0.43c-0.01-0.17,0.12-0.32,0.25-0.43
				C248.89,288.18,249.03,288.06,249.17,287.94z"/>
		</g>
		<g>
			<path d="M192.4,291.29c0.38,0,0.77-0.07,1.13-0.19c1.09-0.36,1.98-1.16,2.71-2.04c0.24-0.29,0.47-0.6,0.6-0.95
				c0.18-0.51,0.13-1.08,0.03-1.61c-0.4-2.12-1.84-4.32-4.03-4.46c-0.88-0.72-2-0.02-2.71,0.73c-0.57,0.6-1.08,1.29-1.3,2.09
				c-0.3,1.15,0.05,2.36,0.41,3.5c0.24,0.77,0.5,1.58,1.08,2.15C190.86,291.05,191.63,291.29,192.4,291.29z"/>
		</g>
		<g>
			<path d="M238.27,295.88c0.94,4.73,2.75,9.29,5.3,13.39c2.18,3.49,4.92,6.71,6.24,10.62s0.72,8.88-2.72,11.14
				c-3.98,2.62-9.28,0.41-14.01,0.93c-2.88,0.32-5.52,1.67-8.3,2.5c-2.77,0.82-6.02,1.04-8.34-0.69c-0.67-0.5-1.23-1.14-1.95-1.58
				c-2.69-1.65-6.39,0.17-9.27-1.13c-3.21-1.44-3.68-5.92-2.57-9.25s3.3-6.32,3.82-9.79c-10.42,4.99-15.95,18.33-12.12,29.23
				c0.18-5.61,2.34-11.14,6.01-15.39"/>
		</g>
		<g>
			<path d="M215.56,332.65c-0.21,0.21-0.59,0.32-0.91,0.33c-2.16,0.07-4.33-0.68-5.98-2.08c2.18-0.44,4.49-0.14,6.5,0.81
				c0.23,0.11,0.47,0.25,0.53,0.49C215.74,332.38,215.68,332.53,215.56,332.65z"/>
		</g>
		<g>
			<path d="M232.74,331.64c-0.11,0.06-0.22,0.14-0.27,0.25c-0.13,0.3,0.23,0.57,0.53,0.68c1.1,0.39,2.29,0.36,3.45,0.33
				c1.4-0.04,2.8-0.08,4.2-0.11c0.6-0.02,1.23-0.04,1.79-0.23c0-0.26-0.1-0.55-0.29-0.74c-0.37-0.36-0.91-0.47-1.42-0.56
				c-2.67-0.46-5.56-0.9-7.96,0.36C232.76,331.62,232.75,331.63,232.74,331.64z"/>
		</g>
		<g>
			<path d="M210.21,274.9c-3.95,1.9-8.33,3.59-12.41,2.16c-1.09-0.38-2.09-0.97-3.11-1.5c-3.22-1.67-6.71-2.77-10.28-3.43
				c-1.56-0.29-3.15-0.5-4.73-0.32c-3,0.34-5.75,2.09-7.6,4.48c-2.4,3.11-3.35,7.21-3.2,11.07c1.16-4.1,2.8-10.58,7.62-12.18
				c1.87-0.62,3.91-0.37,5.85-0.03c5.16,0.91,10.22,2.41,15.05,4.48c0.89,0.38,1.79,0.79,2.76,0.88c1.57,0.16,3.09-0.51,4.53-1.17
				c2.52-1.15,5.21-2.47,6.49-4.92C210.87,274.59,210.54,274.75,210.21,274.9z"/>
		</g>
		<g>
			<path d="M279.02,274.04c-6.6,1.77-13.27,3.33-19.69,5.68c-6.99,2.56-13.76,6.13-18.96,11.46c-0.33-1.35,0.23-2.86,1.35-3.68
				c5.62-7.6,13.79-10.58,22.84-13.29c5.3-1.58,10.95-2.93,16.32-1.62c0.22,0.05,0.47,0.15,0.52,0.37c0.07,0.31-0.31,0.51-0.62,0.6
				C280.2,273.72,279.61,273.89,279.02,274.04z"/>
		</g>
		<g>
			<path d="M258.07,290.86c0.34,0,0.69-0.05,1.01-0.13c0.97-0.25,1.77-0.8,2.43-1.41c0.22-0.2,0.42-0.41,0.54-0.66
				c0.16-0.35,0.11-0.75,0.02-1.11c-0.36-1.46-0.64-3.06-2.61-3.16c-0.85-0.2-2.8,0.07-3.43,0.59c-0.51,0.42-0.97,0.89-1.16,1.44
				c-0.27,0.8,0.05,1.63,0.37,2.42c0.22,0.53,0.45,1.09,0.97,1.49C256.69,290.7,257.38,290.86,258.07,290.86z"/>
		</g>
		<g>
			<path d="M158.6,318.56c0.27,0.41,0.54,0.81,0.81,1.21c-0.08-13.16-1.18-27.58,2.69-40.28c3.29-10.81,7.7-24.66,18.33-28.46
				c4.01,3.96,8.2,7.98,13.45,10.02c5.25,2.04,11.86,1.64,15.73-2.46c-6.48,1.84-13.88,1.32-19.33-2.64
				c-5.45-3.95-8.24-11.73-5.4-17.83c3.39,8.6,11.78,15.01,20.97,16.02c-1-4.07-7.01-3.7-10.41-6.16c-2.4-1.74-3.33-4.82-4.05-7.7
				c-1.05-4.22-1.64-9.51,1.81-12.14c3.72-2.83,9.15-0.24,12.4,3.11c6.48,6.67,9.64,16.42,8.3,25.62
				c6.08-3.69,11.83-7.93,17.16-12.64c3.17,5.16,6.95,10.77,12.85,12.08c7.38,1.63,15.34-4.2,22.31-1.28
				c3.26,4,6.51,7.99,9.77,11.99c6.37,7.82,13.02,15.86,22.05,20.35c2.62,1.3,5.5,6.2,7.29,8.52c4.07,5.29,0.12,9.94,3.88,15.45
				c7.58-4.63,15.25-9.34,21.37-15.77c6.12-6.43,10.62-14.9,10.41-23.77c0,0-0.14-6.07-0.27-11.63
				c-4.61-17.37,1.18-36.69-3.84-54.14c-2.21-7.67-6.41-14.6-10.8-21.27c-6.98-10.63-14.63-20.98-24.34-29.19
				c-13.88-11.75-31.78-18.66-49.96-19.3c-7.38-0.26-14.75,0.48-22.09,1.22c-9.56,0.96-19.18,1.93-28.45,4.48
				c-10.38,2.85-20.2,7.67-28.88,14.04c-23.33,17.12-37.53,45.28-39.98,74.11C129.89,259.62,142.13,293.79,158.6,318.56z"/>
		</g>
		<g>
			<path d="M158.75,303.22c0.16,0.16,0.33,0.33,0.49,0.49"/>
			<g>
				<path class="st3" d="M157.69,304.28c0.16,0.16,0.33,0.33,0.49,0.49c0.14,0.15,0.3,0.25,0.48,0.31c0.18,0.09,0.37,0.14,0.58,0.13
					c0.21,0.01,0.4-0.04,0.58-0.13c0.19-0.06,0.35-0.16,0.48-0.31c0.08-0.1,0.16-0.2,0.23-0.3c0.14-0.23,0.2-0.49,0.2-0.76
					c-0.02-0.13-0.04-0.27-0.05-0.4c-0.07-0.25-0.2-0.47-0.39-0.66c-0.16-0.16-0.33-0.33-0.49-0.49c-0.14-0.15-0.3-0.25-0.48-0.31
					c-0.18-0.09-0.37-0.14-0.58-0.13c-0.21-0.01-0.4,0.04-0.58,0.13c-0.19,0.06-0.35,0.16-0.48,0.31c-0.08,0.1-0.16,0.2-0.23,0.3
					c-0.14,0.23-0.2,0.49-0.2,0.76c0.02,0.13,0.04,0.27,0.05,0.4C157.38,303.87,157.51,304.09,157.69,304.28L157.69,304.28z"/>
			</g>
		</g>
		<g>
			<path d="M159.18,299.89c-5.55-7.86-11.11-15.73-17.3-23.09c-0.57,16.51,1.97,33.11,7.46,48.69c0.43,1.21,0.9,2.46,1.86,3.32
				c0.95,0.86,2.53,1.17,3.51,0.33c1.07-0.91,0.91-2.56,1.23-3.93c0.5-2.12,2.24-3.67,3.48-5.45c2.2-3.14,2.88-7.14,2.64-10.97
				s-1.33-7.54-2.41-11.22"/>
		</g>
		<g>
			<path d="M162.17,304.23c-5.55-7.86-11.11-15.73-17.3-23.09c-0.57,16.51,1.97,33.11,7.46,48.69c0.43,1.21,0.9,2.46,1.86,3.32
				s2.53,1.17,3.51,0.33c1.07-0.91,0.91-2.56,1.23-3.93c0.5-2.12,2.24-3.67,3.48-5.45c2.2-3.14,2.88-7.14,2.64-10.97
				c-0.24-3.83-1.33-7.54-2.41-11.22"/>
		</g>
		<g>
			<path d="M309.78,308.99c11.59-8.62,23.41-17.48,31.42-29.49c-1.31,13.18-3.05,26.68-9.33,38.33c-1.24,2.29-2.66,4.52-4.57,6.28
				c-5.54,5.11-15.05,5.08-20.56-0.07c-0.52-0.49-1.02-1.03-1.25-1.71c-0.27-0.81-0.12-1.69,0.07-2.52
				c0.89-3.96,2.48-7.75,4.66-11.17"/>
		</g>
		<g>
			<path d="M305.36,309.52c12.03-7.99,24.3-16.21,32.94-27.79c-2,13.09-4.45,26.48-11.35,37.78c-1.35,2.22-2.9,4.37-4.9,6.03
				c-5.8,4.81-15.3,4.27-20.53-1.16c-0.49-0.51-0.97-1.09-1.16-1.78c-0.23-0.82-0.03-1.69,0.2-2.51c1.1-3.9,2.88-7.61,5.25-10.91"/>
		</g>
	</g>
</g>
<g id="jacka">
	<g>
		<path class="st2" d="M32.9,466.53c0.86,12.99,1.71,25.98,2.57,38.97c5.83-0.83,11.51-2.75,16.66-5.62
			c-0.4-2.32-1.28-4.52-2.16-6.7c-3.99-9.92-8.37-20.21-16.59-27.04"/>
	</g>
	<g>
		<path class="st4" d="M57.02,530.52c-5.86-22.26-13.84-43.96-23.79-64.72c13.8-5.85,27.6-11.69,41.39-17.54
			c18.47-7.82,36.98-15.67,54.4-25.61c7.76-4.43,15.47-9.43,20.73-16.65c4.85-6.64,7.28-14.69,9.64-22.56
			c3.98-13.31,7.97-26.63,11.95-39.94c32.89-1.54,65.78-3.07,98.67-4.61c20.88-0.98,43.49-2.62,59.24-16.36
			c1.95,15.78,3.91,31.56,5.86,47.35c0.66,5.34,1.34,10.77,3.44,15.73c6.2,14.7,22.71,21.64,37.68,27.17
			c19.97,7.37,39.95,14.75,59.92,22.12c10.13,3.74,20.61,7.7,28.24,15.34c13.58,13.59,14.73,34.87,15.05,54.08"/>
	</g>
	<g>
		<path class="st5" d="M193.05,483.4c5.29,5.29,10.73,10.38,17.16,14.13c-8.8-21.66-19.28-42.66-26.56-64.87
			c-7.3-22.26-11.3-46.21-6.62-69.16c-1.55-2.75-3.27-5.42-5.14-7.97c-9.81,17.21-15.4,36.8-16.15,56.6
			c-0.26,6.79,0.04,13.59,0.34,20.38c0.38,8.67,0.77,17.35,1.15,26.02c10.93,1.97,20.09,9.29,28.04,17.05
			C187.89,478.15,190.45,480.79,193.05,483.4z"/>
	</g>
	<g>
		<path class="st5" d="M368.9,418.79c9.28,8.61,19.23,16.58,29.16,24.44c-46.87,21.44-100.57,28.6-142.64,58.36
			c2.12-6.43,6.07-12.24,11.27-16.57c27.14-37.18,53.89-75.68,65.96-119.97c1.73,10.7,7.3,20.42,13.77,29.12
			C353.07,403.11,360.73,411.2,368.9,418.79z"/>
	</g>
	<g>
		<path class="st6" d="M175.66,363.42c-2.79,8.3-2.49,17.3-1.68,26.01c1.97,21.26,6.82,42.26,14.36,62.23
			c2.44,6.47,5.17,12.84,7.89,19.2c10.09,23.57,20.17,47.14,30.26,70.71c0.17,0.39,0.35,0.8,0.71,1.03
			c0.56,0.37,1.31,0.14,1.94-0.09c5.87-2.2,11.73-4.39,17.6-6.59c1.55-0.58,3.18-1.21,4.23-2.49c1.1-1.33,1.38-3.13,1.67-4.84
			c2.87-17.44,9.32-34.28,18.84-49.17c3.88-6.07,8.25-11.8,12.61-17.53c6.61-8.67,13.22-17.34,19.82-26.01
			c8.43-11.07,17.12-22.68,19.66-36.36c1.45-7.83,0.79-15.9,1.8-23.8c0.75-5.9,2.43-11.64,3.49-17.49
			c2.02-11.1,1.8-22.61-0.64-33.63c-5.57,3.11-11.23,6.05-16.97,8.82c-2.52,1.22-5.1,2.41-7.85,2.92c-3.24,0.6-6.57,0.24-9.86-0.02
			c-22.47-1.74-44.97,1.91-67.22,5.54c-6.84,1.12-13.75,2.25-20.16,4.88c-5.58,2.29-10.65,5.65-15.68,8.98
			c-4.82,3.2-9.63,6.39-14.45,9.59"/>
	</g>
	<g>
		<path class="st7" d="M188.02,361.35c-1.98,3.53,2.93,28.43,4.71,32.07c1.78,3.63,4.64,6.61,7.34,9.62
			c12.16,13.52,22.18,28.96,29.59,45.57c1.53,3.42,2.99,6.97,5.55,9.71c2.56,2.73,6.54,4.51,10.1,3.35c2.83-0.91,4.82-3.41,6.6-5.8
			c10.64-14.24,20.48-29.09,29.45-44.44c2.79-4.77,5.53-9.64,9.36-13.61c2.55-2.64,5.53-4.84,8.18-7.38
			c7.34-7.05,11.98-16.86,12.76-27.02c-13.32,4.93-24.47,14.26-36.59,21.67c-12.12,7.41-26.6,13.08-40.35,9.52
			c-5.51-1.43-10.53-4.26-15.79-6.44C210.58,384.71,197.07,361.43,188.02,361.35"/>
	</g>
	<g>
		<g>
			<path class="st2" d="M207.92,495.5c-6.92-4.43-11.86-11.14-17.07-17.35c-5.46-6.53-11.56-12.23-19.21-16.12
				c-4.33-2.2-8.94-3.82-13.7-4.79c-1.88-0.38-2.69,2.51-0.8,2.89c8.33,1.7,16.23,5.41,22.74,10.91
				c6.22,5.26,10.85,12.01,16.26,18.03c3.06,3.4,6.4,6.54,10.27,9.01C208.04,499.14,209.54,496.54,207.92,495.5L207.92,495.5z"/>
		</g>
	</g>
	<g>
		<g>
			<path class="st2" d="M264.62,498.9c14.9-10.4,31.29-18.43,48.15-25.14c17.14-6.82,34.76-12.38,52.31-18.04
				c10.94-3.53,21.88-7.05,32.82-10.58c1.83-0.59,1.05-3.49-0.8-2.89c-18.9,6.09-37.85,12.05-56.69,18.35
				c-17.23,5.76-34.35,12.02-50.66,20.08c-9.24,4.57-18.19,9.73-26.65,15.63C261.54,497.41,263.03,500.01,264.62,498.9L264.62,498.9
				z"/>
		</g>
	</g>
	<g>
		<g>
			<path class="st2" d="M158.16,459.16c-1.04-17.23-1.14-34.51-0.28-51.74c0.24-4.87,0.57-9.73,0.96-14.58c0.16-1.92-2.84-1.91-3,0
				c-1.39,17.2-1.85,34.48-1.34,51.73c0.14,4.87,0.37,9.74,0.66,14.6C155.27,461.08,158.28,461.09,158.16,459.16L158.16,459.16z"/>
		</g>
	</g>
</g>
<g id="fejs">
	<g>
		<path class="st8" d="M170.19,293.58c-0.26,14.2,0.42,28.42-0.42,42.6c-0.51,8.55-1.42,17.76,3.01,25.1
			c1.45,2.41,3.41,4.46,5.35,6.49c12.55,13.13,25.09,26.27,37.64,39.4c1.76,1.84,3.58,3.73,5.89,4.8c2.15,0.99,4.57,1.21,6.93,1.3
			c15.25,0.58,30.64-3.63,43.47-11.9c8.28-5.34,15.41-12.23,22.48-19.09c4.29-4.15,8.57-8.31,12.86-12.46
			c5.11-4.95,10.36-10.1,13.06-16.68c6.11-14.88-4.45-21.6,0.12-39.43c0.06-26.08-8.67-51.45-16.87-76.22
			c-2.15-6.5-4.33-13.06-7.82-18.96c-3.8-6.43-9.05-11.89-14.61-16.89c-4.26-3.84-8.97-7.57-14.59-8.74
			c-4.96-1.04-10.1,0.03-15.02,1.23c-25.89,6.32-52.37,17.72-67.03,39.98c-9.59,14.57-13.09,32.34-14.11,49.75
			C170.36,287.11,170.25,290.35,170.19,293.58z"/>
	</g>
	<g>
		<path class="st9" d="M209.08,357.02c0.42-4.9,3.22-9.61,7.47-12.13c1.11-0.66,2.36-1.19,3.65-1.16c1.49,0.03,2.85,0.78,4.21,1.39
			c6.62,2.97,14.37,2.89,21.28,0.67c3.32-1.07,6.78-2.62,10.15-1.76c1.49,0.38,2.84,1.22,4.01,2.22c4.21,3.56,6.35,9.36,5.65,14.81
			c-1.38,2.3-2.75,4.61-4.12,6.91c-1.62,2.73-3.27,5.48-5.53,7.71c-6.54,6.44-16.79,7.17-25.88,5.9c-1.95-0.27-3.92-0.63-5.7-1.47
			c-2.04-0.96-3.74-2.51-5.4-4.03c-2.43-2.22-4.88-4.47-6.75-7.18c-1.73-2.51-2.95-5.48-2.95-8.52
			C209.01,359.26,208.98,358.14,209.08,357.02z"/>
	</g>
	<g>
		<path class="st10" d="M265.48,361.24c-4.37,1.03-7.73,4.4-11.41,6.96c-5.89,4.1-13.11,6.27-20.28,6.1
			c-3.16-0.07-6.51-0.68-8.86-2.8c-2.32-2.11-3.28-5.36-5.4-7.67c-2.37-2.59-6.39-2.69-9.02-3.75c1.12-0.79,2.21-2.15,2.85-3.49
			c0.64-1.33,0.65-2.87,1-4.31c0.59-2.42,2.47-4.73,4.95-4.96c3.64-0.34,6.24,3.58,9.77,4.54c1.37,0.37,2.82,0.28,4.24,0.14
			c3.78-0.37,7.54-1.01,11.23-1.92c1.82-0.45,3.68-0.97,5.54-0.8c2.51,0.22,4.72,1.64,7.01,2.7c2.29,1.05,5.05,1.74,7.26,0.51"/>
	</g>
	<path class="st9" d="M255.42,369.35c0,3.36-8.17,6.08-18.24,6.08c-10.07,0-22.14-9.65-22.14-13.01s6.73,5.96,16.8,5.96
		C241.91,368.38,255.42,365.99,255.42,369.35z"/>
	<g>
		<path class="st11" d="M256.12,356.6c-0.41,0.09-0.85,0.12-1.28,0.14c-4.66,0.24-9.32,0.46-13.98,0.66
			c-2.72,0.12-5.44,0.23-8.16,0.35c-2.61,0.11-5.21,0.22-7.82,0.33c-0.66,0.03-1.43,0.01-1.84-0.52c-0.29-0.38-0.28-0.91-0.26-1.39
			c0.11-2.31,0.22-4.61,0.33-6.92c1.84,0.16,3.36,1.46,5.06,2.18c3.19,1.35,6.82,0.61,10.2-0.14c1.78-0.4,3.55-0.79,5.33-1.19
			c2.69-0.6,5.51-1.2,8.16-0.46c0.7,0.2,1.38,0.49,2.05,0.77c0.69,0.3,1.39,0.59,2.08,0.89c0.9,0.38,1.97,0.9,2.15,1.96
			c0.15,0.87-0.24,2.24-0.91,2.82C256.91,356.36,256.53,356.51,256.12,356.6z"/>
	</g>
	<g>
		<path class="st12" d="M227.82,357.84c1.55-1.31,2.29-3.5,1.85-5.48"/>
	</g>
	<g>
		<path class="st12" d="M236.22,357.44c0.8-1.65,0.98-3.6,0.48-5.36"/>
	</g>
	<g>
		<path class="st12" d="M241.25,357.27c0.84-1.83,1.11-3.92,0.76-5.91"/>
	</g>
	<g>
		<path class="st12" d="M246.57,356.51c0.88-1.9,1.17-4.07,0.82-6.13"/>
	</g>
	<g>
		<path class="st12" d="M251.46,356.26c0.72-1.87,0.93-3.92,0.61-5.9"/>
	</g>
	<g>
		<path class="st11" d="M259.93,363.57c-6.11,6.59-11,5.28-14.06,5.73c-2.09,0.31-4.22,0.18-6.33,0.04c-3.21-0.2-6.42-0.4-9.62-0.6
			c-1.78-0.11-3.56-0.22-5.34-0.11c-3.57-2.71-3.57-2.71-3.17-6.54c0.16-1.54,5.12-0.56,6.66-0.41c5.29,0.52,10.59,1.47,15.89,1.06
			c2.71-0.21,5.4-0.78,8.12-0.9C254.81,361.71,257.66,362.08,259.93,363.57"/>
	</g>
	<g>
		<path class="st12" d="M226.57,361.35c0.49,0.03,1.82,1.8,1.9,2.29c0.26,1.68,0.06,3.42-0.58,5"/>
	</g>
	<g>
		<path class="st12" d="M231.84,362.76c0.38,1.51,0.56,3.08,0.52,4.64c-0.01,0.39,0.1,1.58-0.28,1.51"/>
	</g>
	<g>
		<path class="st12" d="M236.47,363.29c0.67,1.71,0.83,3.62,0.46,5.41"/>
	</g>
	<g>
		<path class="st12" d="M240.41,363.27c1.15,1.69,1.56,3.87,1.11,5.87"/>
	</g>
	<g>
		<path class="st12" d="M244.55,363.25c-0.17-0.05-0.03-0.35,0.15-0.32c0.18,0.03,0.27,0.23,0.33,0.39
			c0.64,1.78,0.96,3.68,0.94,5.57"/>
	</g>
	<g>
		<path class="st12" d="M249.31,362.12c0.99,1.92,1.29,4.19,0.84,6.3"/>
	</g>
	<g>
		<path class="st12" d="M253.56,362.07c0.5,1.65,0.66,3.41,0.44,5.12"/>
	</g>
	<g>
		<path class="st13" d="M261.03,280.94c3.4-2.95,8.21-3.85,12.74-3.88c6.94-0.06,13.89,1.59,20.06,4.76
			c-4.87,1.92-10.12,0.83-15.22,1.1c-3.04,0.16-6.04,0.82-9.07,1c-3.04,0.19-6.23-0.13-8.81-1.75c-0.16-0.1-0.34-0.24-0.35-0.43
			c-0.01-0.17,0.12-0.32,0.25-0.43C260.75,281.19,260.89,281.06,261.03,280.94z"/>
	</g>
	<g>
		<path class="st14" d="M250.14,288.89c0.94,4.73,2.75,9.29,5.3,13.39c2.18,3.49,4.92,6.71,6.24,10.62
			c1.31,3.9,0.72,8.88-2.72,11.14c-3.98,2.62-9.28,0.41-14.01,0.93c-2.88,0.32-5.52,1.67-8.3,2.5c-2.77,0.82-6.02,1.04-8.34-0.69
			c-0.67-0.5-1.23-1.14-1.95-1.58c-2.69-1.65-6.39,0.17-9.27-1.13c-3.21-1.44-3.68-5.92-2.57-9.25s3.3-6.32,3.82-9.79
			c-10.42,4.99-15.95,18.33-12.12,29.23c0.18-5.61,2.34-11.14,6.01-15.39C247.37,318.19,255.16,308.06,250.14,288.89z"/>
	</g>
	<g>
		<path class="st15" d="M227.43,325.66c-0.21,0.21-0.59,0.32-0.91,0.33c-2.16,0.07-4.33-0.68-5.98-2.08
			c2.18-0.44,4.49-0.14,6.5,0.81c0.23,0.11,0.47,0.25,0.53,0.49C227.61,325.39,227.55,325.54,227.43,325.66z"/>
	</g>
	<g>
		<path class="st15" d="M244.6,324.64c-0.11,0.06-0.22,0.14-0.27,0.25c-0.13,0.3,0.23,0.57,0.53,0.68c1.1,0.39,2.29,0.36,3.45,0.33
			c1.4-0.04,2.8-0.08,4.2-0.11c0.6-0.02,1.23-0.04,1.79-0.23c0-0.26-0.1-0.55-0.29-0.74c-0.37-0.36-0.91-0.47-1.42-0.56
			c-2.67-0.46-5.56-0.9-7.96,0.36C244.63,324.63,244.61,324.63,244.6,324.64z"/>
	</g>
	<g>
		<path class="st15" d="M222.08,267.91c-3.95,1.9-8.33,3.59-12.41,2.16c-1.09-0.38-2.09-0.97-3.11-1.5
			c-3.22-1.67-6.71-2.77-10.28-3.43c-1.56-0.29-3.15-0.5-4.73-0.32c-3,0.34-5.75,2.09-7.6,4.48c-2.4,3.11-3.35,7.21-3.2,11.07
			c1.16-4.1,2.8-10.58,7.62-12.18c1.87-0.62,3.91-0.37,5.85-0.03c5.16,0.91,10.22,2.41,15.05,4.48c0.89,0.38,1.79,0.79,2.76,0.88
			c1.57,0.16,3.09-0.51,4.53-1.17c2.52-1.15,5.21-2.47,6.49-4.92C222.73,267.59,222.41,267.75,222.08,267.91z"/>
	</g>
	<g>
		<path class="st15" d="M290.88,267.05c-6.6,1.77-13.27,3.33-19.69,5.68c-6.99,2.56-13.76,6.13-18.96,11.46
			c-0.33-1.35,0.23-2.86,1.35-3.68c5.62-7.6,13.79-10.58,22.84-13.29c5.3-1.58,10.95-2.93,16.32-1.62c0.22,0.05,0.47,0.15,0.52,0.37
			c0.07,0.31-0.31,0.51-0.62,0.6C292.06,266.73,291.47,266.89,290.88,267.05z"/>
	</g>
	<g>
		<path class="st16" d="M269.93,283.87c0.34,0,0.69-0.05,1.01-0.13c0.97-0.25,1.77-0.8,2.43-1.41c0.22-0.2,0.42-0.41,0.54-0.66
			c0.16-0.35,0.11-0.75,0.02-1.11c-0.36-1.46-0.64-3.06-2.61-3.16c-0.85-0.2-2.8,0.07-3.43,0.59c-0.51,0.42-0.97,0.89-1.16,1.44
			c-0.27,0.8,0.05,1.63,0.37,2.42c0.22,0.53,0.45,1.09,0.97,1.49C268.56,283.7,269.24,283.87,269.93,283.87z"/>
	</g>
	<g>
		<path class="st13" d="M190.04,279.98c3.4-2.95,8.21-3.85,12.74-3.88c6.94-0.06,13.89,1.59,20.06,4.76
			c-4.87,1.92-10.12,0.83-15.22,1.1c-3.04,0.16-6.04,0.82-9.07,1c-3.04,0.19-6.23-0.13-8.81-1.75c-0.16-0.1-0.34-0.24-0.35-0.43
			c-0.01-0.17,0.12-0.32,0.25-0.43C189.77,280.23,189.9,280.1,190.04,279.98z"/>
	</g>
	<g>
		<path class="st16" d="M198.95,282.9c0.34,0,0.69-0.05,1.01-0.13c0.97-0.25,1.77-0.8,2.43-1.41c0.22-0.2,0.42-0.41,0.54-0.66
			c0.16-0.35,0.11-0.75,0.02-1.11c-0.36-1.46-0.64-3.06-2.61-3.16c-0.85-0.2-2.8,0.07-3.43,0.59c-0.51,0.42-0.97,0.89-1.16,1.44
			c-0.27,0.8,0.05,1.63,0.37,2.42c0.22,0.53,0.45,1.09,0.97,1.49C197.57,282.74,198.25,282.91,198.95,282.9z"/>
	</g>
</g>
<g id="hår">
	<g>
		<path class="st3" d="M170.46,311.57c0.27,0.41,0.54,0.81,0.81,1.21c-0.08-13.16-1.18-27.58,2.69-40.28
			c3.29-10.81,7.7-24.66,18.33-28.46c4.01,3.96,8.2,7.98,13.45,10.02s11.86,1.64,15.73-2.46c-6.48,1.84-13.88,1.32-19.33-2.64
			c-5.45-3.95-8.24-11.73-5.4-17.83c3.39,8.6,11.78,15.01,20.97,16.02c-1-4.07-7.01-3.7-10.41-6.16c-2.4-1.74-3.33-4.82-4.05-7.7
			c-1.05-4.22-1.64-9.51,1.81-12.14c3.72-2.83,9.15-0.24,12.4,3.11c6.48,6.67,9.64,16.42,8.3,25.62
			c6.08-3.69,11.83-7.93,17.16-12.64c3.17,5.16,6.95,10.77,12.85,12.08c7.38,1.63,15.34-4.2,22.31-1.28c3.26,4,6.51,7.99,9.77,11.99
			c6.37,7.82,13.02,15.86,22.05,20.35c2.62,1.3,5.5,6.2,7.29,8.52c4.07,5.29,0.12,9.94,3.88,15.45c7.58-4.63,15.25-9.34,21.37-15.77
			c6.12-6.43,10.62-14.9,10.41-23.77c0,0-0.14-6.07-0.27-11.63c-4.61-17.37,1.18-36.69-3.84-54.14c-2.21-7.67-6.41-14.6-10.8-21.27
			c-6.98-10.63-14.63-20.98-24.34-29.19c-13.88-11.75-31.78-18.66-49.96-19.3c-7.38-0.26-14.75,0.48-22.09,1.22
			c-9.56,0.96-19.18,1.93-28.45,4.48c-10.38,2.85-20.2,7.67-28.88,14.04c-23.33,17.12-37.53,45.28-39.98,74.11
			C141.75,252.62,154,286.79,170.46,311.57z"/>
	</g>
</g>
<g id="öron">
	<g>
		<g>
			<path class="st3" d="M169.55,297.28c0.16,0.16,0.33,0.33,0.49,0.49c0.14,0.15,0.3,0.25,0.48,0.31c0.18,0.09,0.37,0.14,0.58,0.13
				c0.21,0.01,0.4-0.04,0.58-0.13c0.19-0.06,0.35-0.16,0.48-0.31c0.08-0.1,0.16-0.2,0.23-0.3c0.14-0.23,0.2-0.49,0.2-0.76
				c-0.02-0.13-0.04-0.27-0.05-0.4c-0.07-0.25-0.2-0.47-0.39-0.66c-0.16-0.16-0.33-0.33-0.49-0.49c-0.14-0.15-0.3-0.25-0.48-0.31
				c-0.18-0.09-0.37-0.14-0.58-0.13c-0.21-0.01-0.4,0.04-0.58,0.13c-0.19,0.06-0.35,0.16-0.48,0.31c-0.08,0.1-0.16,0.2-0.23,0.3
				c-0.14,0.23-0.2,0.49-0.2,0.76c0.02,0.13,0.04,0.27,0.05,0.4C169.24,296.88,169.37,297.1,169.55,297.28L169.55,297.28z"/>
		</g>
	</g>
	<g>
		<path class="st7" d="M171.04,292.9c-5.55-7.86-11.11-15.73-17.3-23.09c-0.57,16.51,1.97,33.11,7.46,48.69
			c0.43,1.21,0.9,2.46,1.86,3.32s2.53,1.17,3.51,0.33c1.07-0.91,0.91-2.56,1.23-3.93c0.5-2.12,2.24-3.67,3.48-5.45
			c2.2-3.14,2.88-7.14,2.64-10.97c-0.24-3.83-1.33-7.54-2.41-11.22"/>
	</g>
	<g>
		<path class="st8" d="M174.03,297.24c-5.55-7.86-11.11-15.73-17.3-23.09c-0.57,16.51,1.97,33.11,7.46,48.69
			c0.43,1.21,0.9,2.46,1.86,3.32c0.95,0.86,2.53,1.17,3.51,0.33c1.07-0.91,0.91-2.56,1.23-3.93c0.5-2.12,2.24-3.67,3.48-5.45
			c2.2-3.14,2.88-7.14,2.64-10.97c-0.24-3.83-1.33-7.54-2.41-11.22"/>
	</g>
	<g>
		<path class="st7" d="M321.64,301.99c11.59-8.62,23.41-17.48,31.42-29.49c-1.31,13.18-3.05,26.68-9.33,38.33
			c-1.24,2.29-2.66,4.52-4.57,6.28c-5.54,5.11-15.05,5.08-20.56-0.07c-0.52-0.49-1.02-1.03-1.25-1.71
			c-0.27-0.81-0.12-1.69,0.07-2.52c0.89-3.96,2.48-7.75,4.66-11.17"/>
	</g>
	<g>
		<path class="st8" d="M317.22,302.53c12.03-7.99,24.3-16.21,32.94-27.79c-2,13.09-4.45,26.48-11.35,37.78
			c-1.35,2.22-2.9,4.37-4.9,6.03c-5.8,4.81-15.3,4.27-20.53-1.16c-0.49-0.51-0.97-1.09-1.16-1.78c-0.23-0.82-0.03-1.69,0.2-2.51
			c1.1-3.9,2.88-7.61,5.25-10.91"/>
	</g>
</g>
<g id="ram">
	<path class="st17" d="M19.69,197.99V22.83c0,0,0-0.3,0-0.6c0,0,175.16,0,175.16,0"/>
	<path class="st17" d="M18.36,297.87v175.16c0,0,0,4.01,0,8.01c1.33,0,2.67,0,2.67,0l175.16,0"/>
	<path class="st17" d="M478.42,305.63l0,175.16c0,0,0,0.3,0,0.6c0,0-175.16,0-175.16,0"/>
	<path class="st17" d="M478.42,205.4l0-175.16c0,0,0-4.01,0-8.01c-4.24,0-8.47,0-8.47,0l-175.16,0"/>
	<circle class="st17" cx="478.42" cy="287.86" r="8.43"/>
	<circle class="st17" cx="478.48" cy="266.05" r="8.5"/>
	<circle class="st17" cx="478.48" cy="244.24" r="8.43"/>
	<circle class="st17" cx="478.42" cy="223.03" r="8.43"/>
	<circle class="st17" cx="19.63" cy="280.9" r="8.43"/>
	<circle class="st17" cx="19.69" cy="259.09" r="8.5"/>
	<circle class="st17" cx="19.69" cy="237.28" r="8.43"/>
	<circle class="st17" cx="19.63" cy="216.07" r="8.43"/>
	<g>
		<polyline class="st17" points="60.22,38.69 42.73,38.69 42.73,56.49 		"/>
		<polyline class="st17" points="114.61,38.69 132.1,38.69 132.1,56.49 		"/>
		<polyline class="st17" points="60.22,127.8 42.73,127.8 42.73,110 		"/>
		<polyline class="st17" points="114.61,127.8 132.1,127.8 132.1,110 		"/>
	</g>
</g>
</svg>
