<?xml version="1.0" encoding="utf-8"?>
<!-- Generator: Adobe Illustrator 25.1.0, SVG Export Plug-In . SVG Version: 6.00 Build 0)  -->
<svg version="1.1" id="Lager_1" xmlns="http://www.w3.org/2000/svg" xmlns:xlink="http://www.w3.org/1999/xlink" x="0px" y="0px"
	 viewBox="0 0 1000 1000" style="enable-background:new 0 0 1000 1000;" xml:space="preserve">
<style type="text/css">
	.st0{fill:#050101;}
	.st1{fill:none;stroke:#000000;stroke-width:2;stroke-miterlimit:10;}
	.st2{fill:#FFFFFF;}
</style>
<ellipse class="st0" cx="499.2" cy="507.2" rx="240.6" ry="241.2"/>
<path class="st1" d="M209.6,516.4c0-38.8,7.6-75.8,21.4-109.6"/>
<path class="st1" d="M475.9,805.7c-74.2-5.9-140.6-39.9-188.5-91.4"/>
<path class="st1" d="M788.8,516.4c0,76.7-29.7,146.5-78.2,198.4c-41.5,44.4-96.8,75.8-159.1,87.1"/>
<path class="st1" d="M499.2,226.2c60,0,115.7,18.3,161.9,49.6"/>
<path class="st1" d="M170.1,600.3c-6.8-26.8-10.4-54.9-10.4-83.9c0-163.9,115.7-300.8,269.7-333c7.5-1.6,15-2.9,22.6-3.9"/>
<path class="st1" d="M235.2,730.3c-9.3-11.5-17.9-23.6-25.6-36.3"/>
<path class="st1" d="M716.6,777.7c-21.2,17.8-44.7,33-69.8,45.2"/>
<path class="st1" d="M838.7,516.4c0,41.2-7.3,80.7-20.7,117.3"/>
<path class="st1" d="M499.2,176.2c62.3,0,120.8,16.8,171,46.2c6.4,3.8,12.7,7.7,18.8,11.9c7.7,5.2,15.2,10.8,22.5,16.6
	c67.9,54.6,114.3,134.7,124.9,225.8"/>
<path class="st1" d="M287.3,838.5c-108.7-70-180.7-192.2-180.7-331.3"/>
<path class="st1" d="M681.7,855.6c-6.7,3.6-13.6,6.9-20.6,10.1c-49.4,22.4-104.2,34.9-161.9,34.9c-61.8,0-120.2-14.3-172.2-39.8"/>
<path class="st1" d="M889.3,551.8"/>
<path class="st1" d="M793.5,246.8c52.8,59.9,87.7,136.1,96.3,220.2"/>
<path class="st1" d="M309.1,162.9c12.1-6.7,24.5-12.8,37.3-18.2c47-19.9,98.6-30.9,152.8-30.9c75.3,0,145.6,21.2,205.4,58.1"/>
<path class="st1" d="M71.5,378.3c8.6-30.8,20.4-60.3,35-88c16.5-31.3,36.6-60.3,59.8-86.6"/>
<path class="st1" d="M227,849.7c-37.8-29.5-70.8-64.9-97.4-105c-47-70.6-74.4-155.4-74.4-246.6"/>
<path class="st1" d="M716.5,886.2c-15.7,8.8-32,16.8-48.7,23.7c-52,21.4-108.9,33.2-168.6,33.2"/>
<path class="st1" d="M943.1,498.1c0,46.1-7,90.5-20,132.3"/>
<path class="st1" d="M499.2,53.2c87.8,0,169.7,25.6,238.6,69.7c13.1,8.4,25.7,17.4,37.7,27"/>
<path class="st1" d="M209.5,161c53.7-46.4,118.6-80.1,190.2-96.5c7.5-1.7,15.2-3.3,22.8-4.6"/>
<path class="st1" d="M12.6,498.1c0-8.4,0.2-16.8,0.6-25.1c0.8-16.5,2.5-32.9,4.9-48.9c12-79.3,43.1-152.2,88.4-214.1"/>
<path class="st1" d="M259.5,922.7c-35.2-20-67.6-44.2-96.6-72c-12.5-12-24.3-24.6-35.5-37.8"/>
<path class="st1" d="M878,804.3C810.6,888,716.1,948.9,607.9,973.6c-9.1,2.1-18.4,3.9-27.7,5.5c-26.3,4.4-53.4,6.7-81,6.7
	c-14.6,0-29.1-0.6-43.4-1.9"/>
<path class="st1" d="M958.2,335.7c9.5,27.1,16.8,55.2,21.4,84.3c2.5,15.5,4.3,31.2,5.3,47.1c0.6,10.3,1,20.6,1,31.1
	c0,93.1-26,180.2-71.2,254.2"/>
<path class="st1" d="M809.4,122.4c50.5,41.9,92.5,93.9,122.7,152.9"/>
<path class="st1" d="M173.3,136c59.2-53.6,131.6-92.7,211.7-112c14.2-3.4,28.7-6.2,43.4-8.4c15.7-2.3,31.6-3.8,47.7-4.6
	c7.6-0.4,15.3-0.5,23-0.5"/>
<path class="st2" d="M697.7,655.3c2.2-2.8,3.5-6,5.5-8.8c-83,97.8-228.4,114.3-330.5,34.7S250.8,456.2,325,351.6
	c-2.3,2.7-5,4.7-7.2,7.6c-81.6,105.1-62.7,256.6,42.2,338.4S616.1,760.4,697.7,655.3z"/>
</svg>
